<?xml version="1.0" encoding="UTF-8"?>
<svg width="18px" height="25px" viewBox="0 0 18 25" version="1.1" xmlns="http://www.w3.org/2000/svg" xmlns:xlink="http://www.w3.org/1999/xlink">
    <!-- Generator: Sketch 41.2 (35397) - http://www.bohemiancoding.com/sketch -->
    <title>adobe</title>
    <desc>Created with Sketch.</desc>
    <defs>
        <polygon id="path-1" points="0.103400383 6.20324759 3.21432905 6.20324759 3.21432905 0.240492155 0.103400383 0.240492155"></polygon>
        <polygon id="path-3" points="0.0411740557 4.65243569 2.99663382 4.65243569 2.99663382 0.219129721 0.0411740557 0.219129721"></polygon>
    </defs>
    <g id="Page-1" stroke="none" stroke-width="1" fill="none" fill-rule="evenodd">
        <g id="adobe">
            <g id="Page-1">
                <g id="adobe">
                    <polygon id="Fill-1" fill="#939393" points="11.1948071 0 17.7516397 15.6992565 17.7516397 0"></polygon>
                    <polygon id="Fill-2" fill="#939393" points="0.0132594417 0 0.0132594417 15.6992565 6.57513227 0"></polygon>
                    <polygon id="Fill-3" fill="#939393" points="8.88495029 5.78542009 13.0632252 15.6982097 10.3252668 15.6982097 9.07531244 12.5411444 6.01788678 12.5411444"></polygon>
                    <g id="Group-17" transform="translate(0.000000, 18.222040)">
                        <path d="M2.2944262,3.77192348 C2.17191206,3.13298897 1.94433041,2.17071018 1.85709724,1.54961002 L1.84818008,1.54961002 C1.7605592,2.15326355 1.59462233,3.00194534 1.44574439,3.77192348 L2.2944262,3.77192348 Z M1.25344372,4.70783845 L0.964605,6.0729406 C0.95568783,6.12528052 0.938241198,6.13419767 0.894430761,6.13419767 L0.0635832876,6.13419767 C0.0108556833,6.13419767 -0.00659095055,6.11675106 0.00232621784,6.04657681 L1.14837621,1.10336389 C1.18326948,0.954873655 1.18326948,0.875782247 1.18326948,0.622224503 C1.18326948,0.587331236 1.20071611,0.569884601 1.23560938,0.569884601 L2.4254698,0.569884601 C2.46928024,0.569884601 2.48672687,0.587331236 2.49564404,0.631141672 L3.83438241,6.06402345 C3.84291187,6.11675106 3.82546523,6.13419767 3.7816548,6.13419767 L2.85426929,6.13419767 C2.81045886,6.13419767 2.78448276,6.10783388 2.78448276,6.0729406 L2.47819741,4.70783845 L1.25344372,4.70783845 Z" id="Fill-4" fill="#939393"></path>
                        <g id="Group-8" transform="translate(3.877030, 0.000000)">
                            <g id="Fill-6-Clipped">
                                <mask id="mask-2" fill="white">
                                    <use xlink:href="#path-1"></use>
                                </mask>
                                <g id="path-1"></g>
                                <path d="M2.16869413,2.69465198 C2.12565909,2.67720534 2.08223636,2.66867588 1.97871967,2.66867588 C1.49447865,2.66867588 1.13158867,3.10949417 1.13158867,3.97368408 C1.13158867,4.88982621 1.49447865,5.26977514 1.9698025,5.26977514 C2.03028416,5.26977514 2.11674193,5.26124566 2.16869413,5.24418672 L2.16869413,2.69465198 Z M0.103400383,4.00818966 C0.103400383,2.74660418 0.846626983,1.76998039 2.03028416,1.76998039 L2.16869413,1.76998039 L2.16869413,0.283527185 C2.16869413,0.257551086 2.18614076,0.240492155 2.22064632,0.240492155 L3.1453179,0.240492155 C3.17982348,0.240492155 3.18835296,0.257551086 3.18835296,0.283527185 L3.18835296,5.26124566 C3.18835296,5.39073845 3.17982348,5.56365399 3.21432905,5.84008621 C3.21432905,5.8660623 3.21432905,5.88350894 3.17982348,5.90095557 C2.82546296,6.08240057 2.36758575,6.20336388 1.92676747,6.20336388 C0.837709816,6.20336388 0.103400383,5.49464284 0.103400383,4.00818966 L0.103400383,4.00818966 Z" id="Fill-6" fill="#939393" mask="url(#mask-2)"></path>
                            </g>
                        </g>
                        <g id="Group-11" transform="translate(7.366357, 1.550812)" fill="#939393">
                            <path d="M1.2632526,2.42279466 C1.2632526,3.22650293 1.43616813,3.75377897 1.82503421,3.75377897 C2.19645366,3.75377897 2.37789865,3.30443121 2.37789865,2.43132412 C2.37789865,1.61908639 2.23987639,1.11778645 1.83356368,1.11778645 C1.47920316,1.11778645 1.2632526,1.52409916 1.2632526,2.42279466 M3.39794517,2.42279466 C3.39794517,3.78828454 2.8276341,4.65247445 1.82503421,4.65247445 C0.701470991,4.65247445 0.252123244,3.66732121 0.252123244,2.41426519 C0.252123244,1.13523308 0.822434319,0.219090951 1.84209314,0.219090951 C2.81871693,0.219090951 3.39794517,1.03132868 3.39794517,2.42279466" id="Fill-9"></path>
                        </g>
                        <path d="M12.6393496,2.6860062 C12.5703384,2.6860062 12.423399,2.69453567 12.3284118,2.72942894 L12.3284118,5.27857598 C12.3974229,5.29563491 12.4579046,5.29563491 12.5098568,5.29563491 C12.8987229,5.29563491 13.3566001,4.89823937 13.3651295,3.82662836 C13.3740467,2.98841451 13.0367451,2.6860062 12.6393496,2.6860062 L12.6393496,2.6860062 Z M12.2849891,0.240375844 C12.3194946,0.240375844 12.3284118,0.257434775 12.3284118,0.292328043 L12.3284118,1.82181627 C12.4493751,1.79584018 12.5963145,1.76986407 12.7948185,1.76986407 C13.693514,1.76986407 14.3762589,2.46113848 14.3762589,3.80065224 C14.3762589,5.36503376 13.4860929,6.20324759 12.3714468,6.20324759 C12.0515919,6.20324759 11.7232074,6.16021256 11.3688469,6.04777868 C11.3428708,6.03924922 11.3172824,6.01327313 11.3172824,5.97837986 L11.3172824,0.292328043 C11.3172824,0.257434775 11.3343414,0.240375844 11.3688469,0.240375844 L12.2849891,0.240375844 Z" id="Fill-12" fill="#939393"></path>
                        <g id="Group-16" transform="translate(14.732713, 1.550812)">
                            <g id="Fill-14-Clipped">
                                <mask id="mask-4" fill="white">
                                    <use xlink:href="#path-3"></use>
                                </mask>
                                <g id="path-3"></g>
                                <path d="M1.77808338,1.86105182 C1.94246944,1.86105182 2.01148057,1.86105182 2.03745667,1.85252235 C2.04598614,1.80909962 2.04598614,1.79204069 2.04598614,1.75753512 C2.04598614,1.4291507 1.94246944,1.08331965 1.58810892,1.08331965 C1.24227787,1.08331965 1.10386791,1.43768017 1.06083288,1.86105182 L1.77808338,1.86105182 Z M1.04338624,2.67328955 C1.04338624,3.33897555 1.29423007,3.74490057 1.99403394,3.74490057 C2.22743113,3.74490057 2.41779328,3.710395 2.65080277,3.62393724 C2.69422551,3.6068783 2.72020161,3.6068783 2.72020161,3.66735997 L2.72020161,4.38461046 C2.72020161,4.44509213 2.70275497,4.4795977 2.65971994,4.49704434 C2.41779328,4.62653713 2.08902116,4.65251322 1.80405948,4.65251322 C0.533556833,4.65251322 0.0411740557,3.71931216 0.0411740557,2.50076172 C0.0411740557,1.20428298 0.611485129,0.219129721 1.62261449,0.219129721 C2.68530834,0.219129721 2.99663382,1.16124795 2.99663382,1.93006295 C2.99663382,2.20688287 2.97065773,2.47478562 2.95321109,2.57830232 C2.94468164,2.62172505 2.91870552,2.63878398 2.87567049,2.64731345 C2.78921274,2.65623061 2.52130998,2.67328955 2.0545156,2.67328955 L1.04338624,2.67328955 Z" id="Fill-14" fill="#939393" mask="url(#mask-4)"></path>
                            </g>
                        </g>
                    </g>
                </g>
            </g>
        </g>
    </g>
</svg>