<?xml version="1.0" encoding="UTF-8"?>
<svg width="810px" height="159px" viewBox="0 0 810 159" version="1.1" xmlns="http://www.w3.org/2000/svg" xmlns:xlink="http://www.w3.org/1999/xlink">
    <!-- Generator: Sketch 42 (36781) - http://www.bohemiancoding.com/sketch -->
    <title>Group</title>
    <desc>Created with Sketch.</desc>
    <defs>
        <polygon id="path-1" points="809.975 158.9996 809.975 0.15 0.0003 0.15 0.0003 158.9996 809.975 158.9996"></polygon>
        <polygon id="path-3" points="158.746642 0.15 0 0.15 0 158.853421 158.746642 158.853421 158.746642 0.15"></polygon>
    </defs>
    <g id="Page-1" stroke="none" stroke-width="1" fill="none" fill-rule="evenodd">
        <g id="Group" transform="translate(0.000000, -1.000000)">
            <g id="Group-3" transform="translate(0.000000, 0.850000)">
                <mask id="mask-2" fill="white">
                    <use xlink:href="#path-1"></use>
                </mask>
                <g id="Clip-2"></g>
                <path d="M744.3613,83.1956 C744.3613,76.5976 744.3663,70.0006 744.3583,63.4026 C744.3563,61.4476 743.3823,60.2336 741.6863,60.0136 C739.7493,59.7626 738.3733,61.1876 738.3693,63.6116 C738.3483,76.6476 738.3523,89.6826 738.3803,102.7176 C738.3813,103.4086 738.5453,104.1716 738.8693,104.7746 C739.5053,105.9566 740.8823,106.4036 742.1823,106.0266 C743.5873,105.6206 744.3533,104.6316 744.3563,103.1086 C744.3673,96.4706 744.3613,89.8336 744.3613,83.1956 L744.3613,83.1956 Z M647.7603,65.9096 L649.1893,65.9096 C653.0683,65.9096 656.9473,65.9226 660.8273,65.9036 C662.6023,65.8956 663.8053,64.7466 663.7983,63.1396 C663.7913,61.5266 662.5793,60.3556 660.8433,60.3546 C650.1253,60.3456 639.4083,60.3466 628.6903,60.3606 C628.2243,60.3616 627.7223,60.4356 627.3003,60.6206 C626.1553,61.1226 625.5383,62.4806 625.8153,63.7146 C626.1263,65.0946 627.0783,65.8936 628.5613,65.9026 C632.5203,65.9236 636.4793,65.9096 640.4393,65.9096 L641.7603,65.9096 L641.7603,67.5116 C641.7603,79.1496 641.7463,90.7866 641.7883,102.4246 C641.7913,103.2966 642.0143,104.2716 642.4503,105.0146 C643.0943,106.1136 644.4933,106.4046 645.7543,105.9836 C647.0493,105.5526 647.7573,104.4866 647.7583,102.9156 C647.7613,91.1186 647.7603,79.3216 647.7603,67.5236 L647.7603,65.9096 Z M319.6883,100.0536 C319.4223,99.4216 319.2943,99.1316 319.1763,98.8366 C314.3803,86.8716 309.5873,74.9046 304.7843,62.9416 C304.5473,62.3526 304.2913,61.7506 303.9263,61.2396 C303.0563,60.0206 301.5063,59.6496 300.1953,60.2636 C298.9833,60.8316 298.3523,62.2766 298.7093,63.7156 C298.8043,64.1006 298.9473,64.4766 299.0983,64.8446 C302.5653,73.2556 306.0353,81.6636 309.5063,90.0726 C311.2873,94.3866 313.0713,98.7006 314.8533,103.0146 C315.5743,104.7586 316.7333,105.9646 318.7113,106.1766 C321.8643,106.5136 323.4863,105.5416 324.6993,102.5986 C329.3083,91.4216 333.9193,80.2446 338.5293,69.0686 C339.1993,67.4456 339.9193,65.8416 340.5203,64.1936 C341.3153,62.0136 340.0793,60.0746 337.9033,59.9686 C336.5863,59.9036 335.4383,60.8266 334.7723,62.4856 C330.7893,72.4106 326.8083,82.3366 322.8243,92.2616 C321.8213,94.7606 320.8133,97.2586 319.6883,100.0536 L319.6883,100.0536 Z M540.5193,76.8786 C540.5193,72.2806 540.5393,67.6816 540.5113,63.0826 C540.4963,60.6506 538.0903,59.2176 536.0583,60.3966 C534.8473,61.0986 534.5133,62.2406 534.5153,63.5616 C534.5233,71.9996 534.5223,80.4376 534.5183,88.8746 C534.5163,94.8666 531.1843,99.1606 525.3533,100.5846 C517.8723,102.4096 508.7383,98.4526 509.0333,87.9846 C509.2653,79.7936 509.0853,71.5896 509.0763,63.3926 C509.0733,61.3576 507.8053,59.9596 506.0173,59.9576 C504.3413,59.9556 503.0843,61.3966 503.0823,63.3816 C503.0753,72.0196 503.0123,80.6576 503.1053,89.2946 C503.1593,94.3166 504.9323,98.6896 508.8893,101.9586 C513.6843,105.9206 519.2563,107.0846 525.3093,106.2066 C534.5533,104.8656 540.5193,97.9476 540.5203,88.6366 C540.5203,84.7176 540.5203,80.7976 540.5193,76.8786 L540.5193,76.8786 Z M696.4433,59.9476 C694.3713,59.9336 693.0403,60.8626 692.1513,62.9606 C688.3693,71.8886 684.5913,80.8186 680.8093,89.7456 C679.0963,93.7876 677.3603,97.8196 675.6643,101.8676 C674.8893,103.7176 675.5863,105.4416 677.2643,105.9996 C678.9153,106.5486 680.4603,105.8476 681.1723,104.1726 C682.4523,101.1616 683.7243,98.1456 684.9503,95.1116 C685.2323,94.4156 685.5913,94.1686 686.3543,94.1726 C693.0703,94.2036 699.7873,94.2006 706.5043,94.1756 C707.2083,94.1726 707.5553,94.3906 707.8203,95.0516 C708.9813,97.9386 710.2033,100.8016 711.3993,103.6756 C712.3023,105.8446 713.9733,106.6926 715.8153,105.9096 C717.4233,105.2256 717.8503,103.5456 716.9423,101.3856 C715.3323,97.5606 713.7123,93.7396 712.0923,89.9176 C708.2773,80.9166 704.4533,71.9196 700.6483,62.9146 C699.8533,61.0316 698.5333,59.9596 696.4433,59.9476 L696.4433,59.9476 Z M254.8303,65.9096 L256.1983,65.9096 C263.2773,65.9096 270.3553,65.9126 277.4343,65.9076 C279.5033,65.9066 280.7033,64.8426 280.6753,63.0626 C280.6483,61.3456 279.4683,60.3516 277.4373,60.3506 C269.1983,60.3486 260.9603,60.3496 252.7213,60.3496 C249.7093,60.3496 248.7603,61.2796 248.7603,64.2616 C248.7573,76.8596 248.7563,89.4566 248.7603,102.0546 C248.7613,104.8816 249.7573,105.8686 252.6063,105.8706 C260.7253,105.8736 268.8433,105.8736 276.9623,105.8666 C277.4793,105.8666 278.0063,105.8486 278.5133,105.7536 C279.7813,105.5156 280.6133,104.5196 280.6763,103.2376 C280.7643,101.4566 279.5293,100.2376 277.5693,100.2346 C270.4503,100.2236 263.3323,100.2296 256.2133,100.2296 L254.8393,100.2296 L254.8393,85.8296 L256.2123,85.8296 C262.5713,85.8296 268.9293,85.8356 275.2883,85.8266 C277.1893,85.8236 278.4533,84.6056 278.3563,82.9206 C278.2633,81.3286 277.0523,80.2756 275.2573,80.2726 C268.9383,80.2646 262.6203,80.2696 256.3013,80.2696 L254.8303,80.2696 L254.8303,65.9096 Z M480.6303,83.2676 C480.5763,82.3716 480.5533,81.5716 480.4753,80.7776 C479.9033,74.9046 477.9183,69.6396 473.5323,65.5356 C468.1313,60.4806 461.5713,59.0576 454.4223,59.8836 C447.1713,60.7226 441.4133,64.1086 437.9813,70.6466 C433.6103,78.9716 433.6533,87.4866 438.1233,95.7726 C441.2313,101.5356 446.2873,104.8626 452.7103,106.0116 C459.1463,107.1626 465.3413,106.4816 470.8673,102.7456 C477.7583,98.0886 480.2813,91.1506 480.6303,83.2676 L480.6303,83.2676 Z M186.9203,83.0606 C186.9203,89.4576 186.9193,95.8546 186.9203,102.2516 C186.9213,104.8386 187.9403,105.8626 190.5553,105.8686 C194.6333,105.8786 198.7113,105.8916 202.7893,105.8646 C206.0463,105.8426 209.2303,105.3896 212.2903,104.1906 C226.5413,98.6056 230.0313,79.7866 221.0063,68.4076 C216.6003,62.8536 210.6353,60.4806 203.6913,60.3636 C199.3343,60.2906 194.9753,60.3496 190.6173,60.3496 C187.8473,60.3506 186.9203,61.2916 186.9203,64.1086 C186.9193,70.4266 186.9203,76.7436 186.9203,83.0606 L186.9203,83.0606 Z M803.7203,97.5616 C803.6363,97.5946 803.5533,97.6286 803.4693,97.6626 C803.1723,97.2476 802.8683,96.8386 802.5783,96.4186 C794.7783,85.1516 786.9823,73.8816 779.1783,62.6176 C777.5003,60.1956 775.3633,59.3866 772.8893,60.1906 C770.9313,60.8266 769.9593,62.5586 769.9593,65.4166 L769.9593,95.4056 C769.9593,97.9256 769.9463,100.4446 769.9653,102.9636 C769.9763,104.4956 770.6623,105.5236 771.8983,105.9716 C774.0223,106.7406 775.9553,105.2776 775.9563,102.8666 C775.9643,91.8306 775.9603,80.7946 775.9603,69.7586 L775.9603,68.5136 C776.4333,68.7796 776.6683,69.0866 776.8883,69.4036 C784.8743,80.9326 792.8553,92.4656 800.8473,103.9906 C802.2293,105.9826 804.4253,106.6876 806.7483,105.9506 C808.6463,105.3486 809.7203,103.6596 809.7203,101.2706 C809.7213,88.7946 809.7213,76.3186 809.7203,63.8436 C809.7203,61.4006 808.5473,59.9286 806.6273,59.9586 C804.7843,59.9876 803.7203,61.4166 803.7203,63.8776 C803.7193,74.6736 803.7203,85.4696 803.7203,96.2666 L803.7203,97.5616 Z M599.5593,97.5816 C599.4823,97.6056 599.4053,97.6306 599.3283,97.6556 C599.0973,97.3426 598.8583,97.0356 598.6373,96.7166 C590.7393,85.3156 582.8653,73.8986 574.9113,62.5376 C574.2223,61.5526 573.1303,60.5746 572.0213,60.2086 C568.5103,59.0516 565.8073,61.2466 565.8033,65.0666 C565.7903,77.5046 565.7973,89.9436 565.8023,102.3816 C565.8023,102.8196 565.8243,103.2626 565.8923,103.6936 C566.1683,105.4336 567.8343,106.5056 569.5303,106.0556 C571.1033,105.6376 571.7983,104.6316 571.7993,102.7136 C571.8033,91.7546 571.8013,80.7966 571.8043,69.8386 C571.8043,69.4016 571.8433,68.9646 571.8773,68.2406 C572.2773,68.7886 572.4693,69.0406 572.6493,69.3006 C580.6833,80.8946 588.7113,92.4926 596.7513,104.0816 C598.0653,105.9776 600.3223,106.6766 602.5883,105.9526 C604.5153,105.3366 605.5553,103.7576 605.5583,101.4016 C605.5643,96.3216 605.5603,91.2426 605.5603,86.1636 C605.5593,78.5246 605.5723,70.8856 605.5493,63.2466 C605.5433,61.2996 604.2163,59.9406 602.4723,59.9576 C600.8273,59.9746 599.5893,61.3836 599.5603,63.2776 C599.5553,63.5566 599.5593,63.8376 599.5593,64.1166 L599.5593,96.2726 L599.5593,97.5816 Z M367.5613,67.1496 C367.6663,67.1376 367.7713,67.1246 367.8763,67.1126 C369.3393,70.7276 370.8003,74.3436 372.2663,77.9576 C375.6863,86.3916 379.0993,94.8296 382.5393,103.2556 C383.5083,105.6286 385.8463,106.7056 388.2223,105.9356 C389.7413,105.4436 390.6263,104.3346 391.2113,102.8816 C395.6103,91.9586 400.0303,81.0436 404.4463,70.1276 C404.8413,69.1526 405.2593,68.1876 405.6663,67.2176 C405.7633,67.2356 405.8613,67.2536 405.9583,67.2716 L405.9583,68.6386 L405.9583,94.1976 C405.9593,97.1966 405.9233,100.1976 405.9783,103.1966 C406.0093,104.9096 407.3283,106.1556 408.9603,106.1826 C410.5863,106.2096 411.8363,104.9726 411.9533,103.2136 C411.9723,102.9346 411.9613,102.6536 411.9613,102.3736 C411.9613,89.9736 411.9633,77.5746 411.9573,65.1756 C411.9573,64.6176 411.9473,64.0506 411.8523,63.5036 C411.5763,61.9146 410.6743,60.6466 409.1463,60.2826 C405.2653,59.3576 402.5543,59.9576 401.0543,63.7976 C396.5663,75.2876 391.9163,86.7136 387.3273,98.1636 C387.1783,98.5336 386.9963,98.8906 386.7613,99.4056 C386.5673,98.9456 386.4563,98.6906 386.3523,98.4326 C381.7433,86.9466 377.1403,75.4576 372.5213,63.9746 C371.1363,60.5296 370.2043,59.9326 366.4713,59.9496 C363.3443,59.9636 361.6413,61.6556 361.6403,64.7636 C361.6383,73.6826 361.6403,82.6026 361.6403,91.5216 C361.6403,95.4016 361.6313,99.2816 361.6453,103.1616 C361.6503,104.5836 362.3703,105.5876 363.6073,105.9956 C365.7223,106.6936 367.5573,105.2626 367.5593,102.8856 C367.5643,91.4466 367.5613,80.0066 367.5613,68.5676 L367.5613,67.1496 Z M84.4803,0.1496 L809.9753,0.1496 L809.9753,158.9996 L0.0003,158.9996 L0.0003,84.6296 C0.0753,84.9236 0.1813,85.2136 0.2203,85.5126 C0.5833,88.3246 0.7873,91.1656 1.3143,93.9456 C4.4803,110.6656 12.0753,125.0956 24.4833,136.7376 C44.2443,155.2766 67.7093,162.1486 94.3273,157.3966 C112.3393,154.1806 127.4443,145.3286 139.2983,131.4036 C156.4223,111.2866 162.1963,88.0486 156.7863,62.2426 C153.2763,45.5026 144.7413,31.4796 131.9473,20.1296 C119.8723,9.4156 105.7903,2.9836 89.7723,0.8346 C88.0093,0.5986 86.2443,0.3776 84.4803,0.1496 L84.4803,0.1496 Z" id="Fill-1" fill="#FFFFFF" mask="url(#mask-2)"></path>
            </g>
            <g id="Group-6" transform="translate(0.000000, 0.850000)">
                <mask id="mask-4" fill="white">
                    <use xlink:href="#path-3"></use>
                </mask>
                <g id="Clip-5"></g>
                <path d="M79.3047,154.4298 C120.3507,154.3868 153.6857,121.4288 154.2587,80.6068 C154.8477,38.5708 120.9287,4.7008 79.5897,4.6078 C38.1527,4.5138 4.4477,38.1368 4.4417,79.4278 C4.4357,120.7438 38.0587,154.4298 79.3047,154.4298 L79.3047,154.4298 Z M84.4797,0.1498 C86.2437,0.3778 88.0087,0.5988 89.7717,0.8348 C105.7897,2.9828 119.8727,9.4158 131.9477,20.1288 C144.7417,31.4798 153.2767,45.5028 156.7857,62.2428 C162.1967,88.0488 156.4227,111.2868 139.2987,131.4038 C127.4447,145.3288 112.3397,154.1808 94.3277,157.3968 C67.7097,162.1488 44.2447,155.2768 24.4837,136.7368 C12.0747,125.0958 4.4807,110.6648 1.3137,93.9458 C0.7877,91.1648 0.5827,88.3238 0.2197,85.5128 C0.1817,85.2138 0.0747,84.9238 -0.0003,84.6298 L-0.0003,74.5498 C0.0707,74.2498 0.1727,73.9538 0.2087,73.6498 C0.4847,71.3108 0.6377,68.9508 1.0337,66.6328 C4.0757,48.8258 12.1647,33.6908 25.3887,21.3898 C37.7117,9.9268 52.2717,3.0738 68.9727,0.8318 C70.7797,0.5898 72.5907,0.3768 74.3997,0.1498 L84.4797,0.1498 Z" id="Fill-4" fill="#939393" mask="url(#mask-4)"></path>
            </g>
            <path d="M74.4,1 C72.591,1.227 70.78,1.44 68.973,1.682 C52.271,3.924 37.712,10.776 25.389,22.239 C12.165,34.541 4.075,49.676 1.034,67.483 C0.638,69.801 0.485,72.161 0.208,74.5 C0.173,74.804 0.071,75.1 0,75.4 L0,1 L74.4,1 Z" id="Fill-7" fill="#FFFFFF"></path>
            <path d="M367.5615,67.9999 L367.5615,69.4169 C367.5615,80.8569 367.5645,92.2959 367.5585,103.7359 C367.5575,106.1129 365.7225,107.5439 363.6075,106.8459 C362.3705,106.4379 361.6495,105.4339 361.6445,104.0109 C361.6315,100.1319 361.6395,96.2519 361.6395,92.3719 C361.6395,83.4519 361.6385,74.5329 361.6405,65.6129 C361.6415,62.5059 363.3445,60.8129 366.4705,60.7989 C370.2045,60.7829 371.1355,61.3799 372.5215,64.8249 C377.1405,76.3069 381.7435,87.7969 386.3525,99.2829 C386.4565,99.5409 386.5675,99.7959 386.7605,100.2559 C386.9965,99.7409 387.1785,99.3839 387.3265,99.0139 C391.9165,87.5639 396.5655,76.1379 401.0535,64.6479 C402.5545,60.8079 405.2655,60.2079 409.1465,61.1329 C410.6735,61.4969 411.5765,62.7649 411.8525,64.3529 C411.9465,64.9009 411.9575,65.4679 411.9575,66.0249 C411.9625,78.4249 411.9615,90.8239 411.9615,103.2239 C411.9615,103.5029 411.9725,103.7839 411.9535,104.0629 C411.8365,105.8229 410.5855,107.0599 408.9605,107.0329 C407.3285,107.0059 406.0095,105.7599 405.9785,104.0469 C405.9235,101.0479 405.9585,98.0469 405.9585,95.0469 L405.9585,69.4889 L405.9585,68.1219 C405.8615,68.1039 405.7635,68.0859 405.6665,68.0679 C405.2595,69.0379 404.8405,70.0029 404.4465,70.9779 C400.0295,81.8939 395.6105,92.8089 391.2115,103.7319 C390.6265,105.1839 389.7415,106.2939 388.2225,106.7859 C385.8465,107.5559 383.5085,106.4789 382.5395,104.1059 C379.0985,95.6799 375.6865,87.2419 372.2655,78.8079 C370.7995,75.1939 369.3395,71.5779 367.8765,67.9619 C367.7715,67.9749 367.6665,67.9869 367.5615,67.9999" id="Fill-9" fill="#939393"></path>
            <path d="M599.5593,98.4312 L599.5593,97.1222 L599.5593,64.9672 C599.5593,64.6872 599.5553,64.4072 599.5603,64.1272 C599.5893,62.2332 600.8273,60.8242 602.4723,60.8082 C604.2163,60.7902 605.5433,62.1492 605.5493,64.0972 C605.5723,71.7362 605.5593,79.3742 605.5603,87.0132 C605.5603,92.0932 605.5643,97.1722 605.5583,102.2512 C605.5553,104.6082 604.5153,106.1862 602.5883,106.8032 C600.3223,107.5272 598.0653,106.8272 596.7513,104.9322 C588.7113,93.3422 580.6833,81.7452 572.6493,70.1512 C572.4693,69.8902 572.2773,69.6382 571.8773,69.0912 C571.8433,69.8142 571.8043,70.2512 571.8043,70.6882 C571.8013,81.6462 571.8033,92.6052 571.7993,103.5632 C571.7983,105.4822 571.1033,106.4882 569.5303,106.9052 C567.8343,107.3552 566.1683,106.2832 565.8923,104.5442 C565.8243,104.1122 565.8023,103.6692 565.8023,103.2312 C565.7973,90.7932 565.7903,78.3552 565.8033,65.9172 C565.8073,62.0962 568.5103,59.9022 572.0213,61.0592 C573.1303,61.4242 574.2223,62.4032 574.9113,63.3882 C582.8653,74.7492 590.7393,86.1662 598.6373,97.5672 C598.8583,97.8862 599.0973,98.1932 599.3283,98.5052 C599.4053,98.4802 599.4823,98.4562 599.5593,98.4312" id="Fill-11" fill="#939393"></path>
            <path d="M803.7199,98.4112 L803.7199,97.1162 C803.7199,86.3202 803.7189,75.5242 803.7199,64.7272 C803.7209,62.2662 804.7839,60.8372 806.6279,60.8082 C808.5469,60.7782 809.7209,62.2502 809.7209,64.6932 L809.7209,102.1202 C809.7199,104.5102 808.6469,106.1992 806.7489,106.8002 C804.4249,107.5372 802.2289,106.8332 800.8469,104.8402 C792.8549,93.3152 784.8739,81.7832 776.8889,70.2532 C776.6689,69.9362 776.4329,69.6292 775.9599,69.3642 L775.9599,70.6092 C775.9599,81.6452 775.9639,92.6812 775.9569,103.7172 C775.9549,106.1272 774.0229,107.5902 771.8979,106.8212 C770.6619,106.3732 769.9759,105.3452 769.9649,103.8132 C769.9459,101.2942 769.9589,98.7752 769.9589,96.2562 L769.9589,66.2662 C769.9599,63.4092 770.9309,61.6772 772.8889,61.0402 C775.3639,60.2362 777.4999,61.0452 779.1789,63.4682 C786.9829,74.7322 794.7779,86.0022 802.5779,97.2692 C802.8679,97.6882 803.1719,98.0982 803.4689,98.5122 C803.5529,98.4782 803.6359,98.4452 803.7199,98.4112" id="Fill-13" fill="#939393"></path>
            <path d="M193.0131,66.5523 L193.0131,101.0803 C196.2601,101.0803 199.4141,101.0983 202.5691,101.0763 C211.9551,101.0103 219.1681,95.2993 219.9681,85.6603 C220.7201,76.6063 215.8411,68.7733 206.5961,67.2823 C202.1781,66.5703 197.6131,66.7703 193.0131,66.5523 M186.9201,83.9103 C186.9201,77.5933 186.9191,71.2763 186.9201,64.9593 C186.9201,62.1423 187.8471,61.2003 190.6171,61.2003 C194.9751,61.1993 199.3341,61.1403 203.6911,61.2133 C210.6361,61.3303 216.6001,63.7043 221.0061,69.2583 C230.0311,80.6363 226.5411,99.4563 212.2901,105.0403 C209.2301,106.2393 206.0461,106.6933 202.7891,106.7153 C198.7111,106.7423 194.6331,106.7283 190.5551,106.7183 C187.9401,106.7123 186.9211,105.6883 186.9201,103.1023 C186.9191,96.7053 186.9201,90.3073 186.9201,83.9103" id="Fill-15" fill="#939393"></path>
            <path d="M474.6129,83.9501 C474.7069,75.0551 469.5429,66.6491 458.6559,66.1271 C451.2759,65.7731 444.9799,69.1001 442.1519,76.3411 C440.7239,79.9981 440.5389,83.8041 441.1139,87.6651 C442.9809,100.1891 457.8949,106.2491 468.0019,98.5571 C472.8139,94.8941 474.5099,89.7681 474.6129,83.9501 M480.6309,84.1181 C480.2809,92.0011 477.7579,98.9381 470.8679,103.5961 C465.3419,107.3311 459.1469,108.0131 452.7109,106.8621 C446.2869,105.7131 441.2319,102.3861 438.1229,96.6231 C433.6529,88.3361 433.6099,79.8221 437.9809,71.4961 C441.4139,64.9581 447.1709,61.5721 454.4219,60.7341 C461.5709,59.9071 468.1309,61.3301 473.5329,66.3861 C477.9179,70.4901 479.9029,75.7551 480.4759,81.6281 C480.5529,82.4221 480.5759,83.2211 480.6309,84.1181" id="Fill-17" fill="#939393"></path>
            <path d="M254.8304,66.76 L254.8304,81.12 L256.3014,81.12 C262.6194,81.12 268.9384,81.115 275.2574,81.123 C277.0524,81.125 278.2634,82.178 278.3564,83.77 C278.4534,85.456 277.1884,86.674 275.2884,86.677 C268.9294,86.685 262.5704,86.68 256.2124,86.68 L254.8394,86.68 L254.8394,101.08 L256.2134,101.08 C263.3314,101.08 270.4504,101.074 277.5694,101.084 C279.5294,101.087 280.7644,102.307 280.6764,104.087 C280.6134,105.37 279.7814,106.366 278.5124,106.604 C278.0064,106.699 277.4794,106.716 276.9624,106.717 C268.8434,106.723 260.7244,106.724 252.6064,106.72 C249.7574,106.719 248.7604,105.732 248.7604,102.905 C248.7564,90.307 248.7564,77.709 248.7594,65.112 C248.7604,62.13 249.7094,61.2 252.7214,61.2 C260.9604,61.2 269.1984,61.198 277.4374,61.201 C279.4684,61.201 280.6484,62.196 280.6754,63.913 C280.7034,65.692 279.5034,66.757 277.4344,66.758 C270.3554,66.763 263.2764,66.76 256.1984,66.76 L254.8304,66.76 Z" id="Fill-19" fill="#939393"></path>
            <path d="M696.4022,68.5286 C693.4442,75.6596 690.5932,82.5316 687.6982,89.5106 L705.1122,89.5106 C702.2212,82.5446 699.3682,75.6726 696.4022,68.5286 M696.4432,60.7976 C698.5332,60.8096 699.8532,61.8816 700.6482,63.7646 C704.4532,72.7696 708.2772,81.7666 712.0922,90.7676 C713.7122,94.5896 715.3322,98.4106 716.9422,102.2356 C717.8502,104.3956 717.4232,106.0756 715.8152,106.7596 C713.9732,107.5426 712.3022,106.6946 711.3992,104.5256 C710.2032,101.6516 708.9812,98.7886 707.8202,95.9016 C707.5552,95.2406 707.2082,95.0226 706.5042,95.0256 C699.7872,95.0506 693.0702,95.0536 686.3542,95.0226 C685.5912,95.0186 685.2322,95.2656 684.9502,95.9616 C683.7242,98.9956 682.4522,102.0116 681.1722,105.0226 C680.4602,106.6976 678.9152,107.3986 677.2642,106.8496 C675.5862,106.2916 674.8892,104.5676 675.6642,102.7176 C677.3602,98.6696 679.0962,94.6376 680.8092,90.5956 C684.5912,81.6686 688.3692,72.7386 692.1512,63.8106 C693.0402,61.7136 694.3712,60.7836 696.4432,60.7976" id="Fill-21" fill="#939393"></path>
            <path d="M540.5198,77.7291 C540.5198,81.6481 540.5208,85.5671 540.5198,89.4861 C540.5188,98.7971 534.5538,105.7161 525.3088,107.0561 C519.2558,107.9341 513.6848,106.7711 508.8888,102.8091 C504.9318,99.5391 503.1598,95.1661 503.1058,90.1451 C503.0118,81.5081 503.0748,72.8691 503.0828,64.2311 C503.0848,62.2471 504.3408,60.8051 506.0178,60.8071 C507.8048,60.8101 509.0738,62.2071 509.0758,64.2421 C509.0858,72.4401 509.2648,80.6431 509.0338,88.8351 C508.7378,99.3021 517.8718,103.2601 525.3528,101.4341 C531.1838,100.0111 534.5158,95.7161 534.5188,89.7251 C534.5218,81.2871 534.5238,72.8491 534.5148,64.4111 C534.5138,63.0901 534.8468,61.9491 536.0588,61.2461 C538.0908,60.0681 540.4968,61.5011 540.5118,63.9321 C540.5398,68.5311 540.5198,73.1301 540.5198,77.7291" id="Fill-23" fill="#939393"></path>
            <path d="M319.6884,100.9041 C320.8134,98.1091 321.8214,95.6111 322.8244,93.1111 C326.8074,83.1861 330.7894,73.2611 334.7724,63.3361 C335.4374,61.6771 336.5864,60.7541 337.9034,60.8181 C340.0784,60.9251 341.3154,62.8631 340.5204,65.0431 C339.9194,66.6911 339.1984,68.2951 338.5294,69.9181 C333.9194,81.0951 329.3084,92.2711 324.6994,103.4481 C323.4854,106.3921 321.8644,107.3631 318.7114,107.0261 C316.7334,106.8151 315.5744,105.6081 314.8534,103.8641 C313.0714,99.5501 311.2874,95.2371 309.5054,90.9221 C306.0344,82.5141 302.5644,74.1051 299.0984,65.6951 C298.9464,65.3271 298.8044,64.9501 298.7094,64.5651 C298.3524,63.1271 298.9834,61.6821 300.1944,61.1141 C301.5064,60.4991 303.0564,60.8711 303.9264,62.0901 C304.2914,62.6011 304.5474,63.2031 304.7844,63.7921 C309.5874,75.7541 314.3804,87.7211 319.1764,99.6871 C319.2944,99.9811 319.4224,100.2721 319.6884,100.9041" id="Fill-25" fill="#939393"></path>
            <path d="M647.76,66.76 L647.76,68.374 C647.76,80.171 647.762,91.969 647.758,103.766 C647.758,105.336 647.049,106.403 645.755,106.834 C644.493,107.254 643.094,106.964 642.45,105.865 C642.014,105.122 641.791,104.147 641.788,103.274 C641.746,91.637 641.76,80 641.76,68.362 L641.76,66.76 L640.439,66.76 C636.48,66.76 632.521,66.774 628.562,66.752 C627.078,66.744 626.126,65.945 625.816,64.565 C625.539,63.331 626.155,61.973 627.3,61.471 C627.722,61.286 628.225,61.212 628.69,61.211 C639.408,61.197 650.126,61.196 660.843,61.205 C662.579,61.206 663.791,62.377 663.798,63.989 C663.805,65.596 662.602,66.745 660.827,66.754 C656.948,66.772 653.069,66.76 649.189,66.76 L647.76,66.76" id="Fill-27" fill="#939393"></path>
            <path d="M744.3611,84.0456 C744.3611,90.6836 744.3671,97.3206 744.3561,103.9586 C744.3531,105.4816 743.5871,106.4706 742.1821,106.8766 C740.8821,107.2536 739.5051,106.8066 738.8691,105.6246 C738.5451,105.0216 738.3811,104.2586 738.3801,103.5676 C738.3521,90.5326 738.3481,77.4976 738.3701,64.4616 C738.3741,62.0376 739.7501,60.6126 741.6861,60.8636 C743.3821,61.0836 744.3561,62.2976 744.3581,64.2526 C744.3661,70.8506 744.3611,77.4476 744.3611,84.0456" id="Fill-29" fill="#939393"></path>
            <path d="M129.0783,106.4784 L127.3493,106.4784 L100.3543,106.4784 C98.4743,106.4784 96.5933,106.4484 94.7153,106.4934 C93.3963,106.5264 92.5293,107.4674 92.5433,108.7164 C92.5563,109.8724 93.4513,110.8034 94.6623,110.9114 C94.8613,110.9284 95.0623,110.9194 95.2623,110.9194 C107.6603,110.9204 120.0583,110.9234 132.4563,110.9174 C134.8583,110.9164 135.8303,109.2274 134.6273,107.1424 C125.3843,91.1244 116.1373,75.1094 106.8863,59.0954 C105.6403,56.9394 103.7223,56.9364 102.4733,59.0874 C100.3863,62.6794 98.3163,66.2814 96.2403,69.8794 C89.4333,81.6764 82.6193,93.4704 75.8343,105.2804 C75.3643,106.0984 74.8533,106.4544 73.8723,106.4264 C71.6763,106.3654 69.4763,106.4734 67.2783,106.4744 C55.2403,106.4824 43.2023,106.4784 31.1643,106.4784 L29.6393,106.4784 C42.2773,84.5884 54.7933,62.9104 67.4203,41.0404 C69.7933,45.5374 72.0263,49.7704 74.2593,54.0034 C76.6813,58.5944 79.0943,63.1894 81.5273,67.7744 C82.3253,69.2784 83.5183,69.7504 84.7543,69.1144 C85.9783,68.4844 86.2623,67.1984 85.4753,65.7034 C80.3053,55.8804 75.1243,46.0644 69.9623,36.2374 C69.4253,35.2164 68.8943,34.2164 67.5693,34.1724 C66.1653,34.1254 65.6173,35.1844 65.0263,36.2114 C59.9433,45.0384 54.8453,53.8554 49.7533,62.6764 C41.2263,77.4474 32.6993,92.2174 24.1743,106.9894 C22.9353,109.1374 23.7843,110.9124 26.0823,110.9144 C42.8403,110.9244 59.5973,110.9154 76.3543,110.9294 C77.3503,110.9304 78.0263,110.5294 78.4813,109.6774 C78.7063,109.2554 78.9303,108.8334 79.1693,108.4194 C87.4533,94.0604 95.7383,79.7034 104.0253,65.3474 C104.2163,65.0174 104.4403,64.7064 104.7163,64.2824 C112.8403,78.3534 120.8813,92.2814 129.0783,106.4784 M79.3043,155.2794 C38.0583,155.2794 4.4353,121.5944 4.4413,80.2774 C4.4483,38.9864 38.1523,5.3644 79.5893,5.4574 C120.9283,5.5514 154.8473,39.4214 154.2583,81.4574 C153.6863,122.2784 120.3503,155.2364 79.3043,155.2794" id="Fill-31" fill="#FFFFFF"></path>
            <path d="M193.0131,66.5523 C197.6131,66.7703 202.1781,66.5703 206.5961,67.2823 C215.8411,68.7733 220.7201,76.6063 219.9681,85.6603 C219.1681,95.2993 211.9551,101.0103 202.5691,101.0763 C199.4141,101.0983 196.2601,101.0803 193.0131,101.0803 L193.0131,66.5523 Z" id="Fill-33" fill="#FFFFFF"></path>
            <path d="M474.6129,83.9501 C474.5099,89.7681 472.8139,94.8941 468.0019,98.5571 C457.8949,106.2491 442.9809,100.1891 441.1139,87.6651 C440.5389,83.8041 440.7239,79.9981 442.1519,76.3411 C444.9799,69.1001 451.2759,65.7731 458.6559,66.1271 C469.5429,66.6491 474.7069,75.0551 474.6129,83.9501" id="Fill-35" fill="#FFFFFF"></path>
            <path d="M696.4022,68.5286 C699.3682,75.6726 702.2212,82.5446 705.1122,89.5106 L687.6982,89.5106 C690.5932,82.5316 693.4442,75.6596 696.4022,68.5286" id="Fill-37" fill="#FFFFFF"></path>
            <path d="M129.0783,106.4784 C120.8813,92.2814 112.8403,78.3534 104.7163,64.2824 C104.4403,64.7064 104.2163,65.0174 104.0253,65.3474 C95.7383,79.7034 87.4533,94.0604 79.1693,108.4194 C78.9303,108.8334 78.7063,109.2554 78.4813,109.6774 C78.0263,110.5294 77.3503,110.9304 76.3543,110.9294 C59.5973,110.9154 42.8403,110.9244 26.0823,110.9144 C23.7843,110.9124 22.9353,109.1374 24.1743,106.9894 C32.6993,92.2174 41.2263,77.4474 49.7533,62.6764 C54.8453,53.8554 59.9433,45.0384 65.0263,36.2114 C65.6173,35.1844 66.1653,34.1254 67.5693,34.1724 C68.8943,34.2164 69.4253,35.2164 69.9623,36.2374 C75.1243,46.0644 80.3053,55.8804 85.4753,65.7034 C86.2623,67.1984 85.9783,68.4844 84.7543,69.1144 C83.5183,69.7504 82.3253,69.2784 81.5273,67.7744 C79.0943,63.1894 76.6813,58.5944 74.2593,54.0034 C72.0263,49.7704 69.7933,45.5374 67.4203,41.0404 C54.7933,62.9104 42.2773,84.5884 29.6393,106.4784 L31.1643,106.4784 C43.2023,106.4784 55.2403,106.4824 67.2783,106.4744 C69.4763,106.4734 71.6763,106.3654 73.8723,106.4264 C74.8533,106.4544 75.3643,106.0984 75.8343,105.2804 C82.6193,93.4704 89.4333,81.6764 96.2403,69.8794 C98.3163,66.2814 100.3863,62.6794 102.4733,59.0874 C103.7223,56.9364 105.6403,56.9394 106.8863,59.0954 C116.1373,75.1094 125.3843,91.1244 134.6273,107.1424 C135.8303,109.2274 134.8583,110.9164 132.4563,110.9174 C120.0583,110.9234 107.6603,110.9204 95.2623,110.9194 C95.0623,110.9194 94.8613,110.9284 94.6623,110.9114 C93.4513,110.8034 92.5563,109.8724 92.5433,108.7164 C92.5293,107.4674 93.3963,106.5264 94.7153,106.4934 C96.5933,106.4484 98.4743,106.4784 100.3543,106.4784 L127.3493,106.4784 L129.0783,106.4784 Z" id="Fill-39" fill="#939393"></path>
        </g>
    </g>
</svg>