<?xml version="1.0" encoding="UTF-8"?>
<svg width="438px" height="58px" viewBox="0 0 438 58" version="1.1" xmlns="http://www.w3.org/2000/svg" xmlns:xlink="http://www.w3.org/1999/xlink">
    <!-- Generator: Sketch 43 (38999) - http://www.bohemiancoding.com/sketch -->
    <title>logo</title>
    <desc>Created with Sketch.</desc>
    <defs></defs>
    <g id="park-city-2018" stroke="none" stroke-width="1" fill="none" fill-rule="evenodd">
        <g id="landing" transform="translate(-582.000000, -181.000000)" fill="#FFFFFF">
            <g id="logo" transform="translate(582.000000, 181.000000)">
                <polygon id="Fill-1" points="153.186462 1.34398361 153.186462 57.728541 176.181937 57.728541 176.181937 39.7989344 187.164241 39.7989344 187.164241 31.9061803 168.295087 31.9061803 168.295087 49.8357869 161.073312 49.8357869 161.073312 9.2367377 191.558492 9.2367377 191.558492 16.5647049 170.677009 16.5647049 170.677009 24.457459 199.444393 24.457459 199.444393 1.34398361"></polygon>
                <polygon id="Fill-2" points="351.19201 1.34398361 351.19201 18.2467049 338.130869 1.34398361 320.452201 1.34398361 320.452201 57.728541 343.448626 57.728541 343.448626 40.2249016 335.561776 40.2249016 335.561776 49.8357869 328.339052 49.8357869 328.339052 9.2367377 334.259177 9.2367377 359.078861 41.3478197 359.078861 9.2367377 367.252644 9.2367377 367.252644 49.8357869 358.935394 49.8357869 358.935394 57.728541 375.138544 57.728541 375.138544 1.34398361"></polygon>
                <polygon id="Fill-3" points="383.939684 1.34398361 383.939684 26.4437213 399.126217 26.4437213 399.126217 57.728541 415.681857 57.728541 415.681857 49.8357869 407.013068 49.8357869 407.013068 18.5509672 391.826534 18.5509672 391.826534 9.2367377 429.513536 9.2367377 429.513536 18.5509672 415.681857 18.5509672 415.681857 26.4437213 437.400387 26.4437213 437.400387 1.34398361"></polygon>
                <polygon id="Fill-4" points="208.245342 1.34398361 208.245342 57.728541 231.240817 57.728541 231.240817 38.4411639 223.353967 38.4411639 223.353967 49.8357869 216.132193 49.8357869 216.132193 9.2367377 246.800744 9.2367377 246.800744 28.2369672 238.18801 37.4313934 247.805008 57.0306393 256.591611 57.0306393 247.669143 38.8481148 254.687594 31.3575574 254.687594 1.34398361"></polygon>
                <polygon id="Fill-5" points="263.491489 1.34398361 263.491489 57.728541 282.821446 57.728541 282.821446 49.8357869 271.378339 49.8357869 271.378339 9.2367377 282.821446 9.2367377 282.821446 1.34398361"></polygon>
                <polygon id="Fill-6" points="292.32196 1.34398361 292.32196 9.2367377 303.765066 9.2367377 303.765066 49.8357869 292.32196 49.8357869 292.32196 57.728541 311.651917 57.728541 311.651917 1.34398361"></polygon>
                <polygon id="Fill-7" points="0 57.728541 35.8048373 57.728541 57.6858351 35.8311639 57.6858351 0.000475409836"></polygon>
                <polygon id="Fill-8" points="93.4912425 36.3470787 93.4912425 57.7281607 129.811039 57.7281607 129.811039 9.50819672e-05"></polygon>
                <polygon id="Fill-9" points="57.6857401 35.8310689 57.6857401 57.7284459 72.1245384 57.7284459 93.4915275 36.3473639 93.4915275 0.000380327869"></polygon>
                <path d="M57.6856451,57.728541 L35.8046473,57.728541 L57.6856451,35.8311639 L57.6856451,57.728541 Z M72.1247284,57.728541 L93.4907675,36.347459 L93.4907675,57.728541 L72.1247284,57.728541 Z" id="Combined-Shape" opacity="0.600000024"></path>
            </g>
        </g>
    </g>
</svg>