<?xml version="1.0" encoding="UTF-8"?>
<svg width="280px" height="46px" viewBox="0 0 280 46" version="1.1" xmlns="http://www.w3.org/2000/svg" xmlns:xlink="http://www.w3.org/1999/xlink">
    <!-- Generator: Sketch 41 (35326) - http://www.bohemiancoding.com/sketch -->
    <title>infusionsoft</title>
    <desc>Created with Sketch.</desc>
    <defs></defs>
    <g id="Page-1" stroke="none" stroke-width="1" fill="none" fill-rule="evenodd">
        <g id="infusionsoft" fill="#939393">
            <polygon id="Fill-1" points="23.9310928 -0.000171962617 -4.12371134e-05 15.4872112 20.0086186 22.9826318 23.9310928 20.4444636"></polygon>
            <g id="Group-34" transform="translate(0.000000, 0.568336)">
                <path d="M276.789938,37.3434879 L277.067052,37.3434879 C277.395299,37.3434879 277.653856,37.2291327 277.653856,36.9582916 C277.653856,36.7145346 277.483134,36.5580486 277.114887,36.5580486 C276.962309,36.5580486 276.852619,36.5666467 276.789938,36.5855626 L276.789938,37.3434879 Z M276.777979,38.8275252 L276.189526,38.8275252 L276.189526,36.1857495 C276.421691,36.1543664 276.745814,36.1040673 277.164784,36.1040673 C277.639835,36.1040673 277.85633,36.1857495 278.027052,36.3147215 C278.179629,36.4234879 278.288082,36.6178056 278.288082,36.8753196 C278.288082,37.1977495 278.057567,37.4088336 277.767258,37.503843 L277.767258,37.5390953 C278.010144,37.6151888 278.133856,37.8288523 278.209732,38.1809458 C278.288082,38.580329 278.349938,38.7269271 278.397773,38.8275252 L277.780454,38.8275252 C277.700866,38.7269271 277.653856,38.5012262 277.579629,38.1809458 C277.533856,37.9079551 277.378392,37.7781234 277.055093,37.7781234 L276.777979,37.7781234 L276.777979,38.8275252 Z M275.21468,37.4565533 C275.21468,38.6258991 276.066639,39.5639551 277.193649,39.5639551 C278.288082,39.578572 279.124371,38.6258991 279.124371,37.4707402 C279.124371,36.2970953 278.288082,35.3474318 277.164784,35.3474318 C276.066639,35.3474318 275.21468,36.2970953 275.21468,37.4565533 L275.21468,37.4565533 Z M279.773443,37.4565533 C279.773443,38.938871 278.629113,40.1103664 277.173856,40.1103664 C275.728907,40.1103664 274.567258,38.938871 274.567258,37.4565533 C274.567258,35.976815 275.728907,34.8169271 277.193649,34.8169271 C278.629113,34.8169271 279.773443,35.976815 279.773443,37.4565533 L279.773443,37.4565533 Z" id="Fill-2"></path>
                <path d="M230.93666,37.830314 C226.996454,37.830314 222.469443,36.6248561 222.469443,27.2219402 C222.469443,19.7897159 224.988206,16.6182953 230.880577,16.6182953 C234.821608,16.6182953 239.341196,17.8302019 239.341196,27.2739589 C239.341196,34.6722206 236.827794,37.830314 230.93666,37.830314 M230.93666,14.3045383 C223.34367,14.3045383 219.807175,18.4251925 219.807175,27.2739589 C219.807175,36.0904822 223.326763,40.1990991 230.880577,40.1990991 C238.474392,40.1990991 242.010062,36.0750056 242.010062,27.2219402 C242.010062,18.409286 238.492948,14.3045383 230.93666,14.3045383" id="Fill-4"></path>
                <path d="M209.011258,25.6900972 C203.86033,25.0181533 202.230639,24.641985 202.230639,21.2083215 C202.230639,18.3343963 203.265278,16.7785645 208.720536,16.7785645 C210.845072,16.7785645 214.033113,17.1220598 215.567959,17.4376112 L215.006722,15.1320224 C213.079299,14.7008262 210.878887,14.4660972 208.771258,14.4660972 C200.704454,14.4660972 199.619093,17.9281346 199.619093,21.3175178 C199.619093,26.3336673 201.439711,27.1410318 208.61868,28.1637794 C212.897031,28.800471 214.78899,29.2247888 214.78899,32.6545832 C214.78899,36.6746393 213.250433,37.7756299 207.626515,37.7756299 C205.197237,37.7756299 202.088371,37.199985 200.351052,36.7038729 L200.96301,39.269985 C203.008371,39.7712561 205.597649,40.0915364 207.626515,40.0915364 C215.064454,40.0915364 217.454144,38.2708822 217.454144,32.6008449 C217.454144,27.7037794 215.344866,26.5782841 209.011258,25.6900972" id="Fill-6"></path>
                <path d="M249.581856,15.2071271 L249.581856,8.86084673 C249.581856,5.18858505 250.322062,3.95389346 255.439175,2.60441682 L254.914639,0.269164486 C248.178969,1.92903364 246.968247,3.95217383 246.968247,8.7009215 L246.968247,15.2071271 L242.471753,15.2071271 L243.046598,17.5763421 L246.968247,17.5763421 L246.968247,39.5587533 L249.581856,39.5587533 L249.581856,17.5763421 L256.348454,17.5763421 L255.768247,15.2071271 L249.581856,15.2071271 Z" id="Fill-8"></path>
                <path d="M267.036165,37.3511832 C264.840701,37.3511832 264.656784,35.3435196 264.656784,33.2894262 L264.656784,17.5763421 L270.087299,17.5763421 L269.509155,15.2071271 L264.656784,15.2071271 L264.656784,5.81839813 L262.097608,6.55955701 L262.097608,15.2071271 L258.004825,15.2071271 L258.579258,17.5763421 L262.097608,17.5763421 L262.097608,33.662585 C262.097608,37.8657813 263.535546,39.8248654 266.622144,39.8248654 C268.040701,39.8248654 269.272866,39.6808467 271.452247,39.3605664 L271.214722,36.9401925 C269.43699,37.2406972 268.295546,37.3511832 267.036165,37.3511832" id="Fill-10"></path>
                <path d="M68.6078351,14.4197103 C65.1872165,14.4197103 61.5521649,16.196514 60.1542268,16.960028 L59.7282474,14.8986262 L55.9789691,14.8986262 L55.9789691,39.6874673 L60.9789691,39.6874673 L60.9789691,21.3755981 C62.622268,20.5583458 65.7406186,19.4057664 68.0024742,19.4057664 C70.4470103,19.4057664 70.9760825,19.9805514 70.9760825,22.6382336 L70.9760825,39.6874673 L76.0218557,39.6874673 L76.0218557,22.0221776 C76.0218557,16.9772243 73.5286598,14.4197103 68.6078351,14.4197103" id="Fill-12"></path>
                <path d="M87.0947216,15.042 L87.0947216,10.7618505 C87.0947216,8.23357009 87.0947216,7.55517757 91.9920412,6.34671028 L92.615134,6.19452336 L91.5343093,1.38042991 L90.9120412,1.52272897 C84.0378144,3.09747664 82.0493608,5.13738318 82.0493608,10.6161121 L82.0493608,15.042 L77.8778144,15.042 L79.0811134,19.9837757 L82.0493608,19.9837757 L82.0493608,39.6876822 L87.0947216,39.6876822 L87.0947216,19.9837757 L93.9042062,19.9837757 L93.9042062,19.7305607 L92.7705979,15.042 L87.0947216,15.042 Z" id="Fill-14"></path>
                <path d="M111.474021,33.2113121 C109.827835,34.0272748 106.70866,35.180714 104.448866,35.180714 C102.001031,35.180714 101.474021,34.6072187 101.474021,31.9473869 L101.474021,14.8990131 L96.4261856,14.8990131 L96.4261856,32.5647327 C96.4261856,37.6101159 98.9230928,40.1650505 103.841856,40.1650505 C107.267423,40.1650505 110.899175,38.3882467 112.297526,37.6277421 L112.721443,39.6874243 L116.470722,39.6874243 L116.470722,14.8990131 L111.474021,14.8990131 L111.474021,33.2113121 Z" id="Fill-16"></path>
                <polygon id="Fill-18" points="46.4544742 39.6875963 51.5010722 39.6875963 51.5010722 4.40774579 46.4544742 5.91542804"></polygon>
                <polygon id="Fill-20" points="141.632082 13.2607682 146.677856 11.7754411 146.677856 5.79931028 141.632082 7.20338505"></polygon>
                <path d="M160.900701,35.3227121 C157.747711,35.3227121 154.666474,34.6967682 154.666474,27.2219832 C154.666474,20.4475159 156.936165,19.1216841 160.853691,19.1216841 C164.009979,19.1216841 167.090804,19.7510673 167.090804,27.268843 C167.090804,34.0041888 164.821113,35.3227121 160.900701,35.3227121 M160.900701,14.2310673 C153.278845,14.2310673 149.573278,18.4957402 149.573278,27.268843 C149.573278,36.0097028 153.263588,40.2601888 160.853691,40.2601888 C168.478845,40.2601888 172.181938,35.9968056 172.181938,27.2219832 C172.181938,18.4819832 168.491629,14.2310673 160.900701,14.2310673" id="Fill-22"></path>
                <path d="M187.412784,14.4197103 C183.991753,14.4197103 180.357526,16.196514 178.957526,16.960028 L178.530309,14.8986262 L174.781443,14.8986262 L174.781443,39.6874673 L179.779381,39.6874673 L179.779381,21.3755981 C181.23299,20.6563645 184.378557,19.4057664 186.806186,19.4057664 C189.254021,19.4057664 189.781443,19.9805514 189.781443,22.6382336 L189.781443,39.6874673 L194.826804,39.6874673 L194.826804,22.0221776 C194.826804,16.9772243 192.331546,14.4197103 187.412784,14.4197103" id="Fill-24"></path>
                <polygon id="Fill-26" points="141.632082 39.6875963 146.677856 39.6875963 146.677856 14.4507925 141.632082 15.957615"></polygon>
                <path d="M129.687629,24.5483514 C124.782474,23.9073607 124.782474,23.6408187 124.782474,21.9224822 C124.782474,20.4345757 124.782474,19.3598093 129.250103,19.3598093 C131.210515,19.3598093 134.332165,19.7119028 135.399794,19.9840336 L137.29299,20.6370617 L135.992784,15.3006318 L135.852577,15.2653794 C133.90866,14.7598093 131.516495,14.4696224 129.293814,14.4696224 C122.775052,14.4696224 119.738351,16.8706505 119.738351,22.0222206 C119.738351,27.9596598 122.904536,28.6892112 128.974227,29.5541832 C133.179175,30.1779776 133.34,30.5799402 133.34,32.1856411 C133.34,34.3037907 133.34,35.3678093 128.271546,35.3678093 C125.953196,35.3678093 122.652577,34.6993047 121.485979,34.2556411 L119.849278,33.6748374 L121.180412,39.270071 L121.319381,39.3074729 C123.314021,39.8796785 126.10701,40.2601458 128.271546,40.2601458 C134.544124,40.2601458 138.431134,38.9037907 138.431134,32.1362019 C138.431134,26.7241084 135.612577,25.3776411 129.687629,24.5483514" id="Fill-28"></path>
                <polygon id="Fill-30" points="20.0084124 22.4143813 18.2199588 23.5716897 19.4504742 24.0325495 24.4706804 25.9133907 24.4706804 42.6956523 1.78861856 34.2045682 0.000164948454 35.3623065 26.1201649 45.1401009 26.1201649 24.7040636"></polygon>
                <polyline id="Fill-32" points="18.22 23.5716897 0.000206185567 16.7366056 0.000206185567 35.3623065"></polyline>
            </g>
        </g>
    </g>
</svg>