<?xml version="1.0" encoding="UTF-8"?>
<svg width="412px" height="78px" viewBox="0 0 412 78" version="1.1" xmlns="http://www.w3.org/2000/svg" xmlns:xlink="http://www.w3.org/1999/xlink">
    <!-- Generator: Sketch 41.2 (35397) - http://www.bohemiancoding.com/sketch -->
    <title>jane</title>
    <desc>Created with Sketch.</desc>
    <defs>
        <polygon id="path-1" points="55.357 73.3441798 55.357 0.357820994 0.5721269 0.357820994 0.5721269 73.3441798 55.357 73.3441798"></polygon>
    </defs>
    <g id="Page-1" stroke="none" stroke-width="1" fill="none" fill-rule="evenodd">
        <g id="jane" transform="translate(0.000000, -1.000000)">
            <path d="M362.2995,29.0563 C362.3335,29.0913 362.3645,29.1243 362.3985,29.1583 L362.4955,29.2533 C362.5425,29.0333 362.5795,29.1463 362.4955,28.9613 C362.3945,29.0403 362.4735,28.9963 362.2995,29.0563" id="Fill-1" fill="#061B2B"></path>
            <path d="M356.5955,61.2067 L356.5955,61.4017 L356.6975,61.4017 C356.6315,61.2337 356.6775,61.3067 356.5955,61.2067" id="Fill-3" fill="#061B2B"></path>
            <path d="M193.4958,26.7985 L193.3008,26.7985 C193.4528,26.9195 193.3798,26.9555 193.4958,26.7985" id="Fill-5" fill="#061B2B"></path>
            <path d="M150.1608,39.381 C150.0028,39.325 149.9288,39.3 149.6688,39.284 C149.5528,39.038 149.5348,38.915 149.2738,38.791 C149.2888,37.945 149.2418,37.675 149.2738,36.825 C149.4468,36.888 149.3718,36.843 149.4738,36.923 C149.9148,37.299 150.0028,38.026 150.3548,38.497 C150.3518,38.982 150.2728,39.082 150.1608,39.381 L150.1608,39.381 Z M149.5718,44.591 L149.1768,44.591 L149.2738,44.493 C149.2738,44.142 149.2978,43.829 149.3768,43.609 C149.5998,43.64 149.6168,43.654 149.7658,43.707 C149.7478,44.204 149.6498,44.216 149.5718,44.591 L149.5718,44.591 Z M149.1768,34.17 C149.4038,34.194 149.4558,34.189 149.5718,34.268 C150.0968,34.52 150.0178,35.547 150.2578,35.841 L150.2578,36.825 L150.0638,36.825 C149.6278,35.781 149.0178,35.062 149.1768,34.17 L149.1768,34.17 Z M148.9818,25.716 L148.6838,25.716 C148.6048,25.119 148.2898,22.363 148.5868,21.884 L148.5868,21.687 L148.8848,21.687 C149.0698,22.956 149.1538,24.414 148.9818,25.716 L148.9818,25.716 Z M148.3918,50.785 L148.3918,50.882 L148.1978,50.882 C148.1048,50.36 148.2338,49.545 147.8998,49.013 L147.8998,48.916 L148.2948,48.916 C148.3128,49.348 148.3828,49.482 148.5868,49.703 C148.6048,50.175 148.6338,50.574 148.3918,50.785 L148.3918,50.785 Z M148.4898,59.732 C148.4528,60.216 148.2588,60.557 147.8998,60.713 C147.7998,60.795 147.8768,60.751 147.7048,60.813 C147.6028,60.735 147.6778,60.775 147.5058,60.713 C147.4558,59.89 147.6408,59.754 147.8998,59.141 L148.2948,59.141 C148.3788,59.325 148.4348,59.401 148.4898,59.632 C148.5688,59.693 148.5138,59.636 148.4898,59.732 L148.4898,59.732 Z M147.1158,27.683 L146.9168,27.485 C146.9168,26.178 146.6708,24.737 146.6228,24.046 C146.5628,23.249 146.9438,22.318 146.9168,21.782 C147.0798,21.817 147.2458,21.85 147.4078,21.884 C147.6258,22.794 147.7388,23.83 147.6028,24.537 C147.4958,25.089 147.7618,25.913 147.5058,26.306 C147.5438,26.977 147.6168,27.508 147.1158,27.683 L147.1158,27.683 Z M146.7208,32.499 L146.7208,32.302 C146.8878,32.367 146.8178,32.322 146.9168,32.401 L147.0138,32.401 L147.0138,32.599 C146.9168,32.564 146.8178,32.533 146.7208,32.499 L146.7208,32.499 Z M147.0138,39.479 L146.8178,39.479 C146.8238,39.175 146.8508,38.975 146.9168,38.791 C146.9818,38.823 147.0458,38.856 147.1158,38.889 C147.0798,39.086 147.0458,39.284 147.0138,39.479 L147.0138,39.479 Z M146.5258,63.959 C146.5258,63.959 146.4228,63.975 146.4228,63.664 L146.5258,63.664 L146.5258,63.959 Z M145.9318,62.976 L145.9318,63.173 C145.6388,63.188 145.6588,63.246 145.5418,63.173 C145.3018,63.045 145.4718,63.218 145.3428,62.976 L145.2438,62.976 C145.4398,62.558 145.8148,62.226 146.0288,61.796 C146.1308,61.83 146.2298,61.861 146.3268,61.893 C146.3048,62.385 146.1688,62.696 145.9318,62.976 L145.9318,62.976 Z M146.6228,7.332 L146.6228,7.628 C146.5398,7.529 146.4738,7.359 146.4228,7.233 L146.6228,7.332 Z M147.1158,19.326 C147.2128,19.359 147.3098,19.39 147.4078,19.424 C147.3258,19.679 147.1768,19.925 147.0138,20.113 C146.9018,20.273 146.8878,20.093 146.7208,20.015 C146.7968,19.572 146.9168,19.597 147.1158,19.326 L147.1158,19.326 Z M147.0138,18.244 L147.2128,18.342 C147.2128,18.611 147.2128,18.794 147.3098,18.931 L147.3098,19.031 L147.0138,19.031 C146.9548,18.673 146.9718,18.639 147.0138,18.244 L147.0138,18.244 Z M147.3098,12.544 C147.3758,12.577 147.4408,12.606 147.5058,12.641 L147.5058,12.838 C147.1628,12.761 147.2128,12.882 147.3098,12.544 L147.3098,12.544 Z M147.6028,12.148 L147.6028,12.444 L147.5058,12.444 C147.4728,12.346 147.4408,12.249 147.4078,12.148 L147.6028,12.148 Z M147.9968,15.689 C148.0958,16.113 148.1738,16.956 147.9968,17.262 L147.9968,17.852 L147.8028,17.852 C147.6538,17.1 147.4258,16.448 147.8028,15.689 L147.9968,15.689 Z M147.7048,43.411 C147.7328,43.186 147.7478,43.166 147.8028,43.017 C148.0758,43.133 147.9848,43.029 148.0958,43.314 L148.1978,43.314 C148.1328,43.482 148.1738,43.411 148.0958,43.509 L148.0958,43.609 C147.8678,43.537 147.8768,43.507 147.7048,43.411 L147.7048,43.411 Z M147.8998,45.376 L148.2948,45.376 L148.3918,45.476 C148.5048,45.88 148.7218,46.391 148.4898,46.754 L148.4898,46.95 L148.2948,46.95 C148.1928,46.871 148.2668,46.913 148.0958,46.853 C148.0208,46.5 147.9148,46.006 147.7048,45.771 C147.7748,45.543 147.8068,45.55 147.8998,45.376 L147.8998,45.376 Z M148.3918,28.664 C148.2998,28.466 148.4098,28.599 148.1978,28.566 C148.2158,28.311 148.2398,28.233 148.2948,28.075 C148.3588,28.109 148.4258,28.142 148.4898,28.175 C148.5278,29.011 148.7018,29.628 148.2948,30.04 C148.1798,30.201 148.1698,30.02 147.9968,29.943 C148.0758,29.607 148.2208,29.73 148.2948,29.55 C148.4768,29.091 148.0258,29.011 148.3918,28.664 L148.3918,28.664 Z M148.5868,4.48 L148.7878,4.48 L148.7878,4.285 L148.5868,4.285 L148.5868,4.48 Z M148.9818,16.476 C149.0428,16.303 148.9998,16.378 149.0788,16.278 C149.2098,16.518 149.0338,16.348 149.2738,16.476 L149.2738,16.771 L148.9818,16.771 C148.9678,16.488 148.9118,16.627 148.9818,16.476 L148.9818,16.476 Z M149.6688,18.342 C149.6688,18.767 149.6928,19.117 149.5718,19.326 L149.5718,20.015 L149.3768,20.015 C149.0558,19.154 149.1538,18.719 149.2738,17.949 C149.4038,18.08 149.5388,18.212 149.6688,18.342 L149.6688,18.342 Z M149.4738,32.99 C149.4308,33.193 149.4468,33.181 149.3768,33.286 L149.3768,33.386 L149.1768,33.386 C149.1958,33.131 149.2188,33.05 149.2738,32.893 L149.4738,32.99 Z M150.0638,30.827 L149.9668,30.925 C149.7388,30.895 149.7208,30.882 149.5718,30.827 C149.3618,29.979 149.0988,29.09 149.4738,28.272 C150.0678,28.742 149.8178,30.006 150.0638,30.827 L150.0638,30.827 Z M150.1608,32.499 L150.1608,32.599 L149.9668,32.599 C149.9288,32.564 149.8968,32.533 149.8628,32.499 L149.8628,31.912 L150.0638,31.912 C150.0488,32.35 149.9328,32.369 150.1608,32.499 L150.1608,32.499 Z M144.9518,65.826 C144.8498,66.05 144.7798,66.04 144.6558,66.22 C144.3958,66.255 144.1318,66.285 143.8698,66.318 L143.8698,66.613 C143.5418,66.81 143.2108,67.005 142.8868,67.203 L142.6878,67.203 L142.6878,67.005 C143.2908,66.473 143.9918,66.111 144.4598,65.433 L145.0488,65.433 C145.0258,65.662 145.0308,65.711 144.9518,65.826 L144.9518,65.826 Z M143.6708,69.172 L143.7728,69.172 C143.6478,69.455 143.6348,69.261 143.4758,69.072 C143.6478,69.134 143.5738,69.089 143.6708,69.172 L143.6708,69.172 Z M142.8868,68.677 C142.7148,68.74 142.7898,68.695 142.6878,68.777 C142.4418,68.764 142.3248,68.763 142.1998,68.677 C142.1188,68.616 142.1708,68.675 142.1998,68.579 C142.3108,68.359 142.3378,68.43 142.4928,68.285 C142.7198,68.357 142.7108,68.386 142.8868,68.479 L142.8868,68.677 Z M141.4098,68.285 L141.4098,68.382 C141.2198,68.427 141.2838,68.339 141.2168,68.285 C141.0388,68.004 141.3498,67.925 141.5088,67.498 L141.8048,67.498 L142.0008,67.695 C141.8888,68.055 141.7848,68.182 141.4098,68.285 L141.4098,68.285 Z M137.7748,73.396 C137.6688,73.469 137.6818,73.457 137.4788,73.497 L137.4788,73.101 L137.7748,73.005 L137.8738,73.101 C137.8308,73.302 137.8488,73.292 137.7748,73.396 L137.7748,73.396 Z M136.9868,73.396 C136.5028,73.412 136.2338,73.298 135.5138,73.298 C135.4818,73.265 135.4488,73.234 135.4118,73.202 C135.4868,72.891 135.4758,72.995 135.6128,72.806 C136.0618,72.817 136.3448,72.868 136.5918,72.806 C136.7018,72.966 136.8528,73.155 136.9868,73.298 L136.9868,73.396 Z M134.2328,73.101 C133.9638,73.071 133.7178,73.032 133.5458,72.904 L133.4488,72.904 C133.5738,72.667 133.7678,72.601 133.9408,72.412 L134.7248,72.412 L134.8228,72.511 C134.6278,72.71 134.4328,72.904 134.2328,73.101 L134.2328,73.101 Z M132.7618,73.986 C132.7378,74.071 132.7798,74.096 132.4638,74.183 C132.3628,74.262 132.4408,74.219 132.2698,74.281 C132.2048,74.216 132.1388,74.15 132.0748,74.086 L132.0748,73.593 C132.2698,73.615 132.0938,73.685 132.2698,73.593 C132.6378,73.612 132.6178,73.542 132.7618,73.789 L132.8588,73.789 C132.8258,73.855 132.7958,73.921 132.7618,73.986 L132.7618,73.986 Z M131.4858,74.576 C131.1548,74.545 130.8258,74.51 130.5008,74.478 L130.5008,73.986 C130.8258,73.921 131.1548,73.855 131.4858,73.789 C131.5218,73.992 131.5088,73.978 131.5768,74.086 C131.5578,74.339 131.5358,74.421 131.4858,74.576 L131.4858,74.576 Z M127.7468,72.609 C127.4778,72.67 127.1818,72.773 127.0608,72.71 C126.7918,72.707 126.6058,72.703 126.4668,72.609 C126.3878,72.509 126.4348,72.588 126.3678,72.412 C126.4958,72.349 126.5728,72.308 126.6658,72.218 C126.9958,72.235 127.2548,72.27 127.4508,72.412 C127.5488,72.447 127.6498,72.478 127.7468,72.511 L127.7468,72.609 Z M124.5998,70.154 C123.2948,70.128 122.2098,69.613 121.3548,69.072 C121.4378,68.655 121.5178,68.713 121.8488,68.579 C122.0838,68.379 123.9028,69.789 124.5998,69.855 L124.5998,70.154 Z M122.7348,71.333 C122.4598,71.393 122.2688,71.5 122.1448,71.43 C121.5048,71.343 119.9858,70.325 119.7848,69.956 C119.6938,69.767 119.7438,69.884 119.7848,69.661 C121.1648,69.825 121.7728,70.483 122.7348,71.035 L122.7348,71.333 Z M120.3748,72.218 C120.5418,72.279 120.4688,72.235 120.5708,72.314 C120.3988,72.251 120.4718,72.296 120.3748,72.218 L120.3748,72.218 Z M118.8018,70.546 L118.8018,70.351 C119.1778,70.4 119.4888,70.506 119.6848,70.74 C119.9708,70.862 119.7628,70.776 119.8818,71.035 C119.4708,70.88 119.1318,70.734 118.8018,70.546 L118.8018,70.546 Z M118.1108,66.908 L118.4088,66.908 C118.6298,67.263 118.9098,67.597 119.2898,67.796 C119.2378,68.062 119.2758,68.073 119.1928,68.184 C119.1558,68.254 118.4268,67.816 118.2118,67.695 C118.0828,67.384 118.0158,67.223 118.1108,66.908 L118.1108,66.908 Z M119.9808,67.3 C120.2088,67.364 120.2868,67.414 120.4688,67.498 L120.4688,67.796 C120.1858,67.685 120.2408,67.611 119.9808,67.498 L119.9808,67.3 Z M117.6178,69.561 L117.7218,69.561 L117.7218,69.363 L117.6178,69.363 L117.6178,69.561 Z M115.5568,65.236 C115.3338,64.81 115.1198,64.482 115.0648,63.859 L115.3568,63.859 C115.5938,64.183 115.9648,64.257 116.1468,64.646 L116.2438,64.646 C116.1048,64.978 115.8768,65.093 115.5568,65.236 L115.5568,65.236 Z M114.5728,65.334 L114.3788,65.334 C114.3448,65.205 114.3128,65.075 114.2748,64.941 L114.5728,65.136 L114.5728,65.334 Z M114.0808,63.859 C113.9698,63.7 113.9138,63.483 113.7888,63.173 L113.9828,63.072 C114.0168,63.041 114.0468,63.009 114.0808,62.976 L114.2748,63.173 C114.3448,63.466 114.4098,63.762 114.4758,64.055 C114.1688,63.996 114.2328,64.039 114.0808,63.859 L114.0808,63.859 Z M113.0958,60.91 L113.5878,60.91 C113.7008,61.085 113.8348,61.265 113.9828,61.402 C113.9748,61.65 113.9698,61.765 113.8858,61.893 L113.8858,61.994 C113.3418,61.814 113.2718,61.459 113.0958,60.91 L113.0958,60.91 Z M112.7068,63.959 L112.7068,63.565 C113.1568,63.642 113.2448,63.787 113.2968,64.252 C112.9288,64.183 112.9468,64.109 112.7068,63.959 L112.7068,63.959 Z M112.5068,63.072 C112.3068,63.033 112.3208,63.052 112.2148,62.976 C111.9168,62.833 110.8998,60.954 110.8348,60.519 C111.0868,60.527 111.2028,60.529 111.3278,60.615 C111.6708,60.784 112.5488,62.285 112.7068,62.68 C112.8648,62.779 112.6038,62.921 112.5068,63.072 L112.5068,63.072 Z M111.1328,62.68 C110.8318,62.574 110.7738,62.44 110.5428,62.285 L110.5428,61.994 C110.9608,62.073 110.8958,62.167 111.1328,62.385 L111.1328,62.68 Z M146.0288,11.168 C145.6018,11.11 145.6948,11.049 145.4398,10.873 C145.5708,10.308 145.7328,9.818 145.6388,9.298 C145.6718,9.266 145.7058,9.232 145.7358,9.201 C145.9638,9.232 145.9788,9.245 146.1308,9.298 C146.2708,10.058 146.0898,10.343 146.0288,11.168 L146.0288,11.168 Z M150.7508,46.95 C150.7928,46.597 150.6988,46.695 150.9448,46.655 C150.6528,44.048 151.0798,41.225 150.7508,39.086 C150.6378,38.358 151.0058,36.688 150.8478,35.841 C150.5288,34.11 150.9088,30.776 150.5558,28.962 C150.4338,28.356 150.7258,27.418 150.6528,26.993 C150.4138,25.672 150.7138,24.454 150.4528,23.063 C150.2868,22.157 150.7368,20.821 150.5558,20.113 C150.3188,19.198 150.3548,18.829 150.3548,17.163 C150.3548,16.775 150.4948,16 150.4528,15.785 C150.2068,14.37 150.2128,12.259 150.0638,10.675 C150.0388,10.427 150.3008,10.444 150.2578,10.281 C150.2218,10.139 149.9288,9.684 149.9668,9.495 C149.9708,9.466 150.2128,8.356 150.1608,8.12 C150.0968,8.052 150.0318,7.989 149.9668,7.922 C149.9118,7.571 150.2548,6.478 150.1608,6.153 C150.1158,5.984 149.8778,5.36 149.8628,5.17 C149.7428,4.266 147.9968,3.655 147.2128,3.4 C147.0798,3.528 146.8968,3.611 146.7208,3.695 C146.6388,4.073 146.5398,4.741 146.3268,5.071 C146.2948,5.104 146.2618,5.137 146.2298,5.17 C146.1038,4.848 146.0288,4.558 146.0288,4.087 C145.0638,4.288 145.0688,4.997 144.8498,5.956 C144.6648,6.785 144.7028,10.888 144.9518,12.052 C145.1388,12.927 144.7348,13.818 144.9518,14.507 C145.2168,15.361 145.1798,15.972 144.9518,17.065 C145.0188,19.193 145.0828,21.325 145.1458,23.455 C145.2858,24.201 145.2358,25.24 145.2438,26.403 C145.2498,26.735 145.1008,27.307 145.1458,27.485 L145.3428,27.584 C145.3098,28.009 145.2768,28.437 145.2438,28.862 C145.3048,29.192 145.5368,31.091 145.4398,31.714 C145.4258,31.828 145.2168,32.749 145.3428,33.286 C145.4958,33.928 145.6118,37.005 145.5418,37.318 C145.4778,37.381 145.4078,37.448 145.3428,37.513 C145.3468,38.859 145.6478,39.928 145.5418,40.756 C145.4628,41.342 145.6858,42.103 145.6388,42.527 C145.5568,43.303 145.5198,44.537 145.5418,45.771 C145.5508,46.585 145.7688,47.348 145.5418,47.834 C145.6678,48.292 145.8708,49.703 145.6388,50.098 C145.7608,50.348 145.7418,50.311 146.0288,50.39 C145.9278,50.466 145.9408,50.454 145.7358,50.49 C145.7418,51.22 145.8578,53.63 145.5418,54.128 L145.5418,54.815 C145.8118,54.77 145.8258,54.699 146.0288,54.815 L146.2298,54.815 C146.1638,54.985 146.2098,54.912 146.1308,55.013 C145.9838,55.259 145.9228,55.214 145.5418,55.211 C145.2818,56.526 145.0778,59.136 144.3618,60.026 L144.3618,60.126 C144.9488,60.048 145.4818,59.36 145.7358,58.945 C145.9638,58.966 146.0148,58.964 146.1308,59.043 L146.3268,59.043 C146.3348,59.423 146.3048,59.723 146.4228,59.928 C146.3408,60.197 146.2068,60.437 146.0288,60.615 C145.6588,60.923 144.5298,60.839 144.2608,60.519 L144.1638,60.519 C144.1538,60.797 144.1248,60.939 144.0658,61.106 C144.4298,61.237 144.8228,61.173 145.0488,61.303 L145.3428,61.402 C145.2408,61.901 144.8928,62.203 144.6558,62.582 C144.2508,62.552 144.0798,62.494 143.8698,62.285 L143.4758,62.285 C143.4108,62.483 143.3458,62.68 143.2808,62.877 C143.4478,63.013 143.5778,63.153 143.7728,63.27 C143.4988,64.194 142.9978,63.796 142.2968,64.252 C141.7298,64.623 141.6698,65.548 141.2168,66.023 C140.7928,66.463 140.1648,66.485 139.8368,66.81 C135.6398,70.923 128.5968,70.893 123.2248,68.777 C122.2828,68.406 121.3778,67.528 120.5708,67.005 C120.3808,66.884 120.0778,66.96 119.8818,66.81 L119.7848,66.512 C119.1878,66.023 118.6908,65.385 118.1108,65.136 C117.9888,64.957 118.0648,65.151 117.9158,65.236 C117.8688,65.014 117.8308,65.127 117.9158,64.941 C117.8598,64.712 115.9938,63.173 115.7518,63.072 C115.8448,62.732 115.6908,62.896 116.0498,62.877 C115.8858,61.836 114.9618,61.337 114.4758,60.615 C114.4418,60.453 114.4098,60.289 114.3788,60.126 L113.9828,60.126 C113.7798,59.981 113.4348,59.66 113.2968,59.436 C112.2658,59.51 111.3178,59.486 110.6408,60.223 C110.5248,60.352 110.0748,61.118 109.9528,61.503 C109.8518,61.811 110.0328,61.857 109.9528,61.994 C109.9628,62.513 110.1638,63.276 110.4458,63.565 C110.5568,63.681 110.8408,63.629 110.9378,63.762 C111.0348,64.123 111.1328,64.482 111.2298,64.844 C111.5738,65.358 112.3578,65.632 112.7068,66.121 C112.8558,66.331 112.6708,66.646 112.8048,66.908 C112.9558,67.218 115.0138,68.524 115.5568,68.874 C115.6908,68.963 116.7918,69.953 116.8338,70.053 C116.8008,70.218 116.7688,70.382 116.7368,70.546 C116.9498,70.835 117.4748,70.657 117.8188,70.841 C118.3658,71.132 118.7968,71.936 119.2898,72.314 C119.8318,72.732 120.8728,72.909 121.5558,73.202 C123.3938,73.992 126.2288,75.007 128.6308,74.773 C129.9108,74.648 130.7468,75.025 131.8748,74.773 L132.8588,74.773 C133.1688,74.576 133.2118,74.117 133.6428,73.986 C134.1868,73.825 134.8468,74.098 135.1198,74.183 C135.6588,74.347 136.2008,74.044 136.4988,73.986 L137.3818,73.986 L137.3818,73.789 C137.6778,73.691 137.9708,73.593 138.2668,73.497 C138.3878,73.423 138.4638,73.059 138.5608,73.005 C138.8888,72.809 139.1818,73.241 139.5438,73.005 C140.5148,72.363 142.2498,71.302 143.1798,70.646 C143.9458,70.102 144.7938,68.321 145.6388,68.285 L145.6388,67.796 C145.3048,67.953 144.4368,68.336 144.1638,68.184 C143.6758,68.102 143.6298,67.897 143.4758,67.498 C143.6658,67.376 144.3528,67.093 144.4598,67.005 C144.9338,66.613 145.0218,66.137 145.7358,65.923 C145.8298,66.014 145.9098,66.06 146.0288,66.121 C146.0148,66.574 145.9638,66.692 145.7358,66.908 L145.7358,67.695 C146.7018,67.275 147.5058,65.173 147.9968,64.156 C148.1428,63.859 148.5498,63.464 148.6838,63.173 C148.8708,62.776 148.7128,62.476 148.8848,62.089 C149.4878,60.735 149.9328,59.259 150.3548,58.061 C150.5288,57.572 150.3618,56.775 150.4528,56.292 C150.7928,54.539 151.0848,52.259 150.8478,50.882 C150.6528,49.743 151.2978,47.804 150.7508,46.95 L150.7508,46.95 Z" id="Fill-7" fill="#939393"></path>
            <path d="M145.4396,55.2106 L145.5416,55.2106 C145.5006,55.0066 145.5146,55.0186 145.4396,54.9156 L145.4396,55.2106 Z" id="Fill-9" fill="#061B2B"></path>
            <path d="M239.985,73.6911 C239.33,73.6481 239.172,73.2051 239.194,72.8061 L239.687,72.8061 C239.798,73.0741 239.897,73.0861 239.985,73.3961 L240.083,73.3961 L239.985,73.6911 Z M238.119,65.8261 L238.21,65.8261 L238.313,65.7281 C238.819,66.4551 239.77,66.8591 239.881,67.9901 C239.01,67.8711 238.433,66.5311 238.119,65.8261 L238.119,65.8261 Z M233.786,61.3031 L233.592,61.3031 C233.271,60.9221 232.962,60.2721 232.51,60.0261 C232.533,59.6441 232.538,59.7641 232.51,59.4361 C232.952,59.8491 233.296,60.4641 233.786,60.8131 C233.739,61.0391 233.772,60.9591 233.786,61.3031 L233.786,61.3031 Z M226.227,49.9011 C224.592,49.9461 221.983,49.7251 220.227,49.9981 C218.167,50.3171 215.891,49.6591 214.327,49.9981 C213.778,50.1171 212.934,49.8431 212.557,49.9011 C210.7,50.1891 209.309,49.7921 208.232,49.9981 L203.412,49.9981 C202.624,50.1621 200.808,50.2111 199.972,49.9981 C199.419,49.8561 199.249,50.3321 198.696,50.1921 C198.598,50.1701 198.205,49.9011 198.106,49.9011 C196.501,49.9011 194.979,50.0281 193.681,49.9011 C192.973,49.8311 191.645,50.1831 191.124,49.9011 C190.645,49.8851 190.569,49.8001 190.241,49.7031 C190.335,49.2141 190.651,49.0481 190.832,48.7221 C190.864,48.6591 190.672,48.5151 190.733,48.3271 C190.794,48.1271 191.055,47.8721 191.124,47.7371 C191.315,47.3901 191.18,47.1051 191.324,46.7541 C191.672,45.8981 192.489,44.8911 192.797,44.2961 L192.797,43.7071 L192.994,43.7071 C193.149,43.4491 193.033,43.1781 193.19,42.9171 C193.283,42.7681 193.45,42.5461 193.585,42.3301 L193.781,42.3301 L193.681,41.8391 C193.781,41.8061 193.877,41.7741 193.979,41.7391 C194.184,41.4121 193.997,41.0051 194.174,40.6601 C194.304,40.5621 194.435,40.4631 194.569,40.3651 C194.792,39.9331 194.471,39.7041 194.666,39.2841 C194.819,38.9401 195.215,38.1541 195.451,37.8111 C195.58,37.6221 195.951,37.5541 196.039,37.3171 C196.124,37.0951 195.991,36.6421 196.138,36.2361 C196.322,35.7311 196.817,35.0781 197.121,34.6621 L197.026,34.5641 C197.09,34.3301 197.344,34.1331 197.419,33.9731 C197.385,33.8421 197.354,33.7121 197.322,33.5831 C197.437,33.2951 197.875,32.9091 198.008,32.5991 C198.282,31.9521 198.218,31.5421 198.501,30.9241 C198.76,30.3541 199.355,29.6231 199.583,29.0561 C199.551,28.9611 199.513,28.8621 199.486,28.7641 C199.568,28.6081 199.89,28.5781 199.972,28.3691 C200.181,27.8711 200.01,27.4311 200.27,26.9931 C201.263,25.3231 202.396,22.1111 203.412,19.9161 C203.5,19.7341 203.83,19.5041 203.905,19.3261 C204.072,18.9311 203.932,18.7111 204.105,18.3421 C204.333,17.8501 204.853,17.1301 205.084,16.6721 L205.084,16.2781 C205.242,15.9021 205.618,15.3501 205.777,15.0001 L205.673,14.7051 C205.752,14.5381 206.1,14.2631 206.172,14.1141 L206.172,13.4281 C206.576,12.4831 207.671,11.0371 207.837,9.9871 C208.083,10.1851 208.606,10.7841 208.724,11.0671 C208.788,11.4271 208.854,11.7901 208.919,12.1481 C209.642,13.5891 210.356,14.9751 211.083,16.2781 C211.593,17.1921 211.681,18.1801 212.165,19.1291 C216.078,26.8281 219.642,35.3491 223.176,42.6251 C223.407,43.0981 223.345,43.5041 223.566,44.0021 C224.145,45.3071 225.089,46.8771 225.635,48.2291 C225.872,48.8161 225.895,49.2371 226.227,49.7031 L226.227,49.9011 Z M199.68,24.2421 C199.931,24.2301 200.043,24.2291 200.172,24.1421 C200.27,24.2101 200.367,24.2751 200.464,24.3391 C200.299,24.7011 199.951,25.3751 199.68,25.7161 C199.401,25.8911 198.832,25.7881 198.598,26.0121 C198.436,26.1671 198.436,26.5151 198.301,26.6991 C198.027,27.0741 197.541,27.4271 197.218,27.7791 L197.026,27.7791 C197.114,26.3671 198.966,25.2111 199.68,24.2421 L199.68,24.2421 Z M199.778,18.0471 C200.084,18.1581 200.071,18.2561 200.27,18.4421 L200.27,18.9311 L199.778,18.6391 L199.778,18.0471 Z M202.136,13.8201 L202.531,13.8201 C202.656,14.0221 202.739,14.0451 202.824,14.3121 C202.967,14.6271 202.406,15.3361 202.136,15.5911 C202.038,15.6681 201.868,15.7361 201.747,15.7851 C201.658,15.5771 201.589,15.3501 201.449,15.1971 C201.532,14.5841 201.817,14.1911 202.136,13.8201 L202.136,13.8201 Z M203.315,15.4911 L203.412,15.5911 C203.379,16.3021 203.096,16.3461 202.926,16.8681 C202.651,16.9211 202.643,16.8871 202.531,16.9651 L202.336,16.9651 C202.388,16.3691 202.698,15.9461 202.926,15.4911 L203.315,15.4911 Z M204.002,14.2151 L204.202,14.4121 L204.202,14.6071 C204.031,14.5421 204.105,14.5881 204.002,14.5071 C203.915,14.3191 203.965,14.4361 204.002,14.2151 L204.002,14.2151 Z M204.693,9.3961 L204.792,9.3961 L204.792,9.2981 C205.093,9.4051 205.144,9.5381 205.38,9.6901 C205.413,9.8561 205.446,10.0191 205.479,10.1851 C204.889,10.1151 205.023,9.8721 204.693,9.5941 L204.693,9.3961 Z M206.267,7.7241 C206.584,7.8521 206.606,8.0391 206.858,8.2161 C206.792,8.3861 206.839,8.3141 206.76,8.4141 L206.76,8.5111 C206.323,8.3701 206.213,8.0781 206.267,7.7241 L206.267,7.7241 Z M207.74,4.7771 C208.321,4.8951 208.307,5.3091 208.626,5.6591 C208.542,5.9961 208.575,5.9101 208.329,6.0531 C208.246,6.1501 207.971,5.9051 207.546,5.8561 C207.554,5.3291 207.647,5.1451 207.74,4.7771 L207.74,4.7771 Z M209.116,6.8401 C209.344,7.3021 209.438,7.4881 209.411,8.0221 C208.965,7.9061 209.01,7.6811 208.626,7.5271 C208.664,7.3271 208.65,7.3391 208.724,7.2321 C208.831,7.0031 208.913,6.9611 209.116,6.8401 L209.116,6.8401 Z M209.903,8.5111 C209.983,8.6131 209.94,8.5351 209.999,8.7071 C209.801,8.6181 209.936,8.7301 209.903,8.5111 L209.903,8.5111 Z M209.708,5.8561 C209.876,5.9211 209.805,5.8771 209.903,5.9561 C210.071,6.1481 210.173,6.4941 209.999,6.7431 L209.999,6.9381 L209.805,6.9381 C209.708,6.8401 209.609,6.7431 209.513,6.6441 C209.475,6.4171 209.465,6.3991 209.411,6.2511 C209.533,6.1401 209.624,6.0021 209.708,5.8561 L209.708,5.8561 Z M213.736,18.9311 C213.812,18.7831 214.428,19.5861 214.624,19.7181 L214.624,20.1131 C213.9,20.0431 213.964,19.6601 213.64,19.2261 C213.676,19.0241 213.663,19.0381 213.736,18.9311 L213.736,18.9311 Z M214.819,22.6681 L215.111,22.6681 C215.176,22.8381 215.133,22.7661 215.214,22.8661 L215.214,23.1601 C214.987,23.0861 214.991,23.0581 214.819,22.9631 L214.819,22.6681 Z M215.9,21.8841 C216.03,21.9461 216.161,22.0141 216.296,22.0791 L216.296,22.3731 C216.161,22.3411 216.03,22.3061 215.9,22.2741 L215.9,21.8841 Z M216.393,24.4381 L216.489,24.5371 L216.393,24.5371 C216.289,24.6161 216.37,24.5721 216.198,24.6341 L216.198,24.5371 C216.105,24.3461 216.155,24.4651 216.198,24.2421 C216.434,24.3721 216.268,24.1961 216.393,24.4381 L216.393,24.4381 Z M217.377,27.4851 C217.924,27.5731 218,27.8311 218.356,28.0751 L218.356,28.3691 C218.139,28.4321 218.097,28.4441 217.967,28.5661 C217.595,28.5321 217.6,28.4921 217.377,28.3691 C217.352,27.9361 217.289,27.7841 217.377,27.4851 L217.377,27.4851 Z M219.243,30.2371 C219.299,30.3611 219.358,30.5351 219.439,30.6301 C219.401,30.8351 219.415,30.8201 219.34,30.9241 L219.243,31.0241 L219.243,30.9241 C219.035,30.7551 218.983,30.5891 218.951,30.2371 L219.243,30.2371 Z M220.519,27.2901 C220.483,27.4921 220.497,27.4781 220.423,27.5841 C220.32,27.6641 220.397,27.6201 220.227,27.6831 C220.088,27.5361 219.905,27.3951 219.735,27.2901 C219.68,27.0351 219.637,26.8541 219.637,26.5031 C220.101,26.6631 220.218,26.9861 220.519,27.2901 L220.519,27.2901 Z M222.489,32.6951 C222.26,32.6731 222.21,32.6771 222.093,32.5991 C221.788,32.6571 221.856,32.6141 221.698,32.7931 C221.508,33.0981 221.815,34.1581 222.288,34.3671 C222.252,34.5691 222.266,34.5581 222.19,34.6621 L222.093,34.7611 L222.093,34.6621 C222.033,34.6341 221.237,33.9131 221.212,33.8761 L221.212,33.4811 C220.915,33.2201 220.623,32.9581 220.325,32.6951 C219.924,32.0811 219.833,30.8951 219.833,29.9431 C220.608,30.0621 222.424,31.8191 222.489,32.6951 L222.489,32.6951 Z M223.37,38.0041 C223.542,38.0671 223.467,38.0231 223.566,38.1021 L223.668,38.1021 L223.668,38.3001 L223.473,38.3001 L223.37,38.0041 Z M221.997,37.9051 C221.337,37.6241 221.346,36.6611 220.915,36.1361 L220.915,35.8411 C221.643,36.1891 221.856,37.2431 222.489,37.7101 L222.489,38.0041 C222.237,37.9951 222.121,37.9931 221.997,37.9051 L221.997,37.9051 Z M223.862,41.6421 C223.77,41.8161 223.829,41.7521 223.668,41.6421 L223.862,41.6421 Z M222.387,38.5941 C223.413,38.9541 223.613,39.3041 224.258,39.9701 C224.165,40.2081 224.149,40.1271 224.061,40.3651 C223.534,40.3141 222.456,39.0931 222.387,38.5941 L222.387,38.5941 Z M224.061,35.2521 C224.313,35.7861 224.034,35.8151 224.452,36.2361 C224.452,36.5051 224.452,36.6871 224.354,36.8251 L224.258,36.9231 L224.258,36.8251 C223.375,36.2191 222.86,34.1191 222.093,33.5831 C222.128,33.3531 222.139,33.3371 222.19,33.1881 L222.683,33.1881 C223.118,33.7691 223.745,34.5931 224.061,35.2521 L224.061,35.2521 Z M181.886,57.0791 C181.974,57.1681 182.021,57.2471 182.081,57.3731 C181.929,57.2371 181.97,57.3101 181.886,57.0791 L181.886,57.0791 Z M178.738,65.1361 C178.414,65.0021 178.537,65.1091 178.543,64.8441 L178.738,64.8441 L178.738,65.1361 Z M241.164,71.3331 C241.302,71.2551 241.336,71.3431 241.559,71.4301 C241.59,71.3961 241.623,71.3661 241.657,71.3331 C241.508,70.1641 240.672,69.4691 240.374,68.5791 C240.407,68.4791 240.444,68.3811 240.477,68.2851 C240.356,67.8971 239.956,67.4441 239.784,67.1021 C239.687,66.7471 239.59,66.3831 239.493,66.0231 C239.405,65.8651 239.051,65.7501 239.001,65.6281 C239.034,65.4641 239.065,65.3011 239.097,65.1361 C238.921,64.7621 238.296,64.3861 238.119,63.9591 C237.873,63.3771 238.119,62.9391 237.821,62.4831 C237.659,62.2401 237.272,62.3571 237.032,62.1891 C236.791,62.0181 236.405,61.2451 236.344,60.9101 C236.706,60.9781 236.766,61.0761 237.032,61.2071 L237.032,61.1061 C237.032,61.1061 236.405,59.5051 236.247,59.1411 C235.903,58.3451 235.825,57.7841 235.359,56.9791 C235.124,56.5671 234.46,56.1731 234.279,55.7031 L234.279,54.7161 C234.176,54.3901 233.825,54.1041 233.689,53.8341 C233.624,53.5391 233.559,53.2411 233.493,52.9491 C233.335,52.6371 233.039,52.2161 232.803,51.9641 L232.803,51.8641 C232.756,51.4081 232.282,50.2671 231.922,49.7031 C231.755,49.5391 231.594,49.3751 231.432,49.2111 C230.895,47.3451 229.903,45.3701 228.974,43.6081 C229.081,43.2661 228.556,42.7131 228.385,42.3301 C227.813,41.0221 227.325,39.7431 226.616,38.5941 C226.518,38.2671 226.421,37.9391 226.323,37.6121 C224.908,35.2071 224.121,32.0421 222.19,30.1411 C222.252,29.7271 222.173,29.8431 222.489,29.8461 C222.307,28.7711 221.68,28.0341 221.309,27.1901 C220.122,24.5141 219.071,21.9721 217.772,19.4241 C217.553,19.3561 217.344,19.4441 217.176,19.4241 C216.584,19.3521 216.477,18.4671 216.094,18.1471 C216.053,17.6731 216.081,17.1411 216.393,16.7711 L216.296,16.4761 L216.094,16.3761 C215.975,16.6451 215.837,17.0111 215.702,17.2621 C215.168,17.1531 215.292,16.8951 215.014,16.5721 C215.07,16.0791 215.231,16.0321 215.407,15.6891 L215.802,15.6891 C215.761,14.6551 215.138,13.8611 214.72,13.1301 L214.526,13.1301 C214.327,13.4581 214.131,13.7881 213.932,14.1141 L213.542,14.1141 C213.538,13.4811 214.034,12.6471 214.327,12.4441 C214.303,12.2161 214.307,12.1651 214.228,12.0521 L214.228,11.8541 C213.964,11.9861 213.673,12.3361 213.444,12.5441 L213.245,12.5441 C213.344,11.9051 213.668,11.7641 213.837,11.2651 C213.913,11.1641 213.872,11.2391 213.932,11.0671 C213.868,11.0021 213.803,10.9361 213.736,10.8731 C213.176,11.0161 212.854,11.6121 212.462,11.9511 C212.09,11.0601 212.362,10.0921 213.049,9.5941 C212.934,8.6251 212.284,7.6921 211.87,6.9381 C211.448,7.0261 211.508,7.1561 211.083,7.2321 C211.122,6.8031 211.244,6.5781 211.478,6.3481 C211.426,5.5711 210.828,4.9141 210.396,4.4801 C210.288,4.4051 210.301,4.4191 210.101,4.3821 C210.012,4.9071 209.629,5.1691 209.313,5.1691 L209.411,5.4631 C208.952,5.3721 209.01,5.1981 208.724,4.9721 C208.738,4.3311 209.192,4.0801 209.513,4.0871 L209.513,3.8921 C209.057,3.7181 206.973,3.4831 206.658,3.9901 C205.172,3.9971 204.913,5.4501 204.202,6.2511 C204.239,6.6081 204.846,7.4121 205.084,7.5271 C205.033,7.6521 204.968,7.8241 204.889,7.9211 L204.792,8.0221 C204.605,7.7711 204.327,7.4621 204.105,7.2321 L204.105,7.1361 C203.877,7.2101 203.881,7.2381 203.71,7.3321 C203.794,7.9761 204.517,8.2451 204.299,8.7071 C204.178,8.8761 203.78,8.3611 203.71,8.1201 L203.514,8.1201 C203.008,9.0311 202.739,10.3061 202.136,11.1681 C202.206,11.5481 202.201,11.5481 202.531,11.6571 L202.531,11.9511 C202.165,11.8611 202.26,11.7761 201.941,11.6571 C201.756,12.0341 201.564,12.4181 201.844,12.7381 C201.76,13.7921 200.711,13.7701 200.464,14.6071 C200.498,14.8371 200.53,15.0661 200.561,15.2961 C200.502,15.3981 200.145,15.4571 200.074,15.5911 C199.863,15.9941 199.972,16.3691 199.778,16.7711 C199.619,17.0891 199.239,17.5341 199.09,17.8521 C198.853,18.3621 198.84,19.1361 198.404,19.4241 C198.408,20.0601 198.616,20.2691 198.993,20.5051 C198.987,21.0021 198.939,21.1581 198.696,21.3921 C198.529,21.5381 197.62,21.8931 197.218,22.0791 C197.146,22.4611 197.053,22.8271 196.829,23.0631 C196.969,23.2951 197.114,23.2131 197.322,23.3551 C197.398,23.4621 197.383,23.4481 197.419,23.6501 L197.121,23.6501 L197.121,23.9471 C196.926,24.0701 196.161,24.5791 196.039,24.7341 C195.763,25.0971 195.754,25.5881 195.451,25.9131 C195.441,26.6191 195.438,26.5171 195.944,26.6001 C195.756,27.1831 195.501,27.2881 195.352,27.7791 L195.061,27.7791 L195.061,28.0751 C194.426,28.5411 193.798,29.5301 193.585,30.1411 L193.585,30.9241 L193.289,31.0241 C192.973,31.3981 193.055,31.8331 192.797,32.3021 C192.698,32.3361 192.602,32.3691 192.503,32.4011 L192.503,32.7931 C192.381,33.0741 192.052,33.3551 191.915,33.5831 C191.687,33.9521 191.815,34.3781 191.616,34.7611 C191.283,35.4071 190.861,36.0641 190.535,36.8251 C190.353,36.9491 190.549,36.8751 190.636,37.0231 C190.26,37.2931 189.174,39.4961 188.965,40.0681 C188.867,40.3241 189.119,40.2761 188.965,40.5621 C187.369,43.4611 186.301,46.0561 184.834,48.8191 C184.278,49.8741 184.044,50.8851 183.558,51.9641 C183.381,52.3561 182.931,52.7081 183.065,53.1471 C182.772,54.0251 180.935,56.6381 181.096,57.2741 L181.096,57.3731 C180.892,57.3861 179.244,60.7481 179.329,61.2071 L179.035,61.2071 C178.853,62.3851 178.042,63.7191 177.463,64.5461 C177.397,64.8441 177.331,65.1361 177.262,65.4331 C176.519,66.6811 175.878,68.1081 175.2,69.4631 C174.89,70.0841 173.772,71.9641 174.217,72.6091 C174.254,73.1501 174.398,73.1801 174.513,73.5931 C175.033,73.6971 175.516,73.6091 175.888,73.2981 C176.194,73.3021 176.394,73.3331 176.575,73.3961 C176.455,73.7701 175.972,74.0131 175.693,73.8881 C175.624,73.9641 175.563,74.1071 175.498,74.1831 C175.631,74.3031 175.768,74.3331 175.888,74.4781 C178.367,74.5391 178.516,73.4021 179.329,71.8251 C179.573,71.3511 180.038,70.8361 180.015,70.3511 L180.117,70.2511 C179.532,70.3481 179.501,70.6361 179.133,70.8401 C178.549,71.1661 177.894,71.1581 177.364,71.5301 L177.066,71.5301 C177.438,70.6221 178.929,68.9621 179.923,68.3811 C180.488,68.0501 181.269,67.9551 181.589,67.4001 C182.006,66.6761 182.099,65.9961 182.476,65.2361 C182.853,64.4731 183.539,63.5111 183.849,62.6801 L183.849,62.1891 C183.874,62.1371 184.22,61.8261 184.244,61.7951 C184.603,61.3021 184.603,60.6411 184.931,60.1261 C185.067,60.0261 185.196,59.9281 185.326,59.8281 L185.229,59.5331 C185.437,59.1521 185.842,58.5911 186.013,58.1581 C185.981,58.0611 185.949,57.9621 185.916,57.8621 C186.361,56.8531 187.16,55.7721 187.588,54.7161 C188.942,54.2801 192.818,54.6171 194.86,54.6171 C195.255,54.6171 195.79,54.7451 196.039,54.7161 C196.51,54.6631 198.623,54.4901 199.188,54.6171 C199.406,54.6691 200.353,54.8481 200.561,54.8151 C201.176,54.7211 202.481,54.5221 202.926,54.6171 C203.222,54.6811 203.95,54.8211 204.397,54.7161 C205.451,54.4721 206.543,54.5471 207.053,54.6171 C207.284,54.5871 207.512,54.5541 207.74,54.5221 C208.153,54.5931 209.286,54.7891 209.708,54.7161 C212.522,54.2371 215.751,54.9121 218.356,54.8151 C220.516,54.7361 223.43,54.5321 225.241,54.7161 C226.383,54.8361 227.585,54.5501 228.188,54.8151 C229.405,55.2341 229.823,58.0621 230.547,59.1411 C230.686,59.3481 231.087,59.4341 231.233,59.6321 C231.206,59.7321 231.17,59.8281 231.137,59.9281 C231.188,60.0681 231.363,60.2041 231.432,60.3241 C231.299,60.3951 231.137,60.5351 231.233,60.8131 C231.317,61.0451 231.715,61.4701 231.82,61.6971 C231.858,61.8931 231.885,62.0891 231.922,62.2851 C232.083,62.4531 232.245,62.6131 232.409,62.7791 C232.798,63.6921 232.858,64.6621 233.296,65.5311 C233.885,66.7041 234.692,67.9221 235.262,69.1711 C235.891,70.5381 236.54,73.0631 237.62,73.8881 C239.051,74.9731 240.653,74.0491 241.657,73.1011 C241.577,72.5081 241.196,71.9721 240.969,71.7241 C241.024,71.4181 240.981,71.4861 241.164,71.3331 L241.164,71.3331 Z" id="Fill-11" fill="#939393"></path>
            <path d="M319.9284,15.9836 C319.9484,15.2486 319.9754,15.0576 319.6324,14.9016 C319.6634,15.2486 319.6324,15.7976 319.7314,15.9836 L319.8274,16.0806 L319.9284,15.9836 Z" id="Fill-13" fill="#061B2B"></path>
            <path d="M295.154,43.215 L295.251,43.215 C295.19,43.045 295.233,43.121 295.154,43.017 L295.154,43.215 Z" id="Fill-15" fill="#061B2B"></path>
            <path d="M323.8581,54.2253 C323.9351,54.3473 323.8661,54.3193 323.8581,54.6173 C323.4121,54.6423 323.4291,54.7283 323.1721,54.5213 C322.9431,54.4113 322.9941,54.4293 322.8781,54.2253 C322.8031,54.1023 322.8671,54.1313 322.8781,53.8333 L322.9751,53.7333 C323.2591,53.7693 323.3961,53.7983 323.5651,53.9313 C323.8421,54.0433 323.7511,53.9443 323.8581,54.2253 L323.8581,54.2253 Z M323.8581,64.4493 L323.7601,64.4493 L323.7601,64.5463 C323.5331,64.4753 323.5421,64.4463 323.3691,64.3523 C323.3331,63.8123 323.1991,63.2633 323.3691,62.7793 C323.5691,62.8173 323.5601,62.8053 323.6621,62.8763 L323.8581,62.8763 C323.8341,63.5583 323.6941,63.9203 323.8581,64.4493 L323.8581,64.4493 Z M323.6621,70.1543 C323.6301,70.1853 323.5961,70.2173 323.5651,70.2503 L323.4671,70.1543 C323.5001,69.9253 323.5141,69.9093 323.5651,69.7583 L323.7601,69.7583 C323.7411,69.9863 323.7411,70.0373 323.6621,70.1543 L323.6621,70.1543 Z M323.2711,67.8893 C323.1521,68.1133 323.1011,68.0863 322.8781,68.1843 C322.6501,67.9663 322.2751,67.8533 322.0921,67.5973 C321.9341,67.3753 322.0001,67.2663 321.7971,67.1023 C321.8191,66.7043 321.8411,66.7253 321.9911,66.5123 C322.3341,66.6083 322.7001,66.3853 323.0731,66.6133 C323.1721,66.6463 323.2711,66.6783 323.3691,66.7103 C323.3661,67.1413 323.2681,67.8833 323.2711,67.8893 L323.2711,67.8893 Z M321.6001,65.6283 C321.5181,65.4133 321.7311,65.1513 321.7971,64.7433 C321.9451,64.7983 321.9591,64.8153 322.1851,64.8443 L322.1851,65.1363 C322.4361,65.2923 322.6641,65.4243 322.7791,65.7283 L322.8781,65.8263 L322.7791,65.9233 C322.2271,65.9563 321.7641,66.0293 321.6001,65.6283 L321.6001,65.6283 Z M321.4981,53.1463 C321.4481,52.9953 321.4291,52.9813 321.4011,52.7513 L321.6991,52.7513 C321.6561,52.9523 321.6761,52.9413 321.6001,53.0463 L321.4981,53.1463 Z M321.3031,59.2403 L321.4011,59.2403 L321.4011,59.0433 L321.3031,59.0433 L321.3031,59.2403 Z M321.2051,26.9933 L321.2051,27.9763 L321.0071,27.9763 C320.8161,27.0283 320.7281,26.3513 320.9091,25.7163 C321.0811,25.7783 321.0071,25.7343 321.1091,25.8123 C321.2861,26.0273 321.4481,26.6843 321.2051,26.9933 L321.2051,26.9933 Z M321.0071,37.2183 C320.8111,37.2853 320.6151,37.3503 320.4181,37.4143 C320.3191,37.3353 320.3931,37.3783 320.2211,37.3173 C319.9661,36.2723 319.7501,35.4693 320.2211,34.7613 L320.8111,34.7613 C320.8771,34.8243 320.9421,34.8923 321.0071,34.9563 C321.0021,36.0293 320.8721,36.6653 321.0071,37.2183 L321.0071,37.2183 Z M320.7141,38.5943 L320.4181,38.5943 L320.3191,38.4973 C320.3621,38.2953 320.3481,38.3063 320.4181,38.2023 C320.5181,38.1223 320.4451,38.1653 320.6151,38.1023 L320.7141,38.2023 L320.7141,38.5943 Z M320.5181,54.6173 L320.3191,54.6173 L320.2211,54.5213 L320.2211,54.1283 L320.5181,54.1283 L320.5181,54.6173 Z M320.2211,56.2913 L320.0261,56.2913 C320.0591,56.1923 320.0921,56.0943 320.1251,55.9963 C320.2541,56.0473 320.1941,56.0313 320.2211,56.0943 L320.2211,56.2913 Z M320.0261,30.3373 C320.1251,30.3683 320.2211,30.4033 320.3191,30.4353 C320.4681,31.1783 320.8951,33.1733 320.7141,33.6783 C320.6761,34.0473 320.6391,34.0443 320.5181,34.2683 C320.0921,34.2393 320.1111,34.1763 319.8281,34.0733 C319.6821,32.8053 319.8511,31.3643 320.0261,30.3373 L320.0261,30.3373 Z M320.3191,20.5053 L320.5181,20.6023 C320.4821,20.8003 320.4551,20.9973 320.4181,21.1953 L320.3191,21.1953 C320.2211,20.8533 320.2691,20.8683 320.3191,20.5053 L320.3191,20.5053 Z M320.6151,12.3463 C320.3891,12.3143 320.3711,12.2993 320.2211,12.2483 L320.7141,9.1013 C320.8111,9.1693 320.9091,9.2313 321.0071,9.2983 C321.0571,10.0833 321.3171,11.1063 321.1091,11.6573 C320.9891,11.9953 320.7931,12.0793 320.6151,12.3463 L320.6151,12.3463 Z M321.6001,4.6773 L321.8951,4.7773 C321.8651,5.1273 321.7761,5.2583 321.8951,5.4633 C321.8341,5.8033 321.7831,5.7683 321.6991,6.0533 L321.6001,6.0533 L321.4011,5.8563 C321.4201,5.2843 321.4611,4.9813 321.6001,4.6773 L321.6001,4.6773 Z M322.1851,62.7793 C322.1531,63.4083 321.9451,63.3963 321.6991,63.7623 L321.6001,63.7623 C321.6001,63.4933 321.6001,63.3093 321.6991,63.1723 C321.7311,62.8053 321.7731,62.8063 321.8951,62.5813 C321.9911,62.6483 322.0921,62.7133 322.1851,62.7793 L322.1851,62.7793 Z M322.0921,15.8853 C322.3201,15.9723 322.2511,15.9233 322.3851,16.0803 C322.4631,16.2103 322.3471,16.9703 322.2891,17.2623 C322.1171,17.3253 322.1891,17.2803 322.0921,17.3593 L321.9911,17.3593 C321.9861,16.7423 322.0131,16.1273 322.0921,15.8853 L322.0921,15.8853 Z M322.1851,8.6113 C322.3201,8.6763 322.4511,8.7413 322.5821,8.8063 C322.5391,9.0103 322.4881,9.3453 322.3851,9.4953 C322.2681,9.6543 322.2591,9.4733 322.0921,9.3963 C322.0921,9.0703 322.1201,8.8103 322.1851,8.6113 L322.1851,8.6113 Z M322.7791,51.0803 L323.1721,51.0803 C323.1331,51.2803 323.1471,51.2703 323.0731,51.3743 L323.0731,51.4753 C322.8581,51.3843 322.9281,51.3883 322.7791,51.2773 L322.7791,51.0803 Z M322.5821,15.6883 L322.1851,15.6883 C322.2001,15.2293 322.1531,15.0663 322.3851,14.8013 C322.4181,14.7723 322.4511,14.7403 322.4831,14.7043 C322.6451,15.0983 322.6311,15.2223 322.5821,15.6883 L322.5821,15.6883 Z M322.9751,48.8193 L322.9751,49.1143 C322.7291,48.9713 322.8581,49.1393 322.7791,48.8193 L322.9751,48.8193 Z M322.5821,14.0183 L322.7791,14.0183 L322.7791,13.8203 L322.5821,13.8203 L322.5821,14.0183 Z M322.8781,64.8443 L322.8781,64.9413 C322.4471,64.8793 322.0881,64.4733 322.3851,64.0553 L322.3851,63.8593 L322.6791,63.8593 C322.6971,64.1843 322.7341,64.6283 322.8781,64.8443 L322.8781,64.8443 Z M323.3691,59.9283 C323.3691,60.2143 323.3751,60.4643 323.2711,60.6153 C323.1741,60.6743 323.0821,60.6243 322.7791,60.6153 C322.7151,60.3983 322.7071,60.3553 322.5821,60.2233 C322.6451,59.7893 322.8031,59.5463 322.9751,59.2403 C323.2081,59.4233 323.1991,59.6833 323.3691,59.9283 L323.3691,59.9283 Z M323.1721,55.5033 C323.2961,55.4363 323.3751,55.3973 323.4671,55.3073 L323.6621,55.3073 C323.6061,55.6213 323.5791,55.5913 323.4671,55.7993 L323.2711,55.7993 L323.2711,55.7023 C323.1931,55.5993 323.2351,55.6763 323.1721,55.5033 L323.1721,55.5033 Z M322.8781,6.6433 C323.1141,6.7363 323.0321,6.7503 323.2711,6.8403 C323.1611,7.1463 323.0631,7.1333 322.8781,7.3323 C322.6281,7.3203 322.5111,7.3203 322.3851,7.2323 L322.2891,7.2323 C322.4261,6.8553 322.6281,6.8773 322.8781,6.6433 L322.8781,6.6433 Z M323.4671,52.6543 L323.6621,52.6543 L323.6621,53.0463 C323.4951,52.9823 323.5691,53.0283 323.4671,52.9493 C323.3751,52.7573 323.4251,52.8763 323.4671,52.6543 L323.4671,52.6543 Z M323.4671,46.3603 C323.7001,46.4453 323.6301,46.3983 323.7601,46.5583 C323.5141,46.4933 323.7091,46.5303 323.4671,46.5583 L323.4671,46.3603 Z M313.0451,62.2853 C312.7191,62.1513 312.8501,62.2573 312.8501,61.9933 L313.0451,61.9933 L313.0451,62.2853 Z M310.1941,58.5533 L310.0971,58.6493 C310.0181,58.5533 309.9531,58.3793 309.8961,58.2563 L310.1941,58.2563 C310.2281,58.2893 310.2581,58.3223 310.2921,58.3563 C310.2581,58.4223 310.2281,58.4863 310.1941,58.5533 L310.1941,58.5533 Z M307.3431,54.8153 L306.7541,54.8153 L306.7541,54.4233 C306.5501,54.3833 306.2161,54.3303 306.0671,54.2253 C305.9331,54.1143 306.0941,54.1773 306.1651,53.9313 C306.8841,53.9703 306.9721,54.3543 307.3431,54.7163 L307.3431,54.8153 Z M297.1221,39.5763 L297.1221,39.6763 C296.8951,39.5643 296.9411,39.5843 296.8251,39.3813 L297.2201,39.3813 C297.1531,39.5533 297.2011,39.4763 297.1221,39.5763 L297.1221,39.5763 Z M289.1551,32.7933 C288.6821,32.7543 288.6641,32.7013 288.5651,32.3023 C288.8721,32.3363 288.7231,32.3363 288.9601,32.3023 C289.0141,32.4263 289.0761,32.5993 289.1551,32.6953 L289.1551,32.7933 Z M287.8791,28.7643 L287.5801,28.7643 C287.4561,28.1633 287.5031,28.0973 287.5801,27.4853 C287.7151,27.5493 287.8461,27.6173 287.9771,27.6833 C287.9811,28.0833 287.9661,28.5013 287.8791,28.7643 L287.8791,28.7643 Z M287.6831,31.6143 C287.8511,31.6773 287.7761,31.6333 287.8791,31.7143 C287.7081,31.6493 287.7811,31.6933 287.6831,31.6143 L287.6831,31.6143 Z M286.4071,27.2893 C285.9101,26.7863 285.4591,26.4573 285.8131,25.6163 L286.1091,25.6163 C286.3351,25.9593 286.8751,26.4653 287.2891,26.5993 C287.1971,27.0803 286.8661,27.2043 286.4071,27.2893 L286.4071,27.2893 Z M286.9911,29.9433 L286.8931,29.9433 C286.9261,30.0103 286.9611,30.0753 286.9911,30.1403 L286.6991,30.4353 L286.5051,30.4353 C286.5471,30.1263 286.6011,30.0633 286.6991,29.8463 L286.9911,29.8463 L286.9911,29.9433 Z M284.7311,27.9763 L284.9301,27.9763 C284.8381,28.1513 284.8971,28.0873 284.7311,27.9763 L284.7311,27.9763 Z M283.2581,23.8483 C283.3291,23.5413 283.3241,23.6423 283.4551,23.4553 C283.9241,23.6393 284.4761,24.0263 284.6331,24.5373 C284.8841,24.9103 284.6301,25.3913 284.5351,25.7163 C283.9141,25.6123 283.1621,24.3113 283.2581,23.8483 L283.2581,23.8483 Z M283.9471,27.0923 L284.1411,27.0923 C284.0531,27.2663 284.1101,27.2023 283.9471,27.0923 L283.9471,27.0923 Z M280.5061,18.2433 C280.3011,18.2053 280.3171,18.2213 280.2111,18.1463 L280.1121,18.1463 L280.1121,17.9493 L280.5061,17.9493 L280.5061,18.2433 Z M279.1291,16.9653 C279.0341,17.0713 278.8821,16.9793 278.7381,16.8683 C278.3141,16.5773 278.3141,16.0163 277.9501,15.6883 C277.9631,15.1413 278.0511,15.1093 278.2461,14.8013 C278.7181,14.8823 278.7431,15.0663 279.1291,15.1973 C279.3091,15.8513 279.4381,16.4523 279.1291,16.9653 L279.1291,16.9653 Z M277.1651,14.7043 L276.7701,14.7043 C276.7181,14.3613 276.5671,13.8293 276.7701,13.5253 C276.8521,13.4193 276.9691,13.5823 277.2601,13.6233 C277.2991,13.8243 277.2841,13.8133 277.3581,13.9173 C277.3501,14.3613 277.2991,14.4563 277.1651,14.7043 L277.1651,14.7043 Z M276.1801,17.1623 C276.0751,17.2373 276.0871,17.2253 275.8821,17.2623 L275.8821,16.8683 L275.9851,16.8683 C276.0821,16.7883 276.0071,16.8303 276.1801,16.7703 C276.2131,16.8033 276.2451,16.8333 276.2781,16.8683 C276.2401,17.0703 276.2541,17.0583 276.1801,17.1623 L276.1801,17.1623 Z M273.2331,11.8543 C272.8701,11.7383 272.7151,11.5613 272.5451,11.2653 C272.4421,11.1063 272.4421,10.8883 272.4421,10.4773 C272.5911,10.3433 272.7311,10.1603 272.8381,9.9873 C273.0651,10.0603 273.0551,10.0873 273.2331,10.1853 C273.2131,10.7703 273.2171,11.0813 273.3301,11.6573 C273.2511,11.7583 273.2941,11.6823 273.2331,11.8543 L273.2331,11.8543 Z M270.6731,16.3753 C270.5671,16.4523 270.5861,16.4383 270.3811,16.4763 L270.3811,15.9833 C270.5491,16.0463 270.4751,16.0023 270.5771,16.0803 L270.7711,16.0803 C270.7351,16.2833 270.7491,16.2713 270.6731,16.3753 L270.6731,16.3753 Z M270.2781,14.3123 L270.2781,13.6233 L270.5771,13.6233 C270.5341,14.0323 270.4361,13.9823 270.6731,14.2153 C270.6101,14.3843 270.6551,14.3103 270.5771,14.4113 C270.5441,14.4433 270.5121,14.4743 270.4791,14.5073 L270.4791,14.4113 L270.2781,14.3123 Z M270.1811,58.7493 C270.0851,58.8273 270.1591,58.7843 269.9871,58.8463 C269.9541,58.8143 269.9221,58.7803 269.8891,58.7493 C269.9081,58.4933 269.9301,58.4143 269.9871,58.2563 L270.1811,58.2563 C270.2471,58.4253 270.2001,58.3523 270.2781,58.4523 C270.2421,58.6573 270.2551,58.6413 270.1811,58.7493 L270.1811,58.7493 Z M269.8891,61.7953 L269.6891,61.7953 C269.7081,61.5423 269.7371,61.4593 269.7881,61.3033 L270.0851,61.4023 C270.0111,61.6303 269.9821,61.6203 269.8891,61.7953 L269.8891,61.7953 Z M269.1981,28.5663 L269.0991,28.6643 C268.2791,27.5993 269.0491,26.1343 269.0991,24.9293 C269.2631,24.9623 269.4301,24.9953 269.5921,25.0263 C269.5731,25.9113 269.5731,27.6023 269.1981,28.5663 L269.1981,28.5663 Z M269.4951,38.4973 C269.3231,38.4343 269.3971,38.4783 269.2991,38.3973 C269.1941,38.2083 269.2661,38.2833 269.2991,38.0043 C269.3641,38.0363 269.4301,38.0693 269.4951,38.1023 L269.4951,38.4973 Z M268.8071,21.7823 C268.7351,21.3893 268.5771,21.0993 268.7111,20.5053 L269.0991,20.5053 C269.1981,20.6793 269.2301,20.6673 269.2991,20.8973 C269.4761,21.2053 269.1281,22.4663 268.9051,22.7663 L268.9051,22.9633 C268.3031,22.6183 268.8871,22.2213 268.8071,21.7823 L268.8071,21.7823 Z M268.7111,13.9173 L269.0991,13.9173 C269.2911,14.1773 269.4811,14.2473 269.5921,14.6073 C269.7221,14.7903 269.7271,15.3333 269.6891,15.3943 L269.6891,15.7853 C269.5921,15.8193 269.4951,15.8513 269.3971,15.8853 C269.1511,15.6543 268.8681,15.6253 268.7111,15.2963 C268.5571,15.0413 268.5931,14.2723 268.7111,13.9173 L268.7111,13.9173 Z M269.0031,9.1013 C269.1331,9.2013 269.2631,9.2983 269.3971,9.3963 L269.0991,9.6903 C269.0361,9.6253 268.9701,9.5583 268.9051,9.4953 C268.9381,9.2683 268.9521,9.2523 269.0031,9.1013 L269.0031,9.1013 Z M269.5921,13.6233 L269.4951,13.7223 L269.1981,13.7223 C269.1881,13.4403 269.1281,13.5793 269.1981,13.4283 L269.1981,13.2313 L269.4951,13.2313 C269.5281,13.4553 269.5421,13.4773 269.5921,13.6233 L269.5921,13.6233 Z M269.7881,18.2433 C269.7581,18.4723 269.7451,18.4883 269.6891,18.6393 C269.1981,18.5383 269.1061,18.2303 268.8071,17.9493 C268.7981,17.1343 269.0081,17.1373 269.3971,16.7703 C269.9301,17.1983 269.5831,17.8103 269.7881,18.2433 L269.7881,18.2433 Z M269.6891,5.4633 C269.8151,5.5283 269.8931,5.5713 269.9871,5.6593 C270.2761,6.0463 270.3911,7.1603 270.2781,7.3323 C270.2471,7.4303 270.2141,7.5273 270.1811,7.6273 C270.0851,7.6593 269.9871,7.6923 269.8891,7.7243 C269.7771,7.6083 269.6391,7.5143 269.4951,7.4303 C269.4301,6.9723 269.3641,6.5123 269.2991,6.0533 C269.4491,5.9033 269.5871,5.6523 269.6891,5.4633 L269.6891,5.4633 Z M270.4791,8.4133 L270.4791,8.6113 C270.3811,8.6423 270.2781,8.6763 270.1811,8.7063 C270.1491,8.6763 270.1181,8.6423 270.0851,8.6113 C270.1591,8.3833 270.1861,8.3903 270.2781,8.2163 L270.4791,8.4133 Z M267.2331,71.9223 C266.9151,72.0533 266.6501,72.1253 266.1511,72.1203 C266.1611,71.5133 266.2821,71.2993 266.3471,70.8403 C266.5191,70.7763 266.4451,70.8223 266.5471,70.7403 C266.8721,70.7433 267.1311,70.7693 267.3311,70.8403 C267.3371,71.2423 267.3281,71.6603 267.2331,71.9223 L267.2331,71.9223 Z M266.6431,21.4893 C266.8441,21.5273 266.8351,21.5133 266.9361,21.5873 C267.3311,21.9913 266.7321,23.6573 266.9361,24.1423 L266.9361,24.4373 L266.8381,24.4373 C266.5141,23.6413 266.6211,22.4273 266.6431,21.4893 L266.6431,21.4893 Z M266.7411,16.8683 L266.9361,16.8683 C267.0031,17.0373 266.9561,16.9653 267.0391,17.0643 C267.0051,17.4133 267.0301,17.3933 266.8381,17.5553 L266.8381,17.6553 L266.7411,17.6553 C266.6771,17.3403 266.6431,17.1583 266.7411,16.8683 L266.7411,16.8683 Z M267.2331,70.0533 C266.8691,70.0183 266.8691,69.9793 266.6431,69.8553 C266.6531,69.6093 266.6531,69.4933 266.7411,69.3633 C266.7511,68.8563 266.8381,68.7193 266.9361,68.3813 L267.1361,68.3813 C267.2801,68.8213 267.2941,69.4773 267.2331,70.0533 L267.2331,70.0533 Z M323.0731,3.6953 L322.9751,3.7933 C323.1611,4.1613 323.2211,4.8163 323.5651,5.2663 C323.4631,5.8373 323.1611,5.8053 322.8781,6.1533 C322.7101,6.1183 322.5481,6.0873 322.3851,6.0533 C322.3111,5.4383 322.4091,4.2213 322.5821,3.7933 L322.4831,3.6953 C321.7671,3.7453 321.2651,4.0113 320.7141,4.2853 C320.7791,4.4563 320.7341,4.3793 320.8111,4.4793 C320.8681,6.1403 320.8811,6.0023 319.9281,6.4483 C320.0411,6.7683 320.1381,6.8033 320.4181,6.9373 C320.3021,7.2453 320.2591,7.2483 319.9281,7.3323 C319.8921,7.7243 319.8601,8.1203 319.8281,8.5113 C319.9481,8.7133 320.3761,8.7783 320.3191,9.2013 C320.1991,10.1433 319.9101,11.3023 319.7311,12.0523 C319.5351,12.8663 319.7631,13.7603 319.7311,14.5073 C320.0091,14.3543 320.2781,13.4773 320.3191,13.1303 L320.6151,13.1303 L320.6151,12.8383 L320.9091,12.8383 L321.1091,13.0363 C321.0891,14.7623 320.4271,15.6813 320.3191,17.3593 C320.2871,17.3933 320.2541,17.4253 320.2211,17.4593 L319.6321,17.4593 C319.6001,19.7863 319.5671,22.1113 319.5351,24.4373 C319.5581,24.9993 319.9011,25.6633 319.7311,26.4033 C319.2991,28.2423 319.2841,30.7373 319.3361,32.4983 C319.3491,32.8563 319.5401,33.5603 319.4381,34.0733 C319.2421,35.0383 319.2841,37.9373 319.4381,38.8893 C319.3731,39.2483 319.3021,39.6103 319.2391,39.9703 C319.2511,40.0233 319.4271,40.3053 319.4381,40.4633 C319.4521,40.7083 319.2561,40.9853 319.3361,41.3453 C319.4271,41.7343 319.6931,42.7043 319.6321,43.1163 C319.5621,43.6033 319.3211,44.6133 319.3361,44.7873 C319.3681,45.0653 319.2051,46.0043 319.2391,46.0673 C319.3361,46.2423 319.6711,46.5183 319.8281,46.6553 C319.6551,47.7753 318.6401,49.9143 319.6321,51.0803 L319.2391,51.4753 C319.2181,52.1483 319.2991,52.3393 319.7311,52.5543 C319.6611,53.1313 319.3631,52.9853 319.2391,53.3413 C319.2701,53.5693 319.3021,53.8003 319.3361,54.0293 C319.2991,54.1983 319.0651,54.6963 319.0431,54.9153 C319.0021,55.3103 319.2841,55.1053 319.2391,55.5033 C319.0561,57.0993 319.4521,59.2813 319.1411,60.9103 C318.8381,62.5053 319.7341,63.8443 318.9451,64.9413 C318.7781,65.1263 318.2771,64.5463 318.1571,64.3523 C317.6461,63.4973 316.9711,62.2643 315.7981,62.0893 C315.8071,61.8413 315.8101,61.7263 315.8951,61.5983 C315.5941,60.8633 314.8181,60.4883 314.3211,59.9283 C314.1361,59.7143 314.1871,59.2763 313.9321,59.1413 C313.6011,58.9663 313.3801,59.1433 313.1421,58.9453 C313.0721,58.7963 313.0991,58.6813 313.3421,58.5533 C313.0491,57.8753 312.4281,57.2093 311.9631,56.6823 C311.5181,56.1763 311.2571,55.4983 310.8811,54.9153 C310.6501,54.5503 310.0701,54.2803 309.7991,53.9313 C308.9781,52.8503 308.2581,51.7853 307.4421,50.6853 C307.0791,50.3593 306.7221,50.0313 306.3591,49.7033 C303.9411,46.3173 301.2771,43.2903 298.8901,39.8733 C298.5601,39.5763 298.2351,39.2843 297.9071,38.9893 C296.2561,36.6023 294.4061,34.5133 292.7961,32.1043 C292.0421,30.9813 290.8311,30.0563 290.0421,28.9613 C288.6911,27.0803 287.3921,25.3103 286.0121,23.4553 C285.7481,23.2263 285.4881,22.9953 285.2231,22.7663 C285.0431,22.5153 285.1031,22.2693 284.9301,21.9793 C284.7881,21.7363 282.5671,19.3003 282.3731,19.2263 C282.1461,19.1853 282.1831,19.3353 281.7831,19.4243 C281.6841,18.7873 281.4491,17.6163 281.0941,17.1623 C280.8701,16.8733 280.2831,16.8143 280.1121,16.4763 C280.0801,16.2143 280.0471,15.9523 280.0141,15.6883 C279.5031,14.8513 278.2411,14.3703 277.7551,13.5253 C277.7211,13.3273 277.6881,13.1303 277.6561,12.9333 C277.4891,12.6683 276.9261,12.7103 276.7701,12.4443 C276.5941,12.1443 276.8491,12.0903 276.7701,11.8543 C276.3661,10.6473 275.1021,9.9743 273.8221,9.5943 C273.8491,9.0413 274.0071,8.9353 274.1181,8.5113 C273.8221,8.2263 273.7011,7.8453 273.3301,7.6273 C273.1721,7.4503 272.9581,7.8243 272.7411,7.9213 L272.5451,7.7243 C272.3501,7.5073 272.2251,7.1143 272.5451,6.9373 C272.4951,5.3873 270.9951,5.0933 270.2781,4.1873 C269.6951,4.1883 269.0581,4.1753 268.6081,4.0873 C268.5191,4.1773 268.4371,4.2203 268.3151,4.2853 C268.3531,4.4863 268.3391,4.4723 268.4131,4.5793 C268.4031,4.8603 268.3761,4.9993 268.3151,5.1693 C268.2511,5.2023 268.1841,5.2363 268.1211,5.2663 C268.0171,4.9883 268.0171,4.6603 268.1211,4.3823 L267.9221,4.3823 C267.2761,4.0693 266.5521,5.2363 266.1511,5.5643 C266.1061,6.5233 265.5771,7.9723 265.9581,8.6113 L265.9581,8.8063 C266.1841,8.7203 266.1221,8.7693 266.2491,8.6113 C266.4771,8.6423 266.4951,8.6553 266.6431,8.7063 C266.6691,9.1503 266.8351,9.5913 266.6431,9.8883 C266.4591,10.1873 266.4401,10.0433 266.1511,9.9873 C266.0411,10.3033 265.7171,11.4973 265.8551,11.9513 L266.3471,12.4443 C266.5881,12.9233 266.1981,14.0543 265.8551,14.3123 C265.9861,14.5253 266.0791,14.6113 266.1511,14.9013 C266.2391,15.1133 265.9381,15.6883 265.8551,16.0803 C265.7541,16.5893 265.9861,17.6703 266.0541,18.1463 C266.1421,18.7533 265.8171,19.1853 265.9581,19.8183 C266.0881,20.4353 266.4261,22.9863 265.8551,23.7503 C266.0131,23.9113 265.9651,25.8443 265.8551,26.5033 C265.7991,26.8563 265.6501,27.6383 265.7581,28.1743 C265.7781,28.2583 265.9111,28.5273 265.8551,28.7643 C265.5681,30.0683 265.7471,32.6143 265.8551,33.5833 C266.0271,35.1013 265.7901,36.6743 266.0541,37.7103 C266.0221,38.0693 265.9911,38.4303 265.9581,38.7913 C266.0361,39.0863 266.3611,39.9923 266.1511,40.5623 C266.0901,40.7273 265.8171,40.9173 265.7581,41.1523 C265.5891,41.8323 265.8081,42.8743 265.9581,43.6083 C266.0221,43.9353 265.7171,44.2853 265.7581,44.3943 C265.9241,44.5603 266.0881,44.7253 266.2491,44.8863 C266.2921,45.5213 266.3561,45.9223 265.8551,46.0673 C265.8601,46.5533 266.2781,46.7723 266.1511,47.0503 C266.0411,47.3353 266.0081,47.3143 265.7581,47.4423 C265.8231,48.0743 265.7541,48.1483 265.7581,48.8193 C266.0131,48.8373 266.0901,48.8633 266.2491,48.9163 C266.2591,49.1663 266.2641,49.2813 266.3471,49.4083 L266.3471,49.5053 C266.1221,49.5393 265.8871,49.5723 265.6591,49.6063 C265.9291,50.3903 265.5711,51.3683 265.7581,52.4563 C266.0001,53.8383 265.6781,56.6713 265.7581,58.2563 C265.9581,58.3223 266.1511,58.3863 266.3471,58.4523 C266.2731,59.2373 265.9811,58.9343 265.7581,59.3353 C265.4621,59.8713 265.7241,60.5803 265.6591,61.0103 C265.7241,61.0763 265.7901,61.1393 265.8551,61.2063 C265.9321,61.2613 266.1511,61.2793 266.4501,61.3033 C266.4831,61.3363 266.5141,61.3713 266.5471,61.4023 C266.4131,62.2653 265.7861,62.6833 265.6591,63.3703 C265.5531,63.9483 265.8551,64.5403 265.7581,65.2363 C265.5711,66.6133 265.6371,68.4853 265.7581,69.7583 C265.8231,70.4273 265.3541,71.8883 265.7581,72.5113 C265.7951,72.5513 266.0831,72.6223 266.2491,72.7093 C266.1611,73.0743 266.0541,73.0493 265.9581,73.3963 C266.1011,73.5333 266.2391,73.7153 266.3471,73.8883 C266.8721,73.9253 267.2291,73.9313 267.6291,73.9863 C267.4981,74.2983 267.5451,74.2503 267.1361,74.2813 L267.1361,74.4783 C269.1941,74.9723 269.5281,74.1403 270.5771,73.1013 L270.5771,72.8063 C270.3811,72.7733 270.1811,72.7433 269.9871,72.7093 C270.0611,72.1413 270.2231,72.3543 270.5771,72.1203 C270.7441,72.0403 270.2421,71.7973 270.0851,71.7243 C270.0751,71.4203 270.0301,71.3283 270.0851,71.2323 C270.1721,71.0703 270.4091,71.0703 270.6731,70.9373 C270.6601,70.3843 270.2851,69.9603 270.3811,69.5613 C270.4191,69.3893 270.7101,69.0323 270.7711,68.7773 C270.7371,68.1233 270.7081,67.4633 270.6731,66.8103 C270.7981,66.0753 270.9011,64.7223 270.8681,63.8593 C270.8091,62.0773 270.6371,59.9883 270.7711,58.6493 L270.7711,51.4753 C270.8681,50.8943 270.7861,49.2273 270.8681,48.3273 C270.8921,48.0923 270.6981,47.8833 270.7711,47.5393 C270.9061,46.9223 270.7251,45.6313 270.7711,45.0833 C270.9011,43.6223 270.8371,41.0643 270.7711,39.7733 C270.5941,36.1013 271.2121,32.5893 270.8681,29.0563 L270.8681,25.4213 C270.8371,25.0513 270.7951,25.0553 270.6731,24.8293 L270.4791,24.8293 C270.5121,24.8653 270.5441,24.8963 270.5771,24.9293 L270.5771,25.0263 C270.5441,24.9953 270.5121,24.9623 270.4791,24.9293 C270.3351,24.7223 270.4091,23.9333 270.4791,23.4553 L270.5771,23.4553 C270.6321,23.6033 270.6461,23.6203 270.6731,23.8483 L270.7711,23.8483 C270.8041,23.8153 270.8371,23.7833 270.8681,23.7503 C270.8741,20.0403 270.8831,15.6763 270.9711,12.5443 C271.4821,12.7103 273.6261,15.4953 273.8221,16.0803 C274.2391,15.9673 274.2121,15.7113 274.5081,15.4913 L274.6061,15.3943 L274.6061,15.4913 C274.9221,15.5773 274.7581,15.4383 274.9041,15.6883 C275.0381,15.9863 274.7041,16.3983 274.4121,16.5723 C274.9911,17.5413 275.8371,18.2693 276.4771,19.1293 C277.0571,19.9133 277.5081,20.7533 278.1481,21.4893 C278.4131,21.7933 279.3931,22.3303 279.5221,22.5713 C279.6671,22.8333 279.5691,23.0583 279.7181,23.2583 C279.8251,23.3333 279.8091,23.3213 280.0141,23.3553 C280.0521,23.1533 280.0371,23.1683 280.1121,23.0633 L280.1121,22.9633 C280.4511,23.0833 280.5341,23.2763 280.8001,23.4553 L280.8001,24.7343 C280.8861,24.9993 282.5401,27.1643 282.7681,27.2893 C283.0311,27.4343 283.2771,27.2733 283.4551,27.4853 C283.8451,27.9603 283.8301,28.4783 284.1411,29.0563 C284.2671,29.2933 284.6611,29.3603 284.8331,29.5503 C284.9301,29.8463 285.0271,30.1403 285.1251,30.4353 C285.4041,30.9133 286.0571,31.2893 286.4071,31.7143 C286.6391,32.0013 286.6771,32.3923 286.8931,32.6953 C287.2561,33.0583 287.6181,33.4183 287.9771,33.7773 C288.9971,35.1893 290.0051,36.5033 291.0271,37.9053 C291.4901,38.5433 292.2001,39.0723 292.6981,39.6763 C293.2551,40.3533 293.5611,41.2143 294.1691,41.8393 C294.5121,42.1903 294.8011,42.2423 294.9581,42.8233 C295.1661,42.6863 295.3051,42.5463 295.5471,42.4283 C295.6301,42.5733 295.7341,42.7943 295.8401,42.9173 C295.7531,43.2753 295.7801,43.2213 295.4501,43.3133 C296.3761,44.8453 297.6361,46.1783 298.6911,47.6403 C298.9281,47.9623 299.4291,48.1143 299.6751,48.4273 C299.9671,48.7943 299.9861,49.3323 300.2651,49.7033 C300.5901,50.1323 301.2401,50.4253 301.5471,50.8823 C301.6441,51.1453 301.7401,51.4083 301.8381,51.6723 C302.0801,51.9483 302.7061,51.9703 302.9211,52.2593 C303.0911,52.4883 302.8781,52.8423 303.0171,53.1463 C303.1461,53.2413 303.2821,53.3413 303.4131,53.4383 C304.0991,54.3903 304.7861,55.2583 305.5751,56.0943 C305.8911,56.4323 305.9651,56.9063 306.2611,57.2743 C307.3391,58.6003 308.4071,59.8603 309.4101,61.3033 C309.7071,61.7353 310.2281,62.0133 310.5891,62.3853 C311.1741,62.9903 311.5591,63.8773 312.0661,64.5463 C312.3581,64.8103 312.6561,65.0753 312.9481,65.3333 C313.0111,65.5643 313.0771,65.7923 313.1421,66.0233 C313.3421,66.3233 313.8111,66.4433 314.0301,66.7103 C314.4141,67.1903 314.5251,67.8163 314.9161,68.2853 C315.1121,68.5213 315.4981,68.6403 315.7011,68.8733 C315.9461,69.1573 315.9791,69.5373 316.1921,69.8553 C316.5781,70.4393 317.2691,70.8733 317.6691,71.4303 C317.9011,71.7563 317.9281,72.1913 318.2581,72.4123 C318.6301,72.6693 319.1031,72.5743 319.5351,72.8063 C319.7401,72.9173 319.7311,73.0933 320.0261,73.2023 C320.1061,73.6613 320.2921,73.8193 320.0261,74.0853 C320.1571,74.7483 320.7931,74.7033 321.2051,75.0683 L321.8951,75.0683 C321.7311,74.5213 321.3441,74.2893 321.1091,73.7893 C321.1741,73.7573 321.2381,73.7263 321.3031,73.6913 C321.4801,73.5933 321.5821,73.6303 321.6991,73.6913 C322.3901,73.9583 322.0221,74.3503 322.3851,74.8713 L322.3851,75.0683 C323.1041,74.7263 323.8941,74.6153 324.1541,73.7893 C324.4271,73.4233 324.5161,72.5603 324.2521,72.2173 L324.2521,72.0223 C323.4571,72.3983 323.1931,71.4333 322.5821,71.0353 L322.5821,70.8403 L322.6791,70.7403 C323.4671,70.8303 323.7091,71.3433 324.2521,71.6273 L324.2521,71.8253 L324.3531,71.8253 C324.3531,69.9983 324.3781,68.9983 324.0551,67.6953 C323.8581,66.8803 324.5251,66.6593 324.3531,65.8263 C324.2621,65.3943 324.3821,62.7093 324.4511,62.0893 C324.7211,59.5333 324.2381,56.8513 324.5471,54.8153 C324.6131,54.3773 324.4481,54.0223 324.4511,53.6363 C324.4651,52.4383 324.2841,51.0103 324.5471,49.8003 C324.6941,49.1383 324.4601,48.0793 324.5471,47.6403 C324.8281,46.2143 324.1591,44.7803 324.3531,43.6083 C324.3861,43.0843 324.4191,42.5583 324.4511,42.0343 C324.4371,41.9763 324.3011,41.7553 324.3531,41.5423 C324.4481,41.1383 324.6451,40.1683 324.6451,39.7733 C324.6451,39.3743 324.1681,38.7813 324.2521,38.4973 C324.3531,38.4303 324.4511,38.3643 324.5471,38.3003 C324.6561,38.0303 324.5301,37.7003 324.6451,37.5133 C324.5361,37.2393 324.4481,37.1223 324.1541,37.0233 C324.1861,36.2683 324.8221,34.7753 324.5471,34.2683 C324.5391,33.1773 323.9591,32.9463 323.8581,32.2033 C323.7781,31.6033 324.1231,31.0783 324.0551,30.4353 C323.9131,28.9503 324.0381,26.0663 324.2521,24.1423 C324.5901,21.1223 325.1191,16.1883 324.8411,13.7223 C324.7031,12.4713 325.0641,10.5403 324.9431,9.8883 C324.9761,9.4953 325.0081,9.1013 325.0411,8.7063 C325.0741,5.9413 325.3801,4.4583 323.0731,3.6953 L323.0731,3.6953 Z" id="Fill-17" fill="#939393"></path>
            <g id="Group-21" transform="translate(356.000000, 2.621200)">
                <mask id="mask-2" fill="white">
                    <use xlink:href="#path-1"></use>
                </mask>
                <g id="Clip-20"></g>
                <path d="M24.0955,1.3692 C24.1275,1.3362 24.1605,1.3042 24.1915,1.2702 C24.2715,1.3712 24.2305,1.2952 24.2895,1.4662 C24.2895,1.4662 23.9055,1.4452 24.0955,1.3692 L24.0955,1.3692 Z M22.8145,1.4662 C22.4555,1.4312 22.2655,1.3202 22.0295,1.4662 L20.4555,1.4662 L20.4555,1.3692 C20.6965,1.2362 20.5245,1.4152 20.6505,1.1722 C21.0125,1.1392 21.3735,1.1072 21.7325,1.0742 C21.7645,1.1722 21.8005,1.2702 21.8295,1.3692 C21.9265,1.3902 22.4645,1.1742 22.8145,1.1722 L22.8145,1.4662 Z M20.2615,1.2702 C19.9905,1.7092 17.5085,1.5562 17.3075,1.3692 C17.2745,1.3362 17.2435,1.3042 17.2105,1.2702 C17.3345,1.2042 17.4135,1.1622 17.5085,1.0742 C18.2065,1.0972 20.0275,1.2642 20.2615,1.1722 L20.3595,1.1722 L20.2615,1.2702 Z M16.7175,1.4662 C16.7515,1.3692 16.7825,1.2702 16.8215,1.1722 C16.8945,1.2782 16.8805,1.2622 16.9185,1.4662 L16.7175,1.4662 Z M6.1995,6.3822 C6.2115,6.1342 6.2115,6.0182 6.2995,5.8902 L6.3985,5.7922 C6.4575,5.9632 6.4855,6.1022 6.4955,6.3822 L6.1995,6.3822 Z M6.1995,23.3912 C6.1025,23.4222 6.0035,23.4552 5.9055,23.4892 L5.7055,23.2922 C5.6835,22.7512 5.5495,22.3882 5.8095,22.0132 L5.8095,21.8162 L6.1995,21.8162 C6.2275,22.5762 6.3065,22.8122 6.1995,23.3912 L6.1995,23.3912 Z M6.0035,24.3722 L5.8095,24.3722 C5.9245,24.0592 5.9025,24.3652 6.1025,24.0782 L6.1995,24.0782 C6.1325,24.1772 6.0695,24.2742 6.0035,24.3722 L6.0035,24.3722 Z M5.4135,12.1802 C5.1765,12.3112 5.3445,12.1382 5.2195,12.3782 C5.1455,12.2732 5.1545,12.2872 5.1205,12.0832 L5.4135,12.0832 L5.4135,12.1802 Z M5.3175,13.7542 C4.9645,13.7222 5.0615,13.8102 5.1205,13.4592 L5.3175,13.4592 L5.3175,13.7542 Z M4.5285,67.1372 L4.1365,67.1372 L4.0385,66.8422 C4.2055,66.6702 4.3745,66.4322 4.5285,66.2522 C4.7325,66.3742 4.7185,66.3172 4.8225,66.5502 C4.9535,66.6432 4.6375,66.9602 4.5285,67.1372 L4.5285,67.1372 Z M4.2355,19.9502 C4.2865,20.2172 4.3745,20.3202 4.2355,20.5392 L4.2355,20.7342 C3.9505,20.5832 3.9325,20.3832 3.9435,19.9502 L4.2355,19.9502 Z M2.9565,21.9162 C2.7075,21.9042 2.5925,21.9042 2.4655,21.8162 C2.3965,21.6982 2.4555,20.6902 2.4655,20.2452 L2.9565,20.2452 L3.0555,20.3422 C3.2025,20.7392 3.1725,21.0272 3.2515,21.5212 C3.1345,21.6332 3.0415,21.7692 2.9565,21.9162 L2.9565,21.9162 Z M2.9565,46.0002 C3.0515,46.0182 3.3115,45.9212 3.2515,46.1012 C3.0515,46.0212 3.1565,46.2372 2.9565,46.0002 L2.9565,46.0002 Z M3.1535,48.3612 C2.9455,48.4102 2.7955,48.4472 2.6615,48.5562 C2.3505,48.5012 2.3735,48.4712 2.1695,48.3612 C2.1995,48.1342 2.2155,48.1182 2.2675,47.9662 C2.4935,47.9452 2.5445,47.9482 2.6615,47.8692 C2.8565,47.9332 3.0555,48.0002 3.2515,48.0632 C3.2185,48.1642 3.1845,48.2612 3.1535,48.3612 L3.1535,48.3612 Z M2.7595,50.1302 C2.6985,50.2992 2.7395,50.2272 2.6615,50.3282 L2.6615,50.4252 L2.4655,50.4252 C2.4285,50.0022 2.3505,49.7902 2.4655,49.4402 C2.6945,49.5172 2.6835,49.5422 2.8565,49.6382 C2.7865,49.9202 2.7775,50.1092 2.7595,50.1302 L2.7595,50.1302 Z M2.5635,66.9402 L2.3685,66.9402 L2.2675,66.6482 C2.4795,66.7362 2.4095,66.7302 2.5635,66.8422 L2.5635,66.9402 Z M1.8765,41.6752 C1.8905,41.1412 1.9695,41.1712 2.1695,40.8882 C2.3395,40.9522 2.2675,40.9082 2.3685,40.9872 C2.4345,41.0612 2.4935,41.2072 2.5635,41.2822 C2.5035,41.5872 2.5445,41.5202 2.3685,41.6752 C2.2605,41.7622 2.2395,41.7232 1.9735,41.7732 L1.8765,41.6752 Z M2.1695,24.8642 C2.1695,24.2302 2.2105,23.6002 2.2675,23.0952 C2.3915,23.0302 2.4705,22.9882 2.5635,22.8972 C2.9295,22.9332 2.9295,22.9742 3.1535,23.0952 C3.2705,23.7082 3.1955,23.9542 3.1535,24.5692 C2.8095,24.7222 2.6645,24.8472 2.1695,24.8642 L2.1695,24.8642 Z M2.7595,28.1092 C2.7215,27.9072 2.7355,27.9182 2.6615,27.8142 L2.6615,27.7162 C2.8655,27.7542 2.8525,27.7402 2.9565,27.8142 C3.0325,27.9202 3.0175,27.9042 3.0555,28.1092 L2.7595,28.1092 Z M1.9735,27.2252 L1.9735,26.5372 C2.0905,26.4242 2.1815,26.2872 2.2675,26.1432 C2.5825,26.1992 2.5545,26.2282 2.7595,26.3402 C2.5585,26.6882 2.4555,26.9672 2.3685,27.2252 L1.9735,27.2252 Z M2.4655,29.7802 C2.6645,29.8202 2.6555,29.8032 2.7595,29.8772 C2.8225,29.9432 2.9475,30.2162 2.8565,30.3692 C2.7715,30.6852 2.9105,30.5232 2.6615,30.6642 C2.5585,30.7432 2.6375,30.7022 2.4655,30.7652 L2.3685,30.6642 C2.4015,30.2682 2.3685,30.1022 2.4655,29.7802 L2.4655,29.7802 Z M1.7795,5.9902 L2.1695,5.9902 L2.1695,6.0852 C2.5035,6.5012 2.5405,8.7332 2.1695,9.1332 L2.1695,9.3302 L1.9735,9.3302 C1.5135,8.3152 1.8025,6.7912 1.7795,5.9902 L1.7795,5.9902 Z M2.7595,18.0812 L3.0555,18.1792 C3.0655,18.4292 3.0655,18.5432 3.1535,18.6712 C3.0985,18.9822 3.0655,18.9562 2.9565,19.1612 C2.7325,19.1302 2.7125,19.1162 2.5635,19.0652 C2.5585,18.5692 2.6105,18.3582 2.7595,18.0812 L2.7595,18.0812 Z M4.6295,58.5852 L4.7275,58.6822 C4.7225,59.0832 4.7365,59.5022 4.8225,59.7642 L4.5285,59.9602 L4.4295,60.0592 C4.3635,59.9922 4.3005,59.9272 4.2355,59.8622 C4.3275,59.1932 4.3145,59.2532 4.3315,58.5852 L4.6295,58.5852 Z M4.8225,57.1112 C4.7865,57.3122 4.8015,57.2982 4.7275,57.4052 C4.6295,57.3782 4.6805,57.4352 4.6295,57.3072 C4.5365,57.1192 4.5875,57.2362 4.6295,57.0112 L4.8225,57.1112 Z M4.7275,54.8482 L4.8225,54.9492 C4.8155,55.1952 4.8105,55.3122 4.7275,55.4402 C4.6955,55.4732 4.6615,55.5062 4.6295,55.5372 C4.5645,55.3092 4.4945,55.0782 4.4295,54.8482 L4.7275,54.8482 Z M5.7055,30.6642 C5.5395,30.6012 5.6135,30.6462 5.5125,30.5672 C5.6835,30.6302 5.6085,30.5852 5.7055,30.6642 L5.7055,30.6642 Z M5.5125,29.6812 L5.8095,29.5822 C5.8835,29.8032 5.9105,30.1192 5.9055,30.4672 L5.6135,30.4672 C5.5705,30.2682 5.5855,30.2762 5.5125,30.1722 L5.5125,29.6812 Z M12.4935,37.9412 L12.7845,37.9412 C12.8195,37.9722 12.8505,38.0042 12.8885,38.0392 C12.7675,38.2622 12.6425,38.2482 12.4935,38.4312 L12.2925,38.4312 C12.3605,38.2012 12.4095,38.1252 12.4935,37.9412 L12.4935,37.9412 Z M16.7175,37.8422 C17.0065,37.8442 17.2555,37.8452 17.4085,37.7442 C17.7545,37.7322 18.1955,37.7112 18.3895,37.8422 L18.4905,37.9412 L18.3895,37.9412 L18.3895,38.2362 C18.0035,38.2992 17.7205,38.2182 17.4085,38.4312 L16.5235,38.4312 L16.4265,38.1342 L16.7175,37.8422 Z M22.2245,37.9412 L22.3245,37.9412 C22.2885,38.0042 22.2565,38.0722 22.2245,38.1342 C22.6095,38.0162 23.3745,37.7972 23.6995,37.5472 L23.8945,37.6432 L23.8945,37.5472 C24.3685,37.5632 24.4465,37.6012 24.5825,37.9412 L24.6855,37.9412 L24.6855,38.1342 C24.3495,38.1892 22.7015,38.1672 22.4225,38.3342 L22.2245,38.3342 L22.1275,38.0392 C22.1595,38.0042 22.1915,37.9722 22.2245,37.9412 L22.2245,37.9412 Z M25.8635,37.6432 C26.1375,37.4612 26.9505,37.7282 27.2385,37.4472 C27.4335,37.4882 27.5495,37.4582 27.9295,37.4472 C27.9565,37.4802 27.9945,37.5142 28.0265,37.5472 L28.0265,37.8422 C27.2765,37.9972 26.6055,38.0392 25.9615,38.1342 C25.9295,38.0722 25.8965,38.0042 25.8635,37.9412 C25.7605,37.8202 25.8415,37.8512 25.7655,37.6432 L25.8635,37.6432 Z M35.3025,38.0392 C35.3385,38.0392 36.8425,37.8882 37.0715,37.7442 C37.6425,37.7562 38.7825,37.8782 39.0385,37.7442 C39.6235,37.7322 40.0735,37.7572 40.4135,37.9412 L40.4135,38.3342 C39.9575,38.2002 39.5035,38.6912 39.0385,38.6292 C38.0825,38.4972 36.4115,38.4682 35.2045,38.4312 C35.2325,38.3012 35.2685,38.1682 35.3025,38.0392 L35.3025,38.0392 Z M17.4085,69.7902 C17.5395,69.8262 17.6695,69.8572 17.7995,69.8902 C17.7115,70.1022 17.7165,70.0342 17.6055,70.1852 C17.1735,70.0882 17.2715,70.1112 17.4085,69.7902 L17.4085,69.7902 Z M30.7805,72.7412 L30.8775,72.7412 L30.8775,72.5432 L30.7805,72.5432 L30.7805,72.7412 Z M31.1745,72.6442 C31.0015,72.5802 31.0775,72.6222 30.9745,72.5432 C31.1475,72.6082 31.0725,72.5632 31.1745,72.6442 L31.1745,72.6442 Z M53.7825,0.5822 C53.2165,0.3202 52.1955,0.7142 51.7165,0.5822 C51.2905,0.1502 49.6375,0.6122 48.8655,0.4822 C48.5225,0.4262 45.2555,0.3032 44.7395,0.3852 C44.0055,0.5022 43.2915,0.6402 42.4775,0.4822 C41.2885,0.2542 38.9125,0.7452 37.3665,0.5822 C36.3605,0.4762 34.1365,0.3742 32.9375,0.5822 C32.1135,0.7242 31.0505,0.3782 30.3845,0.4822 C30.0865,0.5302 28.9185,0.7512 28.4165,0.6792 C27.4235,0.5372 26.0635,0.7882 25.0735,0.6792 C23.4745,0.5022 20.9425,0.6122 19.4715,0.7792 C19.1405,0.8162 18.5385,0.6912 18.2915,0.6792 C17.2555,0.6382 16.3415,0.7012 15.6425,0.7792 C14.8975,0.8602 13.7985,0.6832 13.1805,0.7792 L11.4115,0.6792 C8.9195,0.8162 4.2055,0.3562 2.5635,1.4662 C1.6535,2.0812 1.1985,4.3842 1.4835,5.6932 C1.5105,5.8182 1.7095,6.2062 1.6775,6.3822 C1.5415,7.1532 1.0785,8.0892 1.2865,9.2332 C1.3575,9.6272 0.8175,10.3542 0.9905,11.1012 C1.2815,12.3642 1.0975,13.3232 0.9905,14.4432 C0.9705,14.6712 1.1485,14.7152 1.1895,14.8382 C1.0215,15.6352 0.9995,16.8942 0.9905,17.9812 C0.9845,18.3002 1.1095,18.9142 1.0875,19.0652 C0.9295,20.0932 1.2485,21.6612 0.9905,22.8002 C0.7715,23.7542 0.8685,25.4672 1.0875,26.7322 C1.2165,27.4632 0.6175,28.1872 0.6975,28.7962 C1.3615,33.9522 0.4835,39.9402 0.7955,44.9182 C0.8465,45.7512 0.3645,47.8952 1.0875,48.4592 L1.0875,48.6562 L0.6975,48.6562 L0.6975,49.6382 L1.1895,49.6382 C1.2545,49.7052 1.3195,49.7682 1.3845,49.8352 C1.3885,50.1212 1.3885,50.3712 1.2865,50.5252 L1.2865,50.7202 C0.9525,50.6842 1.0815,50.6992 0.6975,50.7202 L0.6975,51.4082 C0.9235,51.4742 1.1525,51.5392 1.3845,51.6042 C1.3615,51.8332 1.3655,51.8822 1.2865,51.9962 C1.1145,52.1302 1.1195,52.0052 0.9905,52.0952 C0.9235,52.1282 0.8605,52.1612 0.7955,52.1942 C0.7715,53.0172 1.0705,53.2212 1.6775,53.3742 C1.7565,53.8532 1.6965,54.6312 1.8765,54.9492 C1.9235,56.0002 1.4255,55.9772 0.6975,56.0282 C0.7575,56.1982 0.7155,56.1232 0.7955,56.2252 C0.9815,56.4952 1.1335,56.3612 1.4835,56.3242 C1.6075,56.5032 1.6775,56.4912 1.7795,56.7142 C1.8575,56.8162 1.8115,56.7412 1.8765,56.9122 C1.7295,57.0422 1.6615,57.0992 1.5795,57.3072 C1.2865,57.2742 0.9905,57.2392 0.6975,57.2062 C0.7435,57.6342 0.9155,57.5822 0.9905,57.7982 C1.1575,58.2692 0.7015,58.5922 0.7955,58.8812 C0.8175,58.9282 1.3335,58.4452 1.6775,58.3892 C1.7685,59.8042 1.7655,59.6542 0.6975,60.1582 C0.6935,60.8762 0.9155,63.0542 0.8935,63.1072 C0.6415,63.7052 0.6585,64.8312 0.6975,65.7602 C1.0085,65.8152 0.9815,65.8452 1.1895,65.9572 C1.1855,66.3472 1.1575,66.5502 1.0875,66.6482 C0.9815,66.8752 0.8965,66.9182 0.6975,67.0392 C0.7805,67.4352 0.9295,67.4462 1.1895,67.6292 C1.1395,68.0882 1.0185,68.1552 0.6975,68.3162 C0.7355,68.6162 0.9845,68.8152 0.8935,69.1032 C0.7805,69.4592 0.3675,70.1522 0.6975,70.7752 L0.8935,70.7752 C0.9935,71.0322 0.7845,71.3082 0.9905,71.6602 C1.1895,71.8572 1.3845,72.0542 1.5795,72.2502 C3.1065,72.9122 4.9685,73.2312 6.4955,72.3482 C6.9005,72.4552 6.8255,72.6252 7.0855,72.8402 C7.3265,73.0382 8.6915,72.7432 9.3455,72.8402 C10.1535,72.9602 11.8335,72.9372 12.9865,72.9372 C13.3115,72.9062 13.6405,72.8722 13.9645,72.8402 C15.6045,73.0292 17.6515,72.8302 19.2755,72.8402 C20.6505,72.8472 21.7595,73.0332 23.6995,73.0362 C24.1275,73.0682 24.5495,73.1032 24.9765,73.1332 C26.0685,72.9222 28.9075,73.0452 30.5805,73.2342 L30.5805,72.9372 C32.0565,73.5492 34.2625,72.5942 35.3025,72.3482 C35.3335,72.4132 35.3655,72.4782 35.3995,72.5432 C35.4735,72.6362 35.4835,72.7832 35.4965,73.1332 C36.1225,73.0632 36.4025,72.5562 36.6755,72.1522 C37.5725,72.2972 37.8275,72.3462 38.8395,72.4472 C38.6815,72.8172 38.5775,72.9452 38.2495,73.1332 C38.8065,73.5352 40.2225,73.0152 40.9055,73.1332 C42.6505,73.4392 45.0915,73.4072 46.7025,73.0362 C47.3495,72.8902 47.9805,73.4372 48.5695,73.3302 C49.2985,73.2042 49.8455,73.0072 50.6355,72.9372 L50.6355,73.2342 C51.5735,73.2962 52.9805,73.2582 53.5885,72.8402 C54.5455,72.2052 54.8085,71.2462 54.4695,69.8902 L54.5675,69.4982 C54.4085,69.1892 53.1325,68.2902 52.7985,68.1192 L50.1435,68.1192 C47.7835,68.6932 45.4865,67.9032 42.6735,68.3162 C41.6525,68.4682 39.3865,68.4142 37.4645,68.4142 L35.1015,68.4142 C34.6145,68.5232 33.1245,68.8242 32.3545,68.8092 C32.0925,68.8042 31.9045,68.5892 31.4665,68.7112 C31.4215,68.7252 31.2725,68.9272 31.1745,68.9092 C30.7715,68.8272 29.6105,68.5962 29.4005,68.6112 C28.9005,68.6512 26.2435,68.9422 25.8635,68.8092 C25.6045,68.7172 25.3245,68.3802 24.9765,68.3162 C24.6145,68.2522 24.0955,68.5482 23.8945,68.6112 C23.3245,68.8022 21.4775,68.3862 20.8515,68.2192 C19.9545,67.9822 18.6265,68.4442 17.9025,68.3162 C16.9825,68.1552 16.2165,68.0202 15.3445,67.9242 C14.4625,67.8292 12.9205,68.1192 12.3965,68.0252 C11.6165,67.8782 10.9475,68.3022 10.3295,67.9242 C8.5425,67.9772 8.0595,66.9492 7.7725,65.5632 C7.3215,65.4752 6.8535,65.2932 6.4955,65.3692 C6.6865,64.4292 6.1325,62.7822 5.9055,61.8282 L5.8095,59.6642 C5.7855,59.4172 5.6315,59.1442 5.7055,58.7812 C5.9025,57.8752 6.0125,56.7742 6.1995,55.9322 L6.1995,53.6702 C6.2175,53.6012 6.4115,53.0582 6.3985,52.9812 C6.2495,52.0802 6.0265,50.0332 6.1995,48.9512 C6.3695,47.9062 6.0725,46.3652 6.1995,45.5082 L6.3985,45.2132 C6.3785,43.9322 6.0315,40.1162 6.4955,39.4132 L6.4955,39.2182 C7.8645,38.9512 10.1125,39.0282 11.0165,39.2182 C11.6485,39.3512 12.7025,39.2232 13.1805,39.1182 C13.4175,39.0692 15.7305,39.0712 16.0305,39.1182 C17.1265,39.2902 20.5745,39.3312 22.2245,39.0212 C22.9815,39.0532 23.7325,39.0862 24.4845,39.1182 C24.7395,39.1202 25.2795,39.0022 25.3715,39.0212 C25.5685,39.0572 26.1235,39.3552 26.3555,39.3152 C27.1545,39.1812 28.6905,38.9162 29.2055,39.0212 C29.2475,39.0302 29.7525,39.2092 29.7955,39.2182 C30.2875,39.3292 30.8165,39.0392 31.1745,39.1182 C31.2385,39.1852 31.3055,39.2482 31.3695,39.3152 C31.7865,38.7432 32.8185,39.3042 33.4305,39.2182 C34.2995,39.0952 36.1105,39.1372 37.3665,39.3152 C37.6785,39.3602 38.3695,39.1112 38.6435,39.1182 C39.0705,39.1852 39.4925,39.2482 39.9215,39.3152 C40.6785,39.1992 41.7125,38.8892 42.7705,39.1182 C43.4065,39.2582 44.5955,38.8372 45.3295,39.0212 C45.4125,39.0422 45.7135,39.2802 45.8205,39.3152 C46.2765,39.2162 47.2925,39.4332 47.6865,39.3152 C48.1285,39.1842 48.4065,38.9302 48.8655,38.9212 C49.1175,38.2552 49.5995,37.9322 49.6505,37.1522 C49.7525,37.0522 49.9765,37.0842 50.0465,36.9552 C50.2595,36.5742 49.9715,36.0222 50.0465,35.6792 C49.6595,35.4442 49.5635,35.3912 49.5525,34.9912 C49.0845,34.8682 48.7085,34.4762 48.2765,34.4022 C47.3945,34.2442 45.8305,34.4802 45.2265,34.1052 C45.0275,34.1882 45.0325,34.2042 45.0325,34.2042 L45.0325,34.3022 C44.6595,34.1862 43.9315,34.3032 43.7555,34.4022 C43.4065,34.3712 42.9625,34.0562 42.6735,34.0062 C42.2915,33.9452 40.8635,34.5162 40.2175,34.5972 C39.3415,34.7072 38.1805,34.2552 37.6605,34.2042 C36.8855,34.1272 35.5845,34.7782 35.2045,34.5972 C34.8525,34.5552 34.9435,34.6502 34.9065,34.4022 C32.3355,33.9352 28.2815,34.4922 25.2745,34.3022 C25.0515,34.4232 24.6045,34.6432 24.2895,34.6962 C23.8295,34.7702 23.4775,34.3462 23.1115,34.3022 C22.6505,34.2472 22.0755,34.6642 21.5375,34.4982 C21.2675,34.4162 20.3705,34.1762 19.9635,34.1052 C19.8155,34.0792 19.9175,34.2892 19.6715,34.3022 C19.0155,34.3342 18.0285,34.2182 17.6055,34.1052 C17.3315,34.0322 15.1205,34.3412 14.8525,34.4022 C14.4205,34.4972 14.0495,34.2652 13.7705,34.2042 C13.5515,34.1552 11.6305,34.2002 11.3145,34.2042 C11.1905,34.2042 11.1385,34.3852 10.9195,34.3022 L10.9195,34.1052 C10.5715,33.9462 9.8195,34.2552 9.5455,34.2042 C8.3345,33.9842 7.5445,34.7262 6.7915,34.2042 C6.1995,33.7212 6.4905,32.8642 6.4955,31.9432 C6.5005,30.5582 6.6765,27.4662 6.3985,26.9292 L6.3985,26.8302 C6.1205,27.2122 6.0775,27.9532 6.1025,28.6992 C6.0695,28.7312 6.0355,28.7632 6.0035,28.7962 C5.7755,28.7662 5.7585,28.7512 5.6135,28.6992 C5.5805,27.7582 5.4055,26.7462 5.6135,26.3402 C5.6835,26.1132 5.7105,26.1202 5.8095,25.9452 C6.2065,25.9922 6.2905,26.1212 6.4955,26.0432 C6.6075,25.9112 6.4035,25.0152 6.4955,24.5692 C6.6305,23.9332 6.5975,23.0622 6.5935,22.0132 C6.5935,21.8112 6.4855,21.3722 6.4955,21.3262 C6.6495,20.6452 6.6725,18.9262 6.4955,18.0812 C6.3645,17.4432 6.8575,16.9012 6.6925,16.5082 C6.6495,16.4102 6.3375,16.3782 6.2995,16.3102 C5.8925,15.6142 6.9165,15.2822 6.6925,14.4432 C6.4395,13.4942 6.7885,11.2362 6.9875,10.0192 C7.0625,9.5512 6.7695,8.9212 6.8895,8.4462 C6.9475,8.2122 7.3545,7.8842 7.1825,7.4622 L6.8895,7.2672 C7.1235,6.8192 6.9845,6.3402 7.0855,6.1852 C7.3635,5.7232 8.3015,5.9702 8.8525,5.7922 C9.4235,5.6102 9.6985,5.8162 10.5265,5.7922 C11.6125,5.7622 13.0135,5.7422 14.2625,5.4982 C14.5355,5.4452 15.3715,5.3752 15.7385,5.4982 C15.8505,5.5352 15.7695,5.7352 16.0305,5.6932 C16.6205,5.6032 17.3225,5.1802 18.1955,5.4012 C18.6405,5.5122 19.2205,5.8422 19.8665,5.6932 C20.8355,5.4752 22.5905,5.3292 23.6015,5.4982 C24.1975,5.5952 24.4975,5.1922 25.0735,5.4012 C25.1255,5.4172 25.3765,5.6842 25.4695,5.6932 C25.6835,5.7162 25.9655,5.4462 26.1565,5.4012 C26.8525,5.2202 27.4095,5.6212 27.9295,5.6932 C28.5705,5.7862 28.7555,5.3302 29.3025,5.4982 C30.8925,5.9812 33.3935,4.5472 34.1165,5.5952 L35.7945,5.5952 C35.9555,5.4312 36.1175,5.2682 36.2805,5.1032 C36.4815,5.1352 36.6755,5.1702 36.8745,5.2032 C37.8505,4.9862 39.4335,5.0692 40.2175,5.2032 L42.2805,5.2032 C42.8185,5.3412 43.1705,5.6512 43.6565,5.5952 C44.3635,5.5142 45.1425,5.5382 46.4095,5.3002 L48.0815,5.4012 C48.4945,5.3032 49.1915,5.4012 49.8505,5.4012 C51.2845,5.3982 52.5295,5.4262 53.8805,5.2032 C53.8485,5.1702 53.8165,5.1352 53.7825,5.1032 C53.4215,4.7062 52.1115,4.8652 51.4245,4.8092 L51.4245,4.6112 C52.0285,4.3532 53.8705,4.1702 54.2755,4.4162 C54.8645,4.3722 54.8135,4.1672 55.1625,3.9242 C55.1905,3.2762 55.3005,2.7892 55.3575,2.3512 C54.7855,1.7802 54.5755,0.9462 53.7825,0.5822 L53.7825,0.5822 Z" id="Fill-19" fill="#939393" mask="url(#mask-2)"></path>
            </g>
            <path d="M270.7712,24.1423 L270.8682,24.1423 C270.8092,23.9733 270.8502,24.0473 270.7712,23.9473 L270.7712,24.1423 Z" id="Fill-22" fill="#061B2B"></path>
            <g id="Group-26" transform="translate(0.000000, 0.621200)" fill="#939393">
                <path d="M39.8991,62.8189 C40.7441,63.0699 39.0771,63.3389 39.8991,62.8189 C36.8851,64.7299 31.5381,64.7919 32.5171,70.1309 C33.2141,73.9069 33.9941,77.4479 38.7241,77.7709 C42.5161,78.9779 47.2561,75.2099 47.7021,71.1889 C48.2781,66.0219 43.7251,63.9589 39.8991,62.8189 M18.3801,54.1269 C18.8861,54.3029 16.6181,54.9289 17.8651,54.0819 C14.2091,56.5749 10.1501,54.9509 10.2491,61.2019 C10.3131,65.3719 12.5381,71.4819 18.2001,69.6079 C20.9391,68.6939 27.1601,65.1169 25.7641,60.4519 C24.7891,57.1949 21.9011,54.3279 18.3801,54.1269 M17.8651,54.0819 C18.0421,54.0819 18.2101,54.1149 18.3801,54.1269 C18.2971,54.0999 18.1401,54.0779 17.8651,54.0819 M61.1971,53.2209 C60.2141,53.2879 58.7291,53.3129 59.0481,53.1029 C54.3831,56.2009 52.8881,57.2529 53.0641,63.4289 C53.1391,66.1439 56.5411,66.9429 58.3011,67.8349 C68.8591,68.1119 71.0441,54.6389 61.1971,53.2209 M59.0481,53.1029 C59.8201,53.0819 60.5341,53.1209 61.1971,53.2209 C62.3281,53.1389 62.7911,52.9999 59.0481,53.1029 M14.8671,45.6779 C14.7651,45.6779 15.0801,44.5959 14.8671,45.6779 C15.8591,40.5889 16.2881,35.5059 10.0581,33.7829 C6.7011,32.8599 1.5241,35.1279 0.4201,38.6049 C-0.9139,42.8849 1.0591,46.3449 4.4991,48.0819 C5.6601,49.2679 8.3041,48.8889 9.8391,48.9549 C12.6721,49.0789 13.1211,45.6779 14.8671,45.6779 M67.7111,30.9449 C68.4541,30.9449 67.1721,31.2879 67.7111,30.9449 C63.9001,33.3589 62.4551,34.1269 61.2911,39.1029 C59.9021,45.1039 68.3151,47.1309 72.2991,45.6929 C81.7411,42.2839 76.2951,30.9449 67.7111,30.9449 M12.2991,24.6139 C12.2991,29.5559 22.3451,24.9329 23.6411,22.4299 C25.1231,19.6519 23.5851,12.1779 20.1081,11.4879 C16.4401,10.7619 6.4931,12.1989 9.0911,19.1559 C9.6351,20.6059 10.0251,24.6139 12.2991,24.6139 M57.0151,24.0669 C61.8021,25.2389 68.2451,20.7079 66.9551,15.0079 C65.9841,10.6549 64.2111,10.3509 60.3311,9.1159 C61.0601,9.3499 59.7961,9.4549 60.3311,9.1159 C57.8971,10.6659 49.4811,12.0539 51.7701,17.9559 C53.7211,19.9069 52.8181,23.0619 57.0151,24.0669 M36.2131,0.3949 C36.5531,0.4419 35.4191,0.5899 35.7291,0.3809 C27.8521,5.6649 29.0401,13.9469 38.3721,15.2849 C47.3081,16.5699 46.7701,0.6529 36.2131,0.3949 M35.7291,0.3809 C35.8971,0.3799 36.0511,0.3909 36.2131,0.3949 C36.1331,0.3849 36.0031,0.3739 35.7291,0.3809" id="Fill-24"></path>
            </g>
        </g>
    </g>
</svg>