<?xml version="1.0" encoding="UTF-8"?>
<svg width="250px" height="28px" viewBox="0 0 250 28" version="1.1" xmlns="http://www.w3.org/2000/svg" xmlns:xlink="http://www.w3.org/1999/xlink">
    <!-- Generator: Sketch 43 (38999) - http://www.bohemiancoding.com/sketch -->
    <title>Page 1</title>
    <desc>Created with Sketch.</desc>
    <defs>
        <polygon id="path-1" points="0 27.0428366 249.991046 27.0428366 249.991046 0.0359971202 0 0.0359971202"></polygon>
    </defs>
    <g id="Page-1" stroke="none" stroke-width="1" fill="none" fill-rule="evenodd">
        <g>
            <polygon id="Fill-1" fill="#939393" points="38.4719222 0.445455364 43.8489921 0.445455364 43.8489921 21.6342603 53.824694 21.6342603 53.824694 26.6063625 38.4719222 26.6063625"></polygon>
            <g id="Group-21" transform="translate(0.000000, 0.008999)">
                <path d="M72.2822129,26.6018853 L67.3101107,26.6018853 L67.3101107,24.3295671 L67.2516154,24.3295671 C67.080629,24.6445419 66.8196499,24.9640164 66.531673,25.305944 C66.243696,25.6209188 65.8972237,25.9089408 65.4697579,26.1698749 C65.06929,26.430854 64.5788292,26.6288832 64.0613706,26.8043692 C63.543912,26.9753555 62.9679581,27.0338508 62.3380085,27.0338508 C61.0151143,27.0338508 59.9531992,26.831367 59.1477637,26.430854 C58.3423281,26.0304311 57.7123785,25.481475 57.2489156,24.7615326 C56.7899523,24.0415902 56.5019753,23.2091568 56.3579869,22.2326899 C56.2139984,21.256268 56.1285052,20.2213508 56.1285052,19.1009854 L56.1285052,9.84072624 L61.3030913,9.84072624 L61.3030913,18.0615236 C61.3030913,18.5520293 61.3300891,19.0379455 61.3615866,19.5554041 C61.3885844,20.0728627 61.5055751,20.5633684 61.6765614,20.9908342 C61.8475477,21.4227547 62.1085268,21.7962248 62.4819969,22.0527043 C62.8284692,22.3407262 63.3459278,22.4532172 64.0073749,22.4532172 C64.668822,22.4532172 65.2132784,22.3361816 65.618246,22.0797471 C66.018714,21.8502205 66.3381884,21.5037482 66.5676701,21.1033252 C66.7971517,20.7028123 66.9411402,20.2393943 66.9996355,19.7534332 C67.0581308,19.2359746 67.1166262,18.718516 67.1166262,18.1740146 L67.1166262,9.84072624 L72.2912122,9.84072624 L72.2912122,26.6018853 L72.2822129,26.6018853 Z" id="Fill-2" fill="#939393"></path>
                <path d="M86.7170716,15.2447759 C86.4560925,14.8713058 86.1141199,14.5833288 85.6551566,14.3268494 C85.1961933,14.0973677 84.7057325,13.9533792 84.1612761,13.9533792 C82.8383819,13.9533792 81.8304626,14.3538472 81.1150198,15.1322849 C80.3950774,15.9107226 80.0216073,16.9456398 80.0216073,18.2100387 C80.0216073,19.4744375 80.3950774,20.5093548 81.1150198,21.2877925 C81.8349622,22.0662302 82.8698794,22.4666982 84.1612761,22.4666982 C84.73723,22.4666982 85.2231911,22.3497075 85.6551566,22.093228 C86.0556246,21.8322489 86.4335943,21.5487716 86.7170716,21.2022993 L90.1367981,24.7975117 C89.3313625,25.6299451 88.3819384,26.205899 87.2885259,26.5523713 C86.1951134,26.8988436 85.1601962,27.0428321 84.1567765,27.0428321 C82.8608801,27.0428321 81.6549766,26.8403483 80.5030688,26.4084278 C79.3511609,26.0079149 78.374739,25.4004635 77.5423056,24.6265254 C76.7098722,23.8525873 76.0484251,22.9301611 75.5579644,21.8367486 C75.0675036,20.743336 74.838022,19.5374325 74.838022,18.2145383 C74.838022,16.8916892 75.0675036,15.6857406 75.5579644,14.5923281 C76.0484251,13.4989156 76.7098722,12.580989 77.5423056,11.8025513 C78.374739,11.0241136 79.3826584,10.4526593 80.5030688,10.0206938 C81.6549766,9.62022588 82.8608801,9.3862446 84.1567765,9.3862446 C85.1331983,9.3862446 86.199613,9.55723092 87.2885259,9.87670536 C88.3819384,10.2231776 89.3313625,10.7946319 90.1367981,11.631565 L86.7170716,15.2447759 Z" id="Fill-4" fill="#939393"></path>
                <mask id="mask-2" fill="white">
                    <use xlink:href="#path-1"></use>
                </mask>
                <g id="Clip-7"></g>
                <path d="M92.9265659,26.6018719 L98.1011519,26.6018719 L98.1011519,9.84071274 L92.9265659,9.84071274 L92.9265659,26.6018719 Z M92.5260979,3.37023038 C92.5260979,2.53779698 92.8140749,1.84485241 93.4170266,1.24190065 C93.9929806,0.665946724 94.712923,0.350971922 95.5453564,0.350971922 C96.3777898,0.350971922 97.0707343,0.638948884 97.6736861,1.24190065 C98.24964,1.81785457 98.5646148,2.53779698 98.5646148,3.37023038 C98.5646148,4.20266379 98.2766829,4.89560835 97.6736861,5.49856012 C97.0977322,6.07451404 96.3777898,6.38948884 95.5453564,6.38948884 C94.712923,6.38948884 94.0199784,6.10151188 93.4170266,5.49856012 C92.8140749,4.92260619 92.5260979,4.20716343 92.5260979,3.37023038 L92.5260979,3.37023038 Z" id="Fill-6" fill="#939393" mask="url(#mask-2)"></path>
                <path d="M113.8004,18.2055301 C113.8004,16.9411312 113.42693,15.906214 112.706988,15.1278213 C111.987046,14.3493386 110.952128,13.9488706 109.660732,13.9488706 C108.337837,13.9488706 107.329918,14.3493386 106.614475,15.1278213 C105.894533,15.906214 105.521063,16.9411312 105.521063,18.2055301 C105.521063,19.4699739 105.894533,20.5048911 106.614475,21.2832838 C107.334418,22.0617216 108.369335,22.4622345 109.660732,22.4622345 C110.983626,22.4622345 111.991545,22.0617216 112.706988,21.2832838 C113.458428,20.5093458 113.8004,19.4699739 113.8004,18.2055301 L113.8004,18.2055301 Z M119.150472,26.6019033 L114.376354,26.6019033 L114.376354,24.3880355 L114.317859,24.3880355 C114.115375,24.6760124 113.827398,24.9909872 113.512424,25.305962 C113.165951,25.6209368 112.792481,25.9089138 112.333518,26.1383954 C111.874555,26.3994195 111.384094,26.5973587 110.839637,26.7728447 C110.295181,26.943831 109.746225,27.0023263 109.170271,27.0023263 C107.93287,27.0023263 106.81246,26.7998425 105.777542,26.3678771 C104.769623,25.9359116 103.910192,25.3329599 103.163251,24.5860196 C102.443309,23.8075819 101.867355,22.8897003 101.493885,21.8547831 C101.093417,20.7928231 100.917931,19.6409152 100.917931,18.3765164 C100.917931,17.1976557 101.088917,16.0772003 101.462388,15.0107856 C101.80886,13.9488706 102.326318,12.9994465 102.987765,12.1625135 C103.649213,11.3300801 104.454648,10.668633 105.372575,10.1781722 C106.321999,9.68771148 107.383914,9.431232 108.594317,9.431232 C109.687729,9.431232 110.691149,9.60221832 111.613575,9.92169276 C112.531502,10.268165 113.30994,10.8126215 113.912891,11.6180571 L113.971387,11.6180571 L113.971387,0.409453744 L119.145973,0.409453744 L119.145973,26.6019033 L119.150472,26.6019033 Z" id="Fill-8" fill="#939393" mask="url(#mask-2)"></path>
                <path d="M124.640029,22.3451989 C125.157487,23.006646 125.760439,23.5511024 126.394888,23.9246175 C127.029338,24.3250405 127.830274,24.5005265 128.779698,24.5005265 C129.180166,24.5005265 129.612131,24.4420761 130.044096,24.356538 C130.476062,24.2710448 130.849532,24.1271013 131.196004,23.8975747 C131.542477,23.6950909 131.830499,23.4386114 132.028438,23.119137 C132.230922,22.8041622 132.343413,22.430692 132.343413,21.9987266 C132.343413,21.5667612 132.257964,21.193291 132.055481,20.9368116 C131.852997,20.6488346 131.596517,20.419353 131.276998,20.2168692 C130.962023,20.0143853 130.588553,19.8703969 130.183585,19.7579059 C129.783162,19.6409152 129.351152,19.5284242 128.919186,19.4429311 C128.172246,19.2719447 127.425306,19.0964588 126.732361,18.8984746 C126.043916,18.6959908 125.436465,18.4080139 124.919006,18.0930391 C124.401548,17.7465668 124.00108,17.3146013 123.681605,16.7971427 C123.366631,16.2796841 123.222642,15.5912392 123.222642,14.7543062 C123.222642,13.9758684 123.393629,13.2874235 123.740101,12.6844717 C124.086573,12.08152 124.545536,11.5910592 125.12149,11.1905913 C125.697444,10.7901233 126.327394,10.5021463 127.047336,10.2996625 C127.767279,10.0971787 128.482721,9.98468772 129.261159,9.98468772 C130.413067,9.98468772 131.474982,10.2141694 132.451404,10.6731326 C133.427826,11.1320959 134.206263,11.8790362 134.75072,12.9139534 L132.509899,14.4078789 C132.163427,13.8318799 131.704464,13.3729167 131.160007,12.9994465 C130.584053,12.6529743 129.922606,12.4549901 129.117171,12.4549901 C128.743701,12.4549901 128.37023,12.5134854 127.99676,12.5989786 C127.623335,12.6844717 127.276818,12.8284602 126.988841,12.9994465 C126.700909,13.1704329 126.444384,13.431412 126.241901,13.7193889 C126.039417,14.0073659 125.953924,14.3223407 125.953924,14.6958108 C125.953924,15.0422831 126.070959,15.3303051 126.268898,15.5867396 C126.498425,15.8162212 126.786357,16.0457028 127.159827,16.2211888 C127.533342,16.3921751 127.965263,16.5677061 128.482721,16.7116496 C128.973182,16.855638 129.490641,16.9726737 130.008099,17.0581219 C130.728042,17.2021103 131.389489,17.3730967 132.050936,17.6026233 C132.685385,17.8320599 133.256839,18.1200819 133.7473,18.493507 C134.237761,18.8669771 134.611231,19.3259404 134.899208,19.8749415 C135.187185,20.419353 135.299676,21.1123425 135.299676,21.9177331 C135.299676,22.8356596 135.12869,23.6140974 134.75522,24.2755445 C134.381749,24.9099937 133.891289,25.4544951 133.288292,25.8549181 C132.685385,26.2553861 131.992396,26.543363 131.218458,26.7458468 C130.44002,26.9168781 129.666082,27.0338238 128.860691,27.0338238 C127.479302,27.0338238 126.300396,26.83134 125.296976,26.3994195 C124.289057,25.9674091 123.398128,25.193471 122.592693,24.0415632 L124.640029,22.3451989 Z" id="Fill-9" fill="#939393" mask="url(#mask-2)"></path>
                <path d="M140.109782,18.5250315 C140.109782,19.3889174 140.253771,20.1628555 140.51025,20.8827979 C140.766775,21.6027403 141.171742,22.2326899 141.662158,22.781691 C142.179617,23.3261024 142.782568,23.7581129 143.475513,24.0460448 C144.164003,24.3610196 144.969393,24.5050081 145.833324,24.5050081 C146.697255,24.5050081 147.502691,24.3610196 148.191181,24.0460448 C148.879536,23.73107 149.487032,23.2991496 150.004491,22.781691 C150.521949,22.2372345 150.895419,21.6027403 151.156398,20.8827979 C151.417378,20.1628555 151.556866,19.3574649 151.556866,18.5250315 C151.556866,17.6611006 151.412878,16.8871625 151.156398,16.1672201 C150.895419,15.4472777 150.494951,14.8173281 150.004491,14.268327 C149.487032,13.7239156 148.88408,13.2919501 148.191181,13.0039732 C147.502691,12.6889984 146.697255,12.5450099 145.833324,12.5450099 C144.969393,12.5450099 144.164003,12.6889984 143.475513,13.0039732 C142.787068,13.318948 142.179617,13.7508684 141.662158,14.268327 C141.144699,14.8128285 140.771229,15.4472777 140.51025,16.1672201 C140.253771,16.8826629 140.109782,17.6611006 140.109782,18.5250315 M137.203015,18.5250315 C137.203015,17.2605877 137.432496,16.1087248 137.864507,15.0738076 C138.296427,14.0388904 138.899424,13.1479617 139.646319,12.4009764 C140.39326,11.6540812 141.315686,11.0781272 142.377601,10.6461168 C143.439516,10.2456938 144.591469,10.0117126 145.82887,10.0117126 C147.066271,10.0117126 148.213679,10.2141964 149.280049,10.6461168 C150.341964,11.0466298 151.237392,11.6540812 152.01133,12.4009764 C152.758315,13.1479617 153.361222,14.0388904 153.793233,15.0738076 C154.225153,16.1087248 154.454635,17.2605877 154.454635,18.5250315 C154.454635,19.7894303 154.225153,20.9412932 153.793233,21.9762104 C153.361222,23.0111276 152.758315,23.9021013 152.01133,24.6490416 C151.264345,25.3959368 150.341919,25.9719357 149.280049,26.4039012 C148.218134,26.8043692 147.066271,27.0383054 145.82887,27.0383054 C144.591469,27.0383054 143.44406,26.8358216 142.377601,26.4039012 C141.315686,26.0033882 140.420257,25.3959368 139.646319,24.6490416 C138.899424,23.9021013 138.296427,23.0111276 137.864507,21.9762104 C137.432496,20.9412932 137.203015,19.7894303 137.203015,18.5250315" id="Fill-10" fill="#939393" mask="url(#mask-2)"></path>
                <path d="M159.458234,12.7159692 L155.948515,12.7159692 L155.948515,10.443651 L159.458234,10.443651 L159.458234,6.82144078 C159.458234,5.8450189 159.543728,4.92259269 159.746211,4.11715713 C159.917198,3.31172156 160.236672,2.59177916 160.695635,1.98882739 C161.154599,1.38587563 161.730553,0.926912347 162.477538,0.580440065 C163.224433,0.233967783 164.115362,0.0899793017 165.208774,0.0899793017 C165.555247,0.0899793017 165.928717,0.116977142 166.302232,0.206969942 C166.702655,0.265465263 167.022174,0.377956263 167.278609,0.521944744 L166.905139,2.93825144 C166.270689,2.7087698 165.64074,2.59177916 165.064831,2.59177916 C164.376341,2.59177916 163.82743,2.7087698 163.453915,2.96524928 C163.053447,3.19473092 162.76547,3.5412032 162.562986,3.97316865 C162.360502,4.40513409 162.248011,4.92259269 162.216514,5.49854662 C162.189516,6.10149838 162.158018,6.73594762 162.158018,7.42439255 L162.158018,10.4706488 L166.095203,10.4706488 L166.095203,12.7429671 L162.158018,12.7429671 L162.158018,26.6019033 L159.453735,26.6019033 L159.453735,12.7159692 L159.458234,12.7159692 Z" id="Fill-11" fill="#939393" mask="url(#mask-2)"></path>
                <path d="M178.347714,12.7159692 L173.573596,12.7159692 L173.573596,20.7973677 C173.573596,21.3148263 173.573596,21.8052421 173.600594,22.2642054 C173.627637,22.7231686 173.71763,23.0966388 173.888571,23.4431111 C174.059557,23.7896283 174.289084,24.0460628 174.608513,24.2485466 C174.923488,24.4510304 175.386951,24.5365236 175.989948,24.5365236 C176.390371,24.5365236 176.795338,24.4780283 177.195806,24.3925351 C177.596319,24.3070869 178.001287,24.1630535 178.374757,23.9921121 L178.491703,26.4353717 C178.032739,26.6378555 177.515281,26.7818889 176.96637,26.8943799 C176.390371,26.9798281 175.872912,27.0383234 175.355454,27.0383234 C174.379077,27.0383234 173.632091,26.9213328 173.056138,26.6648533 C172.480229,26.4083738 172.02122,26.0619465 171.706246,25.6029383 C171.391271,25.143975 171.161834,24.5680211 171.071841,23.906574 C170.954806,23.218129 170.927853,22.4711888 170.927853,21.6342558 L170.927853,12.7159692 L167.418134,12.7159692 L167.418134,10.443651 L170.927853,10.443651 L170.927853,5.8450189 L173.632091,5.8450189 L173.632091,10.443651 L178.406254,10.443651 L178.406254,12.7159692 L178.347714,12.7159692 Z" id="Fill-12" fill="#939393" mask="url(#mask-2)"></path>
                <polygon id="Fill-13" fill="#939393" mask="url(#mask-2)" points="198.992099 26.6018853 196.346265 26.6018853 191.747678 14.1828789 191.689138 14.1828789 187.608009 26.6018853 184.84523 26.6018853 179.612149 10.443633 182.572912 10.443633 186.253573 22.8626395 186.312068 22.8626395 190.483234 10.443633 193.300054 10.443633 197.556713 22.8626395 197.615164 22.8626395 201.268916 10.443633 204.202682 10.443633"></polygon>
                <path d="M214.259368,18.8400063 C212.536006,18.8400063 211.154617,19.0694879 210.146742,19.5599487 C209.138778,20.0503645 208.621319,20.8243476 208.621319,21.9447579 C208.621319,22.9526323 208.967792,23.6681201 209.629284,24.1000405 C210.317639,24.5320509 211.154617,24.7345347 212.158036,24.7345347 C212.936519,24.7345347 213.624919,24.5905463 214.200873,24.3340668 C214.776827,24.0730877 215.262788,23.73107 215.667756,23.2721517 C216.068224,22.8401413 216.356246,22.3226827 216.558729,21.7467738 C216.761213,21.1708198 216.873704,20.0234116 216.905157,19.3619645 L216.905157,18.8445059 C216.905157,18.8400063 214.259368,18.8400063 214.259368,18.8400063 L214.259368,18.8400063 Z M206.438994,12.5134674 C207.271427,11.6495815 208.252304,11.0466298 209.399712,10.6461168 C210.551665,10.2456938 211.699073,10.04321 212.877979,10.04321 C215.262788,10.04321 216.990605,10.619164 218.052565,11.7395743 C219.114435,12.8599847 219.631893,14.5878465 219.631893,16.8871625 L219.631893,23.8166082 C219.631893,24.2755715 219.658891,24.7659872 219.690389,25.2519933 C219.748884,25.7424091 219.807424,26.2014174 219.861375,26.6018853 L217.274082,26.6018853 C217.188589,26.2283702 217.130094,25.8234026 217.130094,25.3644843 C217.130094,24.9055211 217.103051,24.5320509 217.103051,24.1855787 L217.0446,24.1855787 C216.527142,25.0180121 215.807199,25.6794591 214.916271,26.2283702 C214.025387,26.7458288 212.958927,27.0338508 211.726026,27.0338508 C210.893593,27.0338508 210.115155,26.9168602 209.395212,26.718876 C208.67527,26.5163922 208.04532,26.2014174 207.496364,25.8009044 C206.951908,25.4004815 206.519942,24.9099757 206.200468,24.3070689 C205.885493,23.7041172 205.710007,23.0111276 205.710007,22.2372345 C205.710007,20.9143404 206.056524,19.8524253 206.744924,19.1054401 C207.433414,18.3585448 208.2973,17.7825909 209.30522,17.4090758 C210.340137,17.0356057 211.433549,16.806169 212.612455,16.7206308 C213.791406,16.6351827 214.884773,16.5766424 215.86124,16.5766424 L216.896157,16.5766424 L216.896157,16.0862266 C216.896157,14.9073209 216.54964,14.0163922 215.834197,13.4404383 C215.145797,12.8374865 214.137878,12.5495095 212.873479,12.5495095 C212.009503,12.5495095 211.150072,12.693498 210.313184,12.981475 C209.480751,13.2694519 208.73381,13.7014174 208.099361,14.3043242 L206.438994,12.5134674 Z" id="Fill-14" fill="#939393" mask="url(#mask-2)"></path>
                <path d="M223.317135,10.443651 L226.048416,10.443651 L226.048416,12.4279923 C226.219402,12.0275243 226.795401,10.8171211 229.009179,10.2726647 C230.161087,9.98468772 230.732541,10.0116856 231.020518,10.0116856 C231.223002,10.0116856 231.681965,10.0386834 231.884449,10.0701809 C232.055436,10.0971787 232.257919,10.1286762 232.428906,10.2141694 L232.257964,12.9454509 C231.798956,12.8014624 231.30854,12.7429671 230.822579,12.7429671 C229.153213,12.7429671 227.974307,13.2874235 227.227322,14.3538382 C226.480427,15.4202979 226.106911,16.8826809 226.106911,18.7544861 L226.106911,26.6019033 L223.37563,26.6019033 C223.317135,26.6019033 223.317135,10.9926071 223.317135,10.443651" id="Fill-15" fill="#939393" mask="url(#mask-2)"></path>
                <path d="M247.066226,17.0851467 C247.00773,15.7037572 246.57581,14.6103447 245.716334,13.7779113 C244.852403,12.9454779 243.704995,12.5405103 242.206614,12.5405103 C240.708234,12.5405103 239.502286,12.9409332 238.584404,13.7779113 C237.666523,14.6103447 237.117477,15.7037572 236.914993,17.0851467 L247.066226,17.0851467 Z M249.365587,23.6681201 C248.389075,24.9055211 247.354158,25.7649073 246.202295,26.2823659 C245.050387,26.7728717 243.727493,27.0293512 242.206659,27.0293512 C240.942216,27.0293512 239.790308,26.7998245 238.786933,26.3679041 C237.779014,25.9089408 236.919582,25.305944 236.226638,24.5545491 C235.538193,23.8075639 234.989237,22.8851377 234.615767,21.8502205 C234.242297,20.8153033 234.039813,19.7219357 234.039813,18.5429851 C234.039813,17.3055841 234.242297,16.1581758 234.674262,15.1232586 C235.07473,14.0883414 235.650729,13.1659152 236.397624,12.41902 C237.144564,11.6720797 238.00845,11.0960808 239.011915,10.6641604 C240.019834,10.2636474 241.140245,10.0297111 242.31915,10.0297111 C243.439561,10.0297111 244.474478,10.2321949 245.423902,10.605665 C246.373326,10.9791352 247.178762,11.5235466 247.867207,12.2750315 C248.555652,12.9949739 249.07311,13.8858576 249.44658,14.9207748 C249.820005,15.955692 249.991037,17.1615956 249.991037,18.4845347 L249.991037,19.3484656 L236.937581,19.3484656 C236.996031,20.0369105 237.140065,20.6983576 237.428042,21.3327619 C237.715974,21.9672561 238.089489,22.5117126 238.548407,23.0021733 C239.007415,23.4610916 239.556371,23.8346067 240.159323,24.1225387 C240.793772,24.4105607 241.455175,24.5230517 242.202115,24.5230517 C243.381066,24.5230517 244.357442,24.3205679 245.162878,23.8885574 C245.968359,23.4881344 246.688301,22.8536402 247.349703,22.0482496 L249.365587,23.6681201 Z" id="Fill-16" fill="#939393" mask="url(#mask-2)"></path>
                <path d="M3.50971922,0.0359926206 C5.44807415,0.0359926206 7.01943844,1.60735691 7.01943844,3.54571184 C7.01943844,5.48406677 5.44807415,7.05543107 3.50971922,7.05543107 C1.57136429,7.05543107 0,5.48406677 0,3.54571184 C0,1.60735691 1.57136429,0.0359926206 3.50971922,0.0359926206" id="Fill-17" fill="#939393" mask="url(#mask-2)"></path>
                <path d="M3.50971922,19.9874145 C5.44807415,19.9874145 7.01943844,21.5587788 7.01943844,23.4971337 C7.01943844,25.4354887 5.44807415,27.006853 3.50971922,27.006853 C1.57136429,27.006853 0,25.4354887 0,23.4971337 C0,21.5587788 1.57136429,19.9874145 3.50971922,19.9874145" id="Fill-18" fill="#939393" mask="url(#mask-2)"></path>
                <path d="M23.4656228,19.9874145 C25.4039777,19.9874145 26.975342,21.5587788 26.975342,23.4971337 C26.975342,25.4354887 25.4039777,27.006853 23.4656228,27.006853 C21.5272678,27.006853 19.9559035,25.4354887 19.9559035,23.4971337 C19.9559035,21.5587788 21.5272678,19.9874145 23.4656228,19.9874145" id="Fill-19" fill="#939393" mask="url(#mask-2)"></path>
                <path d="M17.0221292,23.4971337 C17.0221292,25.4544771 15.4427556,27.006853 13.51241,27.006853 C11.5550666,27.006853 10.0026908,25.4274343 10.0026908,23.4971337 C10.0026908,19.9334188 7.12742081,17.0581039 3.5637059,17.0581039 C1.57936465,17.031151 -8.99928006e-06,15.4787752 -8.99928006e-06,13.5214318 C-8.99928006e-06,11.5640884 1.57936465,10.0117126 3.50971022,10.0117126 C5.46705364,10.0117126 7.01942945,11.5910412 7.01942945,13.5214318 C7.01942945,17.0851467 9.89469942,19.9603717 13.4584143,19.9603717 C15.4427556,19.9603717 17.0221292,21.54429 17.0221292,23.4971337" id="Fill-20" fill="#939393" mask="url(#mask-2)"></path>
            </g>
        </g>
    </g>
</svg>