<?xml version="1.0" encoding="utf-8"?>
<!-- Generator: Adobe Illustrator 21.0.0, SVG Export Plug-In . SVG Version: 6.00 Build 0)  -->
<svg version="1.1" id="Layer_1" xmlns="http://www.w3.org/2000/svg" xmlns:xlink="http://www.w3.org/1999/xlink" x="0px" y="0px"
	 viewBox="0 0 400 300" style="enable-background:new 0 0 400 300;" xml:space="preserve">
<g>
	<g>
		<g>
			<path d="M196.5,224.9l20.9-26.9c0.2-0.2,0.2-0.5,0.2-0.7L199.1,69.8c0-0.5-0.5-0.9-1.1-0.9h-24.1c-0.4,0-0.7,0.2-0.9,0.5
				l-57.6,117.2c-0.4,0.7-1.4,0.7-1.8,0L55.6,69.5c-0.2-0.4-0.5-0.5-0.9-0.5H30.5c-0.5,0-0.9,0.4-1.1,0.9l-23.2,160
				c-0.2,0.5,0.4,1.1,1.1,1.1h28.2c0.5,0,0.9-0.4,1.1-0.9l14.1-102.6c0.2-1.1,1.4-1.2,1.9-0.4l51.2,103.3c0.2,0.4,0.5,0.5,0.9,0.5
				h19.9c0.4,0,0.7-0.2,0.9-0.5l50.5-101.9c0.5-0.9,1.8-0.7,1.9,0.4l13.7,99.4c0.2,0.9,1.2,1.2,1.8,0.5L196.5,224.9z"/>
			<path d="M367.9,68.9h-35.4c-0.4,0-0.5,0.2-0.9,0.4l-42.4,55.6c-0.4,0.5-1.2,0.5-1.6,0L245,69.3c-0.2-0.2-0.5-0.4-0.9-0.4h-35.4
				c-0.9,0-1.2,1.1-0.9,1.6l60.9,78.9c0.4,0.4,0.4,0.9,0,1.2l-60.9,78.9c-0.5,0.7,0,1.6,0.9,1.6h35.4c0.4,0,0.5-0.2,0.9-0.4
				l42.6-55.6c0.4-0.5,1.2-0.5,1.6,0l42.6,55.6c0.2,0.2,0.5,0.4,0.9,0.4h35.4c0.9,0,1.2-1.1,0.9-1.6L308,150.6
				c-0.4-0.4-0.4-0.9,0-1.2l60.9-78.9C369.1,69.8,368.8,68.9,367.9,68.9z"/>
		</g>
	</g>
	<g>
		<path d="M384.2,230.9c-5.4,0-9.7-4.3-9.7-9.7c0-5.4,4.3-9.7,9.7-9.7c5.4,0,9.7,4.3,9.7,9.7C393.9,226.5,389.6,230.9,384.2,230.9z
			 M384.2,213.1c-4.5,0-8.1,3.6-8.1,8.1c0,4.4,3.6,8.1,8.1,8.1c4.5,0,8.1-3.7,8.1-8.1C392.3,216.7,388.6,213.1,384.2,213.1z
			 M386.8,226.8l-2.9-4.4h-1.8v4.4h-1.7v-11.1h4.5c1.9,0,3.8,1.3,3.8,3.4c0,2.5-2.2,3.3-2.8,3.3l3,4.4H386.8z M384.9,217.1h-2.8v3.8
			h2.8c1,0,2-0.7,2-1.9C386.9,217.8,385.9,217.1,384.9,217.1z"/>
	</g>
</g>
</svg>
