<?xml version="1.0" encoding="UTF-8"?>
<svg width="80px" height="80px" viewBox="0 0 80 80" version="1.1" xmlns="http://www.w3.org/2000/svg" xmlns:xlink="http://www.w3.org/1999/xlink">
    <!-- Generator: Sketch 42 (36781) - http://www.bohemiancoding.com/sketch -->
    <title>nomnom</title>
    <desc>Created with Sketch.</desc>
    <defs></defs>
    <g id="Page-1" stroke="none" stroke-width="1" fill="none" fill-rule="evenodd">
        <g id="nomnom" fill-rule="nonzero">
            <g id="Page-1">
                <g id="Artboard">
                    <rect id="Rectangle-2" fill="#939393" x="0" y="0" width="80" height="80"></rect>
                    <g id="nomno_logo" transform="translate(16.521739, 24.869565)">
                        <g id="Group" transform="translate(0.000000, -0.000000)">
                            <path d="M22.5217391,4.33043478 C22.2086957,4.19130435 21.8608696,4.12173913 21.4782609,4.12173913 C21.0956522,4.12173913 20.7478261,4.19130435 20.4173913,4.33043478 C20.0869565,4.46956522 19.8086957,4.66086957 19.5826087,4.90434783 C19.3565217,5.14782609 19.1652174,5.44347826 19.0434783,5.80869565 C18.9043478,6.17391304 18.8521739,6.55652174 18.8521739,6.97391304 C18.8521739,7.40869565 18.9217391,7.80869565 19.0434783,8.17391304 C19.1652174,8.53913043 19.3565217,8.85217391 19.5826087,9.11304348 C19.8086957,9.37391304 20.0869565,9.5826087 20.4173913,9.72173913 C20.7478261,9.86086957 21.0956522,9.93043478 21.4782609,9.93043478 C21.8608696,9.93043478 22.2086957,9.86086957 22.5217391,9.72173913 C22.8347826,9.5826087 23.1130435,9.37391304 23.3565217,9.11304348 C23.6,8.85217391 23.773913,8.53913043 23.9130435,8.17391304 C24.0521739,7.80869565 24.1043478,7.40869565 24.1043478,6.97391304 C24.1043478,6.55652174 24.0347826,6.15652174 23.9130435,5.80869565 C23.773913,5.44347826 23.6,5.14782609 23.3565217,4.90434783 C23.1130435,4.66086957 22.8347826,4.46956522 22.5217391,4.33043478 Z" id="Shape" fill="#939393"></path>
                            <polygon id="Shape" fill="#FFFFFF" points="40.9913043 0.347826087 38.9043478 7.47826087 38.8 7.47826087 36.4 0.347826087 30.6086957 0.347826087 30.6086957 13.5652174 34.7130435 13.5652174 34.5043478 6.08695652 34.6086957 6.08695652 37.0434783 13.5652174 40.2086957 13.5652174 42.6956522 6.10434783 42.8 6.15652174 42.6782609 13.5652174 46.9565217 13.5652174 46.9565217 0.347826087"></polygon>
                            <path d="M18.5391304,0.504347826 C17.6347826,0.834782609 16.8521739,1.28695652 16.1913043,1.89565217 C15.5304348,2.50434783 15.0086957,3.23478261 14.6434783,4.08695652 C14.2608696,4.93913043 14.0869565,5.91304348 14.0869565,6.97391304 C14.0869565,8.03478261 14.2782609,9.00869565 14.6434783,9.87826087 C15.026087,10.7478261 15.5304348,11.4956522 16.1913043,12.1217391 C16.8521739,12.7478261 17.6347826,13.2173913 18.5391304,13.5652174 C19.4434783,13.9130435 20.4173913,14.0695652 21.4782609,14.0695652 C22.5391304,14.0695652 23.5130435,13.8956522 24.4173913,13.5652174 C25.3217391,13.2347826 26.1043478,12.7478261 26.7652174,12.1217391 C27.426087,11.4956522 27.9478261,10.7478261 28.3304348,9.87826087 C28.7130435,9.00869565 28.8869565,8.03478261 28.8869565,6.97391304 C28.8869565,5.91304348 28.6956522,4.95652174 28.3304348,4.08695652 C27.9478261,3.23478261 27.426087,2.50434783 26.7652174,1.89565217 C26.1043478,1.28695652 25.3217391,0.834782609 24.4173913,0.504347826 C23.5130435,0.173913043 22.5391304,0.0173913043 21.4782609,0.0173913043 C20.4173913,0.0173913043 19.4434783,0.191304348 18.5391304,0.504347826 Z M24.1043478,6.97391304 C24.1043478,7.40869565 24.0347826,7.80869565 23.9130435,8.17391304 C23.773913,8.53913043 23.6,8.85217391 23.3565217,9.11304348 C23.1130435,9.37391304 22.8347826,9.5826087 22.5217391,9.72173913 C22.2086957,9.86086957 21.8608696,9.93043478 21.4782609,9.93043478 C21.0956522,9.93043478 20.7478261,9.86086957 20.4173913,9.72173913 C20.0869565,9.5826087 19.8086957,9.37391304 19.5826087,9.11304348 C19.3565217,8.85217391 19.1652174,8.53913043 19.0434783,8.17391304 C18.9217391,7.80869565 18.8521739,7.40869565 18.8521739,6.97391304 C18.8521739,6.55652174 18.9217391,6.15652174 19.0434783,5.80869565 C19.1826087,5.44347826 19.3565217,5.14782609 19.5826087,4.90434783 C19.8086957,4.66086957 20.0869565,4.46956522 20.4173913,4.33043478 C20.7478261,4.19130435 21.0956522,4.12173913 21.4782609,4.12173913 C21.8608696,4.12173913 22.2086957,4.19130435 22.5217391,4.33043478 C22.8347826,4.46956522 23.1130435,4.66086957 23.3565217,4.90434783 C23.6,5.14782609 23.773913,5.44347826 23.9130435,5.80869565 C24.0347826,6.15652174 24.1043478,6.53913043 24.1043478,6.97391304 Z" id="Shape" fill="#FFFFFF"></path>
                            <polygon id="Shape" fill="#FFFFFF" points="4.10434783 7.30434783 4.17391304 7.30434783 7.86086957 13.5652174 12.3478261 13.5652174 12.3478261 0.347826087 8.17391304 0.347826087 8.36521739 7.13043478 8.29565217 7.13043478 4.48695652 0.347826087 0 0.347826087 0 13.5652174 4.27826087 13.5652174"></polygon>
                            <path d="M19.5826087,25.4608696 C19.8086957,25.7217391 20.0869565,25.9304348 20.4173913,26.0695652 C20.7478261,26.2086957 21.0956522,26.2782609 21.4782609,26.2782609 C21.8608696,26.2782609 22.2086957,26.2086957 22.5217391,26.0695652 C22.8347826,25.9304348 23.1130435,25.7217391 23.3565217,25.4608696 C23.6,25.2 23.773913,24.8869565 23.9130435,24.5217391 C24.0521739,24.1565217 24.1043478,23.7565217 24.1043478,23.3217391 C24.1043478,22.9043478 24.0347826,22.5043478 23.9130435,22.1565217 C23.773913,21.7913043 23.6,21.4956522 23.3565217,21.2521739 C23.1130435,21.0086957 22.8347826,20.8173913 22.5217391,20.6782609 C22.2086957,20.5391304 21.8608696,20.4695652 21.4782609,20.4695652 C21.0956522,20.4695652 20.7478261,20.5391304 20.4173913,20.6782609 C20.0869565,20.8173913 19.8086957,21.0086957 19.5826087,21.2521739 C19.3565217,21.4956522 19.1652174,21.7913043 19.0434783,22.1565217 C18.9043478,22.5217391 18.8521739,22.9043478 18.8521739,23.3217391 C18.8521739,23.7565217 18.9217391,24.1565217 19.0434783,24.5217391 C19.1652174,24.8869565 19.3565217,25.2 19.5826087,25.4608696 Z" id="Shape" fill="#939393"></path>
                            <polygon id="Shape" fill="#FFFFFF" points="38.9043478 23.826087 38.8 23.826087 36.4 16.6956522 30.6086957 16.6956522 30.6086957 29.9130435 34.7130435 29.9130435 34.5043478 22.4347826 34.6086957 22.4347826 37.0434783 29.9130435 40.2086957 29.9130435 42.6956522 22.4521739 42.8 22.5043478 42.6782609 29.9130435 46.9565217 29.9130435 46.9565217 16.6956522 40.9913043 16.6956522"></polygon>
                            <path d="M24.4,29.9130435 C25.3043478,29.5826087 26.0869565,29.0956522 26.7478261,28.4695652 C27.4086957,27.8434783 27.9304348,27.0956522 28.3130435,26.226087 C28.6956522,25.3565217 28.8695652,24.3826087 28.8695652,23.3217391 C28.8695652,22.2608696 28.6782609,21.3043478 28.3130435,20.4347826 C27.9304348,19.5826087 27.4086957,18.8521739 26.7478261,18.2434783 C26.0869565,17.6347826 25.3043478,17.1826087 24.4,16.8521739 C23.4956522,16.5217391 22.5217391,16.3652174 21.4608696,16.3652174 C20.4,16.3652174 19.426087,16.5217391 18.5217391,16.8521739 C17.6173913,17.1826087 16.8347826,17.6347826 16.173913,18.2434783 C15.5130435,18.8521739 14.9913043,19.5826087 14.626087,20.4347826 C14.2608696,21.2869565 14.0869565,22.2608696 14.0869565,23.3217391 C14.0869565,24.3826087 14.2782609,25.3565217 14.6434783,26.226087 C15.026087,27.0956522 15.5304348,27.8434783 16.1913043,28.4695652 C16.8521739,29.0956522 17.6347826,29.5652174 18.5391304,29.9130435 C19.4434783,30.2608696 20.4173913,30.4173913 21.4782609,30.4173913 C22.5391304,30.4173913 23.4956522,30.2434783 24.4,29.9130435 Z M19.026087,22.1391304 C19.1652174,21.773913 19.3391304,21.4782609 19.5652174,21.2347826 C19.7913043,20.9913043 20.0695652,20.8 20.4,20.6608696 C20.7304348,20.5217391 21.0782609,20.4521739 21.4608696,20.4521739 C21.8434783,20.4521739 22.1913043,20.5217391 22.5043478,20.6608696 C22.8173913,20.8 23.0956522,20.9913043 23.3391304,21.2347826 C23.5826087,21.4782609 23.7565217,21.773913 23.8956522,22.1391304 C24.0347826,22.5043478 24.0869565,22.8869565 24.0869565,23.3043478 C24.0869565,23.7391304 24.0173913,24.1391304 23.8956522,24.5043478 C23.7565217,24.8695652 23.5826087,25.1826087 23.3391304,25.4434783 C23.0956522,25.7043478 22.8173913,25.9130435 22.5043478,26.0521739 C22.1913043,26.1913043 21.8434783,26.2608696 21.4608696,26.2608696 C21.0782609,26.2608696 20.7304348,26.1913043 20.4,26.0521739 C20.0695652,25.9130435 19.7913043,25.7043478 19.5652174,25.4434783 C19.3391304,25.1826087 19.1478261,24.8695652 19.026087,24.5043478 C18.9043478,24.1391304 18.8347826,23.7391304 18.8347826,23.3043478 C18.8347826,22.8869565 18.9043478,22.5043478 19.026087,22.1391304 Z" id="Shape" fill="#FFFFFF"></path>
                            <polygon id="Shape" fill="#FFFFFF" points="8.17391304 16.6956522 8.36521739 23.4782609 8.29565217 23.4782609 4.48695652 16.6956522 0 16.6956522 0 29.9130435 4.27826087 29.9130435 4.10434783 23.6521739 4.17391304 23.6521739 7.86086957 29.9130435 12.3478261 29.9130435 12.3478261 16.6956522"></polygon>
                        </g>
                    </g>
                </g>
            </g>
        </g>
    </g>
</svg>