<?xml version="1.0" encoding="UTF-8"?>
<svg width="220px" height="67px" viewBox="0 0 220 67" version="1.1" xmlns="http://www.w3.org/2000/svg" xmlns:xlink="http://www.w3.org/1999/xlink">
    <!-- Generator: Sketch 41.2 (35397) - http://www.bohemiancoding.com/sketch -->
    <title>Page 1</title>
    <desc>Created with Sketch.</desc>
    <defs>
        <polygon id="path-1" points="22.3476464 0.30823219 0.485218997 0.30823219 0.485218997 64.7829763 22.3476464 64.7829763 22.3476464 0.30823219"></polygon>
        <polygon id="path-3" points="0.110522427 15.0923483 15.4147441 15.0923483 15.4147441 0.264870712 0.110522427 0.264870712"></polygon>
    </defs>
    <g id="Page-1" stroke="none" stroke-width="1" fill="none" fill-rule="evenodd">
        <g>
            <g id="Group-3" transform="translate(0.000000, 20.588865)" fill="#939393">
                <path d="M5.56495515,36.0792454 L5.56495515,9.88357256 L-5.80474934e-05,9.88357256 L-5.80474934e-05,1.49629024 L16.7338734,1.49629024 C16.7338734,3.40431135 16.7007863,5.00758311 16.6340317,6.30552507 C16.5678575,7.60462797 16.3884908,8.95655409 16.0953509,10.360723 L16.255562,10.360723 C17.3689129,7.39275462 19.2026332,5.00758311 21.7607863,3.20520844 C24.3183588,1.40399472 27.3989393,0.50251715 31.0036887,0.50251715 C33.5217889,0.50251715 35.7078575,0.879825858 37.5630554,1.63560422 C39.4176728,2.39022164 40.942,3.48383641 42.1342955,4.91470712 C43.326591,6.34557784 44.2222639,8.10209499 44.8184116,10.1819367 C45.4145594,12.2617784 45.7129235,14.6272137 45.7129235,17.2765013 L45.7129235,36.0792454 L50.6016834,36.0792454 L50.6016834,44.4665277 L29.653504,44.4665277 L29.653504,36.0792454 L34.3042691,36.0792454 L34.3042691,18.429905 C34.3042691,13.0506438 31.8320264,10.360723 26.8875409,10.360723 C23.6095989,10.360723 21.1379367,11.400934 19.4719736,13.4807757 C17.8060106,15.5611979 16.973029,18.3242586 16.973029,21.7687968 L16.973029,36.0792454 L21.8623694,36.0792454 L21.8623694,44.4665277 L1.39134037,44.4665277 L1.39134037,36.0792454 L5.56495515,36.0792454 Z" id="Fill-1"></path>
            </g>
            <path d="M78.8850923,30.472496 L78.8850923,22.0852137 L99.237124,22.0852137 L99.237124,30.472496 L95.3415567,30.472496 L80.7536412,65.0554512 L68.390686,65.0554512 L53.5641953,30.472496 L49.668628,30.472496 L49.668628,22.0852137 L70.6568602,22.0852137 L70.6568602,30.472496 L66.6817678,30.472496 L74.3933773,51.6191979 C74.817124,52.7598311 75.0951715,53.9515462 75.2281003,55.1972454 L75.3871504,55.1972454 C75.5194987,53.8458997 75.7841953,52.6530237 76.1818206,51.6191979 L83.6949077,30.472496 L78.8850923,30.472496 Z" id="Fill-4" fill="#939393"></path>
            <g id="Group-8" transform="translate(102.744063, 0.272243)">
                <mask id="mask-2" fill="white">
                    <use xlink:href="#path-1"></use>
                </mask>
                <g id="Clip-7"></g>
                <path d="M3.66564116,7.46281794 C3.66564116,6.05922955 3.9773562,4.81933509 4.6025277,3.74661741 C5.22653826,2.67273879 6.11698681,1.83163061 7.27213193,1.22213193 C8.42785752,0.61321372 9.78965172,0.307883905 11.3575145,0.307883905 C13.7223694,0.307883905 15.5885963,0.96382058 16.9556148,2.27569393 C18.3249551,3.58756728 19.0087546,5.31622164 19.0087546,7.46281794 C19.0087546,9.63669657 18.3249551,11.3717361 16.9556148,12.6702586 C15.5885963,13.9693615 13.7223694,14.6183325 11.3575145,14.6183325 C8.99149868,14.6183325 7.11888654,13.9623958 5.7373562,12.6505224 C4.35640633,11.3386491 3.66564116,9.60941425 3.66564116,7.46281794 L3.66564116,7.46281794 Z M6.05023219,56.3956939 L6.05023219,30.2000211 L0.485218997,30.2000211 L0.485218997,21.8127388 L17.4588865,21.8127388 L17.4588865,56.3956939 L22.3476464,56.3956939 L22.3476464,64.7829763 L1.40004749,64.7829763 L1.40004749,56.3956939 L6.05023219,56.3956939 Z" id="Fill-6" fill="#939393" mask="url(#mask-2)"></path>
            </g>
            <path d="M131.753646,22.0850976 L131.753646,13.1806121 L143.162301,12.5449921 L143.162301,22.0850976 L154.570375,22.0850976 L154.570375,30.4723799 L143.162301,30.4723799 L143.162301,49.5642005 C143.162301,51.6283694 143.360823,53.1962322 143.759029,54.266628 C144.155493,55.3393456 144.79866,56.0806121 145.686206,56.4910079 C146.573752,56.9002427 147.825256,57.1051504 149.442459,57.1051504 C150.87391,57.1051504 152.715177,56.6814037 154.968,55.8333298 L154.570375,63.9727493 C150.614438,65.3560211 147.295863,66.0485277 144.614649,66.0485277 C140.44742,66.0485277 137.261193,65.0744908 135.05829,63.1269974 C132.854227,61.1789235 131.753646,58.3247282 131.753646,54.5609288 L131.753646,30.4723799 L125.950058,30.4723799 L125.950058,22.0850976 L131.753646,22.0850976 Z" id="Fill-9" fill="#939393"></path>
            <path d="M168.92105,38.2635726 L186.251129,38.2635726 C186.251129,36.2760264 185.899942,34.59381 185.198148,33.2151821 C184.495193,31.8371346 183.500839,30.7905383 182.217409,30.0748127 C180.931657,29.3596675 179.400364,29.0015145 177.625852,29.0015145 C175.028807,29.0015145 172.987858,29.8037309 171.504744,31.4064222 C170.019889,33.0096939 169.159045,35.2956042 168.92105,38.2635726 M198.613504,46.1737045 L169.000575,46.1737045 C169.159045,49.5793509 170.450602,52.2541794 172.875245,54.1935462 C175.30047,56.1346544 178.512237,57.1052084 182.514612,57.1052084 C185.058834,57.1052084 187.344164,56.8881108 189.371182,56.4515937 C191.399942,56.015657 193.698042,55.2703272 196.268966,54.2132823 L195.71229,63.334285 C193.039203,64.2920686 190.476987,64.9839947 188.027963,65.4100633 C185.578939,65.8355515 182.898887,66.0485858 179.986063,66.0485858 C176.016195,66.0485858 172.542053,65.4588232 169.563636,64.2798786 C166.584639,63.100934 164.148966,61.4773456 162.257198,59.4102744 C160.363689,57.3437836 158.954296,54.9783483 158.026697,52.3151293 C157.100839,49.6519103 156.63704,46.7837836 156.63704,43.7090079 C156.63704,39.2573456 157.490918,35.3350765 159.199256,31.9433615 C160.906433,28.551066 163.387383,25.8948127 166.645588,23.9728602 C169.901472,22.0526491 173.69952,21.0913826 178.042053,21.0913826 C185.004269,21.0913826 190.173979,23.397029 193.549441,28.0077414 C196.925483,32.6190343 198.613504,38.6745488 198.613504,46.1737045" id="Fill-11" fill="#939393"></path>
            <g id="Group-15" transform="translate(204.327177, 51.354037)">
                <mask id="mask-4" fill="white">
                    <use xlink:href="#path-3"></use>
                </mask>
                <g id="Clip-14"></g>
                <path d="M0.110522427,7.6595409 C0.110522427,5.32719261 0.819282322,3.51204749 2.23738259,2.21352507 C3.6543219,0.914422164 5.49036412,0.264870712 7.74260686,0.264870712 C10.0203905,0.264870712 11.8697836,0.914422164 13.2878839,2.21352507 C14.7054037,3.51204749 15.4147441,5.32719261 15.4147441,7.6595409 C15.4147441,9.80555673 14.7257203,11.5812296 13.3482533,12.9859789 C11.9684644,14.3895673 10.1010765,15.0925224 7.74260686,15.0925224 C5.4096781,15.0925224 3.55622164,14.3895673 2.17875462,12.9859789 C0.798965699,11.5812296 0.110522427,9.80555673 0.110522427,7.6595409" id="Fill-13" fill="#939393" mask="url(#mask-4)"></path>
            </g>
        </g>
    </g>
</svg>