<?xml version="1.0" encoding="UTF-8"?>
<svg width="263px" height="74px" viewBox="0 0 263 74" version="1.1" xmlns="http://www.w3.org/2000/svg" xmlns:xlink="http://www.w3.org/1999/xlink">
    <!-- Generator: Sketch 41 (35326) - http://www.bohemiancoding.com/sketch -->
    <title>podium</title>
    <desc>Created with Sketch.</desc>
    <defs>
        <polygon id="path-1" points="32.2305055 31.8642844 32.2305055 0.106721875 0.480394066 0.106721875 0.480394066 31.8642844 32.2305055 31.8642844"></polygon>
        <polygon id="path-3" points="0 73.4253437 262.861275 73.4253437 262.861275 0 0 0"></polygon>
    </defs>
    <g id="Page-1" stroke="none" stroke-width="1" fill="none" fill-rule="evenodd">
        <g id="podium">
            <path d="M98.5013611,29.6151469 C101.186273,29.6151469 102.529018,28.8982719 103.462524,27.7981 C104.337071,26.7551625 104.804113,25.4555375 104.804113,23.9616625 C104.804113,22.465475 104.337071,21.0999438 103.462524,20.0581625 C102.529018,18.9527875 101.186273,18.2399594 98.5013611,18.2399594 L91.9598864,18.2399594 C91.6413963,18.2399594 91.3818644,18.4995375 91.3818644,18.8180844 L91.3818644,29.0370219 C91.3818644,29.3555688 91.6413963,29.6151469 91.9598864,29.6151469 L98.5013611,29.6151469 Z M91.3818644,35.0610844 L91.3818644,43.9711469 C91.3818644,44.2896938 91.1205985,44.5492719 90.8038424,44.5492719 L85.8363215,44.5492719 C85.5184095,44.5492719 85.2582996,44.2896938 85.2582996,43.9711469 L85.2582996,13.3721469 C85.2582996,13.0547563 85.5184095,12.7940219 85.8363215,12.7940219 L98.2481875,12.7940219 C103.076405,12.7940219 105.917961,13.973975 108.010979,16.1737406 C109.88955,18.1046781 110.962359,21.0022406 110.962359,23.9558813 C110.962359,26.9060531 109.88955,29.7989906 108.010979,31.7322406 C105.973451,33.8834438 103.076405,35.0610844 98.2481875,35.0610844 L91.3818644,35.0610844 Z" id="Fill-1" fill="#939393"></path>
            <path d="M130.742502,39.5606891 C136.730232,39.5606891 141.176377,34.6587672 141.176377,28.6722828 C141.176377,22.6857984 136.730232,17.7827203 130.742502,17.7827203 C124.755929,17.7827203 120.310362,22.6857984 120.310362,28.6722828 C120.310362,34.6587672 124.755929,39.5606891 130.742502,39.5606891 M130.742502,12.3402516 C140.541131,12.3402516 147.299942,19.6413922 147.299942,28.6722828 C147.299942,37.7020172 140.541131,45.0043141 130.742502,45.0043141 C120.945608,45.0043141 114.187375,37.7020172 114.187375,28.6722828 C114.187375,19.6413922 120.945608,12.3402516 130.742502,12.3402516" id="Fill-3" fill="#939393"></path>
            <path d="M162.679893,39.1056469 C166.44455,39.1056469 169.030042,37.7904125 170.799945,35.5669437 C172.251937,33.7533656 173.110877,31.3078969 173.110877,28.672225 C173.110877,26.0371312 172.251937,23.5910844 170.799945,21.7786625 C169.030042,19.5546156 166.44455,18.2399594 162.679893,18.2399594 L158.722176,18.2399594 C158.404842,18.2399594 158.144154,18.4995375 158.144154,18.8180844 L158.144154,38.5275219 C158.144154,38.8449125 158.404842,39.1056469 158.722176,39.1056469 L162.679893,39.1056469 Z M161.999561,44.5492719 L152.599189,44.5492719 C152.281277,44.5492719 152.021167,44.2896937 152.021167,43.9711469 L152.021167,13.3721469 C152.021167,13.0547562 152.281277,12.7940219 152.599189,12.7940219 L161.999561,12.7940219 C167.032398,12.7940219 170.347354,13.8837875 172.929956,15.7898656 C176.831605,18.6897406 179.235598,23.4107094 179.235598,28.672225 C179.235598,33.9331625 176.831605,38.6552875 172.929956,41.5557406 C170.347354,43.4618187 167.032398,44.5492719 161.999561,44.5492719 L161.999561,44.5492719 Z" id="Fill-5" fill="#939393"></path>
            <path d="M184.484963,13.3723203 C184.484963,13.0543516 184.745073,12.7941953 185.062985,12.7941953 L190.029927,12.7941953 C190.34784,12.7941953 190.607949,13.0543516 190.607949,13.3723203 L190.607949,43.9713203 C190.607949,44.2892891 190.34784,44.5494453 190.029927,44.5494453 L185.062985,44.5494453 C184.745073,44.5494453 184.484963,44.2892891 184.484963,43.9713203 L184.484963,13.3723203 Z" id="Fill-7" fill="#939393"></path>
            <path d="M197.634963,31.1666031 L197.634963,13.3724937 C197.634963,13.0551031 197.895073,12.7943687 198.212985,12.7943687 L203.180505,12.7943687 C203.49784,12.7943687 203.758527,13.0551031 203.758527,13.3724937 L203.758527,31.6227437 C203.758527,34.5260875 204.529609,36.2928375 205.844609,37.5178844 C207.205273,38.8336969 209.110433,39.5609781 211.243334,39.5609781 C213.373345,39.5609781 215.277927,38.8336969 216.640903,37.5178844 C217.955325,36.2928375 218.726985,34.5260875 218.726985,31.6227437 L218.726985,13.3724937 C218.726985,13.0551031 218.987673,12.7943687 219.305007,12.7943687 L224.271371,12.7943687 C224.589862,12.7943687 224.849393,13.0551031 224.849393,13.3724937 L224.849393,31.1666031 C224.849393,36.0228531 223.397402,39.3765562 220.768558,41.7376187 C218.317167,43.9148375 214.824758,45.0046031 211.243334,45.0046031 C207.65902,45.0046031 204.166033,43.9148375 201.716954,41.7376187 C199.086954,39.3765562 197.634963,36.0228531 197.634963,31.1666031" id="Fill-9" fill="#939393"></path>
            <g id="Group-13" transform="translate(230.630769, 12.722219)">
                <mask id="mask-2" fill="white">
                    <use xlink:href="#path-1"></use>
                </mask>
                <g id="Clip-12"></g>
                <path d="M16.0054864,13.1561594 C16.1979677,13.4093781 16.5129897,13.4093781 16.706049,13.1561594 L26.2908095,0.569221875 C26.4832908,0.316003125 26.9012007,0.109034375 27.2191127,0.109034375 L31.6525413,0.109034375 C31.9704534,0.109034375 32.2305633,0.369190625 32.2305633,0.687159375 L32.2305633,31.2861594 C32.2305633,31.6041281 31.9704534,31.8642844 31.6525413,31.8642844 L26.6873325,31.8642844 C26.3694204,31.8642844 26.1093105,31.6041281 26.1093105,31.2861594 L26.1093105,11.406175 C26.1093105,11.0882062 25.9509325,11.0350187 25.7578732,11.2870812 L16.705471,23.1172531 C16.5118336,23.3698937 16.1962336,23.3698937 16.0025963,23.1172531 L6.95539626,11.2865031 C6.76233692,11.0338625 6.60453692,11.08705 6.60453692,11.4050187 L6.60453692,31.2838469 C6.60453692,31.6018156 6.34442703,31.8619719 6.02651495,31.8619719 L1.05841604,31.8619719 C0.740503956,31.8619719 0.480394066,31.6018156 0.480394066,31.2838469 L0.480394066,0.684846875 C0.480394066,0.366878125 0.740503956,0.106721875 1.05841604,0.106721875 L5.49242264,0.106721875 C5.81033473,0.106721875 6.22824462,0.313690625 6.42072593,0.566909375 L16.0054864,13.1561594 Z" id="Fill-11" fill="#939393" mask="url(#mask-2)"></path>
            </g>
            <mask id="mask-4" fill="white">
                <use xlink:href="#path-3"></use>
            </mask>
            <g id="Clip-15"></g>
            <path d="M14.5950549,31.4199375 L56.3571429,31.4199375 L56.3571429,26.0057969 L14.5950549,26.0057969 L14.5950549,31.4199375 Z M14.4505495,43.1662812 L49.1318681,43.1662812 L49.1318681,37.7463594 L14.4505495,37.7463594 L14.4505495,43.1662812 Z M14.4505495,19.6799531 L49.1318681,19.6799531 L49.1318681,14.2600312 L14.4505495,14.2600312 L14.4505495,19.6799531 Z M43.3516484,0 L1.15604396,0 C0.52021978,0 0,0.32721875 0,0.96315625 L0,57.6194062 L0,71.7834687 C0,73.5322969 1.01153846,73.9514375 2.24792747,72.7148281 L8.67032967,66.2912812 L16.9319978,58.1246875 C17.1568484,57.8997969 17.6007692,57.8125 17.9186813,57.8125 L43.3516484,57.8125 C58.6420637,57.8125 70.8076923,44.3855469 70.8076923,28.90625 C70.8076923,13.426375 58.6513121,0 43.3516484,0 L43.3516484,0 Z" id="Fill-14" fill="#939393" mask="url(#mask-4)"></path>
        </g>
    </g>
</svg>