<svg width="288" height="32" viewBox="0 0 288 32" xmlns="http://www.w3.org/2000/svg"><title>Page 1</title><g fill="#272727" fill-rule="evenodd" opacity=".5"><path d="M102.83 5.09h5.966c1.375 0 2.433.372 3.237 1.14.792.757 1.176 1.777 1.176 3.12 0 1.312-.388 2.314-1.184 3.06-.798.754-1.884 1.136-3.23 1.136h-5.966V5.09zm13.96 9.706c1.117-1.467 1.684-3.315 1.684-5.49 0-1.788-.387-3.406-1.152-4.81-.77-1.403-1.883-2.518-3.313-3.313C112.59.398 110.944 0 109.12 0H97.525v31.127h5.306V18.45h4.68l6.033 12.677h6.116l-6.68-13.518c1.535-.56 2.815-1.503 3.81-2.814zM31.733 20.043L19.196 0h-4.72v31.127h5.306v-20.08l12.52 20.08H37V0h-5.27M70.095 5.09h7.9v26.037h5.268V5.09h7.88V0H70.095M0 31.127h5.306V0H0M62.517 15.742c-.63-.616-1.395-1.116-2.276-1.486-.862-.366-1.978-.658-3.315-.866l-3.264-.517c-.606-.092-1.183-.258-1.715-.492-.53-.234-.96-.497-1.267-.773-.624-.583-.927-1.383-.927-2.445 0-.824.18-1.535.55-2.172.366-.624.907-1.12 1.608-1.476.714-.366 1.592-.55 2.61-.55.82 0 1.577.07 2.25.207.66.134 1.308.364 1.927.684.614.317 1.196.758 1.73 1.308l.324.335 3.453-3.59-.35-.345C62.606 2.327 61.238 1.415 59.79.85 58.338.286 56.605 0 54.635 0c-2.01 0-3.79.388-5.293 1.155-1.516.776-2.698 1.885-3.513 3.295-.815 1.408-1.226 3.052-1.226 4.885 0 2.594.75 4.648 2.23 6.106 1.362 1.33 3.278 2.187 5.695 2.545l3.378.494c.8.118 1.416.265 1.83.434.392.163.74.4 1.033.708l.018.018c.664.626.986 1.527.986 2.756 0 1.307-.452 2.293-1.383 3.014-.96.745-2.33 1.123-4.07 1.123-.953 0-1.855-.087-2.68-.26-.82-.168-1.598-.464-2.315-.88-.726-.417-1.4-.96-2.003-1.61l-.325-.35-3.568 3.707.324.346c1.39 1.472 2.943 2.542 4.62 3.18 1.66.633 3.633.955 5.867.955 1.55 0 2.982-.205 4.26-.61 1.298-.408 2.45-1.028 3.43-1.84.988-.825 1.757-1.837 2.282-3.01.523-1.167.79-2.47.79-3.878 0-2.823-.84-5.027-2.485-6.54M142.688 20.243c0 1.253-.23 2.344-.684 3.244-.452.903-1.073 1.58-1.9 2.068-.82.486-1.798.732-2.91.732-1.11 0-2.085-.246-2.897-.732-.817-.487-1.432-1.165-1.88-2.072-.447-.91-.673-2-.673-3.24V0h-5.268v20.466c0 2.12.47 4.035 1.4 5.686.93 1.655 2.227 2.955 3.856 3.866 1.62.9 3.456 1.356 5.463 1.356 2.02 0 3.867-.456 5.493-1.356 1.638-.912 2.94-2.213 3.865-3.865.932-1.656 1.404-3.57 1.404-5.687V0h-5.27v20.243M244.545 5.09h5.964c1.373 0 2.432.372 3.236 1.14.792.757 1.176 1.777 1.176 3.12 0 1.312-.386 2.314-1.184 3.062-.795.752-1.882 1.134-3.23 1.134h-5.963V5.09zm13.96 9.706c1.116-1.47 1.682-3.316 1.682-5.49 0-1.793-.388-3.41-1.152-4.81-.768-1.403-1.883-2.517-3.313-3.313C254.302.398 252.658 0 250.834 0h-11.596v31.127h5.307V18.45h4.677l6.034 12.677h6.116L254.69 17.61c1.537-.56 2.817-1.503 3.815-2.814zM287.45 5.09V0h-19.26v31.127h19.26V26.04h-13.955v-8.087h11.913v-5.046h-11.913V5.09M224.976 20.243c0 1.253-.23 2.344-.684 3.244-.454.903-1.076 1.58-1.903 2.068-.818.486-1.796.732-2.907.732-1.113 0-2.088-.246-2.898-.732-.82-.49-1.435-1.166-1.88-2.072-.45-.913-.676-2.003-.676-3.24V0h-5.268v20.466c0 2.12.472 4.032 1.4 5.685.927 1.654 2.224 2.955 3.857 3.868 1.616.9 3.454 1.356 5.463 1.356 2.02 0 3.867-.456 5.493-1.356 1.636-.912 2.937-2.213 3.865-3.866.93-1.654 1.403-3.567 1.403-5.686V0h-5.267v20.243M161.023 9.613c.123-.69.282-1.244.472-1.65.185-.4.46-.81.807-1.214.465-.525 1.042-.936 1.714-1.223.687-.295 1.405-.438 2.193-.438 1.41 0 2.58.425 3.475 1.267.91.854 1.534 2.037 1.853 3.513l.082.38h5.36l-.095-.572c-.516-3.08-1.736-5.492-3.627-7.165C171.366.845 168.994 0 166.208 0c-1.535 0-2.983.286-4.3.852-1.32.566-2.516 1.406-3.557 2.5-.72.776-1.287 1.585-1.68 2.406-.39.814-.677 1.703-.85 2.64-.165.91-.274 1.927-.32 3.025-.048 1.08-.07 2.555-.07 4.387 0 2.387.046 4.247.14 5.527.092 1.32.347 2.56.755 3.684.41 1.142 1.092 2.235 2.03 3.254.662.694 1.422 1.304 2.258 1.814.844.516 1.74.905 2.66 1.157.916.25 1.904.376 2.936.376 1.342 0 2.624-.21 3.812-.623 1.202-.422 2.278-1.047 3.196-1.86.922-.813 1.712-1.842 2.35-3.058.63-1.21 1.074-2.603 1.317-4.14l.09-.567h-5.315l-.083.377c-.21.952-.562 1.805-1.047 2.533-.477.715-1.082 1.275-1.802 1.665-.71.388-1.557.585-2.52.585-.785 0-1.5-.146-2.19-.448-.67-.29-1.244-.697-1.71-1.206-.352-.45-.627-.876-.816-1.27-.188-.39-.346-.94-.47-1.634-.124-.71-.21-1.526-.257-2.423-.045-.883-.066-2.108-.066-3.743 0-1.648.02-2.883.065-3.773.046-.904.132-1.72.258-2.424M181.333 5.09h7.902v26.037h5.264V5.09h7.88V0h-21.047"/></g></svg>