<?xml version="1.0" encoding="utf-8"?>
<!-- Generator: Adobe Illustrator 21.0.0, SVG Export Plug-In . SVG Version: 6.00 Build 0)  -->
<!DOCTYPE svg PUBLIC "-//W3C//DTD SVG 1.1//EN" "http://www.w3.org/Graphics/SVG/1.1/DTD/svg11.dtd">
<svg version="1.1" id="Layer_1" xmlns="http://www.w3.org/2000/svg" xmlns:xlink="http://www.w3.org/1999/xlink" x="0px" y="0px"
	 viewBox="0 0 180 55.001" enable-background="new 0 0 180 55.001" xml:space="preserve">
<g>
	<g>
		<g>
			<path fill="#939393" d="M72.925,0v33.296h34.151V0H72.925z M74.348,1.423h31.304v30.451H74.348V1.423z"/>
		</g>
		<path fill="#939393" d="M97.728,13.994c-0.206-0.093-0.481-0.138-0.825-0.138c-1.786,0-2.982,1.375-2.982,3.665
			c0,2.611,1.219,3.665,2.823,3.665c0.343,0,0.71-0.046,0.985-0.161L97.728,13.994L97.728,13.994z M91.355,17.636
			c0-3.321,2.136-5.91,5.64-5.91c0.297,0,0.458,0,0.733,0.023V8.044c0-0.093,0.068-0.138,0.138-0.138h2.285
			c0.115,0,0.138,0.046,0.138,0.115v13.006c0,0.39,0,0.871,0.068,1.397c0,0.093,0,0.115-0.091,0.161
			c-1.193,0.572-2.452,0.824-3.643,0.824C93.553,23.408,91.355,21.508,91.355,17.636z M86.498,15.322l3.986,7.722
			c0.068,0.115,0.023,0.229-0.091,0.229h-2.474c-0.161,0-0.229-0.046-0.299-0.184c-0.915-1.878-1.831-3.828-2.795-5.843h-0.023
			c-0.847,1.901-1.786,3.987-2.702,5.865c-0.07,0.115-0.138,0.161-0.253,0.161h-2.359c-0.137,0-0.161-0.114-0.091-0.206l3.895-7.493
			l-3.758-7.462c-0.091-0.115,0-0.206,0.093-0.206h2.45c0.138,0,0.206,0.023,0.253,0.161c0.892,1.878,1.809,3.751,2.656,5.652h0.023
			c0.825-1.878,1.742-3.773,2.611-5.629c0.07-0.115,0.115-0.184,0.253-0.184h2.291c0.114,0,0.159,0.091,0.091,0.206L86.498,15.322z"
			/>
	</g>
	<g>
		<path fill="#939393" d="M1.956,48.732l-1.05,2.947c-0.027,0.054-0.04,0.067-0.107,0.067H0.072c-0.067,0-0.081-0.027-0.067-0.094
			l3-8.289c0.041-0.094,0.067-0.175,0.081-0.471c0-0.041,0.027-0.067,0.067-0.067H4.23c0.054,0,0.067,0.013,0.081,0.054L7.5,51.651
			c0.014,0.067,0,0.094-0.054,0.094H6.625c-0.04,0-0.067-0.014-0.094-0.067l-1.063-2.946C5.468,48.732,1.956,48.732,1.956,48.732z
			 M5.212,47.898c-0.296-0.875-1.238-3.445-1.493-4.346H3.705c-0.242,0.861-0.929,2.745-1.494,4.346H5.212z"/>
		<path fill="#939393" d="M7.499,48.543c0-1.978,1.48-3.417,3.593-3.417c0.444,0,0.686,0.027,0.969,0.094v-3.082
			c0-0.054,0.027-0.08,0.067-0.08h0.767c0.067,0,0.067,0.027,0.067,0.08v8.625c0,0.148,0.014,0.336,0.027,0.538
			c0,0.054,0,0.067-0.054,0.094c-0.713,0.35-1.44,0.484-2.153,0.484C8.925,51.881,7.499,50.75,7.499,48.543z M12.06,46.068
			c-0.242-0.108-0.605-0.148-0.996-0.148c-1.668,0-2.637,1.144-2.637,2.584c0,1.87,1.198,2.57,2.436,2.57
			c0.377,0,0.861-0.054,1.198-0.202L12.06,46.068L12.06,46.068z"/>
		<path fill="#939393" d="M20.011,48.49c0,2.018-1.225,3.391-3.001,3.391c-2.113,0-3.027-1.763-3.027-3.378
			c0-1.911,1.211-3.377,3.027-3.377C18.841,45.126,20.011,46.525,20.011,48.49z M14.898,48.476c0,1.426,0.767,2.611,2.153,2.611
			c0.996,0,2.045-0.781,2.045-2.571c0-1.318-0.619-2.597-2.126-2.597C15.733,45.92,14.898,46.955,14.898,48.476z"/>
		<path fill="#939393" d="M21.894,42.058c0.054,0,0.081,0.013,0.081,0.08v3.283c0.457-0.201,0.969-0.296,1.547-0.296
			c1.83,0,3.027,1.305,3.027,3.122c0,2.395-1.803,3.633-3.646,3.633c-0.673,0-1.211-0.081-1.763-0.269
			c-0.054-0.013-0.067-0.067-0.067-0.107v-9.366c0-0.054,0.014-0.08,0.067-0.08H21.894L21.894,42.058z M23.388,45.92
			c-0.619,0-1.036,0.107-1.413,0.269v4.777c0.282,0.081,0.579,0.122,0.996,0.122c1.372,0,2.65-0.929,2.65-2.759
			C25.622,46.902,24.774,45.92,23.388,45.92z"/>
		<path fill="#939393" d="M28.03,48.53c-0.04,1.426,0.754,2.53,2.341,2.53c0.579,0,1.157-0.095,1.682-0.363
			c0.04-0.027,0.067,0,0.067,0.054v0.619c0,0.067-0.027,0.094-0.067,0.107c-0.417,0.243-1.023,0.404-1.843,0.404
			c-2.274,0-3.095-1.696-3.095-3.324c0-1.897,1.09-3.431,2.893-3.431c1.897,0,2.556,1.547,2.556,2.637
			c0,0.309-0.014,0.524-0.041,0.632c0,0.054-0.04,0.081-0.094,0.094c-0.202,0.027-0.821,0.041-1.386,0.041H28.03L28.03,48.53z
			 M30.761,47.83c0.727,0,0.875-0.014,0.929-0.027c0-0.041,0.014-0.122,0.014-0.161c0-0.538-0.336-1.749-1.722-1.749
			c-1.198,0-1.803,0.941-1.938,1.937H30.761L30.761,47.83z"/>
		<path fill="#939393" d="M41.898,51.666c-0.014,0.067-0.04,0.08-0.094,0.08h-5.005c-0.081,0-0.107-0.027-0.107-0.094v-8.733
			c0-0.067,0.027-0.094,0.094-0.094h4.79c0.067,0,0.08,0.013,0.094,0.08l0.094,0.673c0,0.054-0.014,0.081-0.081,0.081h-4.077v3.108
			h3.687c0.054,0,0.067,0.014,0.067,0.067v0.686c0,0.067-0.027,0.081-0.081,0.081h-3.673v3.31h4.346
			c0.067,0,0.081,0.014,0.067,0.081L41.898,51.666z"/>
		<path fill="#939393" d="M42.599,45.341c-0.027-0.041,0-0.094,0.04-0.094h0.888c0.067,0,0.094,0.027,0.121,0.067l1.695,2.637h0.014
			l1.763-2.637c0.027-0.041,0.041-0.067,0.108-0.067h0.794c0.067,0,0.081,0.054,0.04,0.094c-0.552,0.794-1.561,2.261-2.18,3.108
			c0.511,0.754,1.79,2.571,2.261,3.203c0.027,0.041,0.014,0.094-0.054,0.094h-0.902c-0.054,0-0.094-0.027-0.121-0.067l-1.79-2.678
			h-0.014l-1.776,2.692c-0.027,0.04-0.054,0.054-0.107,0.054h-0.807c-0.054,0-0.08-0.041-0.04-0.094
			c0.632-0.902,1.561-2.274,2.18-3.162L42.599,45.341z"/>
		<path fill="#939393" d="M54.473,48.261c0,2.436-1.924,3.62-3.795,3.62c-0.377,0-0.579-0.027-0.794-0.067v2.812
			c0,0.04,0,0.067-0.054,0.08c-0.242,0.027-0.74,0.081-0.78,0.094c-0.054,0-0.067-0.013-0.067-0.067v-8.531
			c0-0.094-0.014-0.323-0.027-0.498c0-0.013,0-0.04,0.027-0.054c0.404-0.161,1.265-0.525,2.395-0.525
			C53.288,45.126,54.473,46.417,54.473,48.261z M49.884,46.175v4.817c0.256,0.067,0.565,0.094,0.861,0.094
			c1.413,0,2.799-0.902,2.799-2.772c0-1.44-0.821-2.395-2.287-2.395C50.745,45.92,50.275,46.014,49.884,46.175z"/>
		<path fill="#939393" d="M56.221,48.53c-0.04,1.426,0.754,2.53,2.341,2.53c0.579,0,1.157-0.095,1.682-0.363
			c0.04-0.027,0.067,0,0.067,0.054v0.619c0,0.067-0.027,0.094-0.067,0.107c-0.417,0.243-1.023,0.404-1.843,0.404
			c-2.274,0-3.095-1.696-3.095-3.324c0-1.897,1.09-3.431,2.893-3.431c1.897,0,2.556,1.547,2.556,2.637
			c0,0.309-0.014,0.524-0.041,0.632c0,0.054-0.04,0.081-0.094,0.094c-0.202,0.027-0.821,0.041-1.386,0.041H56.221L56.221,48.53z
			 M58.952,47.83c0.727,0,0.875-0.014,0.929-0.027c0-0.041,0.014-0.122,0.014-0.161c0-0.538-0.336-1.749-1.722-1.749
			c-1.198,0-1.803,0.941-1.938,1.937H58.952L58.952,47.83z"/>
		<path fill="#939393" d="M62.598,45.247c0.067,0,0.081,0.027,0.108,0.08c0.04,0.161,0.081,0.7,0.094,0.982
			c0.471-0.672,1.332-1.184,2.18-1.184c0.054,0,0.081,0,0.081,0.067v0.794c0,0.054-0.014,0.067-0.081,0.067
			c-0.915,0-1.776,0.498-2.139,1.09l-0.014,4.522c0,0.067-0.014,0.08-0.067,0.08h-0.767c-0.067,0-0.067-0.027-0.067-0.08v-4.656
			c0-0.552-0.041-1.333-0.081-1.682c-0.014-0.054,0.014-0.08,0.054-0.08L62.598,45.247L62.598,45.247z"/>
		<path fill="#939393" d="M65.773,43.215c0-0.35,0.229-0.592,0.579-0.592c0.363,0,0.565,0.256,0.565,0.592
			c0,0.323-0.229,0.579-0.578,0.579C65.989,43.794,65.773,43.551,65.773,43.215z M65.895,45.327c0-0.054,0.014-0.08,0.067-0.08
			h0.754c0.054,0,0.081,0.013,0.081,0.08v6.338c0,0.054-0.014,0.08-0.081,0.08h-0.727c-0.081,0-0.094-0.027-0.094-0.094V45.327z"/>
		<path fill="#939393" d="M68.935,48.53c-0.04,1.426,0.754,2.53,2.341,2.53c0.579,0,1.157-0.095,1.682-0.363
			c0.04-0.027,0.067,0,0.067,0.054v0.619c0,0.067-0.027,0.094-0.067,0.107c-0.417,0.243-1.023,0.404-1.843,0.404
			c-2.274,0-3.095-1.696-3.095-3.324c0-1.897,1.09-3.431,2.893-3.431c1.897,0,2.556,1.547,2.556,2.637
			c0,0.309-0.014,0.524-0.041,0.632c0,0.054-0.04,0.081-0.094,0.094c-0.202,0.027-0.821,0.041-1.386,0.041H68.935L68.935,48.53z
			 M71.667,47.83c0.727,0,0.875-0.014,0.929-0.027c0-0.041,0.014-0.122,0.014-0.161c0-0.538-0.336-1.749-1.722-1.749
			c-1.197,0-1.803,0.941-1.938,1.937H71.667L71.667,47.83z"/>
		<path fill="#939393" d="M74.639,46.767c0-0.471-0.04-1.238-0.054-1.44c0-0.054,0.014-0.08,0.081-0.08h0.659
			c0.067,0,0.094,0.027,0.108,0.08c0.027,0.121,0.054,0.404,0.067,0.727c0.605-0.619,1.319-0.928,2.113-0.928
			c0.929,0,2.166,0.43,2.166,2.556v3.984c0,0.054-0.027,0.08-0.094,0.08h-0.727c-0.067,0-0.095-0.027-0.095-0.094v-3.889
			c0-1.063-0.471-1.83-1.48-1.83c-0.753,0-1.372,0.35-1.843,0.942v4.79c0,0.054-0.014,0.08-0.081,0.08h-0.74
			c-0.067,0-0.081-0.027-0.081-0.08v-4.898H74.639z"/>
		<path fill="#939393" d="M85.773,51.571c0,0.054-0.014,0.081-0.054,0.095c-0.444,0.175-0.969,0.215-1.453,0.215
			c-2.193,0-3.27-1.588-3.27-3.351c0-1.951,1.372-3.404,3.445-3.404c0.686,0,1.063,0.08,1.278,0.175
			c0.041,0.014,0.054,0.054,0.054,0.108v0.686c0,0.067-0.04,0.067-0.081,0.054c-0.363-0.161-0.713-0.215-1.278-0.215
			c-1.467,0-2.489,1.01-2.489,2.556c0,1.682,1.131,2.557,2.476,2.557c0.511,0,0.929-0.054,1.292-0.188
			c0.054-0.014,0.081,0,0.081,0.054L85.773,51.571L85.773,51.571z"/>
		<path fill="#939393" d="M87.148,48.53c-0.04,1.426,0.754,2.53,2.341,2.53c0.579,0,1.157-0.095,1.682-0.363
			c0.04-0.027,0.067,0,0.067,0.054v0.619c0,0.067-0.027,0.094-0.067,0.107c-0.417,0.243-1.023,0.404-1.843,0.404
			c-2.274,0-3.095-1.696-3.095-3.324c0-1.897,1.09-3.431,2.893-3.431c1.897,0,2.556,1.547,2.556,2.637
			c0,0.309-0.014,0.524-0.041,0.632c0,0.054-0.04,0.081-0.094,0.094c-0.202,0.027-0.821,0.041-1.386,0.041H87.148L87.148,48.53z
			 M89.879,47.83c0.727,0,0.875-0.014,0.929-0.027c0-0.041,0.014-0.122,0.014-0.161c0-0.538-0.336-1.749-1.722-1.749
			c-1.198,0-1.803,0.941-1.938,1.937H89.879L89.879,47.83z"/>
		<path fill="#939393" d="M96.175,42.946c0-0.067,0.014-0.094,0.081-0.108c0.323-0.013,0.915-0.04,2.274-0.04
			c2.987,0,4.656,1.762,4.656,4.333c0,3.458-2.584,4.642-4.831,4.642c-0.727,0-1.641-0.013-2.113-0.027
			c-0.04,0-0.067-0.027-0.067-0.108V42.946L96.175,42.946z M97.091,50.939c0.256,0.014,0.794,0.027,1.224,0.027
			c2.288,0,3.943-1.238,3.943-3.822c0-2.368-1.628-3.539-3.754-3.539c-0.498,0-1.009,0.014-1.412,0.027L97.091,50.939L97.091,50.939
			z"/>
		<path fill="#939393" d="M105.012,48.53c-0.041,1.426,0.753,2.53,2.342,2.53c0.579,0,1.157-0.095,1.682-0.363
			c0.041-0.027,0.067,0,0.067,0.054v0.619c0,0.067-0.027,0.094-0.067,0.107c-0.418,0.243-1.023,0.404-1.844,0.404
			c-2.274,0-3.095-1.696-3.095-3.324c0-1.897,1.09-3.431,2.893-3.431c1.898,0,2.557,1.547,2.557,2.637
			c0,0.309-0.014,0.524-0.041,0.632c0,0.054-0.041,0.081-0.094,0.094c-0.202,0.027-0.821,0.041-1.386,0.041H105.012L105.012,48.53z
			 M107.744,47.83c0.727,0,0.875-0.014,0.929-0.027c0-0.041,0.014-0.122,0.014-0.161c0-0.538-0.336-1.749-1.722-1.749
			c-1.198,0-1.803,0.941-1.937,1.937H107.744L107.744,47.83z"/>
		<path fill="#939393" d="M112.49,45.893c-0.955,0-1.291,0.484-1.291,0.928c0,0.458,0.256,0.781,1.346,1.211
			c1.278,0.498,1.843,1.023,1.843,1.992c0,1.211-1.023,1.857-2.301,1.857c-0.727,0-1.372-0.161-1.763-0.39
			c-0.041-0.041-0.067-0.054-0.067-0.121v-0.74c0-0.067,0.041-0.081,0.081-0.054c0.511,0.363,1.17,0.524,1.776,0.524
			c0.915,0,1.386-0.43,1.386-0.996c0-0.565-0.337-0.874-1.305-1.278c-1.278-0.498-1.857-1.023-1.857-1.951
			c0-0.969,0.794-1.749,2.18-1.749c0.713,0,1.252,0.134,1.521,0.282c0.054,0.04,0.054,0.08,0.054,0.121v0.686
			c0,0.067-0.027,0.094-0.08,0.054C113.648,46.041,113.042,45.893,112.49,45.893z"/>
		<path fill="#939393" d="M115.386,43.215c0-0.35,0.228-0.592,0.578-0.592c0.363,0,0.565,0.256,0.565,0.592
			c0,0.323-0.229,0.579-0.579,0.579C115.601,43.794,115.386,43.551,115.386,43.215z M115.507,45.327c0-0.054,0.013-0.08,0.067-0.08
			h0.753c0.054,0,0.081,0.013,0.081,0.08v6.338c0,0.054-0.014,0.08-0.081,0.08H115.6c-0.081,0-0.094-0.027-0.094-0.094
			L115.507,45.327L115.507,45.327z"/>
		<path fill="#939393" d="M120.875,50.764c1.601,0.094,2.597,0.632,2.597,1.87c0,1.319-1.251,2.368-3.175,2.368
			c-1.911,0-2.893-1.036-2.893-2.045c0-0.471,0.39-1.09,1.332-1.884c-0.215-0.296-0.323-0.633-0.323-0.996
			c0-0.296,0.067-0.592,0.215-0.848c-0.551-0.377-0.901-0.982-0.901-1.83c0-1.252,0.901-2.273,2.435-2.273
			c0.404,0,0.713,0.04,0.942,0.094c0.107,0.027,0.188,0.027,0.269,0.027h1.924c0.054,0,0.067,0.027,0.067,0.08v0.619
			c0,0.054-0.014,0.08-0.081,0.08c-0.39,0-0.995-0.013-1.332-0.04c0.282,0.269,0.552,0.739,0.552,1.426
			c0,1.48-1.076,2.234-2.368,2.234c-0.282,0-0.552-0.041-0.807-0.108c-0.08,0.175-0.107,0.363-0.094,0.552
			c0.027,0.215,0.122,0.43,0.269,0.606L120.875,50.764z M119.301,51.504c-0.632,0.43-1.036,1.063-1.036,1.399
			c0,0.673,0.794,1.372,2.085,1.372c1.561,0,2.274-0.794,2.274-1.534c0-0.875-0.915-1.104-1.937-1.157L119.301,51.504z
			 M118.615,47.386c0,0.901,0.538,1.547,1.52,1.547c0.915,0,1.493-0.552,1.493-1.534c0-0.834-0.457-1.574-1.48-1.574
			C119.233,45.826,118.615,46.458,118.615,47.386z"/>
		<path fill="#939393" d="M124.291,46.767c0-0.471-0.041-1.238-0.054-1.44c0-0.054,0.013-0.08,0.08-0.08h0.66
			c0.067,0,0.094,0.027,0.107,0.08c0.027,0.121,0.054,0.404,0.067,0.727c0.605-0.619,1.319-0.928,2.113-0.928
			c0.929,0,2.166,0.43,2.166,2.556v3.984c0,0.054-0.027,0.08-0.094,0.08h-0.727c-0.067,0-0.094-0.027-0.094-0.094v-3.889
			c0-1.063-0.471-1.83-1.48-1.83c-0.753,0-1.372,0.35-1.843,0.942v4.79c0,0.054-0.014,0.08-0.081,0.08h-0.739
			c-0.067,0-0.081-0.027-0.081-0.08L124.291,46.767L124.291,46.767z"/>
		<path fill="#939393" d="M140.315,51.504c0,0.067-0.027,0.107-0.067,0.121c-0.43,0.188-1.036,0.256-1.789,0.256
			c-2.153,0-4.535-1.238-4.535-4.629c0-2.678,1.87-4.561,4.695-4.561c0.902,0,1.427,0.108,1.709,0.242
			c0.041,0.014,0.054,0.054,0.054,0.108v0.727c0,0.081-0.041,0.081-0.08,0.054c-0.35-0.188-0.955-0.309-1.722-0.309
			c-2.194,0-3.727,1.454-3.727,3.714c0,3.027,2.287,3.808,3.686,3.808c0.686,0,1.197-0.04,1.695-0.228
			c0.041-0.027,0.08-0.027,0.08,0.04L140.315,51.504L140.315,51.504z"/>
		<path fill="#939393" d="M147.029,51.504c0,0.067-0.027,0.107-0.067,0.121c-0.43,0.188-1.036,0.256-1.789,0.256
			c-2.153,0-4.535-1.238-4.535-4.629c0-2.678,1.87-4.561,4.695-4.561c0.902,0,1.427,0.108,1.709,0.242
			c0.041,0.014,0.054,0.054,0.054,0.108v0.727c0,0.081-0.041,0.081-0.08,0.054c-0.35-0.188-0.955-0.309-1.722-0.309
			c-2.193,0-3.727,1.454-3.727,3.714c0,3.027,2.287,3.808,3.686,3.808c0.686,0,1.197-0.04,1.695-0.228
			c0.041-0.027,0.08-0.027,0.08,0.04L147.029,51.504L147.029,51.504z"/>
		<path fill="#939393" d="M153.339,41.533c0.027-0.041,0.054-0.067,0.107-0.067h0.767c0.054,0,0.081,0.041,0.054,0.094
			c-1.48,1.79-2.315,3.822-2.315,6.19c0,2.382,0.834,4.414,2.315,6.217c0.027,0.041,0,0.081-0.054,0.081h-0.767
			c-0.054,0-0.08-0.027-0.107-0.054c-1.05-1.211-2.247-3.31-2.247-6.23C151.091,44.83,152.302,42.731,153.339,41.533z"/>
		<path fill="#939393" d="M155.029,42.946c0-0.067,0.014-0.094,0.054-0.108c0.525-0.013,1.493-0.04,2.207-0.04
			c2.664,0,3,1.507,3,2.3c0,1.036-0.605,1.628-0.982,1.884c0.565,0.243,1.454,0.848,1.454,2.139c0,1.817-1.574,2.651-3.539,2.651
			c-0.807,0.014-1.601-0.013-2.113-0.027c-0.067-0.014-0.081-0.041-0.081-0.094V42.946L155.029,42.946z M155.931,46.606h1.346
			c0.538,0,1.076,0.054,1.278,0.094c0.43-0.269,0.834-0.74,0.834-1.493c0-1.103-0.807-1.614-2.153-1.614
			c-0.457,0-1.063,0.013-1.305,0.027V46.606z M155.931,50.952c0.296,0.013,0.767,0.027,1.184,0.027
			c1.588,0.027,2.718-0.552,2.718-1.831c0-0.807-0.471-1.386-1.359-1.628c-0.309-0.08-0.7-0.107-1.103-0.107h-1.44L155.931,50.952
			L155.931,50.952z"/>
		<path fill="#939393" d="M162.606,48.53c-0.041,1.426,0.754,2.53,2.342,2.53c0.579,0,1.157-0.095,1.682-0.363
			c0.041-0.027,0.067,0,0.067,0.054v0.619c0,0.067-0.027,0.094-0.067,0.107c-0.417,0.243-1.023,0.404-1.843,0.404
			c-2.274,0-3.095-1.696-3.095-3.324c0-1.897,1.09-3.431,2.893-3.431c1.897,0,2.556,1.547,2.556,2.637
			c0,0.309-0.014,0.524-0.041,0.632c0,0.054-0.041,0.081-0.094,0.094c-0.201,0.027-0.821,0.041-1.386,0.041H162.606L162.606,48.53z
			 M165.338,47.83c0.727,0,0.875-0.014,0.929-0.027c0-0.041,0.014-0.122,0.014-0.161c0-0.538-0.337-1.749-1.722-1.749
			c-1.197,0-1.803,0.941-1.937,1.937H165.338L165.338,47.83z"/>
		<path fill="#939393" d="M171.103,51.571c0,0.054,0,0.095-0.054,0.108c-0.296,0.148-0.646,0.202-0.969,0.202
			c-0.929,0-1.493-0.444-1.493-1.71V46.04h-0.955c-0.067,0-0.081-0.041-0.081-0.094v-0.619c0-0.054,0.014-0.08,0.081-0.08h0.955
			c0.013-0.498,0.054-1.467,0.121-1.749c0.013-0.054,0.027-0.081,0.067-0.094l0.739-0.122c0.041-0.013,0.081,0,0.081,0.041
			c-0.054,0.484-0.094,1.265-0.094,1.924h1.467c0.067,0,0.08,0.027,0.08,0.094v0.632c0,0.054-0.027,0.067-0.08,0.067h-1.467v4.05
			c0,0.633,0.242,0.996,0.848,0.996c0.216,0,0.431-0.027,0.686-0.135c0.041,0,0.067,0,0.067,0.054L171.103,51.571L171.103,51.571z"
			/>
		<path fill="#939393" d="M176.451,50.696c0,0.202,0.014,0.377,0.027,0.565c0,0.027,0,0.041-0.027,0.054
			c-0.902,0.445-1.655,0.565-2.395,0.565c-1.399,0-2.422-0.7-2.422-2.072c0-1.427,1.346-2.032,2.974-2.032
			c0.538,0,0.821,0.027,0.955,0.041v-0.39c0-0.457-0.202-1.493-1.574-1.493c-0.632,0-1.224,0.148-1.682,0.404
			c-0.041,0.013-0.08,0-0.08-0.054v-0.659c0-0.054,0.013-0.081,0.054-0.094c0.498-0.256,1.13-0.403,1.857-0.403
			c1.655,0,2.314,1.103,2.314,2.462L176.451,50.696L176.451,50.696z M175.563,48.557c-0.161-0.027-0.484-0.054-0.929-0.054
			c-1.413,0-2.113,0.471-2.113,1.305c0,0.646,0.431,1.318,1.709,1.318c0.484,0,0.915-0.08,1.332-0.269L175.563,48.557
			L175.563,48.557z"/>
		<path fill="#939393" d="M177.753,53.993c-0.027,0.027-0.054,0.054-0.094,0.054h-0.78c-0.054,0-0.081-0.041-0.041-0.081
			c1.467-1.803,2.301-3.835,2.301-6.203c0-2.382-0.834-4.414-2.301-6.203c-0.041-0.054-0.014-0.094,0.041-0.094h0.78
			c0.041,0,0.067,0.027,0.094,0.067c1.05,1.198,2.247,3.297,2.247,6.243C180,50.696,178.789,52.782,177.753,53.993z"/>
	</g>
</g>
</svg>
