<?xml version="1.0" encoding="UTF-8"?>
<svg width="181px" height="46px" viewBox="0 0 181 46" version="1.1" xmlns="http://www.w3.org/2000/svg" xmlns:xlink="http://www.w3.org/1999/xlink">
    <!-- Generator: Sketch 53.1 (72631) - https://sketchapp.com -->
    <title>abstract-black-wordmark-rgb</title>
    <desc>Created with Sketch.</desc>
    <g id="Page-1" stroke="none" stroke-width="1" fill="none" fill-rule="evenodd">
        <g id="abstract-black-wordmark-rgb" fill-rule="nonzero">
            <path d="M64.1684637,26.0807895 C66.3061518,20.1128947 67.1684888,17.6994079 67.9597208,15.2496053 C69.0974005,18.8025 70.2698763,22.1148026 71.6496155,26.0807895 L64.1684637,26.0807895 Z M65.6510782,10.8705263 L56.4104564,35.21875 L61.1336426,35.21875 L63.1003761,29.5277632 L72.7237546,29.5277632 L74.6556921,35.21875 L79.4121615,35.21875 L70.5119358,10.8705263 L65.6510782,10.8705263 Z M89.0794132,32.1848684 C86.5271983,32.1848684 85.0430709,30.0815789 85.0430709,26.4242763 C85.0430709,23.1498026 86.7692578,21.0798026 89.2155717,21.0798026 C91.5257272,21.0798026 92.9402625,23.1830921 92.9402625,26.6315789 C92.9402625,30.2888816 91.4576479,32.1848684 89.0794132,32.1848684 L89.0794132,32.1848684 Z M85.1550234,20.355 L85.1550234,10.8720395 L81.1126296,10.8720395 L81.1126296,35.2202632 L84.9780174,35.2202632 L84.9780174,32.9777632 C86.152006,34.6679605 87.7359829,35.5652632 90.0809345,35.5652632 C94.3169759,35.5652632 97.1505851,32.2529605 97.1505851,26.6376316 C97.1505851,21.0510526 94.5650869,17.71 90.5287446,17.71 C88.4171118,17.686038 86.4212034,18.6729342 85.1580491,20.3655921 L85.1550234,20.355 Z M105.627207,20.6379605 C107.291366,20.6379605 108.595461,21.5352632 109.457798,23.0590132 L112.462362,21.0207895 C110.94949,18.5997368 108.424507,17.5677632 105.696799,17.5677632 C101.448654,17.5677632 99.0401622,20.0538816 99.0401622,22.7473026 C99.0401622,25.3711184 100.731553,26.9251316 103.389669,27.7543421 L105.218731,28.3414474 C107.808768,29.1706579 108.395762,29.6533553 108.395762,30.7927632 C108.395762,31.8292763 107.429037,32.5888816 105.672593,32.5888816 C103.772426,32.5888816 102.185423,31.5523684 101.285264,29.7910526 L98.1400033,31.8595395 C99.5893347,34.0354605 101.972108,35.7271711 105.494074,35.7271711 C109.775502,35.7271711 112.432105,33.4135526 112.432105,30.2374342 C112.432105,27.4744079 110.705918,26.0596053 107.669584,25.0926974 L105.839009,24.5419079 C103.628703,23.8503947 103.076505,23.3676974 103.076505,22.3311842 C103.076505,21.3294737 103.905558,20.6394737 105.631745,20.6394737 L105.627207,20.6379605 Z M120.636409,21.2931579 L123.964728,21.2931579 L123.964728,18.0580263 L120.636409,18.0580263 L120.636409,12.4442105 L116.619734,12.4442105 L116.550142,18.0580263 L113.855717,18.0580263 L113.855717,21.2931579 L116.550142,21.2931579 L116.550142,30.7019737 C116.550142,32.2938158 116.792202,33.5028289 117.51838,34.3335526 C118.209763,35.1642763 119.350468,35.5788816 121.043372,35.5788816 C122.057887,35.5778655 123.06828,35.4497633 124.050961,35.1975658 L124.050961,31.9805921 C123.518233,32.1794218 122.955349,32.2853663 122.386802,32.2938158 C121.143221,32.2938158 120.631871,31.6703947 120.631871,29.9075658 L120.636409,21.2931579 Z M130.114552,18.0580263 L126.250677,18.0580263 L126.250677,35.3080263 L130.293071,35.3080263 L130.293071,27.2671053 C130.293071,25.4271053 130.595645,24.2135526 131.191717,23.3147368 C131.948153,22.2373684 133.007163,21.5882237 134.874047,21.6078947 C135.376211,21.613819 135.875143,21.6891822 136.356662,21.8318421 L136.356662,18.0580263 C135.877316,17.905818 135.376955,17.8302389 134.874047,17.8340789 C132.4943,17.8340789 131.147844,18.8388158 130.114552,20.7090789 L130.114552,18.0580263 Z M148.001237,27.9934211 C147.966441,28.9618421 147.793974,29.92875 147.244801,30.7171053 C146.488365,31.8580263 145.206963,32.5147368 143.65173,32.5147368 C141.855951,32.5147368 141.026897,31.5811184 141.026897,30.3373026 C141.026897,29.3703947 141.441424,28.7121711 142.512538,28.2294737 C143.722835,27.6423684 146.036016,27.2973684 148.005776,27.1929605 L148.001237,27.9934211 Z M151.851496,24.3618421 C151.851496,21.6653947 151.48992,20.2490789 150.418806,19.2458553 C149.278101,18.14125 147.621506,17.5813816 145.275042,17.5813816 C140.887713,17.5813816 138.117645,19.6559211 137.842302,23.3873684 L141.710715,23.7565789 C141.917979,21.8545395 142.851421,20.7847368 144.958852,20.7847368 C146.028452,20.7847368 146.857506,21.0253289 147.341625,21.5095395 C147.795486,21.9634868 147.998211,22.6141447 147.998211,23.5825658 L147.998211,24.5131579 C145.275042,24.6856579 141.946724,25.1698684 140.259871,25.9294737 C138.222033,26.8615789 137.117636,28.3126974 137.117636,30.5249342 C137.117636,33.5996711 139.327942,35.5713158 142.470177,35.5713158 C144.922543,35.5713158 146.786401,34.7073026 148.099574,33.1184868 C148.473253,34.8374342 149.683551,35.4729605 151.845445,35.4729605 C152.471414,35.4857213 153.095006,35.3920881 153.689636,35.1960526 L153.689636,32.5692105 C152.131377,32.8491447 151.859061,31.9367105 151.84847,30.59 L151.851496,24.3618421 Z M158.688164,26.5347368 C158.688164,22.7049342 160.483943,20.9451316 162.830408,20.9451316 C164.453719,20.9451316 165.695787,21.7017105 166.178394,23.9820395 L169.809286,22.7397368 C169.015028,19.6695395 166.668564,17.5647368 162.939335,17.5647368 C157.79557,17.5647368 154.551973,20.9799342 154.551973,26.6043421 C154.551973,32.2620395 157.729004,35.7135526 162.732071,35.7135526 C166.633768,35.7135526 168.912153,33.6420395 169.912161,30.7791447 L166.288833,29.5368421 C165.874306,31.3647368 164.775961,32.3316447 162.939335,32.3316447 C160.282732,32.3316447 158.694216,30.33125 158.694216,26.5347368 L158.688164,26.5347368 Z M177.586961,21.2931579 L180.915279,21.2931579 L180.915279,18.0580263 L177.586961,18.0580263 L177.586961,12.4442105 L173.570286,12.4442105 L173.499181,18.0580263 L170.804756,18.0580263 L170.804756,21.2931579 L173.499181,21.2931579 L173.499181,30.7019737 C173.499181,32.2938158 173.742753,33.5028289 174.468932,34.3335526 C175.158801,35.1642763 176.30102,35.5788816 177.993923,35.5788816 C179.007946,35.5779618 180.017851,35.449857 181,35.1975658 L181,31.9805921 C180.467353,32.1797119 179.904418,32.285666 179.335841,32.2938158 C178.090747,32.2938158 177.580909,31.6703947 177.580909,29.9075658 L177.586961,21.2931579 Z M22.9956536,46 C41.3921765,46 45.9913073,41.4 45.9913073,23 C45.9913073,4.6 41.3921765,0 22.9956536,0 C4.59913073,0 0,4.6 0,23 C0,41.4 4.59913073,46 22.9956536,46 L22.9956536,46 Z" id="Shape" fill="#939393"></path>
            <polygon id="Path" fill="#FFFFFF" points="35 36 30.7647059 36 30.7647059 15.4117647 11 15.4117647 11 11 35 11"></polygon>
            <path d="M19.5001242,35 C16.0621125,34.9999999 12.962657,32.807085 11.6471233,29.4438747 C10.3315897,26.0806644 11.0590708,22.2095392 13.4903211,19.6357165 C15.9215714,17.0618938 19.577759,16.2922851 22.7538981,17.6857811 C25.9300371,19.0792771 28.0005907,22.3614304 27.9999999,26.0016781 C27.9943642,30.969444 24.1919039,34.9948866 19.5001242,35 M19.5001242,21.409719 C17.104948,21.409719 15.163274,23.4656091 15.163274,26.0016781 C15.163274,28.537747 17.104948,30.5936371 19.5001242,30.5936371 C21.8953004,30.5936371 23.8369743,28.537747 23.8369743,26.0016781 C23.8337557,23.4670221 21.8939659,21.413127 19.5001242,21.409719" id="Shape" fill="#FFFFFF"></path>
        </g>
    </g>
</svg>