<?xml version="1.0" encoding="UTF-8"?>
<svg width="128px" height="52px" viewBox="0 0 128 52" version="1.1" xmlns="http://www.w3.org/2000/svg" xmlns:xlink="http://www.w3.org/1999/xlink">
    <!-- Generator: Sketch 51.2 (57519) - http://www.bohemiancoding.com/sketch -->
    <title>alphahq</title>
    <desc>Created with Sketch.</desc>
    <defs>
        <polygon id="path-1" points="0.1958 0.2089 13 0.2089 13 12.0629 0.1958 12.0629"></polygon>
    </defs>
    <g id="Page-1" stroke="none" stroke-width="1" fill="none" fill-rule="evenodd">
        <g id="alphahq">
            <polygon id="Fill-1" fill="#E9E9E9" points="34.291 51.4381 51.438 51.4381 51.438 34.2931 34.291 34.2931"></polygon>
            <polygon id="Fill-2" fill="#CECECE" points="17.145 51.4381 34.292 51.4381 34.292 34.2931 17.145 34.2931"></polygon>
            <polygon id="Fill-3" fill="#C1C1C1" points="0 51.4381 17.146 51.4381 17.146 34.2931 0 34.2931"></polygon>
            <polygon id="Fill-4" fill="#D9D9D9" points="34.291 34.2931 51.437 34.2931 51.437 17.1471 34.291 17.1471"></polygon>
            <polygon id="Fill-5" fill="#BEBEBE" points="17.146 34.2931 34.292 34.2931 34.292 17.1471 17.146 17.1471"></polygon>
            <polygon id="Fill-6" fill="#B2B2B2" points="0 34.2931 17.146 34.2931 17.146 17.1461 0 17.1461"></polygon>
            <polygon id="Fill-7" fill="#B2B2B2" points="34.291 17.1461 51.438 17.1461 51.438 0.0001 34.291 0.0001"></polygon>
            <polygon id="Fill-8" fill="#C9C8C8" points="17.145 17.1461 34.292 17.1461 34.292 0.0001 17.145 0.0001"></polygon>
            <polygon id="Fill-9" fill="#D9D9D9" points="0 17.1461 17.146 17.1461 17.146 0.0001 0 0.0001"></polygon>
            <g id="Group-23" transform="translate(14.000000, 11.439100)">
                <path d="M17.0672,12.4527 C16.2002,9.4847 15.2322,7.1677 14.1632,5.4987 C13.0942,3.8307 11.8132,2.9957 10.3202,2.9957 C6.9462,2.9957 5.2592,6.9407 5.2592,14.8317 C5.2592,22.3157 6.8722,26.0577 10.0992,26.0577 C12.9012,26.0577 14.9752,22.7587 16.3202,16.1577 L17.0672,12.4527 Z M19.5002,1.6137 L24.2012,1.6137 L21.3532,14.4167 C20.8002,16.8487 20.4212,18.3437 20.2192,18.8957 C20.9562,22.2877 22.0252,23.9837 23.4272,23.9837 C25.0862,23.9837 25.9432,22.8417 25.9982,20.5557 L26.9942,20.5557 C26.9392,22.6937 26.5472,24.4217 25.8182,25.7397 C25.0902,27.0567 24.1362,27.7167 22.9572,27.7167 C21.9792,27.7167 21.2512,27.3197 20.7722,26.5277 C20.2932,25.7347 19.7772,24.1127 19.2242,21.6607 C17.3062,25.6987 14.1722,27.7167 9.8222,27.7167 C6.8542,27.7167 4.4942,26.5597 2.7432,24.2467 C0.9922,21.9327 0.1162,18.6187 0.1162,14.3057 C0.1162,10.0657 1.0752,6.7657 2.9922,4.4067 C4.9092,2.0467 7.2132,0.8667 9.9052,0.8667 C11.8032,0.8667 13.3612,1.5407 14.5782,2.8857 C15.7952,4.2307 16.8732,6.4247 17.8142,9.4667 L19.5002,1.6137 Z" id="Fill-10" fill="#FFFFFF"></path>
                <path d="M55.5081,10.7359 L54.0161,14.1789 L56.9851,14.1789 L55.5081,10.7359 Z M59.0871,19.0629 L57.9851,16.5019 L53.0161,16.5019 L51.9131,19.0629 L49.0981,19.0629 L54.2201,7.2089 L56.7801,7.2089 L61.9031,19.0629 L59.0871,19.0629 Z" id="Fill-12" fill="#939393"></path>
                <polygon id="Fill-14" fill="#939393" points="64.6331 19.063 64.6331 7.209 67.2781 7.209 67.2781 16.706 72.3321 16.706 72.3321 19.063"></polygon>
                <path d="M81.846,12.9322 C82.162,12.5762 82.321,12.0562 82.321,11.3712 C82.321,10.6882 82.115,10.2022 81.701,9.9132 C81.289,9.6242 80.647,9.4812 79.777,9.4812 L78.267,9.4812 L78.267,13.4662 L80.048,13.4662 C80.93,13.4662 81.529,13.2882 81.846,12.9322 M83.787,8.2682 C84.618,8.9752 85.034,10.0602 85.034,11.5252 C85.034,12.9892 84.608,14.0602 83.753,14.7392 C82.9,15.4162 81.597,15.7552 79.845,15.7552 L78.267,15.7552 L78.267,19.0632 L75.622,19.0632 L75.622,7.2082 L79.811,7.2082 C81.631,7.2082 82.957,7.5622 83.787,8.2682" id="Fill-16" fill="#939393"></path>
                <polygon id="Fill-18" fill="#939393" points="95.8197 7.2085 98.4657 7.2085 98.4657 19.0625 95.8197 19.0625 95.8197 14.3985 91.1047 14.3985 91.1047 19.0625 88.4597 19.0625 88.4597 7.2085 91.1047 7.2085 91.1047 12.1605 95.8197 12.1605"></polygon>
                <g id="Group-22" transform="translate(101.000000, 7.000000)">
                    <mask id="mask-2" fill="white">
                        <use xlink:href="#path-1"></use>
                    </mask>
                    <g id="Clip-21"></g>
                    <path d="M6.6058,3.7359 L5.1138,7.1789 L8.0828,7.1789 L6.6058,3.7359 Z M10.1838,12.0629 L9.0828,9.5019 L4.1138,9.5019 L3.0108,12.0629 L0.1958,12.0629 L5.3178,0.2089 L7.8778,0.2089 L13.0008,12.0629 L10.1838,12.0629 Z" id="Fill-20" fill="#939393" mask="url(#mask-2)"></path>
                </g>
            </g>
        </g>
    </g>
</svg>