<?xml version="1.0" encoding="UTF-8"?>
<svg width="225px" height="45px" viewBox="0 0 225 45" version="1.1" xmlns="http://www.w3.org/2000/svg" xmlns:xlink="http://www.w3.org/1999/xlink">
    <!-- Generator: Sketch 49.3 (51167) - http://www.bohemiancoding.com/sketch -->
    <title>ancestry</title>
    <desc>Created with Sketch.</desc>
    <defs>
        <path d="M49.855,0 L51.073,0 L50.92,0.292 L53.305,0.146 L53.779,0.146 L53.914,0.215 C53.846,0.796 53.846,1.226 53.846,1.516 L53.712,2.961 L53.643,6.493 L53.509,10.027 L53.576,12.191 L53.445,15.073 L53.576,16.439 L53.576,19.395 L53.509,19.979 C53.509,20.123 53.509,20.483 53.576,21.056 L53.576,22.793 L53.643,26.612 L53.643,27.331 C53.643,27.694 53.643,27.981 53.576,28.269 L53.445,29.565 L53.509,32.235 L53.509,34.398 C53.371,37.136 53.509,39.448 53.779,41.031 C53.914,41.969 54.051,42.763 53.981,43.34 C53.981,43.555 53.914,43.699 53.846,43.914 C53.712,44.13 53.643,44.274 53.576,44.274 L50.805,44.13 L50.129,44.13 C49.923,44.13 49.719,43.99 49.45,43.699 L49.45,42.982 C49.514,42.26 49.584,41.753 49.584,41.393 L49.855,39.515 C49.855,39.448 49.923,39.227 49.923,38.942 L49.989,38.871 L49.989,38.726 L50.193,34.977 C50.193,34.977 50.193,34.977 50.193,34.905 L50.129,34.544 L50.193,33.964 L50.26,29.641 L50.328,28.988 L50.26,28.2 L50.396,26.684 C50.396,26.612 50.396,26.468 50.328,26.251 L50.396,26.251 C50.328,25.965 50.328,25.744 50.328,25.455 C50.328,25.311 50.328,24.95 50.396,24.591 L50.328,24.591 C49.514,24.373 49.243,24.373 48.839,24.373 C49.178,24.373 47.008,24.228 46.938,24.228 L46.128,24.228 L46.128,25.098 L45.583,26.977 L45.451,28.2 L44.359,31.66 L44.023,33.099 L43.279,34.977 C43.077,35.555 42.873,35.913 42.805,35.984 L42.396,36.272 L41.924,36.995 L41.244,37.714 L40.769,38.508 C40.704,38.579 40.362,38.942 39.821,39.448 L38.666,40.599 C38.601,40.599 38.465,40.74 38.125,40.957 C36.906,41.683 35.689,42.332 34.396,42.905 C32.092,43.914 30.535,44.274 27.552,44.635 C24.364,45 24.026,45 19.959,45 L19.486,45 C19.486,44.06 19.552,43.699 19.686,43.269 L19.959,42.26 L20.228,40.526 L21.316,38.225 L21.79,36.707 C21.856,36.559 21.923,36.491 22.262,35.913 C22.534,35.482 22.805,35.048 23.08,34.614 C23.146,34.544 23.213,34.398 23.344,34.179 C23.483,33.893 23.619,33.678 23.685,33.604 L24.569,32.596 C24.638,32.521 24.773,32.309 24.906,32.023 C25.182,31.804 25.249,31.729 25.314,31.373 L25.856,30.791 L26.059,30.719 L26.127,30.505 L26.263,30.505 C26.602,30.068 26.669,29.926 27.145,29.641 C27.346,29.346 27.482,29.28 27.821,28.988 L27.821,28.844 L27.957,28.844 L27.957,28.775 L28.093,28.7 L28.093,28.631 C28.298,28.486 28.434,28.414 28.5,28.338 L29.922,27.191 L31.348,26.395 C31.414,26.322 31.552,26.251 31.687,26.176 L31.755,26.105 L32.026,25.965 L32.026,25.888 C32.365,25.671 32.433,25.671 32.703,25.671 L32.703,25.603 L32.771,25.603 C33.11,25.098 33.11,25.098 33.786,24.88 L35.144,24.446 C35.213,24.373 35.346,24.373 35.55,24.302 L35.55,24.228 L34.739,24.228 L32.637,24.158 L30.264,24.228 L27.957,24.228 L28.181,20.735 C28.237,20.746 28.301,20.759 28.363,20.768 L30.196,20.768 L33.241,21.056 L33.653,21.056 L33.653,20.912 C33.447,20.838 33.314,20.768 33.179,20.768 C32.907,20.698 32.907,20.698 32.637,20.483 L31.076,19.837 L29.922,19.11 L28.093,18.244 C28.027,18.244 27.821,18.1 27.552,17.813 C27.145,17.667 26.059,16.589 26.059,16.589 C25.789,16.439 25.722,16.3 25.654,15.939 C25.249,15.795 25.182,15.726 24.976,15.289 L24.773,14.93 C23.825,13.918 23.284,12.691 22.534,11.613 L22.329,10.675 C22.262,10.607 22.262,10.458 22.129,10.242 C22.129,10.095 22.058,9.952 21.996,9.666 L21.79,9.59 C21.655,9.306 21.588,9.089 21.518,8.945 L21.451,7.862 L20.839,5.41 L20.975,4.833 L20.637,3.388 L20.637,2.742 L20.297,0.936 C20.297,0.796 20.228,0.651 20.228,0.361 L20.297,0.292 C20.57,0.292 20.773,0.292 20.91,0.361 C21.588,0.361 22.129,0.361 22.805,0.434 C24.84,0.505 25.449,0.58 25.587,0.58 L26.532,0.721 L28.363,0.936 L29.384,1.226 L30.535,1.443 C30.872,1.516 31.142,1.587 31.348,1.73 L32.294,2.164 L32.974,2.452 C33.041,2.452 33.179,2.598 33.314,2.742 C33.786,2.817 33.992,2.886 34.331,3.1 L35.618,3.895 L36.093,4.328 C36.159,4.398 36.295,4.474 36.498,4.614 C36.635,4.763 36.77,4.907 36.837,4.978 L38.601,6.561 L39.008,7.142 L39.889,8.009 L40.43,8.872 L41.309,9.879 L41.856,10.744 L42.74,12.26 C43.008,12.764 43.753,14.207 44.161,15.073 C44.359,15.651 44.428,15.867 44.565,16.439 C44.908,17.019 45.042,17.238 45.176,17.744 L45.583,19.473 L45.992,20.41 C45.992,20.55 46.058,20.838 46.128,21.204 L47.278,21.204 C47.753,21.275 47.822,21.204 48.701,21.204 L48.767,21.204 L49.584,21.275 L50.396,21.275 L50.396,21.129 L50.53,21.056 C50.466,20.838 50.466,20.698 50.466,20.625 L50.466,18.682 L50.53,15.939 C50.53,15.867 50.466,15.434 50.466,14.854 L50.193,8.512 L50.129,6.344 L49.652,0.434 L49.652,0.292 L49.785,0.292 L49.855,0 Z M0.06,22.5491373 L0.06,22.1398471 C0.154481043,21.7745993 0.352232044,21.6103453 0.883,21.275 C0.947,21.204 1.084,21.129 1.287,21.056 L1.287,20.912 L1.425,20.912 L1.425,20.768 L1.764,20.625 L1.764,20.55 L1.896,20.55 L1.896,20.41 L2.508,20.123 L2.577,20.049 L2.777,19.979 L2.777,19.906 L2.914,19.906 C3.321,19.473 3.527,19.395 4.134,19.182 C4.203,19.036 4.203,18.968 4.269,18.968 L4.681,18.898 L4.883,18.682 C4.951,18.607 5.017,18.53 5.223,18.463 C5.629,18.169 5.693,18.169 6.577,17.744 L8.545,16.943 C10.373,16.156 13.084,15.578 14.712,15.651 C15.255,15.651 16.136,15.726 17.421,15.867 C18.915,16.083 19.388,16.156 19.728,16.224 L21.692,16.877 L22.846,17.168 L23.93,17.744 L24.812,18.028 C25.355,18.318 25.827,18.607 26.235,18.968 C26.71,19.329 26.981,19.614 27.048,19.614 L27.793,19.906 L29.014,20.625 C29.071,20.683 29.261,20.696 29.511,20.735 L29.286,24.228 L28.946,24.228 C28.808,24.373 28.745,24.446 28.675,24.446 L27.793,25.311 L26.438,26.322 C26.374,26.395 26.166,26.541 25.898,26.756 C25.49,27.257 25.49,27.257 24.475,27.764 L22.78,28.631 C22.031,28.988 21.557,29.063 18.777,29.424 C17.22,29.565 16.745,29.641 16.136,29.565 C15.32,29.565 13.967,29.424 12.884,29.346 C11.594,29.136 10.78,28.917 9.629,28.486 L7.322,27.477 C7.255,27.477 7.12,27.477 6.916,27.402 C6.643,27.191 6.442,27.043 6.304,26.977 L5.152,26.395 L4.814,26.105 C4.613,25.888 4.269,25.744 3.866,25.603 C3.256,25.455 3.119,25.383 2.983,24.95 C2.642,24.661 2.036,24.446 1.764,24.158 L1.152,23.799 L1.152,23.725 C1.018,23.506 1.018,23.441 0.813,23.368 L0.813,23.294 L0.476,23.147 L0.476,23.078 L0.407,23.078 C0.345224064,22.8152218 0.282597991,22.7301222 0.06,22.5491373 Z M8.056,21.534 C8.174,21.604 8.296,21.736 8.354,21.807 L8.591,22.142 L9.003,22.48 L9.534,23.154 L9.716,23.154 C9.716,23.218 9.769,23.289 9.832,23.353 L10.305,23.758 L10.716,24.162 C10.894,24.294 10.953,24.361 11.011,24.433 L11.546,24.633 L13.256,25.647 L14.5,25.984 L16.33,26.589 L16.979,26.658 L18.992,26.927 C19.116,26.927 19.289,26.927 19.406,26.856 C20.115,26.856 21.244,26.723 21.652,26.518 C21.775,26.518 22.187,26.319 22.778,25.984 C23.665,25.58 24.198,25.309 24.313,25.175 L25.321,24.361 C25.382,24.361 25.497,24.231 25.671,24.162 C25.616,23.692 25.555,23.56 25.142,23.218 L25.085,23.218 C25.025,23.02 24.906,22.949 24.906,22.885 L24.551,22.616 C24.489,22.546 24.374,22.48 24.257,22.343 C24.077,22.142 24.017,22.076 23.96,22.009 L22.716,20.998 L22.479,20.658 L21.775,20.258 L21.476,19.919 L21.123,19.652 L19.821,18.909 C19.116,18.441 17.159,17.835 15.92,17.696 C15.446,17.696 14.443,17.632 14.025,17.632 C13.669,17.632 13.435,17.696 13.315,17.765 L12.783,18.167 L11.958,18.441 L9.769,19.72 C9.716,19.785 9.594,19.852 9.475,19.919 L9.419,20.189 L8.47,20.867 C8.174,21.065 7.997,21.267 7.997,21.47 L8.056,21.534 Z M41.031,29.757 C41.031,29.562 41.214,29.113 41.396,28.46 C41.516,28.138 41.635,27.817 41.635,27.489 L41.635,26.522 C41.699,26.065 41.76,25.352 41.76,24.446 C40.36,24.51 39.447,24.642 38.474,24.896 C37.317,25.225 35.429,25.94 35.065,26.197 L33.116,27.62 L32.45,28.138 C32.39,28.138 32.326,28.269 32.206,28.46 L30.866,29.888 L30.259,30.922 L29.343,32.219 L28.612,33.451 L28.128,34.289 L27.883,35.002 L27.579,35.583 L27.4,35.971 C27.4,36.038 27.276,36.102 27.156,36.167 C27.034,36.622 26.974,36.878 26.851,37.07 L26.484,37.849 C26.426,38.041 26.362,38.173 26.306,38.427 L26.122,39.792 L25.938,40.568 C25.938,40.635 25.876,40.762 25.876,40.953 C26.362,41.085 26.669,41.151 26.91,41.151 C27.276,41.151 27.522,41.151 27.944,41.085 L30.259,41.022 L30.931,40.826 L32.206,40.568 L33.365,40.178 L33.913,39.982 L35.124,39.209 L35.55,39.078 C35.855,38.946 36.039,38.754 36.225,38.558 L36.406,38.239 L37.985,36.749 L38.35,35.971 C38.35,35.842 38.717,35.391 39.204,34.741 C39.265,34.677 39.386,34.551 39.506,34.418 C39.571,34.225 39.63,34.093 39.63,34.026 L39.996,33.383 C39.996,33.315 40.118,33.059 40.242,32.607 C40.298,32.41 40.423,31.504 40.905,30.472 C40.905,30.404 40.968,30.276 41.092,30.015 C41.031,29.888 41.031,29.824 41.031,29.757 Z M42.003,19.981 C42.003,19.785 41.943,19.526 41.822,19.141 C41.635,18.622 41.516,18.236 41.516,18.038 C41.396,17.717 41.333,17.521 41.333,17.459 L40.968,16.681 L40.667,15.709 L40.423,15.324 L40.057,14.222 L39.63,13.509 L38.898,11.954 L38.414,11.374 C38.35,11.374 38.293,11.245 38.17,11.049 C38.046,10.915 37.985,10.725 37.925,10.659 C37.621,10.075 37.375,9.691 37.317,9.623 L37.136,9.496 L36.344,8.33 L35.918,7.938 C34.458,6.711 34.031,6.189 34.031,6.189 C33.85,6.058 33.667,5.995 33.667,5.929 L32.509,5.155 C32.326,5.026 32.143,4.962 31.965,4.895 L31.229,4.636 L30.562,4.446 C30.44,4.382 30.319,4.382 30.076,4.315 C29.163,4.115 28.31,3.991 27.764,3.991 C27.579,3.928 27.338,3.991 26.974,3.991 C26.851,4.507 26.851,4.636 26.851,4.833 L26.851,5.026 L27.218,6.189 L27.156,6.965 L27.338,7.873 L27.824,10.659 C27.944,11.634 29.101,14.089 30.136,15.643 C31.597,17.842 34.091,19.785 35.795,19.981 L38.898,20.368 L39.872,20.499 L41.454,20.368 L42.003,20.368 L42.003,19.981 Z" id="path-1"></path>
        <path d="M13.621,20 C11.838,20 10.175,18.746 9.731,16.797 C8.796,18.57 7.055,20 4.784,20 C2.188,20 0,17.838 0,15.152 C0,11.342 3.364,8.616 9.809,8.53 L9.852,7.532 C9.974,4.848 8.511,3.116 5.959,3.116 C4.094,3.116 2.188,4.371 0.972,6.059 C0.891,6.19 0.324,5.583 0.365,5.456 C1.989,1.989 5.066,0 8.15,0 C11.757,0 14.31,2.767 14.191,7.272 L13.948,14.893 C13.906,16.666 14.675,17.404 15.528,17.404 C16.421,17.404 17.109,16.621 17.434,15.584 C17.474,15.498 18,15.757 18,15.844 C17.676,18.484 15.852,20 13.621,20 Z M9.809,9.568 C7.581,9.827 6.203,10.561 5.352,11.472 C4.62,12.251 4.297,13.203 4.297,14.199 C4.297,15.975 5.514,17.186 6.973,17.186 C7.865,17.186 8.755,16.755 9.284,16.186 C9.446,16.017 9.687,15.584 9.687,15.232 L9.809,9.568 Z" id="path-3"></path>
        <path d="M17.522,18.956 C16.208,18.956 13.941,18.956 12.79,19 C12.67,19 12.708,18.055 12.749,18.055 C14.697,17.759 14.976,17.59 14.976,13.392 L14.976,7.574 C14.976,5.007 13.584,3.168 11.437,3.168 C9.965,3.168 8.693,3.937 8.058,4.923 C7.581,5.52 7.303,6.548 7.303,7.876 L7.303,13.392 C7.303,17.542 7.779,17.759 9.688,18.055 C9.728,18.055 9.766,19 9.647,19 C8.493,18.956 6.428,18.956 5.194,18.956 C3.882,18.956 1.655,18.956 0.502,19 C0.383,19 0.383,18.055 0.424,18.055 C2.569,17.673 2.888,17.59 2.888,13.392 L2.888,6.377 C2.888,2.181 2.41,1.968 0.103,1.543 C-0.052,1.543 -0.015,0.6 0.103,0.6 L6.905,0.6 L6.905,4.879 L6.984,4.879 C8.493,1.839 10.879,0 13.663,0 C16.845,0 19.39,2.656 19.39,7.144 L19.39,13.392 C19.39,17.542 19.749,17.717 21.893,18.055 C22.056,18.055 22.013,19 21.893,19 C20.741,18.956 18.753,18.956 17.522,18.956 Z" id="path-5"></path>
        <path d="M9.132,20 C3.626,20 0,15.465 0,10.152 C0,4.531 3.626,0 9.458,0 C12.19,0 13.574,0.991 14.431,0.991 C14.839,0.991 15.127,0.734 15.371,0.177 C15.411,0.044 16.428,0.044 16.428,0.177 L16.428,7.212 C16.428,7.341 15.371,7.341 15.327,7.257 C13.862,4.061 11.823,1.337 9.458,1.337 C6.481,1.337 4.809,4.665 4.809,9.2 C4.809,14.083 7.173,17.323 10.475,17.323 C12.719,17.323 15.127,15.68 16.184,13.779 C16.307,13.608 17.042,14 16.998,14.169 C15.858,17.453 12.679,20 9.132,20 Z" id="path-7"></path>
        <path d="M4.872,9.807 C4.872,13.952 7.014,17.236 10.659,17.236 C12.839,17.236 14.982,15.724 16.089,13.779 C16.128,13.693 16.8,14 16.761,14.125 C15.811,17.407 12.563,20 8.956,20 C3.329,20 0,15.506 0,10.152 C0,4.837 3.527,0 9.35,0 C13.79,0 16.8,3.198 17,7.56 L17,8.899 L4.872,8.899 L4.872,9.807 Z M12.046,7.56 L12.046,6.177 C12.046,3.109 10.697,1.428 9.034,1.428 C6.854,1.428 5.271,3.93 4.954,7.56 L12.046,7.56 Z" id="path-9"></path>
        <path d="M6.286,20 C3.591,20 1.169,19.266 0.349,18.618 C0.234,18.532 0.036,16.03 0,13.441 C0,13.307 1.014,13.265 1.052,13.396 C2.46,16.764 4.529,18.705 6.716,18.705 C8.552,18.705 9.879,17.669 9.879,15.941 C9.879,13.997 7.808,13.09 5.621,12.095 C3.044,10.975 0.194,9.551 0.194,5.926 C0.194,3.12 2.383,0.178 6.521,0.178 C8.316,0.178 9.412,0.917 10.19,0.917 C10.582,0.917 10.893,0.662 11.127,0.096 C11.167,-0.032 12.144,-0.032 12.144,0.096 L12.183,6.527 C12.183,6.66 11.127,6.615 11.088,6.485 C9.723,3.596 8.005,1.523 6.013,1.523 C4.138,1.523 3.319,2.857 3.319,3.985 C3.319,5.885 5.35,6.7 7.497,7.695 C10.073,8.861 13,10.329 13,14.041 C13,17.41 10.387,20 6.286,20 Z" id="path-11"></path>
        <path d="M3.127,7.874 L0.227,7.874 C-0.015,7.874 -0.096,7.101 0.145,6.887 C2.039,5.08 5.26,1.985 6.951,0.046 C7.069,-0.084 7.635,0.089 7.635,0.219 L7.635,5.941 L13.794,5.941 C13.952,5.941 13.952,7.749 13.794,7.749 L7.635,7.749 L7.635,18.544 C7.635,21 8.963,22.073 10.492,22.073 C11.54,22.073 12.785,21.086 13.27,19.924 C13.309,19.796 14.037,20.22 13.999,20.352 C13.23,22.977 10.935,25 8.24,25 C5.461,25 3.127,23.107 3.127,19.279 L3.127,7.874 Z" id="path-13"></path>
        <path d="M12.721,5.682 C12.171,5.682 10.875,3.932 9.892,3.932 C9.459,3.932 8.948,4.229 8.515,4.657 C7.768,5.467 7.217,7.258 7.217,8.794 L7.217,13.406 C7.217,17.593 7.846,17.762 9.852,18.058 C9.892,18.058 9.971,19 9.852,19 C8.712,18.956 6.392,18.956 5.172,18.956 C3.876,18.956 1.638,18.956 0.496,19 C0.38,19 0.421,18.058 0.458,18.058 C2.579,17.677 2.855,17.593 2.855,13.406 L2.855,6.408 C2.855,2.266 2.387,2.01 0.104,1.585 C-0.054,1.585 -0.014,0.645 0.104,0.645 L6.942,0.645 L6.942,5.467 L7.141,5.467 C7.336,4.872 7.653,4.188 7.965,3.588 C9.183,1.412 10.675,0 12.288,0 C13.783,0 15,1.24 15,2.608 C15,4.1 13.194,5.682 12.721,5.682 Z" id="path-15"></path>
        <path d="M18.786,2.026 C18.015,2.846 17.533,4.403 16.313,7.814 L10.355,24.048 C8.286,29.834 6.376,31 3.78,31 C2.323,31 0.699,30.178 0.657,29.752 C0.578,29.015 1.552,26.123 2.117,26.123 C2.323,26.123 4.512,27.201 5.606,27.201 C7.149,27.201 8.163,26.168 8.972,23.789 L10.108,20.681 C9.701,19.125 5.323,8.936 4.835,7.509 C3.743,4.746 3.011,2.671 2.28,1.897 C1.835,1.421 1.388,1.206 0.091,1.033 C-0.03,1.033 -0.03,0.038 0.091,0.038 C1.27,0.082 3.743,0.126 5.081,0.126 C6.416,0.126 8.851,0.038 10.028,0 C10.151,0 10.151,0.989 10.028,0.989 C7.311,1.377 7.554,2.37 9.054,6.257 L12.298,14.507 L14.813,7.427 C15.706,4.961 16.154,3.494 16.154,2.671 C16.154,1.638 15.542,1.25 13.639,1.077 C13.516,1.077 13.516,0 13.639,0 C14.934,0.038 16.558,0.126 17.655,0.126 C18.507,0.126 19.317,0.038 20.899,0 C20.98,0 21.059,1.077 20.937,1.077 C19.841,1.162 19.317,1.465 18.786,2.026 Z" id="path-17"></path>
        <polygon id="path-19" points="1.164 0.373 1.164 3 0.814 3 0.814 0.373 0 0.373 0 0 1.948 0 2 0.373"></polygon>
        <polygon id="path-21" points="2.649 2.986 2.481 0.609 1.632 3 1.357 3 0.508 0.609 0.343 2.986 0 2.986 0.215 0 0.667 0 1.504 2.45 2.341 0 2.788 0 3 2.986"></polygon>
    </defs>
    <g id="Page-1" stroke="none" stroke-width="1" fill="none" fill-rule="evenodd">
        <g id="ancestry">
            <g id="Group-3">
                <mask id="mask-2" fill="white">
                    <use xlink:href="#path-1"></use>
                </mask>
                <g id="Clip-2"></g>
                <polygon id="Fill-1" fill="#939393" mask="url(#mask-2)" points="0.06 45 54.06 45 54.06 0 0.06 0"></polygon>
            </g>
            <g id="Group-6" transform="translate(63.000000, 13.000000)">
                <mask id="mask-4" fill="white">
                    <use xlink:href="#path-3"></use>
                </mask>
                <g id="Clip-5"></g>
                <polygon id="Fill-4" fill="#939393" mask="url(#mask-4)" points="-0.06 20 18.06 20 18.06 -0.04 -0.06 -0.04"></polygon>
            </g>
            <g id="Group-9" transform="translate(82.000000, 13.000000)">
                <mask id="mask-6" fill="white">
                    <use xlink:href="#path-5"></use>
                </mask>
                <g id="Clip-8"></g>
                <polygon id="Fill-7" fill="#939393" mask="url(#mask-6)" points="-0.1 19.04 22.1 19.04 22.1 -0.04 -0.1 -0.04"></polygon>
            </g>
            <g id="Group-12" transform="translate(107.000000, 13.000000)">
                <mask id="mask-8" fill="white">
                    <use xlink:href="#path-7"></use>
                </mask>
                <g id="Clip-11"></g>
                <polygon id="Fill-10" fill="#939393" mask="url(#mask-8)" points="-0.02 20 17.02 20 17.02 -0.04 -0.02 -0.04"></polygon>
            </g>
            <g id="Group-15" transform="translate(127.000000, 13.000000)">
                <mask id="mask-10" fill="white">
                    <use xlink:href="#path-9"></use>
                </mask>
                <g id="Clip-14"></g>
                <polygon id="Fill-13" fill="#939393" mask="url(#mask-10)" points="-0.1 20 17.06 20 17.06 -0.04 -0.1 -0.04"></polygon>
            </g>
            <g id="Group-18" transform="translate(148.000000, 13.000000)">
                <mask id="mask-12" fill="white">
                    <use xlink:href="#path-11"></use>
                </mask>
                <g id="Clip-17"></g>
                <polygon id="Fill-16" fill="#939393" mask="url(#mask-12)" points="-0.1 20 13.1 20 13.1 -0.04 -0.1 -0.04"></polygon>
            </g>
            <g id="Group-21" transform="translate(164.000000, 8.000000)">
                <mask id="mask-14" fill="white">
                    <use xlink:href="#path-13"></use>
                </mask>
                <g id="Clip-20"></g>
                <polygon id="Fill-19" fill="#939393" mask="url(#mask-14)" points="-0.02 25 14.02 25 14.02 -0.08 -0.02 -0.08"></polygon>
            </g>
            <g id="Group-24" transform="translate(180.000000, 13.000000)">
                <mask id="mask-16" fill="white">
                    <use xlink:href="#path-15"></use>
                </mask>
                <g id="Clip-23"></g>
                <polygon id="Fill-22" fill="#939393" mask="url(#mask-16)" points="-0.06 19.04 15.06 19.04 15.06 -0.04 -0.06 -0.04"></polygon>
            </g>
            <g id="Group-27" transform="translate(195.000000, 13.000000)">
                <mask id="mask-18" fill="white">
                    <use xlink:href="#path-17"></use>
                </mask>
                <g id="Clip-26"></g>
                <polygon id="Fill-25" fill="#939393" mask="url(#mask-18)" points="-0.06 31.04 21.06 31.04 21.06 -0.04 -0.06 -0.04"></polygon>
            </g>
            <g id="Group-30" transform="translate(219.000000, 14.000000)">
                <mask id="mask-20" fill="white">
                    <use xlink:href="#path-19"></use>
                </mask>
                <g id="Clip-29"></g>
                <polygon id="Fill-28" fill="#939393" mask="url(#mask-20)" points="-0.06 3.04 2.1 3.04 2.1 -0.08 -0.06 -0.08"></polygon>
            </g>
            <g id="Group-33" transform="translate(222.000000, 14.000000)">
                <mask id="mask-22" fill="white">
                    <use xlink:href="#path-21"></use>
                </mask>
                <g id="Clip-32"></g>
                <polygon id="Fill-31" fill="#939393" mask="url(#mask-22)" points="-0.06 3.04 3.06 3.04 3.06 -0.08 -0.06 -0.08"></polygon>
            </g>
        </g>
    </g>
</svg>