<?xml version="1.0" encoding="UTF-8" standalone="no"?>
<svg width="239px" height="59px" viewBox="0 0 239 59" version="1.1" xmlns="http://www.w3.org/2000/svg" xmlns:xlink="http://www.w3.org/1999/xlink">
    <!-- Generator: Sketch 39.1 (31720) - http://www.bohemiancoding.com/sketch -->
    <title>balsamiq</title>
    <desc>Created with Sketch.</desc>
    <defs>
        <polygon id="path-1" points="0.558 55.94 41.764 55.94 41.764 0.132 0.558 0.132 0.558 55.94"></polygon>
    </defs>
    <g id="Page-1" stroke="none" stroke-width="1" fill="none" fill-rule="evenodd">
        <g id="balsamiq">
            <path d="M5.824,33.914 C5.824,34.618 5.952,35.322 6.08,35.962 C7.167,39.865 10.431,42.554 14.527,42.554 C20.415,42.554 23.935,37.754 23.935,30.65 C23.935,24.443 20.735,19.131 14.719,19.131 C10.879,19.131 7.295,21.755 6.144,26.042 C6.016,26.683 5.824,27.451 5.824,28.346 L5.824,33.914 L5.824,33.914 Z M0,46.329 C0.128,44.217 0.256,41.082 0.256,38.33 L0.256,0.893 L5.824,0.893 L5.824,20.347 L5.952,20.347 C7.936,16.891 11.52,14.651 16.511,14.651 C24.19,14.651 29.63,21.051 29.566,30.458 C29.566,41.529 22.59,47.033 15.679,47.033 C11.199,47.033 7.616,45.306 5.312,41.209 L5.12,41.209 L4.864,46.329 L0,46.329 L0,46.329 Z" id="Fill-1" fill="#939393"></path>
            <path d="M51.876,30.522 C45.733,30.395 38.757,31.482 38.757,37.498 C38.757,41.146 41.189,42.873 44.069,42.873 C48.101,42.873 50.66,40.313 51.556,37.69 C51.748,37.113 51.876,36.474 51.876,35.899 L51.876,30.522 L51.876,30.522 Z M52.708,46.329 L52.26,42.426 L52.068,42.426 C50.34,44.857 47.013,47.033 42.597,47.033 C36.325,47.033 33.125,42.617 33.125,38.138 C33.125,30.65 39.781,26.555 51.748,26.619 L51.748,25.979 C51.748,23.419 51.044,18.811 44.708,18.811 C41.829,18.811 38.821,19.707 36.646,21.115 L35.365,17.403 C37.925,15.739 41.637,14.651 45.54,14.651 C55.012,14.651 57.316,21.115 57.316,27.322 L57.316,38.906 C57.316,41.594 57.444,44.217 57.828,46.329 L52.708,46.329 L52.708,46.329 Z" id="Fill-2" fill="#939393"></path>
            <polygon id="Fill-3" fill="#939393" points="64.78 46.33 70.411 46.33 70.411 0.893 64.78 0.893"></polygon>
            <path d="M77.176,40.569 C78.84,41.657 81.784,42.81 84.6,42.81 C88.695,42.81 90.615,40.762 90.615,38.201 C90.615,35.514 89.015,34.042 84.855,32.506 C79.288,30.522 76.664,27.451 76.664,23.739 C76.664,18.747 80.696,14.651 87.352,14.651 C90.487,14.651 93.239,15.547 94.967,16.571 L93.559,20.667 C92.343,19.899 90.103,18.875 87.224,18.875 C83.896,18.875 82.04,20.795 82.04,23.099 C82.04,25.659 83.896,26.811 87.927,28.346 C93.303,30.395 96.055,33.082 96.055,37.69 C96.055,43.129 91.831,46.969 84.472,46.969 C81.08,46.969 77.944,46.137 75.768,44.857 L77.176,40.569" id="Fill-4" fill="#939393"></path>
            <path d="M118.666,30.522 C112.522,30.395 105.547,31.482 105.547,37.498 C105.547,41.146 107.979,42.873 110.858,42.873 C114.89,42.873 117.45,40.313 118.346,37.69 C118.538,37.113 118.666,36.474 118.666,35.899 L118.666,30.522 L118.666,30.522 Z M119.498,46.329 L119.049,42.426 L118.858,42.426 C117.129,44.857 113.802,47.033 109.386,47.033 C103.115,47.033 99.915,42.617 99.915,38.138 C99.915,30.65 106.571,26.555 118.538,26.619 L118.538,25.979 C118.538,23.419 117.834,18.811 111.499,18.811 C108.619,18.811 105.611,19.707 103.435,21.115 L102.155,17.403 C104.715,15.739 108.426,14.651 112.33,14.651 C121.801,14.651 124.105,21.115 124.105,27.322 L124.105,38.906 C124.105,41.594 124.233,44.217 124.618,46.329 L119.498,46.329 L119.498,46.329 Z" id="Fill-5" fill="#939393"></path>
            <path d="M131.524,23.739 C131.524,20.539 131.459,17.915 131.268,15.355 L136.196,15.355 L136.452,20.347 L136.643,20.347 C138.372,17.403 141.251,14.651 146.371,14.651 C150.594,14.651 153.794,17.211 155.138,20.859 L155.266,20.859 C156.226,19.131 157.442,17.787 158.722,16.827 C160.578,15.42 162.625,14.651 165.569,14.651 C169.665,14.651 175.745,17.339 175.745,28.09 L175.745,46.329 L170.241,46.329 L170.241,28.795 C170.241,22.843 168.065,19.259 163.521,19.259 C160.322,19.259 157.826,21.627 156.866,24.379 C156.61,25.146 156.417,26.17 156.417,27.194 L156.417,46.329 L150.915,46.329 L150.915,27.771 C150.915,22.843 148.739,19.259 144.451,19.259 C140.931,19.259 138.372,22.075 137.475,24.891 C137.156,25.723 137.027,26.683 137.027,27.643 L137.027,46.329 L131.524,46.329 L131.524,23.739" id="Fill-6" fill="#939393"></path>
            <g id="Group-10" transform="translate(182.000000, 3.000000)">
                <mask id="mask-2" fill="white">
                    <use xlink:href="#path-1"></use>
                </mask>
                <g id="Clip-8"></g>
                <path d="M1.262,43.329 L6.894,43.329 L6.894,12.355 L1.262,12.355 L1.262,43.329 Z M7.534,3.652 C7.597,5.572 6.19,7.108 3.95,7.108 C1.966,7.108 0.558,5.572 0.558,3.652 C0.558,1.668 2.03,0.132 4.078,0.132 C6.19,0.132 7.534,1.668 7.534,3.652 L7.534,3.652 Z" id="Fill-7" fill="#939393" mask="url(#mask-2)"></path>
                <path d="M35.941,24.899 C35.941,24.13 35.877,23.234 35.685,22.531 C34.853,19.075 31.845,16.131 27.622,16.131 C21.798,16.131 18.278,21.059 18.278,28.034 C18.278,34.178 21.222,39.554 27.429,39.554 C31.078,39.554 34.213,37.313 35.493,33.41 C35.749,32.643 35.941,31.554 35.941,30.723 L35.941,24.899 L35.941,24.899 Z M35.941,38.529 L35.813,38.529 C34.149,41.602 30.694,44.033 25.702,44.033 C18.47,44.033 12.583,37.762 12.583,28.354 C12.583,16.771 20.07,11.651 26.598,11.651 C31.397,11.651 34.597,14.019 36.133,17.027 L36.261,17.027 L36.453,12.355 L41.764,12.355 C41.636,14.979 41.573,17.667 41.573,20.867 L41.573,56 L35.941,56 L35.941,38.529 L35.941,38.529 Z" id="Fill-9" fill="#939393" mask="url(#mask-2)"></path>
            </g>
            <path d="M232.764,18.807 L233.268,18.807 C233.856,18.807 234.333,18.612 234.333,18.135 C234.333,17.715 234.024,17.436 233.352,17.436 C233.073,17.436 232.875,17.463 232.764,17.491 L232.764,18.807 L232.764,18.807 Z M232.737,21.412 L231.672,21.412 L231.672,16.819 C232.092,16.735 232.68,16.679 233.436,16.679 C234.303,16.679 234.696,16.819 235.032,17.015 C235.284,17.211 235.479,17.575 235.479,18.023 C235.479,18.528 235.088,18.919 234.528,19.087 L234.528,19.143 C234.975,19.311 235.227,19.647 235.368,20.263 C235.508,20.963 235.592,21.244 235.704,21.412 L234.555,21.412 C234.417,21.244 234.333,20.824 234.192,20.292 C234.108,19.788 233.829,19.563 233.241,19.563 L232.737,19.563 L232.737,21.412 L232.737,21.412 Z M229.909,19.003 C229.909,21.047 231.42,22.671 233.493,22.671 C235.508,22.671 236.993,21.047 236.993,19.032 C236.993,16.987 235.508,15.335 233.463,15.335 C231.42,15.335 229.909,16.987 229.909,19.003 L229.909,19.003 Z M238.168,19.003 C238.168,21.607 236.124,23.651 233.463,23.651 C230.833,23.651 228.733,21.607 228.733,19.003 C228.733,16.456 230.833,14.412 233.463,14.412 C236.124,14.412 238.168,16.456 238.168,19.003 L238.168,19.003 Z" id="Fill-11" fill="#939393"></path>
        </g>
    </g>
</svg>