<?xml version="1.0" encoding="utf-8"?>
<!-- Generator: Adobe Illustrator 27.4.0, SVG Export Plug-In . SVG Version: 6.00 Build 0)  -->
<svg version="1.1" id="Layer_1" xmlns="http://www.w3.org/2000/svg" xmlns:xlink="http://www.w3.org/1999/xlink" x="0px" y="0px"
	 viewBox="0 0 79 45" style="enable-background:new 0 0 79 45;" xml:space="preserve">
<style type="text/css">
	.st0{fill:none;stroke:#939393;}
	.st1{fill:#939393;}
</style>
<path class="st0" d="M1.7,31.5l8.8-31h27v31H1.7z"/>
<path class="st0" d="M78.4,31.5l-7.9-31h-28v31H78.4z"/>
<line class="st0" x1="57" y1="9.5" x2="73" y2="9.5"/>
<line class="st0" x1="42.3" y1="21.5" x2="58.3" y2="21.5"/>
<line class="st0" x1="22" y1="15.5" x2="38" y2="15.5"/>
<path class="st1" d="M5,41v1H2v-1H1v-4h1v-1h3v1h1v1H5v-1H2v4L5,41l0-1h1v1H5z M12,41v1H9v-1H8v-4h1v-1h3v1h1v4H12z M12,37H9v4h3V37
	z M16,42v-1h-1v-4h1v-1h3v-2h1v8H16z M19,37h-3v4h3V37z M23,35v-1h1v1H23z M23,42v-5h-1v-1h2v6H23z M30,42v-5h-3v5h-1v-6h4v1h1v5H30
	z M37.1,43v1h-3v-1L37.1,43l0-1h-3v-1h-1v-4h1v-1h4v7H37.1z M37,37h-3v4h3V37z M43.1,41v1h-2v-1h-1v-1h1v1L43.1,41l0-1h-1v-1h-1v-1
	h-1v-1h1v-1h2v1h1v1h-1v-1h-2v1h1v1h1v1h1v1H43.1z M50.1,41v1h-3v-1h-1v-4h1v-1h3v1h1v1h-1v-1h-3v4L50.1,41l0-1h1v1H50.1z M54,42v-1
	h-1v-2h1v-1h3v-1h-3v-1h3v1h1v5H54z M57,39h-3v2h3V39z M64.1,41v1h-3v2h-1v-8h4v1h1v4H64.1z M64.1,37h-3v4h3V37z M71.1,41v1h-3v-1
	h-1v-4h1v-1h3v1h1v2h-4v2L71.1,41l0-1h1v1H71.1z M71.1,37h-3v1h3V37z M73.1,43v-1h5v1H73.1z"/>
</svg>
