<?xml version="1.0" encoding="utf-8"?>
<!-- Generator: Adobe Illustrator 27.3.1, SVG Export Plug-In . SVG Version: 6.00 Build 0)  -->
<svg version="1.1" id="Layer_1" xmlns="http://www.w3.org/2000/svg" xmlns:xlink="http://www.w3.org/1999/xlink" x="0px" y="0px"
	 viewBox="0 0 2739 512" style="enable-background:new 0 0 2739 512;" xml:space="preserve">
<style type="text/css">
	.st0{fill:#939393;}
	.st1{fill-rule:evenodd;clip-rule:evenodd;fill:#FFFFFF;}
</style>
<path class="st0" d="M859.7,216.6H816c-1.2-7.2-3.5-13.5-6.9-19c-3.3-5.6-7.5-10.4-12.5-14.3c-5-3.9-10.7-6.8-17.1-8.8
	c-6.3-2-13.1-3-20.4-3c-13,0-24.5,3.3-34.6,9.8c-10,6.5-17.9,16-23.6,28.5c-5.7,12.5-8.5,27.7-8.5,45.7c0,18.3,2.8,33.7,8.5,46.3
	c5.8,12.5,13.6,21.9,23.6,28.3c10,6.3,21.5,9.5,34.5,9.5c7.2,0,13.9-0.9,20.1-2.8c6.3-1.9,12-4.8,16.9-8.5
	c5.1-3.7,9.3-8.3,12.7-13.8c3.5-5.5,5.9-11.7,7.2-18.7l43.7,0.2c-1.6,11.4-5.2,22-10.6,32c-5.4,10-12.4,18.8-21.1,26.4
	c-8.7,7.6-18.9,13.5-30.6,17.8c-11.7,4.2-24.6,6.3-38.9,6.3c-21,0-39.8-4.9-56.3-14.6c-16.5-9.7-29.5-23.8-39-42.2
	c-9.5-18.4-14.3-40.4-14.3-66.1c0-25.8,4.8-47.8,14.4-66.1c9.6-18.4,22.6-32.4,39.1-42.2c16.5-9.7,35.2-14.6,56.1-14.6
	c13.3,0,25.7,1.9,37.1,5.6c11.4,3.7,21.7,9.2,30.6,16.5c9,7.2,16.3,16,22.1,26.4C854.1,191.4,857.9,203.2,859.7,216.6z"/>
<path class="st0" d="M969.2,378.6c-17.5,0-32.7-3.9-45.6-11.6c-12.8-7.7-22.8-18.5-29.9-32.4c-7-13.9-10.5-30.1-10.5-48.6
	c0-18.5,3.5-34.8,10.5-48.7c7.1-13.9,17.1-24.8,29.9-32.5c12.9-7.7,28-11.6,45.6-11.6c17.5,0,32.7,3.9,45.6,11.6
	c12.8,7.7,22.8,18.5,29.8,32.5c7.1,13.9,10.6,30.2,10.6,48.7c0,18.5-3.5,34.7-10.6,48.6c-7,13.9-16.9,24.6-29.8,32.4
	C1001.9,374.7,986.7,378.6,969.2,378.6z M969.4,344.7c9.5,0,17.4-2.6,23.8-7.8c6.4-5.3,11.1-12.4,14.2-21.3
	c3.2-8.9,4.8-18.8,4.8-29.7c0-11-1.6-20.9-4.8-29.8c-3.1-9-7.9-16.1-14.2-21.4c-6.4-5.3-14.3-7.9-23.8-7.9c-9.7,0-17.8,2.6-24.3,7.9
	c-6.4,5.3-11.2,12.4-14.4,21.4c-3.1,8.9-4.7,18.8-4.7,29.8c0,10.9,1.6,20.8,4.7,29.7c3.2,8.9,8,16,14.4,21.3
	C951.6,342.1,959.7,344.7,969.4,344.7z"/>
<path class="st0" d="M1084.5,375.1V195.6h40.4v30.5h2.1c3.7-10.3,9.9-18.3,18.6-24.1c8.6-5.8,19-8.8,31-8.8c12.1,0,22.4,3,30.7,8.9
	c8.4,5.8,14.3,13.8,17.8,23.9h1.9c4-10,10.7-17.9,20.1-23.8c9.5-6,20.8-9,33.8-9c16.5,0,30,5.2,40.4,15.7
	c10.4,10.4,15.7,25.7,15.7,45.7v120.4h-42.4V261.2c0-11.1-3-19.3-8.9-24.4c-5.9-5.2-13.2-7.8-21.7-7.8c-10.2,0-18.2,3.2-23.9,9.6
	c-5.7,6.3-8.5,14.5-8.5,24.6v111.9h-41.5V259.4c0-9.3-2.8-16.7-8.4-22.2c-5.5-5.5-12.8-8.3-21.7-8.3c-6.1,0-11.6,1.6-16.6,4.7
	c-5,3-9,7.4-11.9,13c-3,5.5-4.4,12-4.4,19.4v109.1H1084.5z"/>
<path class="st0" d="M1373.2,375.1V195.6h40.4v30.5h2.1c3.7-10.3,9.9-18.3,18.6-24.1c8.6-5.8,19-8.8,30.9-8.8
	c12.2,0,22.4,3,30.7,8.9c8.4,5.8,14.3,13.8,17.8,23.9h1.9c4-10,10.7-17.9,20.1-23.8c9.5-6,20.8-9,33.8-9c16.5,0,30,5.2,40.4,15.7
	c10.4,10.4,15.7,25.7,15.7,45.7v120.4h-42.4V261.2c0-11.1-3-19.3-8.9-24.4c-5.9-5.2-13.2-7.8-21.7-7.8c-10.2,0-18.2,3.2-23.9,9.6
	c-5.7,6.3-8.5,14.5-8.5,24.6v111.9h-41.5V259.4c0-9.3-2.8-16.7-8.4-22.2c-5.5-5.5-12.8-8.3-21.7-8.3c-6.1,0-11.6,1.6-16.6,4.7
	c-5,3-9,7.4-11.9,13c-3,5.5-4.4,12-4.4,19.4v109.1H1373.2z"/>
<path class="st0" d="M1713.4,378.7c-11.4,0-21.6-2-30.7-6.1c-9-4.1-16.2-10.2-21.5-18.2c-5.2-8-7.8-17.9-7.8-29.7
	c0-10.1,1.9-18.5,5.6-25.1c3.7-6.6,8.8-11.9,15.3-15.9c6.5-4,13.7-7,21.8-9c8.2-2.1,16.6-3.6,25.3-4.6c10.5-1.1,19-2.1,25.6-2.9
	c6.5-0.9,11.3-2.3,14.2-4.2c3-1.9,4.6-4.9,4.6-9v-0.7c0-8.8-2.6-15.6-7.8-20.4c-5.2-4.8-12.7-7.2-22.6-7.2
	c-10.4,0-18.6,2.3-24.7,6.8c-6,4.5-10,9.9-12.2,16l-39.5-5.6c3.1-10.9,8.2-20,15.4-27.3c7.2-7.4,15.9-12.9,26.3-16.6
	c10.4-3.7,21.8-5.6,34.3-5.6c8.6,0,17.2,1,25.8,3c8.6,2,16.4,5.4,23.5,10c7.1,4.6,12.8,10.9,17.1,18.8c4.4,7.9,6.5,17.9,6.5,29.8
	v120.1h-40.7v-24.6h-1.4c-2.6,5-6.2,9.7-10.9,14c-4.6,4.3-10.4,7.7-17.4,10.4C1730.9,377.4,1722.8,378.7,1713.4,378.7z
	 M1724.4,347.6c8.5,0,15.8-1.7,22.1-5c6.2-3.4,11-7.9,14.4-13.6c3.4-5.6,5.1-11.7,5.1-18.3v-21.1c-1.3,1.1-3.6,2.1-6.8,3
	c-3.1,0.9-6.6,1.8-10.5,2.5c-3.9,0.7-7.8,1.3-11.6,1.9c-3.8,0.5-7.1,1-9.9,1.4c-6.3,0.9-12,2.3-16.9,4.2c-5,1.9-8.9,4.7-11.8,8.2
	c-2.9,3.4-4.3,7.9-4.3,13.3c0,7.8,2.8,13.7,8.5,17.6C1708.4,345.6,1715.6,347.6,1724.4,347.6z"/>
<path class="st0" d="M1886.4,269.9v105.1h-42.3V195.6h40.4v30.5h2.1c4.1-10,10.7-18,19.7-23.9c9.1-5.9,20.4-8.9,33.8-8.9
	c12.4,0,23.2,2.6,32.4,7.9c9.3,5.3,16.4,13,21.5,23c5.1,10,7.7,22.2,7.6,36.6v114.2h-42.3V267.4c0-12-3.1-21.4-9.4-28.2
	c-6.1-6.8-14.7-10.2-25.6-10.2c-7.4,0-14,1.6-19.7,4.9c-5.7,3.2-10.2,7.8-13.4,13.9C1888,253.9,1886.4,261.3,1886.4,269.9z"/>
<path class="st0" d="M2104.6,378.2c-14.1,0-26.7-3.6-37.9-10.9c-11.1-7.2-19.9-17.8-26.4-31.5c-6.5-13.8-9.7-30.5-9.7-50.2
	c0-19.9,3.3-36.8,9.8-50.5c6.6-13.8,15.5-24.2,26.8-31.2c11.2-7.1,23.7-10.6,37.5-10.6c10.5,0,19.2,1.8,25.9,5.4
	c6.8,3.5,12.2,7.7,16.1,12.7c4,4.9,7.1,9.5,9.2,13.9h1.8v-89.5h42.4v239.2h-41.6v-28.3h-2.6c-2.2,4.4-5.3,9-9.5,13.9
	c-4.1,4.8-9.6,9-16.4,12.4C2123.4,376.5,2114.9,378.2,2104.6,378.2z M2116.4,343.5c9,0,16.6-2.4,22.9-7.2
	c6.3-4.9,11.1-11.7,14.4-20.4c3.3-8.7,4.9-18.9,4.9-30.5c0-11.6-1.6-21.7-4.9-30.3c-3.2-8.6-7.9-15.2-14.3-20
	c-6.2-4.8-13.9-7.1-23-7.1c-9.4,0-17.3,2.5-23.6,7.4c-6.3,4.9-11.1,11.7-14.2,20.3c-3.2,8.6-4.8,18.5-4.8,29.7
	c0,11.2,1.6,21.2,4.8,30c3.3,8.7,8.1,15.6,14.4,20.7C2099.3,341,2107.1,343.5,2116.4,343.5z"/>
<path class="st0" d="M2240.5,375.1V135.8h91.6c17.3,0,31.6,2.7,43.1,8.2c11.5,5.4,20.1,12.7,25.8,22.1c5.8,9.3,8.6,19.9,8.6,31.8
	c0,9.7-1.9,18.1-5.6,25c-3.7,6.9-8.8,12.4-15.1,16.7s-13.4,7.4-21.1,9.2v2.3c8.5,0.5,16.6,3.1,24.4,7.8c7.9,4.7,14.3,11.3,19.3,19.9
	c5,8.6,7.5,18.9,7.5,31.1c0,12.4-3,23.5-9,33.4c-6,9.8-15,17.6-27.1,23.2c-12.1,5.7-27.2,8.5-45.6,8.5H2240.5z M2283.8,338.9h46.6
	c15.7,0,27.1-3,34-9c7-6.1,10.5-13.9,10.5-23.4c0-7.1-1.8-13.5-5.3-19.2c-3.5-5.8-8.5-10.3-14.9-13.5c-6.5-3.3-14.2-5-23.1-5h-47.8
	V338.9z M2283.8,237.6h42.9c7.5,0,14.2-1.4,20.2-4.1c6-2.8,10.7-6.7,14.1-11.8c3.5-5.1,5.2-11.2,5.2-18.2c0-9.3-3.3-16.9-9.8-22.9
	c-6.5-6-16.1-9-28.9-9h-43.8V237.6z"/>
<path class="st0" d="M2499.9,378.7c-11.4,0-21.6-2-30.7-6.1c-9-4.1-16.2-10.2-21.5-18.2c-5.2-8-7.8-17.9-7.8-29.7
	c0-10.1,1.9-18.5,5.6-25.1c3.7-6.6,8.8-11.9,15.3-15.9c6.5-4,13.8-7,21.9-9c8.2-2.1,16.6-3.6,25.3-4.6c10.5-1.1,19-2.1,25.6-2.9
	c6.5-0.9,11.3-2.3,14.2-4.2c3-1.9,4.6-4.9,4.6-9v-0.7c0-8.8-2.6-15.6-7.8-20.4c-5.2-4.8-12.7-7.2-22.5-7.2
	c-10.4,0-18.6,2.3-24.6,6.8c-6,4.5-10.1,9.9-12.2,16l-39.5-5.6c3.1-10.9,8.3-20,15.4-27.3c7.2-7.4,15.9-12.9,26.3-16.6
	c10.4-3.7,21.8-5.6,34.3-5.6c8.7,0,17.2,1,25.8,3c8.6,2,16.4,5.4,23.5,10c7.1,4.6,12.8,10.9,17.1,18.8c4.4,7.9,6.5,17.9,6.5,29.8
	v120.1H2554v-24.6h-1.4c-2.6,5-6.2,9.7-10.9,14c-4.6,4.3-10.4,7.7-17.4,10.4C2517.4,377.4,2509.2,378.7,2499.9,378.7z M2510.9,347.6
	c8.5,0,15.8-1.7,22.1-5c6.2-3.4,11-7.9,14.4-13.6c3.4-5.6,5.1-11.7,5.1-18.3v-21.1c-1.3,1.1-3.6,2.1-6.8,3
	c-3.1,0.9-6.6,1.8-10.5,2.5c-3.9,0.7-7.8,1.3-11.6,1.9c-3.8,0.5-7.1,1-9.9,1.4c-6.3,0.9-11.9,2.3-16.9,4.2c-5,1.9-8.9,4.7-11.8,8.2
	c-2.9,3.4-4.3,7.9-4.3,13.3c0,7.8,2.8,13.7,8.5,17.6C2494.8,345.6,2502.1,347.6,2510.9,347.6z"/>
<path class="st0" d="M2630.6,375.1V195.6h41v29.9h1.9c3.3-10.4,8.9-18.3,16.8-23.9c8-5.7,17.2-8.5,27.5-8.5c2.3,0,4.9,0.1,7.8,0.4
	c3,0.2,5.4,0.4,7.4,0.8v38.9c-1.8-0.6-4.6-1.2-8.5-1.6c-3.8-0.5-7.5-0.8-11.1-0.8c-7.7,0-14.6,1.7-20.8,5
	c-6.1,3.3-10.9,7.8-14.4,13.7c-3.5,5.8-5.3,12.6-5.3,20.2v105.5H2630.6z"/>
<path class="st0" d="M128,0h256c70.7,0,128,57.3,128,128v256c0,70.7-57.3,128-128,128H128C57.3,512,0,454.7,0,384V128
	C0,57.3,57.3,0,128,0z"/>
<path class="st1" d="M326.5,224.1c3.2-0.9,5.2-4.2,4.1-7.3C324,197,311,179.8,293.7,168c-19-13-42-18.9-64.9-16.5
	c-22.9,2.4-44.2,12.9-60.1,29.6c-15.9,16.7-25.2,38.5-26.4,61.4c-1.2,23,5.8,45.6,19.9,63.8c14,18.2,34.1,30.9,56.7,35.7
	c22.5,4.8,46.1,1.4,66.3-9.6c9.8-5.3,18.5-12.2,25.8-20.3l83.6,32.3l0.1-0.3c3.4,1,7.1-0.8,8.4-4.2l7.4-19.3
	c1.2-3.2-0.1-6.7-2.9-8.4l0-0.1l-13.3-5.1L323,279.8c-0.1,0-0.1,0-0.2-0.1l-19.6-7.5c-0.4-0.2-0.9-0.3-1.3-0.4l-0.2-0.1l0,0
	c-3.1-0.4-6.2,1.3-7.7,4.2c-5.7,10.9-14.5,20-25.4,25.9c-13,7-28,9.2-42.4,6.1c-14.4-3.1-27.3-11.2-36.3-22.8
	c-9-11.7-13.5-26.2-12.7-40.9c0.8-14.7,6.8-28.6,16.9-39.3c10.2-10.7,23.8-17.4,38.5-18.9c14.7-1.5,29.4,2.2,41.6,10.5
	c10.2,7,18.1,16.9,22.6,28.4c1.4,3.5,5.1,5.8,8.8,4.8L326.5,224.1z"/>
</svg>
