<?xml version="1.0" encoding="UTF-8"?>
<svg width="120px" height="120px" viewBox="0 0 120 120" version="1.1" xmlns="http://www.w3.org/2000/svg" xmlns:xlink="http://www.w3.org/1999/xlink">
    <!-- Generator: Sketch 42 (36781) - http://www.bohemiancoding.com/sketch -->
    <title>Page 1</title>
    <desc>Created with Sketch.</desc>
    <defs>
        <polygon id="path-1" points="120 0.12 120 63.3 60.0000075 63.3 1.5e-05 63.3 1.5e-05 0.12"></polygon>
    </defs>
    <g id="Page-1" stroke="none" stroke-width="1" fill="none" fill-rule="evenodd">
        <g>
            <path d="M0,0 L0,43.93605 L10.6233,43.93605 C15.37605,43.93605 19.6449,46.0062 22.5795,49.293 C24.4341,51.37005 25.75485,53.93355 26.32815,56.7681 C27.8079,49.4475 34.27695,43.93605 42.03375,43.93605 C49.7913,43.93605 56.2611,49.44885 57.73995,56.77065 L57.73995,43.93605 L73.76415,59.9598 L89.83395,43.93605 L89.83395,56.77065 C91.31295,49.44885 97.78245,43.93605 105.54015,43.93605 C111.9144,43.93605 117.41895,47.65815 120,53.0472 L120,0 L0,0 Z" id="Fill-1" fill="#939393"></path>
            <g id="Group-5" transform="translate(0.000000, 56.700000)">
                <mask id="mask-2" fill="white">
                    <use xlink:href="#path-1"></use>
                </mask>
                <g id="Clip-4"></g>
                <path d="M105.540165,19.28415 C97.782465,19.28415 91.312965,13.77135 89.833965,6.44955 L89.833965,19.28415 L84.431265,19.28415 L84.431265,0.12 L73.764165,10.8333 L63.050415,0.12 L63.050415,19.28415 L57.739965,19.28415 L57.739965,6.44955 C56.261115,13.77135 49.791315,19.28415 42.033765,19.28415 C34.276965,19.28415 27.807915,13.77255 26.328165,6.4521 C25.754715,9.2868 24.433965,11.8503 22.579215,13.9275 C19.644615,17.21415 15.375915,19.28415 10.623315,19.28415 L1.5e-05,19.28415 L1.5e-05,63.3 L120.000015,63.3 L120.000015,10.17285 C117.418965,15.56205 111.914415,19.28415 105.540165,19.28415" id="Fill-3" fill="#939393" mask="url(#mask-2)"></path>
            </g>
            <path d="M42.03369,70.65249 C47.93889,70.65249 52.72629,65.86539 52.72629,59.96004 C52.72629,54.05484 47.93889,49.26774 42.03369,49.26774 C36.12849,49.26774 31.34124,54.05484 31.34124,59.96004 C31.34124,65.86539 36.12849,70.65249 42.03369,70.65249" id="Fill-6" fill="#939393"></path>
            <path d="M21.315675,59.96001 C21.315675,54.29031 16.901775,49.65381 11.323125,49.29291 L5.310525,49.29291 L5.310525,70.62741 L11.319075,70.62741 C16.899675,70.26861 21.315675,65.63136 21.315675,59.96001" id="Fill-8" fill="#939393"></path>
            <path d="M105.540165,70.65249 C111.445215,70.65249 116.232765,65.86539 116.232765,59.96004 C116.232765,54.05484 111.445215,49.26774 105.540165,49.26774 C99.634815,49.26774 94.847715,54.05484 94.847715,59.96004 C94.847715,65.86539 99.634815,70.65249 105.540165,70.65249" id="Fill-10" fill="#939393"></path>
        </g>
    </g>
</svg>