<?xml version="1.0" encoding="utf-8"?>
<!-- Generator: Adobe Illustrator 26.0.2, SVG Export Plug-In . SVG Version: 6.00 Build 0)  -->
<svg version="1.1" id="Layer_1" xmlns="http://www.w3.org/2000/svg" xmlns:xlink="http://www.w3.org/1999/xlink" x="0px" y="0px"
	 viewBox="0 0 496 128" style="enable-background:new 0 0 496 128;" xml:space="preserve">
<style type="text/css">
	.st0{fill-rule:evenodd;clip-rule:evenodd;fill:#939393;}
</style>
<g id="colored_logo">
	<g id="colored_logomark_128">
		<g id="Group">
			<polygon id="Fill-71" class="st0" points="120,80 92,96 92,64 64,47.8 92,32 120,48 			"/>
			<polygon id="Fill-73" class="st0" points="64,48 36,64 36,32 8,16 36,0 64,16 			"/>
			<polygon id="Fill-75" class="st0" points="64,112 36,128 36,96 8,80 36,64 64,80 			"/>
		</g>
	</g>
	<g id="Group-2">
		<path id="Fill-1" class="st0" d="M196.3,77.9c-3.2,3.3-7.7,5.2-12.4,5h-11.6V46.5H184c4.6-0.2,9.1,1.7,12.4,5
			c3.2,3.4,4.8,7.8,4.8,13.2C201.1,70,199.5,74.5,196.3,77.9 M204.7,43.2c-5.4-5.7-12.9-8.8-20.7-8.7h-24v60.2h24
			c7.8,0.2,15.4-3,20.7-8.7c5.5-5.7,8.5-13.5,8.3-21.4C213.2,56.7,210.2,49,204.7,43.2"/>
		<path id="Fill-3" class="st0" d="M240.8,84.6c-3,0.1-5.9-1.1-8-3.2c-4.3-4.6-4.3-11.7,0-16.3c2.1-2.1,5-3.3,8-3.2
			c3-0.1,5.9,1.1,8,3.2c4.3,4.6,4.3,11.7,0,16.3C246.7,83.5,243.8,84.7,240.8,84.6 M257,57c-8.9-9-23.4-9-32.3-0.1
			c-4.4,4.3-6.8,10.2-6.8,16.3c-0.3,12.6,9.8,23.1,22.4,23.3c12.6,0.3,23.1-9.8,23.3-22.4c0-0.3,0-0.6,0-1
			C263.7,67.1,261.3,61.3,257,57"/>
		<polygon id="Fill-5" class="st0" points="310,51.6 293.5,94.8 280.5,94.8 264.1,51.6 276.9,51.6 287,80.6 297.1,51.6 		"/>
		<path id="Fill-7" class="st0" d="M322.6,68.8c0.6-2.3,1.8-4.3,3.6-5.7c2.1-1.5,4.6-2.3,7.1-2.2c2.3,0,4.6,0.7,6.5,2.1
			c1.9,1.4,3.2,3.5,3.6,5.8L322.6,68.8z M349,57c-4-4.3-9.8-6.7-15.7-6.6c-6.6,0-12.2,2.2-16.4,6.5c-4.3,4.3-6.6,10.2-6.4,16.3
			c-0.2,6.1,2.2,12,6.5,16.3c4.3,4.3,10,6.4,17.2,6.4c8.3,0,14.6-3.1,18.8-9.2l0.2-0.3l-9.5-5.4l-0.2,0.2c-2.1,2.7-5.2,4.1-9.3,4.1
			c-6.2,0-10-2.4-11.5-7.3h31.9l0.1-0.3c0.3-1.5,0.4-3,0.4-4.6C355.3,67.2,353.1,61.4,349,57z"/>
		<path id="Fill-9" class="st0" d="M376.3,62.8v17.3c-0.1,1.1,0.3,2.2,1,2.9c0.9,0.7,1.9,1.1,3,1.1c0.6,0,1.3,0,2,0
			c1,0,2.1,0,3.3-0.1h0.4v10.7h-0.3c-1.9,0.2-3.8,0.3-5.7,0.3c-4.7,0-8.2-0.8-10.5-2.5c-3.2-2.3-4.8-6.5-4.8-12.4V62.8h-7.4V51.6
			h7.4v-8.5l11.7-3.5v12.1h9.6v11.2H376.3z"/>
		<path id="Fill-11" class="st0" d="M412.5,84.8c-3.1,0.1-6-1.1-8.2-3.3c-2.2-2.2-3.4-5.3-3.2-8.4c-0.1-3.1,1.1-6.1,3.2-8.4
			c2.1-2.2,5.1-3.4,8.2-3.3c3.1-0.1,6.1,1.1,8.2,3.3c2.2,2.2,3.4,5.3,3.2,8.4c0.1,3.1-1.1,6.2-3.2,8.4
			C418.6,83.7,415.6,84.9,412.5,84.8L412.5,84.8z M424,51.6V56c-3.3-3.7-7.9-5.6-13.5-5.6c-5.7,0-11.1,2.4-14.9,6.6
			c-4.1,4.4-6.3,10.2-6.2,16.2c-0.1,6,2.1,11.8,6.2,16.2c3.8,4.2,9.2,6.7,14.9,6.6c5.7,0,10.2-1.9,13.5-5.6v4.4h11.7V51.6H424z"/>
		<path id="Fill-13" class="st0" d="M445.8,45.1c-1.4-1.3-2.1-3.1-2.1-5c0-1.9,0.8-3.7,2.1-5c1.3-1.4,3.1-2.2,5-2.1
			c3.9,0,7.1,3.1,7.2,7c0,1.9-0.7,3.8-2.1,5.1c-1.3,1.4-3.2,2.1-5.1,2.1C448.9,47.2,447.1,46.4,445.8,45.1"/>
		<polygon id="Fill-15" class="st0" points="444.9,94.8 456.6,94.8 456.6,51.6 444.9,51.6 		"/>
		<polygon id="Fill-17" class="st0" points="466,94.8 477.6,94.8 477.6,32 466,32 		"/>
	</g>
</g>
</svg>
