<?xml version="1.0" encoding="utf-8"?>
<!-- Generator: Adobe Illustrator 25.2.3, SVG Export Plug-In . SVG Version: 6.00 Build 0)  -->
<svg version="1.1" id="Layer_1" xmlns="http://www.w3.org/2000/svg" xmlns:xlink="http://www.w3.org/1999/xlink" x="0px" y="0px"
	 viewBox="0 0 277 76" style="enable-background:new 0 0 277 76;" xml:space="preserve">
<style type="text/css">
	.st0{fill:#939393;}
</style>
<path class="st0" d="M230.1,18.4c0-1.3,0.5-2.5,1.4-3.4c1-1,2.1-1.4,3.5-1.4c1.4,0,2.5,0.5,3.5,1.4c1,0.9,1.4,2.1,1.4,3.5
	c0,1.4-0.5,2.5-1.4,3.5c-0.9,1-2.1,1.5-3.5,1.5c-1.4,0-2.5-0.5-3.5-1.5C230.5,21,230.1,19.8,230.1,18.4z"/>
<path class="st0" d="M239.1,67.3V30.3h-7.9v36.9H239.1z"/>
<path class="st0" d="M216,30.4h8v36.9h-8v-3.9c-3.5,3.3-7.3,4.9-11.3,4.9c-5.1,0-9.3-1.8-12.6-5.5c-3.3-3.8-4.9-8.5-4.9-14.1
	c0-5.5,1.6-10.2,4.9-13.8c3.3-3.7,7.4-5.5,12.4-5.5c4.3,0,8.1,1.8,11.5,5.3V30.4z M195.3,48.7c0,3.5,0.9,6.4,2.8,8.6
	c1.9,2.3,4.9,3.8,7.9,3.8c3.1,0,5.7-1.5,7.6-3.6c1.9-2.3,2.9-5.1,2.9-8.6c0-3.5-1-6.3-2.9-8.6c-1.9-2.2-4.4-3.7-7.5-3.7
	c-2.9,0-5.9,1.5-7.9,3.7C196.3,42.6,195.3,45.4,195.3,48.7z"/>
<path class="st0" d="M163.4,30.4h8.1v3.3c1.6-1.6,2.9-2.8,4.1-3.4c1.2-0.6,2.7-0.9,4.4-0.9c2.2,0,4.6,0.7,7,2.2l-3.9,7.8
	c-1.6-1.2-3.2-1.7-4.7-1.7c-4.6,0-6.9,3.5-6.9,10.5v19.2h-8.1V30.4z"/>
<path class="st0" d="M245.9,30.3h8v3.4c3-3,6.3-4.4,10-4.4c4.3,0,7.6,1.4,10,4.1c2.1,2.3,3.1,6.1,3.1,11.3v22.6h-8.5V46.6
	c0-3.6-0.5-6.2-1.5-7.5c-1-1.4-2.8-2.1-5.4-2.1c-2.8,0-4.8,0.9-6,2.8c-1.2,1.8-1.7,5.1-1.7,9.7v17.8h-8V30.3z"/>
<path class="st0" d="M158,37.2h-23.5v7.9h14c-0.4,4.1-2.3,7.7-5.8,10.6c-3.4,2.9-7.3,4.4-11.7,4.4c-5.1,0-9.8-2-14.1-5.9
	c-4.7-4.2-7-9.6-7-16.1c0-6.3,2.1-11.6,6.3-15.8c4.2-4.3,9.3-6.4,15.5-6.4c5.3,0,10,1.9,14.1,5.8l6-6c-2.5-2.3-5-4.1-7.5-5.3
	c-3.9-1.9-8.2-2.8-12.7-2.8c-8.5,0-15.7,3-21.6,8.9c-5.9,5.9-8.9,13.1-8.9,21.6c0,8.3,2.9,15.4,8.7,21.4c5.8,5.9,12.8,8.9,20.9,8.9
	c8.3,0,15.2-3.1,20.6-9.2c2.4-2.7,4.1-5.7,5.1-8.8c1-3.4,1.5-7.3,1.5-11.7V37.2z"/>
<path class="st0" d="M30.7,0.9c3.1-1.2,6.4-1.2,9.5,0c3.4,1.3,6.8,2.9,10.2,4.7C51,6,50.9,7,50.2,7.2C32,13.7,18.9,31.1,18.9,51.6
	c0,6.4,1.3,12.5,3.6,18c0.3,0.8-0.5,1.6-1.2,1.2c-1.2-0.6-2.4-1.3-3.5-1.9c-4.2-2.5-8.2-5.2-11.9-8.2c-2.6-2.1-4.3-5-4.8-8.3
	C0.4,47.7,0,42.9,0,38c0-4.9,0.4-9.7,1.1-14.4c0.5-3.3,2.2-6.2,4.8-8.3c3.7-3,7.6-5.7,11.9-8.2C21.9,4.7,26.3,2.6,30.7,0.9z"/>
<path class="st0" d="M65,15.3c-0.4-0.3-0.9-0.7-1.3-1c-0.9-0.7-2.1-1-3.2-0.8c-19.8,3.6-34.8,21.1-34.8,42c0,6.5,1.4,12.7,4,18.2
	c0.4,0.9,1.1,1.5,2,1.8c2.8,0.8,5.7,0.7,8.4-0.4c4.4-1.7,8.7-3.8,13-6.3c4.2-2.5,8.2-5.2,11.9-8.2c2.6-2.1,4.3-5,4.8-8.3
	c0.7-4.7,1.1-9.5,1.1-14.4c0-4.9-0.4-9.7-1.1-14.4C69.2,20.3,67.5,17.4,65,15.3z"/>
</svg>
