<?xml version="1.0" encoding="utf-8"?>
<!-- Generator: Adobe Illustrator 24.0.3, SVG Export Plug-In . SVG Version: 6.00 Build 0)  -->
<svg version="1.1" id="Layer_1" xmlns="http://www.w3.org/2000/svg" xmlns:xlink="http://www.w3.org/1999/xlink" x="0px" y="0px"
	 viewBox="0 0 232 68" style="enable-background:new 0 0 232 68;" xml:space="preserve">
<style type="text/css">
	.st0{fill:#939393;}
</style>
<title>Grain_logo_Hozirontal_standard</title>
<desc>Created with Sketch.</desc>
<g id="Page-1">
	<g id="Grain_logo_Hozirontal_standard">
		<path id="Combined-Shape" class="st0" d="M33.7,0c20.7,0,35.1,13.9,35.1,37.8c0,16.6-14.4,30.1-35.1,30.1C13.5,67.9,0,56.2,0,35.5
			S5.8,0,33.7,0z M34.6,18.8v-5c-5.1,0-10.1,1.7-14,5c-2,1.7-3.6,3.8-4.6,6.2c-1.1,2.4-1.6,4.9-1.7,7.5c0,5.1,1.7,10.1,4.9,14
			c1.6,2,3.6,3.7,5.8,4.9c2.3,1.3,4.7,2,7.3,2.3c5.2,0.6,10.3-0.9,14.5-4c2-1.6,3.7-3.5,5-5.7c1.4-2.2,2.2-4.8,2.5-7.4
			c0.1-0.6,0.1-1.3,0.1-2c0-0.7-0.1-1.5-0.2-2.2c-0.3-1.5-1-2.8-2-4c-2-2.3-4.8-3.6-7.8-3.7h-1.1l-1.1,0.1c-0.7,0.1-1.4,0.3-2.1,0.6
			c-0.6,0.2-1.2,0.5-1.8,0.9c-0.6,0.3-1.2,0.7-1.7,1.1C36,28,35.5,28.5,35,29c-0.5,0.5-1,1.1-1.4,1.7c-0.8,1.2-1.3,2.6-1.5,4.1
			l4.9,0.8c0.1-0.8,0.4-1.5,0.8-2.2c0.2-0.3,0.4-0.6,0.7-0.9c0.3-0.3,0.6-0.6,1-0.8c0.4-0.3,0.7-0.5,1.1-0.7
			c0.4-0.2,0.8-0.4,1.2-0.6c0.4-0.1,0.7-0.2,1.1-0.3l0.7,0h0.6c1.6,0,3,0.7,4.1,1.9c0.5,0.6,0.8,1.2,0.9,1.9
			c0.1,0.4,0.1,0.7,0.1,1.1c0,0.5,0,0.9-0.1,1.4c-0.2,1.9-0.8,3.7-1.8,5.3c-1,1.7-2.2,3.2-3.8,4.4c-3.1,2.4-7,3.4-10.8,3
			c-3.9-0.4-7.4-2.4-9.9-5.5c-2.5-3.1-3.8-6.9-3.8-10.9c0-1.9,0.4-3.8,1.1-5.5c0.8-1.7,1.9-3.3,3.3-4.5
			C26.9,20.1,30.7,18.8,34.6,18.8z"/>
		<path id="Shape" class="st0" d="M118.4,19.5c0.3,1.2,0.6,22.1,0.7,25.2c0.1,15.9-7.1,20.7-15.9,20.7c-7.2,0-12.4-3.2-13.2-4.6
			c0.6-2,1.6-3.9,2.8-5.6c0.4-0.3,4,3.2,9.5,3.2c6.4,0,8.7-4.5,8.7-11.7c-1.1,1.8-4.3,4.4-9.7,4.4c-7.9-0.1-15-6.1-15-15.6
			c0-9.9,6.8-16.3,15.2-16.3c3.7-0.1,7.3,1.4,9.8,4.2c0-0.8,0.1-3.2,0-3.9C112,19,118.3,19.3,118.4,19.5z M103,44.4
			c4.3,0,8-2.8,8-8.6c0-5.1-2.6-8.8-8-8.8c-4.3,0-8,2.5-8,8.7C95,41,98,44.4,103,44.4z"/>
		<path id="Path" class="st0" d="M145.8,28.1c-1.4-0.4-2.9-0.5-4.3-0.6c-3.2,0.1-5.4,2.5-6,5.6c-0.1,1.1,0.3,18,0.2,18.2
			c-0.1,0.2-8.3,0.4-8.5,0c-0.1-0.4-0.1-29.8,0.1-31.1c0.4-1,7.4-1.3,7.9-0.7c0.1,1.6,0,3.1-0.1,4.7c2.6-4.3,7.5-5.4,11.8-4.7
			C147.7,19.9,146.7,27,145.8,28.1z"/>
		<path id="Shape_1_" class="st0" d="M163.4,18.8c8.3,0,13.7,4.9,13.7,14.5c0,6.6-0.4,17.3-0.5,17.7c-0.1,0.3-6.7,0-6.7,0l-0.4-2.8
			c-2.3,2.3-5.4,3.6-8.7,3.5c-7.6,0-10.8-4.5-10.8-9.8c0-6.2,5.2-10.1,12-10.1c2.6-0.1,5.1,0.7,7.1,2.4c0-4.7-0.6-8.2-6.7-8.2
			c-5,0-6.6,3.4-7.2,3.4c-0.6,0.1-4.3-3.1-4.3-3.7C151,24.6,155.1,18.8,163.4,18.8z M162.9,46.3c3.9,0,5.9-2.3,5.9-4.7
			c0-3-2.6-4.9-6-4.9c-3.4,0-5.8,2.2-5.8,4.9S159.6,46.3,162.9,46.3L162.9,46.3z"/>
		<path id="Shape_2_" class="st0" d="M189.1,3.6c3,0,5.1,2,5.1,5.5c0,2.4-2.1,4.4-5.1,4.4s-4.9-1.7-4.9-4.7S185,3.6,189.1,3.6z
			 M193.1,19.5c0.3,0.2,0,31.2-0.3,31.7c-0.3,0.5-7.4,0.3-7.5,0.1c-0.1-0.2-0.8-31-0.3-31.7C185.3,18.9,192.8,19.2,193.1,19.5
			L193.1,19.5z"/>
		<path id="Path_1_" class="st0" d="M209.4,19.7c0,1.3-0.1,3.6-0.1,4.1c1.3-2.3,5.2-4.9,10.1-4.9c6.9,0,11.7,5.3,11.7,13.8
			c0,4.1-0.3,15.3-0.5,18.7c-0.1,0.7-7.6,0.5-7.8,0.3c-0.2-0.1,0.1-15.8,0.1-18.3c0-4.1-2.1-7.1-6.3-7.1c-1.8-0.1-3.6,0.5-4.9,1.7
			c-1.3,1.2-2.1,2.9-2.2,4.7c0,2.6-0.1,18.1-0.3,18.3c-0.2,0.2-7.6,0.1-7.8-0.3s-0.1-16.9,0-30.6C201.9,19.5,209,19.1,209.4,19.7z"
			/>
	</g>
</g>
</svg>
