<?xml version="1.0" encoding="utf-8"?>
<!-- Generator: Adobe Illustrator 24.0.2, SVG Export Plug-In . SVG Version: 6.00 Build 0)  -->
<svg version="1.1" id="Layer_1" xmlns="http://www.w3.org/2000/svg" xmlns:xlink="http://www.w3.org/1999/xlink" x="0px" y="0px"
	 viewBox="0 0 790 218" style="enable-background:new 0 0 790 218;" xml:space="preserve">
<style type="text/css">
	.st0{fill:none;}
	.st1{fill:#939393;}
</style>
<path class="st0" d="M1,54.7C1,35.8,1,16.9,1-2c263,0,526,0,789,0c0,73.3,0,146.7,0,220c-263,0-526,0-789,0c0-20.2,0-40.5,0-60.7
	c0.7,4.1,3.4,6.3,6.9,8.4c27.9,16.2,55.6,32.6,83.4,49c2.6,1.5,4.6,1.7,7.2,0.1c28.6-16.9,57.2-33.8,85.9-50.5c3-1.8,4-3.7,4-7.1
	c-0.1-32.3-0.1-64.7,0.1-97c0-3.9-1.2-5.9-4.5-7.8c-28.3-16.5-56.5-33-84.6-49.8c-3.3-1.9-5.6-2-9,0C64.2,18.2,37.8,33.7,11.5,49.2
	C8.1,51.2,4.5,52.9,1,54.7z M405.9,54c0,37.3,0,74.1,0,110.9c28.4,0,56.5,0,84.5,0c0-7.6,0-14.8,0-22.6c-20.1,0-40,0-59.9,0
	c0-7.7,0-14.9,0-22.6c18.3,0,36.2,0,54.4,0c0-7.4,0-14.2,0-21.7c-18.2,0-36.3,0-54.4,0c0-7.5,0-14.3,0-21.6c19.5,0,38.5,0,57.7,0
	c0-7.7,0-14.9,0-22.4C460.7,54,433.5,54,405.9,54z M253.5,54.1c0,37.2,0,74,0,110.9c8.3,0,16.2,0,24.7,0c0-14.6,0-29,0-43.5
	c16.8,0,33.1,0,49.9,0c0,14.5,0,28.9,0,43.5c8.4,0,16.3,0,24.2,0c0-37.2,0-74,0-110.8c-8.2,0-15.9,0-24.2,0c0,14.8,0,29.4,0,44
	c-16.9,0-33.2,0-50.1,0c0-14.8,0-29.3,0-44.1C269.6,54.1,261.9,54.1,253.5,54.1z M652,165.2c0-1,0.1-1.4,0-1.7
	c-16.1-35.8-32.1-71.6-48.4-107.4c-0.5-1.2-2.7-2.3-4.1-2.3c-6.5-0.2-13,0.1-19.5-0.2c-3.6-0.2-5.2,1.2-6.6,4.3
	c-15.2,34.2-30.6,68.3-46,102.4c-0.6,1.4-1.2,2.9-1.9,4.8c3.7,0,6.7,0,9.6,0c5.6-0.1,12.5,1.6,16.5-0.9c3.8-2.4,4.9-9.4,6.9-14.4
	c1.1-2.7,2.5-3.8,5.5-3.7c16.6,0.2,33.3,0.1,49.9,0c2.7,0,4.2,0.7,5.2,3.3c1.6,4.4,3.4,8.6,5.5,12.8c0.6,1.3,2.5,2.8,3.8,2.8
	C636.2,165.4,644,165.2,652,165.2z M717.6,133.4c11.4,0,22,0.4,32.7-0.1c20.7-0.9,35.7-14.8,37.6-34.3c2.2-21.9-9.2-38.8-29.6-43.8
	c-2.1-0.5-4.2-1.1-6.4-1.1c-19.6-0.1-39.2-0.1-59-0.1c0,36.9,0,73.8,0,110.7c8.3,0,16.3,0,24.8,0
	C717.6,154.4,717.6,144.3,717.6,133.4z"/>
<path class="st1" d="M1,54.7c3.5-1.8,7.1-3.6,10.5-5.6c26.3-15.5,52.7-31,78.9-46.6c3.3-2,5.7-1.9,9,0
	c28.1,16.7,56.3,33.3,84.6,49.8c3.3,1.9,4.5,3.9,4.5,7.8c-0.2,32.3-0.2,64.7-0.1,97c0,3.4-1,5.3-4,7.1
	c-28.7,16.7-57.4,33.5-85.9,50.5c-2.7,1.6-4.6,1.5-7.2-0.1c-27.7-16.4-55.5-32.8-83.4-49c-3.5-2-6.1-4.3-6.9-8.4
	C1,123.1,1,88.9,1,54.7z M173.2,62.9c-26.5,15.5-51.8,30.3-78.1,45.7c0-31,0-60.7,0-91c-1.7,0.8-2.6,1.1-3.4,1.6
	c-23.9,14-47.9,28-71.7,42.2c-1.7,1-3.1,3.9-3.2,5.9c-0.2,27.4-0.1,54.7-0.3,82.1c0,3.5,1.4,5.4,4.2,7c23.5,13.7,47,27.5,70.4,41.5
	c2.8,1.7,5,1.6,7.8-0.1c23.3-13.9,46.6-27.6,69.9-41.3c3.2-1.9,4.5-4,4.5-7.9c-0.2-26.5-0.1-53.1-0.1-79.6
	C173.2,67.4,173.2,65.8,173.2,62.9z"/>
<path class="st1" d="M405.9,54c27.6,0,54.8,0,82.3,0c0,7.5,0,14.7,0,22.4c-19.2,0-38.2,0-57.7,0c0,7.3,0,14.1,0,21.6
	c18.1,0,36.2,0,54.4,0c0,7.5,0,14.4,0,21.7c-18.2,0-36.1,0-54.4,0c0,7.7,0,14.8,0,22.6c19.9,0,39.7,0,59.9,0c0,7.8,0,15,0,22.6
	c-28.1,0-56.1,0-84.5,0C405.9,128.1,405.9,91.2,405.9,54z"/>
<path class="st1" d="M253.5,54.1c8.4,0,16.1,0,24.4,0c0,14.8,0,29.3,0,44.1c16.9,0,33.3,0,50.1,0c0-14.6,0-29.2,0-44
	c8.3,0,16,0,24.2,0c0,36.8,0,73.7,0,110.8c-7.8,0-15.7,0-24.2,0c0-14.6,0-28.9,0-43.5c-16.8,0-33.1,0-49.9,0c0,14.5,0,28.8,0,43.5
	c-8.5,0-16.4,0-24.7,0C253.5,128.1,253.5,91.3,253.5,54.1z"/>
<path class="st1" d="M652,165.2c-8,0-15.8,0.1-23.6-0.1c-1.3,0-3.1-1.5-3.8-2.8c-2.1-4.1-3.9-8.4-5.5-12.8c-1-2.6-2.5-3.4-5.2-3.3
	c-16.6,0.1-33.3,0.1-49.9,0c-3,0-4.4,1-5.5,3.7c-2,5.1-3.1,12-6.9,14.4c-4.1,2.6-10.9,0.8-16.5,0.9c-3,0.1-6,0-9.6,0
	c0.8-1.9,1.3-3.4,1.9-4.8c15.3-34.1,30.7-68.3,46-102.4c1.4-3.1,3-4.5,6.6-4.3c6.5,0.3,13,0,19.5,0.2c1.4,0.1,3.6,1.1,4.1,2.3
	c16.2,35.7,32.3,71.6,48.4,107.4C652.1,163.8,652,164.2,652,165.2z M608.2,124c-6.5-15.2-12.6-29.7-19.1-45.1
	c-6.7,15.6-12.8,30.1-19.2,45.1C582.9,124,595.1,124,608.2,124z"/>
<path class="st1" d="M717.6,133.4c0,10.9,0,21,0,31.4c-8.4,0-16.5,0-24.8,0c0-36.9,0-73.8,0-110.7c19.9,0,39.5,0,59,0.1
	c2.1,0,4.3,0.6,6.4,1.1c20.4,5,31.8,21.9,29.6,43.8c-2,19.5-16.9,33.4-37.6,34.3C739.7,133.8,729,133.4,717.6,133.4z M717.8,77.7
	c0,11.3,0,22,0,32.7c11.1,0,21.9,0.7,32.6-0.2c8.2-0.7,13.1-8.1,12.7-16.9c-0.3-8.1-6-15-14.1-15.4
	C738.8,77.2,728.5,77.7,717.8,77.7z"/>
</svg>
