<?xml version="1.0" encoding="UTF-8"?>
<svg width="160px" height="45px" viewBox="0 0 160 45" version="1.1" xmlns="http://www.w3.org/2000/svg" xmlns:xlink="http://www.w3.org/1999/xlink">
    <!-- Generator: Sketch 54.1 (76490) - https://sketchapp.com -->
    <title>indeed</title>
    <desc>Created with Sketch.</desc>
    <g id="Page-1" stroke="none" stroke-width="1" fill="none" fill-rule="evenodd">
        <g id="indeed" fill="#929292">
            <path d="M152.208909,35.3181885 C151.608882,36.5732835 150.811659,37.5033062 149.837489,38.1091979 C148.838248,38.7157958 147.752221,39.0180355 146.556266,39.0180355 L146.534087,39.0180355 C145.337409,39.0180355 144.250659,38.69414 143.253105,38.0668278 C142.25507,37.4176245 141.458811,36.4645337 140.881927,35.2101448 C140.305525,33.9336294 140.017204,32.3967734 140.017204,30.5779213 C140.017204,28.8671128 140.282864,27.3535604 140.835882,26.075868 C141.368409,24.7779321 142.145382,23.7812943 143.119793,23.0883086 C144.117587,22.376021 145.224829,22.0507131 146.488766,22.0507131 L146.556266,22.0507131 C147.732212,22.0507131 148.816793,22.3974414 149.814829,23.0687713 C150.811659,23.739395 151.608882,24.7127293 152.208909,25.9904217 C152.806525,27.2669372 153.094364,28.8030869 153.094364,30.5779213 C153.094364,32.4822197 152.806525,34.0630934 152.208909,35.3181885 M159.101141,8.09072281 C158.525221,7.4408133 157.748971,7.11715319 156.708266,7.11715319 C155.666355,7.11715319 154.867445,7.46317528 154.314186,8.17805219 C153.759239,8.86986097 153.470677,9.90933956 153.470677,11.2734198 L153.470677,21.1411694 C152.186007,19.7561395 150.855775,18.7611494 149.5024,18.0898195 C148.661543,17.6781238 147.664712,17.3756487 146.556266,17.2240581 C145.91357,17.1376703 145.247971,17.0938879 144.515837,17.0938879 C141.124686,17.0938879 138.377195,18.2635367 136.271195,20.6004804 C134.188338,22.9378949 133.145704,26.1839116 133.145704,30.3625402 C133.145704,32.3315706 133.413293,34.1706663 133.944373,35.8600543 C134.474971,37.5477947 135.22832,39.0180355 136.249016,40.2731306 C137.269712,41.5294026 138.486641,42.4813164 139.883891,43.1759499 C141.2809,43.845632 142.788079,44.1914187 144.429052,44.1914187 C145.182159,44.1914187 145.890427,44.1264513 146.556266,43.9969873 C146.999114,43.9320199 147.420989,43.8232701 147.842623,43.6930999 C148.88357,43.3470778 149.857739,42.8494651 150.745123,42.224036 C151.653721,41.5729496 152.564007,40.7295502 153.470677,39.7121982 L153.470677,40.3614015 C153.470677,41.5950762 153.7819,42.5253342 154.380962,43.194781 C155.000757,43.845632 155.777007,44.1914187 156.708266,44.1914187 C157.660498,44.1914187 158.437471,43.8675232 159.03557,43.2390342 C159.633427,42.58936 159.945132,41.6374462 159.945132,40.3614015 L159.945132,10.9264562 C159.945132,9.69278152 159.655605,8.73969076 159.101141,8.09072281" id="Fill-1"></path>
            <path d="M115.990485,22.5540479 C117.077081,21.3727626 118.472962,20.7923035 120.177888,20.7923035 L120.200048,20.7923035 C121.972179,20.7923035 123.410213,21.3727626 124.494881,22.5319836 C125.581958,23.6907197 126.225581,25.4512517 126.377574,27.814792 L113.99723,27.814792 C114.219559,25.4953802 114.88462,23.7355755 115.990485,22.5540479 M131.937974,35.1493319 C131.516681,34.7720577 130.941949,34.5698427 130.231121,34.5698427 C129.58798,34.5698427 129.101891,34.7267169 128.747079,35.0159767 C127.884981,35.8187754 127.198964,36.4642149 126.665904,36.9328981 C126.135975,37.379032 125.536673,37.8241962 124.894255,38.2487509 C124.273997,38.6509989 123.610864,38.9613529 122.946766,39.1412613 C122.258581,39.3412942 121.528002,39.430521 120.709984,39.430521 C120.531736,39.430521 120.354932,39.430521 120.200048,39.4084568 C119.18138,39.3412942 118.229194,39.0503373 117.366374,38.5169162 C116.346501,37.913423 115.547754,37.0226098 114.92846,35.8638737 C114.331085,34.6590695 114.019872,33.2779938 113.99723,31.7167673 L127.354812,31.7167673 C129.147657,31.7167673 130.542575,31.4495718 131.516681,30.9590669 C132.513911,30.4229787 133,29.3090985 133,27.591725 C133,25.7211143 132.513911,23.8917224 131.562447,22.0856072 C130.607371,20.3030109 129.191256,18.8302838 127.264483,17.6943393 C125.35987,16.5576675 123.078767,16 120.398531,16 L120.200048,16 C118.229194,16.0220642 116.411779,16.3561798 114.795255,16.9805249 C113.112971,17.6499684 111.695411,18.6069743 110.520414,19.8348127 C109.390943,21.0818057 108.505239,22.5768395 107.907383,24.3160347 C107.309045,26.0535326 107,27.9488747 107,29.9773296 C107,34.3024047 108.218355,37.6913258 110.653619,40.2110131 C112.957847,42.5968601 116.14561,43.8440956 120.200048,43.9779358 C120.421655,44 120.663977,44 120.907744,44 C122.813561,44 124.518487,43.7553537 126.002047,43.2413297 C127.486089,42.729003 128.704926,42.1056278 129.679513,41.3469575 C130.652656,40.5674353 131.383476,39.7646366 131.87077,38.9400161 C132.358063,38.1144257 132.60159,37.379032 132.60159,36.7765087 C132.60159,36.0852435 132.382633,35.5287883 131.937974,35.1493319" id="Fill-4"></path>
            <path d="M88.9916627,22.5540479 C90.0784081,21.3727626 91.4739319,20.7923035 93.1767888,20.7923035 L93.2008745,20.7923035 C94.9702079,20.7923035 96.4107719,21.3727626 97.4953496,22.5319836 C98.6054582,23.6907197 99.2230148,25.4512517 99.4010079,27.814792 L86.9985734,27.814792 C87.2411161,25.4953802 87.9070849,23.7355755 88.9916627,22.5540479 M103.254234,34.5698427 C102.591155,34.5698427 102.101975,34.7267169 101.748157,35.0159767 C100.907326,35.8187754 100.198244,36.4642149 99.666432,36.9328981 C99.1365472,37.379032 98.5601771,37.8241962 97.9178123,38.2487509 C97.2747249,38.6509989 96.6326009,38.9613529 95.9473635,39.1412613 C95.2816356,39.3412942 94.5287175,39.430521 93.7105273,39.430521 C93.532775,39.430521 93.3557454,39.430521 93.2008745,39.4084568 C92.1820506,39.3412942 91.2282581,39.0503373 90.3667136,38.5169162 C89.3700485,37.913423 88.5494497,37.0226098 87.9528477,35.8638737 C87.3316782,34.6590695 87.0202505,33.2779938 86.9985734,31.7167673 L100.375514,31.7167673 C102.147015,31.7167673 103.543502,31.4495718 104.538722,30.9590669 C105.512988,30.4229787 106,29.3090985 106,27.591725 C106,25.7211143 105.535628,23.8917224 104.584003,22.0856072 C103.630933,20.3030109 102.191574,18.8302838 100.286879,17.6943393 C98.3819432,16.5576675 96.0805573,16 93.4224627,16 L93.2008745,16 C91.2282581,16.0220642 89.4360433,16.3561798 87.7970134,16.9805249 C86.1136658,17.6499684 84.6962241,18.6069743 83.5439656,19.8348127 C82.3929114,21.0818057 81.5063179,22.5768395 80.9085115,24.3160347 C80.3102234,26.0535326 80,27.9488747 80,29.9773296 C80,34.3024047 81.2413755,37.6913258 83.6764368,40.2110131 C85.9804721,42.5968601 89.1467744,43.8440956 93.2008745,43.9779358 C93.4441398,44 93.6652462,44 93.9085115,44 C95.8360877,44 97.518231,43.7553537 99.00239,43.2413297 C100.485586,42.729003 101.705525,42.1056278 102.679549,41.3469575 C103.675492,40.5674353 104.383611,39.7646366 104.870623,38.9400161 C105.358839,38.1144257 105.601382,37.379032 105.601382,36.7765087 C105.601382,36.0852435 105.379794,35.5287883 104.960222,35.1493319 C104.516804,34.7720577 103.94212,34.5698427 103.254234,34.5698427" id="Fill-6"></path>
            <path d="M14.0148355,39.7544847 L14.0148355,23.7662279 C14.4510935,23.8101692 14.8659,23.8326123 15.3028355,23.8326123 C17.3784484,23.8326123 19.3291903,23.2446021 20.9899968,22.2041853 L20.9899968,39.7544847 C20.9899968,41.2532139 20.6589645,42.3609601 20.0149645,43.098985 C19.3718677,43.8372462 18.5201258,44.2069674 17.4818677,44.2069674 C16.4650613,44.2069674 15.6562226,43.8372462 14.9896419,43.0772506 C14.3474484,42.3394619 14.0148355,41.231952 14.0148355,39.7544847" id="Fill-8"></path>
            <path d="M70.2362927,35.1445442 C69.6327029,36.3971251 68.8274299,37.3252848 67.8202305,37.9299628 C66.8371163,38.5353456 65.7177625,38.8369798 64.5317487,38.8369798 L64.5105829,38.8369798 C63.3024301,38.8369798 62.2052153,38.5137332 61.1997189,37.8876776 C60.1708671,37.2397747 59.3884629,36.2885932 58.8060389,35.036717 C58.2248313,33.7627586 57.9338626,32.2289812 57.9338626,30.4137725 C57.9338626,28.706391 58.2014759,27.1958705 58.7388922,25.9207375 C59.2982042,24.6254016 60.0584695,23.6307602 61.0646958,22.9391627 C62.0497563,22.2283019 63.1902758,21.9036457 64.4434363,21.9036457 L64.5317487,21.9036457 C65.7177625,21.9036457 66.8142475,22.2496794 67.799308,22.9196645 C68.8274299,23.5889449 69.6327029,24.5603294 70.2362927,25.8354624 C70.8179869,27.1094208 71.1318244,28.6424934 71.1318244,30.4137725 C71.1318244,32.3142563 70.8179869,33.8919633 70.2362927,35.1445442 M77.1708851,7.97161941 C76.5904074,7.32301177 75.7851344,7 74.7776917,7 C73.726701,7 72.9192384,7.34532895 72.3618728,8.05783419 C71.7794487,8.74919684 71.5132951,9.78659319 71.5132951,11.147941 L71.5132951,20.9959239 C70.2141538,19.6136684 68.8731675,18.6206715 67.508096,17.9506863 C66.6354331,17.5398154 65.6511024,17.2379462 64.5317487,17.0866592 C63.8841243,17.0004444 63.2133879,16.9567498 62.4740451,16.9567498 C59.0519999,16.9567498 56.2556834,18.1240556 54.1529721,20.456318 C52.0514773,22.7890503 51,26.0285647 51,30.1988229 C51,32.163909 51.2680999,33.9993206 51.7814311,35.6853246 C52.3193339,37.3696842 53.1017381,38.8369798 54.1308332,40.0895608 C55.1601716,41.3433163 56.3899767,42.2933233 57.7990827,42.9865652 C59.2086754,43.654906 60.7292059,44 62.3857327,44 C63.1228859,44 63.8388733,43.9351627 64.5317487,43.805958 C64.9796362,43.7411207 65.4044116,43.6325888 65.829187,43.5026793 C66.8813941,43.1573504 67.8654815,42.6607345 68.7602833,42.0365583 C69.6769807,41.386776 70.5725124,40.5450661 71.5132951,39.529752 L71.5132951,40.1776549 C71.5132951,41.4088583 71.8246997,42.3372529 72.4290194,43.0053587 C73.0328525,43.654906 73.8378822,44 74.7776917,44 C75.6948757,44 76.4999054,43.6767533 77.1037385,43.0495232 C77.7080581,42.4011505 78,41.4511435 78,40.1776549 L78,10.8016724 C78,9.57046895 77.7289806,8.61928737 77.1708851,7.97161941" id="Fill-11"></path>
            <path d="M32.3069227,19.7956964 L32.3069227,20.6437176 C33.5056651,19.0360714 34.7943369,17.8762348 36.1890732,17.1175812 C37.6063512,16.3795696 39.222945,16 41.0552271,16 C42.8215451,16 44.413699,16.4009402 45.8100963,17.1836356 C47.20768,17.9653596 48.232021,19.0809981 48.9315247,20.5322509 C49.3894766,21.3831863 49.672078,22.295562 49.803057,23.2788489 C49.9333241,24.2390654 50,25.4897267 50,27.0072767 L50,39.8031206 C50,41.1871048 49.672078,42.2354747 49.062741,42.929531 C48.4503193,43.6430151 47.6435647,44 46.6612224,44 C45.6584739,44 44.8512447,43.6430151 44.2188915,42.9062177 C43.5853519,42.1905481 43.2797342,41.1419353 43.2797342,39.8031206 L43.2797342,28.3482771 C43.2797342,26.0694022 42.9748285,24.3291616 42.3638305,23.1224555 C41.7518834,21.9186636 40.5082949,21.3134893 38.6767247,21.3134893 C37.4770332,21.3134893 36.385779,21.6930589 35.4034366,22.4087286 C34.4213315,23.1452831 33.6800664,24.1499406 33.2225891,25.4448 C32.895379,26.4710709 32.7418583,28.3696476 32.7418583,31.2060989 L32.7418583,39.8031206 C32.7418583,41.2084754 32.4155973,42.2354747 31.7830067,42.9521158 C31.1492298,43.6430151 30.3431871,44 29.3385403,44 C28.3571471,44 27.5707986,43.6430151 26.9391573,42.9062177 C26.3053803,42.1905481 26,41.1419353 26,39.8031206 L26,19.9071631 C26,18.5897189 26.2849742,17.6083747 26.8508888,16.9828012 C27.3966346,16.334643 28.1611532,16 29.1434955,16 C29.7302909,16 30.256105,16.1342943 30.7349376,16.4237678 C31.2149566,16.7144555 31.6067071,17.1384661 31.8916813,17.7198415 C32.1754691,18.2990312 32.3069227,18.9916305 32.3069227,19.7956964" id="Fill-13"></path>
            <path d="M13.7462784,1.19977684 C18.1828144,-0.469054737 23.2385584,-0.379233684 27.0370944,3.04728211 C27.7398224,3.73776632 28.5501984,4.60619789 28.8691984,5.62933474 C29.2547824,6.92145053 27.5263824,5.49738737 27.2920624,5.31871368 C26.0538784,4.47231368 24.8156944,3.76173474 23.4311184,3.27122947 C15.9648944,0.867850526 8.9039744,5.20661895 4.5087344,11.9528821 C2.6740784,14.9346505 1.4809024,18.0742716 0.4995424,21.5257242 C0.3923584,21.9036505 0.3062864,22.3929453 0.1146544,22.7268084 C-0.0779056,23.1054611 0.0302064,21.7017347 0.0302064,21.65864 C0.1789184,20.2336084 0.4563904,18.85264 0.7981264,17.4738505 C2.8244144,10.1261979 7.3038704,4.00553474 13.7462784,1.19977684" id="Fill-15"></path>
            <path d="M19.9906998,19.3958412 C17.2833302,20.7824163 13.9683282,19.700016 12.6048657,16.9909521 C11.2171356,14.2825951 12.2997536,10.9675378 15.0087723,9.60311021 C17.7170843,8.21818436 21.0320863,9.30058472 22.3964912,12.0087061 C23.7823365,14.7151783 22.6990117,18.0304711 19.9906998,19.3958412" id="Fill-18"></path>
        </g>
    </g>
</svg>