<?xml version="1.0" encoding="UTF-8"?>
<svg width="170px" height="57px" viewBox="0 0 170 57" version="1.1" xmlns="http://www.w3.org/2000/svg" xmlns:xlink="http://www.w3.org/1999/xlink">
    <!-- Generator: Sketch 49.3 (51167) - http://www.bohemiancoding.com/sketch -->
    <title>invision</title>
    <desc>Created with Sketch.</desc>
    <defs>
        <polygon id="path-1" points="0 0 169.888397 0 169.888397 56.9870455 0 56.9870455"></polygon>
    </defs>
    <g id="Page-1" stroke="none" stroke-width="1" fill="none" fill-rule="evenodd">
        <g id="invision">
            <g id="Group-4">
                <mask id="mask-2" fill="white">
                    <use xlink:href="#path-1"></use>
                </mask>
                <g id="Clip-2"></g>
                <path d="M132.403397,44.7907727 C125.131463,44.7907727 119.757214,39.2449318 119.757214,32.43775 C119.757214,25.5839318 125.177532,19.9491364 132.49402,19.9491364 C139.80986,19.9491364 145.185623,25.4949773 145.185623,32.3472841 C145.185623,39.1551136 139.765954,44.7907727 132.403397,44.7907727 Z M132.403397,24.7276364 C128.022112,24.7276364 125.222087,28.1551932 125.222087,32.3472841 C125.222087,36.5853636 128.247913,40.0573977 132.49402,40.0573977 C136.919211,40.0573977 139.719885,36.6304886 139.719885,32.43775 C139.719885,28.1990227 136.69341,24.7276364 132.403397,24.7276364 Z M98.261514,44.7009545 C94.8937405,44.7009545 91.170827,43.4951023 88.1990712,41.1783977 C89.5106234,39.3166136 90.9556234,38.8891136 92.0061196,38.8891136 C92.7025573,38.8891136 93.2257506,39.0771705 93.4212723,39.1594318 C95.1253817,39.9611023 96.8351145,40.3724091 98.3966921,40.3724091 C100.745115,40.3724091 102.100573,39.3805227 102.100573,37.8020114 L102.100573,37.7121932 C102.100573,35.8640114 99.5709033,35.2329091 96.7700127,34.3766136 C93.2473791,33.3845114 89.3183461,31.9418068 89.3183461,27.3887159 L89.3183461,27.29825 C89.3183461,22.7887727 93.0669975,20.0389545 97.8083969,20.0389545 C100.791183,20.0389545 104.041947,21.0761818 106.571616,22.7451591 C105.20902,24.8573977 103.670153,25.3295909 102.56645,25.3295909 C102.078728,25.3295909 101.675789,25.2371818 101.41084,25.153625 C101.306374,25.1143295 101.201692,25.0733068 101.09874,25.0370341 C101.076031,25.0266705 101.064351,25.0208409 101.064351,25.0208409 L101.065216,25.0238636 C99.86743,24.6043523 98.7085751,24.3672841 97.6732188,24.3672841 C95.550598,24.3672841 94.3309669,25.3593864 94.3309669,26.7569659 L94.3309669,26.8474318 C94.3309669,28.5602386 96.906056,29.2807273 99.7067303,30.183875 C103.18416,31.2655795 107.113193,32.8440909 107.113193,37.1264318 L107.113193,37.21625 C107.113193,42.2223182 103.228066,44.7009545 98.261514,44.7009545 Z M67.2808524,44.4295568 L62.3582061,44.4295568 L57.0992366,31.5605114 L57.0992366,20.4459432 L58.4287405,20.4459432 L64.8418066,37.9376023 L71.3005089,20.4459432 L77.0361705,20.4459432 L67.2808524,44.4295568 Z M169.888397,44.2501364 L164.423524,44.2501364 L164.423524,30.7236477 C164.423524,27.0268523 162.572557,24.9085682 159.32028,24.9085682 C156.15841,24.9085682 153.945165,27.1173182 153.945165,30.8138977 L153.945165,44.2501364 L148.480941,44.2501364 L148.480941,20.4459432 L153.945165,20.4459432 L153.945165,24.141875 C155.481005,21.888 157.693601,19.9491364 161.397697,19.9491364 C166.771947,19.9491364 169.888397,23.5561136 169.888397,29.1013068 L169.888397,44.2501364 Z M110.724936,44.2501364 L116.190674,44.2501364 L116.190674,20.4459432 L110.724936,20.4459432 L110.724936,44.2501364 Z M79.7440585,44.2501364 L85.2089313,44.2501364 L85.2089313,20.4459432 L79.7440585,20.4459432 L79.7440585,44.2501364 Z" id="Fill-1" fill="#939393" mask="url(#mask-2)"></path>
                <path d="M5.17613232,57 C2.31749364,57 0,54.6865341 0,51.8328636 L0,5.16713636 C0,2.31346591 2.31749364,0 5.17613232,0 L51.9231043,0 C54.781743,0 57.0992366,2.31346591 57.0992366,5.16713636 L57.0992366,20.4459432 L57.0992366,31.5605114 L57.0992366,51.8328636 C57.0992366,54.6865341 54.781743,57 51.9231043,57 L5.17613232,57 Z M10.3576718,25.6931818 L14.4095547,25.6931818 L11.7938041,36.3616818 C11.5887659,37.2322273 11.4858142,38.1722955 11.4858142,38.9392045 C11.4858142,41.9608523 13.1274173,43.9668636 16.6154453,43.9668636 C19.5084733,43.9668636 21.8536514,42.2516818 23.5421883,39.4826477 L22.5111578,43.6136364 L28.2559033,43.6136364 L31.5391094,30.4682273 C32.3594784,27.1397727 33.9496056,25.4122841 36.3607506,25.4122841 C38.2586514,25.4122841 39.438486,26.5905 39.438486,28.535625 C39.438486,29.0993636 39.3870102,29.7131932 39.181972,30.3790568 L37.4891094,36.4212727 C37.2325954,37.2918182 37.1302926,38.1630114 37.1302926,38.9815227 C37.1302926,41.8500909 38.8227226,43.9482955 42.3620102,43.9482955 C45.388486,43.9482955 47.7994148,42.0033864 49.133028,37.3434205 L46.8763104,36.4735227 C45.7477354,39.5955682 44.7729389,40.1599545 44.0038295,40.1599545 C43.2340712,40.1599545 42.8235623,39.64825 42.8235623,38.624625 C42.8235623,38.163875 42.9267303,37.6523864 43.0800763,37.0366136 L44.7218957,31.1498523 C45.1321883,29.7676023 45.2861832,28.5416705 45.2861832,27.4157045 C45.2861832,23.0120227 42.6185242,20.7138864 39.3870102,20.7138864 C36.3607506,20.7138864 33.282799,23.438875 31.7443639,26.3067955 L32.8725064,21.1590909 L24.101285,21.1590909 L22.8701908,25.6931818 L26.9737659,25.6931818 L24.4471247,35.7929773 C22.7014885,39.6657386 19.6717684,40.1878068 18.6556616,40.1878068 C18.516374,40.1878068 18.4147201,40.1780909 18.3597837,40.1657841 C17.6084097,39.9967273 17.128257,39.7119432 17.128257,38.7375455 C17.128257,38.1753182 17.2305598,37.3678182 17.4872901,36.3940682 L21.3347837,21.1590909 L11.5887659,21.1590909 L10.3576718,25.6931818 Z M15.5383461,14.556375 C15.5383461,16.5027955 17.128257,17.9880341 19.0261578,17.9880341 C20.9242748,17.9880341 22.5141858,16.5027955 22.5141858,14.556375 C22.5141858,12.61125 20.9242748,11.1264432 19.0261578,11.1264432 C17.128257,11.1264432 15.5383461,12.61125 15.5383461,14.556375 Z" id="Fill-3" fill="#939393" mask="url(#mask-2)"></path>
            </g>
        </g>
    </g>
</svg>