<?xml version="1.0" encoding="UTF-8"?>
<svg width="246px" height="47px" viewBox="0 0 246 47" version="1.1" xmlns="http://www.w3.org/2000/svg" xmlns:xlink="http://www.w3.org/1999/xlink">
    <!-- Generator: Sketch 48.2 (47327) - http://www.bohemiancoding.com/sketch -->
    <title>jane</title>
    <desc>Created with Sketch.</desc>
    <defs></defs>
    <g id="Page-1" stroke="none" stroke-width="1" fill="none" fill-rule="evenodd">
        <g id="jane" fill="#939393">
            <path d="M19,4 C19,6.20582638 20.7941736,8 23,8 C25.2058264,8 27,6.20582638 27,4 C27,1.79417362 25.2058264,0 23,0 C20.7941736,0 19,1.79417362 19,4 Z" id="dot"></path>
            <path d="M6,10 C6,12.2058264 7.79417362,14 10,14 C12.2058264,14 14,12.2058264 14,10 C14,7.79417362 12.2058264,6 10,6 C7.79417362,6 6,7.79417362 6,10 Z" id="dot"></path>
            <path d="M0,23 C0,25.2058264 1.79417362,27 4,27 C6.20582638,27 8,25.2058264 8,23 C8,20.7941736 6.20582638,19 4,19 C1.79417362,19 0,20.7941736 0,23 Z" id="dot"></path>
            <path d="M33,10 C33,12.2058264 34.7937193,14 36.9997072,14 C39.205695,14 41,12.2058264 41,10 C41,7.79417362 39.205695,6 36.9997072,6 C34.7937193,6 33,7.79417362 33,10 Z" id="dot"></path>
            <path d="M39,23 C39,25.2058264 40.7941736,27 43,27 C45.2058264,27 47,25.2058264 47,23 C47,20.7941736 45.2058264,19 43,19 C40.7941736,19 39,20.7941736 39,23 Z" id="dot"></path>
            <path d="M19,43 C19,45.2058264 20.7941736,47 23,47 C25.2058264,47 27,45.2058264 27,43 C27,40.7941736 25.2058264,39 23,39 C20.7941736,39 19,40.7941736 19,43 Z" id="dot"></path>
            <path d="M33,36.9997072 C33,39.205695 34.7937193,41 36.9997072,41 C39.205695,41 41,39.205695 41,36.9997072 C41,34.7937193 39.205695,33 36.9997072,33 C34.7937193,33 33,34.7937193 33,36.9997072 Z" id="dot"></path>
            <path d="M6,36.9997072 C6,39.205695 7.79417362,41 10,41 C12.2058264,41 14,39.205695 14,36.9997072 C14,34.7937193 12.2058264,33 10,33 C7.79417362,33 6,34.7937193 6,36.9997072 Z" id="dot"></path>
            <path d="M64.2510475,39.5440266 C64.1249317,39.3490233 64,38.9602392 64,38.6362525 C64,37.7278671 64.7537347,36.950299 65.6324012,36.950299 C66.323374,36.950299 66.7627072,37.4038804 66.9509929,37.7278671 C69.5260066,41.8131561 72.4154218,43.952691 77.1882857,43.952691 C82.5893605,43.952691 86.7346056,39.7378073 86.7346056,31.8276412 L86.7346056,2.68595349 C86.7346056,1.7787907 87.4883403,1 88.3670067,1 C89.2462653,1 90,1.7787907 90,2.68595349 L90,31.5684518 C90,36.820093 88.4303607,40.8405847 85.9808708,43.3689037 C83.6569047,45.7688505 80.5170341,47 77,47 C70.9085444,47 66.8888231,43.8872824 64.2510475,39.5440266" id="J"></path>
            <path d="M135.467671,30.0151031 C135.201131,29.4380826 124.635101,6.28711795 124.414516,5.79610157 C124.181676,5.27763707 123.760114,5.27763707 123.516244,5.80037128 C123.368575,6.1169396 112.706959,29.3368295 112.402429,30.0199828 C112.118119,30.6579991 112.150594,31.0190943 112.938573,31.0190943 L134.914983,31.0190943 C135.737275,31.0190943 135.734212,30.5921236 135.467671,30.0151031 M102.260413,44.5412584 L121.693353,2.61699927 C122.148004,1.64655572 122.798117,1 123.967219,1 L124.097731,1 C125.268058,1 125.917559,1.64655572 126.372822,2.61699927 L145.7402,44.4119472 C145.935663,44.7998807 146,45.1237685 146,45.4476563 C146,46.2881787 145.284936,47 144.375635,47 C143.595622,47 143.011071,46.4180998 142.685708,45.7056686 C142.685708,45.7056686 138.060772,35.5895114 137.813227,35.0582378 C137.565681,34.5269641 137.373895,34.0603461 136.359203,34.0603461 L111.510897,34.0603461 C110.548288,34.0603461 110.32035,34.5080554 110.061162,35.0564079 C109.801362,35.6041504 105.185005,45.7703242 105.185005,45.7703242 C104.859642,46.547411 104.340654,47 103.56064,47 C102.715064,47 102,46.3528343 102,45.5769674 C102,45.3177352 102.065563,44.9291918 102.260413,44.5412584" id="A"></path>
            <path d="M160,2.74636461 C160,1.8408648 160.762979,1.06402524 161.653022,1.06402524 L162.161275,1.06402524 C162.860723,1.06402524 163.369575,1.45244502 163.814297,2.03476981 C163.814297,2.03476981 188.936873,34.6120309 193.050249,39.9846631 C193.425445,40.4743037 193.82102,40.4797916 193.82102,39.982224 L193.82102,2.61648484 C193.82102,1.71098503 194.520467,1 195.41051,1 C196.300552,1 197,1.71098503 197,2.61648484 L197,45.5127852 C197,46.2884052 196.427616,46.935365 195.664636,46.935365 L195.41051,46.935365 C194.775193,46.935365 194.265741,46.48292 193.757488,45.8359602 C193.757488,45.8359602 164.401665,7.74704066 163.946155,7.16959398 C163.570959,6.69275839 163.17898,6.69275839 163.17898,7.17203303 L163.17898,45.3835152 C163.17898,46.2884052 162.479533,47 161.59009,47 C160.699448,47 160,46.2884052 160,45.3835152 L160,2.74636461 Z" id="N"></path>
            <path d="M214.052871,45.3160382 L214,2.68396183 C214,1.77726012 214.756233,1 215.637812,1 L244.11922,1 C244.939016,1 245.631685,1.71253932 245.631685,2.55452024 C245.631685,3.39589057 244.939016,4.1084299 244.11922,4.1084299 L218.293835,4.1084299 C217.749086,4.1084299 217.327306,4.61276364 217.327306,5.10732821 C217.327306,8.00327851 217.330276,18.4306534 217.330276,21.320498 C217.330276,21.9170284 217.784135,22.3102377 218.294429,22.3261126 C218.804129,22.3407664 241.336663,22.3261126 241.336663,22.3261126 C242.156459,22.3261126 242.849722,23.0380414 242.849722,23.8806329 C242.849722,24.7220032 242.156459,25.433932 241.336663,25.433932 L218.293835,25.433932 C217.762749,25.433932 217.330276,25.9400974 217.330276,26.4352726 L217.330276,42.8847343 C217.330276,43.4733272 217.741363,43.8915701 218.293835,43.8915701 L244.487534,43.8915701 C245.307331,43.8915701 246,44.6041094 246,45.4460903 C246,46.2880713 245.307331,47 244.487534,47 L215.691277,47 C214.809104,47 214.052871,46.2227399 214.052871,45.3160382" id="E"></path>
        </g>
    </g>
</svg>