<?xml version="1.0" encoding="utf-8"?>
<!-- Generator: Adobe Illustrator 27.3.1, SVG Export Plug-In . SVG Version: 6.00 Build 0)  -->
<svg version="1.1" id="Layer_1" xmlns="http://www.w3.org/2000/svg" xmlns:xlink="http://www.w3.org/1999/xlink" x="0px" y="0px"
	 viewBox="0 0 102 25" style="enable-background:new 0 0 102 25;" xml:space="preserve">
<style type="text/css">
	.st0{fill:#939393;}
	.st1{fill-rule:evenodd;clip-rule:evenodd;fill:#939393;}
</style>
<path class="st0" d="M8.6,19.9V0L0,5v19.9L8.6,19.9z"/>
<path class="st0" d="M17.2,24.6v-9.6l-8.6,5v4.7L17.2,24.6z"/>
<path class="st1" d="M84.3,16.2v0.3c0,5.5,3.1,8.3,7.1,8.3c2.4,0,4.4-1.4,5.3-3.1v2.7h4.5V0.6h-4.5v9.9c-0.9-1.7-2.5-2.8-5.2-2.8
	C87.4,7.7,84.3,10.8,84.3,16.2z M96.8,16.1v0.3c0,3.3-1.7,4.9-4,4.9c-2.3,0-3.8-1.6-3.8-4.9v-0.3c0-3.3,1.4-5,3.9-5
	C95.3,11.2,96.8,12.8,96.8,16.1z M77.1,3.3c0-1.4,1.1-2.5,2.6-2.5c1.5,0,2.6,1.1,2.6,2.5c0,1.4-1.1,2.5-2.6,2.5
	C78.3,5.8,77.1,4.8,77.1,3.3z M77.5,8H82v16.4h-4.5V8z M25.9,2h5.1v18.4h9.1v4H25.9V2z M41.8,18.6V8.1h4.5V18c0,2.2,0.9,3.3,2.9,3.3
	c1.9,0,3.4-1.2,3.4-3.6V8.1h4.5v16.4h-4.5v-2.6c-0.8,1.7-2.5,2.9-5.2,2.9C44.2,24.8,41.8,22.9,41.8,18.6z M59.2,16.2v0.3
	c0,5.4,3.6,8.3,8.4,8.3c4.8,0,7.6-2.7,7.8-6.6h-4.1c-0.2,2.1-1.7,3.2-3.5,3.2c-2.5,0-4-1.7-4-5v-0.3c0-3.1,1.6-4.9,3.9-4.9
	c1.8,0,3,0.9,3.3,2.8h4.3c-0.4-4.7-3.9-6.4-7.7-6.4C63,7.7,59.2,10.9,59.2,16.2z"/>
</svg>
