<?xml version="1.0" encoding="UTF-8"?>
<svg width="169px" height="45px" viewBox="0 0 169 45" version="1.1" xmlns="http://www.w3.org/2000/svg" xmlns:xlink="http://www.w3.org/1999/xlink">
    <!-- Generator: Sketch 54.1 (76490) - https://sketchapp.com -->
    <title>motif</title>
    <desc>Created with Sketch.</desc>
    <g id="Page-1" stroke="none" stroke-width="1" fill="none" fill-rule="evenodd">
        <g id="motif" transform="translate(0.000000, 0.000000)" fill="#929292">
            <path d="M0,41.8013665 C0,43.4783851 1.40625,44.8759006 3.09375,44.8759006 L22.5,44.8759006 L0,22.5156522 L0,41.8013665" id="Fill-1"></path>
            <path d="M22.5,0.155403727 L3.09375,0.155403727 C1.40625,0.155403727 0,1.55291925 0,3.22993789 L0,22.5156522 L22.5,22.5156522 L22.5,0.155403727" id="Fill-3"></path>
            <path d="M22.5,44.8759006 L41.90625,44.8759006 C43.59375,44.8759006 45,43.4783851 45,41.8013665 L45,22.5156522 L22.5,22.5156522 L22.5,44.8759006" id="Fill-4"></path>
            <path d="M41.90625,0.155403727 L22.5,0.155403727 L45,22.5156522 L45,3.22993789 C45,1.55291925 43.59375,0.155403727 41.90625,0.155403727" id="Fill-5"></path>
            <polyline id="Fill-7" points="93.0936667 6.07965517 93.0936667 38.5451121 86.6375128 38.5451121 86.6375128 15.8977241 78.3793333 38.5451121 72.7543846 38.5451121 64.5029744 15.9916034 64.5029744 38.5451121 58 38.5451121 58 6.07965517 65.8858718 6.07965517 75.6597949 30.5042069 85.2611026 6.07965517 93.0936667 6.07965517"></polyline>
            <path d="M106.205385,20.0690948 C104.942077,21.3566638 104.310564,23.2234397 104.310564,25.6688534 C104.310564,28.1233707 104.975359,29.9875862 106.205385,31.2754397 C106.810103,31.8873621 107.528769,32.3732586 108.320205,32.704681 C109.111359,33.0361034 109.959769,33.2067931 110.816359,33.2067931 C111.673231,33.2067931 112.521641,33.0361034 113.312795,32.704681 C114.104231,32.3732586 114.822897,31.8873621 115.427615,31.2754397 C116.684154,29.9875862 117.315949,28.1233707 117.315949,25.6688534 C117.315949,23.2143362 116.651154,21.3566638 115.427615,20.0690948 C114.822897,19.4568879 114.104231,18.9709914 113.312795,18.6398534 C112.521641,18.308431 111.673231,18.1377414 110.816359,18.1377414 C109.959769,18.1377414 109.111359,18.308431 108.320205,18.6398534 C107.528769,18.9709914 106.810103,19.4568879 106.205385,20.0690948 Z M117.508872,14.0332241 C119.465744,15.0784138 121.081897,16.6712328 122.163,18.6205086 C123.339718,20.7740431 123.929487,23.2038103 123.871949,25.6620259 C123.932026,28.1165431 123.342256,30.5426121 122.163,32.6904569 C121.072026,34.6303448 119.458128,36.2183276 117.508872,37.2709138 C115.426769,38.3249224 113.129462,38.8739741 110.8,38.8739741 C108.470256,38.8739741 106.172949,38.3249224 104.091128,37.2709138 C102.14159,36.2183276 100.527692,34.6303448 99.4367179,32.6904569 C98.2574615,30.5426121 97.6676923,28.1165431 97.7280513,25.6620259 C97.6702308,23.2038103 98.26,20.7740431 99.4367179,18.6205086 C100.517821,16.6712328 102.133974,15.0784138 104.091128,14.0332241 C106.178026,12.996569 108.473359,12.4574741 110.8,12.4574741 C113.126359,12.4574741 115.421692,12.996569 117.508872,14.0332241 L117.508872,14.0332241 Z" id="Fill-9"></path>
            <path d="M139,32.3974151 L139,38 L135.663264,38 C132.86674,38 130.724652,37.3056965 129.237274,35.9165228 C127.750172,34.5276325 127.004414,32.2127208 127,28.9717877 L127,6 L133.360877,6 L133.360877,12.3439118 L138.954476,12.3439118 L138.954476,17.859815 L133.360877,17.859815 L133.360877,29.065268 C133.360877,30.3006241 133.601462,31.162059 134.082908,31.6560882 C134.770727,32.2203691 135.645882,32.486363 136.521865,32.3974151 L139,32.3974151" id="Fill-11"></path>
            <polygon id="Fill-12" points="143 38 150 38 150 13 143 13"></polygon>
            <path d="M164.968095,9.38496111 C164.202662,10.0510132 163.817538,11.2127964 163.813291,12.8711416 L163.813291,12.9168374 L169,12.9168374 L169,18.3095055 L163.813291,18.3095055 L163.813291,38 L157.284312,38 L157.284312,18.3095055 L154,18.3095055 L154,12.9168374 L157.284312,12.9168374 L157.284312,12.3294376 C157.284312,9.33926523 158.156787,7.03674661 159.90117,5.42215874 C161.645837,3.80729393 164.231546,3 167.658297,3 C168.239098,3 168.686237,3 168.993487,3.04569588 L168.993487,8.57545162 C167.084293,8.45359593 165.742307,8.72334011 164.968095,9.38496111" id="Fill-13"></path>
            <path d="M147.5,11 C149.985356,11 152,8.98535565 152,6.5 C152,4.01464435 149.985356,2 147.5,2 C145.014644,2 143,4.01464435 143,6.5 C143,8.98535565 145.014644,11 147.5,11" id="Fill-14"></path>
        </g>
    </g>
</svg>