<?xml version="1.0" encoding="UTF-8"?>
<svg width="200px" height="85px" viewBox="0 0 200 85" version="1.1" xmlns="http://www.w3.org/2000/svg" xmlns:xlink="http://www.w3.org/1999/xlink">
    <!-- Generator: Sketch 43 (38999) - http://www.bohemiancoding.com/sketch -->
    <title>MX_Black</title>
    <desc>Created with Sketch.</desc>
    <defs></defs>
    <g id="Page-1" stroke="none" stroke-width="1" fill="none" fill-rule="evenodd">
        <g id="MX_Black" fill-rule="nonzero" fill="#939393">
            <g id="Group">
                <path d="M98.1958763,80.8762887 L108.969072,67.0103093 C109.072165,66.9072165 109.072165,66.7525773 109.072165,66.6494845 L99.5360825,0.927835052 C99.5360825,0.670103093 99.2783505,0.463917526 98.9690722,0.463917526 L86.5463918,0.463917526 C86.3402062,0.463917526 86.185567,0.567010309 86.0824742,0.721649485 L56.3917526,61.1340206 C56.185567,61.4948454 55.6701031,61.4948454 55.4639175,61.1340206 L25.5670103,0.773195876 C25.4639175,0.567010309 25.3092784,0.515463918 25.1030928,0.515463918 L12.628866,0.515463918 C12.371134,0.515463918 12.1649485,0.721649485 12.0618557,0.979381443 L0.103092784,83.4536082 C-3.33066907e-16,83.7113402 0.309278351,84.0206186 0.670103093,84.0206186 L15.2061856,84.0206186 C15.4639175,84.0206186 15.6701031,83.814433 15.7731959,83.556701 L23.0412371,30.6701031 C23.1443299,30.1030928 23.7628866,30.0515464 24.0206186,30.4639175 L50.4123711,83.7113402 C50.5154639,83.9175258 50.6701031,83.9690722 50.8762887,83.9690722 L61.1340206,83.9690722 C61.3402062,83.9690722 61.4948454,83.8659794 61.5979381,83.7113402 L87.628866,31.185567 C87.8865979,30.7216495 88.556701,30.8247423 88.6082474,31.3917526 L95.6701031,82.628866 C95.7731959,83.0927835 96.2886598,83.2474227 96.5979381,82.8865979 L98.1958763,80.8762887 Z" id="Shape"></path>
                <path d="M186.546392,0.463917526 L168.298969,0.463917526 C168.092784,0.463917526 168.041237,0.567010309 167.835052,0.670103093 L145.979381,29.3298969 C145.773196,29.5876289 145.360825,29.5876289 145.154639,29.3298969 L123.195876,0.670103093 C123.092784,0.567010309 122.938144,0.463917526 122.731959,0.463917526 L104.484536,0.463917526 C104.020619,0.463917526 103.865979,1.03092784 104.020619,1.28865979 L135.412371,41.9587629 C135.618557,42.1649485 135.618557,42.4226804 135.412371,42.5773196 L104.020619,83.2474227 C103.762887,83.6082474 104.020619,84.0721649 104.484536,84.0721649 L122.731959,84.0721649 C122.938144,84.0721649 122.989691,83.9690722 123.195876,83.8659794 L145.154639,55.2061856 C145.360825,54.9484536 145.773196,54.9484536 145.979381,55.2061856 L167.938144,83.8659794 C168.041237,83.9690722 168.195876,84.0721649 168.402062,84.0721649 L186.649485,84.0721649 C187.113402,84.0721649 187.268041,83.5051546 187.113402,83.2474227 L155.670103,42.5773196 C155.463918,42.371134 155.463918,42.1134021 155.670103,41.9587629 L187.061856,1.28865979 C187.164948,0.927835052 187.010309,0.463917526 186.546392,0.463917526 Z" id="Shape"></path>
            </g>
            <path d="M194.948454,83.9690722 C192.164948,83.9690722 189.948454,81.7525773 189.948454,78.9690722 C189.948454,76.185567 192.164948,73.9690722 194.948454,73.9690722 C197.731959,73.9690722 199.948454,76.185567 199.948454,78.9690722 C199.948454,81.7010309 197.731959,83.9690722 194.948454,83.9690722 Z M194.948454,74.7938144 C192.628866,74.7938144 190.773196,76.6494845 190.773196,78.9690722 C190.773196,81.2371134 192.628866,83.1443299 194.948454,83.1443299 C197.268041,83.1443299 199.123711,81.2371134 199.123711,78.9690722 C199.123711,76.6494845 197.216495,74.7938144 194.948454,74.7938144 Z M196.28866,81.8556701 L194.793814,79.5876289 L193.865979,79.5876289 L193.865979,81.8556701 L192.989691,81.8556701 L192.989691,76.1340206 L195.309278,76.1340206 C196.28866,76.1340206 197.268041,76.8041237 197.268041,77.8865979 C197.268041,79.1752577 196.134021,79.5876289 195.824742,79.5876289 L197.371134,81.8556701 L196.28866,81.8556701 L196.28866,81.8556701 Z M195.309278,76.8556701 L193.865979,76.8556701 L193.865979,78.814433 L195.309278,78.814433 C195.824742,78.814433 196.340206,78.4536082 196.340206,77.8350515 C196.340206,77.2164948 195.824742,76.8556701 195.309278,76.8556701 Z" id="Shape"></path>
        </g>
    </g>
</svg>