<?xml version="1.0" encoding="UTF-8"?>
<svg width="280px" height="65px" viewBox="0 0 280 65" version="1.1" xmlns="http://www.w3.org/2000/svg" xmlns:xlink="http://www.w3.org/1999/xlink">
    <!-- Generator: Sketch 42 (36781) - http://www.bohemiancoding.com/sketch -->
    <title>Page 1</title>
    <desc>Created with Sketch.</desc>
    <defs>
        <polygon id="path-1" points="38.2606505 51.3998324 0.150139145 51.3998324 0.150139145 0.167859179 38.2606505 0.167859179 38.2606505 51.3998324"></polygon>
        <polygon id="path-3" points="6.36162214e-21 0.20951886 6.36162214e-21 57.7367276 57.5273495 57.7367276 57.5273495 0.20951886 0 0.20951886"></polygon>
    </defs>
    <g id="Page-1" stroke="none" stroke-width="1" fill="none" fill-rule="evenodd">
        <g>
            <g id="Group-3" transform="translate(71.584241, 12.653747)">
                <mask id="mask-2" fill="white">
                    <use xlink:href="#path-1"></use>
                </mask>
                <g id="Clip-2"></g>
                <path d="M32.1351517,19.2670042 C32.1351517,26.3965599 26.3349505,32.1969958 19.2056295,32.1969958 C12.0760738,32.1969958 6.27563789,26.3965599 6.27563789,19.2670042 C6.27563789,12.1374484 12.0760738,6.33724728 19.2056295,6.33724728 C26.3349505,6.33724728 32.1351517,12.1374484 32.1351517,19.2670042 M19.2056295,0.211748533 C14.3700553,0.211748533 9.8104912,2.00651802 6.27563789,5.28343336 L6.27563789,0.518269908 L6.27563789,0.167859179 L5.92522716,0.167859179 L0.500549874,0.167859179 L0.150139145,0.167859179 L0.150139145,0.518269908 L0.150139145,51.0492339 L0.150139145,51.3998793 L0.500549874,51.3998793 L5.92522716,51.3998793 L6.27563789,51.3998793 L6.27563789,51.0492339 L6.27563789,33.250575 C9.8104912,36.5277251 14.3700553,38.3224946 19.2056295,38.3224946 C29.7125532,38.3224946 38.2606505,29.7741626 38.2606505,19.2670042 C38.2606505,8.75984577 29.7125532,0.211748533 19.2056295,0.211748533" id="Fill-1" fill="#939393" mask="url(#mask-2)"></path>
            </g>
            <path d="M121.045291,28.8141827 C122.445291,23.071249 127.660379,18.9470578 133.608443,18.9470578 C139.479759,18.9470578 144.397948,22.9830008 145.708526,28.8141827 L121.045291,28.8141827 Z M133.608443,12.8215591 C123.101519,12.8215591 114.553422,21.369891 114.553422,31.8768148 C114.553422,42.3842079 123.101519,50.9325398 133.608443,50.9325398 C139.492902,50.9325398 144.894344,48.7293881 148.427554,44.8882481 L150.263631,42.8921039 L150.50115,42.634166 L150.242977,42.3968818 L146.250689,38.7247276 L145.992751,38.4874434 L145.755467,38.7453814 L143.919155,40.7417603 C141.577529,43.2873428 137.723011,44.8070411 133.608443,44.8070411 C127.660379,44.8070411 122.445291,40.68285 121.045291,34.9396815 L151.820412,34.9396815 L152.170823,34.9396815 L152.170823,34.5892707 L152.170823,31.8768148 C152.170823,21.1917519 144.017261,12.8215591 133.608443,12.8215591 L133.608443,12.8215591 Z" id="Fill-4" fill="#939393"></path>
            <path d="M175.340671,12.8216295 C170.967695,12.8216295 166.802431,14.4748734 163.523168,17.4945549 L163.523168,13.1720402 L163.523168,12.8216295 L163.172523,12.8216295 L157.74808,12.8216295 L157.39767,12.8216295 L157.39767,13.1720402 L157.39767,31.6304476 L157.39767,34.3426689 L157.39767,50.8814451 L157.39767,51.2320905 L157.74808,51.2320905 L163.172523,51.2320905 L163.523168,51.2320905 L163.523168,50.8814451 L163.523168,34.3426689 L163.523168,31.6304476 C163.523168,24.6367846 168.824392,18.9471282 175.340671,18.9471282 C181.857184,18.9471282 187.158642,24.6367846 187.158642,31.6304476 L187.158642,50.8814451 L187.158642,51.2320905 L187.509288,51.2320905 L192.93373,51.2320905 L193.284376,51.2320905 L193.284376,50.8814451 L193.284376,31.6304476 C193.284376,21.2591819 185.234786,12.8216295 175.340671,12.8216295" id="Fill-6" fill="#939393"></path>
            <path d="M230.455678,32.1328986 C230.455678,39.2624543 224.655477,45.0626555 217.526156,45.0626555 C210.3966,45.0626555 204.596164,39.2624543 204.596164,32.1328986 C204.596164,25.0033428 210.3966,19.202907 217.526156,19.202907 C224.655477,19.202907 230.455678,25.0033428 230.455678,32.1328986 L230.455678,32.1328986 Z M230.806089,2.34702431e-05 L230.455678,2.34702431e-05 L230.455678,0.350668902 L230.455678,18.149093 C226.920825,14.8721777 222.361495,13.0774082 217.526156,13.0774082 C207.018997,13.0774082 198.470666,21.6257402 198.470666,32.1328986 C198.470666,42.640057 207.018997,51.1881542 217.526156,51.1881542 C222.361261,51.1881542 226.920825,49.3933847 230.455678,46.1164694 L230.455678,50.8813982 L230.455678,51.2320436 L230.806089,51.2320436 L236.230766,51.2320436 L236.581177,51.2320436 L236.581177,50.8813982 L236.581177,0.350668902 L236.581177,2.34702431e-05 L236.230766,2.34702431e-05 L230.806089,2.34702431e-05 Z" id="Fill-8" fill="#939393"></path>
            <path d="M273.874478,32.1328986 C273.874478,39.2624543 268.074042,45.0626555 260.944486,45.0626555 C253.815165,45.0626555 248.014964,39.2624543 248.014964,32.1328986 C248.014964,25.0033428 253.815165,19.202907 260.944486,19.202907 C268.074042,19.202907 273.874478,25.0033428 273.874478,32.1328986 M260.944486,13.0774082 C250.437562,13.0774082 241.889465,21.6257402 241.889465,32.1328986 C241.889465,42.640057 250.437562,51.1881542 260.944486,51.1881542 C271.451645,51.1881542 279.999977,42.640057 279.999977,32.1328986 C279.999977,21.6257402 271.451645,13.0774082 260.944486,13.0774082" id="Fill-10" fill="#939393"></path>
            <g id="Group-14" transform="translate(0.000000, 6.316781)">
                <mask id="mask-4" fill="white">
                    <use xlink:href="#path-3"></use>
                </mask>
                <g id="Clip-13"></g>
                <polygon id="Fill-12" fill="#939393" mask="url(#mask-4)" points="28.7636278 0.20951886 -9.38809723e-05 28.9732406 28.7636278 28.9732406 28.7636278 57.7367276 57.5273495 28.9732406 57.5273495 0.20951886"></polygon>
            </g>
        </g>
    </g>
</svg>