<?xml version="1.0" encoding="UTF-8"?>
<svg width="270px" height="58px" viewBox="0 0 270 58" version="1.1" xmlns="http://www.w3.org/2000/svg" xmlns:xlink="http://www.w3.org/1999/xlink">
    <!-- Generator: Sketch 42 (36781) - http://www.bohemiancoding.com/sketch -->
    <title>Page 1</title>
    <desc>Created with Sketch.</desc>
    <defs>
        <polygon id="path-1" points="4.30032802e-16 57.0661325 4.30032802e-16 0.185564669 56.880795 0.185564669 56.880795 57.0661325 0 57.0661325"></polygon>
        <polygon id="path-3" points="0 57.1647634 269.782524 57.1647634 269.782524 0.283911672 0 0.283911672"></polygon>
    </defs>
    <g id="Page-1" stroke="none" stroke-width="1" fill="none" fill-rule="evenodd">
        <g>
            <g id="Group-3" transform="translate(0.000000, 0.098517)">
                <mask id="mask-2" fill="white">
                    <use xlink:href="#path-1"></use>
                </mask>
                <g id="Clip-2"></g>
                <path d="M28.4393754,57.0661325 C12.73253,57.0661325 -5.67823344e-05,44.3338297 -5.67823344e-05,28.6269842 C-5.67823344e-05,12.9201388 12.73253,0.185564669 28.4393754,0.185564669 C44.1482082,0.185564669 56.880795,12.9201388 56.880795,28.6269842 C56.880795,44.3338297 44.1482082,57.0661325 28.4393754,57.0661325 Z" id="Fill-1" fill="#939393" mask="url(#mask-2)"></path>
            </g>
            <path d="M21.1290473,13.9467918 L21.1290473,43.5028486 L46.725388,28.7260978 L21.1290473,13.9467918 Z M23.579489,18.1901356 L41.8245047,28.7260978 L23.579489,39.2595047 L23.579489,18.1901356 Z" id="Fill-4" fill="#FFFFFF"></path>
            <path d="M15.2446088,17.1734763 L15.2446088,40.2779243 L35.2524322,28.7247066 L15.2446088,17.1734763 Z M17.6950505,21.4168202 L30.3538202,28.7247066 L17.6950505,36.0345804 L17.6950505,21.4168202 Z" id="Fill-6" fill="#FFFFFF"></path>
            <path d="M72.2938486,21.0190883 L78.3715457,21.0190883 C81.9596215,21.0190883 84.2280757,23.0658076 84.2280757,26.1715174 L84.2280757,26.2155237 C84.2280757,29.6718644 81.4519874,31.4786782 78.0623659,31.4786782 L75.0003785,31.4786782 L75.0003785,36.4329369 L72.2938486,36.4329369 L72.2938486,21.0190883 Z M78.1500946,29.0327792 C80.1968139,29.0327792 81.4775394,27.8883312 81.4775394,26.2822429 L81.4775394,26.2362492 C81.4775394,24.4342618 80.1760883,23.4857129 78.1500946,23.4857129 L75.0003785,23.4857129 L75.0003785,29.0327792 L78.1500946,29.0327792 Z" id="Fill-8" fill="#939393"></path>
            <polygon id="Fill-10" fill="#939393" points="90.9522965 21.0190883 93.6610978 21.0190883 93.6610978 33.9663123 101.765073 33.9663123 101.765073 36.4329369 90.9522965 36.4329369"></polygon>
            <path d="M107.849442,29.8932587 L107.849442,21.0187476 L110.558243,21.0187476 L110.558243,29.7825331 C110.558243,32.643795 112.035151,34.1851514 114.455498,34.1851514 C116.855404,34.1851514 118.329757,32.733795 118.329757,29.8932587 L118.329757,21.0187476 L121.038842,21.0187476 L121.038842,29.7595363 C121.038842,34.3628801 118.440483,36.6747729 114.411776,36.6747729 C110.403795,36.6747729 107.849442,34.3628801 107.849442,29.8932587" id="Fill-12" fill="#939393"></path>
            <path d="M128.7113,21.0190883 L135.580543,21.0190883 C137.518808,21.0190883 139.037167,21.5914543 140.029438,22.5604448 C140.841426,23.3957129 141.305338,24.5424322 141.305338,25.8856183 L141.305338,25.9293407 C141.305338,28.4606972 139.784707,29.9813281 137.629533,30.5974164 L141.789975,36.4329369 L138.598808,36.4329369 L134.809722,31.0587729 L131.41783,31.0587729 L131.41783,36.4329369 L128.7113,36.4329369 L128.7113,21.0190883 Z M135.382088,28.6614227 C137.320353,28.6614227 138.55253,27.6461546 138.55253,26.0840726 L138.55253,26.0400662 C138.55253,24.3879842 137.364076,23.4857129 135.361363,23.4857129 L131.41783,23.4857129 L131.41783,28.6614227 L135.382088,28.6614227 Z" id="Fill-14" fill="#939393"></path>
            <path d="M154.040565,20.9099527 L156.550912,20.9099527 L163.33271,36.4322555 L160.469177,36.4322555 L158.906811,32.7124448 L151.617662,32.7124448 L150.032584,36.4322555 L147.25905,36.4322555 L154.040565,20.9099527 Z M157.914823,30.3105521 L155.252016,24.1451262 L152.609934,30.3105521 L157.914823,30.3105521 Z" id="Fill-16" fill="#939393"></path>
            <polygon id="Fill-18" fill="#939393" points="169.923379 21.0190883 172.629909 21.0190883 172.629909 33.9663123 180.733883 33.9663123 180.733883 36.4329369 169.923379 36.4329369"></polygon>
            <path d="M186.469382,34.1860599 L188.098467,32.247795 C189.57282,33.5262492 191.049729,34.2507918 192.964713,34.2507918 C194.637804,34.2507918 195.694524,33.4822429 195.694524,32.3147981 L195.694524,32.2707918 C195.694524,31.167795 195.078435,30.5749874 192.214902,29.9148927 C188.936006,29.1213596 187.08547,28.1520852 187.08547,25.3141041 L187.08547,25.2678265 C187.08547,22.6257445 189.289192,20.798205 192.348625,20.798205 C194.593798,20.798205 196.375344,21.4812965 197.939697,22.73647 L196.488341,24.7854606 C195.101432,23.7494669 193.712536,23.2003817 192.304902,23.2003817 C190.717268,23.2003817 189.794271,24.012653 189.794271,25.0279211 L189.794271,25.0716435 C189.794271,26.2600978 190.498088,26.7884574 193.447079,27.4922744 C196.707521,28.2858076 198.401054,29.4535363 198.401054,32.0078896 L198.401054,32.0493407 C198.401054,34.9335994 196.135155,36.6526845 192.897994,36.6526845 C190.542095,36.6526845 188.319918,35.838142 186.469382,34.1860599" id="Fill-20" fill="#939393"></path>
            <mask id="mask-4" fill="white">
                <use xlink:href="#path-3"></use>
            </mask>
            <g id="Clip-23"></g>
            <polygon id="Fill-22" fill="#939393" mask="url(#mask-4)" points="205.703659 36.430694 208.410189 36.430694 208.410189 21.0171293 205.703659 21.0171293"></polygon>
            <path d="M215.800211,28.7695363 L215.800211,28.7258139 C215.800211,24.4109243 219.104375,20.7558454 223.749454,20.7558454 C226.435259,20.7558454 228.087341,21.5033849 229.67242,22.8485584 L227.95589,24.8952776 C226.767435,23.8822808 225.599991,23.2431956 223.638445,23.2431956 C220.800464,23.2431956 218.640748,25.7305457 218.640748,28.6818076 L218.640748,28.7258139 C218.640748,31.8962555 220.731189,34.2311451 223.880905,34.2311451 C225.334533,34.2311451 226.65671,33.7697886 227.602703,33.0637003 L227.602703,30.1794416 L223.661726,30.1794416 L223.661726,27.8235426 L230.22406,27.8235426 L230.22406,34.295877 C228.703429,35.5950568 226.522987,36.6954984 223.793177,36.6954984 C218.970653,36.6954984 215.800211,33.2621546 215.800211,28.7695363" id="Fill-24" fill="#939393" mask="url(#mask-4)"></path>
            <polygon id="Fill-25" fill="#939393" mask="url(#mask-4)" points="237.694826 21.0190883 240.403628 21.0190883 240.403628 27.4269748 247.757508 27.4269748 247.757508 21.0190883 250.466593 21.0190883 250.466593 36.4329369 247.757508 36.4329369 247.757508 29.9350505 240.403628 29.9350505 240.403628 36.4329369 237.694826 36.4329369"></polygon>
            <polygon id="Fill-26" fill="#939393" mask="url(#mask-4)" points="257.276271 21.0190883 257.276271 23.5297192 262.165798 23.5297192 262.165798 36.4329369 264.895325 36.4329369 264.895325 23.5297192 269.78258 23.5297192 269.78258 21.0190883"></polygon>
        </g>
    </g>
</svg>