<?xml version="1.0" encoding="UTF-8"?>
<svg width="263px" height="74px" viewBox="0 0 263 74" version="1.1" xmlns="http://www.w3.org/2000/svg" xmlns:xlink="http://www.w3.org/1999/xlink">
    <!-- Generator: Sketch 48.2 (47327) - http://www.bohemiancoding.com/sketch -->
    <title>podium</title>
    <desc>Created with Sketch.</desc>
    <defs></defs>
    <g id="Page-1" stroke="none" stroke-width="1" fill="none" fill-rule="evenodd">
        <g id="podium" fill="#939393" fill-rule="nonzero">
            <path d="M98.5,29.6 C101.2,29.6 102.5,28.9 103.5,27.8 C104.4,26.8 104.8,25.5 104.8,24 C104.8,22.5 104.3,21.1 103.5,20.1 C102.6,19 101.2,18.3 98.5,18.3 L92,18.3 C91.7,18.3 91.4,18.6 91.4,18.9 L91.4,29 C91.4,29.3 91.7,29.6 92,29.6 L98.5,29.6 Z M91.4,35.1 L91.4,44 C91.4,44.3 91.1,44.6 90.8,44.6 L85.8,44.6 C85.5,44.6 85.2,44.3 85.2,44 L85.2,13.4 C85.2,13.1 85.5,12.8 85.8,12.8 L98.2,12.8 C103,12.8 105.9,14 108,16.2 C109.9,18.1 111,21 111,24 C111,27 109.9,29.8 108,31.8 C106,34 103.1,35.1 98.2,35.1 L91.4,35.1 Z" id="Fill-1"></path>
            <path d="M130.7,39.6 C136.7,39.6 141.1,34.7 141.1,28.7 C141.1,22.7 136.7,17.8 130.7,17.8 C124.7,17.8 120.3,22.7 120.3,28.7 C120.3,34.7 124.8,39.6 130.7,39.6 M130.7,12.3 C140.5,12.3 147.3,19.6 147.3,28.6 C147.3,37.6 140.5,44.9 130.7,44.9 C120.9,44.9 114.1,37.6 114.1,28.6 C114.2,19.6 120.9,12.3 130.7,12.3" id="Fill-3"></path>
            <path d="M162.7,39.1 C166.5,39.1 169.1,37.8 170.8,35.6 C172.3,33.8 173.1,31.3 173.1,28.7 C173.1,26.1 172.2,23.6 170.8,21.8 C169,19.6 166.4,18.3 162.7,18.3 L158.7,18.3 C158.4,18.3 158.1,18.6 158.1,18.9 L158.1,38.6 C158.1,38.9 158.4,39.2 158.7,39.2 L162.7,39.2 L162.7,39.1 Z M162,44.5 L152.6,44.5 C152.3,44.5 152,44.2 152,43.9 L152,13.4 C152,13.1 152.3,12.8 152.6,12.8 L162,12.8 C167,12.8 170.3,13.9 172.9,15.8 C176.8,18.7 179.2,23.4 179.2,28.7 C179.2,34 176.8,38.7 172.9,41.6 C170.3,43.5 167,44.5 162,44.5 Z" id="Fill-5"></path>
            <path d="M184.5,13.4 C184.5,13.1 184.8,12.8 185.1,12.8 L190.1,12.8 C190.4,12.8 190.7,13.1 190.7,13.4 L190.7,44 C190.7,44.3 190.4,44.6 190.1,44.6 L185.1,44.6 C184.8,44.6 184.5,44.3 184.5,44 L184.5,13.4 Z" id="Fill-7"></path>
            <path d="M197.6,31.2 L197.6,13.4 C197.6,13.1 197.9,12.8 198.2,12.8 L203.2,12.8 C203.5,12.8 203.8,13.1 203.8,13.4 L203.8,31.7 C203.8,34.6 204.6,36.4 205.9,37.6 C207.3,38.9 209.2,39.6 211.3,39.6 C213.4,39.6 215.3,38.9 216.7,37.6 C218,36.4 218.8,34.6 218.8,31.7 L218.8,13.4 C218.8,13.1 219.1,12.8 219.4,12.8 L224.4,12.8 C224.7,12.8 225,13.1 225,13.4 L225,31.2 C225,36.1 223.5,39.4 220.9,41.8 C218.4,44 215,45.1 211.4,45.1 C207.8,45.1 204.3,44 201.9,41.8 C199.1,39.4 197.6,36 197.6,31.2" id="Fill-9"></path>
            <path d="M246.630769,25.922219 C246.830769,26.222219 247.130769,26.222219 247.330769,25.922219 L256.930769,13.322219 C257.130769,13.022219 257.530769,12.822219 257.830769,12.822219 L262.230769,12.822219 C262.530769,12.822219 262.830769,13.122219 262.830769,13.422219 L262.830769,44.022219 C262.830769,44.322219 262.530769,44.622219 262.230769,44.622219 L257.230769,44.622219 C256.930769,44.622219 256.630769,44.322219 256.630769,44.022219 L256.630769,24.122219 C256.630769,23.822219 256.430769,23.722219 256.230769,24.022219 L247.130769,35.822219 C246.930769,36.122219 246.630769,36.122219 246.430769,35.822219 L237.630769,24.022219 C237.430769,23.722219 237.230769,23.822219 237.230769,24.122219 L237.230769,44.022219 C237.230769,44.322219 236.930769,44.622219 236.630769,44.622219 L231.630769,44.622219 C231.330769,44.622219 231.030769,44.322219 231.030769,44.022219 L231.030769,13.422219 C231.030769,13.122219 231.330769,12.822219 231.630769,12.822219 L236.030769,12.822219 C236.330769,12.822219 236.730769,13.022219 236.930769,13.322219 L246.630769,25.922219 Z" id="Fill-11"></path>
            <path d="M43.4,0 L1.2,0 C0.5,0 0,0.3 0,1 L0,57.7 L0,71.9 C0,73.6 1,74.1 2.2,72.8 L8.6,66.4 L16.9,58.2 C17.1,58 17.6,57.9 17.9,57.9 L43.3,57.9 C58.6,57.9 70.8,44.5 70.8,29 C70.8,13.4 58.7,0 43.4,0 Z M14.5,14.3 L49.2,14.3 L49.2,19.7 L14.5,19.7 L14.5,14.3 Z M49.1,43.2 L14.5,43.2 L14.5,37.8 L49.2,37.8 L49.2,43.2 L49.1,43.2 Z M56.4,31.4 L14.6,31.4 L14.6,26 L56.4,26 L56.4,31.4 Z" id="Shape"></path>
        </g>
    </g>
</svg>