<?xml version="1.0" encoding="UTF-8"?>
<svg width="196px" height="73px" viewBox="0 0 196 73" version="1.1" xmlns="http://www.w3.org/2000/svg" xmlns:xlink="http://www.w3.org/1999/xlink">
    <!-- Generator: Sketch 49.3 (51167) - http://www.bohemiancoding.com/sketch -->
    <title>progressive</title>
    <desc>Created with Sketch.</desc>
    <defs></defs>
    <g id="Page-1" stroke="none" stroke-width="1" fill="none" fill-rule="evenodd">
        <g id="progressive" fill="#939393" fill-rule="nonzero">
            <path d="M39.2601488,33.441426 C39.2601488,33.8237953 38.8861181,34.4836094 38.5603495,34.6773162 L23.095388,43.8481256 L23.095388,25.8454938 C23.095388,24.3765501 22.3131411,23.0004242 21.0522958,22.2538457 L4.74174358,12.5967513 L20.3726057,3.34623959 C20.6863089,3.15959495 21.4042064,3.16060384 21.7179095,3.34724847 L38.5583385,13.3645165 C38.8861181,13.5592323 39.2601488,14.2170285 39.2601488,14.6004067 L39.2601488,33.441426 Z M19.8960182,69.0633118 C19.8960182,69.4285294 19.6687845,69.6121476 19.5320422,69.6888232 C19.3963052,69.7665075 19.1228204,69.8684054 18.8111282,69.6807523 L3.5462531,60.4877473 C3.33209038,60.3586093 3.19836436,60.1225291 3.19836436,59.8713156 L3.19836436,15.4105453 L19.426469,25.0182041 C19.7170466,25.1907243 19.8970237,25.5065068 19.8970237,25.8454938 L19.8960182,69.0633118 Z M40.1891927,10.6021759 L23.3497691,0.585916749 C22.0386509,-0.192946272 20.059908,-0.195972943 18.7477843,0.580872301 L2.29847876,10.3156512 C0.880781889,11.1560565 0,12.7036936 0,14.3562553 L0,59.8713156 C0,61.2434055 0.727952155,62.5337758 1.90031708,63.2399986 L17.1641868,72.4330037 C17.791593,72.8103287 18.4843541,73 19.1781207,73 C19.8397125,73 20.5013044,72.8274797 21.1086015,72.4824396 C22.352354,71.7762168 23.095388,70.4979528 23.095388,69.0633118 L23.095388,47.5769828 L40.1891927,37.4396568 C41.4832181,36.6698738 42.4595186,34.9517343 42.4595186,33.441426 L42.4595186,14.6004067 C42.4595186,13.0900985 41.4832181,11.3719589 40.1891927,10.6021759 Z" id="Fill-1"></path>
            <path d="M61.4268586,25.318898 C61.7406816,25.3418569 62.0534793,25.3418569 62.3396125,25.3418569 C66.2449698,25.3418569 68.064325,23.9513521 68.064325,20.9647117 C68.064325,18.2276235 66.2244588,16.8391152 62.5980557,16.8391152 C62.2452603,16.8391152 61.8381104,16.8650686 61.4268586,16.8940167 L61.4268586,25.318898 Z M59.1859956,34.1520468 L59.1859956,15.2399849 L59.2875268,15.2250117 C59.750057,15.15913 61.3612222,14.9415205 62.6954844,14.9415205 C67.6223057,14.9415205 70.3369803,17.0806817 70.3369803,20.9647117 C70.3369803,24.9525554 67.4920587,27.2394516 62.5334446,27.2394516 C62.2114167,27.2394516 61.8114458,27.2144963 61.4268586,27.1855483 L61.4268586,34.1520468 L59.1859956,34.1520468 Z" id="Fill-2"></path>
            <path d="M61.1530575,25.4374415 C61.5017277,25.4687636 61.8503974,25.4687636 62.1678277,25.4687636 C66.0697051,25.4687636 67.9097951,23.9743982 67.9097951,20.9210027 C67.9097951,18.4718197 66.4818609,16.6268493 62.4217724,16.6268493 C62.0408559,16.6268493 61.5964526,16.6591818 61.1530575,16.6905038 L61.1530575,25.4374415 Z M61.1530575,34.1520468 L59.1859956,34.1520468 L59.1859956,15.2284709 C60.0425542,15.1011619 61.4070022,14.9415205 62.5175055,14.9415205 C67.7193366,14.9415205 69.9080963,17.3593814 69.9080963,20.9210027 C69.9080963,24.9595276 67.0844753,27.1540925 62.3582862,27.1540925 C62.0096166,27.1540925 61.5652139,27.1227704 61.1530575,27.090438 L61.1530575,34.1520468 Z" id="Fill-3"></path>
            <path d="M73.3391685,34.1520468 L73.3391685,21.5856859 L73.3948092,21.5519 C74.9659039,20.5780716 76.7717021,20.0643275 78.6159427,20.0643275 C79.3858092,20.0643275 80.1556764,20.1567418 80.9680325,20.3485264 L81.059081,20.3693941 L81.059081,22.4690874 L80.9022748,22.4164211 C80.0383246,22.1222852 79.0185798,22.0785623 78.4884744,22.0785623 C77.291691,22.0785623 76.2810512,22.2941957 75.4858928,22.7185067 L75.4858928,34.1520468 L73.3391685,34.1520468" id="Fill-4"></path>
            <path d="M75.2001206,34.1520468 L73.3391685,34.1520468 L73.3391685,21.5584642 C74.7654384,20.6371304 76.503181,20.0643275 78.3651187,20.0643275 C79.110288,20.0643275 79.8544716,20.1602998 80.6301969,20.3512341 L80.6301969,22.2272394 C79.8229304,21.9403328 78.8618982,21.8766881 78.2409241,21.8766881 C76.9073071,21.8766881 75.9137481,22.1635947 75.2001206,22.5767806 L75.2001206,34.1520468" id="Fill-5"></path>
            <path d="M88.9939402,21.5528752 C86.1069794,21.5528752 84.0911544,23.8370727 84.0911544,27.107675 C84.0911544,30.3793015 86.1069794,32.6634991 88.9939402,32.6634991 C91.880901,32.6634991 93.896726,30.3793015 93.896726,27.107675 C93.896726,23.8370727 91.880901,21.5528752 88.9939402,21.5528752 Z M88.9939402,34.5789474 C84.8270267,34.5789474 81.916849,31.5070601 81.916849,27.107675 C81.916849,22.7093142 84.8270267,19.6374269 88.9939402,19.6374269 C93.1598442,19.6374269 96.0700219,22.7093142 96.0700219,27.107675 C96.0700219,31.5070601 93.1598442,34.5789474 88.9939402,34.5789474 Z" id="Fill-6"></path>
            <path d="M89.208375,21.7186342 C86.3255481,21.7186342 84.2579952,23.9472967 84.2579952,27.3206262 C84.2579952,30.694967 86.3255481,32.9226183 89.208375,32.9226183 C92.0912026,32.9226183 94.1587554,30.694967 94.1587554,27.3206262 C94.1587554,23.9472967 92.0912026,21.7186342 89.208375,21.7186342 Z M89.208375,20.0643275 C93.2817626,20.0643275 96.0700219,23.0240803 96.0700219,27.3206262 C96.0700219,31.6181833 93.2817626,34.5789474 89.208375,34.5789474 C85.134988,34.5789474 82.345733,31.6181833 82.345733,27.3206262 C82.345733,23.0240803 85.134988,20.0643275 89.208375,20.0643275 Z" id="Fill-7"></path>
            <path d="M106.828328,21.6245287 C103.003284,21.6245287 100.809524,23.5671129 100.809524,26.9524705 C100.809524,30.2396872 103.016555,32.2814242 106.571079,32.2814242 C107.693991,32.2814242 108.448382,32.0962716 109.34467,31.7745311 L109.34467,22.0069749 C108.539236,21.7499872 107.715428,21.6245287 106.828328,21.6245287 Z M104.964296,40.128655 C103.390178,40.128655 101.749707,39.8028674 100.575754,39.2575274 L100.507359,39.2261627 L100.507359,37.1490141 L100.676816,37.2289433 C102.084538,37.8896243 103.647427,38.2690353 104.964296,38.2690353 C106.599663,38.2690353 109.34467,37.6842365 109.34467,33.7687152 L109.34467,33.6837272 C108.737277,33.9791618 107.566387,34.2047849 106.571079,34.2047849 C101.607811,34.2047849 98.643326,31.4942729 98.643326,26.9524705 C98.643326,22.4400093 101.780331,19.6374269 106.828328,19.6374269 C108.280966,19.6374269 110.21952,20.0168379 111.438389,20.5389074 L111.509847,20.5692603 L111.509847,34.1187851 C111.509847,38.5503053 108.128863,40.128655 104.964296,40.128655 Z" id="Fill-8"></path>
            <path d="M109.610672,22.2090658 C108.851605,21.9565078 107.996021,21.7991602 107.015769,21.7991602 C103.186252,21.7991602 100.971385,23.8186217 100.971385,27.1930768 C100.971385,30.5063968 103.186252,32.5879956 106.762412,32.5879956 C107.901515,32.5879956 108.661587,32.3985772 109.610672,32.051811 L109.610672,22.2090658 Z M109.610672,33.661367 C109.13613,33.9760623 107.870348,34.260691 106.762412,34.260691 C102.236162,34.260691 99.0722101,31.8944634 99.0722101,27.1930768 C99.0722101,22.7452504 102.173828,20.0643275 107.015769,20.0643275 C108.439396,20.0643275 110.338571,20.4431644 111.509847,20.9472782 L111.509847,34.2917597 C111.509847,38.4870282 108.34489,40.128655 105.179933,40.128655 C103.502949,40.128655 101.92047,39.749818 100.908046,39.2767729 L100.908046,37.4777985 C102.110488,38.0460539 103.692967,38.519099 105.179933,38.519099 C107.459144,38.519099 109.610672,37.4156613 109.610672,33.9449936 L109.610672,33.661367 Z" id="Fill-9"></path>
            <path d="M116.227571,34.1520468 L116.227571,21.5856859 L116.282208,21.5519 C117.853508,20.5780716 119.660554,20.0643275 121.504025,20.0643275 C122.275004,20.0643275 123.04396,20.1567418 123.856423,20.3485264 L123.947484,20.3693941 L123.947484,22.4690874 L123.790657,22.4164211 C122.926593,22.1222852 121.907727,22.0785623 121.37654,22.0785623 C120.1796,22.0785623 119.169839,22.2941957 118.373565,22.7185067 L118.373565,34.1520468 L116.227571,34.1520468" id="Fill-10"></path>
            <path d="M118.089509,34.1520468 L116.227571,34.1520468 L116.227571,21.5584642 C117.654827,20.6371304 119.392569,20.0643275 121.253521,20.0643275 C121.998691,20.0643275 122.742874,20.1602998 123.5186,20.3512341 L123.5186,22.2272394 C122.712319,21.9403328 121.750301,21.8766881 121.129327,21.8766881 C119.79571,21.8766881 118.803136,22.1635947 118.089509,22.5767806 L118.089509,34.1520468" id="Fill-11"></path>
            <path d="M135.482952,25.4739103 C135.329693,22.8936889 134.000767,21.5846286 131.530114,21.5846286 C129.367009,21.5846286 127.69865,23.0708934 127.146302,25.4739103 L135.482952,25.4739103 Z M132.11332,34.5789474 C127.742879,34.5789474 124.805252,31.5767127 124.805252,27.107675 C124.805252,22.8496438 127.738765,19.6374269 131.626801,19.6374269 C135.413008,19.6374269 137.671772,21.9718154 137.671772,25.8836319 L137.671772,27.3248274 L126.988929,27.3248274 C127.045501,30.8299952 129.594325,32.6307214 132.11332,32.6307214 C134.008995,32.6307214 135.385237,32.1800277 136.865365,31.0748038 L137.05771,30.9324256 L137.05771,33.165408 L137.008338,33.2012587 C135.826498,34.0770385 134.04191,34.5789474 132.11332,34.5789474 Z" id="Fill-12"></path>
            <path d="M135.7579,25.8250764 C135.630241,22.9290285 134.067938,21.7509923 131.739681,21.7509923 C129.571503,21.7509923 127.817711,23.2151952 127.274654,25.8250764 L135.7579,25.8250764 Z M127.146995,27.4166893 L127.146995,27.4803943 C127.146995,30.8860818 129.602911,32.8912714 132.314146,32.8912714 C134.290835,32.8912714 135.662663,32.3826429 137.065898,31.3320166 L137.065898,33.2411431 C135.82173,34.1653707 134.035516,34.5789474 132.314146,34.5789474 C128.295926,34.5789474 125.234136,31.8416563 125.234136,27.3206262 C125.234136,23.1514902 128.104437,20.0643275 131.834918,20.0643275 C135.343515,20.0643275 137.671772,22.1645689 137.671772,26.1122543 L137.671772,27.4166893 L127.146995,27.4166893 Z" id="Fill-13"></path>
            <path d="M144.399545,34.5789474 C142.845784,34.5789474 141.319282,34.1374724 140.417717,33.4255812 L140.372285,33.3897306 L140.372285,30.8719917 L140.569155,31.0491962 C141.827106,32.1882222 143.008328,32.6952525 144.399545,32.6952525 C146.218829,32.6952525 147.142605,31.9761912 147.142605,30.5585547 C147.142605,28.9944427 146.064361,28.5601379 143.822059,27.802153 C141.214284,26.90896 140.245077,25.7596911 140.245077,23.561535 C140.245077,21.141105 141.959362,19.6374269 144.717567,19.6374269 C146.26527,19.6374269 147.560575,20.0031034 148.567138,20.723189 L148.616608,20.7590396 L148.616608,23.170251 L148.423776,23.0084109 C147.498991,22.2360858 146.409642,21.5211217 144.717567,21.5211217 C143.241544,21.5211217 142.324835,22.3026656 142.324835,23.561535 C142.324835,24.7855781 143.033568,25.4237194 145.133518,26.0915656 C147.675669,26.8720851 149.251641,27.8707814 149.251641,30.4294924 C149.251641,32.9892278 147.392983,34.5789474 144.399545,34.5789474" id="Fill-14"></path>
            <path d="M140.369477,31.3006697 C141.519684,32.3502848 142.700497,32.9549764 144.19231,32.9549764 C145.90133,32.9549764 146.989337,32.2865799 146.989337,30.727325 C146.989337,29.0720071 145.807536,28.6260724 143.664104,27.8939709 C141.270884,27.0668176 140.245077,26.0485493 140.245077,23.8198868 C140.245077,21.3687624 142.04789,20.0643275 144.503311,20.0643275 C145.83913,20.0643275 147.144343,20.3504942 148.200757,21.1139426 L148.200757,23.1838483 C147.144343,22.2919788 146.056337,21.6872873 144.503311,21.6872873 C143.011497,21.6872873 142.04789,22.5144406 142.04789,23.8198868 C142.04789,25.0929749 142.793303,25.7613714 144.875524,26.429768 C147.238137,27.1618694 148.822757,28.0850858 148.822757,30.5999151 C148.822757,33.3372062 146.740537,34.5789474 144.19231,34.5789474 C142.668903,34.5789474 141.208683,34.1330126 140.369477,33.4646161 L140.369477,31.3006697" id="Fill-15"></path>
            <path d="M155.97887,34.5789474 C154.423925,34.5789474 152.898261,34.1374724 151.996595,33.4255812 L151.951158,33.3897306 L151.951158,30.8719917 L152.147041,31.0491962 C153.405133,32.1882222 154.587497,32.6952525 155.97887,32.6952525 C157.798357,32.6952525 158.721227,31.9761912 158.721227,30.5585547 C158.721227,28.9944427 157.643873,28.5601379 155.401319,27.802153 C152.793252,26.90896 151.824945,25.7596911 151.824945,23.561535 C151.824945,21.141105 153.537404,19.6374269 156.295917,19.6374269 C157.844804,19.6374269 159.140255,20.0031034 160.145921,20.723189 L160.196406,20.7590396 L160.196406,23.170251 L160.003552,23.0084109 C159.078663,22.2360858 157.989192,21.5211217 156.295917,21.5211217 C154.819729,21.5211217 153.902917,22.3026656 153.902917,23.561535 C153.902917,24.7855781 154.61173,25.4237194 156.712925,26.0915656 C159.255361,26.8720851 160.83151,27.8707814 160.83151,30.4294924 C160.83151,32.9892278 158.972644,34.5789474 155.97887,34.5789474" id="Fill-16"></path>
            <path d="M151.949346,31.3006697 C153.098565,32.3502848 154.280365,32.9549764 155.772179,32.9549764 C157.481199,32.9549764 158.568219,32.2865799 158.568219,30.727325 C158.568219,29.0720071 157.387405,28.6260724 155.243973,27.8939709 C152.850752,27.0668176 151.824945,26.0485493 151.824945,23.8198868 C151.824945,21.3687624 153.627759,20.0643275 156.082192,20.0643275 C157.418999,20.0643275 158.724212,20.3504942 159.780625,21.1139426 L159.780625,23.1838483 C158.724212,22.2919788 157.636205,21.6872873 156.082192,21.6872873 C154.590378,21.6872873 153.627759,22.5144406 153.627759,23.8198868 C153.627759,25.0929749 154.373172,25.7613714 156.455392,26.429768 C158.817019,27.1618694 160.402626,28.0850858 160.402626,30.5999151 C160.402626,33.3372062 158.320406,34.5789474 155.772179,34.5789474 C154.248772,34.5789474 152.788552,34.1330126 151.949346,33.4646161 L151.949346,31.3006697" id="Fill-17"></path>
            <path d="M165.333813,17.2165498 C164.534796,17.2165498 163.833698,16.4856387 163.833698,15.6516242 C163.833698,14.8033181 164.520108,14.0877193 165.333813,14.0877193 C166.162205,14.0877193 166.835886,14.7890265 166.835886,15.6516242 C166.835886,16.4999302 166.147518,17.2165498 165.333813,17.2165498 Z M164.295874,34.1520468 L166.372731,34.1520468 L166.372731,19.9033628 L164.295874,19.9033628 L164.295874,34.1520468 Z" id="Fill-18"></path>
            <path d="M164.263339,34.1520468 L165.97827,34.1520468 L165.97827,20.2758215 L164.263339,20.2758215 L164.263339,34.1520468 Z M163.833698,15.946326 C163.833698,15.1516078 164.434106,14.5146199 165.119896,14.5146199 C165.835661,14.5146199 166.407002,15.1516078 166.407002,15.946326 C166.407002,16.7107115 165.835661,17.3790432 165.119896,17.3790432 C164.434106,17.3790432 163.833698,16.7107115 163.833698,15.946326 Z" id="Fill-19"></path>
            <polyline id="Fill-20" points="174.501151 34.1520468 168.980306 20.0643275 171.234021 20.0643275 175.659772 31.9193295 180.085524 20.0643275 182.275711 20.0643275 176.755874 34.1520468 174.501151 34.1520468"></polyline>
            <polyline id="Fill-21" points="174.373165 33.7251462 168.980306 20.0643275 170.96794 20.0643275 175.445125 31.9702625 179.923311 20.0643275 181.846827 20.0643275 176.453969 33.7251462 174.373165 33.7251462"></polyline>
            <path d="M193.811354,25.4739103 C193.65708,22.8936889 192.328259,21.5846286 189.857805,21.5846286 C187.694872,21.5846286 186.026647,23.0708934 185.474343,25.4739103 L193.811354,25.4739103 Z M190.440963,34.5789474 C186.069843,34.5789474 183.133479,31.5767127 183.133479,27.107675 C183.133479,22.8496438 186.065729,19.6374269 189.955512,19.6374269 C193.73936,19.6374269 196,21.9718154 196,25.8836319 L196,27.3248274 L185.316982,27.3248274 C185.37355,30.8299952 187.923198,32.6307214 190.440963,32.6307214 C192.336487,32.6307214 193.712619,32.1800277 195.192628,31.0748038 L195.384958,30.9324256 L195.384958,33.165408 L195.336618,33.2012587 C194.153844,34.0770385 192.369399,34.5789474 190.440963,34.5789474 Z" id="Fill-22"></path>
            <path d="M194.086128,25.8250764 C193.958469,22.9290285 192.396166,21.7509923 190.067908,21.7509923 C187.898718,21.7509923 186.144926,23.2151952 185.602881,25.8250764 L194.086128,25.8250764 Z M185.475222,27.4166893 L185.475222,27.4803943 C185.475222,30.8860818 187.931139,32.8912714 190.642373,32.8912714 C192.620075,32.8912714 193.99089,32.3826429 195.394126,31.3320166 L195.394126,33.2411431 C194.149957,34.1653707 192.364757,34.5789474 190.642373,34.5789474 C186.624153,34.5789474 183.562363,31.8416563 183.562363,27.3206262 C183.562363,23.1514902 186.432665,20.0643275 190.164159,20.0643275 C193.671743,20.0643275 196,22.1645689 196,26.1122543 L196,27.4166893 L185.475222,27.4166893 Z" id="Fill-23"></path>
            <polyline id="Fill-24" points="59.1859956 63.1812865 59.1859956 43.9707602 61.3817078 43.9707602 61.3817078 61.2197447 69.4792123 61.2197447 69.4792123 63.1812865 59.1859956 63.1812865"></polyline>
            <polyline id="Fill-25" points="59.1859956 44.3976608 61.1095895 44.3976608 61.1095895 61.4744151 69.0503282 61.4744151 69.0503282 63.1812865 59.1859956 63.1812865 59.1859956 44.3976608"></polyline>
            <path d="M81.8724488,54.5021258 C81.7191902,51.9219043 80.3892348,50.6138683 77.918583,50.6138683 C75.7565055,50.6138683 74.0871181,52.1001332 73.5357992,54.5021258 L81.8724488,54.5021258 Z M78.5017885,63.6081871 C74.1313473,63.6081871 71.1947484,60.6049284 71.1947484,56.1369148 C71.1947484,51.8778593 74.1272329,48.6666667 78.0162979,48.6666667 C81.8014767,48.6666667 84.0612691,51.0010552 84.0612691,54.9118473 L84.0612691,56.3530429 L73.3773974,56.3530429 C73.4339693,59.8592349 75.9827932,61.6599611 78.5017885,61.6599611 C80.3974636,61.6599611 81.7737046,61.2092676 83.2538329,60.1040434 L83.4461777,59.9606408 L83.4461777,62.1946477 L83.3978346,62.2294741 C82.2149659,63.1052538 80.4303778,63.6081871 78.5017885,63.6081871 Z" id="Fill-26"></path>
            <path d="M81.7195259,54.4284267 C81.591867,51.5313676 80.0285506,50.3533314 77.7002932,50.3533314 C75.5321157,50.3533314 73.7783241,51.8185456 73.2362798,54.4284267 L81.7195259,54.4284267 Z M73.1086204,56.0200396 L73.1086204,56.0827334 C73.1086204,59.4894323 75.5635239,61.4946219 78.2747585,61.4946219 C80.2514474,61.4946219 81.6232752,60.9849819 83.0265112,59.9343559 L83.0265112,61.8444935 C81.7833556,62.76771 79.9971425,63.1812865 78.2747585,63.1812865 C74.2565386,63.1812865 71.1947484,60.4439954 71.1947484,55.9239766 C71.1947484,51.7548406 74.06505,48.6666667 77.7965439,48.6666667 C81.3051405,48.6666667 83.6323851,50.7679193 83.6323851,54.7145935 L83.6323851,56.0200396 L73.1086204,56.0200396 Z" id="Fill-27"></path>
            <path d="M93.0917296,56.5435762 C91.309484,56.5435762 88.318497,56.8633695 88.318497,59.0059847 C88.318497,60.9637194 90.6413904,61.374454 92.5909086,61.374454 C93.1415131,61.374454 93.7906888,61.3134937 94.3860982,61.206563 L94.3860982,56.5435762 L93.0917296,56.5435762 Z M92.4963202,63.1812865 C88.381224,63.1812865 86.2056893,61.7372197 86.2056893,59.0059847 C86.2056893,56.2737506 88.6072409,54.7697225 92.9662757,54.7697225 L94.3860982,54.7697225 L94.3860982,53.2187249 C94.3860982,51.5927756 93.3774863,50.6613776 91.6191368,50.6613776 C89.9543798,50.6613776 88.7326949,51.1840398 87.661356,51.7486749 L87.4910966,51.8386168 L87.4910966,49.7829453 L87.5518328,49.7499666 C88.8402268,49.051418 90.3626037,48.6666667 91.8381838,48.6666667 C94.9307287,48.6666667 96.4989059,50.1557044 96.4989059,53.0928062 L96.4989059,62.64963 L96.4132782,62.6736145 C95.2622862,62.991409 93.7976582,63.1812865 92.4963202,63.1812865 Z" id="Fill-28"></path>
            <path d="M94.574531,56.4353552 L93.1320137,56.4353552 C90.2459602,56.4353552 88.1300642,57.2031846 88.1300642,59.0567419 C88.1300642,60.911314 90.0544397,61.5826571 92.6195938,61.5826571 C93.1961934,61.5826571 93.9021712,61.5186714 94.574531,61.3907001 L94.574531,56.4353552 Z M94.574531,53.1751264 C94.574531,51.3845397 93.4213319,50.4572534 91.6253163,50.4572534 C90.0218401,50.4572534 88.802424,50.905154 87.5208656,51.5764971 L87.5208656,49.7544252 C88.7066637,49.1145673 90.2143796,48.6666667 91.8494364,48.6666667 C94.6713096,48.6666667 96.4989059,49.9138819 96.4989059,53.0471548 L96.4989059,62.6694001 C95.2163286,63.0218298 93.7096317,63.1812865 92.5228146,63.1812865 C88.7392633,63.1812865 86.2056893,61.998057 86.2056893,59.0567419 C86.2056893,56.3073836 88.7392633,54.8692266 93.0036539,54.8692266 L94.574531,54.8692266 L94.574531,53.1751264 Z" id="Fill-29"></path>
            <path d="M104.083437,63.6081871 C102.529676,63.6081871 101.005193,63.165688 100.102618,62.4548208 L100.057187,62.4179462 L100.057187,59.9012314 L100.253048,60.0784361 C101.512008,61.217462 102.69323,61.7244925 104.083437,61.7244925 C105.90373,61.7244925 106.826497,61.0054309 106.826497,59.5867702 C106.826497,58.0226581 105.748253,57.5893775 103.506961,56.8303682 C100.899186,55.9371755 99.9299781,54.7889309 99.9299781,52.5907748 C99.9299781,50.1703448 101.643255,48.6666667 104.401458,48.6666667 C105.950171,48.6666667 107.245477,49.0313188 108.25103,49.7524288 L108.30151,49.7872551 L108.30151,52.1984664 L108.108678,52.0376507 C107.183892,51.2643013 106.094543,50.5493372 104.401458,50.5493372 C102.925436,50.5493372 102.008727,51.3319053 102.008727,52.5907748 C102.008727,53.8137936 102.71746,54.4529592 104.818419,55.1208053 C107.360571,55.9013249 108.936543,56.8989968 108.936543,59.4577081 C108.936543,62.017443 107.077885,63.6081871 104.083437,63.6081871" id="Fill-30"></path>
            <path d="M100.054378,59.9030088 C101.203598,60.9536354 102.385398,61.558327 103.876225,61.558327 C105.586232,61.558327 106.673251,60.8899304 106.673251,59.3296643 C106.673251,57.6753577 105.493426,57.2294227 103.349005,56.4963101 C100.954798,55.6691568 99.9299781,54.6508885 99.9299781,52.4232372 C99.9299781,49.9721128 101.731805,48.6666667 104.187225,48.6666667 C105.524032,48.6666667 106.829245,48.9538446 107.885658,49.717293 L107.885658,51.7861875 C106.829245,50.8953292 105.741238,50.2906376 104.187225,50.2906376 C102.696399,50.2906376 101.731805,51.117791 101.731805,52.4232372 C101.731805,53.695314 102.478205,54.3647218 104.560425,55.0331183 C106.922052,55.7652198 108.507659,56.6884361 108.507659,59.2022543 C108.507659,61.9395455 106.424451,63.1812865 103.876225,63.1812865 C102.353804,63.1812865 100.893585,62.7353521 100.054378,62.0669555 L100.054378,59.9030088" id="Fill-31"></path>
            <path d="M113.439825,46.2468104 C112.639829,46.2468104 111.938731,45.5158993 111.938731,44.6818847 C111.938731,43.8335786 112.625141,43.1169591 113.439825,43.1169591 C114.267238,43.1169591 114.940919,43.8192871 114.940919,44.6818847 C114.940919,45.5301908 114.253529,46.2468104 113.439825,46.2468104 Z M112.400907,63.1812865 L114.478743,63.1812865 L114.478743,48.9336234 L112.400907,48.9336234 L112.400907,63.1812865 Z" id="Fill-32"></path>
            <path d="M112.367463,63.1812865 L114.083303,63.1812865 L114.083303,49.3040502 L112.367463,49.3040502 L112.367463,63.1812865 Z M111.938731,44.9755658 C111.938731,44.1798364 112.539138,43.5438596 113.225837,43.5438596 C113.940694,43.5438596 114.512035,44.1798364 114.512035,44.9755658 C114.512035,45.7389402 113.940694,46.408283 113.225837,46.408283 C112.539138,46.408283 111.938731,45.7389402 111.938731,44.9755658 Z" id="Fill-33"></path>
            <path d="M128.257017,63.1812865 L128.257017,54.0343912 C128.257017,51.8193658 127.002406,50.6965981 124.528229,50.6965981 C123.376751,50.6965981 122.197236,50.8552501 120.925604,51.1817069 L120.925604,63.1812865 L118.800875,63.1812865 L118.800875,49.7579074 L118.877974,49.7304484 C120.715333,49.0541436 122.833052,48.6666667 124.685431,48.6666667 C128.465285,48.6666667 130.380744,50.3436992 130.380744,53.6509823 L130.380744,63.1812865 L128.257017,63.1812865" id="Fill-34"></path>
            <path d="M119.229759,49.7092723 C121.0957,49.0459785 123.218131,48.6666667 125.11575,48.6666667 C128.654497,48.6666667 130.809628,50.0253654 130.809628,53.468272 L130.809628,62.754386 L128.879309,62.754386 L128.879309,53.8465803 C128.879309,51.03586 126.852935,50.4357847 124.955315,50.4357847 C123.475643,50.4357847 122.156404,50.6886593 121.160078,50.9405303 L121.160078,62.754386 L119.229759,62.754386 L119.229759,49.7092723" id="Fill-35"></path>
            <path d="M141.996818,50.6537684 C138.171774,50.6537684 135.978014,52.5963526 135.978014,55.9817103 C135.978014,59.2689271 138.186066,61.3096519 141.73957,61.3096519 C142.862481,61.3096519 143.615852,61.1255115 144.512139,60.8037708 L144.512139,51.0362147 C143.707726,50.779227 142.883918,50.6537684 141.996818,50.6537684 Z M140.132786,69.1578947 C138.558668,69.1578947 136.918197,68.832107 135.744244,68.2867671 L135.675849,68.254391 L135.675849,66.1782539 L135.845306,66.2571713 C137.253029,66.9188644 138.815917,67.2972633 140.132786,67.2972633 C141.768153,67.2972633 144.512139,66.7124647 144.512139,62.7979549 L144.512139,62.7129669 C143.905767,63.0084015 142.734877,63.2340247 141.73957,63.2340247 C136.775281,63.2340247 133.811816,60.5225008 133.811816,55.9817103 C133.811816,51.4692491 136.948822,48.6666667 141.996818,48.6666667 C143.449457,48.6666667 145.38801,49.0450659 146.606879,49.5681472 L146.678337,49.5985 L146.678337,63.1480247 C146.678337,67.5785333 143.297354,69.1578947 140.132786,69.1578947 Z" id="Fill-36"></path>
            <path d="M144.779162,50.8124072 C144.020095,50.5598492 143.164511,50.4014994 142.184259,50.4014994 C138.354742,50.4014994 136.139875,52.4209609 136.139875,55.7964182 C136.139875,59.1087362 138.354742,61.1913369 141.930902,61.1913369 C143.070005,61.1913369 143.830077,61.0019185 144.779162,60.6551524 L144.779162,50.8124072 Z M144.779162,62.2637061 C144.30462,62.5794034 143.037832,62.8630304 141.930902,62.8630304 C137.405657,62.8630304 134.2407,60.4978048 134.2407,55.7964182 C134.2407,51.3485918 137.341312,48.6666667 142.184259,48.6666667 C143.607886,48.6666667 145.507062,49.0455036 146.678337,49.5506196 L146.678337,62.8951013 C146.678337,67.0903695 143.51338,68.7309942 140.348423,68.7309942 C138.671439,68.7309942 137.08896,68.3521572 136.076536,67.8791123 L136.076536,66.08114 C137.277973,66.6493955 138.861457,67.1224404 140.348423,67.1224404 C142.626629,67.1224404 144.779162,66.0180003 144.779162,62.5483352 L144.779162,62.2637061 Z" id="Fill-37"></path>
        </g>
    </g>
</svg>