<?xml version="1.0" encoding="UTF-8"?>
<svg width="150px" height="65px" viewBox="0 0 150 65" version="1.1" xmlns="http://www.w3.org/2000/svg" xmlns:xlink="http://www.w3.org/1999/xlink">
    <!-- Generator: Sketch 48.2 (47327) - http://www.bohemiancoding.com/sketch -->
    <title>rev</title>
    <desc>Created with Sketch.</desc>
    <defs></defs>
    <g id="Page-1" stroke="none" stroke-width="1" fill="none" fill-rule="evenodd">
        <g id="rev" fill="#939393" fill-rule="nonzero">
            <path d="M19.4894324,14.3819388 C19.7685234,12.5739984 19.9746824,12.0870355 22.808557,12.0870355 C24.8138239,12.0870355 25.4337452,13.4781503 25.4337452,15.6353229 C25.4337452,21.4785137 23.0154381,23.8439176 19.8371226,23.8439176 C18.5918642,23.8439176 18.2470623,23.4267284 18.2470623,22.5222132 C18.2470623,22.2442083 18.3163837,21.8957027 18.3857051,21.4785137 L19.4894324,14.3819388 Z M16.5176369,34.766058 C16.7270454,33.6540384 17.0028869,33.2361225 18.1080584,33.2361225 C19.3525947,33.2361225 19.6298805,33.6540384 20.3198453,36.2956301 L23.2219583,47.4968656 C23.5003272,48.7473426 24.8138239,49.5842646 28.4051796,49.5842646 C31.170816,49.5842646 37.9440978,48.956664 37.9440978,44.6448624 C37.9440978,44.0176252 37.7372166,43.3224313 37.5996569,42.7653312 L33.3140037,31.1483602 C32.9692018,30.2442082 32.7597933,29.339693 32.7597933,28.5739984 C32.7597933,27.3914781 33.4515634,26.6265104 34.9026199,25.5831744 C39.1886342,22.4528027 40.7093731,18.6962842 40.7093731,14.1744344 C40.7093731,4.71354593 34.4202583,2 25.9189953,2 L17.6253356,2 C9.26235452,2 6.70432139,3.94785137 6.21943241,7.28645408 L0.13792077,46.1744345 C0.0685993357,46.5919869 0,47.0099028 0,47.2882712 C0,49.2343054 2.97215648,49.5842646 6.77328178,49.5842646 C10.7834545,49.5842646 14.2372506,49.1663487 14.5842188,46.9404924 L16.5176369,34.766058 Z M61.1350059,20.7131826 C63.1388286,20.7131826 64.1064403,21.5482875 64.1064403,23.4267284 C64.1064403,25.9302263 63.2767493,27.4612519 60.9270416,27.4612519 L58.1628494,27.4612519 C57.1952377,27.4612519 56.6413883,27.1839738 56.6413883,26.4182793 C56.6413883,25.0271645 57.0558727,23.4961389 57.6790436,22.5222132 C58.4386909,21.3396929 59.475624,20.7131826 61.1350059,20.7131826 Z M65.1426514,34.4179159 C74.1974025,33.7212683 76.7543525,30.800218 76.7543525,22.3132553 C76.7543525,14.9390388 71.7783733,11.392205 61.6874111,11.392205 C55.4668955,11.392205 50.6974364,12.9221405 47.3115177,16.6088853 C42.7500228,21.5482875 41.3675658,30.800218 41.3675658,36.7825929 C41.3675658,45.8281094 47.1042754,50 58.3700917,50 C64.4516033,50 68.322411,49.3051695 69.9814319,48.1233761 C71.3631668,47.1498138 72.6069811,45.1318252 72.6069811,41.096575 C72.6069811,38.5912602 70.7418013,38.1737077 69.4972649,38.4528029 C67.8389663,38.7998546 64.9361312,39.2875443 61.2729267,39.2875443 C56.9872734,39.2875443 55.5358559,38.5912602 55.5358559,36.9922777 C55.5358559,36.2956301 55.6048163,35.878441 55.8124196,35.5993458 C56.0900664,35.2522941 56.5720669,35.0444263 57.4714403,34.9757428 L65.1426514,34.4179159 Z M127.392939,10.7707822 C123.690018,16.5292995 118.925614,24.7440719 113.672349,32.2669211 C112.228513,34.3346962 110.746046,36.3505043 109.242276,38.2485692 C100.658333,49.0682293 100.722238,49.8375579 89.0838195,49.9284092 C75.0964149,50.0356138 79.4485011,41.2728264 79.9637184,33.9498501 C80.307076,29.0536931 81.9011079,24.1466339 82.3896075,20.6968293 C82.9098793,17.0340693 84.2219318,12.4101027 90.5464295,12.8948851 C92.3220692,13.0304352 97.7107275,15.0462434 97.0092091,18.3179795 C95.6245856,24.7913146 94.3435833,36.7400745 94.2045793,36.9581176 C94.2045793,36.9581176 108.457716,14.5505588 114.751164,8.21604435 C117.753648,5.19324068 134.117478,0.308712639 127.392939,10.7707822 Z" id="Fill-1"></path>
            <path d="M113.337353,6.37870176 C98.2839748,2.3714241 79.6477559,0 59.4672656,0 C53.8433136,0 48.3406661,0.185801551 43,0.537770045 C69.512294,1.25261515 92.836895,6.0674569 108.076225,13.219544 C109.919036,10.7161317 111.706643,8.37743195 113.337353,6.37870176 Z M59.4672656,65 C57.1544903,65 54.8627797,64.9683665 52.5932237,64.9072811 C94.729826,62.1275299 126.658693,48.8763523 126.658693,32.9454146 C126.658693,29.7464283 125.370467,26.6557958 122.97198,23.7364208 C125.532813,19.7233255 127.952002,15.7978587 130.182333,12.2083618 C142.580815,17.7693186 150,24.822869 150,32.5 C150,50.4500296 109.466868,65 59.4672656,65 Z" id="Fill-3"></path>
        </g>
    </g>
</svg>