<?xml version="1.0" encoding="utf-8"?>
<!-- Generator: Adobe Illustrator 26.0.3, SVG Export Plug-In . SVG Version: 6.00 Build 0)  -->
<svg version="1.1" id="Layer_1" xmlns="http://www.w3.org/2000/svg" xmlns:xlink="http://www.w3.org/1999/xlink" x="0px" y="0px"
	 viewBox="0 0 600 102.7" style="enable-background:new 0 0 600 102.7;" xml:space="preserve">
<style type="text/css">
	.st0{fill:#939393;}
</style>
<path id="Combined-Shape" class="st0" d="M147.7,25.3c13.2,0,25.1,6.8,26.8,20.2v0.4h-17.9c-0.2-3.1-3.6-5.9-9.3-5.9
	c-4,0-7,1.4-7,4.3c0,9.7,34.8-0.5,34.9,25.5c0,11.3-10.7,20-24.7,20c-15.9,0-27.1-8-28.6-21.8v-0.4h17c0.4,4.1,4.8,6.9,10.7,6.9
	c5.3,0,8.3-1.8,8.3-4.7c0-10.2-34.8-1.1-34.8-24.2C123.1,34,132.5,25.3,147.7,25.3z M383.3,3v85.5h-17.8v-8.8
	c-4.3,6.5-11,10.1-19.7,10.1c-15.9,0-28.7-14.6-28.7-32.3s12.7-32.1,28.7-32.1c8.5,0,15.2,3.6,19.5,9.8l0.2,0.3V3H383.3z
	 M213.7,25.3c16.8,0,30.5,13.2,30.5,30.2c0,1.8-0.1,3.6-0.3,5.4l-0.1,0.9h-45.9c1.2,8,7.4,13.2,15.7,13.2c6.8,0,11.1-2.9,12.2-7.1
	l0.1-0.2h17.4c-2,13.2-13.5,21.8-28.7,22h-0.5h-0.8c-17.8-0.2-31.9-14.8-31.7-32.5C181.6,39.1,195.7,25.3,213.7,25.3z M410.6,3v32.2
	c4.3-6.4,10.9-9.9,19.5-9.9c16.1,0,28.8,14.5,28.8,32.2s-12.7,32.2-28.7,32.2c-8.3,0-15-3.5-19.3-9.7l-0.2-0.3v8.7h-17.8V3H410.6z
	 M600,3v85.4h-17.7v-8.8c-4.3,6.5-11,10.1-19.7,10.1c-16.1,0-28.8-14.6-28.8-32.3s12.7-32.1,28.7-32.1c8.5,0,15.2,3.6,19.5,9.8
	l0.2,0.3V3H600z M285.1,25.3c15.9,0,25.5,10.7,25.4,28.1v35h-17.8V55.6c0-8.1-4.8-13.4-12.2-13.4c-7.3,0-12.1,5.1-12.2,13v0.4v32.8
	h-17.8V26.5h17.8v8C272.2,28.7,278,25.3,285.1,25.3z M526.2,25.2h0.4c1.8,0.1,3.5,0.3,5.2,0.7l0.7,0.1v16.2
	c-2.1-0.6-4.2-0.9-6.4-0.9c-8.5,0-15.3,5-15.5,16.2v0.4v30.5h-17.8V26.5h17.8v7c3.5-5.1,9.1-8.2,15.2-8.3H526.2z M483.1,26.5v61.8
	h-17.8V26.5H483.1z M335,57.3c-0.1,8.3,6.4,15.2,14.7,15.5h0.3h0.5c8.3-0.2,15-7,15-15.3s-6.7-15.1-15-15.2
	C342.1,42.1,335.1,48.8,335,57.3z M426.3,41.9H426c-8.5,0.1-15.3,7.1-15.2,15.6c0,8.6,6.8,15.2,15.6,15.2
	c8.5-0.2,15.3-7.2,15.2-15.6c-0.1-8.3-6.8-15-15-15.2H426.3z M551.6,57.3c-0.1,8.3,6.4,15.2,14.7,15.5h0.3h0.5c8.3-0.2,15-7,15-15.3
	s-6.7-15.1-15-15.2C558.8,42.1,551.8,48.8,551.6,57.3z M212.9,39.8c-6.7,0-11.9,3.3-14.1,10.3l-0.1,0.4h26.9
	C225.1,44.1,219.5,39.8,212.9,39.8z M474.1,0c5.9,0,10.8,4.8,10.8,10.7s-4.7,10.8-10.7,10.8c-5.9,0-10.8-4.7-10.8-10.7
	S468.1,0,474.1,0z"/>
<path class="st0" d="M51.4,0c28.3,0,51.3,23.2,51.3,51.4s-23.1,51.3-51.4,51.3S0,79.6,0,51.3l0,0h25.2C11.2,51,0,39.6,0,25.6l0,0V0
	H51.4z"/>
</svg>
