<?xml version="1.0" encoding="UTF-8"?>
<svg width="314px" height="128px" viewBox="0 0 314 128" version="1.1" xmlns="http://www.w3.org/2000/svg" xmlns:xlink="http://www.w3.org/1999/xlink">
    <!-- Generator: Sketch 54.1 (76490) - https://sketchapp.com -->
    <title>solutionstream</title>
    <desc>Created with Sketch.</desc>
    <g id="Page-1" stroke="none" stroke-width="1" fill="none" fill-rule="evenodd">
        <g id="solutionstream" transform="translate(0.000000, -1.000000)" fill="#939393" fill-rule="nonzero">
            <g id="SolutionStream_31_" transform="translate(0.000000, 94.000000)">
                <g id="Group">
                    <g transform="translate(306.000000, 4.000000)" id="Shape">
                        <path d="M7.5,2.3 C7.2,1.7 6.7,1.2 6.1,0.9 C5.5,0.6 4.9,0.4 4.2,0.4 C3.6,0.4 2.9,0.6 2.3,0.9 C1.7,1.2 1.2,1.7 0.9,2.3 C0.6,2.9 0.4,3.6 0.4,4.2 C0.4,4.9 0.6,5.5 0.9,6.1 C1.2,6.7 1.7,7.2 2.3,7.5 C2.9,7.8 3.5,8 4.2,8 C4.9,8 5.5,7.8 6.1,7.5 C6.7,7.2 7.2,6.7 7.5,6.1 C7.8,5.5 8,4.9 8,4.2 C8,3.5 7.9,2.9 7.5,2.3 Z M7,5.8 C6.7,6.3 6.3,6.7 5.8,7 C5.3,7.3 4.8,7.4 4.2,7.4 C3.6,7.4 3.1,7.3 2.6,7 C2.1,6.7 1.7,6.3 1.4,5.8 C1.1,5.3 1,4.8 1,4.2 C1,3.6 1.1,3.1 1.4,2.6 C1.7,2.1 2.1,1.7 2.6,1.4 C3.1,1.1 3.6,1 4.2,1 C4.7,1 5.3,1.1 5.8,1.4 C6.3,1.7 6.7,2.1 7,2.6 C7.3,3.1 7.4,3.7 7.4,4.2 C7.4,4.7 7.3,5.3 7,5.8 Z"></path>
                        <path d="M5,4.6 C4.9,4.5 4.8,4.4 4.7,4.4 C5.1,4.4 5.3,4.2 5.6,4 C5.8,3.8 5.9,3.5 5.9,3.2 C5.9,3 5.8,2.8 5.7,2.6 C5.6,2.4 5.4,2.3 5.2,2.2 C5,2.1 4.6,2.1 4.1,2.1 L2.8,2.1 C2.8,2.1 2.7,2.1 2.7,2.2 L2.7,6.2 C2.7,6.2 2.7,6.3 3,6.3 C3.3,6.3 3.3,6.2 3.3,6.2 L3.3,4.5 L3.3,4.5 C3.3,4.5 3.3,4.4 3.4,4.4 L3.7,4.4 C3.9,4.4 4.1,4.4 4.2,4.5 C4.4,4.6 4.6,4.9 4.9,5.5 L5.3,6.2 C5.3,6.2 5.4,6.3 5.7,6.3 C6,6.3 6.1,6.2 6.1,6.2 L5.6,5.4 C5.4,5 5.2,4.7 5,4.6 Z M4.1,3.8 L3.4,3.8 L3.4,3.8 C3.3,3.8 3.3,3.7 3.3,3.7 L3.3,2.6 C3.3,2.6 3.3,2.5 3.4,2.5 L4.1,2.5 C4.4,2.5 4.6,2.5 4.8,2.6 C4.9,2.6 5,2.7 5.1,2.8 C5.2,2.9 5.2,3 5.2,3.1 C5.2,3.3 5.1,3.4 5,3.6 C4.8,3.8 4.5,3.8 4.1,3.8 Z"></path>
                    </g>
                    <g>
                        <path d="M22.4,21.3 C21.8,20.2 21,19.3 20,18.6 C19,17.9 17.9,17.4 16.7,16.9 C15.5,16.5 14.2,16.1 13,15.8 C11.8,15.5 10.7,15.2 9.7,15 C8.7,14.7 7.9,14.4 7.2,14 C6.5,13.6 6,13.1 5.6,12.5 C5.2,11.9 5,11.1 5,10.1 C5,8.5 5.7,7.1 7,6.1 C8.3,5.1 10.1,4.6 12.2,4.6 C14.1,4.6 15.8,5 17.2,5.9 C18.6,6.7 19.7,7.8 20.4,9.1 L20.4,9.1 C20.5,9.2 20.6,9.2 20.9,9.1 C21.1,9 21.3,8.9 21.6,8.7 C21.9,8.5 22.1,8.3 22.3,8 C22.5,7.7 22.6,7.4 22.6,7 C22.6,6.4 22.3,5.8 21.9,5.2 C21.4,4.6 20.7,3.9 19.8,3.4 C18.9,2.8 17.8,2.4 16.5,2 C15.2,1.6 13.7,1.4 12.1,1.4 C10.6,1.4 9.2,1.6 7.9,2.1 C6.6,2.5 5.4,3.2 4.5,3.9 C3.5,4.7 2.8,5.6 2.2,6.7 C1.7,7.8 1.4,9 1.4,10.2 C1.4,11.8 1.7,13.1 2.3,14.1 C2.9,15.1 3.6,16 4.6,16.7 C5.5,17.4 6.6,17.9 7.7,18.3 C8.8,18.7 10,19 11.2,19.3 C12.3,19.6 13.4,19.8 14.4,20.1 C15.4,20.4 16.3,20.8 17.1,21.2 C17.9,21.7 18.5,22.2 18.9,22.9 C19.3,23.5 19.6,24.4 19.6,25.4 C19.6,27.2 18.9,28.6 17.6,29.5 C16.3,30.5 14.4,31 12.1,31 C9.8,31 7.9,30.5 6.3,29.5 C4.8,28.5 3.6,27.3 2.7,25.8 L2.7,25.8 C2.6,25.7 2.5,25.7 2.2,25.8 C2,25.9 1.8,26 1.5,26.2 C1.2,26.4 1,26.6 0.8,26.9 C0.6,27.2 0.5,27.5 0.5,27.9 C0.5,28.5 0.8,29.2 1.4,30 C2,30.7 2.8,31.4 3.8,32.1 C4.8,32.7 6,33.3 7.5,33.7 C8.9,34.1 10.5,34.3 12.3,34.3 C14,34.3 15.5,34.1 16.8,33.7 C18.2,33.3 19.3,32.7 20.3,31.9 C21.3,31.1 22,30.2 22.6,29 C23.1,27.9 23.4,26.7 23.4,25.3 C23.3,23.7 23,22.4 22.4,21.3 Z" id="Path"></path>
                        <path d="M49.3,17.1 C47.6,12.8 43.5,9.9 38.9,9.7 C34.3,9.5 29.9,11.6 27.6,15.7 C25.4,19.7 25.5,25 28,28.9 C30.5,32.9 35.2,34.7 39.7,34.2 C43.5,33.8 46.8,31.6 48.6,28.3 C50.5,24.9 50.7,20.7 49.3,17.1 C48.7,15.6 49.9,18.6 49.3,17.1 Z M38.1,31.1 C35.8,31.1 33.6,30.2 32,28.5 C30.5,26.8 29.7,24.6 29.6,22.3 C29.5,20 30.1,17.7 31.5,15.9 C32.9,14.1 35,13 37.2,12.8 C39.5,12.6 41.8,13.2 43.6,14.8 C45.3,16.3 46.3,18.4 46.5,20.7 C46.8,23 46.3,25.4 45.1,27.3 C43.9,29.2 42,30.5 39.8,30.9 C39.2,31.1 38.7,31.1 38.1,31.1 C36.9,31.1 39.3,31.1 38.1,31.1 Z" id="Shape"></path>
                        <path d="M134,17.1 C132.3,12.8 128.2,9.9 123.6,9.7 C119,9.5 114.6,11.6 112.3,15.7 C110.1,19.7 110.2,25 112.7,28.9 C115.2,32.9 119.9,34.7 124.4,34.2 C128.2,33.8 131.5,31.6 133.3,28.3 C135.2,24.9 135.4,20.7 134,17.1 C133.4,15.6 134.6,18.6 134,17.1 Z M122.9,31.1 C120.6,31.1 118.4,30.2 116.8,28.5 C115.3,26.8 114.5,24.6 114.4,22.3 C114.3,20 114.9,17.7 116.3,15.9 C117.7,14.1 119.8,13 122,12.8 C124.3,12.6 126.6,13.2 128.4,14.8 C130.1,16.3 131.1,18.4 131.3,20.7 C131.6,23 131.1,25.4 129.9,27.3 C128.7,29.2 126.8,30.5 124.6,30.9 C124,31.1 123.4,31.1 122.9,31.1 C121.6,31.1 124.1,31.1 122.9,31.1 Z" id="Shape"></path>
                        <path d="M56.8,1 C56.4,0.7 56,0.4 55.5,0.4 C55.1,0.4 54.3,0.4 54,0.7 C53.9,0.8 53.9,0.9 53.9,1 C53.9,1.4 53.9,1.8 53.9,2.2 C53.9,3.9 53.9,28.9 53.9,32.1 C53.9,32.3 53.9,32.6 54,32.8 C54.2,33.7 55,33.9 55.9,33.9 C57,33.9 57.5,33.2 57.5,32.2 C57.5,32.1 57.5,32.1 57.5,32 C57.5,30.8 57.5,7 57.5,3.6 C57.5,2.8 57.5,1.6 56.8,1 C56.4,0.6 57.3,1.4 56.8,1 Z" id="Path"></path>
                        <path d="M82.5,10.4 C82.2,10.2 81.8,10 81.4,10 L81.1,10 C80.6,10 80.3,10.1 80,10.4 C79.7,10.7 79.5,11.1 79.5,11.7 L79.5,26.1 C78.8,27.5 77.9,28.6 76.7,29.5 C75.5,30.4 74,30.8 72.4,30.8 C70.4,30.8 68.9,30.2 67.8,28.9 C66.7,27.6 66.2,25.8 66.2,23.6 L66.2,11.6 C66.2,11 66,10.5 65.7,10.3 C65.4,10.1 65,9.9 64.6,9.9 L64.3,9.9 C63.8,9.9 63.5,10 63.2,10.3 C62.9,10.6 62.7,11 62.7,11.6 L62.7,23.8 C62.7,25.3 62.9,26.8 63.3,28 C63.7,29.3 64.3,30.4 65.1,31.3 C65.9,32.2 66.9,32.9 68,33.4 C69.2,33.9 70.5,34.1 72.1,34.1 C73.9,34.1 75.5,33.7 76.9,32.9 C78,32.2 79,31.4 79.8,30.4 L79.8,30.5 C79.8,31.8 80,32.7 80.5,33.1 C80.9,33.5 81.5,33.7 82.1,33.7 C82.4,33.7 82.7,33.7 82.9,33.6 C83.1,33.5 83.3,33.4 83.3,33.2 L83.3,11.8 C83,11.1 82.9,10.7 82.5,10.4 Z" id="Path"></path>
                        <path d="M100.3,29.8 C99.9,29.5 99.8,29.5 99.7,29.5 C99.6,29.5 99.5,29.5 99.5,29.6 C99.1,30.1 98.6,30.5 98.1,30.8 C97.6,31.1 96.9,31.2 96.1,31.2 C94.9,31.2 94,30.8 93.6,30.1 C93.1,29.3 92.9,28.1 92.9,26.4 L92.9,13.5 L98.9,13.5 C99.5,13.5 100,13.4 100.2,13.1 C100.4,12.9 100.6,12.5 100.6,12 L100.6,11.7 C100.6,11.2 100.5,10.9 100.2,10.6 C99.9,10.3 99.5,10.2 98.9,10.2 L92.9,10.2 L92.9,6.4 C92.9,5.8 92.8,5.3 92.5,5.1 C92.2,4.9 91.8,4.7 91.4,4.7 L91.1,4.7 C90.6,4.7 90.3,4.8 90,5.1 C89.7,5.4 89.5,5.8 89.5,6.4 L89.5,10.2 L87.6,10.2 C87,10.2 86.5,10.3 86.3,10.6 C86.1,10.8 85.9,11.2 85.9,11.7 L85.9,12 C85.9,12.5 86,12.8 86.3,13.1 C86.6,13.4 87,13.5 87.6,13.5 L89.5,13.5 L89.5,26.8 C89.5,29.3 90,31.1 91.1,32.4 C92.2,33.7 93.9,34.3 96.2,34.3 C97.8,34.3 99,34 99.9,33.3 C100.8,32.6 101.2,31.9 101.2,31.2 C100.9,30.6 100.7,30.1 100.3,29.8 Z" id="Path"></path>
                        <g transform="translate(103.000000, 0.000000)" id="Path">
                            <path d="M2.3,4.9 C3.8,4.9 4.6,4.1 4.6,2.6 C4.6,1.1 3.8,0.3 2.4,0.3 C0.9,0.3 0.1,1.1 0.1,2.6 C0,4.1 0.8,4.9 2.3,4.9 Z"></path>
                            <path d="M3.6,10.4 C3.3,10.2 2.9,10 2.5,10 L2.2,10 C1.7,10 1.4,10.1 1.1,10.4 C0.8,10.7 0.6,11.1 0.6,11.7 L0.6,32.1 C0.6,32.7 0.8,33.2 1.1,33.4 C1.4,33.6 1.8,33.8 2.2,33.8 L2.5,33.8 C3,33.8 3.3,33.7 3.6,33.4 C3.9,33.2 4.1,32.7 4.1,32.1 L4.1,11.8 C4.1,11.1 3.9,10.7 3.6,10.4 Z"></path>
                        </g>
                        <path d="M158.5,15.8 C158.1,14.5 157.5,13.4 156.7,12.5 C155.9,11.6 154.9,10.9 153.8,10.4 C152.6,9.9 151.3,9.7 149.7,9.7 C147.9,9.7 146.3,10.1 144.9,10.9 C143.8,11.6 142.8,12.4 142,13.4 L142,13.3 C142,12 141.8,11.1 141.3,10.7 C140.9,10.3 140.3,10.1 139.7,10.1 C139.4,10.1 139.1,10.1 138.9,10.2 C138.7,10.3 138.5,10.4 138.5,10.6 L138.5,32.2 C138.5,32.8 138.7,33.3 139,33.5 C139.3,33.7 139.7,33.9 140.1,33.9 L140.4,33.9 C140.9,33.9 141.2,33.8 141.5,33.5 C141.8,33.3 142,32.8 142,32.2 L142,17.8 C142.7,16.4 143.6,15.3 144.9,14.4 C146.2,13.5 147.7,13.1 149.4,13.1 C151.3,13.1 152.8,13.7 153.8,15 C154.8,16.3 155.4,18.1 155.4,20.3 L155.4,32.3 C155.4,32.9 155.6,33.4 155.9,33.6 C156.2,33.8 156.6,34 157,34 L157.3,34 C157.8,34 158.1,33.9 158.4,33.6 C158.7,33.4 158.9,32.9 158.9,32.3 L158.9,20.1 C159.1,18.5 158.9,17.1 158.5,15.8 Z" id="Path"></path>
                        <path d="M186.3,21.3 C185.7,20.2 184.9,19.3 183.9,18.6 C182.9,17.9 181.8,17.4 180.6,16.9 C179.4,16.5 178.1,16.1 176.9,15.8 C175.7,15.5 174.6,15.2 173.6,15 C172.6,14.7 171.8,14.4 171.1,14 C170.4,13.6 169.9,13.1 169.5,12.5 C169.1,11.9 168.9,11.1 168.9,10.1 C168.9,8.5 169.6,7.1 170.9,6.1 C172.2,5.1 174,4.6 176.1,4.6 C178,4.6 179.7,5 181.1,5.9 C182.5,6.7 183.6,7.8 184.3,9.1 L184.3,9.1 C184.4,9.2 184.5,9.2 184.8,9.1 C185,9 185.2,8.9 185.5,8.7 C185.8,8.5 186,8.3 186.2,8 C186.4,7.7 186.5,7.4 186.5,7 C186.5,6.4 186.3,5.8 185.8,5.2 C185.3,4.6 184.6,3.9 183.7,3.4 C182.8,2.8 181.7,2.4 180.4,2 C179.1,1.6 177.6,1.4 176,1.4 C174.5,1.4 173.1,1.6 171.8,2.1 C170.5,2.5 169.3,3.2 168.4,3.9 C167.4,4.7 166.7,5.6 166.1,6.7 C165.6,7.8 165.3,9 165.3,10.2 C165.3,11.8 165.6,13.1 166.2,14.1 C166.8,15.1 167.5,16 168.5,16.7 C169.4,17.4 170.5,17.9 171.6,18.3 C172.7,18.7 173.9,19 175.1,19.3 C176.2,19.6 177.3,19.8 178.3,20.1 C179.3,20.4 180.2,20.8 181,21.2 C181.8,21.7 182.4,22.2 182.8,22.9 C183.2,23.5 183.5,24.4 183.5,25.4 C183.5,27.2 182.8,28.6 181.5,29.5 C180.2,30.5 178.3,31 176,31 C173.7,31 171.8,30.5 170.3,29.5 C168.7,28.5 167.6,27.3 166.7,25.8 L166.7,25.8 C166.6,25.7 166.5,25.7 166.2,25.8 C166,25.9 165.8,26 165.5,26.2 C165.2,26.4 165,26.6 164.8,26.9 C164.6,27.2 164.5,27.5 164.5,27.9 C164.5,28.5 164.8,29.2 165.4,30 C166,30.7 166.8,31.4 167.8,32.1 C168.8,32.7 170,33.3 171.5,33.7 C172.9,34.1 174.5,34.3 176.3,34.3 C178,34.3 179.5,34.1 180.8,33.7 C182.2,33.3 183.3,32.7 184.3,31.9 C185.3,31.1 186,30.2 186.6,29 C187.1,27.9 187.4,26.7 187.4,25.3 C187.2,23.7 186.9,22.4 186.3,21.3 Z" id="Path"></path>
                        <path d="M202.8,29.8 C202.4,29.5 202.3,29.5 202.2,29.5 C202.1,29.5 202,29.5 202,29.6 C201.6,30.1 201.1,30.5 200.6,30.8 C200.1,31.1 199.4,31.2 198.6,31.2 C197.4,31.2 196.5,30.8 196.1,30.1 C195.6,29.3 195.4,28.1 195.4,26.4 L195.4,13.5 L201.4,13.5 C202,13.5 202.5,13.4 202.7,13.1 C202.9,12.9 203.1,12.5 203.1,12 L203.1,11.7 C203.1,11.2 203,10.9 202.7,10.6 C202.4,10.3 202,10.2 201.4,10.2 L195.4,10.2 L195.4,6.4 C195.4,5.8 195.3,5.3 195,5.1 C194.7,4.9 194.3,4.7 193.9,4.7 L193.6,4.7 C193.1,4.7 192.8,4.8 192.5,5.1 C192.2,5.4 192,5.8 192,6.4 L192,10.2 L190.1,10.2 C189.5,10.2 189,10.3 188.8,10.6 C188.6,10.8 188.4,11.2 188.4,11.7 L188.4,12 C188.4,12.5 188.5,12.8 188.8,13.1 C189,13.4 189.5,13.5 190.1,13.5 L192,13.5 L192,26.8 C192,29.3 192.5,31.1 193.6,32.4 C194.7,33.7 196.4,34.3 198.7,34.3 C200.3,34.3 201.5,34 202.4,33.3 C203.3,32.6 203.7,31.9 203.7,31.2 C203.3,30.6 203.2,30.1 202.8,29.8 Z" id="Path"></path>
                        <path d="M217.9,10.4 C217.3,10 216.4,9.7 215.3,9.7 C212.5,9.7 210.5,11 209.4,13.7 L209.4,13.4 C209.4,12.1 209.2,11.2 208.7,10.8 C208.3,10.4 207.7,10.2 207.1,10.2 C206.8,10.2 206.5,10.2 206.3,10.3 C206.1,10.4 205.9,10.5 205.9,10.7 L205.9,32.3 C205.9,32.9 206.1,33.4 206.4,33.6 C206.7,33.8 207.1,34 207.5,34 L207.8,34 C208.3,34 208.6,33.9 208.9,33.6 C209.2,33.4 209.4,32.9 209.4,32.3 L209.4,23.2 C209.4,21.7 209.5,20.4 209.7,19.1 C209.9,17.9 210.2,16.8 210.7,15.9 C211.1,15 211.7,14.3 212.4,13.8 C213.1,13.3 213.9,13.1 214.9,13.1 C215.5,13.1 216,13.2 216.4,13.4 C216.8,13.6 217.2,13.8 217.5,14.1 C217.5,14.2 217.6,14.2 217.7,14.2 C217.8,14.2 218,14.1 218.3,13.8 C218.6,13.5 218.7,13 218.7,12.4 C218.8,11.5 218.5,10.8 217.9,10.4 Z" id="Path"></path>
                        <path d="M241.1,16.7 C240.6,15.2 239.8,14 238.9,13 C237.9,12 236.8,11.2 235.4,10.6 C234.1,10 232.5,9.8 230.9,9.8 C229.2,9.8 227.6,10.1 226.2,10.7 C224.8,11.3 223.5,12.2 222.5,13.3 C221.5,14.4 220.6,15.7 220,17.2 C219.4,18.7 219.1,20.4 219.1,22.1 C219.1,23.9 219.4,25.6 220,27 C220.6,28.5 221.4,29.8 222.5,30.9 C223.6,32 224.9,32.8 226.3,33.4 C227.8,34 229.4,34.3 231.2,34.3 C232.8,34.3 234.2,34.1 235.4,33.7 C236.6,33.3 237.7,32.8 238.5,32.3 C239.3,31.8 240,31.2 240.4,30.6 C240.9,30 241.1,29.4 241.1,29 C241.1,28.6 241,28.2 240.8,27.9 C240.6,27.6 240.4,27.4 240.1,27.3 C239.9,27.1 239.6,27 239.4,27 C239.3,27 239.2,27 239.1,27 C239,27 238.9,27 238.9,27.1 L238.9,27.1 C238.6,27.6 238.2,28.2 237.8,28.6 C237.4,29.1 236.8,29.5 236.2,29.9 C235.6,30.3 234.9,30.6 234.1,30.8 C233.3,31 232.3,31.1 231.2,31.1 C230,31.1 228.9,30.9 227.9,30.5 C226.9,30.1 226,29.5 225.3,28.8 C224.5,28.1 223.9,27.2 223.5,26.2 C223.1,25.3 222.8,24.2 222.7,23.1 L240.4,23.1 C240.9,23.1 241.3,23 241.5,22.9 C241.8,22.7 241.9,22.4 241.9,21.9 L241.9,21.6 C241.9,19.8 241.6,18.1 241.1,16.7 Z M230.9,12.9 C233,12.9 234.7,13.6 236,14.9 C237.2,16.2 237.9,17.9 238.1,20 L222.8,20 C223,19 223.3,18.1 223.7,17.3 C224.2,16.4 224.8,15.6 225.5,15 C226.2,14.4 227,13.8 227.9,13.5 C228.8,13 229.8,12.9 230.9,12.9 Z" id="Shape"></path>
                        <path d="M261.5,12.1 C259.8,10.5 257.5,9.7 254.5,9.7 C253,9.7 251.6,9.9 250.4,10.3 C249.2,10.7 248.2,11.2 247.4,11.8 C246.6,12.4 246,13 245.6,13.6 C245.2,14.2 245,14.8 245,15.2 C245,15.7 245.1,16 245.3,16.3 C245.5,16.6 245.7,16.8 246,16.9 C246.2,17 246.5,17.1 247,17.2 L247.1,17.2 L247.2,17.1 C247.8,15.9 248.7,14.9 249.9,14.1 C251.1,13.3 252.6,12.9 254.4,12.9 C256.4,12.9 258,13.4 259.1,14.4 C260.2,15.4 260.7,16.9 260.7,18.8 L260.7,19.4 L260.4,19.4 C255,19.5 251,20.2 248.3,21.4 C245.6,22.6 244.2,24.7 244.2,27.4 C244.2,29.4 244.9,31 246.4,32.2 C247.8,33.4 249.8,34 252.4,34 C254.3,34 256,33.6 257.5,32.9 C258.8,32.2 260,31.3 260.8,30.2 L260.8,30.5 C260.8,31.8 261,32.7 261.4,33.1 C261.8,33.5 262.3,33.7 262.9,33.7 C263.2,33.7 263.5,33.7 263.7,33.6 C263.9,33.5 264.1,33.4 264.1,33.2 L264.1,18.9 C264,16 263.1,13.7 261.5,12.1 Z M252.4,31.2 C250.9,31.2 249.7,30.9 248.8,30.2 C248,29.5 247.5,28.7 247.5,27.6 C247.5,25.8 248.4,24.6 250.4,23.9 C252.4,23.1 255.4,22.7 259.3,22.5 L260.4,22.5 L260.4,24.4 C260.4,25.4 260.2,26.3 259.8,27.1 C259.4,27.9 258.8,28.7 258.1,29.3 C257.4,29.9 256.5,30.4 255.5,30.7 C254.7,31.1 253.6,31.2 252.4,31.2 Z" id="Shape"></path>
                        <path d="M302.1,12.2 C300.6,10.5 298.3,9.7 295.3,9.7 C293.3,9.7 291.6,10.2 290.2,11.2 C288.9,12.1 287.9,13.2 287.1,14.4 C286.4,12.9 285.5,11.8 284.2,11 C282.9,10.2 281.2,9.7 279.4,9.7 C277.8,9.7 276.4,10.1 275.1,10.8 C274,11.4 273.1,12.3 272.3,13.3 C272.3,12 272.1,11.1 271.6,10.7 C271.2,10.3 270.6,10.1 270,10.1 C269.7,10.1 269.4,10.1 269.2,10.2 C269,10.3 268.8,10.4 268.8,10.6 L268.8,32.2 C268.8,32.8 269,33.3 269.3,33.5 C269.6,33.7 270,33.9 270.4,33.9 L270.7,33.9 C271.2,33.9 271.5,33.8 271.8,33.5 C272.1,33.3 272.3,32.8 272.3,32.2 L272.3,17.5 C273,16.2 273.9,15.1 275.1,14.3 C276.3,13.5 277.6,13.1 279,13.1 C282.9,13.1 284.8,15.4 284.8,20.1 L284.8,32.3 C284.8,32.9 284.9,33.4 285.3,33.6 C285.6,33.8 286,34 286.4,34 L286.7,34 C287.2,34 287.5,33.9 287.8,33.6 C288.1,33.4 288.3,32.9 288.3,32.3 L288.3,17.5 C289,16.2 289.9,15.1 291.1,14.3 C292.3,13.5 293.6,13.1 295,13.1 C298.9,13.1 300.8,15.3 300.8,19.9 L300.8,32.3 C300.8,32.9 300.9,33.4 301.3,33.6 C301.6,33.8 302,34 302.4,34 L302.7,34 C303.2,34 303.5,33.9 303.8,33.6 C304.1,33.4 304.3,32.9 304.3,32.3 L304.3,19.6 C304.4,16.4 303.6,13.9 302.1,12.2 Z" id="Path"></path>
                    </g>
                </g>
            </g>
            <g id="Mark_58_" transform="translate(110.000000, 0.000000)">
                <path d="M71.1046875,32.04 C69.059375,30 66.7734375,28.68 65.93125,28.2 C65.690625,28.08 65.5703125,28.2 65.45,28.2 L22.1375,71.64 C21.5359375,72.24 21.415625,73.44 22.2578125,74.28 C22.378125,74.52 35.6125,87.72 35.6125,87.72 C36.9359375,89.04 38.98125,89.28 40.5453125,88.8 C41.2671875,88.56 41.9890625,88.2 42.590625,87.6 L70.984375,59.16 C78.3234375,51.84 78.684375,39.6 71.1046875,32.04 Z" id="Path"></path>
                <path d="M63.4046875,27 C58.7125,25.2 51.253125,24.6 44.996875,30.84 C44.034375,31.8 13.1140625,62.76 13.1140625,62.76 C12.753125,63.12 12.99375,63.24 13.234375,63.24 C13.715625,63.48 14.3171875,63.6 14.91875,63.84 C20.69375,65.52 26.709375,64.44 33.20625,57.84 C41.9890625,49.32 63.525,27.6 63.525,27.6 C63.8859375,27.24 63.6453125,27.12 63.4046875,27 Z" id="Path"></path>
                <path d="M53.41875,15 C49.4484375,11.04 44.6359375,6.24 40.665625,2.4 C39.1015625,0.84 35.9734375,0.48 33.6875,3 C29.596875,7.08 11.1890625,25.56 7.0984375,29.76 C-3.7296875,40.56 -1.5640625,55.56 10.828125,62.16 C10.9484375,62.28 11.1890625,62.16 11.1890625,62.04 C24.9046875,48.24 38.5,34.56 52.215625,20.88 C54.2609375,18.84 55.9453125,17.52 53.41875,15 Z" id="Path"></path>
            </g>
        </g>
    </g>
</svg>