<?xml version="1.0" encoding="utf-8"?>
<!-- Generator: Adobe Illustrator 23.0.2, SVG Export Plug-In . SVG Version: 6.00 Build 0)  -->
<svg version="1.1" xmlns="http://www.w3.org/2000/svg" xmlns:xlink="http://www.w3.org/1999/xlink" x="0px" y="0px"
	 viewBox="0 0 392.7 79.1" style="enable-background:new 0 0 392.7 79.1;" xml:space="preserve">
<style type="text/css">
	.st0{fill:#939393;}
</style>
<g id="logo_stacked_on_dark_1_">
</g>
<g id="logo_inline_on_light">
</g>
<g id="logo_inline_on_dark_1_">
</g>
<g id="Colors">
</g>
<g id="small_logo">
</g>
<g id="logo_inline_white">
	<g id="logo_60_">
		<g id="SolutionStream_31_">
			<g>
				<g>
					<path class="st0" d="M389.5,31.3c-0.3-0.6-0.8-1.1-1.4-1.4c-0.6-0.3-1.2-0.5-1.9-0.5c-0.6,0-1.3,0.2-1.9,0.5
						c-0.6,0.3-1.1,0.8-1.4,1.4c-0.3,0.6-0.5,1.3-0.5,1.9c0,0.7,0.2,1.3,0.5,1.9c0.3,0.6,0.8,1.1,1.4,1.4c0.6,0.3,1.2,0.5,1.9,0.5
						c0.7,0,1.3-0.2,1.9-0.5c0.6-0.3,1.1-0.8,1.4-1.4c0.3-0.6,0.5-1.2,0.5-1.9C390,32.5,389.9,31.9,389.5,31.3z M389,34.8
						c-0.3,0.5-0.7,0.9-1.2,1.2c-0.5,0.3-1,0.4-1.6,0.4c-0.6,0-1.1-0.1-1.6-0.4c-0.5-0.3-0.9-0.7-1.2-1.2c-0.3-0.5-0.4-1-0.4-1.6
						s0.1-1.1,0.4-1.6c0.3-0.5,0.7-0.9,1.2-1.2c0.5-0.3,1-0.4,1.6-0.4c0.5,0,1.1,0.1,1.6,0.4c0.5,0.3,0.9,0.7,1.2,1.2
						c0.3,0.5,0.4,1.1,0.4,1.6S389.3,34.3,389,34.8z"/>
					<path class="st0" d="M387,33.6c-0.1-0.1-0.2-0.2-0.3-0.2c0.4,0,0.6-0.2,0.9-0.4c0.2-0.2,0.3-0.5,0.3-0.8c0-0.2-0.1-0.4-0.2-0.6
						c-0.1-0.2-0.3-0.3-0.5-0.4c-0.2-0.1-0.6-0.1-1.1-0.1h-1.3c0,0-0.1,0-0.1,0.1v4c0,0,0,0.1,0.3,0.1c0.3,0,0.3-0.1,0.3-0.1v-1.7v0
						c0,0,0-0.1,0.1-0.1h0.3c0.2,0,0.4,0,0.5,0.1c0.2,0.1,0.4,0.4,0.7,1l0.4,0.7c0,0,0.1,0.1,0.4,0.1s0.4-0.1,0.4-0.1l-0.5-0.8
						C387.4,34,387.2,33.7,387,33.6z M386.1,32.8h-0.7v0c-0.1,0-0.1-0.1-0.1-0.1v-1.1c0,0,0-0.1,0.1-0.1h0.7c0.3,0,0.5,0,0.7,0.1
						c0.1,0,0.2,0.1,0.3,0.2c0.1,0.1,0.1,0.2,0.1,0.3c0,0.2-0.1,0.3-0.2,0.5C386.8,32.8,386.5,32.8,386.1,32.8z"/>
				</g>
				<g>
					<path class="st0" d="M98.4,46.3c-0.6-1.1-1.4-2-2.4-2.7c-1-0.7-2.1-1.2-3.3-1.7c-1.2-0.4-2.5-0.8-3.7-1.1
						c-1.2-0.3-2.3-0.6-3.3-0.8c-1-0.3-1.8-0.6-2.5-1c-0.7-0.4-1.2-0.9-1.6-1.5c-0.4-0.6-0.6-1.4-0.6-2.4c0-1.6,0.7-3,2-4
						c1.3-1,3.1-1.5,5.2-1.5c1.9,0,3.6,0.4,5,1.3c1.4,0.8,2.5,1.9,3.2,3.2l0,0c0.1,0.1,0.2,0.1,0.5,0c0.2-0.1,0.4-0.2,0.7-0.4
						c0.3-0.2,0.5-0.4,0.7-0.7c0.2-0.3,0.3-0.6,0.3-1c0-0.6-0.3-1.2-0.7-1.8c-0.5-0.6-1.2-1.3-2.1-1.8c-0.9-0.6-2-1-3.3-1.4
						c-1.3-0.4-2.8-0.6-4.4-0.6c-1.5,0-2.9,0.2-4.2,0.7c-1.3,0.4-2.5,1.1-3.4,1.8c-1,0.8-1.7,1.7-2.3,2.8c-0.5,1.1-0.8,2.3-0.8,3.5
						c0,1.6,0.3,2.9,0.9,3.9c0.6,1,1.3,1.9,2.3,2.6c0.9,0.7,2,1.2,3.1,1.6c1.1,0.4,2.3,0.7,3.5,1c1.1,0.3,2.2,0.5,3.2,0.8
						c1,0.3,1.9,0.7,2.7,1.1c0.8,0.5,1.4,1,1.8,1.7c0.4,0.6,0.7,1.5,0.7,2.5c0,1.8-0.7,3.2-2,4.1c-1.3,1-3.2,1.5-5.5,1.5
						c-2.3,0-4.2-0.5-5.8-1.5c-1.5-1-2.7-2.2-3.6-3.7l0,0c-0.1-0.1-0.2-0.1-0.5,0c-0.2,0.1-0.4,0.2-0.7,0.4
						c-0.3,0.2-0.5,0.4-0.7,0.7c-0.2,0.3-0.3,0.6-0.3,1c0,0.6,0.3,1.3,0.9,2.1c0.6,0.7,1.4,1.4,2.4,2.1c1,0.6,2.2,1.2,3.7,1.6
						c1.4,0.4,3,0.6,4.8,0.6c1.7,0,3.2-0.2,4.5-0.6c1.4-0.4,2.5-1,3.5-1.8c1-0.8,1.7-1.7,2.3-2.9c0.5-1.1,0.8-2.3,0.8-3.7
						C99.3,48.7,99,47.4,98.4,46.3z"/>
					<path class="st0" d="M125.3,42.1c-1.7-4.3-5.8-7.2-10.4-7.4c-4.6-0.2-9,1.9-11.3,6c-2.2,4-2.1,9.3,0.4,13.2
						c2.5,4,7.2,5.8,11.7,5.3c3.8-0.4,7.1-2.6,8.9-5.9C126.5,49.9,126.7,45.7,125.3,42.1C124.7,40.6,125.9,43.6,125.3,42.1z
						 M114.1,56.1c-2.3,0-4.5-0.9-6.1-2.6c-1.5-1.7-2.3-3.9-2.4-6.2c-0.1-2.3,0.5-4.6,1.9-6.4c1.4-1.8,3.5-2.9,5.7-3.1
						c2.3-0.2,4.6,0.4,6.4,2c1.7,1.5,2.7,3.6,2.9,5.9c0.3,2.3-0.2,4.7-1.4,6.6c-1.2,1.9-3.1,3.2-5.3,3.6
						C115.2,56.1,114.7,56.1,114.1,56.1C112.9,56.1,115.3,56.1,114.1,56.1z"/>
					<path class="st0" d="M210,42.1c-1.7-4.3-5.8-7.2-10.4-7.4c-4.6-0.2-9,1.9-11.3,6c-2.2,4-2.1,9.3,0.4,13.2
						c2.5,4,7.2,5.8,11.7,5.3c3.8-0.4,7.1-2.6,8.9-5.9C211.2,49.9,211.4,45.7,210,42.1C209.4,40.6,210.6,43.6,210,42.1z M198.9,56.1
						c-2.3,0-4.5-0.9-6.1-2.6c-1.5-1.7-2.3-3.9-2.4-6.2c-0.1-2.3,0.5-4.6,1.9-6.4c1.4-1.8,3.5-2.9,5.7-3.1c2.3-0.2,4.6,0.4,6.4,2
						c1.7,1.5,2.7,3.6,2.9,5.9c0.3,2.3-0.2,4.7-1.4,6.6c-1.2,1.9-3.1,3.2-5.3,3.6C200,56.1,199.4,56.1,198.9,56.1
						C197.6,56.1,200.1,56.1,198.9,56.1z"/>
					<path class="st0" d="M132.8,26c-0.4-0.3-0.8-0.6-1.3-0.6c-0.4,0-1.2,0-1.5,0.3c-0.1,0.1-0.1,0.2-0.1,0.3c0,0.4,0,0.8,0,1.2
						c0,1.7,0,26.7,0,29.9c0,0.2,0,0.5,0.1,0.7c0.2,0.9,1,1.1,1.9,1.1c1.1,0,1.6-0.7,1.6-1.7c0-0.1,0-0.1,0-0.2c0-1.2,0-25,0-28.4
						C133.5,27.8,133.5,26.6,132.8,26C132.4,25.6,133.3,26.4,132.8,26z"/>
					<path class="st0" d="M158.5,35.4c-0.3-0.2-0.7-0.4-1.1-0.4h-0.3c-0.5,0-0.8,0.1-1.1,0.4c-0.3,0.3-0.5,0.7-0.5,1.3v14.4
						c-0.7,1.4-1.6,2.5-2.8,3.4c-1.2,0.9-2.7,1.3-4.3,1.3c-2,0-3.5-0.6-4.6-1.9c-1.1-1.3-1.6-3.1-1.6-5.3v-12c0-0.6-0.2-1.1-0.5-1.3
						c-0.3-0.2-0.7-0.4-1.1-0.4h-0.3c-0.5,0-0.8,0.1-1.1,0.4c-0.3,0.3-0.5,0.7-0.5,1.3v12.2c0,1.5,0.2,3,0.6,4.2
						c0.4,1.3,1,2.4,1.8,3.3c0.8,0.9,1.8,1.6,2.9,2.1c1.2,0.5,2.5,0.7,4.1,0.7c1.8,0,3.4-0.4,4.8-1.2c1.1-0.7,2.1-1.5,2.9-2.5v0.1
						c0,1.3,0.2,2.2,0.7,2.6c0.4,0.4,1,0.6,1.6,0.6c0.3,0,0.6,0,0.8-0.1c0.2-0.1,0.4-0.2,0.4-0.4V36.8
						C159,36.1,158.9,35.7,158.5,35.4z"/>
					<path class="st0" d="M176.3,54.8c-0.4-0.3-0.5-0.3-0.6-0.3c-0.1,0-0.2,0-0.2,0.1c-0.4,0.5-0.9,0.9-1.4,1.2
						c-0.5,0.3-1.2,0.4-2,0.4c-1.2,0-2.1-0.4-2.5-1.1c-0.5-0.8-0.7-2-0.7-3.7V38.5h6c0.6,0,1.1-0.1,1.3-0.4c0.2-0.2,0.4-0.6,0.4-1.1
						v-0.3c0-0.5-0.1-0.8-0.4-1.1c-0.3-0.3-0.7-0.4-1.3-0.4h-6v-3.8c0-0.6-0.1-1.1-0.4-1.3c-0.3-0.2-0.7-0.4-1.1-0.4h-0.3
						c-0.5,0-0.8,0.1-1.1,0.4c-0.3,0.3-0.5,0.7-0.5,1.3v3.8h-1.9c-0.6,0-1.1,0.1-1.3,0.4c-0.2,0.2-0.4,0.6-0.4,1.1V37
						c0,0.5,0.1,0.8,0.4,1.1c0.3,0.3,0.7,0.4,1.3,0.4h1.9v13.3c0,2.5,0.5,4.3,1.6,5.6c1.1,1.3,2.8,1.9,5.1,1.9c1.6,0,2.8-0.3,3.7-1
						c0.9-0.7,1.3-1.4,1.3-2.1C176.9,55.6,176.7,55.1,176.3,54.8z"/>
					<g>
						<path class="st0" d="M181.3,29.9c1.5,0,2.3-0.8,2.3-2.3c0-1.5-0.8-2.3-2.2-2.3c-1.5,0-2.3,0.8-2.3,2.3
							C179,29.1,179.8,29.9,181.3,29.9z"/>
						<path class="st0" d="M182.6,35.4c-0.3-0.2-0.7-0.4-1.1-0.4h-0.3c-0.5,0-0.8,0.1-1.1,0.4c-0.3,0.3-0.5,0.7-0.5,1.3v20.4
							c0,0.6,0.2,1.1,0.5,1.3c0.3,0.2,0.7,0.4,1.1,0.4h0.3c0.5,0,0.8-0.1,1.1-0.4c0.3-0.2,0.5-0.7,0.5-1.3V36.8
							C183.1,36.1,182.9,35.7,182.6,35.4z"/>
					</g>
					<path class="st0" d="M234.5,40.8c-0.4-1.3-1-2.4-1.8-3.3c-0.8-0.9-1.8-1.6-2.9-2.1c-1.2-0.5-2.5-0.7-4.1-0.7
						c-1.8,0-3.4,0.4-4.8,1.2c-1.1,0.7-2.1,1.5-2.9,2.5v-0.1c0-1.3-0.2-2.2-0.7-2.6c-0.4-0.4-1-0.6-1.6-0.6c-0.3,0-0.6,0-0.8,0.1
						c-0.2,0.1-0.4,0.2-0.4,0.4v21.6c0,0.6,0.2,1.1,0.5,1.3c0.3,0.2,0.7,0.4,1.1,0.4h0.3c0.5,0,0.8-0.1,1.1-0.4
						c0.3-0.2,0.5-0.7,0.5-1.3V42.8c0.7-1.4,1.6-2.5,2.9-3.4c1.3-0.9,2.8-1.3,4.5-1.3c1.9,0,3.4,0.6,4.4,1.9c1,1.3,1.6,3.1,1.6,5.3
						v12c0,0.6,0.2,1.1,0.5,1.3c0.3,0.2,0.7,0.4,1.1,0.4h0.3c0.5,0,0.8-0.1,1.1-0.4c0.3-0.2,0.5-0.7,0.5-1.3V45.1
						C235.1,43.5,234.9,42.1,234.5,40.8z"/>
					<path class="st0" d="M262.3,46.3c-0.6-1.1-1.4-2-2.4-2.7c-1-0.7-2.1-1.2-3.3-1.7c-1.2-0.4-2.5-0.8-3.7-1.1
						c-1.2-0.3-2.3-0.6-3.3-0.8c-1-0.3-1.8-0.6-2.5-1c-0.7-0.4-1.2-0.9-1.6-1.5c-0.4-0.6-0.6-1.4-0.6-2.4c0-1.6,0.7-3,2-4
						c1.3-1,3.1-1.5,5.2-1.5c1.9,0,3.6,0.4,5,1.3c1.4,0.8,2.5,1.9,3.2,3.2l0,0c0.1,0.1,0.2,0.1,0.5,0c0.2-0.1,0.4-0.2,0.7-0.4
						c0.3-0.2,0.5-0.4,0.7-0.7c0.2-0.3,0.3-0.6,0.3-1c0-0.6-0.2-1.2-0.7-1.8c-0.5-0.6-1.2-1.3-2.1-1.8c-0.9-0.6-2-1-3.3-1.4
						c-1.3-0.4-2.8-0.6-4.4-0.6c-1.5,0-2.9,0.2-4.2,0.7c-1.3,0.4-2.5,1.1-3.4,1.8c-1,0.8-1.7,1.7-2.3,2.8c-0.5,1.1-0.8,2.3-0.8,3.5
						c0,1.6,0.3,2.9,0.9,3.9c0.6,1,1.3,1.9,2.3,2.6c0.9,0.7,2,1.2,3.1,1.6c1.1,0.4,2.3,0.7,3.5,1c1.1,0.3,2.2,0.5,3.2,0.8
						c1,0.3,1.9,0.7,2.7,1.1c0.8,0.5,1.4,1,1.8,1.7c0.4,0.6,0.7,1.5,0.7,2.5c0,1.8-0.7,3.2-2,4.1c-1.3,1-3.2,1.5-5.5,1.5
						c-2.3,0-4.2-0.5-5.7-1.5c-1.6-1-2.7-2.2-3.6-3.7l0,0c-0.1-0.1-0.2-0.1-0.5,0c-0.2,0.1-0.4,0.2-0.7,0.4
						c-0.3,0.2-0.5,0.4-0.7,0.7c-0.2,0.3-0.3,0.6-0.3,1c0,0.6,0.3,1.3,0.9,2.1c0.6,0.7,1.4,1.4,2.4,2.1c1,0.6,2.2,1.2,3.7,1.6
						c1.4,0.4,3,0.6,4.8,0.6c1.7,0,3.2-0.2,4.5-0.6c1.4-0.4,2.5-1,3.5-1.8c1-0.8,1.7-1.7,2.3-2.9c0.5-1.1,0.8-2.3,0.8-3.7
						C263.2,48.7,262.9,47.4,262.3,46.3z"/>
					<path class="st0" d="M278.8,54.8c-0.4-0.3-0.5-0.3-0.6-0.3c-0.1,0-0.2,0-0.2,0.1c-0.4,0.5-0.9,0.9-1.4,1.2
						c-0.5,0.3-1.2,0.4-2,0.4c-1.2,0-2.1-0.4-2.5-1.1c-0.5-0.8-0.7-2-0.7-3.7V38.5h6c0.6,0,1.1-0.1,1.3-0.4c0.2-0.2,0.4-0.6,0.4-1.1
						v-0.3c0-0.5-0.1-0.8-0.4-1.1c-0.3-0.3-0.7-0.4-1.3-0.4h-6v-3.8c0-0.6-0.1-1.1-0.4-1.3c-0.3-0.2-0.7-0.4-1.1-0.4h-0.3
						c-0.5,0-0.8,0.1-1.1,0.4c-0.3,0.3-0.5,0.7-0.5,1.3v3.8h-1.9c-0.6,0-1.1,0.1-1.3,0.4c-0.2,0.2-0.4,0.6-0.4,1.1V37
						c0,0.5,0.1,0.8,0.4,1.1c0.2,0.3,0.7,0.4,1.3,0.4h1.9v13.3c0,2.5,0.5,4.3,1.6,5.6c1.1,1.3,2.8,1.9,5.1,1.9c1.6,0,2.8-0.3,3.7-1
						c0.9-0.7,1.3-1.4,1.3-2.1C279.3,55.6,279.2,55.1,278.8,54.8z"/>
					<path class="st0" d="M293.9,35.4c-0.6-0.4-1.5-0.7-2.6-0.7c-2.8,0-4.8,1.3-5.9,4v-0.3c0-1.3-0.2-2.2-0.7-2.6
						c-0.4-0.4-1-0.6-1.6-0.6c-0.3,0-0.6,0-0.8,0.1c-0.2,0.1-0.4,0.2-0.4,0.4v21.6c0,0.6,0.2,1.1,0.5,1.3c0.3,0.2,0.7,0.4,1.1,0.4
						h0.3c0.5,0,0.8-0.1,1.1-0.4c0.3-0.2,0.5-0.7,0.5-1.3v-9.1c0-1.5,0.1-2.8,0.3-4.1c0.2-1.2,0.5-2.3,1-3.2c0.4-0.9,1-1.6,1.7-2.1
						c0.7-0.5,1.5-0.7,2.5-0.7c0.6,0,1.1,0.1,1.5,0.3c0.4,0.2,0.8,0.4,1.1,0.7c0,0.1,0.1,0.1,0.2,0.1c0.1,0,0.3-0.1,0.6-0.4
						c0.3-0.3,0.4-0.8,0.4-1.4C294.8,36.5,294.5,35.8,293.9,35.4z"/>
					<path class="st0" d="M317.1,41.7c-0.5-1.5-1.3-2.7-2.2-3.7c-1-1-2.1-1.8-3.5-2.4c-1.3-0.6-2.9-0.8-4.5-0.8
						c-1.7,0-3.3,0.3-4.7,0.9c-1.4,0.6-2.7,1.5-3.7,2.6c-1,1.1-1.9,2.4-2.5,3.9c-0.6,1.5-0.9,3.2-0.9,4.9c0,1.8,0.3,3.5,0.9,4.9
						c0.6,1.5,1.4,2.8,2.5,3.9c1.1,1.1,2.4,1.9,3.8,2.5c1.5,0.6,3.1,0.9,4.9,0.9c1.6,0,3-0.2,4.2-0.6c1.2-0.4,2.3-0.9,3.1-1.4
						c0.8-0.5,1.5-1.1,1.9-1.7c0.5-0.6,0.7-1.2,0.7-1.6c0-0.4-0.1-0.8-0.3-1.1c-0.2-0.3-0.4-0.5-0.7-0.6c-0.2-0.2-0.5-0.3-0.7-0.3
						c-0.1,0-0.2,0-0.3,0c-0.1,0-0.2,0-0.2,0.1l0,0c-0.3,0.5-0.7,1.1-1.1,1.5c-0.4,0.5-1,0.9-1.6,1.3c-0.6,0.4-1.3,0.7-2.1,0.9
						c-0.8,0.2-1.8,0.3-2.9,0.3c-1.2,0-2.3-0.2-3.3-0.6c-1-0.4-1.9-1-2.6-1.7c-0.8-0.7-1.4-1.6-1.8-2.6c-0.4-0.9-0.7-2-0.8-3.1h17.7
						c0.5,0,0.9-0.1,1.1-0.2c0.3-0.2,0.4-0.5,0.4-1v-0.3C317.9,44.8,317.6,43.1,317.1,41.7z M306.9,37.9c2.1,0,3.8,0.7,5.1,2
						c1.2,1.3,1.9,3,2.1,5.1h-15.3c0.2-1,0.5-1.9,0.9-2.7c0.5-0.9,1.1-1.7,1.8-2.3c0.7-0.6,1.5-1.2,2.4-1.5
						C304.8,38,305.8,37.9,306.9,37.9z"/>
					<path class="st0" d="M337.5,37.1c-1.7-1.6-4-2.4-7-2.4c-1.5,0-2.9,0.2-4.1,0.6c-1.2,0.4-2.2,0.9-3,1.5
						c-0.8,0.6-1.4,1.2-1.8,1.8c-0.4,0.6-0.6,1.2-0.6,1.6c0,0.5,0.1,0.8,0.3,1.1c0.2,0.3,0.4,0.5,0.7,0.6c0.2,0.1,0.5,0.2,1,0.3
						l0.1,0l0.1-0.1c0.6-1.2,1.5-2.2,2.7-3c1.2-0.8,2.7-1.2,4.5-1.2c2,0,3.6,0.5,4.7,1.5c1.1,1,1.6,2.5,1.6,4.4v0.6h-0.3
						c-5.4,0.1-9.4,0.8-12.1,2c-2.7,1.2-4.1,3.3-4.1,6c0,2,0.7,3.6,2.2,4.8c1.4,1.2,3.4,1.8,6,1.8c1.9,0,3.6-0.4,5.1-1.1
						c1.3-0.7,2.5-1.6,3.3-2.7v0.3c0,1.3,0.2,2.2,0.6,2.6c0.4,0.4,0.9,0.6,1.5,0.6c0.3,0,0.6,0,0.8-0.1c0.2-0.1,0.4-0.2,0.4-0.4
						V43.9C340,41,339.1,38.7,337.5,37.1z M328.4,56.2c-1.5,0-2.7-0.3-3.6-1c-0.8-0.7-1.3-1.5-1.3-2.6c0-1.8,0.9-3,2.9-3.7
						c2-0.8,5-1.2,8.9-1.4l1.1,0v1.9c0,1-0.2,1.9-0.6,2.7c-0.4,0.8-1,1.6-1.7,2.2c-0.7,0.6-1.6,1.1-2.6,1.4
						C330.7,56.1,329.6,56.2,328.4,56.2z"/>
					<path class="st0" d="M378.1,37.2c-1.5-1.7-3.8-2.5-6.8-2.5c-2,0-3.7,0.5-5.1,1.5c-1.3,0.9-2.3,2-3.1,3.2
						c-0.7-1.5-1.6-2.6-2.9-3.4c-1.3-0.8-3-1.3-4.8-1.3c-1.6,0-3,0.4-4.3,1.1c-1.1,0.6-2,1.5-2.8,2.5c0-1.3-0.2-2.2-0.7-2.6
						c-0.4-0.4-1-0.6-1.6-0.6c-0.3,0-0.6,0-0.8,0.1c-0.2,0.1-0.4,0.2-0.4,0.4v21.6c0,0.6,0.2,1.1,0.5,1.3c0.3,0.2,0.7,0.4,1.1,0.4
						h0.3c0.5,0,0.8-0.1,1.1-0.4c0.3-0.2,0.5-0.7,0.5-1.3V42.5c0.7-1.3,1.6-2.4,2.8-3.2c1.2-0.8,2.5-1.2,3.9-1.2
						c3.9,0,5.8,2.3,5.8,7v12.2c0,0.6,0.1,1.1,0.5,1.3c0.3,0.2,0.7,0.4,1.1,0.4h0.3c0.5,0,0.8-0.1,1.1-0.4c0.3-0.2,0.5-0.7,0.5-1.3
						V42.5c0.7-1.3,1.6-2.4,2.8-3.2c1.2-0.8,2.5-1.2,3.9-1.2c3.9,0,5.8,2.2,5.8,6.8v12.4c0,0.6,0.1,1.1,0.5,1.3
						c0.3,0.2,0.7,0.4,1.1,0.4h0.3c0.5,0,0.8-0.1,1.1-0.4c0.3-0.2,0.5-0.7,0.5-1.3V44.6C380.4,41.4,379.6,38.9,378.1,37.2z"/>
				</g>
			</g>
		</g>
		<g id="Mark_58_">
			<path class="st0" d="M61.1,29.7c-1.7-1.7-3.6-2.8-4.3-3.2c-0.2-0.1-0.3,0-0.4,0l-36,36.2c-0.5,0.5-0.6,1.5,0.1,2.2
				c0.1,0.2,11.1,11.2,11.1,11.2c1.1,1.1,2.8,1.3,4.1,0.9c0.6-0.2,1.2-0.5,1.7-1L61,52.3C67.1,46.2,67.4,36,61.1,29.7z"/>
			<g>
				<path class="st0" d="M54.7,25.5c-3.9-1.5-10.1-2-15.3,3.2c-0.8,0.8-26.5,26.6-26.5,26.6c-0.3,0.3-0.1,0.4,0.1,0.4
					c0.4,0.2,0.9,0.3,1.4,0.5c4.8,1.4,9.8,0.5,15.2-5C36.9,44.1,54.8,26,54.8,26C55.1,25.7,54.9,25.6,54.7,25.5z"/>
			</g>
			<g>
				<path class="st0" d="M46.4,15.5C43.1,12.2,39.1,8.2,35.8,5c-1.3-1.3-3.9-1.6-5.8,0.5C26.6,8.9,11.3,24.3,7.9,27.8
					c-9,9-7.2,21.5,3.1,27c0.1,0.1,0.3,0,0.3-0.1C22.7,43.2,34,31.8,45.4,20.4C47.1,18.7,48.5,17.6,46.4,15.5z"/>
			</g>
		</g>
	</g>
</g>
</svg>
