<?xml version="1.0" encoding="UTF-8"?>
<svg width="102px" height="82px" viewBox="0 0 102 82" version="1.1" xmlns="http://www.w3.org/2000/svg" xmlns:xlink="http://www.w3.org/1999/xlink">
    <!-- Generator: Sketch 48.2 (47327) - http://www.bohemiancoding.com/sketch -->
    <title>underbelly</title>
    <desc>Created with Sketch.</desc>
    <defs></defs>
    <g id="Page-1" stroke="none" stroke-width="1" fill="none" fill-rule="evenodd">
        <g id="underbelly" fill="#939393" fill-rule="nonzero">
            <path d="M82.4105943,19.0529419 C81.9456058,17.673901 81.9053229,15.9086988 81.438467,14.9381982 C80.7960733,13.5967042 80.2273095,12.7803697 79.9295888,12.8693882 C79.6201301,12.9591527 79.9013107,14.050997 80.2390476,15.5971341 C80.45887,16.6059276 80.5733164,17.7867904 81.0116273,19.0815373 C81.5289036,20.6067873 82.324426,21.8408623 82.8579756,22.9394203 C83.4686231,24.201842 83.8079606,25.2265495 84.1526336,25.2255548 C84.4474197,25.2255548 84.2206612,23.7845988 83.9608225,22.4654838 C83.748203,21.3845803 82.9099967,20.528461 82.4105943,19.0529419" id="Fill-1"></path>
            <path d="M57.8801654,25.2255556 C56.9492214,25.2255556 56.1944444,25.9803828 56.1944444,26.9113889 C56.1944444,27.8426197 56.9492214,28.5972222 57.8801654,28.5972222 C58.8113341,28.5972222 59.5661111,27.8426197 59.5661111,26.9113889 C59.5661111,25.9803828 58.8113341,25.2255556 57.8801654,25.2255556 Z M57.8802778,27.4733333 C57.5699454,27.4733333 57.3183333,27.2217213 57.3183333,26.9113889 C57.3183333,26.6010565 57.5699454,26.3494444 57.8802778,26.3494444 C58.1906102,26.3494444 58.4422222,26.6010565 58.4422222,26.9113889 C58.4422222,27.2217213 58.1906102,27.4733333 57.8802778,27.4733333 Z" id="Fill-2"></path>
            <path d="M87.3136803,15.7640635 C84.2014491,6.29771522 79.9221008,4.96124375 69.7519952,8.35794639 C59.5816465,11.7548926 45.2986806,18.6598328 42.7977154,19.3280686 C40.2969932,19.9960608 36.8797366,21.3262006 32.8227774,20.3796144 C28.7658181,19.4330283 26.5698783,14.8174773 26.7920243,13.2581794 C27.0144134,11.6991251 29.4650676,11.7246953 31.6000023,9.40705702 C33.6007744,7.2355344 34.2329426,1.05435384 32.4893154,0.55317704 C30.8203039,0.073430539 31.401432,2.97163517 26.15378,3.95012321 C23.7638878,4.39553252 24.5132051,5.27904537 23.8195458,5.34211864 C23.2082798,5.39788613 23.305256,4.2798576 20.5962416,4.56259146 C17.9285454,4.84094184 14.1843891,3.6715293 13.461807,3.39317892 C12.3160782,2.95166602 11.2388889,3.28188747 11.2388889,4.45105648 C11.2388889,7.18025397 13.7050982,10.3770216 15.4548016,11.5320661 C17.2966203,12.7482357 20.1956983,12.7548109 21.1518496,13.5301981 C22.3189667,14.4770278 21.8744317,18.9873755 23.9862768,23.3309078 C25.6144562,26.6791487 31.1824456,32.6365287 33.2388758,34.1958266 C35.2950629,35.754881 36.8238356,36.1265019 37.406908,35.1981802 C37.9357807,34.3565539 38.608781,33.7435986 38.8805088,34.3565539 C39.1028978,34.8574872 38.5470468,36.6396115 38.018174,37.9824146 C37.5318348,39.2180663 36.406522,40.5438226 37.240177,41.2678258 C38.0738321,41.9915855 40.5747972,41.7132351 42.1307913,40.655114 C43.6870285,39.5972365 43.9648325,38.260765 45.0762915,38.4835914 C46.1879936,38.7061743 48.6333008,39.8755869 48.6333008,39.8755869 C48.6333008,39.8755869 46.7992597,42.9381716 47.4661837,43.1609981 C48.1331078,43.3838245 49.6891018,42.7711127 50.3003679,42.1586444 C50.9118769,41.5461762 51.6300841,40.2016684 52.634602,40.2654722 C56.1359533,40.4880551 68.6959511,40.5995901 78.8662998,35.699357 C89.054391,30.790357 90.4259115,25.2306552 87.3136803,15.7640635 Z M84.4162063,27.3352292 C83.5289395,27.7769611 82.6419151,27.8319966 80.8676239,27.8872734 C79.0930902,27.9425503 65.2867426,29.653477 56.3597565,31.5852697 C47.4325279,33.5170625 46.2683387,33.5170625 45.2702545,34.2899726 C44.2721702,35.0626415 43.9950054,36.0561762 43.7175981,36.4976668 C43.4404333,36.9391573 42.6642263,37.8223798 41.9988368,38.3741827 C41.3334473,38.9262269 39.1735987,40.422805 38.8382366,39.5885834 C38.6163593,39.0365392 39.8785139,36.8090516 40.1690156,35.0073646 C40.4192642,33.4555096 39.975752,32.9037068 39.2548325,32.4619749 C38.5341555,32.0204843 37.453625,32.4004221 37.2033765,32.6828408 C37.0872243,32.8136707 36.5093733,33.7379284 35.8995137,33.7929639 C35.2896541,33.8482407 31.352847,31.1437792 28.7468189,28.0528626 C26.1407907,24.9619459 24.4773169,22.0918953 23.9782748,20.6566286 C23.4792326,19.2216033 22.9653987,15.949649 22.7585557,14.585349 C22.4891505,12.8102142 21.1028415,12.1478577 19.7720625,11.9269918 C18.4585001,11.7090224 16.7986637,11.6510903 14.4698003,9.1672534 C12.8790732,7.47080966 12.4741167,6.24192591 12.4185868,5.96602449 C12.294675,5.34904808 12.1945271,4.48223968 14.248408,5.19335568 C15.5236571,5.63484623 17.685688,6.35247958 19.9590214,6.07633678 C21.1203007,5.93561016 21.4789418,6.08937149 22.2323548,6.51806871 C22.6205795,6.7386933 23.2619626,6.9472487 23.5631338,6.90428242 C25.5040149,6.628381 24.9317411,5.61288032 26.2246919,5.35894481 C30.4386639,4.53099916 30.7713586,2.54392961 31.4922781,2.76479558 C32.0141142,2.9245915 31.8424321,3.99681732 31.4922781,5.69012307 C31.1040534,7.56663894 30.3833764,8.94662881 28.88625,9.88488675 C28.3874503,10.1974785 26.9725276,10.7217636 25.752566,11.4944324 C24.5328469,12.2671012 23.9782748,13.8126802 24.9763591,15.7995084 C25.9744433,17.7865779 28.8023488,22.2574844 34.2915699,22.478109 C39.7807909,22.698975 47.3772405,19.0009787 50.3712508,17.6209888 C53.3655037,16.2412403 59.4092968,13.9782693 60.5181985,13.6468497 C60.5181985,13.6468497 73.6038691,9.45208601 76.1543673,9.39705056 C78.7051079,9.34177372 81.366666,9.23146143 82.2536904,12.5982795 C83.1409572,15.9650975 83.2517747,16.627454 83.473652,17.4553997 C83.6952868,18.2833453 85.4695781,23.0301532 85.4142906,24.4099017 C85.3587606,25.7898916 85.3032307,26.8937387 84.4162063,27.3352292 Z M81.7855439,30.8111629 C81.0704374,31.6136022 75.8945999,34.5072954 65.9097012,36.5448866 C57.4477278,38.2716433 47.9369316,37.4926245 47.3377754,36.7818211 C46.7386192,36.0710176 48.3362892,35.2180989 48.3362892,35.2180989 C62.3150036,30.8584588 81.3861863,29.7213097 81.3861863,29.7213097 C81.685405,29.7113048 82.4376443,30.07944 81.7855439,30.8111629 Z" id="Fill-3"></path>
            <path d="M100.949382,62.7789651 C100.192496,62.2357513 99.7875826,61.7882023 97.9909759,63.3515224 C97.1373943,64.0941769 96.0889708,65.0684786 95.0272517,66.1491806 C93.9254038,67.0593082 92.5815749,67.9544061 91.5551497,67.953929 C89.4774002,67.9532133 91.5563584,64.5829978 93.3527234,62.6200804 C95.1493301,60.6571631 95.202271,60.4834873 94.7973576,60.1184821 C94.392686,59.7534768 93.5125131,58.762714 91.9627222,60.2912035 C90.4126896,61.8199316 87.5555725,65.9337559 85.9709712,65.9337559 C85.3806438,65.9337559 85.0584052,65.1689147 85.6526005,63.1151039 C86.2315662,62.6322473 86.8547702,62.0763895 87.5251134,61.4365567 C92.4038965,56.7814271 92.0879432,53.8272699 91.4896384,53.4796799 C90.8910918,53.1318514 89.3243792,51.567577 86.3120654,56.3622675 C84.7596154,58.8330909 83.8588947,61.4332168 83.568324,63.453867 C83.2402837,63.7041223 82.8979808,63.9572403 82.5373058,64.2134597 C79.4413502,66.4144655 79.2305535,63.6666675 79.8102444,60.8852317 C80.1431195,60.6073029 80.4900154,60.3105273 80.8526244,59.9922809 C85.8368059,55.6150802 85.6970805,52.3829941 85.4331012,51.8268978 C85.1693636,51.2708015 83.7256963,50.4362992 82.4224796,51.6348525 C81.1190211,52.8334059 78.5123459,55.2651045 77.5424877,59.6609133 C77.3505467,60.5309619 77.2340284,61.2836362 77.1839883,61.9363515 C75.6189679,63.1969319 74.4789252,63.6738244 73.3330808,63.6735859 C72.4761149,63.6731087 71.9556501,63.0401943 71.7518639,62.1691915 C74.246372,60.7172816 76.8953516,58.2111505 76.7798002,56.6549874 C76.6676331,55.1436746 75.407446,54.353307 73.6456498,54.6393471 C70.8637136,55.0911902 68.9152946,58.8240254 68.9143276,61.2915089 C68.9143276,61.7376264 68.9926511,62.1357923 69.1270582,62.4900622 C68.8461571,62.57857 68.5555864,62.6606366 68.253654,62.7341147 C67.0514843,63.0263575 66.2527776,62.5363439 65.8882347,62.2250159 C67.0519678,61.2640738 67.846565,59.9913266 67.7121579,59.0182177 C67.4631664,57.2184792 65.9024973,56.2448932 63.8008156,56.4469582 C65.9800956,53.9351016 66.8066024,52.2973491 66.8844425,51.0222162 C66.9726773,49.5829502 66.3332768,49.0082458 64.1498872,49.0082458 C62.7596443,49.0082458 58.9263837,55.1343706 59.1516848,59.6158244 C58.2212301,60.5154551 57.344925,61.2313903 56.7823976,61.3900364 C54.928257,61.9127336 55.6085114,59.3235816 56.3728912,57.9060251 C56.9540325,56.8286631 57.5175269,56.2553901 57.3062468,55.8557928 C56.7647507,54.8313923 55.9856248,55.3345271 55.0875632,55.1086055 C54.6662115,55.0024438 54.2221364,54.872187 53.8121465,54.7436002 C53.8413969,53.6612283 53.3380957,53.2811934 52.7547787,53.3100598 C52.1784721,53.3384491 51.6403603,53.5595994 51.3812158,54.3265876 C51.2018452,54.8581117 51.3705793,55.3345271 51.9273049,55.6427538 C51.3026505,58.1517477 49.5940369,62.8581688 46.6714084,62.8581688 C45.6137989,62.8581688 44.9818923,62.3753122 44.6722242,61.6612855 C46.2742307,60.5517171 47.6286962,59.4526456 48.2618115,58.5742472 C49.2947636,57.1414226 50.0562425,54.768411 48.3089507,54.1875039 C46.6361145,53.6316462 45.3331395,53.8401525 43.7308912,55.994638 C42.8197757,57.2199106 42.25193,58.3573912 42.25193,60.3560933 C42.25193,61.0209755 42.4291249,61.599497 42.7390348,62.0773438 C41.8201836,62.6611137 40.915595,63.0440114 40.0946482,63.0437728 C39.1741049,63.0435343 38.7203602,62.1961494 38.5738661,60.938909 C39.9940847,58.768201 41.3362214,56.0232658 41.8334792,54.6111963 C43.1323447,50.9208258 42.9387115,49.9913745 42.392864,49.2527755 C43.548378,50.8160956 40.667087,47.9518776 39.0338961,49.1117833 C38.0072291,49.840601 36.9636404,52.9913362 36.538421,56.711766 C36.1864485,56.464135 35.7554273,56.2916521 35.2371382,56.2916521 C33.3885575,56.2909364 31.2298253,57.610681 30.61339,61.7113842 C30.5324073,62.2503038 30.5478786,62.7133595 30.6414318,63.1043685 C29.5828552,64.2339764 27.8237181,65.783221 28.5588474,62.6864016 C28.8660981,61.3921835 29.0169435,60.4861116 29.1126723,59.5783696 C29.2328167,58.4375492 28.3352386,57.290526 26.89834,58.0699197 C25.2707091,58.9528508 23.6017408,61.7643458 23.6017408,61.7643458 C23.6017408,61.7643458 24.2392074,59.2553519 24.1657186,59.049947 C24.0230924,58.6510654 23.0046446,58.7531714 22.5876443,59.1184153 C22.1948179,59.4626654 21.9349481,60.5321547 21.3961111,62.0241437 C20.5456722,64.3787856 19.5472887,67.3219688 17.9392387,67.3219688 C17.5321497,67.3219688 17.2326347,66.7844806 17.0629336,65.9258832 C17.8476195,64.6137727 18.5377853,63.2315239 19.2040189,62.0415589 C20.843495,59.113644 21.9076315,55.374129 21.4401077,54.0138282 C21.1055404,53.0407193 18.736495,52.4132919 17.2568086,54.7066226 C15.7768804,56.9997146 14.4816411,60.1790777 14.4804324,63.9061873 C14.4799489,65.2633867 14.6668134,66.2954213 14.9711632,67.0597853 C13.7334579,68.6512561 12.3364463,69.7915994 10.876099,69.7915994 C8.06491233,69.7915994 8.41761001,64.7731345 9.10632536,61.1133004 C9.79987549,60.5691324 10.4699769,59.9199955 11.0868957,59.1570629 C14.7332917,54.6491283 11.8631207,54.0007071 11.2278297,53.9444056 C10.5175996,53.8811858 8.69996154,53.4267184 7.24565774,58.5086417 C6.97225056,59.4643353 6.775233,60.4868273 6.66137378,61.5188618 C0.885254245,64.1700408 2.6238435,58.8712614 2.75583318,58.4029572 C2.88806459,57.9339373 2.54479474,57.4906825 1.35616246,58.3242306 C0.167288437,59.1580171 -0.609420028,60.8139006 0.628285338,62.4585715 C1.45865993,63.5621758 3.93866371,63.7544596 6.57168849,62.6246132 C6.35871614,66.7093325 7.4832875,70.625386 10.3474151,70.8338923 C12.546276,70.9939698 14.2128269,69.7937465 15.5791376,68.0982611 C16.0720441,68.6717727 16.6768759,68.9112925 17.2783234,68.9115311 C18.9122395,68.9120082 20.497566,67.0354516 21.5933704,63.8684939 C21.5933704,63.8684939 21.3465546,66.2281458 21.256144,66.8209812 C21.1652501,67.4159637 21.405539,67.4534184 21.9528368,67.2866611 C22.8421958,67.0158892 22.9243872,67.2453893 23.0351038,65.817813 C23.1893335,63.8339019 24.0595951,62.2884743 25.0318706,60.8773591 C26.0338802,59.423302 27.1782741,58.7443445 27.1449141,60.9470202 C27.1168723,62.7978117 26.1709464,65.7233411 28.0553044,65.7238182 C29.1051783,65.7242953 30.2486054,64.7707488 31.0117764,63.9138214 C31.960845,65.1801273 34.231986,65.0176642 36.1020815,63.8119539 C36.378873,63.6335069 36.6742785,63.3696534 36.9803205,63.0413872 C38.1590414,64.9685197 40.7178522,64.2001 42.5463685,63.0559397 C42.768527,62.9170945 42.9899602,62.776818 43.2094595,62.6355872 C45.2434542,64.5314676 50.0098286,63.8670625 52.4504288,58.9156345 C53.0335041,57.732588 53.4004644,56.7759401 53.6047341,56.0101447 C56.1255919,56.2780538 53.9895832,59.0019953 53.7845882,60.7385139 C53.4681514,63.4228535 55.4175374,64.2578329 59.3559545,60.9355691 C59.4819007,61.3895593 59.6665896,61.8132517 59.9196906,62.1954337 C61.1438586,64.0426468 63.1618985,63.8789908 64.8395695,62.9435753 L64.7629381,63.0320831 C64.7629381,63.0320831 65.8833999,64.5052254 69.5123907,63.2081445 C70.298527,64.3036375 71.6786168,64.7850628 72.5227706,64.7853013 C73.3939991,64.7855399 74.7056767,64.5772722 77.1605396,62.9087447 C77.2308858,64.8373086 78.0733473,65.6396046 79.3361936,66.0387247 C79.9523871,66.2331557 81.2265951,66.1909296 83.4643761,64.7464152 C83.4556735,65.9666779 83.750112,66.8126314 84.333429,67.0285332 C86.0236704,67.6540521 86.8451006,67.2422879 89.5709533,64.7347254 C88.7524239,66.1482263 88.0803886,67.6886441 89.4597532,68.4224717 C90.3851314,68.914871 91.6095411,68.8394843 92.8786725,68.4868844 C92.4631226,68.974751 92.0666701,69.466196 91.7030942,69.9523926 C91.2324277,70.5814899 90.7972969,71.2108259 90.3948009,71.8418317 C89.0792555,71.2468493 87.3418749,70.6189447 85.0453513,69.9390329 C75.8014811,67.2022089 43.2336334,59.1980962 13.226047,73.7322252 C13.226047,73.7319866 11.799785,74.2766317 12.2748027,75.1392848 C12.7940588,76.0823344 13.1032434,77.8782558 17.8210282,75.50596 C30.4983221,69.1310114 43.0520872,67.4376731 53.6368855,67.4376731 C72.7908595,67.4376731 84.4388273,71.2036689 89.3874731,73.0792712 C89.4604784,73.1069448 89.5317915,73.1346185 89.6023794,73.1625306 C88.8186605,74.555992 88.1911052,75.9640059 87.7037587,77.4054189 C86.8400241,79.9592631 88.8643492,81.42 90.2379121,81.42 C92.4756931,81.42 94.5268513,79.1135483 94.4828547,76.521295 C94.4608564,75.2246912 94.2270945,74.0361577 92.0826249,72.7207072 C93.2366885,70.9596163 94.8227402,69.0687458 97.0743003,67.0521512 C97.8043531,66.398243 98.4236893,65.854075 98.9424619,65.3976991 C99.1663125,65.2416772 99.2917752,65.1483981 99.2917752,65.1483981 L99.24657,65.1302671 C101.058648,63.5333093 101.450749,63.1389605 100.949382,62.7789651 Z M11.0057782,55.5705556 C11.3273885,55.5707808 11.7455956,57.853015 8.99111111,60.0661111 C9.21112439,59.0794851 9.43159225,58.2971206 9.56478211,57.9180994 C10.1611818,56.2204991 10.6084815,55.5705556 11.0057782,55.5705556 Z M18.5267554,57.5110526 C20.7201367,53.5407876 20.3041993,56.7063695 19.9317335,57.8565324 C19.7593909,58.389237 18.5972358,61.5538612 16.858376,64.5616667 C16.8529742,62.4126527 17.3599702,59.6227174 18.5267554,57.5110526 Z M41.2152089,49.9671305 C42.3293129,50.4278894 40.8005694,54.0507196 38.2122222,57.8183333 C38.6416507,54.1565853 40.4437166,49.6481435 41.2152089,49.9671305 Z M32.7117774,60.8356594 C33.3614431,57.6545546 34.8834191,57.47705 35.706405,58.1134574 C35.7835885,58.1733244 35.8550631,58.2385491 35.9208289,58.3079669 C35.8778985,58.9364541 35.8534647,59.574492 35.8504961,60.2136947 C35.8477558,60.794661 35.887946,61.3020165 35.9644444,61.7432154 C33.6946108,64.5294775 32.1399803,63.6354323 32.7117774,60.8356594 Z M47.8066739,55.5705556 C48.6168082,55.5705556 48.6330509,57.0701123 46.7531211,59.2425031 C46.1915229,59.8918447 45.5898741,60.5675823 44.9739852,61.19 C44.7764023,58.8560657 46.197308,55.5705556 47.8066739,55.5705556 Z M66.2544864,50.2310332 C66.7061121,51.8029449 64.2715308,53.9488256 62.714031,55.7013638 C62.4536272,55.9943044 62.1481386,56.3327054 61.8138889,56.6944444 C61.9602851,56.0815788 62.1126407,55.5895359 62.2116201,55.3345196 C62.6648004,54.1661608 65.8028607,48.6593645 66.2544864,50.2310332 Z M62.2973166,63.4377778 C60.9148689,63.4377778 60.6141325,61.7832142 60.7048233,60.0074691 C61.8100296,57.6128243 63.4838157,57.4724038 64.5580085,58.217732 C65.799721,59.079994 65.2750769,63.4377778 62.2973166,63.4377778 Z M72.5967179,58.7039715 C73.6043288,57.1069214 74.5240925,56.4960151 75.2001166,56.7500089 C75.6172334,56.9066242 74.7745732,59.4518895 71.929963,61.19 C71.9112138,60.3606846 72.1381001,59.4310075 72.5967179,58.7039715 Z M83.1011265,53.3227778 C83.1011265,53.3227778 83.8334319,54.4669987 80.4433232,58.2316927 C80.2201105,58.4795163 80.0046526,58.7159959 79.7961111,58.9422222 C79.8916839,58.6365876 79.991658,58.3484054 80.0922609,58.0885833 C81.1311956,55.4035364 82.5974832,53.3225596 83.1011265,53.3227778 Z M87.6548874,59.0461863 C90.5247547,53.9194284 91.8907164,55.5241093 90.4658247,57.1944218 C89.5728889,58.2411207 88.4146359,59.6103 86.5394444,61.19 C86.8412298,60.5536689 87.2098729,59.8414867 87.6548874,59.0461863 Z M92.8942221,78.4910624 C92.0868868,80.6124275 90.6874623,80.5389713 90.2196119,79.9064878 C89.8438545,79.39888 89.6346902,78.2643613 90.6637874,75.515832 C90.9014051,74.8813222 91.1759468,74.2265487 91.4969696,73.5527778 C93.5473448,75.0381133 93.5525576,76.7618016 92.8942221,78.4910624 Z" id="Fill-4"></path>
        </g>
    </g>
</svg>