<?xml version="1.0" encoding="UTF-8"?>
<svg width="191px" height="56px" viewBox="0 0 191 56" version="1.1" xmlns="http://www.w3.org/2000/svg" xmlns:xlink="http://www.w3.org/1999/xlink">
    <!-- Generator: Sketch 49.3 (51167) - http://www.bohemiancoding.com/sketch -->
    <title>Shape</title>
    <desc>Created with Sketch.</desc>
    <defs></defs>
    <g id="Page-1" stroke="none" stroke-width="1" fill="none" fill-rule="evenodd">
        <g id="Underbelly_logo" fill="#939393" fill-rule="nonzero">
            <path d="M186.447854,51.4565247 C186.447854,39.7412856 190.998387,25.2818791 190.998387,20.2214052 C191.052073,18.7073378 189.769999,16.1197981 186.484923,16.1197981 C185.069912,16.1197981 184.029425,16.3821176 183.300829,16.6813655 C182.854723,16.888929 182.863671,17.3473514 183.098867,17.4606836 C183.534746,17.6669737 183.913105,18.2489154 183.86581,19.6827588 C183.77889,22.1569664 182.546667,29.4204146 181.393695,36.6087325 C180.202376,37.5484984 179.195123,37.8044509 178.532995,37.669471 C177.677853,37.4937424 176.973543,36.5807178 177.036177,34.0937763 C177.074524,32.6077237 179.402198,20.7638717 179.613107,19.1644868 C180.132073,15.2335148 178.401336,13.4036454 175.85764,13.4036454 C174.323752,13.4036454 173.275596,13.8302329 172.646702,14.2084314 C172.638828,14.2184314 172.629322,14.2270409 172.618581,14.2338993 L172.605798,14.2338993 C172.166084,14.4580169 172.210822,14.8387622 172.410228,15.0081238 C172.414161,15.0126821 172.418434,15.0169388 172.42301,15.0208577 C173.342064,16.0790494 172.144354,20.2850749 170.817541,26.3910066 C170.086388,29.7540443 169.769385,32.6561127 170.306245,34.8947421 C167.35479,37.9063226 164.69733,36.8863328 164.77019,32.6917678 C164.855832,27.8082959 166.649202,21.9455827 167.600212,12.9464964 C167.919772,9.92218193 166.099559,7.39449175 162.814483,7.39449175 C161.396916,7.39449175 160.358985,7.65808463 159.63678,7.95860598 C159.193231,8.16744286 159.197066,8.64369279 159.442488,8.73410388 L159.459105,8.73410388 C159.893706,8.94294075 160.2759,9.52742931 160.250335,10.9510855 C160.169806,15.5416765 157.410087,24.624807 157.296323,31.1203977 C157.285996,32.2097169 157.458817,33.2930715 157.807619,34.3255343 C154.659315,38.0081942 151.679739,37.1193641 151.757711,32.682854 C151.843353,27.7993821 153.992074,17.5472745 155.109255,10.4901163 C155.680629,6.90296107 153.4795,4.33070205 150.193146,4.33070205 C148.765353,4.33070205 147.722309,4.59938852 146.997547,4.90118326 C146.575728,5.10874674 146.577007,5.55316179 146.800698,5.66522059 C147.253195,5.85877672 147.657119,6.43053132 147.636667,7.8962096 C147.562529,12.1709985 144.82454,23.0050478 144.354148,29.720936 C142.692437,33.9919047 140.304685,37.4224323 136.92502,37.0493274 C134.377488,36.7691804 133.593927,34.5025363 133.271811,31.6004678 C133.253916,31.4374732 133.239855,31.2732052 133.228351,31.1063903 C136.124842,30.866992 141.680071,29.556668 142.398441,23.0839984 C142.90079,18.5507102 139.675791,16.4954498 137.06307,16.2076624 C131.754541,15.6231738 127.629662,21.5852118 126.986707,27.3766148 C126.892505,28.2272281 126.866858,29.0839927 126.910013,29.9386866 C126.398717,29.8610095 125.868248,29.7705984 125.335222,29.6674534 C125.479663,28.9212436 125.59087,28.1890411 125.659895,27.4950406 C126.199312,22.3861776 124.988819,16.9806135 120.272115,16.9806135 C118.557996,16.9806135 117.318103,17.5892965 116.437396,18.363521 C117.383294,13.5080638 118.255053,9.1568712 118.513257,7.31172104 C119.259749,1.88960278 116.305738,0.00115717586 113.295484,0.00115717586 C112.258191,-0.019811737 111.235179,0.24455546 110.338916,0.765194507 C110.00146,0.999499289 110.00913,1.43754736 110.223874,1.49357676 C110.966531,1.5699805 111.650389,2.33783802 111.425419,4.47459575 C111.079016,7.81343889 108.139065,23.1413012 107.634161,27.9547363 C107.429642,29.8941178 107.560023,32.1824096 108.25155,34.224936 C107.271141,35.4295682 106.180802,36.2178001 105.009935,36.188512 C100.22165,36.0700862 104.588116,23.4876647 104.84632,21.6718027 C105.104525,19.8559406 105.471379,17.1104998 99.3933503,15.9186016 C98.467987,15.7295347 97.5337029,15.5867357 96.5940057,15.4907407 C96.5940057,15.4907407 96.6898737,15.108722 96.7844634,14.5242335 C97.2216213,11.2019445 95.8360097,10.2456244 94.9604156,10.1004573 C94.0119618,9.94255626 92.1917487,10.1794078 91.5590202,12.6217805 C91.1755483,14.0900056 90.9531346,16.0815962 92.5713859,17.0366429 C93.0065725,17.2636105 93.470492,17.4310852 93.9506063,17.5345405 C92.7886866,23.0254222 89.1853293,37.6796582 83.9394342,37.0467806 C81.3931811,36.7666336 80.608342,34.4999895 80.2875039,31.597921 C80.2696085,31.4349264 80.2555479,31.2706584 80.2440437,31.1038435 C83.1405345,30.8644452 88.6944853,29.5541212 89.412856,23.0814516 C89.9164823,18.5481634 86.6902057,16.492903 84.0787624,16.2051156 C78.7702335,15.620627 74.6453545,21.582665 74.0024,27.374068 C73.7224656,29.897938 74.0279648,32.4141676 74.9981486,34.4974427 C71.8370623,38.0031007 68.9571886,37.0811623 69.1105773,32.7057752 C69.2818614,27.8223032 71.3577224,20.4811778 72.7727336,11.1395481 C73.4796001,6.4661864 71.3308794,4.33070205 68.0432473,4.33070205 C66.6065061,4.33070205 65.5545149,4.60193531 64.8246401,4.90755024 C64.4207164,5.10492655 64.3913169,5.5213269 64.5894441,5.64611966 C65.0508885,5.82312164 65.4701511,6.39105606 65.4177433,7.8962096 C65.3436054,10.0113196 64.5881658,13.7360016 63.772649,17.7713921 C63.1335292,16.9895272 62.1991361,16.4203194 60.8557064,16.261145 C55.8974152,15.6639225 51.5130535,20.6123376 50.5492609,28.6525571 C50.3383514,30.41621 50.3984287,31.9340975 50.6438507,33.2304141 C49.6365979,34.3968444 48.490017,35.4346618 47.5990841,35.4346618 C46.7081511,35.4346618 45.5909697,35.0984854 45.5909697,32.6077237 C45.5909697,30.116962 46.9612425,25.0322936 46.9612425,22.3467023 C46.9612425,19.6611111 45.7852622,16.1197981 41.4954903,16.1197981 C39.5564009,16.1197981 37.6313721,17.7319169 36.1051541,19.9221572 C36.1358319,19.5019367 36.152449,19.0817161 36.152449,18.662769 C36.152449,17.9789556 35.4174612,15.7810749 32.3778076,15.7810749 C30.6943661,15.7810749 29.6589921,16.1860147 29.0684454,16.5451122 L29.055663,16.5527526 C28.6325657,16.8074317 28.6466264,17.1092264 28.8000151,17.3167899 L28.8000151,17.3244303 C30.0143427,19.0791693 26.8583693,30.3894686 26.8583693,33.2304141 C26.8603427,33.7592345 26.9030763,34.2871232 26.9861932,34.8094246 C24.1280496,37.5434049 20.3176175,38.3812991 20.3176175,32.0639838 C20.3176175,24.8718457 23.5528418,12.0347451 23.5528418,6.9246088 C23.5528418,3.82771081 21.4271294,2.30600313 18.9575706,2.30600313 C17.7344591,2.29169187 16.5269594,2.58049859 15.4436901,3.14644419 C15.1330779,3.3438205 15.1611992,3.65580241 15.3158662,3.82261723 C15.3368074,3.83984665 15.3568589,3.85812208 15.3759435,3.87737324 L15.3861694,3.88374022 C15.8616745,4.3472562 16.168452,5.42327544 16.190182,6.39487625 C16.3026671,11.2643408 13.2885783,23.0457965 13.2885783,31.1140307 C13.2906569,32.1196493 13.4653094,33.1175114 13.8049871,34.0644882 C10.6426224,38.0693172 7.49943139,37.2479771 7.49943139,32.7032284 C7.49943139,27.8197564 10.4892337,17.2212852 10.4892337,8.43103573 C10.4905119,6.91696842 8.72654135,4.33070205 5.44146573,4.33070205 C4.0277328,4.33070205 2.99747173,4.58538117 2.2791011,4.8897227 C1.84833438,5.10110636 1.85983853,5.55698197 2.09375637,5.66776739 L2.11037348,5.67540776 C2.54880965,5.88551802 2.93995095,6.47000658 2.93995095,7.8962096 C2.93995095,12.4804336 0,24.6451813 0,31.140772 C0,34.7062796 2.4018121,39.736192 7.45213653,39.736192 C10.9225569,39.736192 13.2821871,37.0811623 14.4172638,35.4219279 C15.7926495,37.907596 18.3120597,39.7310984 21.3619392,39.7310984 C24.082033,39.7310984 26.184737,38.0502163 27.4629766,36.6533014 C28.1340523,38.4207744 29.3675535,39.7756673 31.1762624,39.7756673 C32.7983484,39.7756673 33.911695,39.3605403 34.5776579,38.9963492 C34.9368432,38.7225691 34.9087219,38.3660184 34.7412725,38.2590532 L34.7182642,38.242499 C34.194186,37.8604804 33.5282232,36.8417639 33.5282232,34.0619414 L33.5384491,34.1625397 C33.5384491,29.1797429 36.6663013,20.2914419 38.7255452,20.2914419 C41.2743548,20.2914419 38.4379413,30.2239272 38.4379413,34.6718979 C38.4379413,36.9640099 39.9718287,39.7323718 44.1708456,39.7323718 C46.6480738,39.7323718 49.226283,37.3638561 51.1564247,35.0462762 C52.4129342,38.3189028 54.9783609,39.6394139 56.440667,39.6394139 C59.397235,39.6394139 61.6443802,38.5824956 63.0133747,36.3171249 C64.1637903,38.2450458 66.0747584,39.7323718 68.8178605,39.7323718 C72.0748148,39.7323718 74.4318885,37.3982378 75.6973457,35.7390034 C77.0535578,37.7840766 79.2086697,39.2153732 82.262384,39.4917001 C89.780989,40.1729667 92.9139541,32.1302004 96.0303021,18.0871942 C99.1990579,19.3020136 98.2851166,21.5113549 97.775099,24.666829 C97.0618414,29.074051 93.9263198,39.5209882 102.358866,39.729825 C105.008657,39.7960416 107.226402,38.1902898 109.023607,35.9593008 C110.260943,38.145721 112.378986,39.7310984 115.758651,39.7310984 C121.382905,39.7310984 123.976453,35.2220048 125.075739,30.8071424 C125.684181,30.8759057 126.323301,30.9344819 126.993098,30.982871 C127.547854,35.3569847 130.141402,39.0294575 135.235187,39.4904267 C139.087801,39.839337 142.182419,37.5968875 144.566336,33.5398492 C145.324332,36.6087325 147.603433,39.7310984 151.581314,39.7310984 C154.839547,39.7310984 157.158273,37.3931442 158.393053,35.7339098 C159.537077,37.9483446 161.575869,39.7310984 164.589958,39.7310984 C167.413589,39.7310984 169.530354,37.9763593 170.853332,36.4279104 C171.656066,37.9903667 173.106868,39.0714795 175.454994,39.552823 C177.635671,39.9997849 179.551752,39.3834614 181.102257,38.4296882 C180.635699,41.3750521 180.199819,44.2376453 179.881538,46.6761978 C179.60416,48.7938546 178.49337,56 184.085668,56 C185.342177,56 186.5744,54.9914707 187.236528,54.3445858 C187.559923,54.0096828 187.449994,53.707888 187.268484,53.5589007 L187.244198,53.5334328 C186.878621,53.2354583 186.447854,52.6305954 186.447854,51.4565247 Z M61.6673885,31.140772 C61.6397584,32.2296452 61.7966243,33.3153655 62.1313894,34.3522756 C61.5664075,35.1621552 60.8032985,35.9185521 59.9583822,35.8179539 C58.2059158,35.6103904 57.2088889,32.7923661 57.7546972,28.2297898 C58.3005055,23.6672135 59.5442326,18.5812717 62.177406,18.8932536 C62.6626539,18.9386611 63.1099751,19.1740689 63.4211331,19.5477789 C62.582608,23.746164 61.7747606,28.0744355 61.6673885,31.140772 Z M84.9096181,17.5740158 C87.2871436,17.7230031 84.0851536,28.0578814 80.213366,30.0431051 C80.245322,24.3663077 83.3846783,17.4734176 84.9096181,17.5740158 Z M115.639775,38.0463961 C113.756928,38.0463961 114.00235,33.0203039 114.904787,26.9678548 C115.683235,27.8592317 116.933353,28.7429682 118.912068,29.4700771 C118.264001,33.7601467 116.831094,38.0463961 115.639775,38.0463961 Z M119.131925,27.6784095 C116.658532,26.3808194 115.169383,24.5203885 116.267391,21.9086543 C116.611237,21.302518 117.003656,20.9026718 117.444649,20.9026718 C119.142151,20.9026718 119.484719,24.0683331 119.131925,27.6784095 Z M137.887534,17.5740158 C140.26506,17.7230031 137.061791,28.056608 133.190004,30.0431051 C133.22196,24.3663077 136.361316,17.4734176 137.887534,17.5740158 Z" id="Shape"></path>
        </g>
    </g>
</svg>