<?xml version="1.0" encoding="utf-8"?>
<!-- Generator: Adobe Illustrator 26.0.2, SVG Export Plug-In . SVG Version: 6.00 Build 0)  -->
<svg version="1.1" id="Layer_1" xmlns="http://www.w3.org/2000/svg" xmlns:xlink="http://www.w3.org/1999/xlink" x="0px" y="0px"
	 viewBox="0 0 448 131.4" style="enable-background:new 0 0 448 131.4;" xml:space="preserve">
<style type="text/css">
	.st0{fill:#939393;}
</style>
<desc>Created with Sketch.</desc>
<g id="Page-1">
	<g id="Underbelly_logo">
		<path id="Shape" class="st0" d="M437.3,120.7c0-27.5,10.7-61.4,10.7-73.3c0.1-3.6-2.9-9.6-10.6-9.6c-3.3,0-5.8,0.6-7.5,1.3
			c-1,0.5-1,1.6-0.5,1.8c1,0.5,1.9,1.8,1.8,5.2c-0.2,5.8-3.1,22.8-5.8,39.7c-2.8,2.2-5.2,2.8-6.7,2.5c-2-0.4-3.7-2.6-3.5-8.4
			c0.1-3.5,5.5-31.3,6-35c1.2-9.2-2.8-13.5-8.8-13.5c-3.6,0-6.1,1-7.5,1.9c0,0,0,0-0.1,0.1h0c-1,0.5-0.9,1.4-0.5,1.8c0,0,0,0,0,0
			c2.2,2.5-0.7,12.3-3.8,26.7c-1.7,7.9-2.5,14.7-1.2,19.9c-6.9,7.1-13.2,4.7-13-5.2c0.2-11.5,4.4-25.2,6.6-46.3
			c0.7-7.1-3.5-13-11.2-13c-3.3,0-5.8,0.6-7.5,1.3c-1,0.5-1,1.6-0.5,1.8h0c1,0.5,1.9,1.9,1.9,5.2c-0.2,10.8-6.7,32.1-6.9,47.3
			c0,2.6,0.4,5.1,1.2,7.5c-7.4,8.6-14.4,6.6-14.2-3.9c0.2-11.5,5.2-35.5,7.9-52.1c1.3-8.4-3.8-14.4-11.5-14.4
			c-3.3,0-5.8,0.6-7.5,1.3c-1,0.5-1,1.5-0.5,1.8c1.1,0.5,2,1.8,2,5.2c-0.2,10-6.6,35.4-7.7,51.2c-3.9,10-9.5,18.1-17.4,17.2
			c-6-0.7-7.8-6-8.6-12.8c0-0.4-0.1-0.8-0.1-1.2c6.8-0.6,19.8-3.6,21.5-18.8c1.2-10.6-6.4-15.5-12.5-16.1
			c-12.5-1.4-22.1,12.6-23.6,26.2c-0.2,2-0.3,4-0.2,6c-1.2-0.2-2.4-0.4-3.7-0.6c0.3-1.8,0.6-3.5,0.8-5.1c1.3-12-1.6-24.7-12.6-24.7
			c-4,0-6.9,1.4-9,3.2c2.2-11.4,4.3-21.6,4.9-25.9C279.7,4.4,272.8,0,265.7,0c-2.4,0-4.8,0.6-6.9,1.8c-0.8,0.5-0.8,1.6-0.3,1.7
			c1.7,0.2,3.3,2,2.8,7c-0.8,7.8-7.7,43.8-8.9,55.1c-0.5,4.5-0.2,9.9,1.4,14.7c-2.3,2.8-4.9,4.7-7.6,4.6c-11.2-0.3-1-29.8-0.4-34
			c0.6-4.3,1.5-10.7-12.8-13.5c-2.2-0.4-4.4-0.8-6.6-1c0,0,0.2-0.9,0.4-2.3c1-7.8-2.2-10-4.3-10.4c-2.2-0.4-6.5,0.2-8,5.9
			c-0.9,3.4-1.4,8.1,2.4,10.4c1,0.5,2.1,0.9,3.2,1.2c-2.7,12.9-11.2,47.3-23.5,45.8c-6-0.7-7.8-6-8.6-12.8c0-0.4-0.1-0.8-0.1-1.2
			c6.8-0.6,19.8-3.6,21.5-18.8c1.2-10.6-6.4-15.5-12.5-16.1c-12.5-1.4-22.1,12.6-23.6,26.2c-0.7,5.9,0.1,11.8,2.3,16.7
			c-7.4,8.2-14.2,6.1-13.8-4.2c0.4-11.5,5.3-28.7,8.6-50.6c1.7-11-3.4-16-11.1-16c-3.4,0-5.8,0.6-7.5,1.4c-0.9,0.5-1,1.4-0.6,1.7
			c1.1,0.4,2.1,1.7,1.9,5.3c-0.2,5-1.9,13.7-3.9,23.2c-1.5-1.8-3.7-3.2-6.8-3.5c-11.6-1.4-21.9,10.2-24.2,29.1
			c-0.5,4.1-0.4,7.7,0.2,10.7c-2.4,2.7-5.1,5.2-7.1,5.2c-2.1,0-4.7-0.8-4.7-6.6c0-5.8,3.2-17.8,3.2-24.1s-2.8-14.6-12.8-14.6
			c-4.5,0-9.1,3.8-12.6,8.9c0.1-1,0.1-2,0.1-3c0-1.6-1.7-6.8-8.9-6.8c-3.9,0-6.4,0.9-7.8,1.8l0,0c-1,0.6-1,1.3-0.6,1.8v0
			c2.8,4.1-4.6,30.6-4.6,37.3c0,1.2,0.1,2.5,0.3,3.7c-6.7,6.4-15.6,8.4-15.6-6.4c0-16.9,7.6-47,7.6-59c0-7.3-5-10.8-10.8-10.8
			c-2.9,0-5.7,0.6-8.2,2c-0.7,0.5-0.7,1.2-0.3,1.6C36,9,36,9,36.1,9.1l0,0c1.1,1.1,1.8,3.6,1.9,5.9c0.3,11.4-6.8,39.1-6.8,58
			c0,2.4,0.4,4.7,1.2,6.9c-7.4,9.4-14.8,7.5-14.8-3.2c0-11.5,7-36.3,7-56.9c0-3.6-4.1-9.6-11.8-9.6c-3.3,0-5.7,0.6-7.4,1.3
			c-1,0.5-1,1.6-0.4,1.8l0,0c1,0.5,1.9,1.9,1.9,5.2C6.9,29.3,0,57.8,0,73c0,8.4,5.6,20.2,17.5,20.2c8.1,0,13.7-6.2,16.3-10.1
			C37,88.9,43,93.2,50.1,93.2c6.4,0,11.3-3.9,14.3-7.2c1.6,4.1,4.5,7.3,8.7,7.3c3.8,0,6.4-1,8-1.8c0.8-0.6,0.8-1.5,0.4-1.7l-0.1,0
			c-1.2-0.9-2.8-3.3-2.8-9.8l0,0.2c0-11.7,7.3-32.5,12.2-32.5c6,0-0.7,23.3-0.7,33.7c0,5.4,3.6,11.9,13.4,11.9
			c5.8,0,11.9-5.6,16.4-11c2.9,7.7,9,10.8,12.4,10.8c6.9,0,12.2-2.5,15.4-7.8c2.7,4.5,7.2,8,13.6,8c7.6,0,13.2-5.5,16.1-9.4
			c3.2,4.8,8.2,8.2,15.4,8.8c17.6,1.6,25-17.3,32.3-50.2c7.4,2.8,5.3,8,4.1,15.4c-1.7,10.3-9,34.8,10.8,35.3
			c6.2,0.2,11.4-3.6,15.6-8.8c2.9,5.1,7.9,8.8,15.8,8.8c13.2,0,19.3-10.6,21.9-20.9c1.4,0.2,2.9,0.3,4.5,0.4
			c1.3,10.3,7.4,18.9,19.3,20c9,0.8,16.3-4.4,21.9-14c1.8,7.2,7.1,14.5,16.5,14.5c7.6,0,13.1-5.5,16-9.4c2.7,5.2,7.5,9.4,14.5,9.4
			c6.6,0,11.6-4.1,14.7-7.7c1.9,3.7,5.3,6.2,10.8,7.3c5.1,1,9.6-0.4,13.2-2.6c-1.1,6.9-2.1,13.6-2.9,19.3c-0.7,5-3.3,21.9,9.9,21.9
			c2.9,0,5.8-2.4,7.4-3.9c0.8-0.8,0.5-1.5,0.1-1.8l-0.1-0.1C438.3,124.9,437.3,123.4,437.3,120.7z M144.6,73
			c-0.1,2.6,0.3,5.1,1.1,7.5c-1.3,1.9-3.1,3.7-5.1,3.4c-4.1-0.5-6.4-7.1-5.2-17.8s4.2-22.6,10.4-21.9c1.1,0.1,2.2,0.7,2.9,1.5
			C146.8,55.7,144.9,65.8,144.6,73z M199.2,41.2c5.6,0.3-1.9,24.6-11,29.2C188.2,57.2,195.6,41,199.2,41.2z M271.2,89.2
			c-4.4,0-3.8-11.8-1.7-26c1.8,2.1,4.8,4.2,9.4,5.9C277.4,79.2,274,89.2,271.2,89.2z M279.4,64.9c-5.8-3-9.3-7.4-6.7-13.5
			c0.8-1.4,1.7-2.4,2.8-2.4C279.5,49,280.3,56.5,279.4,64.9z M323.4,41.2c5.6,0.3-1.9,24.6-11,29.2C312.5,57.2,319.8,41,323.4,41.2z
			"/>
	</g>
</g>
</svg>
