<?xml version="1.0" encoding="UTF-8"?>
<svg width="214px" height="54px" viewBox="0 0 214 54" version="1.1" xmlns="http://www.w3.org/2000/svg" xmlns:xlink="http://www.w3.org/1999/xlink">
    <!-- Generator: Sketch 53.1 (72631) - https://sketchapp.com -->
    <title>Group 29</title>
    <desc>Created with Sketch.</desc>
    <defs>
        <path d="M8.13926641,0.182470588 C3.67054054,0.182470588 0,3.91058824 0,8.44976471 L0,8.44976471 L0,35.9258824 C0,40.4647059 3.67054054,44.1928235 8.13926641,44.1928235 L8.13926641,44.1928235 L61.3650579,44.1928235 L75.8088417,53.9996471 L72.936139,44.1928235 L81.7140927,44.1928235 C86.1828185,44.1928235 89.8537066,40.5458824 89.8537066,35.9258824 L89.8537066,35.9258824 L89.7737838,35.9258824 L89.7737838,8.44976471 C89.7737838,3.91058824 86.1828185,0.182470588 81.6341699,0.182470588 L81.6341699,0.182470588 L8.13926641,0.182470588 Z" id="path-1"></path>
    </defs>
    <g id="Page-1" stroke="none" stroke-width="1" fill="none" fill-rule="evenodd">
        <g id="Group-29">
            <g id="Group-3">
                <mask id="mask-2" fill="white">
                    <use xlink:href="#path-1"></use>
                </mask>
                <g id="Clip-2"></g>
                <path d="M8.13926641,0.182470588 C3.67054054,0.182470588 0,3.91058824 0,8.44976471 L0,8.44976471 L0,35.9258824 C0,40.4647059 3.67054054,44.1928235 8.13926641,44.1928235 L8.13926641,44.1928235 L61.3650579,44.1928235 L75.8088417,53.9996471 L72.936139,44.1928235 L81.7140927,44.1928235 C86.1828185,44.1928235 89.8537066,40.5458824 89.8537066,35.9258824 L89.8537066,35.9258824 L89.7737838,35.9258824 L89.7737838,8.44976471 C89.7737838,3.91058824 86.1828185,0.182470588 81.6341699,0.182470588 L81.6341699,0.182470588 L8.13926641,0.182470588 Z" id="Fill-1" fill="#939393" mask="url(#mask-2)"></path>
            </g>
            <g id="Group-28" transform="translate(8.000000, 7.000000)">
                <path d="M0.256158037,4.34305288 C0.256158037,2.46387981 1.45660474,1.40190865 3.05789746,1.40190865 C4.65849306,1.40190865 5.85928832,2.46387981 5.85928832,4.34305288 L5.85928832,17.5783798 C5.85928832,21.091601 8.02037124,23.8694471 11.6224085,23.8694471 C14.9842866,23.8694471 17.305708,20.9279471 17.305708,17.5783798 L17.305708,4.34305288 C17.305708,2.46387981 18.5061547,1.40190865 20.1074474,1.40190865 C21.708043,1.40190865 22.9088382,2.46387981 22.9088382,4.34305288 L22.9088382,17.9053317 C22.9088382,24.2778702 17.7860261,29.0981875 11.6224085,29.0981875 C5.37897022,29.0981875 0.33597868,24.3596971 0.33597868,17.9053317 L0.33597868,4.34305288 L0.256158037,4.34305288 Z" id="Fill-4" fill="#FFFFFF"></path>
                <path d="M37.4770118,14.3921462 C36.436555,14.3921462 34.4351134,12.7580981 32.6741794,12.7580981 C31.7138917,12.7580981 30.8330761,13.2483481 30.8330761,14.310675 C30.8330761,16.8430404 40.1184129,16.5164442 40.1184129,22.7256846 C40.1184129,26.4022038 37.0768629,29.1796942 32.5141895,29.1796942 C29.4726396,29.1796942 25.069956,27.464175 25.069956,24.9314538 C25.069956,24.1142519 25.8706024,22.4802038 27.3913773,22.4802038 C29.4726396,22.4802038 30.4332758,24.3597327 32.9143384,24.3597327 C34.5152826,24.3597327 34.9956007,23.7876558 34.9956007,22.8071558 C34.9956007,20.2744346 25.710264,20.6832135 25.710264,14.3921462 C25.710264,10.6341558 28.7521624,8.01960769 32.9945076,8.01960769 C35.6359086,8.01960769 39.718264,9.24487692 39.718264,11.9412519 C39.718264,13.1665212 38.7576277,14.3921462 37.4770118,14.3921462" id="Fill-6" fill="#FFFFFF"></path>
                <path d="M55.7271479,16.7614625 C55.4071682,14.3920394 53.9662139,12.5946933 51.4848027,12.5946933 C49.0835607,12.5946933 47.4826166,14.4738663 47.2424575,16.7614625 L55.7271479,16.7614625 Z M47.3226267,20.3561548 C47.7227756,23.052174 49.8838585,24.277799 52.3652697,24.277799 C55.0868399,24.277799 57.0077638,22.0720298 58.4487181,22.0720298 C59.5693442,22.0720298 60.609801,23.2158279 60.609801,24.4410971 C60.609801,26.810876 55.8073171,29.0981163 51.8853002,29.0981163 C45.8816724,29.0981163 41.7993171,24.6043952 41.7993171,18.5588087 C41.7993171,13.0034721 45.7216826,7.93802981 51.4049821,7.93802981 C57.2479228,7.93802981 61.0102985,13.3300683 61.0102985,17.9052606 C61.0102985,19.5393087 60.2898213,20.3561548 58.6888772,20.3561548 L47.3226267,20.3561548 Z" id="Fill-8" fill="#FFFFFF"></path>
                <path d="M63.8118288,10.9607519 C63.8118288,9.16340577 65.2524345,8.26473269 66.533399,8.26473269 C67.9740047,8.26473269 69.1748,8.83645385 69.1748,10.5523288 L69.2549692,10.5523288 C70.2954261,9.00010769 71.3358829,8.26473269 73.0169963,8.26473269 C74.2976122,8.26473269 75.6583973,9.24523269 75.6583973,11.2058769 C75.6583973,13.0032231 74.0574531,13.08505 72.456509,13.9018962 C70.8555648,14.6372712 69.2549692,15.3726462 69.2549692,17.5784154 L69.2549692,25.993425 C69.2549692,27.7907712 68.1343431,29.0163962 66.6135682,29.0163962 C65.0122755,29.0163962 63.9718186,27.7907712 63.9718186,25.993425 L63.9718186,10.9607519 L63.8118288,10.9607519 Z" id="Fill-10" fill="#FFFFFF"></path>
                <path d="M92.5479225,6.87584519 L88.4655672,6.87584519 C86.7046332,6.87584519 85.9039868,5.56874904 85.9039868,4.26129712 C85.9039868,2.95420096 86.864623,1.64710481 88.4655672,1.64710481 L102.153587,1.64710481 C103.754183,1.64710481 104.714819,2.95420096 104.714819,4.26129712 C104.714819,5.56874904 103.994342,6.87584519 102.153587,6.87584519 L98.0708836,6.87584519 L98.0708836,25.9119894 C98.0708836,27.7908067 96.8704369,28.8527779 95.2694927,28.8527779 C93.6685486,28.8527779 92.4681019,27.7908067 92.4681019,25.9119894 L92.4681019,6.87584519 L92.5479225,6.87584519 Z" id="Fill-12" fill="#939393"></path>
                <path d="M115.280667,16.7614625 C114.960339,14.3920394 113.519733,12.5946933 111.038322,12.5946933 C108.636732,12.5946933 107.036136,14.4738663 106.795977,16.7614625 L115.280667,16.7614625 Z M106.876146,20.3561548 C107.276295,23.052174 109.437378,24.277799 111.918789,24.277799 C114.640359,24.277799 116.561632,22.0720298 118.002238,22.0720298 C119.122864,22.0720298 120.163669,23.2158279 120.163669,24.4410971 C120.163669,26.810876 115.360488,29.0981163 111.43882,29.0981163 C105.435192,29.0981163 101.352837,24.6043952 101.352837,18.5588087 C101.352837,13.0034721 105.275202,7.93802981 110.958502,7.93802981 C116.801442,7.93802981 120.563469,13.3300683 120.563469,17.9052606 C120.563469,19.5393087 119.843341,20.3561548 118.242397,20.3561548 L106.876146,20.3561548 Z" id="Fill-14" fill="#939393"></path>
                <path d="M134.731703,14.3921462 C133.691246,14.3921462 131.689805,12.7580981 129.928871,12.7580981 C128.968583,12.7580981 128.087768,13.2483481 128.087768,14.310675 C128.087768,16.8430404 137.373104,16.5164442 137.373104,22.7256846 C137.373104,26.4022038 134.331554,29.1796942 129.768881,29.1796942 C126.726982,29.1796942 122.324647,27.464175 122.324647,24.9314538 C122.324647,24.1142519 123.124945,22.4802038 124.64572,22.4802038 C126.726982,22.4802038 127.687619,24.3597327 130.16903,24.3597327 C131.769974,24.3597327 132.250292,23.7876558 132.250292,22.8071558 C132.250292,20.2744346 122.964955,20.6832135 122.964955,14.3921462 C122.964955,10.6341558 126.006854,8.01960769 130.249199,8.01960769 C132.8906,8.01960769 136.972955,9.24487692 136.972955,11.9412519 C136.972955,13.1665212 136.012319,14.3921462 134.731703,14.3921462" id="Fill-16" fill="#939393"></path>
                <path d="M141.615484,13.2484192 L140.415038,13.2484192 C138.974083,13.2484192 138.093616,12.3497462 138.093616,10.8789962 C138.093616,9.49007308 139.134073,8.50992885 140.415038,8.50992885 L141.615484,8.50992885 L141.615484,5.24183269 C141.615484,3.44413077 142.73611,2.21886154 144.256885,2.21886154 C145.857829,2.21886154 146.898286,3.44413077 146.898286,5.24183269 L146.898286,8.50992885 L148.41941,8.50992885 C149.780195,8.50992885 150.980642,9.16347692 150.980642,10.8789962 C150.980642,12.5948712 149.780195,13.2484192 148.41941,13.2484192 L146.898286,13.2484192 L146.898286,25.8301981 C146.898286,27.6275442 145.77766,28.8528135 144.256885,28.8528135 C142.655941,28.8528135 141.615484,27.6275442 141.615484,25.8301981 L141.615484,13.2484192 Z" id="Fill-18" fill="#939393"></path>
                <path d="M152.741889,11.287526 C152.741889,9.49017981 153.862515,8.26455481 155.38329,8.26455481 C156.984235,8.26455481 158.024691,9.49017981 158.024691,11.287526 L158.024691,25.911776 C158.024691,27.7091221 156.904065,28.9351029 155.38329,28.9351029 C153.782346,28.9351029 152.741889,27.7091221 152.741889,25.911776 L152.741889,11.287526 Z M158.425189,3.03581442 C158.425189,4.75133365 157.064055,6.22208365 155.38329,6.22208365 C153.782346,6.22208365 152.34174,4.75133365 152.34174,3.03581442 C152.34174,1.48359327 153.782346,0.0128432692 155.38329,0.0128432692 C156.984235,0.0128432692 158.425189,1.40176635 158.425189,3.03581442 L158.425189,3.03581442 Z" id="Fill-20" fill="#939393"></path>
                <path d="M160.826187,11.287526 C160.826187,9.49017981 161.946813,8.26455481 163.467588,8.26455481 C164.828373,8.26455481 165.709188,8.99992981 165.948999,10.3073817 C166.989804,8.83663173 168.5904,8.10125673 171.15198,8.10125673 C175.394326,8.10125673 178.516045,10.797276 178.516045,15.4542952 L178.516045,25.911776 C178.516045,27.7091221 177.395419,28.9351029 175.874644,28.9351029 C174.273699,28.9351029 173.233243,27.7091221 173.233243,25.911776 L173.233243,16.2711413 C173.233243,13.738776 171.632298,12.513151 169.711026,12.513151 C167.549943,12.513151 166.269327,14.147199 166.269327,16.2711413 L166.269327,25.8303048 C166.269327,27.627651 165.148701,28.8529202 163.627926,28.8529202 C162.026982,28.8529202 160.986525,27.627651 160.986525,25.8303048 L160.986525,11.287526 L160.826187,11.287526 Z" id="Fill-22" fill="#939393"></path>
                <path d="M190.042738,13.0032942 C187.240999,13.0032942 185.880562,15.9444385 185.880562,18.4771596 C185.880562,21.4183038 187.240999,24.0324962 190.042738,24.0324962 C192.924298,24.0324962 194.285083,21.3364769 194.285083,18.6404577 C194.285083,16.0262654 193.004467,13.0032942 190.042738,13.0032942 L190.042738,13.0032942 Z M199.648054,27.0558231 C199.648054,33.5916596 195.405709,36.9415827 189.322261,36.9415827 C187.160829,36.9415827 180.837571,35.8792558 180.837571,32.8562846 C180.837571,31.7943135 181.958197,30.4872173 182.998653,30.4872173 C184.679418,30.4872173 186.600691,32.2027365 189.72241,32.2027365 C192.363811,32.2027365 194.285083,30.6505154 194.285083,27.8726692 L194.285083,26.5655731 L194.204914,26.5655731 C193.084637,28.1992654 191.243185,29.1797654 188.841943,29.1797654 C183.238813,29.1797654 180.597063,24.1143231 180.597063,18.7222846 C180.597063,13.2484192 184.03911,8.10115 189.40243,8.10115 C191.243185,8.10115 193.324447,8.91835192 194.285083,10.6338712 C194.605412,9.16347692 195.48553,8.346275 196.926484,8.346275 C198.527428,8.346275 199.567885,9.5719 199.567885,11.3692462 L199.567885,27.0558231 L199.648054,27.0558231 Z" id="Fill-24" fill="#939393"></path>
                <path d="M203.010002,10.2254125 C203.410151,10.2254125 203.730131,10.2254125 203.730131,9.7351625 C203.730131,9.32673942 203.410151,9.32673942 203.089823,9.32673942 L202.529684,9.32673942 L202.529684,10.2254125 L203.010002,10.2254125 Z M202.449864,10.6338356 L202.449864,11.6961625 C202.449864,11.8594606 202.369694,11.9412875 202.209356,11.9412875 C202.049366,11.9412875 201.969546,11.8594606 201.969546,11.6961625 L201.969546,9.08161442 C201.969546,9.00014327 202.049366,8.91831635 202.129535,8.91831635 L203.089823,8.91831635 C203.810649,8.91831635 204.210449,9.16344135 204.210449,9.81698942 C204.210449,10.3887106 203.890469,10.6338356 203.49032,10.6338356 L204.130628,11.6143356 C204.130628,11.6961625 204.210449,11.7776337 204.210449,11.7776337 C204.210449,11.8594606 204.050459,11.9412875 203.970639,11.9412875 C203.810649,11.9412875 203.730131,11.8594606 203.65031,11.7776337 L202.930182,10.6338356 L202.449864,10.6338356 Z M205.091265,10.3887106 C205.091265,9.24526827 204.130628,8.26476827 203.089823,8.26476827 C201.969546,8.26476827 201.08873,9.24526827 201.08873,10.3887106 C201.08873,11.5325087 202.049366,12.5130087 203.089823,12.5130087 C204.130628,12.5130087 205.091265,11.5325087 205.091265,10.3887106 L205.091265,10.3887106 Z M200.448422,10.3887106 C200.448422,8.91831635 201.649217,7.69269135 203.089823,7.69269135 C204.530777,7.69269135 205.731573,8.91831635 205.731573,10.3887106 C205.731573,11.8594606 204.530777,13.0850856 203.089823,13.0850856 C201.649217,13.0032587 200.448422,11.8594606 200.448422,10.3887106 L200.448422,10.3887106 Z" id="Fill-26" fill="#939393"></path>
            </g>
        </g>
    </g>
</svg>