<?xml version="1.0" encoding="UTF-8"?>
<svg width="234px" height="72px" viewBox="0 0 234 72" version="1.1" xmlns="http://www.w3.org/2000/svg" xmlns:xlink="http://www.w3.org/1999/xlink">
    <title>Volley_78x24</title>
    <g id="🤑-Consult-with-me" stroke="none" stroke-width="1" fill="none" fill-rule="evenodd">
        <g id="Volley_78x24">
            <g id="Group-2">
                <polygon id="Path-2" fill="#FF4EA8" points="6.00081676 2.60457588 1.93411579 5.59107557 3.0290843 16.0081044 9.11742842 34.7298519 6.00081676 38.8297757 3.0290843 47.5740696 5.52577211 58.5172478 4.27405571 67.4287422 6.00081676 70.0610651 16.8922095 67.4287422 24.9463245 68.5175795 32.2520713 67.4287422 38.3499225 64.1311566 43.654788 56.526752 45.0809063 51.0011894 50.597089 41.2975313 50.597089 37.2927101 43.654788 35.0219075 39.3275712 30.4384705 34.9649191 29.3632192 31.056534 31.1488754 29.4602022 30.4384705 34.814793 11.4676875 35.6334537 5.59107557 32.2520713 1.93850005 26.9430226 1.93850005 23.6111693 9.01642176 19.2714964 26.9792668 16.8922095 19.77632 10.6986864 2.60457588"></polygon>
                <path d="M23.1695248,5.4267746 C24.2250637,1.5255806 28.2359509,-0.789316872 32.1433108,0.247522863 C36.036687,1.28065195 38.3551084,5.27336755 37.3216499,9.16550277 L31.9543205,29.0014479 C34.0592789,27.346432 36.9952267,26.9055303 39.590245,28.1047374 C41.7724982,29.1131979 43.2181284,31.0656863 43.6660482,33.2524508 C45.1903872,32.9207398 46.8181507,33.07525 48.3076589,33.7637543 C51.954074,35.4492585 53.5432707,39.7706909 51.8572291,43.4159437 L49.1513432,49.1556646 C48.4467647,50.6500959 47.3027979,51.7975672 45.945816,52.5158246 C46.1114683,52.8633018 46.174733,53.2644783 46.1042189,53.6735267 C44.3618204,63.7810877 36.5228306,70.4560943 25.3308375,70.4560943 C22.4703907,70.4560943 19.6762762,70.0272851 17.0445922,69.2000922 L16.7133979,69.0878784 L8.6657833,71.7446641 C6.16341792,72.570712 3.46478475,71.3283252 2.46059854,68.9437821 L2.32887438,68.5954634 C2.05101022,67.7699397 1.99546699,66.8864256 2.1678135,66.0330343 L3.61986335,58.8256247 L3.60357686,58.7979004 C2.09815382,56.1711865 1.24052941,53.2863762 1.10804634,50.2960654 L1.08995141,49.478025 C1.08995141,42.9255069 3.0277749,37.701683 6.99431505,34.1057239 L0.254806159,9.19863239 C-0.796955148,5.31140002 1.50265306,1.30782632 5.39552885,0.255214989 L5.42426503,0.247522863 C9.33162492,-0.789316872 13.3425121,1.5255806 14.398051,5.4267746 L18.785,21.642 Z M25.3308375,32.3769853 L24.6759988,32.3813199 C24.6666653,32.3814445 24.6573354,32.3815718 24.6480091,32.3817017 L24.6760807,32.3814728 C22.6950806,32.4088432 20.8707833,32.5612503 19.2005,32.834056 C19.1803026,32.8368439 19.1610571,32.8400105 19.141833,32.8431928 L18.6066222,32.937316 L18.5539008,32.9466702 C15.2104184,33.5708693 12.5389191,34.6925456 10.4860389,36.2648179 L9.80194825,36.7885123 C6.49275774,39.6850109 4.96821718,43.9611741 4.96821718,49.478025 C4.96821718,52.2900888 5.7780875,55.0042835 7.31290816,57.4433686 C7.57789955,57.864484 7.6707878,58.3713295 7.5723486,58.8590073 L5.96941518,66.8001032 C5.93182752,66.9862223 5.94392609,67.1786716 6.00463115,67.359024 C6.2006479,67.9413822 6.8478354,68.2618437 7.44995915,68.0630785 L16.1110226,65.2052602 C16.5213877,65.0698555 16.9652384,65.075362 17.3721158,65.2209055 C19.8657363,66.1128953 22.5577712,66.5790647 25.3308375,66.5790647 C34.4928835,66.5790647 40.6797562,61.4226301 42.2181588,53.3681466 C41.2754343,53.3331173 40.3238705,53.1141788 39.4142223,52.6937067 C37.6386698,51.8729824 36.3199167,50.4048002 35.6614692,48.6628072 C33.895685,49.3131869 31.8816008,49.2884402 30.0393411,48.4370971 C28.8158349,47.8716917 27.7988262,46.9946775 27.068771,45.916089 C26.5071943,46.0272317 25.9258157,46.0854645 25.3308375,46.0854645 L24.9880135,46.0852583 C25.9430513,47.4880815 26.5009444,49.1794707 26.5009444,51.0011894 C26.5009444,52.0718015 25.6327651,52.9397042 24.5618116,52.9397042 C23.5732391,52.9397042 22.7574446,52.2001895 22.6377873,51.2443525 L22.6226787,51.0011894 C22.6226787,48.4136303 20.5939875,46.2869595 18.0129026,46.098972 L17.6405778,46.0854645 C16.5696243,46.0854645 15.7014449,45.2175619 15.7014449,44.1469497 C15.7014449,43.0763376 16.5696243,42.2084349 17.6405778,42.2084349 L25.3308375,42.2084349 C26.0336237,42.2084349 26.7019946,42.0650141 27.3077919,41.8063591 C27.3642169,41.7819915 27.4202976,41.7567808 27.4757549,41.7306282 L27.3077919,41.8063591 C27.3780341,41.7763681 27.447435,41.7448278 27.5159508,41.7117822 L27.4757549,41.7306282 C27.8119847,41.5720686 28.125302,41.3788865 28.4117921,41.1563503 C28.4518776,41.1249398 28.4916395,41.0930329 28.5308855,41.0605406 L28.4117921,41.1563503 C28.4687343,41.1121195 28.5246166,41.066729 28.5794084,41.0202203 L28.5308855,41.0605406 C28.5779287,41.0215927 28.6242308,40.9818035 28.6697679,40.9411966 L28.5794084,41.0202203 C28.6387253,40.9698707 28.6967641,40.9182104 28.7534857,40.865292 L28.6697679,40.9411966 C28.7166056,40.89943 28.7626342,40.8567984 28.8078278,40.8133274 L28.7534857,40.865292 C28.8028535,40.8192345 28.8512236,40.7722239 28.8985702,40.7242948 L28.8078278,40.8133274 C28.8671166,40.7562985 28.9249685,40.6978251 28.9813253,40.6379654 L28.8985702,40.7242948 C28.9398278,40.6825297 28.9803083,40.6400672 29.0199947,40.5969302 L28.9813253,40.6379654 C29.0271223,40.5893218 29.0719321,40.5397628 29.1157235,40.4893196 L29.0199947,40.5969302 C29.0740701,40.538153 29.1266712,40.4781236 29.1777548,40.4168999 L29.1157235,40.4893196 C29.2072082,40.3839383 29.2942482,40.2746977 29.3765591,40.1618825 L29.4866118,40.0047708 C29.6067161,39.825709 29.7150059,39.6388003 29.8106255,39.445196 C29.820995,39.4249764 29.8311457,39.4040792 29.8411504,39.3831012 L29.8106255,39.445196 C29.8409786,39.3837392 29.8700549,39.3216077 29.8978272,39.2588383 L29.8411504,39.3831012 C29.8701181,39.3223612 29.8978624,39.2609436 29.9243521,39.1988796 L29.8978272,39.2588383 C29.9260739,39.1949967 29.9529716,39.1304952 29.9784916,39.0653727 L29.9243521,39.1988796 C29.9533349,39.1309743 29.9808159,39.0622951 30.0067542,38.9928829 L29.9784916,39.0653727 C30.0067974,38.993141 30.0334082,38.9201452 30.0582848,38.8464382 L30.0067542,38.9928829 C30.0329964,38.9226574 30.0576597,38.8516815 30.0807016,38.7799977 L30.0582848,38.8464382 C30.1043463,38.7099619 30.1444619,38.571047 30.1783823,38.4300294 C30.1820748,38.4165092 30.1852167,38.403176 30.1883035,38.3898223 L30.1783823,38.4300294 C30.2666231,38.0631845 30.3129384,37.6821087 30.3129384,37.2927101 C30.3129384,37.1241178 30.3043804,36.9569192 30.2874796,36.7915614 C30.2853511,36.7722019 30.2832934,36.7532791 30.2811271,36.7343884 L30.2874796,36.7915614 C30.2802011,36.7203484 30.2713753,36.6494768 30.2610194,36.5789824 L30.2811271,36.7343884 C30.2682981,36.6225139 30.2516602,36.5117668 30.2313438,36.4022779 C30.2075213,36.2715149 30.178173,36.1427713 30.143671,36.0156734 C30.1349712,35.9859722 30.1267978,35.9570147 30.1183637,35.9281655 L30.143671,36.0156734 C30.1257876,35.9497951 30.1065196,35.8843588 30.0858825,35.8193969 L30.1183637,35.9281655 C30.0956503,35.8504732 30.0710462,35.7735671 30.0446034,35.697499 L30.0858825,35.8193969 C30.0624555,35.7456529 30.0372641,35.67252 30.010331,35.6000455 L30.0446034,35.697499 C30.0165405,35.6167702 29.9864067,35.5369855 29.9542643,35.458207 C29.8994943,35.3220541 29.8378181,35.1886469 29.7700751,35.0580455 C29.7573938,35.0348885 29.7450153,35.0114644 29.732452,34.9881517 L29.7700751,35.0580455 C29.7371401,34.9945504 29.7027712,34.9317186 29.6669861,34.8695869 L29.732452,34.9881517 C29.6959717,34.9204581 29.6579341,34.8537029 29.6183858,34.7879329 L29.498,34.5971643 L29.4713947,34.5581851 C29.1118237,34.029101 28.6508167,33.572579 28.1156415,33.2159145 C28.0524248,33.173639 27.9878772,33.1326859 27.922528,33.0932695 L28.1156415,33.2159145 C28.0207072,33.1526461 27.923439,33.0925199 27.8239892,33.0356883 C27.7826092,33.0116449 27.7409702,32.988573 27.6990541,32.9661125 L27.8239892,33.0356883 C27.7391624,32.9872131 27.6527484,32.9411349 27.5648416,32.8975481 L27.6990541,32.9661125 C27.6392707,32.934078 27.5789238,32.9032875 27.5180718,32.8737584 L27.5648416,32.8975481 C26.9725426,32.6038691 26.3124741,32.4232988 25.6135279,32.3847582 L25.3308375,32.3769853 Z M46.6799885,37.2828076 C45.6315879,36.7981991 44.4389033,36.8730168 43.4769817,37.4306131 L43.2119861,37.5979899 L43.1409161,37.7570459 L39.7758634,44.8978534 L39.0819251,46.3712679 L39.1201858,46.6733234 C39.2888873,47.6437302 39.8740377,48.506835 40.7422047,49.0177342 L41.0418928,49.1746534 C42.7746706,49.9756056 44.8293054,49.2290416 45.6432041,47.5027389 L48.3265148,41.8113596 C49.1241578,40.0870587 48.3822644,38.0696607 46.6799885,37.2828076 Z M37.6541114,31.4985891 C35.9927463,30.9144541 34.1278424,31.6715608 33.3620477,33.2965122 L33.2958093,33.4360261 C33.5815482,34.0160862 33.8048455,34.6320451 33.9569824,35.2753201 L33.9621362,35.299451 C33.9657037,35.314716 33.9692303,35.3299928 33.9727161,35.3452813 C33.9931162,35.4326073 34.0117347,35.5206048 34.029017,35.6090775 C34.032989,35.6316502 34.0372098,35.653687 34.0413465,35.6757455 C34.0815566,35.8881239 34.1137405,36.1039747 34.1378778,36.3222416 C34.1520846,36.4522856 34.1636145,36.5828186 34.1722287,36.7138754 L34.1463295,36.4020104 C34.1549441,36.4870302 34.1623388,36.5724093 34.1684959,36.6581301 L34.1722287,36.7138754 L34.1732605,36.7283966 C34.1851626,36.9149708 34.1912042,37.1031348 34.1912042,37.2927101 C34.1912042,37.4906985 34.1846144,37.6871475 34.1716413,37.8818538 C34.1696622,37.9090524 34.1676705,37.9367823 34.1655485,37.9644818 C34.1615277,38.0198871 34.1568198,38.0748669 34.1516047,38.1296993 C34.1472325,38.1723646 34.1428647,38.2147235 34.1381929,38.2570048 C33.9839814,39.6640049 33.495031,40.9708061 32.7524603,42.0978761 C32.7380556,42.1188343 32.7243588,42.1394583 32.7105754,42.1600238 C32.5612731,42.3833461 32.4012925,42.5995949 32.2319238,42.8080062 C32.1974748,42.8504639 32.162336,42.8929332 32.1267953,42.935078 C32.1053183,42.9603772 32.0840094,42.9853371 32.0625634,43.0101769 C32.0270091,43.051601 31.9909338,43.0926451 31.9544711,43.1333613 C31.922237,43.1690324 31.8896408,43.2048135 31.8567542,43.2403253 C31.8328605,43.2665066 31.8086323,43.2923706 31.7842444,43.3180932 C31.7509247,43.3528136 31.7177429,43.38723 31.6842841,43.4213774 C31.5623742,43.5462883 31.4362534,43.6676528 31.3064368,43.7853426 C31.2673556,43.8203267 31.2283431,43.8550779 31.1890207,43.8894882 C31.1023056,43.9657613 31.0138284,44.0401577 30.9238095,44.1128832 L31.1179653,43.9510073 C31.0629576,43.9981263 31.0073602,44.044585 30.9511857,44.0903713 L30.9238095,44.1128832 C30.8539989,44.1689301 30.7901448,44.2190276 30.7255884,44.2682621 L30.8101779,44.3527462 C30.9775672,44.5041426 31.1611304,44.6395513 31.35911,44.7565349 L31.666672,44.9178869 C33.3994334,45.7186287 35.4538815,44.9718331 36.267458,43.2454927 L38.929,37.597 L39.6206491,36.1296684 C40.37398,34.4699451 39.7075463,32.5456548 38.135588,31.7096655 L37.9629141,31.6239476 Z M10.6543148,6.43906477 C10.1561674,4.59794837 8.26328272,3.50546342 6.42366319,3.99361118 C4.58287438,4.49129677 3.50603169,6.3660592 3.99854231,8.18634221 L10.3629072,31.7120744 C11.5908107,31.0327375 12.9429451,30.4565208 14.420665,29.9878824 C14.4554922,29.9767196 14.4900711,29.9657833 14.5247163,29.9549073 C14.680259,29.9065242 14.8369595,29.8591705 14.9950383,29.8130022 C15.064563,29.7917669 15.1346446,29.7715261 15.2049864,29.7515224 C15.2802755,29.7312882 15.355073,29.7104487 15.4301722,29.6898695 C15.6964173,29.6152954 15.9676817,29.5450708 16.2426583,29.4782354 L16.4633224,29.427682 C16.5074702,29.4173434 16.5517154,29.4070893 16.596058,29.3969198 L16.695,29.373 L16.777,29.071 Z M31.1483194,3.99478609 C29.3042931,3.50546342 27.4114085,4.59794837 26.913261,6.43906477 L20.8872663,28.7079294 L21.0102067,28.697105 C21.5474376,28.645728 22.0958262,28.6042944 22.6554076,28.5729195 C22.7005109,28.5709151 22.7451534,28.5685129 22.7898763,28.5661733 C23.6124907,28.5219608 24.4595765,28.4999557 25.3308375,28.4999557 C25.5095351,28.4999557 25.6870059,28.5052087 25.8631009,28.5155679 C25.8773928,28.5164678 25.8870943,28.517061 25.896793,28.5176697 C25.9883676,28.5233388 26.0801272,28.5304979 26.1714854,28.5390342 C26.213645,28.5430993 26.2553316,28.5473017 26.2969562,28.5517931 C26.3829427,28.5609023 26.468952,28.5714305 26.5545723,28.5831731 C26.5674915,28.585156 26.5801223,28.5869194 26.5927467,28.5887095 C26.8237945,28.6211906 27.0522662,28.6628002 27.2775084,28.7129231 C27.3913373,28.7382534 27.5043415,28.7657578 27.616474,28.7953905 L27.639127,28.8017988 L27.6677865,28.8091154 C27.767274,28.8360464 27.8660665,28.864655 27.964131,28.8949089 L33.5690335,8.18634221 C34.0571318,6.34824965 32.9714794,4.47857176 31.1483194,3.99478609 Z" id="Combined-Shape" fill="#000000" fill-rule="nonzero"></path>
            </g>
            <g id="Volley" transform="translate(62.081633, 14.400000)" fill="#000000" fill-rule="nonzero">
                <polygon id="Path" points="42.2999348 2.0019861 28.3719075 42.3277061 13.9853443 42.3277061 0 2.0019861 12.0365668 2.0019861 21.2072844 31.1165839 30.320685 2.0019861"></polygon>
                <path d="M54.9681133,42.7281033 C51.7583621,42.7281033 48.8829601,42.0607746 46.3419071,40.7261172 C43.8008541,39.3914598 41.8043124,37.4848064 40.3522822,35.0061569 C38.9002519,32.5275074 38.1742367,29.6103277 38.1742367,26.2546177 C38.1742367,22.9370407 38.9098047,20.0389275 40.3809406,17.5602781 C41.8520766,15.0816286 43.8581711,13.1749752 46.3992241,11.8403178 C48.940277,10.5056604 51.8156791,9.83833168 55.0254303,9.83833168 C58.2351814,9.83833168 61.1105835,10.5056604 63.6516365,11.8403178 C66.1926895,13.1749752 68.1987839,15.0816286 69.6699199,17.5602781 C71.1410558,20.0389275 71.8766238,22.9370407 71.8766238,26.2546177 C71.8766238,29.5721946 71.1410558,32.4798411 69.6699199,34.9775571 C68.1987839,37.4752731 66.1831366,39.3914598 63.622978,40.7261172 C61.0628193,42.0607746 58.1778644,42.7281033 54.9681133,42.7281033 Z M54.9681133,33.0041708 C56.5347775,33.0041708 57.8435154,32.4226415 58.8943267,31.2595829 C59.9451381,30.0965243 60.4705438,28.4282026 60.4705438,26.2546177 C60.4705438,24.0810328 59.9451381,22.4222443 58.8943267,21.2782522 C57.8435154,20.1342602 56.5538832,19.5622642 55.0254303,19.5622642 C53.4969773,19.5622642 52.216898,20.1342602 51.1851923,21.2782522 C50.1534866,22.4222443 49.6376337,24.0810328 49.6376337,26.2546177 C49.6376337,28.4663357 50.1343809,30.1441907 51.1278753,31.2881827 C52.1213697,32.4321748 53.401449,33.0041708 54.9681133,33.0041708 Z" id="Shape"></path>
                <polygon id="Path" points="85.2517118 0 85.2517118 42.3277061 74.0175827 42.3277061 74.0175827 0"></polygon>
                <polygon id="Path" points="100.460943 0 100.460943 42.3277061 89.2268142 42.3277061 89.2268142 0"></polygon>
                <path d="M135.15795,25.9114201 C135.15795,26.7884806 135.100633,27.6655412 134.985999,28.5426018 L113.721397,28.5426018 C113.836031,30.2967229 114.323226,31.6027805 115.18298,32.4607746 C116.042735,33.3187686 117.141311,33.7477656 118.478707,33.7477656 C120.351062,33.7477656 121.688458,32.9088381 122.490896,31.2309831 L134.470146,31.2309831 C133.973399,33.4427011 133.008563,35.4160874 131.575638,37.151142 C130.142713,38.8861966 128.337228,40.2494538 126.159183,41.2409136 C123.981138,42.2323734 121.573824,42.7281033 118.937243,42.7281033 C115.765703,42.7281033 112.947618,42.0607746 110.482988,40.7261172 C108.018357,39.3914598 106.088685,37.4848064 104.693972,35.0061569 C103.299259,32.5275074 102.601902,29.6103277 102.601902,26.2546177 C102.601902,22.8989076 103.289706,19.9912612 104.665314,17.5316783 C106.040921,15.0720953 107.96104,13.1749752 110.425671,11.8403178 C112.890301,10.5056604 115.727492,9.83833168 118.937243,9.83833168 C122.108783,9.83833168 124.917315,10.4865938 127.36284,11.7831182 C129.808364,13.0796425 131.71893,14.9386296 133.094538,17.3600794 C134.470146,19.7815293 135.15795,22.6319762 135.15795,25.9114201 Z M123.694553,23.1086395 C123.694553,21.7358491 123.236017,20.6585899 122.318945,19.876862 C121.401873,19.0951341 120.255534,18.7042701 118.879926,18.7042701 C117.504318,18.7042701 116.377084,19.0760675 115.498224,19.8196624 C114.619363,20.5632572 114.046194,21.6595829 113.778714,23.1086395 L123.694553,23.1086395 Z" id="Shape"></path>
                <polygon id="Path" points="171.918367 10.2387289 151.513521 57.6 139.305003 57.6 146.985479 40.9549156 133.802572 10.2387289 146.297675 10.2387289 153.061079 28.4282026 159.595216 10.2387289"></polygon>
            </g>
        </g>
    </g>
</svg>