<?xml version="1.0" encoding="utf-8"?>
<!-- Generator: Adobe Illustrator 27.3.1, SVG Export Plug-In . SVG Version: 6.00 Build 0)  -->
<svg version="1.1" id="Layer_1" xmlns="http://www.w3.org/2000/svg" xmlns:xlink="http://www.w3.org/1999/xlink" x="0px" y="0px"
	 viewBox="0 0 561.3 172.7" style="enable-background:new 0 0 561.3 172.7;" xml:space="preserve">
<style type="text/css">
	.st0{fill-rule:evenodd;clip-rule:evenodd;fill:#939393;}
	.st1{fill:#636363;}
	.st2{fill:#939393;}
</style>
<g id="_xD83E__xDD11_-Consult-with-me">
	<g id="Volley_78x24">
		<g id="Group-2">
			<polygon id="Path-2" class="st0" points="16.3,7.2 6.6,14.3 9.2,39.1 23.7,83.6 16.3,93.4 9.2,114.2 15.1,140.2 12.2,161.4 
				16.3,167.7 42.2,161.4 61.4,164 78.7,161.4 93.2,153.6 105.9,135.5 109.3,122.4 122.4,99.3 122.4,89.7 105.9,84.3 95.6,73.4 
				85.2,70.9 75.9,75.1 72.1,73.4 84.8,28.3 86.8,14.3 78.7,5.6 66.1,5.6 58.2,22.5 47.9,65.2 42.2,48.1 27.5,7.2 			"/>
			<path id="Combined-Shape" class="st1" d="M57.1,13.9C59.6,4.6,69.2-0.9,78.5,1.6c9.3,2.5,14.8,12,12.3,21.2L78,70
				c5-3.9,12-5,18.2-2.1c5.2,2.4,8.6,7,9.7,12.2c3.6-0.8,7.5-0.4,11,1.2c8.7,4,12.5,14.3,8.4,23l-6.4,13.7c-1.7,3.6-4.4,6.3-7.6,8
				c0.4,0.8,0.5,1.8,0.4,2.8c-4.1,24-22.8,39.9-49.4,39.9c-6.8,0-13.5-1-19.7-3l-0.8-0.3l-19.1,6.3c-6,2-12.4-1-14.8-6.7l-0.3-0.8
				c-0.7-2-0.8-4.1-0.4-6.1l3.5-17.1l0-0.1C7,134.7,5,127.8,4.6,120.7l0-1.9c0-15.6,4.6-28,14-36.6l-16-59.3
				c-2.5-9.2,3-18.8,12.2-21.3l0.1,0c9.3-2.5,18.8,3,21.4,12.3l10.4,38.6L57.1,13.9z M62.3,78l-1.6,0c0,0,0,0-0.1,0l0.1,0
				c-4.7,0.1-9.1,0.4-13,1.1c0,0-0.1,0-0.1,0l-1.3,0.2l-0.1,0c-8,1.5-14.3,4.2-19.2,7.9l-1.6,1.2c-7.9,6.9-11.5,17.1-11.5,30.2
				c0,6.7,1.9,13.1,5.6,19c0.6,1,0.9,2.2,0.6,3.4l-3.8,18.9c-0.1,0.4-0.1,0.9,0.1,1.3c0.5,1.4,2,2.1,3.4,1.7l20.6-6.8
				c1-0.3,2-0.3,3,0c5.9,2.1,12.3,3.2,18.9,3.2c21.8,0,36.5-12.3,40.2-31.4c-2.2-0.1-4.5-0.6-6.7-1.6c-4.2-2-7.4-5.4-8.9-9.6
				c-4.2,1.5-9,1.5-13.4-0.5c-2.9-1.3-5.3-3.4-7.1-6c-1.3,0.3-2.7,0.4-4.1,0.4l-0.8,0c2.3,3.3,3.6,7.4,3.6,11.7
				c0,2.5-2.1,4.6-4.6,4.6c-2.4,0-4.3-1.8-4.6-4l0-0.6c0-6.2-4.8-11.2-11-11.7l-0.9,0c-2.5,0-4.6-2.1-4.6-4.6c0-2.5,2.1-4.6,4.6-4.6
				h18.3c1.7,0,3.3-0.3,4.7-1c0.1-0.1,0.3-0.1,0.4-0.2l-0.4,0.2c0.2-0.1,0.3-0.1,0.5-0.2l-0.1,0c0.8-0.4,1.5-0.8,2.2-1.4
				c0.1-0.1,0.2-0.2,0.3-0.2l-0.3,0.2c0.1-0.1,0.3-0.2,0.4-0.3l-0.1,0.1c0.1-0.1,0.2-0.2,0.3-0.3L70,98.6c0.1-0.1,0.3-0.2,0.4-0.4
				l-0.2,0.2c0.1-0.1,0.2-0.2,0.3-0.3l-0.1,0.1c0.1-0.1,0.2-0.2,0.3-0.3l-0.2,0.2c0.1-0.1,0.3-0.3,0.4-0.4l-0.2,0.2
				c0.1-0.1,0.2-0.2,0.3-0.3L71,97.7c0.1-0.1,0.2-0.2,0.3-0.4L71,97.6c0.1-0.1,0.3-0.3,0.4-0.4l-0.1,0.2c0.2-0.3,0.4-0.5,0.6-0.8
				l0.3-0.4c0.3-0.4,0.5-0.9,0.8-1.3c0,0,0-0.1,0.1-0.1l-0.1,0.1c0.1-0.1,0.1-0.3,0.2-0.4L73,94.7c0.1-0.1,0.1-0.3,0.2-0.4l-0.1,0.1
				c0.1-0.2,0.1-0.3,0.2-0.5l-0.1,0.3c0.1-0.2,0.1-0.3,0.2-0.5L73.3,94c0.1-0.2,0.1-0.3,0.2-0.5l-0.1,0.3c0.1-0.2,0.1-0.3,0.2-0.5
				l-0.1,0.2c0.1-0.3,0.2-0.7,0.3-1c0,0,0-0.1,0-0.1l0,0.1c0.2-0.9,0.3-1.8,0.3-2.7c0-0.4,0-0.8-0.1-1.2c0,0,0-0.1,0-0.1l0,0.1
				c0-0.2,0-0.3-0.1-0.5l0,0.4c0-0.3-0.1-0.5-0.1-0.8c-0.1-0.3-0.1-0.6-0.2-0.9c0-0.1,0-0.1-0.1-0.2l0.1,0.2c0-0.2-0.1-0.3-0.1-0.5
				l0.1,0.3c-0.1-0.2-0.1-0.4-0.2-0.5l0.1,0.3c-0.1-0.2-0.1-0.3-0.2-0.5l0.1,0.2c-0.1-0.2-0.1-0.4-0.2-0.6c-0.1-0.3-0.3-0.6-0.4-1
				c0-0.1-0.1-0.1-0.1-0.2l0.1,0.2c-0.1-0.2-0.2-0.3-0.2-0.4l0.2,0.3c-0.1-0.2-0.2-0.3-0.3-0.5l-0.3-0.5l-0.1-0.1
				c-0.9-1.3-2-2.3-3.2-3.2c-0.2-0.1-0.3-0.2-0.5-0.3l0.5,0.3c-0.2-0.2-0.5-0.3-0.7-0.4c-0.1-0.1-0.2-0.1-0.3-0.2l0.3,0.2
				c-0.2-0.1-0.4-0.2-0.6-0.3l0.3,0.2c-0.1-0.1-0.3-0.1-0.4-0.2l0.1,0.1c-1.4-0.7-3-1.1-4.6-1.2L62.3,78z M113.1,89.7
				c-2.5-1.2-5.3-1-7.6,0.4l-0.6,0.4l-0.2,0.4l-8,17l-1.7,3.5l0.1,0.7c0.4,2.3,1.8,4.4,3.9,5.6l0.7,0.4c4.1,1.9,9,0.1,10.9-4
				l6.4-13.5C118.9,96.4,117.1,91.6,113.1,89.7z M91.6,75.9c-4-1.4-8.4,0.4-10.2,4.3l-0.2,0.3c0.7,1.4,1.2,2.8,1.6,4.4l0,0.1
				c0,0,0,0.1,0,0.1c0,0.2,0.1,0.4,0.1,0.6c0,0.1,0,0.1,0,0.2c0.1,0.5,0.2,1,0.2,1.5c0,0.3,0.1,0.6,0.1,0.9l-0.1-0.7
				c0,0.2,0,0.4,0.1,0.6l0,0.1l0,0c0,0.4,0,0.9,0,1.3c0,0.5,0,0.9,0,1.4c0,0.1,0,0.1,0,0.2c0,0.1,0,0.3,0,0.4c0,0.1,0,0.2,0,0.3
				c-0.4,3.3-1.5,6.5-3.3,9.1c0,0-0.1,0.1-0.1,0.1c-0.4,0.5-0.7,1-1.1,1.5c-0.1,0.1-0.2,0.2-0.3,0.3c-0.1,0.1-0.1,0.1-0.2,0.2
				c-0.1,0.1-0.2,0.2-0.3,0.3c-0.1,0.1-0.2,0.2-0.2,0.3c-0.1,0.1-0.1,0.1-0.2,0.2c-0.1,0.1-0.2,0.2-0.2,0.2
				c-0.3,0.3-0.6,0.6-0.9,0.9c-0.1,0.1-0.2,0.2-0.3,0.2c-0.2,0.2-0.4,0.4-0.6,0.5l0.5-0.4c-0.1,0.1-0.3,0.2-0.4,0.3l-0.1,0.1
				c-0.2,0.1-0.3,0.3-0.5,0.4l0.2,0.2c0.4,0.4,0.8,0.7,1.3,1l0.7,0.4c4.1,1.9,9,0.1,10.9-4l6.3-13.4l1.6-3.5
				c1.8-3.9,0.2-8.5-3.5-10.5l-0.4-0.2L91.6,75.9z M27.4,16.3c-1.2-4.4-5.7-7-10.1-5.8c-4.4,1.2-6.9,5.6-5.8,10l15.1,56
				c2.9-1.6,6.1-3,9.7-4.1c0.1,0,0.2-0.1,0.2-0.1c0.4-0.1,0.7-0.2,1.1-0.3c0.2-0.1,0.3-0.1,0.5-0.1c0.2,0,0.4-0.1,0.5-0.1
				c0.6-0.2,1.3-0.3,1.9-0.5l0.5-0.1c0.1,0,0.2,0,0.3-0.1l0.2-0.1l0.2-0.7L27.4,16.3z M76.1,10.5c-4.4-1.2-8.9,1.4-10.1,5.8
				l-14.3,53l0.3,0c1.3-0.1,2.6-0.2,3.9-0.3c0.1,0,0.2,0,0.3,0c2-0.1,4-0.2,6-0.2c0.4,0,0.8,0,1.3,0c0,0,0.1,0,0.1,0
				c0.2,0,0.4,0,0.7,0.1c0.1,0,0.2,0,0.3,0c0.2,0,0.4,0,0.6,0.1c0,0,0.1,0,0.1,0c0.5,0.1,1.1,0.2,1.6,0.3c0.3,0.1,0.5,0.1,0.8,0.2
				l0.1,0l0.1,0c0.2,0.1,0.5,0.1,0.7,0.2l13.3-49.3C83,16.1,80.5,11.7,76.1,10.5z"/>
		</g>
		<g id="Volley" transform="translate(62.081633, 14.400000)">
			<polygon id="Path" class="st2" points="188.3,25.6 155.1,121.6 120.9,121.6 87.6,25.6 116.3,25.6 138.1,94.9 159.8,25.6 			"/>
			<path id="Shape" class="st2" d="M218.4,122.5c-7.6,0-14.5-1.6-20.5-4.8c-6-3.2-10.8-7.7-14.3-13.6c-3.5-5.9-5.2-12.8-5.2-20.8
				c0-7.9,1.8-14.8,5.3-20.7S192,52.2,198,49c6-3.2,12.9-4.8,20.5-4.8c7.6,0,14.5,1.6,20.5,4.8c6,3.2,10.8,7.7,14.3,13.6
				c3.5,5.9,5.3,12.8,5.3,20.7s-1.8,14.8-5.3,20.8c-3.5,5.9-8.3,10.5-14.4,13.7C232.9,120.9,226.1,122.5,218.4,122.5z M218.4,99.4
				c3.7,0,6.8-1.4,9.3-4.2c2.5-2.8,3.8-6.7,3.8-11.9s-1.3-9.1-3.8-11.8c-2.5-2.7-5.6-4.1-9.2-4.1c-3.6,0-6.7,1.4-9.1,4.1
				s-3.7,6.7-3.7,11.8c0,5.3,1.2,9.3,3.5,12S214.7,99.4,218.4,99.4z"/>
			<polygon id="Path_00000148657114925643051540000014573117472774847137_" class="st2" points="290.5,20.9 290.5,121.6 
				263.7,121.6 263.7,20.9 			"/>
			<polygon id="Path_00000116206408867233325080000003816545755471051930_" class="st2" points="326.7,20.9 326.7,121.6 
				299.9,121.6 299.9,20.9 			"/>
			<path id="Shape_00000039128001834805160270000013421612367414843290_" class="st2" d="M409.2,82.5c0,2.1-0.1,4.2-0.4,6.3h-50.6
				c0.3,4.2,1.4,7.3,3.5,9.3s4.7,3.1,7.8,3.1c4.5,0,7.6-2,9.5-6h28.5c-1.2,5.3-3.5,10-6.9,14.1s-7.7,7.4-12.9,9.7
				c-5.2,2.4-10.9,3.5-17.2,3.5c-7.5,0-14.3-1.6-20.1-4.8c-5.9-3.2-10.5-7.7-13.8-13.6c-3.3-5.9-5-12.8-5-20.8s1.6-14.9,4.9-20.8
				s7.8-10.4,13.7-13.5c5.9-3.2,12.6-4.8,20.3-4.8c7.5,0,14.2,1.5,20,4.6s10.4,7.5,13.6,13.3S409.2,74.7,409.2,82.5z M381.9,75.8
				c0-3.3-1.1-5.8-3.3-7.7c-2.2-1.9-4.9-2.8-8.2-2.8c-3.3,0-6,0.9-8,2.7c-2.1,1.8-3.5,4.4-4.1,7.8H381.9z"/>
			<polygon id="Path_00000114036810436700469410000017872319611394843522_" class="st2" points="496.7,45.2 448.1,157.9 
				419.1,157.9 437.4,118.3 406,45.2 435.7,45.2 451.8,88.5 467.4,45.2 			"/>
		</g>
	</g>
</g>
</svg>
