<?xml version="1.0" encoding="UTF-8"?>
<svg width="276px" height="54px" viewBox="0 0 276 54" version="1.1" xmlns="http://www.w3.org/2000/svg" xmlns:xlink="http://www.w3.org/1999/xlink">
    <!-- Generator: Sketch 42 (36781) - http://www.bohemiancoding.com/sketch -->
    <title>Page 1</title>
    <desc>Created with Sketch.</desc>
    <defs>
        <polygon id="path-1" points="0 53.6012688 0 0.282018399 52.974415 0.282018399 52.974415 53.6012688 -1.53826844e-15 53.6012688"></polygon>
        <polygon id="path-3" points="1.53826844e-15 53.6012688 1.53826844e-15 0.282018399 52.974415 0.282018399 52.974415 53.6012688 0 53.6012688"></polygon>
        <polygon id="path-5" points="5.68973765 3.62453356 5.68973765 0.434782283 0.376902215 0.434782283 0.376902215 3.62453356 5.68973765 3.62453356"></polygon>
    </defs>
    <g id="Page-1" stroke="none" stroke-width="1" fill="none" fill-rule="evenodd">
        <g>
            <polygon id="Fill-1" fill="#939393" points="83.1878576 39.8927203 79.746556 26.4514733 76.3207707 39.8927203 69.1400688 39.8927203 61.0128797 13.6036027 68.051585 13.6036027 72.7224266 31.3301376 76.735476 13.6036027 82.7416497 13.6036027 86.7706855 31.3150917 91.4570433 13.6036027 98.5009206 13.6036027 90.3836055 39.8927203"></polygon>
            <g id="Group-53" transform="translate(0.000000, 0.188545)">
                <path d="M106.65792,23.6183121 L106.65792,29.5384416 C106.65792,32.3623871 107.81364,34.735893 110.927221,34.735893 C113.994253,34.735893 115.062519,32.3807244 115.062519,29.5384416 L115.062519,23.6187823 C115.062519,20.2447175 113.697095,18.331525 110.927221,18.331525 C107.91238,18.331525 106.65792,20.0115046 106.65792,23.6183121 L106.65792,23.6183121 Z M110.927221,12.9182576 C118.146008,12.8886358 121.792782,17.2641997 121.792782,23.6183121 L121.792782,29.5384416 C121.792782,34.5788504 119.089674,40.1801928 110.927221,40.1801928 C102.805674,40.1801928 99.9276572,34.6639543 99.9276572,29.5384416 L99.9276572,23.6183121 C99.9276572,17.081767 103.592298,12.9177874 110.927691,12.9177874 L110.927221,12.9182576 Z" id="Fill-2" fill="#939393"></path>
                <path d="M138.28531,12.9882685 C139.195122,12.9849772 140.083776,13.0700811 140.918829,13.2727319 L140.841248,18.6855291 C139.117071,18.308909 137.748356,18.1513963 136.707361,18.3982446 C134.192799,18.6836484 132.896022,20.4092361 132.896022,23.7014882 L132.896022,39.7080777 L126.170461,39.7080777 L126.170461,13.0042549 L131.304437,13.0042549 L131.592662,15.9368136 C133.348342,13.6841458 135.444908,12.9990828 138.28531,12.9887387 L138.28531,12.9882685 Z" id="Fill-4" fill="#939393"></path>
                <polygon id="Fill-6" fill="#939393" points="158.662056 13.0601601 166.612455 13.0601601 157.163569 24.2449779 168.396345 39.7080307 160.90626 39.7080307 153.334833 28.849523 150.957565 31.2587632 150.957565 39.7080307 144.227773 39.7080307 144.227773 2.96617717 150.957565 2.96617717 150.957565 22.0200511"></polygon>
                <path d="M181.143408,2.34331993 C182.255871,2.32169131 183.334011,2.42419216 184.330808,2.6132075 L184.330808,7.95312572 C183.115844,7.76975264 182.197098,7.74671346 181.540716,7.88212743 C179.500103,8.1703523 178.442651,9.60865554 178.436069,12.3766487 L178.435599,13.4120014 L183.916103,13.4120014 L183.916103,18.5017799 L178.435599,18.5017799 L178.435599,39.7086419 L171.705806,39.7086419 L171.705806,11.4536709 C171.705806,4.65005928 176.569895,2.42137104 181.143408,2.34284974 L181.143408,2.34331993 Z" id="Fill-8" fill="#939393"></path>
                <path d="M200.015225,12.9882685 C200.925038,12.9849772 201.813692,13.0700811 202.648745,13.2727319 L202.571634,18.6855291 C200.847457,18.308909 199.478741,18.1513963 198.437747,18.3982446 C195.923184,18.6836484 194.626407,20.4092361 194.626407,23.7014882 L194.626407,39.7080777 L187.900847,39.7080777 L187.900847,13.0042549 L193.034823,13.0042549 L193.323048,15.9368136 C195.078728,13.6841458 197.174823,12.9990828 200.015225,12.9887387 L200.015225,12.9882685 Z" id="Fill-10" fill="#939393"></path>
                <path d="M211.902597,23.6183121 L211.902597,29.5384416 C211.902597,32.3623871 213.058788,34.735893 216.172369,34.735893 C219.238931,34.735893 220.307667,32.3807244 220.307667,29.5384416 L220.307667,23.6187823 C220.307667,20.2447175 218.941772,18.331525 216.172369,18.331525 C213.157057,18.331525 211.902597,20.0115046 211.902597,23.6183121 L211.902597,23.6183121 Z M216.172369,12.9182576 C223.390686,12.8886358 227.037929,17.2641997 227.037929,23.6183121 L227.037929,29.5384416 C227.037929,34.5788504 224.334822,40.1801928 216.172369,40.1801928 C208.050822,40.1801928 205.172805,34.6639543 205.172805,29.5384416 L205.172805,23.6183121 C205.172805,17.081767 208.837445,12.9177874 216.172839,12.9177874 L216.172369,12.9182576 Z" id="Fill-12" fill="#939393"></path>
                <path d="M243.313654,13.0193009 C248.301402,12.9976722 253.212039,15.699369 253.212039,22.368507 L253.212039,39.7080777 L246.481776,39.7080777 L246.481776,22.8292906 C246.481776,19.6423605 245.358499,18.1640913 242.304632,18.1640913 C240.817899,18.1640913 239.36455,18.4452634 238.145354,18.9342583 L238.145354,39.7080777 L231.415092,39.7080777 L231.415092,13.4114371 L236.549068,13.4114371 L236.718805,14.775921 C238.635759,13.6216109 241.001742,13.0291748 243.314124,13.019771 L243.313654,13.0193009 Z" id="Fill-14" fill="#939393"></path>
                <path d="M270.264466,13.4118603 L270.264466,18.8251278 L264.783492,18.8251278 L264.783492,29.2557649 C264.783492,32.0547905 265.48313,33.9670426 267.792221,34.6201329 C268.633856,34.8556968 269.730803,34.914 271.172868,34.7607189 L271.172868,40.075247 C269.919819,40.2327598 268.604705,40.3376116 267.309809,40.180569 C262.573141,39.7080307 258.053229,37.129523 258.053229,30.4721397 L258.053229,7.030477 L264.783492,7.030477 L264.783492,13.4113901 L270.264466,13.4118603 Z" id="Fill-16" fill="#939393"></path>
                <g id="Group-20">
                    <mask id="mask-2" fill="white">
                        <use xlink:href="#path-1"></use>
                    </mask>
                    <g id="Clip-19"></g>
                    <path d="M52.974415,24.2422978 C50.2543809,14.655647 40.5398392,0.999054174 40.5398392,0.999054174 C40.5398392,0.999054174 34.5153281,0.282018399 26.5108579,0.282018399 C18.5063877,0.282018399 12.4343877,0.999054174 12.4343877,0.999054174 C12.4343877,0.999054174 2.72031618,14.655647 -0.000188074957,24.2422978 C10.9283775,43.231756 26.0007046,53.4691462 26.4873486,53.6012688 C26.9622378,53.4700865 41.2107966,43.4029043 52.974415,24.2422978" id="Fill-18" fill="#474B55" mask="url(#mask-2)"></path>
                </g>
                <path d="M25.6544116,30.402599 L22.0382003,27.6407182 C21.9493349,27.5678392 22.0005853,27.4239618 22.1153111,27.4239618 L30.8730215,27.4239618 C30.9877472,27.4239618 31.0389976,27.5678392 30.9501322,27.6407182 L27.333921,30.402599 L28.2916927,33.2035053 L35.28526,34.4302242 C35.3468545,34.4410385 35.4065683,34.4038937 35.4239652,34.3437097 L41.048817,14.7702787 L32.748599,20.4172293 L33.0843128,26.6542651 C33.092306,26.7948511 32.8957676,26.834817 32.8478085,26.7026944 L29.4281356,16.9796893 L41.1019482,12.9783945 L35.104708,9.65887155 L26.4941663,12.5961322 L17.812156,9.65887155 L11.8727489,12.976984 L23.5601969,16.9796893 L20.1400538,26.7026944 C20.0925649,26.834817 19.8960266,26.7948511 19.9035496,26.6542651 L20.2397336,20.4172293 L11.9395155,14.7702787 L17.5728307,34.3427693 C17.5902276,34.4024831 17.6499414,34.4396279 17.7110658,34.4288136 L24.6971101,33.2025649 L25.6544116,30.402599 Z" id="Fill-21" fill="#939393"></path>
                <polygon id="Fill-23" fill="#939393" points="20.9005819 35.5299455 22.3882549 39.4367325 30.5859721 39.4367325 32.073645 35.5299455 26.4868784 34.6591584"></polygon>
                <polygon id="Fill-25" fill="#939393" points="83.1878576 39.7041751 79.746556 26.2629281 76.3207707 39.7041751 69.1400688 39.7041751 61.0128797 13.4150576 68.051585 13.4150576 72.7224266 31.1415925 76.735476 13.4150576 82.7416497 13.4150576 86.7706855 31.1265465 91.4570433 13.4150576 98.5009206 13.4150576 90.3836055 39.7041751"></polygon>
                <path d="M106.65792,23.6183121 L106.65792,29.5384416 C106.65792,32.3623871 107.81364,34.735893 110.927221,34.735893 C113.994253,34.735893 115.062519,32.3807244 115.062519,29.5384416 L115.062519,23.6187823 C115.062519,20.2447175 113.697095,18.331525 110.927221,18.331525 C107.91238,18.331525 106.65792,20.0115046 106.65792,23.6183121 L106.65792,23.6183121 Z M110.927221,12.9182576 C118.146008,12.8886358 121.792782,17.2641997 121.792782,23.6183121 L121.792782,29.5384416 C121.792782,34.5788504 119.089674,40.1801928 110.927221,40.1801928 C102.805674,40.1801928 99.9276572,34.6639543 99.9276572,29.5384416 L99.9276572,23.6183121 C99.9276572,17.081767 103.592298,12.9177874 110.927691,12.9177874 L110.927221,12.9182576 Z" id="Fill-27" fill="#939393"></path>
                <path d="M138.28531,12.9882685 C139.195122,12.9849772 140.083776,13.0700811 140.918829,13.2727319 L140.841248,18.6855291 C139.117071,18.308909 137.748356,18.1513963 136.707361,18.3982446 C134.192799,18.6836484 132.896022,20.4092361 132.896022,23.7014882 L132.896022,39.7080777 L126.170461,39.7080777 L126.170461,13.0042549 L131.304437,13.0042549 L131.592662,15.9368136 C133.348342,13.6841458 135.444908,12.9990828 138.28531,12.9887387 L138.28531,12.9882685 Z" id="Fill-29" fill="#939393"></path>
                <polygon id="Fill-31" fill="#939393" points="158.662056 13.0601601 166.612455 13.0601601 157.163569 24.2449779 168.396345 39.7080307 160.90626 39.7080307 153.334833 28.849523 150.957565 31.2587632 150.957565 39.7080307 144.227773 39.7080307 144.227773 2.96617717 150.957565 2.96617717 150.957565 22.0200511"></polygon>
                <path d="M181.143408,2.34331993 C182.255871,2.32169131 183.334011,2.42419216 184.330808,2.6132075 L184.330808,7.95312572 C183.115844,7.76975264 182.197098,7.74671346 181.540716,7.88212743 C179.500103,8.1703523 178.442651,9.60865554 178.436069,12.3766487 L178.435599,13.4120014 L183.916103,13.4120014 L183.916103,18.5017799 L178.435599,18.5017799 L178.435599,39.7086419 L171.705806,39.7086419 L171.705806,11.4536709 C171.705806,4.65005928 176.569895,2.42137104 181.143408,2.34284974 L181.143408,2.34331993 Z" id="Fill-33" fill="#939393"></path>
                <path d="M200.015225,12.9882685 C200.925038,12.9849772 201.813692,13.0700811 202.648745,13.2727319 L202.571634,18.6855291 C200.847457,18.308909 199.478741,18.1513963 198.437747,18.3982446 C195.923184,18.6836484 194.626407,20.4092361 194.626407,23.7014882 L194.626407,39.7080777 L187.900847,39.7080777 L187.900847,13.0042549 L193.034823,13.0042549 L193.323048,15.9368136 C195.078728,13.6841458 197.174823,12.9990828 200.015225,12.9887387 L200.015225,12.9882685 Z" id="Fill-35" fill="#939393"></path>
                <path d="M211.902597,23.6183121 L211.902597,29.5384416 C211.902597,32.3623871 213.058788,34.735893 216.172369,34.735893 C219.238931,34.735893 220.307667,32.3807244 220.307667,29.5384416 L220.307667,23.6187823 C220.307667,20.2447175 218.941772,18.331525 216.172369,18.331525 C213.157057,18.331525 211.902597,20.0115046 211.902597,23.6183121 L211.902597,23.6183121 Z M216.172369,12.9182576 C223.390686,12.8886358 227.037929,17.2641997 227.037929,23.6183121 L227.037929,29.5384416 C227.037929,34.5788504 224.334822,40.1801928 216.172369,40.1801928 C208.050822,40.1801928 205.172805,34.6639543 205.172805,29.5384416 L205.172805,23.6183121 C205.172805,17.081767 208.837445,12.9177874 216.172839,12.9177874 L216.172369,12.9182576 Z" id="Fill-37" fill="#939393"></path>
                <path d="M243.313654,13.0193009 C248.301402,12.9976722 253.212039,15.699369 253.212039,22.368507 L253.212039,39.7080777 L246.481776,39.7080777 L246.481776,22.8292906 C246.481776,19.6423605 245.358499,18.1640913 242.304632,18.1640913 C240.817899,18.1640913 239.36455,18.4452634 238.145354,18.9342583 L238.145354,39.7080777 L231.415092,39.7080777 L231.415092,13.4114371 L236.549068,13.4114371 L236.718805,14.775921 C238.635759,13.6216109 241.001742,13.0291748 243.314124,13.019771 L243.313654,13.0193009 Z" id="Fill-39" fill="#939393"></path>
                <path d="M270.264466,13.4118603 L270.264466,18.8251278 L264.783492,18.8251278 L264.783492,29.2557649 C264.783492,32.0547905 265.48313,33.9670426 267.792221,34.6201329 C268.633856,34.8556968 269.730803,34.914 271.172868,34.7607189 L271.172868,40.075247 C269.919819,40.2327598 268.604705,40.3376116 267.309809,40.180569 C262.573141,39.7080307 258.053229,37.129523 258.053229,30.4721397 L258.053229,7.030477 L264.783492,7.030477 L264.783492,13.4113901 L270.264466,13.4118603 Z" id="Fill-41" fill="#939393"></path>
                <g id="Group-45">
                    <mask id="mask-4" fill="white">
                        <use xlink:href="#path-3"></use>
                    </mask>
                    <g id="Clip-44"></g>
                    <path d="M52.974415,24.2422978 C50.2543809,14.655647 40.5398392,0.999054174 40.5398392,0.999054174 C40.5398392,0.999054174 34.5153281,0.282018399 26.5108579,0.282018399 C18.5063877,0.282018399 12.4343877,0.999054174 12.4343877,0.999054174 C12.4343877,0.999054174 2.72031618,14.655647 -0.000188074957,24.2422978 C10.9283775,43.231756 26.0007046,53.4691462 26.4873486,53.6012688 C26.9622378,53.4700865 41.2107966,43.4029043 52.974415,24.2422978" id="Fill-43" fill="#939393" mask="url(#mask-4)"></path>
                </g>
                <path d="M25.6544116,30.402599 L22.0382003,27.6407182 C21.9493349,27.5678392 22.0005853,27.4239618 22.1153111,27.4239618 L30.8730215,27.4239618 C30.9877472,27.4239618 31.0389976,27.5678392 30.9501322,27.6407182 L27.333921,30.402599 L28.2916927,33.2035053 L35.28526,34.4302242 C35.3468545,34.4410385 35.4065683,34.4038937 35.4239652,34.3437097 L41.048817,14.7702787 L32.748599,20.4172293 L33.0843128,26.6542651 C33.092306,26.7948511 32.8957676,26.834817 32.8478085,26.7026944 L29.4281356,16.9796893 L41.1019482,12.9783945 L35.104708,9.65887155 L26.4941663,12.5961322 L17.812156,9.65887155 L11.8727489,12.976984 L23.5601969,16.9796893 L20.1400538,26.7026944 C20.0925649,26.834817 19.8960266,26.7948511 19.9035496,26.6542651 L20.2397336,20.4172293 L11.9395155,14.7702787 L17.5728307,34.3427693 C17.5902276,34.4024831 17.6499414,34.4396279 17.7110658,34.4288136 L24.6971101,33.2025649 L25.6544116,30.402599 Z" id="Fill-46" fill="#FEFEFE"></path>
                <polygon id="Fill-48" fill="#FEFEFE" points="20.9005819 35.5299455 22.3882549 39.4367325 30.5859721 39.4367325 32.073645 35.5299455 26.4868784 34.6591584"></polygon>
                <g id="Group-52" transform="translate(269.887564, 6.582624)">
                    <mask id="mask-6" fill="white">
                        <use xlink:href="#path-5"></use>
                    </mask>
                    <g id="Clip-51"></g>
                    <path d="M2.67658876,0.434782283 L3.59157342,0.434782283 L4.17883748,2.72647564 L4.80042521,0.434782283 L5.69001976,0.434782283 L5.69001976,3.62453356 L5.11074889,3.62453356 L5.11074889,0.946816354 L4.38054787,3.62453356 L3.88497036,3.62453356 L3.1970862,0.938352981 L3.1970862,3.62453356 L2.67658876,3.62453356 L2.67658876,0.434782283 Z M1.0821833,0.929889608 L0.376902215,0.929889608 L0.376902215,0.434782283 L2.4250385,0.434782283 L2.4250385,0.929889608 L1.70283066,0.929889608 L1.70283066,3.62453356 L1.0821833,3.62453356 L1.0821833,0.929889608 Z" id="Fill-50" fill="#939393" mask="url(#mask-6)"></path>
                </g>
            </g>
        </g>
    </g>
</svg>