<?xml version="1.0" encoding="utf-8"?>
<!-- Generator: Adobe Illustrator 23.0.2, SVG Export Plug-In . SVG Version: 6.00 Build 0)  -->
<svg version="1.1" id="Layer_1" xmlns="http://www.w3.org/2000/svg" xmlns:xlink="http://www.w3.org/1999/xlink" x="0px" y="0px"
	 viewBox="0 0 215 54" style="enable-background:new 0 0 215 54;" xml:space="preserve">
<style type="text/css">
	.st0{fill-rule:evenodd;clip-rule:evenodd;fill:#939393;}
	.st1{filter:url(#Adobe_OpacityMaskFilter);}
	.st2{fill-rule:evenodd;clip-rule:evenodd;fill:#FFFFFF;}
	.st3{mask:url(#mask-6_1_);fill-rule:evenodd;clip-rule:evenodd;fill:#939393;}
</style>
<title>Page 1</title>
<desc>Created with Sketch.</desc>
<g id="Page-1">
	<g>
		<polygon id="Fill-1" class="st0" points="22.4,39.9 18.9,26.5 15.5,39.9 8.3,39.9 0.2,13.6 7.2,13.6 11.9,31.4 15.9,13.6 
			21.9,13.6 26,31.4 30.7,13.6 37.7,13.6 29.6,39.9 		"/>
		<g id="Group-53" transform="translate(0.000000, 0.188545)">
			<path id="Fill-2" class="st0" d="M45.9,23.7v5.9c0,2.8,1.2,5.2,4.3,5.2c3.1,0,4.1-2.4,4.1-5.2v-5.9c0-3.4-1.4-5.3-4.1-5.3
				C47.1,18.4,45.9,20,45.9,23.7L45.9,23.7z M50.1,13c7.2,0,10.9,4.3,10.9,10.7v5.9c0,5-2.7,10.6-10.9,10.6c-8.1,0-11-5.5-11-10.6
				v-5.9C39.1,17.1,42.8,13,50.1,13L50.1,13z"/>
			<path id="Fill-4" class="st0" d="M77.5,13c0.9,0,1.8,0.1,2.6,0.3L80,18.7c-1.7-0.4-3.1-0.5-4.1-0.3c-2.5,0.3-3.8,2-3.8,5.3v16
				h-6.7V13h5.1l0.3,2.9C72.5,13.7,74.6,13,77.5,13L77.5,13z"/>
			<polygon id="Fill-6" class="st0" points="97.9,13.1 105.8,13.1 96.4,24.3 107.6,39.7 100.1,39.7 92.5,28.9 90.2,31.3 90.2,39.7 
				83.4,39.7 83.4,3 90.2,3 90.2,22.1 			"/>
			<path id="Fill-8" class="st0" d="M120.3,2.4c1.1,0,2.2,0.1,3.2,0.3V8c-1.2-0.2-2.1-0.2-2.8-0.1c-2,0.3-3.1,1.7-3.1,4.5l0,1h5.5
				v5.1h-5.5v21.2h-6.7V11.5C110.9,4.7,115.8,2.5,120.3,2.4L120.3,2.4z"/>
			<path id="Fill-10" class="st0" d="M139.2,13c0.9,0,1.8,0.1,2.6,0.3l-0.1,5.4c-1.7-0.4-3.1-0.5-4.1-0.3c-2.5,0.3-3.8,2-3.8,5.3v16
				h-6.7V13h5.1l0.3,2.9C134.3,13.7,136.4,13,139.2,13L139.2,13z"/>
			<path id="Fill-12" class="st0" d="M151.1,23.7v5.9c0,2.8,1.2,5.2,4.3,5.2c3.1,0,4.1-2.4,4.1-5.2v-5.9c0-3.4-1.4-5.3-4.1-5.3
				C152.4,18.4,151.1,20,151.1,23.7L151.1,23.7z M155.4,13c7.2,0,10.9,4.3,10.9,10.7v5.9c0,5-2.7,10.6-10.9,10.6
				c-8.1,0-11-5.5-11-10.6v-5.9C144.4,17.1,148,13,155.4,13L155.4,13z"/>
			<path id="Fill-14" class="st0" d="M182.5,13.1c5,0,9.9,2.7,9.9,9.3v17.3h-6.7V22.9c0-3.2-1.1-4.7-4.2-4.7c-1.5,0-2.9,0.3-4.2,0.8
				v20.8h-6.7V13.4h5.1l0.2,1.4C177.8,13.7,180.2,13.1,182.5,13.1L182.5,13.1z"/>
			<path id="Fill-16" class="st0" d="M209.5,13.4v5.4H204v10.4c0,2.8,0.7,4.7,3,5.4c0.8,0.2,1.9,0.3,3.4,0.1v5.3
				c-1.3,0.2-2.6,0.3-3.9,0.1c-4.7-0.5-9.3-3.1-9.3-9.7V7.1h6.7v6.4L209.5,13.4z"/>
			<polygon id="Fill-25" class="st0" points="22.4,39.7 18.9,26.3 15.5,39.7 8.3,39.7 0.2,13.5 7.2,13.5 11.9,31.2 15.9,13.5 
				21.9,13.5 26,31.2 30.7,13.5 37.7,13.5 29.6,39.7 			"/>
			<path id="Fill-27" class="st0" d="M45.9,23.7v5.9c0,2.8,1.2,5.2,4.3,5.2c3.1,0,4.1-2.4,4.1-5.2v-5.9c0-3.4-1.4-5.3-4.1-5.3
				C47.1,18.4,45.9,20,45.9,23.7L45.9,23.7z M50.1,13c7.2,0,10.9,4.3,10.9,10.7v5.9c0,5-2.7,10.6-10.9,10.6c-8.1,0-11-5.5-11-10.6
				v-5.9C39.1,17.1,42.8,13,50.1,13L50.1,13z"/>
			<path id="Fill-29" class="st0" d="M77.5,13c0.9,0,1.8,0.1,2.6,0.3L80,18.7c-1.7-0.4-3.1-0.5-4.1-0.3c-2.5,0.3-3.8,2-3.8,5.3v16
				h-6.7V13h5.1l0.3,2.9C72.5,13.7,74.6,13,77.5,13L77.5,13z"/>
			<polygon id="Fill-31" class="st0" points="97.9,13.1 105.8,13.1 96.4,24.3 107.6,39.7 100.1,39.7 92.5,28.9 90.2,31.3 90.2,39.7 
				83.4,39.7 83.4,3 90.2,3 90.2,22.1 			"/>
			<path id="Fill-33" class="st0" d="M120.3,2.4c1.1,0,2.2,0.1,3.2,0.3V8c-1.2-0.2-2.1-0.2-2.8-0.1c-2,0.3-3.1,1.7-3.1,4.5l0,1h5.5
				v5.1h-5.5v21.2h-6.7V11.5C110.9,4.7,115.8,2.5,120.3,2.4L120.3,2.4z"/>
			<path id="Fill-35" class="st0" d="M139.2,13c0.9,0,1.8,0.1,2.6,0.3l-0.1,5.4c-1.7-0.4-3.1-0.5-4.1-0.3c-2.5,0.3-3.8,2-3.8,5.3v16
				h-6.7V13h5.1l0.3,2.9C134.3,13.7,136.4,13,139.2,13L139.2,13z"/>
			<path id="Fill-37" class="st0" d="M151.1,23.7v5.9c0,2.8,1.2,5.2,4.3,5.2c3.1,0,4.1-2.4,4.1-5.2v-5.9c0-3.4-1.4-5.3-4.1-5.3
				C152.4,18.4,151.1,20,151.1,23.7L151.1,23.7z M155.4,13c7.2,0,10.9,4.3,10.9,10.7v5.9c0,5-2.7,10.6-10.9,10.6
				c-8.1,0-11-5.5-11-10.6v-5.9C144.4,17.1,148,13,155.4,13L155.4,13z"/>
			<path id="Fill-39" class="st0" d="M182.5,13.1c5,0,9.9,2.7,9.9,9.3v17.3h-6.7V22.9c0-3.2-1.1-4.7-4.2-4.7c-1.5,0-2.9,0.3-4.2,0.8
				v20.8h-6.7V13.4h5.1l0.2,1.4C177.8,13.7,180.2,13.1,182.5,13.1L182.5,13.1z"/>
			<path id="Fill-41" class="st0" d="M209.5,13.4v5.4H204v10.4c0,2.8,0.7,4.7,3,5.4c0.8,0.2,1.9,0.3,3.4,0.1v5.3
				c-1.3,0.2-2.6,0.3-3.9,0.1c-4.7-0.5-9.3-3.1-9.3-9.7V7.1h6.7v6.4L209.5,13.4z"/>
			<g id="Group-52" transform="translate(269.887564, 6.582624)">
				<g id="Clip-51">
				</g>
				<defs>
					<filter id="Adobe_OpacityMaskFilter" filterUnits="userSpaceOnUse" x="-60.4" y="0.5" width="5.3" height="3.2">
						<feColorMatrix  type="matrix" values="1 0 0 0 0  0 1 0 0 0  0 0 1 0 0  0 0 0 1 0"/>
					</filter>
				</defs>
				<mask maskUnits="userSpaceOnUse" x="-60.4" y="0.5" width="5.3" height="3.2" id="mask-6_1_">
					<g class="st1">
						<polygon id="path-5_1_" class="st2" points="-55.1,3.7 -55.1,0.5 -60.4,0.5 -60.4,3.7 						"/>
					</g>
				</mask>
				<path id="Fill-50" class="st3" d="M-58.1,0.5h0.9l0.6,2.3l0.6-2.3h0.9v3.2h-0.6V1l-0.7,2.7h-0.5L-57.6,1v2.7h-0.5V0.5z M-59.7,1
					h-0.7V0.5h2V1h-0.7v2.7h-0.6V1z"/>
			</g>
		</g>
	</g>
</g>
</svg>
