<?xml version="1.0" standalone="no"?>
<!DOCTYPE svg PUBLIC "-//W3C//DTD SVG 1.1//EN" "http://www.w3.org/Graphics/SVG/1.1/DTD/svg11.dtd" >
<svg xmlns="http://www.w3.org/2000/svg">
<metadata></metadata>
<defs>
<font id="athitiextralight" horiz-adv-x="1163" >
<font-face units-per-em="2048" ascent="1536" descent="-512" />
<missing-glyph horiz-adv-x="614" />
<glyph unicode="&#xfb01;" horiz-adv-x="1087" d="M86 891l8 59h129v133q0 74 45 135.5t107 92.5q100 27 196 26q129 0 217 -24l-18 -53q-80 18 -213 18q-109 0 -229 -31q-23 -47 -33 -83t-10 -85v-129h622v-950h-61v891h-561v-891h-62v891h-137z" />
<glyph unicode="&#xfb02;" horiz-adv-x="1214" d="M86 891l8 59h129v168q0 74 45 135.5t107 92.5q100 27 237 26q147 0 306 -47v-1173q0 -43 5 -62.5t19 -46.5h33l143 63l29 -34q-80 -63 -182 -84q-47 26 -78 64t-31 77v762h-571v-891h-62v891h-137zM285 950h571v334q-119 29 -258 29q-150 0 -270 -31q-23 -47 -33 -83 t-10 -85v-164z" />
<glyph horiz-adv-x="1024" />
<glyph horiz-adv-x="1024" />
<glyph unicode="&#xd;" horiz-adv-x="532" />
<glyph unicode=" "  horiz-adv-x="614" />
<glyph unicode="&#x09;" horiz-adv-x="614" />
<glyph unicode="&#xa0;" horiz-adv-x="614" />
<glyph unicode="!" horiz-adv-x="548" d="M238 0v152h73v-152h-73zM242 827v422h65v-422l-12 -467h-41z" />
<glyph unicode="&#x22;" horiz-adv-x="712" d="M197 1135q-4 63 4 114h55q8 -51 4 -114l-16 -269h-31zM453 1135q-4 63 4 114h55q8 -51 4 -114l-16 -269h-31z" />
<glyph unicode="#" horiz-adv-x="1464" d="M205 397v64h233l51 366h-231v64h238l55 391l70 -4l-54 -387h383l56 391l65 -4l-49 -387h217v-64h-225l-51 -366h223v-64h-232l-55 -405l-70 4l54 401h-383l-56 -405l-69 4l53 401h-223zM508 461h385l51 366h-385z" />
<glyph unicode="$" horiz-adv-x="1120" d="M184 63l25 58q84 -39 163 -55.5t181 -16.5q139 0 268 35q27 55 38 105.5t11 115.5q0 88 -24.5 140.5t-82.5 86t-171 68.5q-178 53 -275.5 129t-97.5 221q0 156 83 235t255 97v172h64v-170q184 -16 276 -72v-36q0 -82 -23 -156h-34l-9 184q-139 18 -233 19 q-156 0 -234.5 -69t-78.5 -200q0 -84 36.5 -135t105.5 -85t194 -72q123 -37 190.5 -80t96 -103.5t28.5 -154.5q0 -319 -330 -338v-211h-63v209q-195 0 -359 79z" />
<glyph unicode="%" horiz-adv-x="1648" d="M225 926q0 141 56.5 223t175.5 82q113 0 166 -75t53 -220q0 -137 -61.5 -221t-180.5 -84q-102 0 -155.5 73.5t-53.5 221.5zM287 938q0 -131 34.5 -189.5t118.5 -58.5q81 0 140 23q35 102 34 211q0 131 -35.5 189t-127.5 58q-68 0 -129 -20q-35 -115 -35 -213zM424 14 l756 1227l51 -20l-758 -1229zM973 279q0 141 56 223t175 82q113 0 166 -75t53 -220q0 -137 -61.5 -221t-179.5 -84q-103 0 -156 73.5t-53 221.5zM1034 291q0 -131 35 -189.5t119 -58.5q80 0 139 23q35 102 35 210q0 131 -36 189.5t-128 58.5q-68 0 -129 -20 q-35 -115 -35 -213z" />
<glyph unicode="&#x26;" horiz-adv-x="1462" d="M221 328q0 139 68.5 223t214.5 139v12q-63 59 -93 120t-30 143q0 131 83 197.5t234 66.5q98 0 179 -29t131 -76v-45q0 -68 -19 -129h-31l-16 164q-109 51 -244 51q-125 0 -188.5 -50t-63.5 -148q0 -84 27 -134.5t105 -125.5l378 -371q23 74 35.5 140.5t24.5 160.5l71 -16 q-29 -190 -75 -326l266 -268l-51 -35l-226 225h-12q-27 -104 -69 -180q-61 -25 -122 -35t-165 -10q-191 0 -301.5 86t-110.5 250zM287 328q0 -137 95 -205t255 -68q84 0 130 5.5t99 21.5q20 33 39 87t31 105l-389 373q-260 -84 -260 -319z" />
<glyph unicode="'" horiz-adv-x="468" d="M203 1135q-4 63 4 114h55q8 -51 4 -114l-16 -269h-31z" />
<glyph unicode="(" horiz-adv-x="722" d="M236 -70v1389q16 84 139 129q63 0 119 -6v-64h-189v-1507h189v-64q-55 -6 -119 -6q-123 45 -139 129z" />
<glyph unicode=")" horiz-adv-x="722" d="M229 -129h189v1507h-189v64q55 6 119 6q123 -45 139 -129v-1389q-16 -84 -139 -129q-64 0 -119 6v64z" />
<glyph unicode="*" horiz-adv-x="1048" d="M205 1047l20 65l275 -106l4 4l-19 311h78l-18 -311l4 -4l274 106l21 -65l-279 -80l-2 -6l197 -248l-58 -41l-174 262h-8l-174 -262l-57 41l196 248l-2 6z" />
<glyph unicode="+" horiz-adv-x="1187" d="M184 596v59h379v381h62v-381h379v-59h-379v-416h-62v416h-379z" />
<glyph unicode="," horiz-adv-x="487" d="M158 121v49q31 10 67 10q109 0 109 -119q0 -141 -92 -258l-45 11q39 70 57 138t18 169h-114z" />
<glyph unicode="-" horiz-adv-x="757" d="M133 543v61h492v-61h-492z" />
<glyph unicode="." horiz-adv-x="479" d="M184 0v111h111v-111h-111z" />
<glyph unicode="/" horiz-adv-x="1001" d="M201 -168l536 1516l64 -17l-535 -1515z" />
<glyph unicode="0" horiz-adv-x="1310" d="M195 598q0 301 105.5 466t377.5 165q221 0 329.5 -149.5t108.5 -456.5q0 -301 -105.5 -466t-377.5 -165q-221 0 -329.5 149.5t-108.5 456.5zM260 612q0 -201 39 -321.5t125 -178t227 -57.5q74 0 151 14.5t138 36.5q111 227 111 502q0 201 -39 322t-125 178t-228 57 q-74 0 -150.5 -14t-137.5 -37q-111 -227 -111 -502z" />
<glyph unicode="1" horiz-adv-x="802" d="M164 1085l285 144q39 -6 65.5 -28.5t26.5 -43.5v-1157h-66v1135l-20 16l-273 -113z" />
<glyph unicode="2" horiz-adv-x="1185" d="M190 0v96q317 215 498.5 416t181.5 391q0 143 -65.5 202.5t-216.5 59.5q-137 0 -291 -49v-196h-39q-27 86 -27 178v47q96 43 178.5 63.5t190.5 20.5q170 0 253 -79t83 -237q0 -225 -183.5 -432t-486.5 -407v-15h654v164h41q25 -80 24 -170v-53h-795z" />
<glyph unicode="3" horiz-adv-x="1114" d="M176 37l12 59q160 -41 338 -41q76 0 130.5 6.5t123.5 20.5q55 84 56 233q0 133 -71 196.5t-228 63.5h-166v64h166q143 0 213.5 66.5t70.5 191.5q0 137 -70.5 202.5t-211.5 65.5q-131 0 -289 -37v-182h-41q-25 80 -25 150v61q100 37 181 54.5t186 17.5q336 0 336 -324 q0 -109 -44 -176t-143 -113v-12q117 -39 159 -107.5t42 -181.5q0 -150 -81 -236.5t-296 -86.5q-174 0 -348 45z" />
<glyph unicode="4" horiz-adv-x="1198" d="M156 352l632 877h66v-893h176v-64h-176v-272h-66v272h-608zM227 348l4 -12h557v440l15 352h-12z" />
<glyph unicode="5" horiz-adv-x="1116" d="M193 39l10 63q182 -47 346 -47q84 0 142.5 8.5t125.5 30.5q53 129 53 285q0 109 -28.5 170t-88 85.5t-161.5 24.5q-141 0 -281 -47l-80 62l39 555h580v-64h-522l-35 -495q94 29 163.5 41t149.5 12q330 0 330 -332q0 -133 -34 -219t-121 -133t-244 -47q-95 0 -174.5 11 t-169.5 36z" />
<glyph unicode="6" horiz-adv-x="1107" d="M193 471q0 248 118.5 426t333.5 324l57 -31q-188 -129 -289.5 -258t-146.5 -316q176 104 361 105q160 0 244.5 -85t84.5 -257q0 -166 -79.5 -272.5t-290.5 -106.5q-193 0 -293 124t-100 347zM258 471q0 -408 334 -408q76 0 129 8.5t115 26.5q55 117 55 281 q0 143 -69.5 210.5t-213.5 67.5q-174 0 -346 -106q-4 -29 -4 -80z" />
<glyph unicode="7" horiz-adv-x="1140" d="M180 1161v68h787v-94q-193 -276 -298.5 -536.5t-170.5 -590.5l-68 6q70 350 181.5 618.5t289.5 520.5v12h-655v-188h-39q-27 74 -27 184z" />
<glyph unicode="8" horiz-adv-x="1202" d="M205 322q0 115 44 184t136 131v12q-76 47 -112.5 104.5t-36.5 147.5q0 156 99 242t302 86q164 0 249 -88t85 -250q0 -94 -35 -158.5t-107 -111.5v-13q92 -55 130 -123.5t38 -167.5q0 -164 -86 -244.5t-307 -80.5q-201 0 -300 84t-99 246zM270 326q0 -145 85 -208t280 -63 q151 1 264 54q33 84 33 190q0 158 -75 227.5t-253 69.5q-129 0 -229 -16q-55 -45 -80 -108.5t-25 -145.5zM301 913q0 -145 88 -204.5t264 -59.5q68 0 117 9.5t102 29.5q33 84 33 184q0 158 -71.5 225.5t-229.5 67.5q-125 0 -254 -43q-49 -106 -49 -209z" />
<glyph unicode="9" horiz-adv-x="1110" d="M152 811q0 410 389 410q195 0 286 -128t91 -358q0 -250 -117 -417.5t-338 -317.5l-55 33q133 92 213.5 163.5t135 163t85.5 215.5q-88 -57 -167 -83.5t-194 -26.5q-150 0 -239.5 89t-89.5 257zM217 811q0 -141 74 -212t205 -71q108 0 185 26t165 85q6 43 6 96 q0 211 -78 316.5t-239 105.5q-139 0 -252 -35q-35 -74 -50.5 -148.5t-15.5 -162.5z" />
<glyph unicode=":" horiz-adv-x="479" d="M184 45v111h111v-111h-111zM184 731v111h111v-111h-111z" />
<glyph unicode=";" horiz-adv-x="544" d="M184 221v49q31 10 68 11q109 0 108 -119q0 -141 -92 -258l-45 10q39 70 57.5 138.5t18.5 168.5h-115zM213 731v111h111v-111h-111z" />
<glyph unicode="&#x3c;" horiz-adv-x="1263" d="M195 471v74l813 393l20 -76l-752 -348v-12l752 -348l-20 -76z" />
<glyph unicode="=" horiz-adv-x="1208" d="M225 268v62h758v-62h-758zM225 676v61h758v-61h-758z" />
<glyph unicode="&#x3e;" horiz-adv-x="1263" d="M236 154l751 348v12l-751 348l20 76l813 -393v-74l-813 -393z" />
<glyph unicode="?" horiz-adv-x="1132" d="M205 1157v45q68 29 168 49.5t209 20.5q180 0 259 -76t79 -242q0 -90 -20.5 -144t-82.5 -101l-231 -174q-33 -25 -41 -41.5t-8 -59.5v-119h-66v136q0 43 13.5 67.5t47.5 50.5l322 240v154q0 131 -64.5 188t-211.5 57q-160 0 -308 -41v-159h-39q-27 76 -26 149zM467 0v152 h74v-152h-74z" />
<glyph unicode="@" horiz-adv-x="1691" d="M215 551q0 195 76 351.5t228.5 247.5t373.5 91q193 0 325 -75.5t198.5 -206t66.5 -289.5q0 -176 -70 -293t-227 -117q-106 0 -187 96h-12q-43 -55 -95 -83.5t-122 -28.5q-92 0 -147.5 64.5t-55.5 172.5q0 104 35 193.5t100.5 142.5t151.5 53q100 0 174 -98h12l35 76 l39 -6l-92 -453q68 -72 172 -72q49 0 83 5.5t73 17.5q74 115 73 324q0 231 -134 376.5t-396 145.5q-201 0 -340 -82t-209 -225.5t-70 -327.5q0 -313 171 -465t477 -152q125 0 214 20.5t175 63.5l24 -45q-86 -49 -188.5 -71.5t-233.5 -22.5q-335 0 -516.5 174t-181.5 498z M629 485q0 -96 38 -140t119 -44q101 0 179 88l59 330q-37 47 -76 70.5t-92 23.5q-104 0 -165.5 -94t-61.5 -234z" />
<glyph unicode="A" d="M96 12q211 752 391 1237h189q180 -485 391 -1237l-66 -12q-57 217 -131 453h-577q-74 -236 -131 -453zM313 514h537q-137 457 -219 672h-99q-82 -215 -219 -672z" />
<glyph unicode="B" horiz-adv-x="1067" d="M184 0v1231q158 39 310 39q201 0 297 -87t96 -241q0 -190 -170 -303v-8q231 -78 231 -287q0 -170 -98 -257t-350 -87h-316zM248 61h248q158 0 242.5 33t114.5 93.5t30 154.5q0 117 -87 191.5t-241 74.5h-307v-547zM248 672h442q70 57 100.5 120.5t30.5 147.5 q0 135 -86 200.5t-254 65.5q-106 0 -233 -24v-510z" />
<glyph unicode="C" horiz-adv-x="1103" d="M127 604q0 295 126 480.5t386 185.5q98 0 169 -18.5t134 -53.5v-63q0 -33 -4 -72t-10 -59h-33l-23 176q-113 26 -227 26h-8q-137 0 -266 -45q-92 -113 -135 -248t-43 -309q0 -561 452 -561q100 0 176 20.5t146 61.5l32 -49q-137 -96 -358 -96q-256 0 -385 161.5 t-129 462.5z" />
<glyph unicode="D" horiz-adv-x="1138" d="M184 0v1237q164 33 318 33q272 0 399 -152.5t127 -466.5q0 -283 -108.5 -467t-366.5 -184h-369zM250 63h295q78 0 131 7.5t110 27.5q176 170 177 547q0 293 -113 427t-356 134q-109 0 -244 -20v-1123z" />
<glyph unicode="E" horiz-adv-x="1050" d="M184 98v1151h697v-63h-631v-522h571v-64h-571v-526q86 -18 160.5 -25.5t177.5 -7.5q154 0 301 29l16 -60q-142 -30 -312 -30h-11q-179 0 -288.5 27.5t-109.5 90.5z" />
<glyph unicode="F" horiz-adv-x="983" d="M186 0v1262h715v-64h-649v-536h545v-58h-545v-604h-66z" />
<glyph unicode="G" horiz-adv-x="1173" d="M127 604q0 295 131 480.5t404 185.5q100 0 185 -19.5t144 -52.5v-63q0 -33 -4 -72t-10 -59h-33l-22 176q-113 26 -256 26h-11q-156 0 -284 -45q-92 -113 -135 -248t-43 -309q0 -281 116.5 -421t335.5 -140q102 0 170 15.5t137 47.5v463h-284v64h284l66 -49v-404 q0 -92 -101.5 -146t-275.5 -54q-250 0 -382 160.5t-132 463.5z" />
<glyph unicode="H" horiz-adv-x="1183" d="M184 0v1249h66v-612h684v612h65v-1249h-65v573h-684v-573h-66z" />
<glyph unicode="I" horiz-adv-x="446" d="M190 0v1249h66v-1249h-66z" />
<glyph unicode="J" horiz-adv-x="831" d="M66 25l20 61q119 -43 252 -43q139 0 227 49q20 55 21 133v1037h65v-1041q0 -127 -78.5 -184t-244.5 -57q-131 0 -262 45z" />
<glyph unicode="K" horiz-adv-x="1173" d="M186 0v1249h64v-567h248q74 0 121 25.5t75.5 62.5t61.5 100q94 172 182 379l59 -24q-88 -201 -186 -375q-8 -12 -32.5 -56t-55.5 -74t-78 -58v-13q70 -31 105.5 -66.5t68.5 -107.5l191 -420l98 -14v-39q-37 -12 -70 -12q-39 0 -61.5 16.5t-38.5 48.5l-170 377 q-45 96 -100.5 142.5t-159.5 46.5h-258v-621h-64z" />
<glyph unicode="L" horiz-adv-x="929" d="M186 0v1249h66v-1186h602v-63h-668z" />
<glyph unicode="M" horiz-adv-x="1363" d="M164 0l67 1249h60l385 -780h12l385 780h60l67 -1249h-65l-35 655l-17 459l-12 2l-354 -715h-70l-354 715l-12 -2l-17 -459l-35 -655h-65z" />
<glyph unicode="N" horiz-adv-x="1234" d="M184 0v1249h74l729 -1149l12 4l-12 486v659h64v-1249h-74l-729 1149l-12 -4l12 -486v-659h-64z" />
<glyph unicode="O" horiz-adv-x="1216" d="M131 610q0 315 112.5 487.5t389.5 172.5q238 0 345 -158t107 -473t-112.5 -487t-388.5 -172q-238 0 -345.5 157.5t-107.5 472.5zM197 625q0 -201 38.5 -327t130 -190.5t248.5 -64.5q74 0 147 17.5t126 48.5q133 188 133 516q0 201 -39 326.5t-130 190t-249 64.5 q-74 0 -146.5 -17.5t-125.5 -47.5q-133 -188 -133 -516z" />
<glyph unicode="P" horiz-adv-x="1028" d="M186 0v1223q88 23 162 35t154 12q223 0 330.5 -102.5t107.5 -309.5q0 -209 -91 -310.5t-319 -101.5h-278v-446h-66zM252 510h268q92 0 148.5 7t122.5 30q83 108 83 300q0 191 -91 275t-285 84q-139 0 -246 -28v-668z" />
<glyph unicode="Q" horiz-adv-x="1226" d="M131 610q0 313 114.5 486.5t391.5 173.5q238 0 346.5 -158t108.5 -473q0 -313 -115 -486t-391 -173q-31 0 -45 2v-181q106 -20 196 -20q127 0 242 20l14 -57q-68 -14 -121 -19.5t-133 -5.5q-65 0 -138 11.5t-126 27.5v64l29 164q-195 25 -284 180.5t-89 443.5zM197 625 q0 -209 38.5 -335t130 -186.5t250.5 -60.5q74 0 150 17.5t127 48.5q133 188 133 516q0 209 -39 334.5t-130 186t-251 60.5q-74 0 -149.5 -17.5t-126.5 -47.5q-133 -188 -133 -516z" />
<glyph unicode="R" horiz-adv-x="1146" d="M184 0v1231q158 39 310 39q213 0 310 -92.5t97 -270.5q0 -115 -52 -197.5t-153 -142.5v-12q53 -25 80 -57.5t62 -104.5l149 -338l100 -14v-39q-33 -12 -71 -12q-39 0 -61.5 16.5t-39.5 48.5l-131 295q-29 66 -54 102.5t-76.5 62.5t-139.5 26h-266v-541h-64zM248 604h418 q88 61 129 128t41 173q0 156 -85 228.5t-270 72.5q-106 0 -233 -24v-578z" />
<glyph unicode="S" horiz-adv-x="1040" d="M123 57l24 58q88 -39 173.5 -56.5t185.5 -17.5q168 0 268 68q47 80 47 198q0 121 -71.5 182.5t-231.5 102.5q-176 45 -273.5 116.5t-97.5 217.5q0 156 86 250t304 94q102 0 176.5 -16.5t138.5 -49.5v-45q0 -76 -25 -160h-41l-12 191q-139 18 -250 18q-164 0 -237.5 -65.5 t-73.5 -200.5q0 -84 37 -137t106.5 -85t190.5 -63q188 -47 265 -116.5t77 -194.5q0 -166 -84 -266t-305 -100h-5q-202 0 -372 77z" />
<glyph unicode="T" horiz-adv-x="1034" d="M78 1186v63h878v-63h-405v-1186h-66v1186h-407z" />
<glyph unicode="U" horiz-adv-x="1198" d="M176 338v911h66v-889q0 -123 37.5 -192.5t117.5 -97t213 -27.5q197 0 342 63v1143h66v-1106q0 -74 -116 -118.5t-306 -44.5q-213 0 -316.5 87t-103.5 271z" />
<glyph unicode="V" horiz-adv-x="1165" d="M100 1251l70 9q68 -293 182.5 -637t208.5 -560h43q94 215 209 559.5t182 637.5l70 -9q-82 -328 -192.5 -660.5t-229.5 -590.5h-121q-119 258 -229.5 591t-192.5 660z" />
<glyph unicode="W" horiz-adv-x="1671" d="M109 1249l69 13q61 -315 141 -634t154 -565h12q92 205 184.5 453t157.5 475q-35 154 -51 246l66 10q57 -287 152.5 -607.5t191.5 -576.5h12q74 246 154 564.5t141 634.5l70 -13q-156 -715 -322 -1249h-90q-98 258 -160.5 452.5t-122.5 413.5h-14q-125 -403 -338 -866h-86 q-165 534 -321 1249z" />
<glyph unicode="X" horiz-adv-x="1241" d="M113 12q88 156 197.5 319t215.5 298q-182 248 -385 616l70 21q164 -317 367 -600h86q203 283 366 600l70 -21q-203 -369 -385 -616q106 -135 215.5 -298t197.5 -319l-67 -22q-80 147 -174 287.5t-228 316.5h-77q-133 -176 -227.5 -316.5t-174.5 -287.5z" />
<glyph unicode="Y" horiz-adv-x="1191" d="M70 1241l65 23q78 -201 188.5 -388.5t231.5 -338.5h82q121 152 231.5 339t188.5 388l65 -23q-94 -221 -211.5 -416.5t-244.5 -343.5h-37v-481h-66v481h-37q-127 147 -244.5 343t-211.5 417z" />
<glyph unicode="Z" horiz-adv-x="1099" d="M133 0v100l760 1074v12h-660v-150h-36q-27 88 -27 166v47h788v-92l-759 -1081v-13h710v162h37q27 -76 27 -178v-47h-840z" />
<glyph unicode="[" horiz-adv-x="555" d="M184 -174v1622h193v-62h-127v-1501h127v-59h-193z" />
<glyph unicode="\" horiz-adv-x="864" d="M150 1276l63 16l502 -1304l-66 -17z" />
<glyph unicode="]" horiz-adv-x="555" d="M178 -115h127v1501h-127v62h193v-1622h-193v59z" />
<glyph unicode="^" horiz-adv-x="1173" d="M170 600l379 649h76l379 -649l-68 -31l-344 590h-10l-344 -590z" />
<glyph unicode="_" horiz-adv-x="1126" d="M154 0h819v-49h-819v49z" />
<glyph unicode="`" horiz-adv-x="600" d="M82 1827l92 10l172 -285l-39 -8z" />
<glyph unicode="a" horiz-adv-x="927" d="M106 207q0 150 103.5 228.5t298.5 78.5q94 0 192 -12v157q0 137 -56 193.5t-189 56.5q-86 0 -193 -14l-20 -139h-45q-14 45 -15 110v19q66 37 149 59.5t167 22.5q127 0 195.5 -73t68.5 -214v-680h-47l-8 137h-13q-124 -157 -324 -157h-3q-127 0 -194 61t-67 166zM221 78 q53 -41 160 -41q102 0 185 47t139 129v229q-113 12 -228 13q-137 0 -244 -27q-65 -93 -65 -202q0 -107 53 -148z" />
<glyph unicode="b" horiz-adv-x="1024" d="M180 23v1339h62v-363l-11 -182h17q86 74 167 112t179 38q152 0 231.5 -120t79.5 -339q0 -528 -426 -528q-133 0 -299 43zM242 68q115 -29 241 -29q185 0 273 114.5t88 348.5q0 207 -64.5 306t-193.5 99q-96 0 -179 -40t-165 -119v-680z" />
<glyph unicode="c" horiz-adv-x="909" d="M127 424q0 250 92 396.5t299 146.5q137 0 256 -72v-39q0 -82 -18 -135h-33l-10 164q-90 20 -201 20q-131 0 -225 -43q-51 -92 -75 -191.5t-24 -240.5q0 -186 87 -287.5t251 -101.5q152 0 269 84l36 -47q-61 -47 -134.5 -72.5t-174.5 -25.5q-196 0 -295.5 115.5 t-99.5 328.5z" />
<glyph unicode="d" horiz-adv-x="1034" d="M127 479q0 207 89 347.5t271 140.5q92 0 159 -32t140 -97h15l-10 186v338h61v-1362h-45l-6 141h-15q-49 -70 -127.5 -115.5t-175.5 -45.5q-182 0 -269 129t-87 370zM188 473q0 -211 69 -322.5t235 -111.5q102 0 177.5 51t121.5 131v551q-82 74 -144.5 104.5t-144.5 30.5 q-158 0 -236 -111.5t-78 -322.5z" />
<glyph unicode="e" horiz-adv-x="935" d="M127 473q0 233 94 363.5t287 130.5q145 0 236.5 -94.5t91.5 -264.5q0 -49 -5 -76l-77 -83h-566q6 -207 84 -308.5t244 -101.5q88 0 149.5 15.5t122.5 47.5l23 -51q-66 -35 -131.5 -53t-163.5 -18h-2q-387 0 -387 493zM188 500l582 10q10 33 10 94q0 139 -71.5 221 t-206.5 82q-162 0 -230.5 -102.5t-83.5 -304.5z" />
<glyph unicode="f" horiz-adv-x="632" d="M86 891l8 59h129v193q0 74 38 127t93 84q59 14 113 14q76 0 137 -20l-18 -54q-51 14 -131 15q-74 0 -146 -19q-24 -67 -24 -145v-6v-189h215l-8 -59h-207v-891h-62v891h-137z" />
<glyph unicode="g" horiz-adv-x="1005" d="M131 473q0 236 87 366t263 130q94 0 162 -43t119 -117h12l6 149h51v-1097q0 -240 -337 -240q-164 1 -301 64l20 53q135 -57 279 -57q98 0 164.5 15t115.5 48v297l6 119h-14q-121 -152 -299 -152q-164 0 -249 123t-85 342zM193 475q0 -407 277 -407h1q98 0 170 44t131 119 v502q-125 176 -289 176q-152 0 -221 -110.5t-69 -323.5z" />
<glyph unicode="h" horiz-adv-x="1032" d="M182 0v1362h62v-354l-8 -195h12q182 154 385 154q225 0 225 -152v-815h-61v879q-43 16 -81 22t-95 6q-98 0 -203 -44t-174 -111v-752h-62z" />
<glyph unicode="i" horiz-adv-x="423" d="M180 0v948h62v-948h-62zM182 1135v172h62v-172h-62z" />
<glyph unicode="j" horiz-adv-x="507" d="M-39 -352l14 55q66 -16 140 -16q80 0 135 20q12 35 16 73t4 95v1075h62v-1083q0 -117 -54.5 -178.5t-164.5 -61.5q-84 1 -152 21zM272 1135v172h62v-172h-62z" />
<glyph unicode="k" horiz-adv-x="962" d="M174 0v1362h62v-827h143q113 0 171 47t101 139l111 237l59 -22l-116 -246q-37 -76 -78 -115.5t-115 -60.5v-12q80 -25 124 -69t81 -124l121 -264l80 -10v-39q-33 -6 -60 -6q-61 0 -88 57l-104 229q-49 106 -108.5 152.5t-168.5 46.5h-153v-475h-62z" />
<glyph unicode="l" horiz-adv-x="528" d="M170 129v1233h61v-1210q0 -43 5.5 -62.5t19.5 -46.5h33l143 63l29 -34q-80 -63 -182 -84q-48 26 -78.5 64t-30.5 77z" />
<glyph unicode="m" horiz-adv-x="1611" d="M180 0v950h49l7 -135h12q182 152 373 152q213 0 213 -152h12q182 152 373 152q113 0 166 -38t53 -118v-811h-62v877q-41 16 -74.5 23t-89.5 7q-96 0 -195 -39t-177 -110v-758h-62v877q-41 16 -74.5 23t-89.5 7q-96 0 -195.5 -39t-176.5 -110v-758h-62z" />
<glyph unicode="n" horiz-adv-x="1030" d="M180 0v950h47l6 -137h13q182 154 385 154q225 0 225 -152v-815h-61v879q-43 16 -81 22t-96 6q-98 0 -202.5 -44t-173.5 -111v-752h-62z" />
<glyph unicode="o" horiz-adv-x="1007" d="M127 461q0 242 86 383t313 141q172 0 263.5 -128t91.5 -353q0 -242 -86 -383t-314 -141q-172 0 -263 128t-91 353zM188 477q0 -438 308 -438q145 0 235 55q39 61 63.5 170t24.5 223q0 438 -307 439q-145 0 -236 -56q-39 -61 -63.5 -169.5t-24.5 -223.5z" />
<glyph unicode="p" horiz-adv-x="1054" d="M182 -383v1333h54l8 -141h14q90 82 174 121t178 39q154 0 236 -121t82 -367q0 -229 -87 -355t-272 -126q-86 0 -168 34t-149 95h-14l6 -190v-322h-62zM244 203q137 -143 325 -144q158 0 227.5 108.5t69.5 315.5q0 217 -63.5 321.5t-202.5 104.5q-94 0 -188.5 -48 t-167.5 -128v-530z" />
<glyph unicode="q" horiz-adv-x="1024" d="M119 440q0 528 426 529q78 0 147.5 -12.5t151.5 -36.5v-1334h-62v371l11 184h-17q-57 -61 -132 -101t-183 -40q-164 0 -253 121t-89 319zM180 446q0 -182 73 -284.5t214 -102.5q102 0 183 43t132 109v670q-111 28 -233 28h-8q-184 0 -272.5 -114.5t-88.5 -348.5z" />
<glyph unicode="r" horiz-adv-x="718" d="M180 0v946h45l6 -174h13q117 186 325 186q12 0 29.5 -12t28.5 -24l-9 -37h-73q-109 0 -184.5 -50.5t-118.5 -134.5v-700h-62z" />
<glyph unicode="s" horiz-adv-x="827" d="M115 35l22 55q72 -29 135.5 -40t145.5 -11q115 0 200 33q31 74 31 161q0 68 -20.5 107t-64.5 61.5t-128 42.5q-160 39 -233.5 94.5t-73.5 168.5t76 186.5t244 73.5q129 0 219 -49v-33q0 -51 -19 -115h-28l-13 127q-80 12 -168 12q-133 0 -191.5 -46t-58.5 -138 q0 -66 24 -102.5t79 -61t164 -55.5q139 -37 196.5 -93.5t57.5 -160.5q0 -115 -69 -193.5t-239 -78.5q-165 0 -288 55z" />
<glyph unicode="t" horiz-adv-x="708" d="M78 891l8 59h152v269h63v-269h313l-8 -59h-305v-696q0 -47 4 -71t14 -56q63 -16 136 -17q94 0 155 31l21 -53q-29 -16 -75 -26.5t-91 -10.5q-62 0 -115 12q-55 29 -83.5 67t-28.5 101v719h-160z" />
<glyph unicode="u" horiz-adv-x="1019" d="M172 131v819h61v-882q43 -16 81 -22.5t94 -6.5q106 0 204.5 48t165.5 120v743h62v-950h-47l-7 145h-12q-92 -84 -179 -124.5t-198 -40.5q-108 0 -166.5 37.5t-58.5 113.5z" />
<glyph unicode="v" horiz-adv-x="962" d="M84 948l66 8q74 -240 159.5 -481.5t157.5 -413.5h29q72 172 157.5 414t159.5 481l66 -8q-170 -524 -349 -948h-98q-178 424 -348 948z" />
<glyph unicode="w" horiz-adv-x="1419" d="M92 948l62 8q131 -539 256 -893h22q137 362 248 699q-23 84 -31 131l-10 41l55 10q53 -217 119 -427t148 -454h28q117 311 277 895l61 -8q-96 -330 -161.5 -537.5t-143.5 -412.5h-94q-135 381 -217 662h-13q-63 -201 -237 -662h-86q-158 442 -283 948z" />
<glyph unicode="x" horiz-adv-x="958" d="M88 4q172 287 309 477q-135 180 -303 463l60 12q141 -254 284 -448h84q143 195 285 448l59 -12q-168 -283 -303 -463q127 -174 307 -477l-57 -14q-131 236 -289 463h-88q-158 -227 -289 -463z" />
<glyph unicode="y" horiz-adv-x="976" d="M92 950l64 8q129 -463 280 -852h131q154 467 244 852l61 -8q-74 -311 -173 -622.5t-203 -567.5q-29 -70 -78 -96t-133 -26h-7q-88 0 -145 26v37q0 49 14 106h48v-104q49 -8 110 -8q63 0 109 12q55 115 131 340h-144q-98 242 -166.5 444.5t-142.5 458.5z" />
<glyph unicode="z" horiz-adv-x="882" d="M127 0v90l547 789v12h-465l-8 -123h-41q-14 68 -15 129v53h590v-94l-547 -784v-13h508l9 136h38q16 -70 17 -132v-63h-633z" />
<glyph unicode="{" horiz-adv-x="813" d="M154 618v60q262 0 243 301l-10 149q-2 20 -2 56q0 160 70.5 236.5t224.5 90.5v-63q-55 -4 -97 -15.5t-102 -33.5q-18 -82 -24 -143.5t-4 -135.5l8 -174q10 -238 -180 -291v-14q190 -53 180 -291l-8 -207q-2 -74 4 -135t24 -143q59 -23 101.5 -34t97.5 -15v-64 q-154 15 -224.5 91.5t-70.5 236.5q0 35 2 55l10 182q18 301 -243 301z" />
<glyph unicode="|" horiz-adv-x="452" d="M199 -287v1557h55v-1557h-55z" />
<glyph unicode="}" horiz-adv-x="813" d="M133 -184q55 4 97 15t102 34q18 82 24 143.5t4 134.5l-8 207q-10 238 180 291v14q-190 53 -180 291l8 174q2 74 -4 135.5t-24 143.5q-59 23 -101.5 34t-97.5 15v63q154 -14 224.5 -91t70.5 -236q0 -35 -2 -56l-10 -149q-18 -301 243 -301v-60q-262 0 -243 -301l10 -182 q2 -20 2 -55q0 -160 -70.5 -236.5t-224.5 -91.5v64z" />
<glyph unicode="~" horiz-adv-x="905" d="M133 496q14 96 57 140t117 44q47 0 85 -19.5t83 -54.5q39 -29 63.5 -42t53.5 -13q55 0 82.5 32.5t42.5 98.5l55 -8q-14 -96 -57 -140.5t-117 -44.5q-43 0 -81 18.5t-83 53.5q-37 29 -64.5 43t-56.5 14q-55 0 -82.5 -32.5t-42.5 -98.5z" />
<glyph unicode="&#xa1;" horiz-adv-x="446" d="M186 1098v151h74v-151h-74zM190 0v422l13 467h41l12 -465v-424h-66z" />
<glyph unicode="&#xa2;" horiz-adv-x="909" d="M133 424q0 512 338 541v284h64v-282q119 -4 233 -72v-39q0 -82 -18 -135h-33l-10 164q-90 20 -201 20q-131 0 -225 -43q-86 -176 -86 -432q0 -188 80.5 -288.5t244.5 -100.5q152 0 268 84l37 -47q-59 -45 -128.5 -70.5t-161.5 -27.5v-275h-64v277q-172 14 -255 127.5 t-83 314.5z" />
<glyph unicode="&#xa3;" horiz-adv-x="1091" d="M133 10v39l135 12v478h-133v61h133v318q0 164 93.5 247.5t289.5 83.5q78 0 135.5 -9t126.5 -32l-14 -55q-70 18 -123 25.5t-119 7.5q-78 0 -144.5 -9.5t-137.5 -31.5q-23 -74 -32 -123t-9 -115v-307h422v-61h-422v-478q127 -10 293 -10q139 0 342 17v-58 q-209 -18 -381 -18q-234 0 -455 18z" />
<glyph unicode="&#xa4;" horiz-adv-x="1142" d="M160 215l135 139q-43 59 -61.5 114.5t-18.5 127.5t18.5 127t61.5 115l-135 139l43 41l139 -135q57 41 110.5 60.5t122.5 19.5q70 0 123.5 -19.5t110.5 -60.5l139 135l43 -41l-135 -139q43 -59 61.5 -114.5t18.5 -127.5t-18.5 -127t-61.5 -115l135 -139l-43 -41l-139 135 q-57 -41 -110.5 -60.5t-123.5 -19.5t-123 19.5t-110 60.5l-139 -135zM276 596q0 -129 81 -215t218 -86q138 0 218.5 86t80.5 215t-80.5 215t-218.5 86q-137 0 -218 -86t-81 -215z" />
<glyph unicode="&#xa5;" horiz-adv-x="1261" d="M104 1241l66 23q78 -201 188.5 -388.5t231.5 -338.5h82q121 152 231.5 339t188.5 388l65 -23q-178 -416 -414 -709h158v-57h-237v-184h237v-58h-237v-233h-66v233h-236v58h236v184h-236v57h156q-115 143 -221.5 324.5t-192.5 384.5z" />
<glyph unicode="&#xa6;" horiz-adv-x="452" d="M199 -225v647h55v-647h-55zM199 623v647h55v-647h-55z" />
<glyph unicode="&#xa7;" horiz-adv-x="1093" d="M158 522q0 88 42 143.5t136 108.5v12q-57 43 -86 91.5t-29 119.5q0 127 91 197t263 70q135 0 244 -45v-35q0 -61 -18 -127h-33l-12 123q-92 20 -187 20q-135 0 -208.5 -48t-73.5 -148q0 -74 32.5 -120t101 -76t191.5 -56q123 -27 190.5 -55.5t100.5 -78t33 -131.5 q0 -96 -46 -154.5t-155 -121.5v-12q47 -33 68.5 -78t21.5 -107q0 -125 -76.5 -199.5t-248.5 -74.5q-78 0 -140.5 8t-138.5 33l23 57q68 -20 123 -27.5t135 -7.5q68 0 118 7.5t109 21.5q14 33 22.5 82t8.5 90q0 72 -26.5 112t-92.5 69.5t-205 72.5q-152 45 -215 104.5 t-63 159.5zM223 526q0 -78 50.5 -121t181.5 -88q123 -41 237 -84q78 52 128 110t50 132q0 63 -21.5 100t-79.5 63t-179 54q-94 23 -199 58q-92 -43 -130 -91.5t-38 -132.5z" />
<glyph unicode="&#xa8;" horiz-adv-x="757" d="M162 1075q0 27 15.5 41t41.5 14q55 0 55 -55q0 -27 -14 -41t-41 -14q-26 0 -41.5 14.5t-15.5 40.5zM483 1075q0 55 60 55q55 0 55 -55q0 -27 -14.5 -41t-40.5 -14q-29 0 -44.5 14.5t-15.5 40.5z" />
<glyph unicode="&#xa9;" horiz-adv-x="1515" d="M154 631q0 182 70.5 318t206.5 212t327 76q190 0 326.5 -76t207 -212t70.5 -318t-70.5 -318.5t-207 -212t-326.5 -75.5q-191 0 -327 75.5t-206.5 212t-70.5 318.5zM193 631q0 -264 149.5 -417t415.5 -153t415.5 153t149.5 417t-149.5 416.5t-415.5 152.5t-415.5 -152.5 t-149.5 -416.5zM465 612q0 166 73.5 277.5t215.5 111.5q63 0 116.5 -14t83.5 -35v-30q0 -53 -16 -107h-37l-8 117q-66 10 -145 10q-80 0 -142 -10q-80 -133 -80 -322q0 -147 64.5 -224t179.5 -77q59 0 96 7.5t78 25.5l25 -53q-43 -20 -90.5 -29.5t-108.5 -9.5 q-145 0 -225 99.5t-80 262.5z" />
<glyph unicode="&#xaa;" horiz-adv-x="718" d="M119 713q0 104 80 160.5t217 56.5q66 0 121 -12v137q0 88 -31 117.5t-121 29.5q-84 0 -164 -18l-10 -82h-31q-8 41 -8 84v26q111 49 238 50q186 0 186 -191v-518h-47l-6 106h-13q-43 -53 -97 -84.5t-134 -31.5q-88 0 -134 48t-46 122zM180 729q0 -66 29 -96.5t106 -30.5 q72 0 124.5 32t97.5 91v135q-72 14 -152 14q-82 0 -172 -18q-33 -53 -33 -127z" />
<glyph unicode="&#xab;" horiz-adv-x="972" d="M143 514l267 346l41 -16l-244 -326v-8l244 -326l-41 -16zM471 514l266 346l41 -16l-243 -326v-8l243 -326l-41 -16z" />
<glyph unicode="&#xac;" horiz-adv-x="905" d="M133 610v60h639v-359h-61v299h-578z" />
<glyph unicode="&#xad;" horiz-adv-x="638" d="M133 502v61h373v-61h-373z" />
<glyph unicode="&#xae;" horiz-adv-x="1515" d="M154 631q0 182 70.5 318t206.5 212t327 76q190 0 326.5 -76t207 -212t70.5 -318t-70.5 -318.5t-207 -212t-326.5 -75.5q-191 0 -327 75.5t-206.5 212t-70.5 318.5zM193 631q0 -264 149.5 -417t415.5 -153t415.5 153t149.5 417t-149.5 416.5t-415.5 152.5t-415.5 -152.5 t-149.5 -416.5zM537 279v727q100 23 176 22q141 0 201.5 -57.5t60.5 -165.5q0 -156 -144 -201v-4q57 -20 89 -82l90 -194l49 -11v-30q-27 -10 -51 -11q-39 1 -64 52l-74 155q-29 59 -62.5 85t-96.5 26h-113v-311h-61zM598 649h98q123 0 170 35t47 115q0 90 -45 130t-149 40 q-66 0 -121 -8v-312z" />
<glyph unicode="&#xaf;" horiz-adv-x="790" d="M133 1141v59h524v-59h-524z" />
<glyph unicode="&#xb0;" horiz-adv-x="808" d="M123 895q0 160 82 248t246 88q293 0 292 -289q0 -160 -81.5 -248t-245.5 -88q-293 0 -293 289zM199 911q0 -135 54 -186t189 -51q52 0 94 7t99 24q33 104 33 221q0 135 -54.5 186t-189.5 51q-51 0 -93 -7t-100 -23q-33 -104 -32 -222z" />
<glyph unicode="&#xb1;" horiz-adv-x="1187" d="M184 664v59h379v381h62v-381h379v-59h-379v-416h-62v416h-379zM215 0v59h778v-59h-778z" />
<glyph unicode="&#xb2;" horiz-adv-x="653" d="M102 684v94q178 109 276.5 220.5t98.5 209.5q0 80 -34.5 113t-116.5 33q-63 0 -138 -13v-98h-53q-10 45 -10 105v28q98 37 209 37q207 0 207 -201q0 -121 -104.5 -238.5t-268.5 -221.5v-9h324v66h43q16 -41 16 -98v-27h-449z" />
<glyph unicode="&#xb3;" horiz-adv-x="630" d="M84 698l10 60q90 -23 189 -23q92 0 157 15q25 51 25 120q0 68 -46 106t-136 38h-64v59h64q160 0 159 141q0 141 -149 142q-70 0 -137 -10v-76h-50q-12 41 -12 84v28q96 33 203 33q104 0 156.5 -52t52.5 -138q0 -72 -34 -114t-103 -64v-7q88 -23 123.5 -67.5t35.5 -106.5 q0 -84 -58 -137t-185 -53q-105 -1 -201 22z" />
<glyph unicode="&#xb4;" horiz-adv-x="661" d="M162 1552l172 285l92 -10l-225 -283z" />
<glyph unicode="&#xb5;" horiz-adv-x="1028" d="M182 -436v1399h66v-842q86 -66 227 -66q188 0 313 166v742h66v-963h-43l-12 145h-13q-70 -80 -139 -116.5t-176 -36.5q-119 0 -211 63h-12v-491h-66z" />
<glyph unicode="&#xb6;" horiz-adv-x="1302" d="M164 905q0 356 385 357h403v-1508h-65v1446h-236v-1446h-65v803h-58q-178 0 -271 92t-93 256z" />
<glyph unicode="&#xb7;" horiz-adv-x="688" d="M270 551q0 37 19.5 55.5t56.5 18.5q74 0 74 -74q0 -33 -19.5 -51.5t-54.5 -18.5t-55.5 18.5t-20.5 51.5z" />
<glyph unicode="&#xb8;" horiz-adv-x="663" d="M205 -412l20 54q70 -25 150 -25q68 0 110 14q14 35 15 86q0 49 -21.5 73t-75.5 24q-59 0 -98 -13l-55 56l133 155l41 -8l-115 -149q43 18 109 18q143 0 143 -145q0 -170 -199 -170q-79 -1 -157 30z" />
<glyph unicode="&#xb9;" horiz-adv-x="448" d="M78 1311l158 102q31 -2 57 -19.5t26 -31.5v-682h-61v661l-8 7l-160 -66z" />
<glyph unicode="&#xba;" horiz-adv-x="759" d="M117 874q0 346 280 347q246 0 246 -332q0 -346 -281 -346q-120 0 -182.5 84t-62.5 247zM178 889q0 -287 199 -287q51 0 85 5t75 20q45 111 45 247q0 143 -48.5 215t-150.5 72q-51 0 -85 -5t-75 -19q-45 -111 -45 -248z" />
<glyph unicode="&#xbb;" horiz-adv-x="919" d="M141 184l244 326v8l-244 326l41 16l267 -346l-267 -346zM469 184l244 326v8l-244 326l41 16l266 -346l-266 -346z" />
<glyph unicode="&#xbc;" horiz-adv-x="1628" d="M143 1155l158 102q31 -2 57.5 -19t26.5 -32v-682h-61v662l-9 6l-159 -66zM344 6l789 1260l55 -15l-789 -1261zM946 215l352 504h64v-510h119v-55h-119v-154h-64v154h-325zM1022 217l4 -8h277v186q0 129 12 240h-8z" />
<glyph unicode="&#xbd;" horiz-adv-x="1609" d="M143 1155l158 102q31 -2 57.5 -19t26.5 -32v-682h-61v662l-9 6l-159 -66zM344 6l789 1260l55 -15l-789 -1261zM1094 0v94q178 109 276 220.5t98 209.5q0 80 -34.5 113t-116.5 33q-63 0 -137 -13v-98h-54q-10 45 -10 105v28q98 37 209 37q207 0 207 -201 q0 -121 -104.5 -238.5t-268.5 -221.5v-9h324v66h43q16 -41 16 -98v-27h-448z" />
<glyph unicode="&#xbe;" horiz-adv-x="1687" d="M150 532l10 60q90 -23 188 -23q94 0 158 15q25 51 24 121q0 68 -46 105.5t-136 37.5h-63v59h63q160 0 160 142q0 141 -150 141q-70 0 -137 -10v-76h-49q-12 41 -12 84v29q96 33 202 32q104 0 156.5 -52t52.5 -138q0 -72 -33.5 -114t-103.5 -64v-7q88 -23 124 -67.5 t36 -106.5q0 -84 -58.5 -137t-185.5 -53q-104 -1 -200 22zM461 6l788 1260l56 -15l-789 -1261zM1006 215l352 504h63v-510h119v-55h-119v-154h-63v154h-326zM1081 217l4 -8h277v186q0 129 12 240h-8z" />
<glyph unicode="&#xbf;" horiz-adv-x="1030" d="M154 104q0 90 20.5 144.5t81.5 101.5l231 174q33 25 41.5 41.5t8.5 59.5v118h65v-135q0 -43 -13.5 -67.5t-47.5 -51.5l-322 -239v-154q0 -131 64.5 -188.5t212.5 -57.5q160 0 307 41v160h39q27 -76 26 -149v-45q-68 -29 -168 -49.5t-208 -20.5q-181 0 -259.5 76 t-78.5 241zM532 907v152h74v-152h-74z" />
<glyph unicode="&#xc0;" d="M96 12q211 752 391 1237h189q180 -485 391 -1237l-66 -12q-57 217 -131 453h-577q-74 -236 -131 -453zM313 514h537q-137 457 -219 672h-99q-82 -215 -219 -672zM338 1759l92 10l172 -284l-39 -8z" />
<glyph unicode="&#xc1;" d="M96 12q211 752 391 1237h189q180 -485 391 -1237l-66 -12q-57 217 -131 453h-577q-74 -236 -131 -453zM313 514h537q-137 457 -219 672h-99q-82 -215 -219 -672zM557 1475l172 284l92 -10l-225 -283z" />
<glyph unicode="&#xc2;" d="M96 12q211 752 391 1237h189q180 -485 391 -1237l-66 -12q-57 217 -131 453h-577q-74 -236 -131 -453zM313 514h537q-137 457 -219 672h-99q-82 -215 -219 -672zM332 1477l211 268h78l210 -268l-45 -11l-198 220h-13l-198 -220z" />
<glyph unicode="&#xc3;" d="M96 12q211 752 391 1237h189q180 -485 391 -1237l-66 -12q-57 217 -131 453h-577q-74 -236 -131 -453zM313 514h537q-137 457 -219 672h-99q-82 -215 -219 -672zM313 1481q4 74 42 119t100 45q35 0 62.5 -15.5t66.5 -46.5q35 -29 59.5 -43t50.5 -14q84 0 101 116l43 -12 q-4 -74 -42 -119t-100 -45q-37 0 -66.5 16.5t-70.5 49.5q-33 27 -55.5 40t-46.5 13q-84 0 -101 -117z" />
<glyph unicode="&#xc4;" d="M96 12q211 752 391 1237h189q180 -485 391 -1237l-66 -12q-57 217 -131 453h-577q-74 -236 -131 -453zM313 514h537q-137 457 -219 672h-99q-82 -215 -219 -672zM362 1522q0 27 15.5 41t42.5 14q55 0 55 -55q0 -27 -14.5 -41.5t-40.5 -14.5q-27 0 -42.5 14.5t-15.5 41.5z M684 1522q0 55 59 55q55 0 56 -55q0 -27 -14.5 -41.5t-41.5 -14.5q-28 0 -43.5 14.5t-15.5 41.5z" />
<glyph unicode="&#xc5;" d="M96 12q211 752 391 1237h189q180 -485 391 -1237l-66 -12q-57 217 -131 453h-577q-74 -236 -131 -453zM313 514h537q-137 457 -219 672h-99q-82 -215 -219 -672zM371 1614q0 76 64.5 132t164.5 56q98 0 144.5 -39t46.5 -118q0 -80 -60.5 -134.5t-169.5 -54.5 q-94 0 -142 40t-48 118zM428 1620q0 -113 141 -113q81 1 144 21q20 59 20 110q0 61 -33.5 87t-107.5 26q-80 0 -143 -20q-20 -59 -21 -111z" />
<glyph unicode="&#xc6;" horiz-adv-x="1916" d="M96 25q377 735 688 1224h924v-63h-631v-522h572v-64h-572v-524q86 -18 161 -25.5t177 -7.5q154 0 301 29l17 -62q-147 -31 -324 -30q-397 -1 -397 118v359h-609q-133 -240 -239 -457zM436 520h576v666h-191q-86 -137 -197.5 -328.5t-187.5 -337.5z" />
<glyph unicode="&#xc7;" horiz-adv-x="1103" d="M127 604q0 295 126 480.5t386 185.5q98 0 169 -18.5t134 -53.5v-63q0 -33 -4 -72t-10 -59h-33l-23 176q-117 27 -235 26q-137 0 -266 -45q-92 -113 -135 -248t-43 -309q0 -561 452 -561q100 0 176 20.5t146 61.5l32 -49q-137 -96 -358 -96h-6l-96 -125q43 18 108 18 q143 0 144 -145q0 -170 -199 -170q-80 -1 -158 30l21 54q72 -25 149 -25q68 0 111 14q14 35 14 86q0 49 -21.5 73t-74.5 24q-59 0 -98 -13l-56 56l107 125q-229 16 -344 175.5t-115 446.5z" />
<glyph unicode="&#xc8;" horiz-adv-x="1050" d="M184 98v1151h697v-63h-631v-522h571v-64h-571v-526q86 -18 160.5 -25.5t177.5 -7.5q154 0 301 29l16 -60q-147 -31 -323 -30q-179 0 -288.5 27.5t-109.5 90.5zM324 1749l92 10l172 -284l-39 -9z" />
<glyph unicode="&#xc9;" horiz-adv-x="1050" d="M184 98v1151h697v-63h-631v-522h571v-64h-571v-526q86 -18 160.5 -25.5t177.5 -7.5q154 0 301 29l16 -60q-147 -31 -323 -30q-179 0 -288.5 27.5t-109.5 90.5zM506 1485l172 284l92 -10l-225 -282z" />
<glyph unicode="&#xca;" horiz-adv-x="1050" d="M184 98v1151h697v-63h-631v-522h571v-64h-571v-526q86 -18 160.5 -25.5t177.5 -7.5q154 0 301 29l16 -60q-147 -31 -323 -30q-179 0 -288.5 27.5t-109.5 90.5zM274 1477l211 268h78l211 -268l-45 -11l-199 220h-12l-199 -220z" />
<glyph unicode="&#xcb;" horiz-adv-x="1050" d="M184 98v1151h697v-63h-631v-522h571v-64h-571v-526q86 -18 160.5 -25.5t177.5 -7.5q154 0 301 29l16 -60q-147 -31 -323 -30q-179 0 -288.5 27.5t-109.5 90.5zM317 1522q0 27 15.5 41t42.5 14q55 0 55 -55q0 -27 -14.5 -41.5t-40.5 -14.5q-27 0 -42.5 14.5t-15.5 41.5z M639 1522q0 55 59 55q55 0 56 -55q0 -27 -14.5 -41.5t-41.5 -14.5q-28 0 -43.5 14.5t-15.5 41.5z" />
<glyph unicode="&#xcc;" horiz-adv-x="446" d="M-10 1749l92 10l172 -284l-39 -9zM190 0v1249h66v-1249h-66z" />
<glyph unicode="&#xcd;" horiz-adv-x="446" d="M190 0v1249h66v-1249h-66zM197 1475l172 284l92 -10l-225 -283z" />
<glyph unicode="&#xce;" horiz-adv-x="446" d="M-27 1477l211 268h78l211 -268l-45 -11l-199 220h-12l-199 -220zM190 0v1249h66v-1249h-66z" />
<glyph unicode="&#xcf;" horiz-adv-x="446" d="M4 1522q0 27 15.5 41t41.5 14q55 0 56 -55q0 -27 -14.5 -41.5t-41.5 -14.5q-26 0 -41.5 14.5t-15.5 41.5zM190 0v1249h66v-1249h-66zM326 1522q0 55 59 55q55 0 55 -55q0 -27 -14 -41.5t-41 -14.5q-29 0 -44 14.5t-15 41.5z" />
<glyph unicode="&#xd0;" horiz-adv-x="1255" d="M92 631v61h209v545q164 33 317 33q272 0 399.5 -152.5t127.5 -466.5q0 -283 -108.5 -467t-366.5 -184h-369v631h-209zM367 63h295q78 0 131 7.5t110 27.5q176 170 176 547q0 293 -112.5 427t-356.5 134q-109 0 -243 -20v-494h247v-61h-247v-568z" />
<glyph unicode="&#xd1;" horiz-adv-x="1234" d="M184 0v1249h74l729 -1149l12 4l-12 486v659h64v-1249h-74l-729 1149l-12 -4l12 -486v-659h-64zM358 1491q4 74 42 119t100 45q35 0 62.5 -15.5t66.5 -46.5q35 -29 59.5 -43t50.5 -14q84 0 101 117l43 -13q-4 -74 -42 -118.5t-100 -44.5q-36 0 -66 16t-71 49 q-33 27 -55.5 40t-46.5 13q-84 0 -101 -116z" />
<glyph unicode="&#xd2;" horiz-adv-x="1216" d="M131 610q0 315 112.5 487.5t389.5 172.5q238 0 345 -158t107 -473t-112.5 -487t-388.5 -172q-238 0 -345.5 157.5t-107.5 472.5zM197 625q0 -201 38.5 -327t130 -190.5t248.5 -64.5q74 0 147 17.5t126 48.5q133 188 133 516q0 201 -39 326.5t-130 190t-249 64.5 q-74 0 -146.5 -17.5t-125.5 -47.5q-133 -188 -133 -516zM414 1747l92 10l172 -284l-39 -9z" />
<glyph unicode="&#xd3;" horiz-adv-x="1216" d="M131 610q0 315 112.5 487.5t389.5 172.5q238 0 345 -158t107 -473t-112.5 -487t-388.5 -172q-238 0 -345.5 157.5t-107.5 472.5zM197 625q0 -201 38.5 -327t130 -190.5t248.5 -64.5q74 0 147 17.5t126 48.5q133 188 133 516q0 201 -39 326.5t-130 190t-249 64.5 q-74 0 -146.5 -17.5t-125.5 -47.5q-133 -188 -133 -516zM594 1475l172 284l92 -10l-225 -283z" />
<glyph unicode="&#xd4;" horiz-adv-x="1216" d="M131 610q0 315 112.5 487.5t389.5 172.5q238 0 345 -158t107 -473t-112.5 -487t-388.5 -172q-238 0 -345.5 157.5t-107.5 472.5zM197 625q0 -201 38.5 -327t130 -190.5t248.5 -64.5q74 0 147 17.5t126 48.5q133 188 133 516q0 201 -39 326.5t-130 190t-249 64.5 q-74 0 -146.5 -17.5t-125.5 -47.5q-133 -188 -133 -516zM379 1477l211 268h78l211 -268l-45 -11l-199 220h-12l-199 -220z" />
<glyph unicode="&#xd5;" horiz-adv-x="1216" d="M131 610q0 315 112.5 487.5t389.5 172.5q238 0 345 -158t107 -473t-112.5 -487t-388.5 -172q-238 0 -345.5 157.5t-107.5 472.5zM197 625q0 -201 38.5 -327t130 -190.5t248.5 -64.5q74 0 147 17.5t126 48.5q133 188 133 516q0 201 -39 326.5t-130 190t-249 64.5 q-74 0 -146.5 -17.5t-125.5 -47.5q-133 -188 -133 -516zM348 1481q4 74 42 119t99 45q35 0 63 -15.5t66 -46.5q35 -29 59.5 -43t51.5 -14q84 0 100 116l43 -12q-4 -74 -41.5 -119t-99.5 -45q-37 0 -66.5 16.5t-70.5 49.5q-33 27 -55.5 40t-46.5 13q-84 0 -101 -117z" />
<glyph unicode="&#xd6;" horiz-adv-x="1216" d="M131 610q0 315 112.5 487.5t389.5 172.5q238 0 345 -158t107 -473t-112.5 -487t-388.5 -172q-238 0 -345.5 157.5t-107.5 472.5zM197 625q0 -201 38.5 -327t130 -190.5t248.5 -64.5q74 0 147 17.5t126 48.5q133 188 133 516q0 201 -39 326.5t-130 190t-249 64.5 q-74 0 -146.5 -17.5t-125.5 -47.5q-133 -188 -133 -516zM389 1522q0 27 15.5 41t41.5 14q55 0 56 -55q0 -27 -14.5 -41.5t-41.5 -14.5q-26 0 -41.5 14.5t-15.5 41.5zM711 1522q0 55 59 55q55 0 55 -55q0 -27 -14 -41.5t-41 -14.5q-29 0 -44 14.5t-15 41.5z" />
<glyph unicode="&#xd7;" horiz-adv-x="966" d="M133 920l47 43l303 -299l303 299l48 -43l-308 -289l305 -291l-45 -41l-303 299l-303 -299l-45 41l305 291z" />
<glyph unicode="&#xd8;" horiz-adv-x="1216" d="M131 610q0 315 112.5 487.5t389.5 172.5q123 0 209 -43l71 153l58 -14l-78 -168q100 -72 146 -211t46 -348q0 -315 -112.5 -487t-388.5 -172q-127 0 -226 49l-75 -164l-58 16l82 180q-90 74 -133 211.5t-43 337.5zM197 625q0 -186 32.5 -308t108.5 -190l475 1036 q-82 43 -211 43q-74 0 -146.5 -17.5t-125.5 -47.5q-133 -188 -133 -516zM387 92q86 -49 227 -49q74 0 147 17.5t126 48.5q133 188 133 516q0 193 -36 318.5t-120 189.5z" />
<glyph unicode="&#xd9;" horiz-adv-x="1198" d="M176 338v911h66v-889q0 -123 37.5 -192.5t117.5 -97t213 -27.5q197 0 342 63v1143h66v-1106q0 -74 -116 -118.5t-306 -44.5q-213 0 -316.5 87t-103.5 271zM383 1747l92 10l172 -284l-39 -9z" />
<glyph unicode="&#xda;" horiz-adv-x="1198" d="M176 338v911h66v-889q0 -123 37.5 -192.5t117.5 -97t213 -27.5q197 0 342 63v1143h66v-1106q0 -74 -116 -118.5t-306 -44.5q-213 0 -316.5 87t-103.5 271zM567 1473l172 284l92 -10l-225 -283z" />
<glyph unicode="&#xdb;" horiz-adv-x="1198" d="M176 338v911h66v-889q0 -123 37.5 -192.5t117.5 -97t213 -27.5q197 0 342 63v1143h66v-1106q0 -74 -116 -118.5t-306 -44.5q-213 0 -316.5 87t-103.5 271zM352 1477l211 268h78l211 -268l-45 -11l-199 220h-12l-199 -220z" />
<glyph unicode="&#xdc;" horiz-adv-x="1198" d="M176 338v911h66v-889q0 -123 37.5 -192.5t117.5 -97t213 -27.5q197 0 342 63v1143h66v-1106q0 -74 -116 -118.5t-306 -44.5q-213 0 -316.5 87t-103.5 271zM385 1522q0 27 15.5 41t41.5 14q55 0 56 -55q0 -27 -14.5 -41.5t-41.5 -14.5q-26 0 -41.5 14.5t-15.5 41.5z M707 1522q0 55 59 55q55 0 55 -55q0 -27 -14 -41.5t-41 -14.5q-29 0 -44 14.5t-15 41.5z" />
<glyph unicode="&#xdd;" horiz-adv-x="1191" d="M70 1241l65 23q78 -201 188.5 -388.5t231.5 -338.5h82q121 152 231.5 339t188.5 388l65 -23q-94 -221 -211.5 -416.5t-244.5 -343.5h-37v-481h-66v481h-37q-127 147 -244.5 343t-211.5 417zM555 1475l172 284l92 -10l-225 -283z" />
<glyph unicode="&#xde;" horiz-adv-x="960" d="M184 0v1262h66v-275h258q340 0 340 -328q0 -162 -84 -246.5t-256 -84.5h-258v-328h-66zM250 391h250q154 0 218 66.5t64 201.5t-64.5 200t-217.5 65h-250v-533z" />
<glyph unicode="&#xdf;" horiz-adv-x="1083" d="M178 0v1124q0 223 346 224q152 0 235 -85t83 -233q0 -125 -50.5 -192.5t-162.5 -106.5v-12q160 -41 224.5 -131t64.5 -234q0 -373 -314 -372q-79 0 -155 20l14 59q72 -16 139 -16q113 0 182 21q33 61 50.5 128.5t17.5 157.5q0 154 -82 239t-258 99v68q127 0 195.5 69.5 t68.5 194.5q0 127 -67.5 194.5t-204.5 67.5q-127 0 -260 -35v-1249h-66z" />
<glyph unicode="&#xe0;" horiz-adv-x="927" d="M106 207q0 150 103.5 228.5t298.5 78.5q94 0 192 -12v157q0 137 -56 193.5t-189 56.5q-86 0 -193 -14l-20 -139h-45q-14 45 -15 110v19q66 37 149 59.5t167 22.5q127 0 195.5 -73t68.5 -214v-680h-47l-8 137h-13q-125 -158 -327 -157q-127 0 -194 61t-67 166zM168 223 q0 -104 53 -145t160 -41q102 0 185 47t139 129v229q-113 12 -228 13q-137 0 -244 -27q-66 -94 -65 -205zM283 1452l92 10l172 -284l-39 -9z" />
<glyph unicode="&#xe1;" horiz-adv-x="927" d="M106 207q0 150 103.5 228.5t298.5 78.5q94 0 192 -12v157q0 137 -56 193.5t-189 56.5q-86 0 -193 -14l-20 -139h-45q-14 45 -15 110v19q66 37 149 59.5t167 22.5q127 0 195.5 -73t68.5 -214v-680h-47l-8 137h-13q-125 -158 -327 -157q-127 0 -194 61t-67 166zM168 223 q0 -104 53 -145t160 -41q102 0 185 47t139 129v229q-113 12 -228 13q-137 0 -244 -27q-66 -94 -65 -205zM473 1178l172 284l92 -10l-225 -283z" />
<glyph unicode="&#xe2;" horiz-adv-x="927" d="M106 207q0 150 103.5 228.5t298.5 78.5q94 0 192 -12v157q0 137 -56 193.5t-189 56.5q-86 0 -193 -14l-20 -139h-45q-14 45 -15 110v19q66 37 149 59.5t167 22.5q127 0 195.5 -73t68.5 -214v-680h-47l-8 137h-13q-125 -158 -327 -157q-127 0 -194 61t-67 166zM168 223 q0 -104 53 -145t160 -41q102 0 185 47t139 129v229q-113 12 -228 13q-137 0 -244 -27q-66 -94 -65 -205zM240 1180l211 268h77l211 -268l-45 -11l-198 220h-13l-198 -220z" />
<glyph unicode="&#xe3;" horiz-adv-x="927" d="M106 207q0 150 103.5 228.5t298.5 78.5q94 0 192 -12v157q0 137 -56 193.5t-189 56.5q-86 0 -193 -14l-20 -139h-45q-14 45 -15 110v19q66 37 149 59.5t167 22.5q127 0 195.5 -73t68.5 -214v-680h-47l-8 137h-13q-125 -158 -327 -157q-127 0 -194 61t-67 166zM168 223 q0 -104 53 -145t160 -41q102 0 185 47t139 129v229q-113 12 -228 13q-137 0 -244 -27q-66 -94 -65 -205zM231 1174q4 74 42 118.5t100 44.5q35 0 62.5 -15t66.5 -46q35 -29 59.5 -43t50.5 -14q84 0 101 116l43 -12q-4 -74 -42 -119t-100 -45q-36 0 -66 16.5t-71 49.5 q-33 27 -55.5 40t-46.5 13q-84 0 -101 -117z" />
<glyph unicode="&#xe4;" horiz-adv-x="927" d="M106 207q0 150 103.5 228.5t298.5 78.5q94 0 192 -12v157q0 137 -56 193.5t-189 56.5q-86 0 -193 -14l-20 -139h-45q-14 45 -15 110v19q66 37 149 59.5t167 22.5q127 0 195.5 -73t68.5 -214v-680h-47l-8 137h-13q-125 -158 -327 -157q-127 0 -194 61t-67 166zM168 223 q0 -104 53 -145t160 -41q102 0 185 47t139 129v229q-113 12 -228 13q-137 0 -244 -27q-66 -94 -65 -205zM270 1214q0 27 15.5 41.5t42.5 14.5q55 0 55 -56q0 -27 -14.5 -41t-40.5 -14q-27 0 -42.5 14.5t-15.5 40.5zM592 1214q0 55 59 56q55 0 56 -56q0 -27 -14.5 -41 t-41.5 -14q-28 0 -43.5 14.5t-15.5 40.5z" />
<glyph unicode="&#xe5;" horiz-adv-x="927" d="M106 207q0 150 103.5 228.5t298.5 78.5q94 0 192 -12v157q0 137 -56 193.5t-189 56.5q-86 0 -193 -14l-20 -139h-45q-14 45 -15 110v19q66 37 149 59.5t167 22.5q127 0 195.5 -73t68.5 -214v-680h-47l-8 137h-13q-125 -158 -327 -157q-127 0 -194 61t-67 166zM168 223 q0 -104 53 -145t160 -41q102 0 185 47t139 129v229q-113 12 -228 13q-137 0 -244 -27q-66 -94 -65 -205zM291 1317q0 76 64.5 132t164.5 56q98 0 144.5 -39t46.5 -118q0 -80 -60.5 -134.5t-169.5 -54.5q-94 0 -142 40t-48 118zM348 1323q0 -113 141 -113q81 1 144 21 q20 59 20 110q0 61 -33.5 87t-107.5 26q-80 0 -143 -20q-20 -59 -21 -111z" />
<glyph unicode="&#xe6;" horiz-adv-x="1521" d="M106 207q0 152 100.5 229.5t295.5 77.5q109 0 207 -12v157q0 135 -62.5 192.5t-197.5 57.5q-80 0 -187 -14l-20 -139h-45q-14 45 -15 110v19q150 82 310 82q106 0 177.5 -53.5t92.5 -153.5q92 207 332 207q145 0 236 -94.5t91 -264.5q0 -49 -4 -76l-78 -83h-565 q6 -201 84 -299.5t244 -98.5q88 0 149.5 15.5t122.5 48.5l23 -52q-66 -35 -131.5 -53t-163.5 -18q-244 0 -334 188q-90 -104 -178 -152t-230 -48q-122 0 -188 61t-66 166zM168 223q0 -104 52 -145t155 -41q110 0 191 43t147 125v237q-115 12 -242 13q-131 0 -238 -27 q-66 -94 -65 -205zM774 500l582 10q10 33 10 94q0 139 -71.5 221t-207.5 82q-162 0 -230.5 -102.5t-82.5 -304.5z" />
<glyph unicode="&#xe7;" horiz-adv-x="909" d="M127 424q0 250 92 396.5t299 146.5q137 0 256 -72v-39q0 -82 -18 -135h-33l-10 164q-90 20 -201 20q-131 0 -225 -43q-51 -92 -75 -191.5t-24 -240.5q0 -186 87 -287.5t251 -101.5q152 0 269 84l36 -47q-61 -47 -133.5 -71.5t-171.5 -26.5l-96 -125q43 18 109 18 q143 0 143 -145q0 -170 -199 -170q-81 -1 -157 30l20 54q72 -25 150 -25q68 0 110 14q14 35 15 86q0 49 -21.5 73t-75.5 24q-59 0 -98 -13l-55 56l106 125q-174 14 -262 128.5t-88 313.5z" />
<glyph unicode="&#xe8;" horiz-adv-x="935" d="M127 473q0 233 94 363.5t287 130.5q145 0 236.5 -94.5t91.5 -264.5q0 -49 -5 -76l-77 -83h-566q6 -207 84 -308.5t244 -101.5q88 0 149.5 15.5t122.5 47.5l23 -51q-66 -35 -131.5 -53t-163.5 -18q-389 -1 -389 493zM188 500l582 10q10 33 10 94q0 139 -71.5 221 t-206.5 82q-162 0 -230.5 -102.5t-83.5 -304.5zM281 1452l92 10l172 -284l-39 -9z" />
<glyph unicode="&#xe9;" horiz-adv-x="935" d="M127 473q0 233 94 363.5t287 130.5q145 0 236.5 -94.5t91.5 -264.5q0 -49 -5 -76l-77 -83h-566q6 -207 84 -308.5t244 -101.5q88 0 149.5 15.5t122.5 47.5l23 -51q-66 -35 -131.5 -53t-163.5 -18q-389 -1 -389 493zM188 500l582 10q10 33 10 94q0 139 -71.5 221 t-206.5 82q-162 0 -230.5 -102.5t-83.5 -304.5zM463 1178l172 284l92 -10l-225 -283z" />
<glyph unicode="&#xea;" horiz-adv-x="935" d="M127 473q0 233 94 363.5t287 130.5q145 0 236.5 -94.5t91.5 -264.5q0 -49 -5 -76l-77 -83h-566q6 -207 84 -308.5t244 -101.5q88 0 149.5 15.5t122.5 47.5l23 -51q-66 -35 -131.5 -53t-163.5 -18q-389 -1 -389 493zM188 500l582 10q10 33 10 94q0 139 -71.5 221 t-206.5 82q-162 0 -230.5 -102.5t-83.5 -304.5zM246 1180l211 268h78l210 -268l-45 -11l-198 220h-13l-198 -220z" />
<glyph unicode="&#xeb;" horiz-adv-x="935" d="M127 473q0 233 94 363.5t287 130.5q145 0 236.5 -94.5t91.5 -264.5q0 -49 -5 -76l-77 -83h-566q6 -207 84 -308.5t244 -101.5q88 0 149.5 15.5t122.5 47.5l23 -51q-66 -35 -131.5 -53t-163.5 -18q-389 -1 -389 493zM188 500l582 10q10 33 10 94q0 139 -71.5 221 t-206.5 82q-162 0 -230.5 -102.5t-83.5 -304.5zM274 1214q0 27 15.5 41.5t42.5 14.5q55 0 55 -56q0 -27 -14.5 -41t-40.5 -14q-27 0 -42.5 14.5t-15.5 40.5zM596 1214q0 55 59 56q55 0 56 -56q0 -27 -14.5 -41t-41.5 -14q-28 0 -43.5 14.5t-15.5 40.5z" />
<glyph unicode="&#xec;" horiz-adv-x="434" d="M-20 1452l92 10l172 -284l-39 -9zM186 0v950h62v-950h-62z" />
<glyph unicode="&#xed;" horiz-adv-x="434" d="M186 0v950h62v-950h-62zM193 1178l172 284l92 -10l-226 -283z" />
<glyph unicode="&#xee;" horiz-adv-x="434" d="M-33 1169l211 269h78l211 -269l-45 -10l-199 219h-12l-199 -219zM186 0v950h62v-950h-62z" />
<glyph unicode="&#xef;" horiz-adv-x="434" d="M0 1214q0 27 15.5 41.5t41.5 14.5q55 0 56 -56q0 -27 -14.5 -41t-41.5 -14q-26 0 -41.5 14.5t-15.5 40.5zM186 0v950h62v-950h-62zM322 1214q0 55 59 56q55 0 55 -56q0 -27 -14 -41t-41 -14q-29 0 -44 14.5t-15 40.5z" />
<glyph unicode="&#xf0;" horiz-adv-x="1132" d="M184 350q0 168 95.5 259t259.5 91q184 0 307 -143h8q-2 131 -39 241.5t-102 194.5l-240 -90l-20 49l229 86q-109 115 -233 176l28 39q158 -82 254 -192l215 78l23 -49l-205 -74q86 -117 117.5 -233.5t31.5 -272.5q0 -168 -26.5 -277.5t-108.5 -175t-239 -65.5 q-162 0 -258.5 93t-96.5 265zM250 354q0 -152 80 -225.5t225 -73.5q72 0 124 10.5t109 36.5q31 59 46.5 139.5t15.5 164.5q0 41 -4 83q-66 72 -132.5 110t-164.5 38q-152 0 -225.5 -70.5t-73.5 -212.5z" />
<glyph unicode="&#xf1;" horiz-adv-x="1030" d="M180 0v950h47l6 -137h13q182 154 385 154q225 0 225 -152v-815h-61v879q-43 16 -81 22t-96 6q-98 0 -202.5 -44t-173.5 -111v-752h-62zM258 1174q4 74 42 118.5t99 44.5q35 0 62.5 -15t66.5 -46q35 -29 59.5 -43t51.5 -14q84 0 100 116l43 -12q-4 -74 -42 -119t-99 -45 q-37 0 -66.5 16.5t-70.5 49.5q-33 27 -55.5 40t-47.5 13q-84 0 -100 -117z" />
<glyph unicode="&#xf2;" horiz-adv-x="1007" d="M127 461q0 242 86 383t313 141q172 0 263.5 -128t91.5 -353q0 -242 -86 -383t-314 -141q-172 0 -263 128t-91 353zM188 477q0 -438 308 -438q145 0 235 55q39 61 63.5 170t24.5 223q0 438 -307 439q-145 0 -236 -56q-39 -61 -63.5 -169.5t-24.5 -223.5zM287 1452l92 10 l172 -284l-39 -9z" />
<glyph unicode="&#xf3;" horiz-adv-x="1007" d="M127 461q0 242 86 383t313 141q172 0 263.5 -128t91.5 -353q0 -242 -86 -383t-314 -141q-172 0 -263 128t-91 353zM188 477q0 -438 308 -438q145 0 235 55q39 61 63.5 170t24.5 223q0 438 -307 439q-145 0 -236 -56q-39 -61 -63.5 -169.5t-24.5 -223.5zM479 1178l172 284 l92 -10l-225 -283z" />
<glyph unicode="&#xf4;" horiz-adv-x="1007" d="M127 461q0 242 86 383t313 141q172 0 263.5 -128t91.5 -353q0 -242 -86 -383t-314 -141q-172 0 -263 128t-91 353zM188 477q0 -438 308 -438q145 0 235 55q39 61 63.5 170t24.5 223q0 438 -307 439q-145 0 -236 -56q-39 -61 -63.5 -169.5t-24.5 -223.5zM254 1169l211 269 h78l211 -269l-45 -10l-199 219h-12l-199 -219z" />
<glyph unicode="&#xf5;" horiz-adv-x="1007" d="M127 461q0 242 86 383t313 141q172 0 263.5 -128t91.5 -353q0 -242 -86 -383t-314 -141q-172 0 -263 128t-91 353zM188 477q0 -438 308 -438q145 0 235 55q39 61 63.5 170t24.5 223q0 438 -307 439q-145 0 -236 -56q-39 -61 -63.5 -169.5t-24.5 -223.5zM244 1174 q4 74 42 118.5t99 44.5q35 0 62.5 -15t66.5 -46q35 -29 59.5 -43t51.5 -14q84 0 100 116l43 -12q-4 -74 -42 -119t-99 -45q-37 0 -67 16.5t-71 49.5q-33 27 -55 40t-47 13q-84 0 -100 -117z" />
<glyph unicode="&#xf6;" horiz-adv-x="1007" d="M127 461q0 242 86 383t313 141q172 0 263.5 -128t91.5 -353q0 -242 -86 -383t-314 -141q-172 0 -263 128t-91 353zM188 477q0 -438 308 -438q145 0 235 55q39 61 63.5 170t24.5 223q0 438 -307 439q-145 0 -236 -56q-39 -61 -63.5 -169.5t-24.5 -223.5zM285 1214 q0 27 15 41.5t42 14.5q55 0 55 -56q0 -27 -14 -41t-41 -14t-42 14.5t-15 40.5zM606 1214q0 55 60 56q55 0 55 -56q0 -27 -14.5 -41t-40.5 -14q-29 0 -44.5 14.5t-15.5 40.5z" />
<glyph unicode="&#xf7;" horiz-adv-x="1064" d="M133 598v61h799v-61h-799zM457 301q0 37 19.5 55.5t55.5 18.5q74 0 74 -74q0 -33 -19.5 -51.5t-54.5 -18.5q-34 0 -54.5 18.5t-20.5 51.5zM457 950q0 37 19.5 55.5t55.5 18.5q74 0 74 -74q0 -33 -19.5 -51t-54.5 -18q-34 0 -54.5 18.5t-20.5 50.5z" />
<glyph unicode="&#xf8;" horiz-adv-x="1007" d="M127 461q0 242 86 383t313 141q96 0 168 -41l80 176l57 -14l-90 -197q70 -59 105 -162.5t35 -242.5q0 -242 -86 -383t-314 -141q-88 0 -151 32l-103 -223l-57 16l109 238q-74 57 -113 164.5t-39 253.5zM188 477q0 -275 119 -375l361 785q-63 39 -156 39q-145 0 -236 -56 q-39 -61 -63.5 -169.5t-24.5 -223.5zM356 70q59 -31 140 -31q145 0 235 55q39 62 63.5 170.5t24.5 222.5q0 258 -104 363z" />
<glyph unicode="&#xf9;" horiz-adv-x="1019" d="M170 131v819h61v-882q43 -16 81 -22.5t94 -6.5q106 0 204.5 48t165.5 120v743h62v-950h-47l-7 145h-12q-92 -84 -179 -124.5t-198 -40.5q-108 0 -166.5 37.5t-58.5 113.5zM291 1452l92 10l172 -284l-39 -9z" />
<glyph unicode="&#xfa;" horiz-adv-x="1019" d="M170 131v819h61v-882q43 -16 81 -22.5t94 -6.5q106 0 204.5 48t165.5 120v743h62v-950h-47l-7 145h-12q-92 -84 -179 -124.5t-198 -40.5q-108 0 -166.5 37.5t-58.5 113.5zM467 1167l172 285l92 -10l-225 -283z" />
<glyph unicode="&#xfb;" horiz-adv-x="1019" d="M170 131v819h61v-882q43 -16 81 -22.5t94 -6.5q106 0 204.5 48t165.5 120v743h62v-950h-47l-7 145h-12q-92 -84 -179 -124.5t-198 -40.5q-108 0 -166.5 37.5t-58.5 113.5zM260 1169l211 269h78l211 -269l-45 -10l-199 219h-12l-199 -219z" />
<glyph unicode="&#xfc;" horiz-adv-x="1019" d="M170 131v819h61v-882q43 -16 81 -22.5t94 -6.5q106 0 204.5 48t165.5 120v743h62v-950h-47l-7 145h-12q-92 -84 -179 -124.5t-198 -40.5q-108 0 -166.5 37.5t-58.5 113.5zM291 1214q0 27 15.5 41.5t41.5 14.5q55 0 55 -56q0 -27 -14 -41t-41 -14q-26 0 -41.5 14.5 t-15.5 40.5zM612 1214q0 55 60 56q55 0 55 -56q0 -27 -14.5 -41t-40.5 -14q-29 0 -44.5 14.5t-15.5 40.5z" />
<glyph unicode="&#xfd;" horiz-adv-x="976" d="M92 950l64 8q129 -463 280 -852h131q154 467 244 852l61 -8q-74 -311 -173 -622.5t-203 -567.5q-29 -70 -78 -96t-133 -26q-93 -1 -152 26v37q0 49 14 106h48v-104q49 -8 110 -8q63 0 109 12q55 115 131 340h-144q-98 242 -166.5 444.5t-142.5 458.5zM465 1178l172 284 l92 -10l-225 -283z" />
<glyph unicode="&#xfe;" horiz-adv-x="972" d="M184 -369v1741h66v-547h12q74 49 144.5 76t154.5 27q158 0 228.5 -97.5t70.5 -283.5q0 -184 -79 -289.5t-230 -105.5q-160 0 -289 94h-12v-615h-66zM250 309q78 -47 142.5 -70.5t148.5 -23.5q139 0 196.5 85t57.5 247q0 164 -54.5 240.5t-199.5 76.5q-143 0 -291 -104 v-451z" />
<glyph unicode="&#xff;" horiz-adv-x="976" d="M92 950l64 8q129 -463 280 -852h131q154 467 244 852l61 -8q-74 -311 -173 -622.5t-203 -567.5q-29 -70 -78 -96t-133 -26q-93 -1 -152 26v37q0 49 14 106h48v-104q49 -8 110 -8q63 0 109 12q55 115 131 340h-144q-98 242 -166.5 444.5t-142.5 458.5zM270 1214 q0 27 15.5 41.5t42.5 14.5q55 0 55 -56q0 -27 -14.5 -41t-40.5 -14q-27 0 -42.5 14.5t-15.5 40.5zM592 1214q0 55 59 56q55 0 56 -56q0 -27 -14.5 -41t-41.5 -14q-28 0 -43.5 14.5t-15.5 40.5z" />
<glyph unicode="&#x152;" horiz-adv-x="1781" d="M131 610q0 317 121 488.5t399 171.5q164 0 258 -21h695v-63h-631v-522h571v-64h-571v-524q86 -18 160.5 -25.5t177.5 -7.5q154 0 301 29l16 -62q-147 -31 -323 -30q-297 0 -365 73h-14q-117 -74 -334 -73q-238 0 -349.5 158.5t-111.5 471.5zM197 625q0 -299 96 -440.5 t330 -141.5q71 0 149 17.5t135 48.5v1075q-57 12 -117.5 17t-156.5 5q-84 0 -168 -17.5t-135 -47.5q-133 -188 -133 -516z" />
<glyph unicode="&#x153;" horiz-adv-x="1628" d="M127 467q0 240 85 379t314 139q123 0 206 -65.5t120 -188.5h6q39 113 125 174.5t217 61.5q145 0 236.5 -94.5t91.5 -264.5q0 -49 -4 -76l-78 -83h-565q6 -201 83.5 -299.5t243.5 -98.5q88 0 149.5 15.5t123.5 48.5l22 -52q-66 -35 -131 -53t-164 -18q-274 0 -356 241h-8 q-80 -242 -363 -241q-172 0 -263 125t-91 350zM188 483q0 -219 77 -325.5t231 -106.5q145 0 235 55q37 61 62.5 161t25.5 206q0 233 -76.5 343t-230.5 110q-145 0 -236 -56q-39 -63 -63.5 -168.5t-24.5 -218.5zM881 500l581 10q10 33 11 94q0 139 -72 221t-207 82 q-162 0 -230.5 -102.5t-82.5 -304.5z" />
<glyph unicode="&#x178;" horiz-adv-x="1191" d="M70 1241l65 23q78 -201 188.5 -388.5t231.5 -338.5h82q121 152 231.5 339t188.5 388l65 -23q-94 -221 -211.5 -416.5t-244.5 -343.5h-37v-481h-66v481h-37q-127 147 -244.5 343t-211.5 417zM379 1522q0 27 15.5 41t41.5 14q55 0 56 -55q0 -27 -14.5 -41.5t-41.5 -14.5 q-26 0 -41.5 14.5t-15.5 41.5zM700 1522q0 55 60 55q55 0 55 -55q0 -27 -14.5 -41.5t-40.5 -14.5q-29 0 -44.5 14.5t-15.5 41.5z" />
<glyph unicode="&#x2c6;" horiz-adv-x="684" d="M92 981l211 268h78l211 -268l-45 -10l-199 219h-12l-199 -219z" />
<glyph unicode="&#x2dc;" horiz-adv-x="851" d="M164 1104q4 74 42 119t99 45q35 0 62.5 -15.5t66.5 -46.5q35 -29 59.5 -43t51.5 -14q84 0 100 117l43 -13q-4 -74 -42 -118.5t-99 -44.5q-37 0 -66.5 16t-70.5 49q-33 27 -55.5 40t-47.5 13q-84 0 -100 -116z" />
<glyph unicode="&#x2000;" horiz-adv-x="918" />
<glyph unicode="&#x2001;" horiz-adv-x="1837" />
<glyph unicode="&#x2002;" horiz-adv-x="918" />
<glyph unicode="&#x2003;" horiz-adv-x="1837" />
<glyph unicode="&#x2004;" horiz-adv-x="612" />
<glyph unicode="&#x2005;" horiz-adv-x="459" />
<glyph unicode="&#x2006;" horiz-adv-x="306" />
<glyph unicode="&#x2007;" horiz-adv-x="306" />
<glyph unicode="&#x2008;" horiz-adv-x="229" />
<glyph unicode="&#x2009;" horiz-adv-x="367" />
<glyph unicode="&#x200a;" horiz-adv-x="102" />
<glyph unicode="&#x2010;" horiz-adv-x="757" d="M133 543v61h492v-61h-492z" />
<glyph unicode="&#x2011;" horiz-adv-x="757" d="M133 543v61h492v-61h-492z" />
<glyph unicode="&#x2012;" horiz-adv-x="757" d="M133 543v61h492v-61h-492z" />
<glyph unicode="&#x2013;" horiz-adv-x="942" d="M133 526v62h676v-62h-676z" />
<glyph unicode="&#x2014;" horiz-adv-x="1302" d="M133 526v62h1036v-62h-1036z" />
<glyph unicode="&#x2018;" horiz-adv-x="487" d="M158 1004q0 141 92 258l45 -11q-39 -70 -57.5 -138.5t-18.5 -168.5h115v-49q-31 -10 -68 -10q-108 0 -108 119z" />
<glyph unicode="&#x2019;" horiz-adv-x="487" d="M154 1202v49q31 10 67 11q109 0 109 -119q0 -141 -92 -258l-45 10q39 70 57 138.5t18 168.5h-114z" />
<glyph unicode="&#x201a;" horiz-adv-x="487" d="M154 121v49q31 10 67 10q109 0 109 -119q0 -141 -92 -258l-45 11q39 70 57 138t18 169h-114z" />
<glyph unicode="&#x201c;" horiz-adv-x="825" d="M158 1004q0 141 92 258l45 -11q-39 -70 -57.5 -138.5t-18.5 -168.5h115v-49q-31 -10 -68 -10q-108 0 -108 119zM496 1004q0 141 92 258l45 -11q-39 -70 -57.5 -138.5t-18.5 -168.5h115v-49q-31 -10 -68 -10q-108 0 -108 119z" />
<glyph unicode="&#x201d;" horiz-adv-x="825" d="M154 1202v49q31 10 67 11q109 0 109 -119q0 -141 -92 -258l-45 10q39 70 57 138.5t18 168.5h-114zM492 1202v49q31 10 67 11q109 0 109 -119q0 -141 -93 -258l-45 10q39 70 57.5 138.5t18.5 168.5h-114z" />
<glyph unicode="&#x201e;" horiz-adv-x="825" d="M154 1202v49q31 10 67 11q109 0 109 -119q0 -141 -92 -258l-45 10q39 70 57 138.5t18 168.5h-114zM492 1202v49q31 10 67 11q109 0 109 -119q0 -141 -93 -258l-45 10q39 70 57.5 138.5t18.5 168.5h-114z" />
<glyph unicode="&#x2022;" horiz-adv-x="645" d="M174 555q0 63 42 104t108 41t106.5 -41t40.5 -104q0 -66 -41 -106.5t-106 -40.5q-66 0 -108 40.5t-42 106.5z" />
<glyph unicode="&#x2026;" horiz-adv-x="1212" d="M205 0v111h110v-111h-110zM551 0v111h111v-111h-111zM897 0v111h111v-111h-111z" />
<glyph unicode="&#x202f;" horiz-adv-x="367" />
<glyph unicode="&#x2039;" horiz-adv-x="645" d="M143 532l267 347l41 -17l-246 -330l246 -329l-41 -17z" />
<glyph unicode="&#x203a;" horiz-adv-x="591" d="M141 203l246 329l-246 330l41 17l267 -347l-267 -346z" />
<glyph unicode="&#x205f;" horiz-adv-x="459" />
<glyph unicode="&#x20ac;" horiz-adv-x="1200" d="M123 469v57h135q-4 57 -4 84q0 23 4 84h-135v58h141q27 186 79 296.5t153.5 166t273.5 55.5q86 0 153.5 -14.5t139.5 -47.5l-31 -55q-72 31 -132 42t-144 11q-168 0 -316 -57q-47 -111 -73.5 -201t-36.5 -196h504v-58h-508q-6 -57 -7 -100q0 -43 3 -68h462v-57h-458 q20 -217 127.5 -315.5t310.5 -98.5q94 0 160.5 19.5t130.5 58.5l32 -51q-139 -90 -319 -90q-231 0 -354 109.5t-154 367.5h-137z" />
<glyph unicode="&#x2122;" horiz-adv-x="1478" d="M104 1192v59h492v-59h-215v-649h-62v649h-215zM735 553l49 698h80l162 -417h8l162 417h80l49 -698h-61l-25 381l-6 233l-8 2l-162 -405h-66l-161 405l-9 -2l-6 -233l-24 -381h-62z" />
<glyph unicode="&#x25fc;" horiz-adv-x="952" d="M0 0v952h952v-952h-952z" />
</font>
</defs>
</svg>
