<?xml version="1.0" standalone="no"?>
<!DOCTYPE svg PUBLIC "-//W3C//DTD SVG 1.1//EN" "http://www.w3.org/Graphics/SVG/1.1/DTD/svg11.dtd" >
<svg xmlns="http://www.w3.org/2000/svg">
<metadata></metadata>
<defs>
<font id="athitilight" horiz-adv-x="460" >
<font-face units-per-em="2048" ascent="1536" descent="-512" />
<missing-glyph horiz-adv-x="614" />
<glyph unicode="&#xfb01;" horiz-adv-x="1099" d="M80 870l12 80h123v129q0 76 48 137.5t116 96.5q45 10 102.5 17t98.5 7q131 0 229 -28l-25 -78q-88 23 -217 22q-106 0 -221 -28q-23 -41 -32 -76t-9 -82v-117h623v-950h-90v870h-533v-870h-90v870h-135z" />
<glyph unicode="&#xfb02;" horiz-adv-x="1224" d="M80 872l12 82h123v150q0 78 48 139.5t116 95.5q100 27 237 27q168 0 322 -53v-1147q0 -39 4 -57.5t16 -40.5h31l137 61l39 -51q-76 -72 -186 -90q-47 22 -89 68t-42 87v729h-543v-872h-90v872h-135zM305 954h543v299q-104 27 -250 27q-145 0 -252 -27q-23 -41 -32 -76.5 t-9 -82.5v-140z" />
<glyph horiz-adv-x="1024" />
<glyph horiz-adv-x="1024" />
<glyph unicode="&#xd;" horiz-adv-x="532" />
<glyph unicode=" "  horiz-adv-x="614" />
<glyph unicode="&#x09;" horiz-adv-x="614" />
<glyph unicode="&#xa0;" horiz-adv-x="614" />
<glyph unicode="!" horiz-adv-x="534" d="M215 0v162h104v-162h-104zM217 840v413h98v-413l-12 -486h-72z" />
<glyph unicode="&#x22;" horiz-adv-x="694" d="M248 1128q-4 68 4 125h78q8 -57 4 -125l-17 -262h-53zM360 1128q-4 68 5 125h77q8 -57 4 -125l-16 -262h-53z" />
<glyph unicode="#" horiz-adv-x="1445" d="M182 385v90h236l47 338h-232v88h242l53 381l97 -4l-52 -377h357l53 381l92 -4l-49 -377h219v-88h-229l-47 -338h225v-90h-238l-53 -393l-96 6l51 387h-356l-53 -393l-97 6l54 387h-224zM514 475h358l48 338h-359z" />
<glyph unicode="$" horiz-adv-x="1101" d="M162 70l35 84q84 -41 166.5 -58.5t185.5 -17.5q135 0 254 31q43 92 43 202q0 82 -24.5 130t-82 81t-166.5 64q-180 51 -279 128t-99 224q0 152 80.5 237t252.5 105v178h90v-176q176 -12 283 -74v-43q0 -82 -24 -161h-62l-12 174q-133 18 -219 18q-293 0 -293 -250 q0 -78 32.5 -126t99 -79.5t185.5 -64.5q125 -37 197 -79t104.5 -104.5t32.5 -158.5q0 -324 -334 -346v-213h-90v209q-190 2 -356 86z" />
<glyph unicode="%" horiz-adv-x="1619" d="M203 926q0 143 58 225t181 82q227 0 228 -293q0 -143 -62.5 -226t-185.5 -83q-219 0 -219 295zM283 940q0 -129 31.5 -182t115.5 -53q76 -1 129 22q29 92 29 199q0 127 -32 180t-122 53q-63 0 -123 -18q-29 -109 -28 -201zM401 18l754 1227l72 -26l-758 -1233zM950 279 q0 143 58.5 225t181.5 82q227 0 227 -293q0 -143 -62.5 -226t-185.5 -83q-219 0 -219 295zM1030 293q0 -129 32 -182.5t116 -53.5q76 0 129 23q29 92 28 199q0 127 -31.5 180t-121.5 53q-63 0 -123 -18q-29 -109 -29 -201z" />
<glyph unicode="&#x26;" horiz-adv-x="1437" d="M199 326q0 141 67.5 224t210.5 140v12q-59 59 -89 119t-30 135q0 133 87 205t245 72q106 0 187 -32t129 -83v-53q0 -72 -21 -131h-57l-17 166q-92 45 -221 45q-119 0 -177 -46t-58 -141q0 -82 24.5 -129t95.5 -116l367 -357q20 66 31.5 127.5t25.5 157.5l95 -23 q-33 -199 -74 -319l258 -260l-72 -49l-202 207h-13q-29 -98 -65 -164q-59 -25 -127 -36t-178 -11q-193 0 -307.5 87t-114.5 253zM293 326q0 -127 90 -189.5t242 -62.5q84 0 132 5t95 21q39 59 61 168l-376 361q-121 -39 -182.5 -112t-61.5 -191z" />
<glyph unicode="'" horiz-adv-x="471" d="M193 1128q-4 68 4 125h77q8 -57 5 -125l-17 -262h-53z" />
<glyph unicode="(" horiz-adv-x="698" d="M213 -53v1358q8 47 50 87t102 60q53 0 127 -8v-88h-181v-1460h181v-86q-49 -8 -127 -9q-60 21 -102 60t-50 86z" />
<glyph unicode=")" horiz-adv-x="698" d="M207 -104h180v1460h-180v88q78 8 129 8q59 -20 100 -60t49 -87v-1358q-8 -47 -49 -86t-100 -60q-78 1 -129 9v86z" />
<glyph unicode="*" horiz-adv-x="1015" d="M182 1036l27 86l262 -104l6 6l-16 297h94l-16 -297l6 -6l262 104l27 -86l-269 -73l-2 -9l191 -239l-76 -53l-164 253h-10l-166 -253l-74 53l189 239l-2 9z" />
<glyph unicode="+" horiz-adv-x="1165" d="M162 586v80h379v374h86v-374h377v-80h-377v-410h-86v410h-379z" />
<glyph unicode="," horiz-adv-x="487" d="M150 104v68q45 12 77 12q115 0 115 -127q0 -139 -92 -256l-62 15q37 68 55.5 133t18.5 155h-112z" />
<glyph unicode="-" horiz-adv-x="792" d="M139 530v84h514v-84h-514z" />
<glyph unicode="." horiz-adv-x="485" d="M176 0v137h135v-137h-135z" />
<glyph unicode="/" horiz-adv-x="976" d="M178 -166l537 1516l86 -21l-535 -1515z" />
<glyph unicode="0" horiz-adv-x="1292" d="M172 594q0 311 109.5 475t386.5 164q233 0 343.5 -148.5t110.5 -457.5q0 -313 -108.5 -475t-386.5 -162q-232 0 -343.5 148.5t-111.5 455.5zM268 616q0 -195 37 -311.5t119 -170.5t223 -54q74 0 149.5 12t129.5 35q98 215 98 479q0 195 -37 310.5t-119 170t-223 54.5 q-72 0 -148.5 -13.5t-129.5 -33.5q-98 -215 -99 -478z" />
<glyph unicode="1" horiz-adv-x="786" d="M141 1085l293 148q41 -4 77 -30.5t36 -51.5v-1151h-96v1108l-21 14l-262 -104z" />
<glyph unicode="2" horiz-adv-x="1169" d="M168 0v127q324 221 501 406.5t177 365.5q0 135 -62.5 189.5t-203.5 54.5q-139 0 -275 -45v-195h-67q-29 94 -29 180v64q96 43 184 64.5t197 21.5q180 0 266 -81t86 -243q0 -221 -176 -412.5t-483 -394.5v-16h612v154h70q27 -74 26 -170v-70h-823z" />
<glyph unicode="3" horiz-adv-x="1095" d="M154 35l16 86q160 -43 344 -43q74 0 127 6t119 18q53 78 53 215q0 127 -67.5 186.5t-225.5 59.5h-172v88h172q139 0 209 62.5t70 179.5q0 127 -67.5 188.5t-203.5 61.5q-129 0 -272 -33v-180h-68q-29 86 -28 160v69q102 37 188 55.5t193 18.5q352 0 352 -330 q0 -109 -45 -176.5t-141 -110.5v-12q115 -39 157.5 -106.5t42.5 -180.5q0 -154 -87 -241.5t-308 -87.5q-174 0 -358 47z" />
<glyph unicode="4" horiz-adv-x="1181" d="M133 360l619 873h110v-885h176v-90h-176v-258h-94v258h-604zM238 362l4 -14h524v426l14 336h-12z" />
<glyph unicode="5" horiz-adv-x="1099" d="M170 37l14 90q190 -49 353 -49q82 0 139 8t121 29q49 117 49 264q0 152 -61.5 209t-204.5 57q-76 0 -140.5 -11t-138.5 -38l-94 74l39 563h610v-90h-522l-33 -457q88 27 153.5 38t139.5 11q170 0 259 -82t89 -262q0 -201 -92 -302t-326 -101q-94 0 -176 12t-178 37z" />
<glyph unicode="6" horiz-adv-x="1089" d="M170 473q0 246 116.5 425t338.5 329l84 -45q-188 -129 -290 -253t-143 -298q170 98 345 98q168 0 255 -88t87 -262q0 -164 -86 -271.5t-299 -107.5q-203 0 -305.5 124t-102.5 349zM264 473q0 -197 79 -290t241 -93q73 0 124.5 7t104.5 24q51 111 51 258 q0 137 -62.5 199.5t-203.5 62.5q-166 0 -332 -98q-2 -25 -2 -70z" />
<glyph unicode="7" horiz-adv-x="1124" d="M158 1145v88h817v-119q-188 -276 -295 -534t-172 -574l-100 10q72 342 183 606.5t283 507.5v13h-620v-182h-68q-29 80 -28 184z" />
<glyph unicode="8" horiz-adv-x="1183" d="M182 328q0 113 42 178t132 129v14q-72 47 -107.5 103.5t-35.5 144.5q0 158 104.5 247t311.5 89q172 0 260 -89t88 -255q0 -94 -35 -157.5t-106 -110.5v-13q92 -55 130 -121.5t38 -164.5q0 -166 -94.5 -249t-317.5 -83q-203 0 -306.5 87t-103.5 251zM276 332 q0 -141 81 -197.5t270 -56.5q141 0 250 47q31 80 30 174q0 106 -29.5 167.5t-98 89.5t-189.5 28q-135 0 -230 -19q-45 -45 -64.5 -101t-19.5 -132zM307 909q0 -139 81 -193t251 -54q123 -1 213 32q31 82 31 174q0 156 -65.5 216.5t-225.5 60.5q-125 0 -242 -39 q-23 -53 -33 -99t-10 -98z" />
<glyph unicode="9" horiz-adv-x="1093" d="M129 809q0 186 96.5 302t306.5 116q201 0 297.5 -130t96.5 -362q0 -250 -115 -417.5t-342 -317.5l-84 47q190 129 286.5 237.5t139.5 270.5q-82 -53 -157.5 -78.5t-178.5 -25.5q-158 0 -252 93t-94 265zM225 809q0 -135 68.5 -201.5t198.5 -66.5q100 0 175.5 23.5 t155.5 76.5q6 43 6 94q0 201 -75.5 301.5t-231.5 100.5q-137 0 -237 -31q-31 -74 -45.5 -143.5t-14.5 -153.5z" />
<glyph unicode=":" horiz-adv-x="485" d="M176 33v137h135v-137h-135zM176 719v137h135v-137h-135z" />
<glyph unicode=";" horiz-adv-x="544" d="M176 205v67q45 12 78 13q115 0 115 -127q0 -139 -93 -256l-61 14q37 68 55.5 133.5t18.5 155.5h-113zM199 719v137h135v-137h-135z" />
<glyph unicode="&#x3c;" horiz-adv-x="1230" d="M172 459v98l819 389l29 -96l-746 -336v-12l746 -334l-29 -96z" />
<glyph unicode="=" horiz-adv-x="1191" d="M203 256v86h786v-86h-786zM203 664v86h786v-86h-786z" />
<glyph unicode="&#x3e;" horiz-adv-x="1230" d="M213 168l743 334v12l-743 336l27 96l821 -389v-98l-821 -387z" />
<glyph unicode="?" horiz-adv-x="1116" d="M182 1145v53q63 31 170 54.5t217 23.5q188 0 272.5 -80t84.5 -244q0 -92 -22.5 -148t-86.5 -106l-229 -170q-29 -23 -36 -39t-7 -57v-117h-96v136q0 43 12 68.5t45 49.5l323 244v148q0 121 -61 173t-203 52q-160 0 -289 -37v-158h-67q-27 76 -27 154zM444 0v162h103v-162 h-103z" />
<glyph unicode="@" horiz-adv-x="1665" d="M193 553q0 193 76.5 348.5t230 247.5t374.5 92q195 0 332 -75.5t206 -207t69 -292.5q0 -176 -74 -296t-233 -120q-59 0 -104.5 24.5t-86.5 71.5h-12q-43 -53 -94.5 -79.5t-118.5 -26.5q-96 0 -153.5 66.5t-57.5 176.5q0 100 33.5 190.5t99 145.5t156.5 55q102 0 172 -94 h10l33 70l63 -8l-90 -455q66 -61 162 -61q88 0 143 20q68 109 68 313q0 227 -132 367.5t-391 140.5q-195 0 -329.5 -79.5t-202.5 -219t-68 -315.5q0 -303 165 -450.5t464 -147.5q129 0 222.5 22.5t179.5 67.5l32 -61q-168 -104 -442 -105q-342 0 -522 175t-180 499zM635 487 q0 -88 35 -130t108 -42q92 0 162 76l57 322q-35 45 -68.5 65.5t-80.5 20.5q-98 0 -155.5 -90.5t-57.5 -221.5z" />
<glyph unicode="A" horiz-adv-x="1187" d="M90 12q199 717 393 1241h222q195 -524 393 -1241l-101 -12q-55 215 -125 440h-559q-76 -258 -123 -440zM340 528h504q-125 422 -205 633h-94q-39 -109 -98.5 -290t-106.5 -343z" />
<glyph unicode="B" horiz-adv-x="1081" d="M176 0v1231q164 43 318 43q415 0 415 -336q0 -188 -168 -297v-8q229 -76 230 -285q0 -174 -103.5 -261t-365.5 -87h-326zM270 88h222q154 0 237.5 28.5t114 84t30.5 143.5q0 111 -79.5 179.5t-227.5 68.5h-297v-504zM270 682h422q63 51 92 112.5t29 139.5 q0 129 -82 189.5t-246 60.5q-109 0 -215 -23v-479z" />
<glyph unicode="C" horiz-adv-x="1120" d="M123 600q0 301 128 487.5t388 186.5q100 0 184 -21.5t144 -54.5v-78q0 -84 -17 -133h-57l-23 172q-102 23 -233 23q-135 0 -260 -39q-158 -213 -158 -539q0 -268 105.5 -400t324.5 -132q195 0 326 84l47 -74q-135 -100 -377 -100q-262 0 -392 158.5t-130 459.5z" />
<glyph unicode="D" horiz-adv-x="1155" d="M176 0v1239q178 35 330 35q285 0 415 -156.5t130 -468.5q0 -297 -117 -473t-410 -176h-348zM272 90h246q92 0 157.5 9.5t131.5 29.5q72 80 109.5 210t37.5 300q0 285 -106.5 415t-349.5 130q-96 0 -226 -19v-1075z" />
<glyph unicode="E" horiz-adv-x="1052" d="M176 125v1128h727v-90h-631v-487h572v-90h-572v-488q145 -28 307 -28h11q168 0 315 30l23 -86q-141 -32 -332 -32h-12q-408 0 -408 143z" />
<glyph unicode="F" horiz-adv-x="1003" d="M176 0v1262h746v-91h-650v-497h545v-84h-545v-590h-96z" />
<glyph unicode="G" horiz-adv-x="1187" d="M123 600q0 305 134 489.5t411 184.5q106 0 199.5 -21.5t150.5 -54.5v-78q0 -33 -5 -71.5t-14 -61.5h-57l-22 172q-100 23 -258 23q-156 0 -281 -39q-162 -217 -162 -539q0 -532 438 -532q96 0 162 12t129 39v434h-289v90h314l69 -55v-385q0 -102 -107.5 -163.5 t-287.5 -61.5q-254 0 -389 158.5t-135 459.5z" />
<glyph unicode="H" horiz-adv-x="1200" d="M176 0v1253h96v-600h654v600h96v-1253h-96v561h-654v-561h-96z" />
<glyph unicode="I" d="M182 0v1253h97v-1253h-97z" />
<glyph unicode="J" horiz-adv-x="841" d="M63 29l27 86q119 -45 252 -45q129 0 213 47q18 53 18 127v1018h97v-1024q0 -256 -336 -256q-144 0 -271 47z" />
<glyph unicode="K" horiz-adv-x="1189" d="M176 0v1253h94v-557h222q104 0 155 45t96 131q80 156 179 383l90 -34q-86 -201 -181 -377q-41 -78 -70.5 -113t-96.5 -69v-13q68 -27 104.5 -63.5t69.5 -106.5l184 -405l100 -17v-55q-41 -14 -88 -14q-43 0 -69.5 17.5t-42.5 53.5l-166 369q-43 94 -97.5 137t-156.5 43 h-232v-608h-94z" />
<glyph unicode="L" horiz-adv-x="931" d="M176 0v1253h96v-1163h590v-90h-686z" />
<glyph unicode="M" horiz-adv-x="1382" d="M158 0l61 1253h98l367 -761h14l367 761h96l64 -1253h-99l-30 653l-13 416l-12 2l-336 -678h-88l-336 678l-12 -2l-12 -416l-33 -653h-96z" />
<glyph unicode="N" horiz-adv-x="1249" d="M176 0v1253h109l694 -1106l12 5l-14 438v663h96v-1253h-108l-695 1106l-14 -4l16 -438v-664h-96z" />
<glyph unicode="O" horiz-adv-x="1232" d="M125 608q0 324 116.5 495t397.5 171q244 0 356.5 -158t112.5 -471q0 -326 -115.5 -494.5t-398.5 -168.5q-242 0 -355.5 157.5t-113.5 468.5zM221 631q0 -195 38 -316.5t126 -182t240 -60.5q71 0 144 15t120 42q123 188 123 494q0 195 -37 316.5t-126 182t-241 60.5 q-74 0 -146.5 -15.5t-119.5 -42.5q-121 -188 -121 -493z" />
<glyph unicode="P" horiz-adv-x="1042" d="M176 0v1225q193 49 326 49q459 0 459 -416q0 -215 -102.5 -319.5t-344.5 -104.5h-242v-434h-96zM272 524h228q96 0 157.5 7.5t126.5 25.5q78 104 78 295q0 174 -90 253t-272 79q-131 0 -228 -27v-633z" />
<glyph unicode="Q" horiz-adv-x="1241" d="M125 612q0 324 117.5 493t398.5 169q244 0 358.5 -156.5t114.5 -470.5q0 -322 -116.5 -490.5t-395.5 -170.5q-25 0 -37 2v-168q100 -18 185 -19q145 0 258 23l18 -78q-117 -27 -274 -27q-70 0 -151 12.5t-132 28.5v76l33 158q-195 27 -286 181.5t-91 436.5zM221 633 q0 -201 38 -322t126 -178t242 -57q71 0 144 15t122 42q125 195 125 494q0 199 -38 319.5t-126 178t-242 57.5q-74 0 -148.5 -15.5t-121.5 -42.5q-121 -188 -121 -491z" />
<glyph unicode="R" horiz-adv-x="1161" d="M176 0v1231q176 43 322 43q219 0 322.5 -92t103.5 -275q0 -223 -203 -340v-14q49 -23 75.5 -55.5t59.5 -96.5l145 -327l103 -17v-55q-41 -14 -90 -14q-43 0 -69.5 17.5t-43.5 53.5l-129 291q-29 63 -52.5 99t-71.5 58.5t-130 22.5h-248v-530h-94zM270 621h398 q82 53 120.5 117.5t38.5 164.5q0 147 -80.5 214t-259.5 67q-111 0 -217 -23v-540z" />
<glyph unicode="S" horiz-adv-x="1046" d="M117 66l35 84q86 -41 174 -59.5t188 -18.5q152 0 254 55q41 72 41 186q0 113 -66.5 170.5t-222.5 96.5q-180 45 -279.5 118.5t-99.5 223.5q0 352 400 352q109 0 184.5 -18.5t142.5 -53.5v-53q0 -74 -26 -166h-66l-16 184q-129 18 -232 19q-156 0 -223 -61.5t-67 -188.5 q0 -78 32.5 -125t99 -78t183.5 -59q193 -49 273.5 -120t80.5 -204q0 -368 -401 -368h-2q-211 0 -387 84z" />
<glyph unicode="T" horiz-adv-x="1064" d="M78 1161v92h909v-92h-405v-1161h-97v1161h-407z" />
<glyph unicode="U" horiz-adv-x="1212" d="M168 344v909h96v-884q0 -115 36 -179.5t111.5 -91t200.5 -26.5q197 0 332 57v1124h96v-1077q0 -94 -119.5 -144t-322.5 -50q-217 0 -323.5 89t-106.5 273z" />
<glyph unicode="V" horiz-adv-x="1177" d="M92 1255l103 11q70 -295 178 -633t198 -541h37q90 205 200 544t177 630l102 -11q-84 -330 -194.5 -665.5t-224.5 -589.5h-156q-117 258 -228.5 594t-191.5 661z" />
<glyph unicode="W" horiz-adv-x="1679" d="M98 1249l103 15q102 -532 276 -1158h15q80 188 165.5 428t155.5 472l-49 229l96 14q115 -549 328 -1143h14q172 602 277 1158l102 -15q-139 -645 -321 -1249h-125q-158 426 -269 829h-18q-129 -416 -313 -829h-115q-172 569 -322 1249z" />
<glyph unicode="X" horiz-adv-x="1247" d="M104 16q176 313 406 611q-92 127 -195.5 292.5t-187.5 323.5l104 25q150 -293 355 -590h71q213 299 365 590l100 -25q-176 -326 -387 -612q102 -135 210 -300t190 -315l-101 -28q-78 147 -168 287.5t-211 306.5h-65q-129 -176 -219 -312.5t-168 -281.5z" />
<glyph unicode="Y" horiz-adv-x="1210" d="M66 1237l96 29q80 -201 186.5 -388.5t218.5 -330.5h76q113 147 220.5 333.5t185.5 385.5l96 -29q-193 -449 -453 -770h-39v-467h-96v467h-39q-266 330 -452 770z" />
<glyph unicode="Z" horiz-adv-x="1114" d="M125 0v119l745 1028v16h-614v-143h-70q-28 79 -28 164v6v63h821v-114l-748 -1033v-18h668v154h68q30 -76 30 -175v-6v-61h-872z" />
<glyph unicode="[" horiz-adv-x="567" d="M176 -174v1622h221v-86h-127v-1452h127v-84h-221z" />
<glyph unicode="\" horiz-adv-x="868" d="M141 1274l86 20l500 -1304l-86 -23z" />
<glyph unicode="]" horiz-adv-x="567" d="M170 -90h127v1452h-127v86h221v-1622h-221v84z" />
<glyph unicode="^" horiz-adv-x="1175" d="M162 604l377 649h98l377 -649l-86 -39l-334 578h-10l-334 -578z" />
<glyph unicode="_" horiz-adv-x="1138" d="M145 0h848v-68h-848v68z" />
<glyph unicode="`" horiz-adv-x="616" d="M74 1827l127 14l172 -289l-66 -12z" />
<glyph unicode="a" horiz-adv-x="940" d="M100 213q0 154 107.5 230.5t306.5 76.5q98 0 176 -10v149q0 131 -53 182.5t-180 51.5q-70 0 -176 -12l-21 -144h-67q-18 53 -19 117v29q66 37 154 62.5t174 25.5q135 0 207.5 -75t72.5 -216v-680h-75l-9 137h-14q-118 -155 -314 -155h-3q-129 0 -198 62t-69 169zM193 231 q0 -96 48 -134t142 -38q96 0 177 44t132 124v207q-92 14 -215 15q-127 0 -229 -25q-55 -88 -55 -193z" />
<glyph unicode="b" horiz-adv-x="1040" d="M172 27v1339h92v-379l-10 -168h16q80 72 160 112t174 40q162 0 243 -124t81 -339q0 -260 -110.5 -393t-332.5 -133q-149 0 -313 45zM264 90q111 -27 225 -27q177 0 261 105.5t84 333.5q0 197 -60.5 291t-189.5 94q-172 0 -320 -154v-643z" />
<glyph unicode="c" horiz-adv-x="913" d="M119 432q0 248 96 393.5t303 145.5q154 0 268 -76v-49q0 -92 -20 -141h-57l-13 159q-92 20 -184 21q-127 0 -219 -39q-84 -164 -84 -410q0 -180 80 -274t241 -94q154 0 265 84l49 -66q-63 -51 -139 -77.5t-179 -26.5q-211 0 -309 117.5t-98 332.5z" />
<glyph unicode="d" horiz-adv-x="1048" d="M121 479q0 207 88 349.5t270 142.5q90 0 161 -34t140 -97h13l-9 172v354h93v-1366h-76l-6 139h-15q-49 -70 -125.5 -113.5t-173.5 -43.5h-1q-359 0 -359 497zM213 473q0 -205 64.5 -307.5t222.5 -102.5q98 0 168.5 50.5t113.5 126.5v518q-74 70 -137 99.5t-143 29.5 q-289 0 -289 -414z" />
<glyph unicode="e" horiz-adv-x="954" d="M121 473q0 233 99 365.5t298 132.5q156 0 246 -96.5t90 -268.5q0 -20 -4 -74l-90 -94l-549 2q4 -188 80 -282.5t233 -94.5q90 0 152.5 17.5t126.5 54.5l31 -74q-70 -39 -139.5 -59t-172.5 -20h-2q-399 0 -399 491zM209 510l551 10q10 37 10 96q0 125 -66.5 198t-193.5 73 q-158 0 -223.5 -93.5t-77.5 -283.5z" />
<glyph unicode="f" horiz-adv-x="653" d="M80 872l12 82h123v185q0 74 42 130t101 89q59 14 119 14q76 0 154 -29l-27 -77q-35 12 -64.5 16t-74.5 4q-74 0 -137 -18q-23 -63 -23 -140v-174h221l-10 -82h-211v-872h-90v872h-135z" />
<glyph unicode="g" horiz-adv-x="1019" d="M123 467q0 504 354 504q176 0 279 -160h12l8 150h78v-1088q0 -135 -94 -196.5t-260 -61.5q-181 0 -316 68l29 75q61 -29 135 -45t146 -16q92 0 156.5 14.5t115.5 44.5v281l6 123h-16q-125 -152 -297 -152q-170 0 -253 124t-83 335zM215 475q0 -193 63.5 -289t196.5 -96 q166 0 287 158v475q-119 166 -277 166q-145 0 -207.5 -104.5t-62.5 -309.5z" />
<glyph unicode="h" horiz-adv-x="1044" d="M174 0v1366h92v-373l-8 -180h12q170 158 371 158q119 0 179.5 -44t60.5 -143v-784h-93v860q-78 27 -165 27q-100 0 -195.5 -41t-161.5 -109v-737h-92z" />
<glyph unicode="i" horiz-adv-x="438" d="M172 1135v182h94v-182h-94zM174 0v952h90v-952h-90z" />
<glyph unicode="j" horiz-adv-x="522" d="M-47 -358l20 79q68 -18 146 -18q70 0 125 18q12 33 16 67t4 87v1079h90v-1087q0 -119 -61.5 -184.5t-175.5 -65.5q-88 0 -164 25zM264 1135v182h94v-182h-94z" />
<glyph unicode="k" horiz-adv-x="983" d="M166 0v1366h90v-821h127q109 0 164 45t96 131l109 244l90 -33l-115 -246q-33 -72 -74 -111.5t-114 -62.5v-12q78 -25 120.5 -65t77.5 -118l115 -256l80 -12v-51q-45 -10 -74 -10q-71 0 -100 63l-99 221q-45 102 -103 147.5t-163 45.5h-137v-465h-90z" />
<glyph unicode="l" horiz-adv-x="538" d="M162 141v1225h90v-1202q0 -37 4 -56.5t16 -41.5h31l135 63l41 -51q-78 -74 -188 -92q-47 24 -88 69t-41 86z" />
<glyph unicode="m" horiz-adv-x="1626" d="M172 0v954h76l8 -137h14q168 154 357 154q109 0 165 -37t62 -117h12q170 154 359 154q123 0 179 -43t56 -148v-780h-90v858q-41 14 -74.5 21.5t-83.5 7.5q-94 0 -187 -37t-163 -105v-745h-92v858q-41 14 -74.5 21.5t-81.5 7.5q-96 0 -188 -37t-162 -107v-743h-92z" />
<glyph unicode="n" horiz-adv-x="1044" d="M172 0v954h76l6 -141h14q170 158 371 158q119 0 179.5 -44t60.5 -143v-784h-93v860q-78 27 -165 27q-100 0 -195.5 -41t-161.5 -109v-737h-92z" />
<glyph unicode="o" horiz-adv-x="1019" d="M119 465q0 242 92 381t321 139q184 0 276.5 -130t92.5 -359q0 -240 -92 -377t-322 -137q-184 0 -276 127t-92 356zM209 483q0 -217 70.5 -318.5t230.5 -101.5q135 1 223 50q35 57 55.5 154.5t20.5 205.5q0 219 -70.5 322.5t-230.5 103.5q-139 0 -223 -49 q-35 -57 -55.5 -156.5t-20.5 -210.5z" />
<glyph unicode="p" horiz-adv-x="1062" d="M174 -383v1337h80l8 -139h17q82 78 161.5 117t173.5 39q330 0 330 -490q0 -225 -86 -355t-272 -130q-84 0 -166 33.5t-148 95.5h-12l6 -174v-334h-92zM264 215q129 -137 307 -137q148 0 212.5 103.5t64.5 303.5q0 209 -59.5 306.5t-198.5 97.5q-92 0 -177 -48t-149 -124 v-502z" />
<glyph unicode="q" horiz-adv-x="1040" d="M115 446q0 258 110.5 392.5t331.5 134.5q139 0 309 -51v-1328h-90v377l8 168h-14q-57 -63 -131 -103t-178 -40q-170 0 -258 125t-88 325zM209 453q0 -182 67.5 -278.5t202.5 -96.5q94 0 170 41t127 108v635q-111 27 -223 27q-176 0 -260 -105.5t-84 -330.5z" />
<glyph unicode="r" horiz-adv-x="716" d="M172 0v950h72l8 -178h14q49 86 132 138.5t188 52.5q14 0 33.5 -13.5t29.5 -27.5l-12 -66h-80q-106 0 -181 -48t-112 -134v-674h-92z" />
<glyph unicode="s" horiz-adv-x="841" d="M109 43l30 78q70 -31 137.5 -45.5t147.5 -14.5q106 0 192 29q27 66 27 148q0 63 -18.5 98t-60.5 56.5t-128 41.5q-162 37 -238.5 94.5t-76.5 173.5q0 115 80 192t250 77q141 0 239 -56v-41q0 -63 -20 -120h-56l-14 127q-70 12 -158 12q-125 0 -179 -41t-54 -129 q0 -59 22.5 -94t74.5 -59.5t155 -51.5q147 -37 209.5 -93t62.5 -167q0 -117 -74.5 -196.5t-246.5 -79.5q-178 0 -303 61z" />
<glyph unicode="t" horiz-adv-x="729" d="M68 872l12 82h151v265h91v-265h315l-10 -82h-305v-665q0 -41 4 -63.5t14 -51.5q63 -18 125 -18q41 0 86 9t78 26l26 -78q-31 -16 -81 -28.5t-95 -12.5q-68 0 -123 14q-125 63 -125 178v690h-163z" />
<glyph unicode="u" horiz-adv-x="1032" d="M162 168v786h92v-864q69 -24 155 -24h7q104 0 196.5 44t155.5 113v731h92v-954h-76l-8 145h-12q-86 -82 -170 -122.5t-193 -40.5q-118 0 -178.5 44t-60.5 142z" />
<glyph unicode="v" horiz-adv-x="960" d="M76 950l94 11q156 -530 299 -873h25q137 330 301 873l92 -11q-156 -496 -344 -950h-125q-178 415 -342 950z" />
<glyph unicode="w" horiz-adv-x="1431" d="M88 950l90 11q131 -549 242 -869h20q150 395 238 672q-8 33 -41 172l82 12q94 -403 254 -860h22q115 305 269 875l88 -11q-94 -328 -161 -537.5t-144 -414.5h-123q-109 297 -207 623h-10q-57 -180 -205 -570l-21 -53h-110q-166 461 -283 950z" />
<glyph unicode="x" horiz-adv-x="968" d="M80 6q131 229 305 473q-152 209 -299 465l92 17q123 -231 273 -441h69q152 207 279 441l88 -17q-141 -244 -301 -461q166 -240 299 -477l-90 -18q-104 197 -275 452h-71q-170 -248 -281 -452z" />
<glyph unicode="y" horiz-adv-x="987" d="M84 952l92 11q133 -485 273 -834h116q139 430 236 834l92 -11q-76 -319 -175.5 -630.5t-201.5 -559.5q-59 -137 -229 -137q-94 0 -160 31v45q0 51 16 113h68v-101q41 -8 100 -8q53 0 99 12q59 131 125 328h-140q-100 248 -170.5 455t-140.5 452z" />
<glyph unicode="z" horiz-adv-x="892" d="M117 0v106l540 754v14h-430l-10 -122h-63q-18 70 -19 131v71h619v-110l-541 -748v-16h473l10 131h64q18 -74 18 -133v-78h-661z" />
<glyph unicode="{" horiz-adv-x="825" d="M145 608v80q260 0 244 285l-10 147q-2 20 -2 58q0 170 76.5 248.5t246.5 89.5v-89q-111 -6 -204 -43q-31 -129 -25 -272l8 -170q12 -233 -182 -289v-12q195 -55 182 -287l-8 -200q-6 -143 25 -273q98 -35 204 -41v-88q-170 10 -246.5 89t-76.5 249q0 37 2 57l10 177 q16 285 -244 284z" />
<glyph unicode="|" horiz-adv-x="462" d="M190 -287v1561h84v-1561h-84z" />
<glyph unicode="}" horiz-adv-x="825" d="M125 -160q106 6 205 41q31 129 24 273l-8 200q-10 233 182 287v12q-193 53 -182 289l8 170q6 143 -24 272q-94 37 -205 43v89q170 -10 247 -89t77 -249q0 -37 -3 -58l-10 -147q-16 -285 244 -285v-80q-260 0 -244 -284l10 -177q2 -20 3 -57q0 -170 -77 -249t-247 -89v88z " />
<glyph unicode="~" horiz-adv-x="911" d="M125 489q14 104 60 151.5t124 47.5q47 0 85 -17.5t85 -49.5q35 -25 61.5 -38.5t53.5 -13.5q49 0 76.5 32t40.5 93l75 -12q-14 -104 -59 -151.5t-123 -47.5q-47 0 -85 18.5t-89 51.5q-8 4 -32.5 19.5t-44 22.5t-36.5 7q-49 0 -75.5 -31.5t-38.5 -93.5z" />
<glyph unicode="&#xa1;" d="M178 1090v163h105v-163h-105zM180 0v412l15 485h71l13 -483v-414h-99z" />
<glyph unicode="&#xa2;" horiz-adv-x="913" d="M125 432q0 498 342 531v290h84v-290q125 -8 231 -74v-45q0 -80 -20 -137h-57l-13 151q-96 20 -184 21q-129 0 -219 -39q-33 -72 -53.5 -175.5t-20.5 -228.5q0 -371 311 -370q147 0 265 86l47 -68q-59 -47 -128 -73.5t-157 -28.5v-277h-88v279q-340 29 -340 448z" />
<glyph unicode="&#xa3;" horiz-adv-x="1103" d="M125 10v60l135 16v444h-133v80h133v297q0 170 95.5 258t295.5 88q84 0 146.5 -10t136.5 -35l-23 -80q-70 18 -126 26.5t-128 8.5q-78 0 -139 -7t-129 -28q-20 -66 -27.5 -115.5t-7.5 -113.5v-289h422v-80h-422v-444q121 -10 277 -10q152 0 358 16v-82q-199 -20 -399 -20 q-252 0 -465 20z" />
<glyph unicode="&#xa4;" horiz-adv-x="1150" d="M152 221l135 137q-41 59 -59.5 113.5t-18.5 124.5t18.5 124t59.5 111l-135 140l59 57l137 -133q55 39 109.5 57.5t122.5 18.5t122 -18.5t109 -57.5l139 133l58 -57l-134 -140q41 -57 58.5 -111t17.5 -124t-17.5 -124t-58.5 -114l134 -137l-58 -57l-139 135 q-53 -39 -108.5 -58.5t-122.5 -19.5q-68 0 -123.5 19.5t-108.5 58.5l-137 -135zM293 596q0 -127 78 -207t209 -80t208.5 80t77.5 207q0 125 -77.5 207t-208.5 82t-209 -82t-78 -207z" />
<glyph unicode="&#xa5;" horiz-adv-x="1267" d="M96 1237l94 29q154 -371 406 -717h78q254 348 403 717l97 -29q-174 -395 -406 -705h152v-75h-238v-166h238v-76h-238v-215h-96v215h-234v76h234v166h-234v75h150q-240 317 -406 705z" />
<glyph unicode="&#xa6;" horiz-adv-x="462" d="M190 -225v651h84v-651h-84zM190 623v651h84v-651h-84z" />
<glyph unicode="&#xa7;" horiz-adv-x="1105" d="M150 516q0 86 41.5 144.5t130.5 107.5v12q-53 43 -81 91.5t-28 115.5q0 129 94 205t271 76q152 0 264 -54v-40q0 -72 -21 -134h-59l-17 125q-82 16 -174 17q-129 0 -195.5 -43t-66.5 -138q0 -70 31 -112.5t95.5 -69t180.5 -53.5q125 -27 196 -56.5t107.5 -80.5t36.5 -137 q0 -94 -46 -156t-146 -117v-12q84 -63 84 -180q0 -127 -83 -207t-261 -80q-80 0 -143.5 10t-145.5 35l29 80q70 -20 127 -28.5t137 -8.5q113 0 215 25q14 33 21.5 75.5t7.5 81.5q0 66 -25 103t-84 63.5t-188 63.5q-160 45 -232.5 106.5t-72.5 169.5zM246 528 q0 -76 49 -117.5t182 -82.5l236 -74q147 104 147 219q0 61 -21.5 96t-77.5 59.5t-171 51.5q-119 27 -201 55q-78 -39 -110.5 -85t-32.5 -122z" />
<glyph unicode="&#xa8;" horiz-adv-x="757" d="M152 1067q0 31 18 48.5t49 17.5t48.5 -16.5t17.5 -49.5q0 -31 -17.5 -47t-48.5 -16t-49 16t-18 47zM473 1067q0 33 18.5 49.5t51.5 16.5q31 0 48 -16.5t17 -49.5q0 -31 -17.5 -47t-47.5 -16q-33 0 -51.5 16t-18.5 47z" />
<glyph unicode="&#xa9;" horiz-adv-x="1513" d="M145 631q0 182 74 320.5t212 215t327 76.5q188 0 326.5 -76.5t211 -215t72.5 -320.5t-72.5 -320.5t-211 -215.5t-326.5 -77q-189 0 -327 77t-212 215.5t-74 320.5zM199 631q0 -170 66.5 -297t192.5 -195.5t298 -68.5q174 0 300 68.5t192.5 195.5t66.5 297t-66.5 297 t-192.5 195.5t-300 68.5q-172 0 -298 -68.5t-192.5 -195.5t-66.5 -297zM455 612q0 168 76.5 278.5t220.5 110.5q63 0 120.5 -14t88.5 -35v-34q0 -57 -17 -107h-51l-8 104q-61 10 -140 11q-78 0 -137 -11q-76 -129 -76 -305q0 -285 234 -284q111 0 182 39l31 -68 q-86 -47 -213 -47q-150 0 -230.5 98t-80.5 264z" />
<glyph unicode="&#xaa;" horiz-adv-x="722" d="M111 715q0 106 82.5 163.5t222.5 57.5q53 0 110 -10v123q0 80 -29.5 108.5t-113.5 28.5q-74 0 -150 -17l-12 -84h-47q-12 61 -12 91v32q119 53 246 54q100 0 150 -51.5t50 -147.5v-510h-69l-7 102h-12q-86 -113 -221 -112q-92 0 -140 48t-48 124zM195 733q0 -57 27.5 -86 t94.5 -29q66 0 116 29t93 84v121q-70 12 -143 12q-74 0 -160 -16q-29 -51 -28 -115z" />
<glyph unicode="&#xab;" horiz-adv-x="960" d="M131 514l266 352l66 -28l-238 -320v-8l238 -320l-66 -28zM459 514l266 352l66 -28l-238 -320v-8l238 -320l-66 -28z" />
<glyph unicode="&#xac;" horiz-adv-x="915" d="M125 598v84h668v-377h-88v293h-580z" />
<glyph unicode="&#xad;" horiz-adv-x="679" d="M139 489v86h402v-86h-402z" />
<glyph unicode="&#xae;" horiz-adv-x="1513" d="M145 631q0 182 74 320.5t212 215t327 76.5q188 0 326.5 -76.5t211 -215t72.5 -320.5t-72.5 -320.5t-211 -215.5t-326.5 -77q-189 0 -327 77t-212 215.5t-74 320.5zM199 631q0 -170 66.5 -297t192.5 -195.5t298 -68.5q174 0 300 68.5t192.5 195.5t66.5 297t-66.5 297 t-192.5 195.5t-300 68.5q-172 0 -298 -68.5t-192.5 -195.5t-66.5 -297zM528 279v725q109 25 187 24q139 0 202.5 -56.5t63.5 -166.5q0 -152 -137 -201v-6q53 -20 84 -80l86 -186l47 -10v-39q-31 -10 -55 -11q-47 1 -74 54l-70 153q-27 55 -58.5 80t-94.5 25h-105v-305h-76z M604 657h88q121 0 167 33t46 111q0 84 -43 119.5t-143 35.5q-63 0 -115 -8v-291z" />
<glyph unicode="&#xaf;" horiz-adv-x="802" d="M125 1116v84h553v-84h-553z" />
<glyph unicode="&#xb0;" horiz-adv-x="813" d="M115 901q0 162 86 250t254 88q301 0 301 -303q0 -162 -86 -250t-254 -88q-301 0 -301 303zM211 918q0 -92 22.5 -142.5t71.5 -71t137 -20.5q87 0 185 29q31 98 30 207q0 92 -22.5 142t-71.5 70.5t-137 20.5q-86 0 -184 -29q-31 -98 -31 -206z" />
<glyph unicode="&#xb1;" horiz-adv-x="1193" d="M176 653v80h377v375h88v-375h377v-80h-377v-407h-88v407h-377zM203 0v78h807v-78h-807z" />
<glyph unicode="&#xb2;" horiz-adv-x="657" d="M94 684v119q371 227 371 403q0 72 -32 101.5t-105 29.5q-55 0 -127 -12v-94h-70q-14 51 -14 110v33q100 43 221 43q115 0 165 -56t50 -151q0 -119 -101.5 -227.5t-269.5 -212.5v-10h301v65h66q16 -43 16 -104v-37h-471z" />
<glyph unicode="&#xb3;" horiz-adv-x="628" d="M76 700l12 78q98 -25 195 -24q86 0 145 12q23 47 23 108q0 129 -172 130h-74v77h74q152 0 151 131q0 66 -34 96.5t-101 30.5q-63 0 -129 -8v-76h-68q-14 51 -14 93v34q100 37 215 37q109 0 164 -53t55 -141q0 -70 -32.5 -111t-100.5 -65v-7q84 -25 118 -67.5t34 -106.5 q0 -88 -59.5 -140t-192.5 -52q-113 -1 -209 24z" />
<glyph unicode="&#xb4;" horiz-adv-x="661" d="M147 1552l172 289l127 -14l-233 -287z" />
<glyph unicode="&#xb5;" horiz-adv-x="1040" d="M174 -436v1399h94v-832q82 -55 205 -55q98 0 173 41t134 116v730h94v-963h-71l-12 145h-15q-72 -82 -137.5 -118.5t-169.5 -36.5q-109 0 -186 57h-15v-483h-94z" />
<glyph unicode="&#xb6;" horiz-adv-x="1312" d="M156 897q0 180 98 272.5t293 92.5h426v-1508h-90v1430h-213v-1430h-90v789h-50q-182 0 -278 92t-96 262z" />
<glyph unicode="&#xb7;" horiz-adv-x="696" d="M262 551q0 39 24.5 62.5t63.5 23.5q41 0 64.5 -23.5t23.5 -62.5t-23.5 -61.5t-64.5 -22.5t-64.5 22.5t-23.5 61.5z" />
<glyph unicode="&#xb8;" horiz-adv-x="661" d="M197 -410l24 66q68 -25 146 -25q63 0 106 15q12 37 12 75q0 43 -22.5 64.5t-73.5 21.5q-57 0 -92 -12l-66 64l134 155l61 -12l-107 -141q41 18 101 18q150 0 149 -149q0 -172 -209 -172q-87 -1 -163 32z" />
<glyph unicode="&#xb9;" horiz-adv-x="454" d="M70 1315l163 102q33 -2 67 -21.5t34 -35.5v-680h-86v641l-8 6l-152 -59z" />
<glyph unicode="&#xba;" horiz-adv-x="761" d="M109 881q0 170 69.5 259t222.5 89q125 0 189.5 -85t64.5 -253q0 -170 -69.5 -259t-223.5 -89q-126 0 -189.5 87t-63.5 251zM193 897q0 -141 44 -208.5t144 -67.5q47 0 80 5t69 17q39 98 39 231q0 145 -44 211t-144 66q-47 0 -80 -5t-70 -18q-39 -96 -38 -231z" />
<glyph unicode="&#xbb;" horiz-adv-x="921" d="M133 190l238 320v8l-238 320l66 28l266 -352l-266 -352zM461 190l237 320v8l-237 320l65 28l267 -352l-267 -352z" />
<glyph unicode="&#xbc;" horiz-adv-x="1626" d="M135 1159l164 103q33 -2 66.5 -21.5t33.5 -36.5v-680h-88v637l-8 6l-149 -59zM336 12l786 1256l76 -19l-786 -1259zM936 223l350 500h88v-504h113v-74h-113v-145h-86v145h-319zM1036 227l4 -8h250v154q0 115 15 243h-9z" />
<glyph unicode="&#xbd;" horiz-adv-x="1611" d="M135 1159l164 103q33 -2 66.5 -21.5t33.5 -36.5v-680h-88v637l-8 6l-149 -59zM336 12l786 1256l76 -19l-786 -1259zM1083 0v119q371 227 371 403q0 72 -31.5 101.5t-105.5 29.5q-55 0 -127 -12v-94h-70q-14 51 -14 110v33q102 43 221 43q115 0 165 -56t50 -151 q0 -119 -101.5 -227.5t-269.5 -212.5v-10h302v65h65q16 -43 16 -104v-37h-471z" />
<glyph unicode="&#xbe;" horiz-adv-x="1681" d="M141 535l13 77q98 -25 194 -24q86 0 146 12q23 47 22 109q0 129 -172 129h-74v77h74q152 0 152 132q0 66 -34 96.5t-102 30.5q-63 0 -129 -9v-75h-67q-14 51 -14 92v35q100 37 215 36q109 0 164 -53t55 -141q0 -70 -33 -111t-100 -65v-6q84 -25 117.5 -68t33.5 -107 q0 -88 -59.5 -140t-192.5 -52q-113 0 -209 25zM451 12l786 1256l76 -19l-787 -1259zM991 223l350 500h89v-504h112v-74h-112v-145h-87v145h-319zM1094 227l4 -8h250v154q0 115 14 243h-8z" />
<glyph unicode="&#xbf;" horiz-adv-x="1042" d="M145 106q0 92 22.5 148.5t86.5 105.5l229 170q29 23 36 39.5t7 57.5v116h97v-135q0 -43 -12.5 -68.5t-45.5 -50.5l-323 -243v-148q0 -121 61.5 -173t202.5 -52q158 0 291 37v158h65q27 -80 27 -154v-53q-63 -31 -169 -54.5t-218 -23.5q-189 0 -273 80t-84 243zM522 897 v162h103v-162h-103z" />
<glyph unicode="&#xc0;" horiz-adv-x="1187" d="M90 12q199 717 393 1241h222q195 -524 393 -1241l-101 -12q-55 215 -125 440h-559q-76 -258 -123 -440zM332 1743l127 12l172 -287l-66 -12zM340 528h504q-125 422 -205 633h-94q-39 -109 -98.5 -290t-106.5 -343z" />
<glyph unicode="&#xc1;" horiz-adv-x="1187" d="M90 12q199 717 393 1241h222q195 -524 393 -1241l-101 -12q-55 215 -125 440h-559q-76 -258 -123 -440zM340 528h504q-125 422 -205 633h-94q-39 -109 -98.5 -290t-106.5 -343zM555 1460l172 289l127 -14l-233 -285z" />
<glyph unicode="&#xc2;" horiz-adv-x="1187" d="M90 12q199 717 393 1241h222q195 -524 393 -1241l-101 -12q-55 215 -125 440h-559q-76 -258 -123 -440zM334 1462l209 269h100l207 -269l-62 -14l-190 201h-10l-193 -201zM340 528h504q-125 422 -205 633h-94q-39 -109 -98.5 -290t-106.5 -343z" />
<glyph unicode="&#xc3;" horiz-adv-x="1187" d="M90 12q199 717 393 1241h222q195 -524 393 -1241l-101 -12q-55 215 -125 440h-559q-76 -258 -123 -440zM313 1470q4 82 43 127t107 45q35 0 62.5 -15t68.5 -44q37 -27 58.5 -38t45.5 -11q80 0 95 111l63 -21q-4 -82 -43 -127t-106 -45q-35 0 -66 15.5t-70 43.5 q-61 49 -100 50q-80 0 -94 -109zM340 528h504q-125 422 -205 633h-94q-39 -109 -98.5 -290t-106.5 -343z" />
<glyph unicode="&#xc4;" horiz-adv-x="1187" d="M90 12q199 717 393 1241h222q195 -524 393 -1241l-101 -12q-55 215 -125 440h-559q-76 -258 -123 -440zM340 528h504q-125 422 -205 633h-94q-39 -109 -98.5 -290t-106.5 -343zM362 1516q0 31 18.5 48t49.5 17t48.5 -16.5t17.5 -48.5q0 -29 -17.5 -46.5t-48.5 -17.5 t-49.5 17.5t-18.5 46.5zM684 1516q0 33 18.5 49t51.5 16q31 0 48 -16.5t17 -48.5q0 -29 -17.5 -46.5t-47.5 -17.5q-33 0 -51.5 17.5t-18.5 46.5z" />
<glyph unicode="&#xc5;" horiz-adv-x="1187" d="M90 12q199 717 393 1241h222q195 -524 393 -1241l-101 -12q-55 215 -125 440h-559q-76 -258 -123 -440zM340 528h504q-125 422 -205 633h-94q-39 -109 -98.5 -290t-106.5 -343zM375 1610q0 78 64.5 134t170.5 56q199 0 199 -170q0 -78 -61.5 -132t-172.5 -54 q-96 0 -148 42t-52 124zM449 1614q0 -104 131 -105q86 1 137 17q18 55 18 100q0 109 -133 109q-84 0 -135 -17q-18 -55 -18 -104z" />
<glyph unicode="&#xc6;" horiz-adv-x="1888" d="M90 33q342 682 674 1220h962v-90h-630v-487h571v-90h-571v-488q150 -29 319 -28q170 0 314 30l22 -86q-141 -35 -342 -34q-410 0 -410 143v319h-583q-111 -199 -232 -442zM461 532h538v629h-180q-221 -362 -358 -629z" />
<glyph unicode="&#xc7;" horiz-adv-x="1120" d="M123 600q0 301 128 487.5t388 186.5q100 0 184 -21.5t144 -54.5v-78q0 -84 -17 -133h-57l-23 172q-102 23 -233 23q-135 0 -260 -39q-158 -213 -158 -539q0 -268 105.5 -400t324.5 -132q195 0 326 84l47 -74q-129 -94 -350 -100h-23l-90 -121q43 18 100 18 q150 0 150 -149q0 -172 -207 -172q-90 -1 -166 32l25 66q68 -25 145 -25q63 0 107 15q12 27 12 75q0 43 -22.5 64.5t-71.5 21.5q-59 0 -94 -12l-64 64l105 125q-229 20 -342 176.5t-113 439.5z" />
<glyph unicode="&#xc8;" horiz-adv-x="1064" d="M176 125v1128h727v-90h-631v-487h572v-90h-572v-488q150 -29 318 -28q168 0 315 30l23 -86q-145 -33 -344 -32q-408 0 -408 143zM319 1735l127 14l172 -289l-65 -10z" />
<glyph unicode="&#xc9;" horiz-adv-x="1064" d="M176 125v1128h727v-90h-631v-487h572v-90h-572v-488q150 -29 318 -28q168 0 315 30l23 -86q-145 -33 -344 -32q-408 0 -408 143zM492 1468l172 287l127 -12l-234 -287z" />
<glyph unicode="&#xca;" horiz-adv-x="1064" d="M176 125v1128h727v-90h-631v-487h572v-90h-572v-488q150 -29 318 -28q168 0 315 30l23 -86q-145 -33 -344 -32q-408 0 -408 143zM276 1462l209 269h101l207 -269l-62 -14l-190 201h-11l-192 -201z" />
<glyph unicode="&#xcb;" horiz-adv-x="1064" d="M176 125v1128h727v-90h-631v-487h572v-90h-572v-488q150 -29 318 -28q168 0 315 30l23 -86q-145 -33 -344 -32q-408 0 -408 143zM319 1516q0 31 18.5 48t49.5 17t48.5 -16.5t17.5 -48.5q0 -29 -17.5 -46.5t-48.5 -17.5t-49.5 17.5t-18.5 46.5zM641 1516q0 33 18.5 49 t51.5 16q31 0 48 -16.5t17 -48.5q0 -29 -17.5 -46.5t-47.5 -17.5q-33 0 -51.5 17.5t-18.5 46.5z" />
<glyph unicode="&#xcc;" d="M-20 1735l126 14l173 -289l-66 -10zM182 0v1253h97v-1253h-97z" />
<glyph unicode="&#xcd;" d="M182 0v1253h97v-1253h-97zM188 1460l172 289l127 -14l-233 -285z" />
<glyph unicode="&#xce;" d="M-29 1462l209 269h101l208 -269l-63 -14l-188 201h-13l-190 -201zM182 0v1253h97v-1253h-97z" />
<glyph unicode="&#xcf;" d="M0 1516q0 31 18.5 48t49.5 17t48 -16.5t17 -48.5q0 -29 -17.5 -46.5t-47.5 -17.5q-31 0 -49.5 17.5t-18.5 46.5zM182 0v1253h97v-1253h-97zM322 1516q0 33 18 49t51 16q31 0 48.5 -16.5t17.5 -48.5q0 -29 -17.5 -46.5t-48.5 -17.5q-33 0 -51 17.5t-18 46.5z" />
<glyph unicode="&#xd0;" horiz-adv-x="1273" d="M92 621v81h203v537q178 35 330 35q285 0 414.5 -156.5t129.5 -468.5q0 -297 -117.5 -473t-410.5 -176h-346v621h-203zM391 90h246q92 0 157.5 9.5t131.5 29.5q72 80 109.5 210t37.5 300q0 285 -106.5 415t-350.5 130q-96 0 -225 -19v-463h238v-81h-238v-531z" />
<glyph unicode="&#xd1;" horiz-adv-x="1249" d="M176 0v1253h109l694 -1106l12 5l-14 438v663h96v-1253h-108l-695 1106l-14 -4l16 -438v-664h-96zM354 1473q4 82 43 127t107 45q35 0 62.5 -15.5t68.5 -44.5q37 -27 58.5 -38t45.5 -11q80 0 95 111l63 -21q-4 -82 -43 -127t-106 -45q-35 0 -66 15.5t-70 43.5 q-61 49 -100 50q-80 0 -94 -109z" />
<glyph unicode="&#xd2;" horiz-adv-x="1232" d="M125 608q0 324 116.5 495t397.5 171q244 0 356.5 -158t112.5 -471q0 -326 -115.5 -494.5t-398.5 -168.5q-242 0 -355.5 157.5t-113.5 468.5zM221 631q0 -195 38 -316.5t126 -182t240 -60.5q71 0 144 15t120 42q123 188 123 494q0 195 -37 316.5t-126 182t-241 60.5 q-74 0 -146.5 -15.5t-119.5 -42.5q-121 -188 -121 -493zM399 1733l127 14l172 -289l-65 -10z" />
<glyph unicode="&#xd3;" horiz-adv-x="1232" d="M125 608q0 324 116.5 495t397.5 171q244 0 356.5 -158t112.5 -471q0 -326 -115.5 -494.5t-398.5 -168.5q-242 0 -355.5 157.5t-113.5 468.5zM221 631q0 -195 38 -316.5t126 -182t240 -60.5q71 0 144 15t120 42q123 188 123 494q0 195 -37 316.5t-126 182t-241 60.5 q-74 0 -146.5 -15.5t-119.5 -42.5q-121 -188 -121 -493zM584 1460l172 289l127 -14l-234 -287z" />
<glyph unicode="&#xd4;" horiz-adv-x="1232" d="M125 608q0 324 116.5 495t397.5 171q244 0 356.5 -158t112.5 -471q0 -326 -115.5 -494.5t-398.5 -168.5q-242 0 -355.5 157.5t-113.5 468.5zM221 631q0 -195 38 -316.5t126 -182t240 -60.5q71 0 144 15t120 42q123 188 123 494q0 195 -37 316.5t-126 182t-241 60.5 q-74 0 -146.5 -15.5t-119.5 -42.5q-121 -188 -121 -493zM375 1462l209 269h100l207 -269l-62 -14l-190 201h-10l-193 -201z" />
<glyph unicode="&#xd5;" horiz-adv-x="1232" d="M125 608q0 324 116.5 495t397.5 171q244 0 356.5 -158t112.5 -471q0 -326 -115.5 -494.5t-398.5 -168.5q-242 0 -355.5 157.5t-113.5 468.5zM221 631q0 -195 38 -316.5t126 -182t240 -60.5q71 0 144 15t120 42q123 188 123 494q0 195 -37 316.5t-126 182t-241 60.5 q-74 0 -146.5 -15.5t-119.5 -42.5q-121 -188 -121 -493zM348 1464q4 82 43 128t107 46q35 0 62.5 -15t68.5 -44q37 -27 58.5 -38t45.5 -11q80 0 94 108l64 -18q-4 -82 -43 -128t-107 -46q-35 0 -66.5 16.5t-68.5 44.5q-33 25 -55.5 37t-44.5 12q-80 0 -94 -110z" />
<glyph unicode="&#xd6;" horiz-adv-x="1232" d="M125 608q0 324 116.5 495t397.5 171q244 0 356.5 -158t112.5 -471q0 -326 -115.5 -494.5t-398.5 -168.5q-242 0 -355.5 157.5t-113.5 468.5zM221 631q0 -195 38 -316.5t126 -182t240 -60.5q71 0 144 15t120 42q123 188 123 494q0 195 -37 316.5t-126 182t-241 60.5 q-74 0 -146.5 -15.5t-119.5 -42.5q-121 -188 -121 -493zM389 1516q0 31 18.5 48t49.5 17t48 -16.5t17 -48.5q0 -29 -17.5 -46.5t-47.5 -17.5q-31 0 -49.5 17.5t-18.5 46.5zM711 1516q0 33 18.5 49t50.5 16q31 0 48.5 -16.5t17.5 -48.5q0 -29 -17.5 -46.5t-48.5 -17.5 q-32 0 -50.5 17.5t-18.5 46.5z" />
<glyph unicode="&#xd7;" horiz-adv-x="968" d="M125 915l61 58l299 -295l299 295l62 -58l-303 -284l301 -287l-60 -55l-299 295l-299 -295l-59 55l299 287z" />
<glyph unicode="&#xd8;" horiz-adv-x="1245" d="M131 608q0 324 117 495t397 171q119 0 203 -39l70 151l81 -20l-77 -170q100 -72 146 -209t46 -342q0 -326 -115.5 -495.5t-398.5 -169.5q-121 0 -217 45l-76 -166l-82 22l86 187q-180 145 -180 540zM227 631q0 -172 30 -288t97 -181l453 985q-80 35 -193 35 q-74 0 -146.5 -15.5t-119.5 -42.5q-121 -188 -121 -493zM424 113q76 -41 207 -41q74 0 144.5 15t119.5 42q59 92 92 217t33 277q0 180 -33 297.5t-108 181.5z" />
<glyph unicode="&#xd9;" horiz-adv-x="1212" d="M168 344v909h96v-884q0 -115 36 -179.5t111.5 -91t200.5 -26.5q197 0 332 57v1124h96v-1077q0 -94 -119.5 -144t-322.5 -50q-217 0 -323.5 89t-106.5 273zM371 1733l127 14l172 -289l-66 -10z" />
<glyph unicode="&#xda;" horiz-adv-x="1212" d="M168 344v909h96v-884q0 -115 36 -179.5t111.5 -91t200.5 -26.5q197 0 332 57v1124h96v-1077q0 -94 -119.5 -144t-322.5 -50q-217 0 -323.5 89t-106.5 273zM549 1458l172 289l127 -14l-234 -285z" />
<glyph unicode="&#xdb;" horiz-adv-x="1212" d="M168 344v909h96v-884q0 -115 36 -179.5t111.5 -91t200.5 -26.5q197 0 332 57v1124h96v-1077q0 -94 -119.5 -144t-322.5 -50q-217 0 -323.5 89t-106.5 273zM350 1462l209 269h100l207 -269l-61 -14l-191 201h-10l-192 -201z" />
<glyph unicode="&#xdc;" horiz-adv-x="1212" d="M168 344v909h96v-884q0 -115 36 -179.5t111.5 -91t200.5 -26.5q197 0 332 57v1124h96v-1077q0 -94 -119.5 -144t-322.5 -50q-217 0 -323.5 89t-106.5 273zM381 1516q0 31 18.5 48t49.5 17t48 -16.5t17 -48.5q0 -29 -17.5 -46.5t-47.5 -17.5q-31 0 -49.5 17.5t-18.5 46.5z M702 1516q0 33 18.5 49t51.5 16q31 0 48.5 -16.5t17.5 -48.5q0 -29 -17.5 -46.5t-48.5 -17.5q-33 0 -51.5 17.5t-18.5 46.5z" />
<glyph unicode="&#xdd;" horiz-adv-x="1210" d="M66 1237l96 29q80 -201 186.5 -388.5t218.5 -330.5h76q113 147 220.5 333.5t185.5 385.5l96 -29q-193 -449 -453 -770h-39v-467h-96v467h-39q-266 330 -452 770zM549 1460l172 289l127 -14l-234 -287z" />
<glyph unicode="&#xde;" horiz-adv-x="972" d="M176 0v1262h96v-263h238q176 0 267 -86t91 -251q0 -168 -91 -256.5t-267 -88.5h-238v-317h-96zM272 406h230q147 0 208.5 62t61.5 194q0 129 -61.5 188t-208.5 59h-230v-503z" />
<glyph unicode="&#xdf;" horiz-adv-x="1095" d="M170 0v1090q0 135 94 198.5t264 63.5q158 0 246 -86t88 -236q0 -123 -51 -190.5t-166 -108.5v-12q158 -39 225.5 -129t67.5 -234q0 -176 -80 -275t-254 -99q-80 -1 -162 22l17 84q78 -18 145 -18q121 0 182 20q57 119 58 264q0 147 -82 228.5t-258 93.5v90 q131 0 197.5 67.5t66.5 188.5q0 240 -260 240q-123 0 -244 -31v-1231h-94z" />
<glyph unicode="&#xe0;" horiz-adv-x="940" d="M100 213q0 154 107.5 230.5t306.5 76.5q98 0 176 -10v149q0 131 -53 182.5t-180 51.5q-70 0 -176 -12l-21 -144h-67q-18 53 -19 117v29q66 37 154 62.5t174 25.5q135 0 207.5 -75t72.5 -216v-680h-75l-9 137h-14q-119 -156 -317 -155q-129 0 -198 62t-69 169zM193 231 q0 -96 48 -134t142 -38q96 0 177 44t132 124v207q-92 14 -215 15q-127 0 -229 -25q-55 -88 -55 -193zM274 1438l127 14l172 -289l-65 -10z" />
<glyph unicode="&#xe1;" horiz-adv-x="940" d="M100 213q0 154 107.5 230.5t306.5 76.5q98 0 176 -10v149q0 131 -53 182.5t-180 51.5q-70 0 -176 -12l-21 -144h-67q-18 53 -19 117v29q66 37 154 62.5t174 25.5q135 0 207.5 -75t72.5 -216v-680h-75l-9 137h-14q-119 -156 -317 -155q-129 0 -198 62t-69 169zM193 231 q0 -96 48 -134t142 -38q96 0 177 44t132 124v207q-92 14 -215 15q-127 0 -229 -25q-55 -88 -55 -193zM457 1163l172 289l127 -14l-234 -285z" />
<glyph unicode="&#xe2;" horiz-adv-x="940" d="M100 213q0 154 107.5 230.5t306.5 76.5q98 0 176 -10v149q0 131 -53 182.5t-180 51.5q-70 0 -176 -12l-21 -144h-67q-18 53 -19 117v29q66 37 154 62.5t174 25.5q135 0 207.5 -75t72.5 -216v-680h-75l-9 137h-14q-119 -156 -317 -155q-129 0 -198 62t-69 169zM193 231 q0 -96 48 -134t142 -38q96 0 177 44t132 124v207q-92 14 -215 15q-127 0 -229 -25q-55 -88 -55 -193zM229 1165l209 269h101l206 -269l-61 -14l-190 201h-11l-192 -201z" />
<glyph unicode="&#xe3;" horiz-adv-x="940" d="M100 213q0 154 107.5 230.5t306.5 76.5q98 0 176 -10v149q0 131 -53 182.5t-180 51.5q-70 0 -176 -12l-21 -144h-67q-18 53 -19 117v29q66 37 154 62.5t174 25.5q135 0 207.5 -75t72.5 -216v-680h-75l-9 137h-14q-119 -156 -317 -155q-129 0 -198 62t-69 169zM193 231 q0 -96 48 -134t142 -38q96 0 177 44t132 124v207q-92 14 -215 15q-127 0 -229 -25q-55 -88 -55 -193zM221 1167q4 82 43 127t107 45q35 0 62.5 -15t68.5 -44q37 -27 58.5 -38t45.5 -11q80 0 94 110l64 -20q-4 -82 -43 -127t-107 -45q-35 0 -65.5 15.5t-69.5 43.5 q-61 49 -100 49q-80 0 -94 -110z" />
<glyph unicode="&#xe4;" horiz-adv-x="940" d="M100 213q0 154 107.5 230.5t306.5 76.5q98 0 176 -10v149q0 131 -53 182.5t-180 51.5q-70 0 -176 -12l-21 -144h-67q-18 53 -19 117v29q66 37 154 62.5t174 25.5q135 0 207.5 -75t72.5 -216v-680h-75l-9 137h-14q-119 -156 -317 -155q-129 0 -198 62t-69 169zM193 231 q0 -96 48 -134t142 -38q96 0 177 44t132 124v207q-92 14 -215 15q-127 0 -229 -25q-55 -88 -55 -193zM262 1212q0 31 18.5 48.5t49.5 17.5t48 -16.5t17 -49.5q0 -31 -17.5 -47t-47.5 -16q-31 0 -49.5 16.5t-18.5 46.5zM584 1212q0 33 18.5 49.5t50.5 16.5q31 0 48.5 -16.5 t17.5 -49.5q0 -31 -17.5 -47t-48.5 -16q-32 0 -50.5 16.5t-18.5 46.5z" />
<glyph unicode="&#xe5;" horiz-adv-x="940" d="M100 213q0 154 107.5 230.5t306.5 76.5q98 0 176 -10v149q0 131 -53 182.5t-180 51.5q-70 0 -176 -12l-21 -144h-67q-18 53 -19 117v29q66 37 154 62.5t174 25.5q135 0 207.5 -75t72.5 -216v-680h-75l-9 137h-14q-119 -156 -317 -155q-129 0 -198 62t-69 169zM193 231 q0 -96 48 -134t142 -38q96 0 177 44t132 124v207q-92 14 -215 15q-127 0 -229 -25q-55 -88 -55 -193zM289 1315q0 78 64.5 134t170.5 56q199 0 199 -170q0 -80 -61.5 -133t-172.5 -53q-96 0 -148 42t-52 124zM362 1319q0 -51 33 -79t99 -28q80 1 137 19q18 53 18 100 q0 109 -133 109q-76 0 -135 -17q-18 -55 -19 -104z" />
<glyph unicode="&#xe6;" horiz-adv-x="1536" d="M100 213q0 154 105.5 230.5t304.5 76.5q113 0 195 -10v149q0 127 -61.5 180.5t-190.5 53.5q-66 0 -172 -12l-21 -144h-67q-18 53 -19 117v29q66 37 153 62.5t171 25.5q104 0 177 -48.5t99 -138.5q94 186 326 187q156 0 247 -97.5t91 -269.5q0 -23 -4 -72l-91 -94l-546 2 q6 -186 79.5 -276t229.5 -90q90 0 152.5 17.5t125.5 53.5l33 -73q-74 -41 -143.5 -61.5t-169.5 -20.5q-244 0 -336 180q-86 -98 -172 -143t-227 -45q-129 0 -199 62t-70 169zM193 231q0 -96 47 -134t143 -38q104 0 182 39t142 113v223q-94 14 -234 15q-123 0 -225 -25 q-55 -88 -55 -193zM797 510l544 10q12 43 13 96q0 125 -66.5 198t-193.5 73q-158 0 -221.5 -92.5t-75.5 -284.5z" />
<glyph unicode="&#xe7;" horiz-adv-x="913" d="M119 432q0 248 96 393.5t303 145.5q154 0 268 -76v-49q0 -92 -20 -141h-57l-13 159q-92 20 -184 21q-127 0 -219 -39q-84 -164 -84 -410q0 -180 80 -274t241 -94q154 0 265 84l49 -66q-63 -49 -136 -75.5t-171 -28.5l-91 -121q43 18 101 18q150 0 149 -149 q0 -172 -207 -172q-89 -1 -165 32l24 66q68 -25 146 -25q63 0 106 15q12 27 12 75q0 43 -22.5 64.5t-71.5 21.5q-59 0 -94 -12l-64 64l105 125q-178 18 -262 133.5t-84 314.5z" />
<glyph unicode="&#xe8;" horiz-adv-x="954" d="M121 473q0 233 99 365.5t298 132.5q156 0 246 -96.5t90 -268.5q0 -20 -4 -74l-90 -94l-549 2q4 -188 80 -282.5t233 -94.5q90 0 152.5 17.5t126.5 54.5l31 -74q-70 -39 -139.5 -59t-172.5 -20q-401 -1 -401 491zM209 510l551 10q10 37 10 96q0 125 -66.5 198t-193.5 73 q-158 0 -223.5 -93.5t-77.5 -283.5zM272 1438l127 14l172 -289l-65 -10z" />
<glyph unicode="&#xe9;" horiz-adv-x="954" d="M121 473q0 233 99 365.5t298 132.5q156 0 246 -96.5t90 -268.5q0 -20 -4 -74l-90 -94l-549 2q4 -188 80 -282.5t233 -94.5q90 0 152.5 17.5t126.5 54.5l31 -74q-70 -39 -139.5 -59t-172.5 -20q-401 -1 -401 491zM209 510l551 10q10 37 10 96q0 125 -66.5 198t-193.5 73 q-158 0 -223.5 -93.5t-77.5 -283.5zM453 1163l172 289l127 -14l-234 -285z" />
<glyph unicode="&#xea;" horiz-adv-x="954" d="M121 473q0 233 99 365.5t298 132.5q156 0 246 -96.5t90 -268.5q0 -20 -4 -74l-90 -94l-549 2q4 -188 80 -282.5t233 -94.5q90 0 152.5 17.5t126.5 54.5l31 -74q-70 -39 -139.5 -59t-172.5 -20q-401 -1 -401 491zM209 510l551 10q10 37 10 96q0 125 -66.5 198t-193.5 73 q-158 0 -223.5 -93.5t-77.5 -283.5zM248 1165l209 269h100l207 -269l-62 -14l-190 201h-10l-193 -201z" />
<glyph unicode="&#xeb;" horiz-adv-x="954" d="M121 473q0 233 99 365.5t298 132.5q156 0 246 -96.5t90 -268.5q0 -20 -4 -74l-90 -94l-549 2q4 -188 80 -282.5t233 -94.5q90 0 152.5 17.5t126.5 54.5l31 -74q-70 -39 -139.5 -59t-172.5 -20q-401 -1 -401 491zM209 510l551 10q10 37 10 96q0 125 -66.5 198t-193.5 73 q-158 0 -223.5 -93.5t-77.5 -283.5zM272 1212q0 31 18.5 48.5t49.5 17.5t48.5 -16.5t17.5 -49.5q0 -31 -17.5 -47t-48.5 -16t-49.5 16.5t-18.5 46.5zM594 1212q0 33 18.5 49.5t51.5 16.5q31 0 48 -16.5t17 -49.5q0 -31 -17.5 -47t-47.5 -16q-33 0 -51.5 16.5t-18.5 46.5z " />
<glyph unicode="&#xec;" d="M-37 1438l129 14l170 -289l-63 -10zM178 0v952h90v-952h-90z" />
<glyph unicode="&#xed;" d="M178 0v952h90v-952h-90zM182 1163l172 289l127 -14l-233 -285z" />
<glyph unicode="&#xee;" d="M-27 1157l209 270h99l208 -270l-63 -12l-188 201h-13l-190 -201zM184 0v952h90v-952h-90z" />
<glyph unicode="&#xef;" d="M2 1212q0 31 18.5 48.5t49.5 17.5t48 -16.5t17 -49.5q0 -31 -17.5 -47t-47.5 -16q-31 0 -49.5 16.5t-18.5 46.5zM184 0v952h90v-952h-90zM324 1212q0 33 18 49.5t51 16.5q31 0 48.5 -16.5t17.5 -49.5q0 -31 -17.5 -47t-48.5 -16q-33 0 -51 16.5t-18 46.5z" />
<glyph unicode="&#xf0;" horiz-adv-x="1140" d="M176 356q0 170 99.5 263.5t265.5 93.5q90 0 162.5 -36t125.5 -93h11q-6 238 -129 397l-244 -88l-27 61l224 84q-98 98 -224 158l45 59q160 -80 256 -184l213 78l31 -66l-197 -69q82 -113 114 -231.5t32 -272.5q0 -162 -31 -275.5t-118 -181t-246 -67.5q-166 0 -264.5 96 t-98.5 274zM270 360q0 -289 289 -288q66 0 118 10t107 33q27 59 41.5 137t14.5 158q0 47 -4 86q-63 63 -129 96t-154 33q-283 0 -283 -265z" />
<glyph unicode="&#xf1;" horiz-adv-x="1044" d="M172 0v954h76l6 -141h14q170 158 371 158q119 0 179.5 -44t60.5 -143v-784h-93v860q-78 27 -165 27q-100 0 -195.5 -41t-161.5 -109v-737h-92zM256 1167q4 82 43 127t107 45q35 0 62.5 -15t68.5 -44q37 -27 58 -38t46 -11q80 0 94 110l64 -20q-4 -82 -43 -127t-107 -45 q-35 0 -65.5 15.5t-69.5 43.5q-61 49 -100 49q-80 0 -95 -110z" />
<glyph unicode="&#xf2;" horiz-adv-x="1019" d="M119 465q0 242 92 381t321 139q184 0 276.5 -130t92.5 -359q0 -240 -92 -377t-322 -137q-184 0 -276 127t-92 356zM209 483q0 -217 70.5 -318.5t230.5 -101.5q135 1 223 50q35 57 55.5 154.5t20.5 205.5q0 219 -70.5 322.5t-230.5 103.5q-139 0 -223 -49 q-35 -57 -55.5 -156.5t-20.5 -210.5zM279 1438l127 14l172 -289l-66 -10z" />
<glyph unicode="&#xf3;" horiz-adv-x="1019" d="M119 465q0 242 92 381t321 139q184 0 276.5 -130t92.5 -359q0 -240 -92 -377t-322 -137q-184 0 -276 127t-92 356zM209 483q0 -217 70.5 -318.5t230.5 -101.5q135 1 223 50q35 57 55.5 154.5t20.5 205.5q0 219 -70.5 322.5t-230.5 103.5q-139 0 -223 -49 q-35 -57 -55.5 -156.5t-20.5 -210.5zM469 1163l172 289l127 -14l-233 -285z" />
<glyph unicode="&#xf4;" horiz-adv-x="1019" d="M119 465q0 242 92 381t321 139q184 0 276.5 -130t92.5 -359q0 -240 -92 -377t-322 -137q-184 0 -276 127t-92 356zM209 483q0 -217 70.5 -318.5t230.5 -101.5q135 1 223 50q35 57 55.5 154.5t20.5 205.5q0 219 -70.5 322.5t-230.5 103.5q-139 0 -223 -49 q-35 -57 -55.5 -156.5t-20.5 -210.5zM250 1157l209 270h100l207 -270l-61 -12l-191 201h-10l-193 -201z" />
<glyph unicode="&#xf5;" horiz-adv-x="1019" d="M119 465q0 242 92 381t321 139q184 0 276.5 -130t92.5 -359q0 -240 -92 -377t-322 -137q-184 0 -276 127t-92 356zM209 483q0 -217 70.5 -318.5t230.5 -101.5q135 1 223 50q35 57 55.5 154.5t20.5 205.5q0 219 -70.5 322.5t-230.5 103.5q-139 0 -223 -49 q-35 -57 -55.5 -156.5t-20.5 -210.5zM240 1167q4 82 43 127t106 45q35 0 62.5 -15t68.5 -44q37 -27 58.5 -38t46.5 -11q80 0 94 110l63 -20q-4 -82 -43 -127t-106 -45q-35 0 -65.5 15.5t-69.5 43.5q-61 49 -101 49q-80 0 -94 -110z" />
<glyph unicode="&#xf6;" horiz-adv-x="1019" d="M119 465q0 242 92 381t321 139q184 0 276.5 -130t92.5 -359q0 -240 -92 -377t-322 -137q-184 0 -276 127t-92 356zM209 483q0 -217 70.5 -318.5t230.5 -101.5q135 1 223 50q35 57 55.5 154.5t20.5 205.5q0 219 -70.5 322.5t-230.5 103.5q-139 0 -223 -49 q-35 -57 -55.5 -156.5t-20.5 -210.5zM279 1212q0 31 18 48.5t49 17.5t48.5 -16.5t17.5 -49.5q0 -31 -17.5 -47t-48.5 -16t-49 16.5t-18 46.5zM600 1212q0 33 18.5 49.5t51.5 16.5q31 0 48 -16.5t17 -49.5q0 -31 -17.5 -47t-47.5 -16q-33 0 -51.5 16.5t-18.5 46.5z" />
<glyph unicode="&#xf7;" horiz-adv-x="1077" d="M125 588v82h827v-82h-827zM453 301q0 39 23.5 62.5t62.5 23.5t61.5 -23.5t22.5 -62.5q0 -37 -22.5 -59.5t-61.5 -22.5t-62.5 22.5t-23.5 59.5zM453 950q0 39 23.5 62.5t62.5 23.5t61.5 -23.5t22.5 -62.5q0 -37 -22.5 -59.5t-61.5 -22.5t-62.5 22.5t-23.5 59.5z" />
<glyph unicode="&#xf8;" horiz-adv-x="1019" d="M119 465q0 242 92 381t321 139q88 0 156 -31l78 168l82 -18l-90 -195q143 -118 143 -413q0 -240 -92 -377t-322 -137q-82 0 -143 24l-100 -219l-82 20l110 240q-154 115 -153 418zM209 483q0 -258 100 -352l342 739q-63 29 -143 29q-139 0 -223 -49q-35 -57 -55.5 -156.5 t-20.5 -210.5zM381 86q57 -23 129 -23q135 0 223 50q35 57 55.5 154.5t20.5 205.5q0 246 -90 348z" />
<glyph unicode="&#xf9;" horiz-adv-x="1032" d="M162 168v786h92v-864q72 -25 162 -24q104 0 196.5 44t155.5 113v731h92v-954h-76l-8 145h-12q-86 -82 -170 -122.5t-193 -40.5q-118 0 -178.5 44t-60.5 142zM279 1438l127 14l172 -289l-66 -10z" />
<glyph unicode="&#xfa;" horiz-adv-x="1032" d="M162 168v786h92v-864q72 -25 162 -24q104 0 196.5 44t155.5 113v731h92v-954h-76l-8 145h-12q-86 -82 -170 -122.5t-193 -40.5q-118 0 -178.5 44t-60.5 142zM453 1157l172 287l127 -12l-234 -287z" />
<glyph unicode="&#xfb;" horiz-adv-x="1032" d="M162 168v786h92v-864q72 -25 162 -24q104 0 196.5 44t155.5 113v731h92v-954h-76l-8 145h-12q-86 -82 -170 -122.5t-193 -40.5q-118 0 -178.5 44t-60.5 142zM254 1159l209 268h100l207 -268l-61 -14l-191 201h-10l-193 -201z" />
<glyph unicode="&#xfc;" horiz-adv-x="1032" d="M162 168v786h92v-864q72 -25 162 -24q104 0 196.5 44t155.5 113v731h92v-954h-76l-8 145h-12q-86 -82 -170 -122.5t-193 -40.5q-118 0 -178.5 44t-60.5 142zM287 1212q0 31 18.5 48.5t48.5 17.5q31 0 48.5 -16.5t17.5 -49.5q0 -31 -17.5 -47t-48.5 -16q-30 0 -48.5 16.5 t-18.5 46.5zM608 1212q0 33 18.5 49.5t51.5 16.5q31 0 48 -16.5t17 -49.5q0 -31 -17 -47t-48 -16q-33 0 -51.5 16.5t-18.5 46.5z" />
<glyph unicode="&#xfd;" horiz-adv-x="987" d="M84 952l92 11q133 -485 273 -834h116q139 430 236 834l92 -11q-76 -319 -175.5 -630.5t-201.5 -559.5q-59 -137 -229 -137q-94 0 -160 31v45q0 51 16 113h68v-101q41 -8 100 -8q53 0 99 12q59 131 125 328h-140q-100 248 -170.5 455t-140.5 452zM453 1163l172 289 l127 -14l-234 -285z" />
<glyph unicode="&#xfe;" horiz-adv-x="985" d="M176 -369v1745h96v-530h13q70 45 137 69.5t149 24.5q309 0 310 -395q0 -186 -80 -295t-238 -109q-156 0 -278 88h-13v-598h-96zM272 309q72 -39 133.5 -58.5t135.5 -19.5q133 0 188 81t55 233q0 156 -52 230.5t-191 74.5q-133 0 -269 -86v-455z" />
<glyph unicode="&#xff;" horiz-adv-x="987" d="M84 952l92 11q133 -485 273 -834h116q139 430 236 834l92 -11q-76 -319 -175.5 -630.5t-201.5 -559.5q-59 -137 -229 -137q-94 0 -160 31v45q0 51 16 113h68v-101q41 -8 100 -8q53 0 99 12q59 131 125 328h-140q-100 248 -170.5 455t-140.5 452zM266 1212q0 31 18.5 48.5 t49.5 17.5t48 -16.5t17 -49.5q0 -31 -17 -47t-48 -16t-49.5 16.5t-18.5 46.5zM588 1212q0 33 18.5 49.5t50.5 16.5q31 0 48.5 -16.5t17.5 -49.5q0 -31 -17.5 -47t-48.5 -16q-32 0 -50.5 16.5t-18.5 46.5z" />
<glyph unicode="&#x152;" horiz-adv-x="1808" d="M133 608q0 326 122 496t404 170q150 0 254 -21h725v-90h-630v-487h571v-90h-571v-482q152 -35 321 -34q168 0 311 30l23 -86q-141 -35 -342 -34q-281 0 -365 75h-12q-127 -76 -336 -75q-475 -1 -475 628zM229 631q0 -291 92.5 -425t317.5 -134q74 0 147.5 15t124.5 42 v1032q-59 12 -117.5 16.5t-154.5 4.5q-82 0 -162 -15.5t-127 -42.5q-121 -188 -121 -493z" />
<glyph unicode="&#x153;" horiz-adv-x="1642" d="M119 469q0 242 92 379t321 137q121 0 203 -59.5t123 -169.5h8q43 104 129 159.5t213 55.5q156 0 246 -97.5t90 -269.5q0 -23 -4 -72l-90 -94l-549 2q6 -186 80 -276t233 -90q88 0 152 17.5t127 53.5l31 -73q-72 -39 -141.5 -60.5t-172.5 -21.5q-262 0 -350 213h-12 q-88 -213 -361 -213q-186 0 -277 126t-91 353zM209 489q0 -217 70.5 -317t230.5 -100q135 0 223 49q33 59 54.5 149t21.5 193q0 229 -70.5 332.5t-230.5 103.5q-139 0 -223 -49q-35 -57 -55.5 -154.5t-20.5 -206.5zM899 510l549 10q12 43 12 96q0 125 -67.5 198t-194.5 73 q-156 0 -222.5 -94.5t-76.5 -282.5z" />
<glyph unicode="&#x178;" horiz-adv-x="1210" d="M66 1237l96 29q80 -201 186.5 -388.5t218.5 -330.5h76q113 147 220.5 333.5t185.5 385.5l96 -29q-193 -449 -453 -770h-39v-467h-96v467h-39q-266 330 -452 770zM377 1516q0 31 18.5 48t48.5 17q31 0 48.5 -16.5t17.5 -48.5q0 -29 -17.5 -46.5t-48.5 -17.5 q-30 0 -48.5 17.5t-18.5 46.5zM698 1516q0 33 18.5 49t51.5 16q31 0 48.5 -16.5t17.5 -48.5q0 -29 -17.5 -46.5t-48.5 -17.5q-33 0 -51.5 17.5t-18.5 46.5z" />
<glyph unicode="&#x2c6;" horiz-adv-x="684" d="M84 983l209 270h100l207 -270l-61 -14l-191 200h-10l-193 -200z" />
<glyph unicode="&#x2dc;" horiz-adv-x="854" d="M156 1094q4 82 43 128t106 46q35 0 62.5 -15.5t68.5 -44.5q37 -27 58.5 -38t46.5 -11q80 0 94 109l63 -19q-4 -82 -43 -128t-106 -46q-35 0 -66.5 16.5t-68.5 45.5q-33 25 -55.5 37t-45.5 12q-80 0 -94 -111z" />
<glyph unicode="&#x2000;" horiz-adv-x="920" />
<glyph unicode="&#x2001;" horiz-adv-x="1841" />
<glyph unicode="&#x2002;" horiz-adv-x="920" />
<glyph unicode="&#x2003;" horiz-adv-x="1841" />
<glyph unicode="&#x2004;" horiz-adv-x="613" />
<glyph unicode="&#x2005;" />
<glyph unicode="&#x2006;" horiz-adv-x="306" />
<glyph unicode="&#x2007;" horiz-adv-x="306" />
<glyph unicode="&#x2008;" horiz-adv-x="230" />
<glyph unicode="&#x2009;" horiz-adv-x="368" />
<glyph unicode="&#x200a;" horiz-adv-x="102" />
<glyph unicode="&#x2010;" horiz-adv-x="792" d="M139 530v84h514v-84h-514z" />
<glyph unicode="&#x2011;" horiz-adv-x="792" d="M139 530v84h514v-84h-514z" />
<glyph unicode="&#x2012;" horiz-adv-x="792" d="M139 530v84h514v-84h-514z" />
<glyph unicode="&#x2013;" horiz-adv-x="983" d="M139 514v86h707v-86h-707z" />
<glyph unicode="&#x2014;" horiz-adv-x="1345" d="M139 514v86h1067v-86h-1067z" />
<glyph unicode="&#x2018;" horiz-adv-x="501" d="M156 1010q0 139 94 256l59 -15q-37 -68 -55 -134t-18 -154h112v-68q-35 -12 -76 -12q-116 0 -116 127z" />
<glyph unicode="&#x2019;" horiz-adv-x="501" d="M154 1186v67q45 12 77 13q115 0 115 -127q0 -139 -94 -256l-59 14q37 68 55 133.5t18 155.5h-112z" />
<glyph unicode="&#x201a;" horiz-adv-x="503" d="M154 104v68q45 12 77 12q115 0 115 -127q0 -139 -92 -256l-61 15q37 68 55 133t18 155h-112z" />
<glyph unicode="&#x201c;" horiz-adv-x="839" d="M156 1010q0 139 94 256l59 -15q-37 -68 -55 -134t-18 -154h112v-68q-35 -12 -78 -12q-114 0 -114 127zM494 1010q0 139 94 256l59 -15q-37 -68 -55.5 -134t-18.5 -154h113v-68q-33 -12 -76 -12q-116 0 -116 127z" />
<glyph unicode="&#x201d;" horiz-adv-x="839" d="M154 1186v67q45 12 75 13q117 0 117 -127q0 -139 -94 -256l-59 14q37 68 55 133.5t18 155.5h-112zM492 1186v67q45 12 77 13q115 0 115 -127q0 -139 -94 -256l-60 14q37 68 55.5 133.5t18.5 155.5h-112z" />
<glyph unicode="&#x201e;" horiz-adv-x="839" d="M154 1186v67q45 12 75 13q117 0 117 -127q0 -139 -94 -256l-59 14q37 68 55 133.5t18 155.5h-112zM492 1186v67q45 12 77 13q115 0 115 -127q0 -139 -94 -256l-60 14q37 68 55.5 133.5t18.5 155.5h-112z" />
<glyph unicode="&#x2022;" horiz-adv-x="665" d="M166 555q0 72 48 119t120 47t120 -47t48 -119t-48 -119t-120 -47q-74 0 -121 46t-47 120z" />
<glyph unicode="&#x2026;" horiz-adv-x="1210" d="M182 0v137h135v-137h-135zM537 0v137h135v-137h-135zM893 0v137h135v-137h-135z" />
<glyph unicode="&#x202f;" horiz-adv-x="368" />
<glyph unicode="&#x2039;" horiz-adv-x="632" d="M131 532l266 353l66 -25l-240 -328l240 -325l-66 -25z" />
<glyph unicode="&#x203a;" horiz-adv-x="595" d="M133 207l240 325l-240 328l66 25l266 -353l-266 -350z" />
<glyph unicode="&#x205f;" />
<glyph unicode="&#x20ac;" horiz-adv-x="1212" d="M115 463v72h131l-2 69q0 25 4 82h-133v72h139q25 182 82 293.5t162.5 167t277.5 55.5q92 0 163 -16.5t146 -53.5l-45 -78q-72 31 -133 43.5t-147 12.5q-164 0 -307 -54q-41 -102 -64.5 -186t-34.5 -184h500v-72h-506q-4 -31 -4 -84q0 -43 2 -67h459v-72h-455 q20 -203 122.5 -293t297.5 -90q94 0 160.5 19.5t132.5 60.5l45 -72q-141 -100 -334 -100q-237 0 -364 109.5t-160 365.5h-135z" />
<glyph unicode="&#x2122;" horiz-adv-x="1478" d="M96 1176v75h512v-75h-215v-633h-84v633h-213zM729 553l47 698h103l149 -403h8l150 403h100l49 -698h-80l-22 375l-4 209l-10 2l-148 -381h-78l-149 381l-8 -2l-5 -209l-22 -375h-80z" />
<glyph unicode="&#x25fc;" horiz-adv-x="962" d="M0 0v963h963v-963h-963z" />
</font>
</defs>
</svg>
